<?xml version="1.0" encoding="UTF-8" standalone="no"?>
<svg
   width="128"
   height="128"
   id="svg5048"
   version="1.1"
   inkscape:version="1.1.1 (3bf5ae0d25, 2021-09-20)"
   sodipodi:docname="login.svg"
   xmlns:inkscape="http://www.inkscape.org/namespaces/inkscape"
   xmlns:sodipodi="http://sodipodi.sourceforge.net/DTD/sodipodi-0.dtd"
   xmlns:xlink="http://www.w3.org/1999/xlink"
   xmlns="http://www.w3.org/2000/svg"
   xmlns:svg="http://www.w3.org/2000/svg"
   xmlns:rdf="http://www.w3.org/1999/02/22-rdf-syntax-ns#"
   xmlns:cc="http://creativecommons.org/ns#"
   xmlns:dc="http://purl.org/dc/elements/1.1/">
  <defs
     id="defs5050">
    <linearGradient
       inkscape:collect="always"
       id="linearGradient949">
      <stop
         style="stop-color:#8787de;stop-opacity:1"
         offset="0"
         id="stop945" />
      <stop
         style="stop-color:#ffccaa;stop-opacity:1"
         offset="1"
         id="stop947" />
    </linearGradient>
    <filter
       id="filter4004-4"
       inkscape:label="Colorize"
       inkscape:menu="Color"
       inkscape:menu-tooltip="Blend image or object with a flood color and set lightness and contrast"
       x="0"
       y="0"
       width="1"
       height="1"
       color-interpolation-filters="sRGB">
      <feColorMatrix
         id="feColorMatrix4006-0"
         values="1"
         in="SourceGraphic"
         type="saturate"
         result="result2" />
      <feFlood
         id="feFlood4008-2"
         flood-color="rgb(250,247,247)"
         flood-opacity="1"
         result="result1" />
      <feBlend
         id="feBlend4010-1"
         in2="result2"
         mode="multiply"
         in="result1"
         result="result3" />
      <feComposite
         id="feComposite4012-3"
         in2="SourceGraphic"
         operator="in"
         result="result4" />
    </filter>
    <filter
       id="filter4004-44"
       inkscape:label="Colorize"
       inkscape:menu="Color"
       inkscape:menu-tooltip="Blend image or object with a flood color and set lightness and contrast"
       x="0"
       y="0"
       width="1"
       height="1"
       color-interpolation-filters="sRGB">
      <feColorMatrix
         id="feColorMatrix4006-8"
         values="1"
         in="SourceGraphic"
         type="saturate"
         result="result2" />
      <feFlood
         id="feFlood4008-0"
         flood-color="rgb(250,247,247)"
         flood-opacity="1"
         result="result1" />
      <feBlend
         id="feBlend4010-5"
         in2="result2"
         mode="multiply"
         in="result1"
         result="result3" />
      <feComposite
         id="feComposite4012-6"
         in2="SourceGraphic"
         operator="in"
         result="result4" />
    </filter>
    <style
       id="current-color-scheme"
       type="text/css">      .ColorScheme-Text {
        color:#31363b;
      }
      .ColorScheme-Background{
        color:#eff0f1;
      }
      .ColorScheme-ViewText {
        color:#31363b;
      }
      .ColorScheme-ViewBackground{
        color:#fcfcfc;
      }
      .ColorScheme-ViewHover {
        color:#3daee9;
      }
      .ColorScheme-ViewFocus{
        color:#3daee9;
      }
      .ColorScheme-ButtonText {
        color:#31363b;
      }
      .ColorScheme-ButtonBackground{
        color:#eff0f1;
      }
      .ColorScheme-ButtonHover {
        color:#3daee9;
      }
      .ColorScheme-ButtonFocus{
        color:#3daee9;
      }</style>
    <linearGradient
       gradientUnits="userSpaceOnUse"
       y2="529.79797"
       x2="425.57144"
       y1="542.79797"
       x1="439.57144"
       id="linearGradient4620"
       xlink:href="#linearGradient4460"
       inkscape:collect="always" />
    <linearGradient
       gradientUnits="userSpaceOnUse"
       y2="528.79797"
       x2="427.57144"
       y1="521.79797"
       x1="435.57144"
       id="linearGradient4612"
       xlink:href="#linearGradient4460"
       inkscape:collect="always" />
    <linearGradient
       gradientUnits="userSpaceOnUse"
       y2="531.79797"
       x2="425.57144"
       y1="529.79797"
       x1="436.57144"
       id="linearGradient4604"
       xlink:href="#linearGradient4460"
       inkscape:collect="always" />
    <linearGradient
       gradientUnits="userSpaceOnUse"
       y2="530.79797"
       x2="425.57144"
       y1="540.79797"
       x1="419.57144"
       id="linearGradient4594"
       xlink:href="#linearGradient4460"
       inkscape:collect="always" />
    <linearGradient
       gradientUnits="userSpaceOnUse"
       y2="528.79797"
       x2="413.57144"
       y1="541.79797"
       x1="425.57144"
       id="linearGradient4586"
       xlink:href="#linearGradient4460"
       inkscape:collect="always" />
    <linearGradient
       gradientUnits="userSpaceOnUse"
       y2="531.79797"
       x2="406.57144"
       y1="523.79797"
       x1="416.57144"
       id="linearGradient4578"
       xlink:href="#linearGradient4460"
       inkscape:collect="always" />
    <linearGradient
       gradientUnits="userSpaceOnUse"
       y2="528.79797"
       x2="405.57144"
       y1="544.79797"
       x1="420.57144"
       id="linearGradient4576"
       xlink:href="#linearGradient4460"
       inkscape:collect="always" />
    <linearGradient
       gradientUnits="userSpaceOnUse"
       y2="530.79797"
       x2="401.57144"
       y1="542.79797"
       x1="396.57144"
       id="linearGradient4568"
       xlink:href="#linearGradient4460"
       inkscape:collect="always" />
    <linearGradient
       gradientUnits="userSpaceOnUse"
       y2="528.79797"
       x2="395.57144"
       y1="531.79797"
       x1="380.57144"
       id="linearGradient4560"
       xlink:href="#linearGradient4460"
       inkscape:collect="always" />
    <linearGradient
       gradientUnits="userSpaceOnUse"
       y2="520.79797"
       x2="391.57144"
       y1="518.79797"
       x1="377.57144"
       id="linearGradient4552"
       xlink:href="#linearGradient4460"
       inkscape:collect="always" />
    <linearGradient
       gradientUnits="userSpaceOnUse"
       y2="523.60181"
       x2="398.57144"
       y1="528.79797"
       x1="389.57144"
       id="linearGradient4544"
       xlink:href="#linearGradient4460"
       inkscape:collect="always" />
    <linearGradient
       gradientUnits="userSpaceOnUse"
       y2="523.79797"
       x2="402.57144"
       y1="512.79797"
       x1="414.57144"
       id="linearGradient4536"
       xlink:href="#linearGradient4460"
       inkscape:collect="always" />
    <linearGradient
       gradientUnits="userSpaceOnUse"
       y2="520.79797"
       x2="423.57144"
       y1="518.79797"
       x1="437.57144"
       id="linearGradient4534"
       xlink:href="#linearGradient4460"
       inkscape:collect="always" />
    <linearGradient
       gradientUnits="userSpaceOnUse"
       y2="519.79797"
       x2="420.57144"
       y1="526.79797"
       x1="433.57144"
       id="linearGradient4526"
       xlink:href="#linearGradient4460"
       inkscape:collect="always" />
    <linearGradient
       gradientUnits="userSpaceOnUse"
       y2="514.79797"
       x2="422.57144"
       y1="521.79797"
       x1="436.57144"
       id="linearGradient4518"
       xlink:href="#linearGradient4460"
       inkscape:collect="always" />
    <linearGradient
       gradientUnits="userSpaceOnUse"
       y2="516.79797"
       x2="427.57144"
       y1="512.79797"
       x1="436.57144"
       id="linearGradient4510"
       xlink:href="#linearGradient4460"
       inkscape:collect="always" />
    <linearGradient
       gradientUnits="userSpaceOnUse"
       y2="520.79797"
       x2="419.64328"
       y1="524.79797"
       x1="426.57144"
       id="linearGradient4502"
       xlink:href="#linearGradient4460"
       inkscape:collect="always" />
    <linearGradient
       gradientUnits="userSpaceOnUse"
       y2="514.79797"
       x2="409.57144"
       y1="509.798"
       x1="416.57144"
       id="linearGradient4494"
       xlink:href="#linearGradient4460"
       inkscape:collect="always" />
    <linearGradient
       gradientUnits="userSpaceOnUse"
       y2="510.798"
       x2="406.57144"
       y1="522.79797"
       x1="396.57144"
       id="linearGradient4492"
       xlink:href="#linearGradient4460"
       inkscape:collect="always" />
    <linearGradient
       gradientUnits="userSpaceOnUse"
       y2="511.798"
       x2="402.57144"
       y1="519.79797"
       x1="389.57144"
       id="linearGradient4484"
       xlink:href="#linearGradient4460"
       inkscape:collect="always" />
    <linearGradient
       gradientUnits="userSpaceOnUse"
       y2="505.798"
       x2="424.57144"
       y1="500.798"
       x1="431.57144"
       id="linearGradient4476"
       xlink:href="#linearGradient4460"
       inkscape:collect="always" />
    <linearGradient
       gradientUnits="userSpaceOnUse"
       y2="510.798"
       x2="420.57144"
       y1="501.798"
       x1="427.57144"
       id="linearGradient4466"
       xlink:href="#linearGradient4460"
       inkscape:collect="always" />
    <linearGradient
       gradientUnits="userSpaceOnUse"
       y2="504.798"
       x2="412.57144"
       y1="513.79797"
       x1="414.57144"
       id="linearGradient4458"
       xlink:href="#linearGradient4460"
       inkscape:collect="always" />
    <linearGradient
       gradientUnits="userSpaceOnUse"
       y2="502.798"
       x2="405.57144"
       y1="512.79797"
       x1="404.57144"
       id="linearGradient4450"
       xlink:href="#linearGradient4460"
       inkscape:collect="always" />
    <linearGradient
       gradientUnits="userSpaceOnUse"
       y2="510.0134"
       x2="392.57144"
       y1="506.798"
       x1="404.57144"
       id="linearGradient4440"
       xlink:href="#linearGradient4460"
       inkscape:collect="always" />
    <linearGradient
       gradientUnits="userSpaceOnUse"
       y2="508.798"
       x2="391.95267"
       y1="516.79797"
       x1="396.57144"
       id="linearGradient4432"
       xlink:href="#linearGradient4460"
       inkscape:collect="always" />
    <linearGradient
       gradientUnits="userSpaceOnUse"
       y2="505.798"
       x2="409.57144"
       y1="535.79797"
       x1="409.57144"
       id="linearGradient4341"
       xlink:href="#linearGradient4152"
       inkscape:collect="always" />
    <linearGradient
       inkscape:collect="always"
       id="linearGradient4152">
      <stop
         style="stop-color:#9526d0;stop-opacity:1"
         offset="0"
         id="stop4154" />
      <stop
         style="stop-color:#39a9f2;stop-opacity:1"
         offset="1"
         id="stop4156" />
    </linearGradient>
    <linearGradient
       id="linearGradient4303">
      <stop
         id="stop4305"
         offset="0"
         style="stop-color:#c6cdd1;stop-opacity:1" />
      <stop
         id="stop4307"
         offset="1"
         style="stop-color:#e0e5e7;stop-opacity:1" />
    </linearGradient>
    <linearGradient
       gradientTransform="matrix(3.181818,0,0,3.181818,-1223.6363,-1597.385)"
       gradientUnits="userSpaceOnUse"
       y2="536.79797"
       x2="408.57144"
       y1="547.79797"
       x1="408.57144"
       id="linearGradient4272"
       xlink:href="#linearGradient4303"
       inkscape:collect="always" />
    <linearGradient
       gradientUnits="userSpaceOnUse"
       y2="503.798"
       x2="409.57144"
       y1="536.79797"
       x1="409.57144"
       id="linearGradient4250"
       xlink:href="#linearGradient4159"
       inkscape:collect="always"
       gradientTransform="matrix(3.181818,0,0,3.181818,-1223.6363,-1597.385)" />
    <linearGradient
       inkscape:collect="always"
       id="linearGradient4159">
      <stop
         style="stop-color:#2a2c2f;stop-opacity:1"
         offset="0"
         id="stop4161" />
      <stop
         style="stop-color:#424649;stop-opacity:1"
         offset="1"
         id="stop4163" />
    </linearGradient>
    <linearGradient
       id="linearGradient4460"
       inkscape:collect="always">
      <stop
         id="stop4462"
         offset="0"
         style="stop-color:#ffffff;stop-opacity:1;" />
      <stop
         id="stop4464"
         offset="1"
         style="stop-color:#ffffff;stop-opacity:0;" />
    </linearGradient>
    <linearGradient
       inkscape:collect="always"
       xlink:href="#linearGradient1110"
       id="linearGradient1171"
       x1="15.19257"
       y1="3.8175781"
       x2="16.807417"
       y2="3.8175781"
       gradientUnits="userSpaceOnUse"
       gradientTransform="matrix(1.2631867,0,0,1.2631867,384.55326,507.55132)" />
    <linearGradient
       inkscape:collect="always"
       id="linearGradient1110">
      <stop
         style="stop-color:#00ffcc;stop-opacity:1"
         offset="0"
         id="stop1106" />
      <stop
         style="stop-color:#2ad4ff;stop-opacity:1"
         offset="1"
         id="stop1108" />
    </linearGradient>
    <linearGradient
       inkscape:collect="always"
       xlink:href="#linearGradient949"
       id="linearGradient951"
       x1="388.34286"
       y1="527.76229"
       x2="421.18572"
       y2="527.76229"
       gradientUnits="userSpaceOnUse" />
    <linearGradient
       inkscape:collect="always"
       xlink:href="#linearGradient949"
       id="linearGradient1151"
       x1="399.4509"
       y1="527.82629"
       x2="413.92426"
       y2="527.82629"
       gradientUnits="userSpaceOnUse" />
    <linearGradient
       inkscape:collect="always"
       xlink:href="#linearGradient949"
       id="linearGradient1159"
       x1="407.79837"
       y1="537.41443"
       x2="420.73465"
       y2="537.41443"
       gradientUnits="userSpaceOnUse" />
  </defs>
  <sodipodi:namedview
     id="base"
     pagecolor="#ffffff"
     bordercolor="#000000"
     borderopacity="1"
     inkscape:pageopacity="0.2627451"
     inkscape:pageshadow="2"
     inkscape:zoom="2"
     inkscape:cx="118.5"
     inkscape:cy="76.5"
     inkscape:document-units="px"
     inkscape:current-layer="layer1-5"
     showgrid="false"
     inkscape:window-width="1920"
     inkscape:window-height="1013"
     inkscape:window-x="0"
     inkscape:window-y="0"
     inkscape:window-maximized="1"
     fit-margin-top="0"
     fit-margin-left="0"
     fit-margin-right="0"
     fit-margin-bottom="0"
     inkscape:snap-bbox="true"
     inkscape:document-rotation="0"
     inkscape:lockguides="false"
     inkscape:pagecheckerboard="0">
    <inkscape:grid
       type="xygrid"
       id="grid3006"
       empspacing="4"
       visible="true"
       enabled="true"
       snapvisiblegridlinesonly="true"
       color="#0000ff"
       opacity="0.01960784"
       empcolor="#0000ff"
       empopacity="0.03921569" />
  </sodipodi:namedview>
  <metadata
     id="metadata5053">
    <rdf:RDF>
      <cc:Work
         rdf:about="">
        <dc:format>image/svg+xml</dc:format>
        <dc:type
           rdf:resource="http://purl.org/dc/dcmitype/StillImage" />
      </cc:Work>
    </rdf:RDF>
  </metadata>
  <g
     inkscape:label="Layer 1"
     inkscape:groupmode="layer"
     id="layer1"
     transform="translate(-6.1297173,-913.75296)">
    <g
       transform="matrix(3.181818,0,0,3.181818,-1217.5066,-701.24058)"
       id="layer1-5"
       inkscape:label="Capa 1">
      <path
         d="m 419.13945,527.7687 c 0,-0.27813 0.11294,-0.53472 0.29742,-0.72873 0.19493,-0.18568 0.46189,-0.29782 0.72873,-0.29782 0.26688,0 0.53367,0.11173 0.72868,0.29782 0.37982,0.36857 0.37982,1.06739 0,1.45742 -0.19493,0.18488 -0.46185,0.29782 -0.72868,0.29782 -0.26688,0 -0.53372,-0.11294 -0.72873,-0.29782 -0.18488,-0.19494 -0.29742,-0.46185 -0.29742,-0.72869 z"
         id="path8-6"
         style="fill:#e6e6e6;stroke-width:1.02634" />
      <path
         d="m 413.69239,527.45303 -13.64493,-6.61573 c -0.16519,-0.0784 -0.36374,-0.0362 -0.48789,0.0952 -0.1242,0.13666 -0.14068,0.33923 -0.0414,0.49622 l 3.99427,6.39656 -3.99841,6.39657 c -0.0993,0.15715 -0.0784,0.35972 0.0414,0.49617 0.0784,0.0868 0.19453,0.13665 0.31028,0.13665 0.0619,0 0.1242,-0.0121 0.18207,-0.0414 l 13.64497,-6.61578 c 0.14067,-0.0703 0.23151,-0.21503 0.23151,-0.37218 0,-0.15715 -0.0908,-0.30184 -0.23151,-0.37218 z"
         id="path2-3-1"
         style="fill:url(#linearGradient1151);fill-opacity:1.0;stroke-width:0.41347" />
      <path
         d="m 388.34286,527.76227 c 0,-9.05436 7.36705,-16.42141 16.42145,-16.42141 9.05432,0 16.42141,7.36705 16.42141,16.42141 0,0.56655 -0.4598,1.02635 -1.02635,1.02635 -0.56651,0 -1.02631,-0.4598 -1.02631,-1.02635 0,-7.92335 -6.44544,-14.36875 -14.36875,-14.36875 -7.92335,0 -14.36875,6.4454 -14.36875,14.36875 0,7.92335 6.4454,14.36875 14.36875,14.36875 0.56651,0 1.02631,0.45879 1.02631,1.02635 0,0.56755 -0.4598,1.02635 -1.02631,1.02635 -9.0544,0 -16.42145,-7.36709 -16.42145,-16.42145 z"
         id="path2-0"
         style="fill:url(#linearGradient951);fill-opacity:1;stroke-width:1.02634" />
      <path
         d="m 403.74435,512.3736 c 0,-0.26688 0.11294,-0.53371 0.29782,-0.72869 0.19494,-0.18488 0.46185,-0.29782 0.72869,-0.29782 0.26688,0 0.53367,0.11294 0.72869,0.29782 0.37981,0.38987 0.37981,1.06739 0,1.45738 -0.19494,0.18488 -0.46185,0.29782 -0.72869,0.29782 -0.26688,0 -0.53371,-0.11294 -0.72869,-0.29782 -0.18488,-0.19493 -0.29782,-0.46185 -0.29782,-0.72869 z"
         id="path4-6"
         style="fill:url(#linearGradient1171);fill-opacity:1;stroke-width:1.02634;opacity:0.01" />
      <path
         d="m 408.55931,541.85847 c 0.54392,-0.14388 1.10842,0.18569 1.25211,0.72869 v 0 c 0.15393,0.55421 -0.17444,1.10846 -0.71844,1.2624 v 0 c -0.55421,0.14389 -1.10842,-0.18488 -1.2624,-0.72869 v 0 c -0.0201,-0.0924 -0.0322,-0.17443 -0.0322,-0.26687 v 0 c 0,-0.45156 0.29782,-0.87238 0.75951,-0.99553 z m 3.45875,-1.43687 v 0.0121 c 0.49263,-0.28738 1.11871,-0.12299 1.40608,0.36936 v 0 c 0.28738,0.49264 0.11294,1.11872 -0.37981,1.40505 v 0 c -0.48239,0.27813 -1.11872,0.11294 -1.39584,-0.37862 v 0 c -0.0924,-0.16398 -0.14389,-0.33882 -0.14389,-0.51313 v 0 c 0,-0.35008 0.18488,-0.69794 0.51317,-0.89295 z m 2.97636,-2.27951 c 0.40031,-0.40031 1.04689,-0.40031 1.44716,0 v 0 c 0.40032,0.40112 0.40032,1.0479 0,1.44713 v 0 c 0,0 0,0 0,0.012 v 0 c -0.40031,0.39108 -1.04689,0.39108 -1.44716,-0.008 v 0 c -0.20539,-0.19413 -0.29743,-0.46185 -0.29743,-0.71844 v 0 c 0,-0.26688 0.0925,-0.53372 0.29743,-0.72973 z m 2.28875,-2.97535 c 0.27732,-0.49264 0.91345,-0.65791 1.39584,-0.36937 v 0 c 0.49263,0.27692 0.65682,0.90316 0.37981,1.39584 v 0 0 0 c -0.28737,0.49159 -0.91345,0.65682 -1.40608,0.37982 v 0 c -0.32838,-0.19494 -0.51318,-0.53472 -0.51318,-0.89292 v 0 c 0,-0.17443 0.0514,-0.34887 0.14389,-0.51317 z m 1.42662,-3.45875 v 0 c 0.15394,-0.54396 0.71844,-0.87242 1.2624,-0.72873 v 0 c 0.54397,0.14389 0.87238,0.70714 0.72869,1.25215 v 0 c 0,0 0,0 0,0.0121 v 0 c -0.15394,0.54396 -0.70819,0.86313 -1.2624,0.71844 v 0 c -0.45156,-0.12339 -0.75947,-0.53392 -0.75947,-0.98552 v 0 c 0,-0.0924 0.012,-0.18488 0.0322,-0.26687 z"
         id="path6-2"
         style="fill:url(#linearGradient1159);fill-opacity:1.0;stroke-width:1.02634" />
    </g>
  </g>
</svg>
