<?xml version="1.0" encoding="UTF-8" standalone="no"?>
<svg
   width="136.53334"
   height="136.53334"
   id="svg5048"
   version="1.1"
   inkscape:version="1.1.1 (3bf5ae0d25, 2021-09-20)"
   sodipodi:docname="restart_primary.svg"
   viewBox="0 0 128 128"
   xmlns:inkscape="http://www.inkscape.org/namespaces/inkscape"
   xmlns:sodipodi="http://sodipodi.sourceforge.net/DTD/sodipodi-0.dtd"
   xmlns:xlink="http://www.w3.org/1999/xlink"
   xmlns="http://www.w3.org/2000/svg"
   xmlns:svg="http://www.w3.org/2000/svg"
   xmlns:rdf="http://www.w3.org/1999/02/22-rdf-syntax-ns#"
   xmlns:cc="http://creativecommons.org/ns#"
   xmlns:dc="http://purl.org/dc/elements/1.1/">
  <defs
     id="defs5050">
    <linearGradient
       inkscape:collect="always"
       id="linearGradient345">
      <stop
         style="stop-color:#a8a8d7;stop-opacity:1"
         offset="0"
         id="stop341" />
      <stop
         style="stop-color:#ffccaa;stop-opacity:1"
         offset="1"
         id="stop343" />
    </linearGradient>
    <filter
       id="filter4004-4"
       inkscape:label="Colorize"
       inkscape:menu="Color"
       inkscape:menu-tooltip="Blend image or object with a flood color and set lightness and contrast"
       x="0"
       y="0"
       width="1"
       height="1"
       color-interpolation-filters="sRGB">
      <feColorMatrix
         id="feColorMatrix4006-0"
         values="1"
         in="SourceGraphic"
         type="saturate"
         result="result2" />
      <feFlood
         id="feFlood4008-2"
         flood-color="rgb(250,247,247)"
         flood-opacity="1"
         result="result1" />
      <feBlend
         id="feBlend4010-1"
         in2="result2"
         mode="multiply"
         in="result1"
         result="result3" />
      <feComposite
         id="feComposite4012-3"
         in2="SourceGraphic"
         operator="in"
         result="result4" />
    </filter>
    <filter
       id="filter4004-44"
       inkscape:label="Colorize"
       inkscape:menu="Color"
       inkscape:menu-tooltip="Blend image or object with a flood color and set lightness and contrast"
       x="0"
       y="0"
       width="1"
       height="1"
       color-interpolation-filters="sRGB">
      <feColorMatrix
         id="feColorMatrix4006-8"
         values="1"
         in="SourceGraphic"
         type="saturate"
         result="result2" />
      <feFlood
         id="feFlood4008-0"
         flood-color="rgb(250,247,247)"
         flood-opacity="1"
         result="result1" />
      <feBlend
         id="feBlend4010-5"
         in2="result2"
         mode="multiply"
         in="result1"
         result="result3" />
      <feComposite
         id="feComposite4012-6"
         in2="SourceGraphic"
         operator="in"
         result="result4" />
    </filter>
    <filter
       id="filter4004-4-4"
       inkscape:label="Colorize"
       inkscape:menu="Color"
       inkscape:menu-tooltip="Blend image or object with a flood color and set lightness and contrast"
       x="0"
       y="0"
       width="1"
       height="1"
       color-interpolation-filters="sRGB">
      <feColorMatrix
         id="feColorMatrix4006-0-1"
         values="1"
         in="SourceGraphic"
         type="saturate"
         result="result2" />
      <feFlood
         id="feFlood4008-2-5"
         flood-color="rgb(250,247,247)"
         flood-opacity="1"
         result="result1" />
      <feBlend
         id="feBlend4010-1-5"
         in2="result2"
         mode="multiply"
         in="result1"
         result="result3" />
      <feComposite
         id="feComposite4012-3-5"
         in2="SourceGraphic"
         operator="in"
         result="result4" />
    </filter>
    <style
       id="current-color-scheme"
       type="text/css">      .ColorScheme-Text {
        color:#31363b;
      }
      .ColorScheme-Background{
        color:#eff0f1;
      }
      .ColorScheme-ViewText {
        color:#31363b;
      }
      .ColorScheme-ViewBackground{
        color:#fcfcfc;
      }
      .ColorScheme-ViewHover {
        color:#3daee9;
      }
      .ColorScheme-ViewFocus{
        color:#3daee9;
      }
      .ColorScheme-ButtonText {
        color:#31363b;
      }
      .ColorScheme-ButtonBackground{
        color:#eff0f1;
      }
      .ColorScheme-ButtonHover {
        color:#3daee9;
      }
      .ColorScheme-ButtonFocus{
        color:#3daee9;
      }</style>
    <linearGradient
       inkscape:collect="always"
       xlink:href="#linearGradient345"
       id="linearGradient1109"
       x1="5.1840019"
       y1="11.984631"
       x2="21.439787"
       y2="11.984631"
       gradientUnits="userSpaceOnUse"
       gradientTransform="matrix(4.6153842,0,0,4.6153842,-3.4977113,904.58888)" />
    <linearGradient
       inkscape:collect="always"
       id="linearGradient1097">
      <stop
         style="stop-color:#de87cd;stop-opacity:1"
         offset="0"
         id="stop1093" />
      <stop
         style="stop-color:#ffccaa;stop-opacity:1"
         offset="1"
         id="stop1095" />
    </linearGradient>
    <linearGradient
       inkscape:collect="always"
       xlink:href="#linearGradient345"
       id="linearGradient1100"
       x1="3"
       y1="16"
       x2="29"
       y2="16"
       gradientUnits="userSpaceOnUse"
       gradientTransform="matrix(4.6153842,0,0,4.6153842,-3.4977113,904.12562)" />
    <linearGradient
       inkscape:collect="always"
       xlink:href="#linearGradient1097"
       id="linearGradient1129"
       x1="15.192579"
       y1="3.8175781"
       x2="16.807423"
       y2="3.8175781"
       gradientUnits="userSpaceOnUse"
       gradientTransform="matrix(4.6153842,0,0,4.6153842,-3.4977113,904.12562)" />
    <linearGradient
       inkscape:collect="always"
       xlink:href="#linearGradient345"
       id="linearGradient1121"
       x1="18.459492"
       y1="23.584602"
       x2="28.699293"
       y2="23.584602"
       gradientUnits="userSpaceOnUse"
       gradientTransform="matrix(4.6153842,0,0,4.6153842,-3.4977113,904.12562)" />
  </defs>
  <sodipodi:namedview
     id="base"
     pagecolor="#ffffff"
     bordercolor="#000000"
     borderopacity="1"
     inkscape:pageopacity="0.10588235"
     inkscape:pageshadow="2"
     inkscape:zoom="2"
     inkscape:cx="58"
     inkscape:cy="76"
     inkscape:document-units="px"
     inkscape:current-layer="layer1"
     showgrid="true"
     inkscape:window-width="1920"
     inkscape:window-height="1013"
     inkscape:window-x="0"
     inkscape:window-y="0"
     inkscape:window-maximized="1"
     fit-margin-top="0"
     fit-margin-left="0"
     fit-margin-right="0"
     fit-margin-bottom="0"
     inkscape:snap-bbox="true"
     inkscape:document-rotation="0"
     inkscape:lockguides="false"
     inkscape:pagecheckerboard="0">
    <inkscape:grid
       type="xygrid"
       id="grid3011"
       empspacing="4"
       visible="true"
       enabled="true"
       snapvisiblegridlinesonly="true"
       color="#0000ff"
       opacity="0.01960784"
       empcolor="#0000ff"
       empopacity="0.03921569"
       originx="0"
       originy="0"
       spacingx="1"
       spacingy="1" />
  </sodipodi:namedview>
  <metadata
     id="metadata5053">
    <rdf:RDF>
      <cc:Work
         rdf:about="">
        <dc:format>image/svg+xml</dc:format>
        <dc:type
           rdf:resource="http://purl.org/dc/dcmitype/StillImage" />
      </cc:Work>
    </rdf:RDF>
  </metadata>
  <g
     inkscape:label="Layer 1"
     inkscape:groupmode="layer"
     id="layer1"
     transform="translate(-6.1297004,-913.75296)">
    <path
       d="m 122.87187,977.99514 c 0,-1.01622 0.41206,-1.95377 1.0875,-2.6625 0.71252,-0.67874 1.68754,-1.08751 2.6625,-1.08751 0.97502,0 1.95003,0.40911 2.6625,1.08751 1.38752,1.34627 1.38752,3.90001 0,5.325 -0.71247,0.675 -1.68748,1.08751 -2.6625,1.08751 -0.97496,0 -1.94998,-0.41206 -2.6625,-1.08751 -0.675,-0.71252 -1.0875,-1.68748 -1.0875,-2.6625 z"
       id="path8-9"
       style="fill:#e6e6e6;stroke-width:3.75" />
    <path
       d="m 30.574709,933.52947 c -5.15456,5.15461 -8.51717,11.42188 -10.08935,18.02875 -0.44997,1.89248 1.87564,3.17017 3.2477,1.79126 0.0148,-0.0148 0.0295,-0.0295 0.0507,-0.0507 9.48761,-14.45464 32.34614,-12.49669 43.53467,-0.58594 10.54828,11.22929 8.26378,29.91192 -2.4478,40.9854 -0.13489,0.13981 -0.27126,0.27766 -0.40862,0.41403 -1.3759,1.36689 -0.0901,3.68217 1.79697,3.23377 6.54809,-1.55618 12.76328,-4.87079 17.89268,-9.94555 14.99761,-14.8381 15.08209,-38.89516 0.18462,-53.8334 -14.8325,-14.87306 -38.91363,-14.88536 -53.76172,-0.0394 z"
       id="path2-3-3"
       style="fill:url(#linearGradient1109);fill-opacity:1.0;stroke-width:0.082173"
       sodipodi:nodetypes="cccccscscccc" />
    <path
       d="m 10.34845,977.97171 c 0,-33.08249 26.917509,-60 59.999999,-60 33.082531,0 59.999991,26.91751 59.999991,60 0,2.07 -1.68,3.75 -3.75,3.75 -2.07001,0 -3.75001,-1.68 -3.75001,-3.75 0,-28.95001 -23.549981,-52.49999 -52.499981,-52.49999 -28.95001,0 -52.49999,23.54998 -52.49999,52.49999 0,28.94999 23.54998,52.49999 52.49999,52.49999 2.07,0 3.75,1.6763 3.75,3.75 0,2.0738 -1.68,3.7501 -3.75,3.7501 -33.08249,0 -59.999999,-26.9175 -59.999999,-60.00009 z"
       id="path2-5"
       style="fill:url(#linearGradient1100);fill-opacity:1;stroke-width:3.75" />
    <path
       d="m 66.621869,921.74515 c 0,-0.97502 0.41207,-1.94998 1.08751,-2.6625 0.71252,-0.675 1.68749,-1.08751 2.6625,-1.08751 0.97502,0 1.94998,0.41256 2.6625,1.08751 1.38752,1.42499 1.38752,3.90001 0,5.325 -0.71252,0.675 -1.68748,1.08751 -2.6625,1.08751 -0.97501,0 -1.94998,-0.41256 -2.6625,-1.08751 -0.675,-0.71252 -1.08751,-1.68748 -1.08751,-2.6625 z"
       id="path4-35"
       style="fill:url(#linearGradient1129);fill-opacity:1;stroke-width:3.75;opacity:0.01" />
    <path
       d="m 84.474669,1029.2151 c 1.9875,-0.525 4.05002,0.6787 4.57502,2.6625 v 0 c 0.56251,2.025 -0.63749,4.05 -2.62499,4.6125 v 0 c -2.02505,0.525 -4.05001,-0.675 -4.61252,-2.6625 v 0 c -0.0748,-0.3372 -0.11225,-0.6375 -0.11225,-0.975 v 0 c 0,-1.65 1.08751,-3.1875 2.77499,-3.6375 z m 12.63749,-5.25 v 0.034 c 1.80003,-1.05 4.087491,-0.45 5.137531,1.35 v 0 c 1.04999,1.8 0.41206,4.0875 -1.38752,5.1337 v 0 c -1.762511,1.0163 -4.087481,0.4121 -5.099961,-1.3837 v 0 c -0.33724,-0.5999 -0.525,-1.2374 -0.525,-1.8749 v 0 c 0,-1.2787 0.67495,-2.55 1.87495,-3.2625 z m 10.875081,-8.3288 c 1.46245,-1.4625 3.82493,-1.4625 5.28743,0 v 0 c 1.46255,1.4663 1.46255,3.8288 0,5.2875 v 0 c 0,0 0,0 0,0.034 v 0 c -1.4625,1.4288 -3.82498,1.4288 -5.28743,-0.034 v 0 c -0.75003,-0.7087 -1.08756,-1.6875 -1.08756,-2.625 v 0 c 0,-0.975 0.33723,-1.95 1.08756,-2.6662 z m 8.36244,-10.8712 c 1.01252,-1.8 3.33755,-2.4038 5.09996,-1.35 v 0 c 1.80002,1.0125 2.4,3.3 1.38757,5.1 v 0 0 0 c -1.05,1.7963 -3.33755,2.4 -5.13753,1.3875 v 0 c -1.2,-0.7126 -1.875,-1.9538 -1.875,-3.2625 v 0 c 0,-0.6375 0.18757,-1.275 0.525,-1.875 z m 5.2125,-12.63753 v 0 c 0.56251,-1.98754 2.62503,-3.18754 4.61253,-2.6625 v 0 c 1.98749,0.52495 3.18749,2.58373 2.6625,4.57497 v 0 c 0,0 0,0 0,0.0345 v 0 c -0.56251,1.9875 -2.58757,3.15377 -4.61253,2.62503 v 0 c -1.64997,-0.44997 -2.77504,-1.94993 -2.77504,-3.5999 v 0 c 0,-0.33723 0.0345,-0.67505 0.11224,-0.97501 z"
       id="path6-62"
       style="fill:url(#linearGradient1121);fill-opacity:1.0;stroke-width:3.75" />
  </g>
</svg>
