<?xml version="1.0" encoding="UTF-8" standalone="no"?>
<svg
   width="136.53334"
   height="136.53334"
   id="svg5048"
   version="1.1"
   inkscape:version="1.1.1 (3bf5ae0d25, 2021-09-20)"
   sodipodi:docname="shutdown_primary.svg"
   viewBox="0 0 128 128"
   xmlns:inkscape="http://www.inkscape.org/namespaces/inkscape"
   xmlns:sodipodi="http://sodipodi.sourceforge.net/DTD/sodipodi-0.dtd"
   xmlns:xlink="http://www.w3.org/1999/xlink"
   xmlns="http://www.w3.org/2000/svg"
   xmlns:svg="http://www.w3.org/2000/svg"
   xmlns:rdf="http://www.w3.org/1999/02/22-rdf-syntax-ns#"
   xmlns:cc="http://creativecommons.org/ns#"
   xmlns:dc="http://purl.org/dc/elements/1.1/"
   xmlns:sketch="http://www.bohemiancoding.com/sketch/ns">
  <defs
     id="defs5050">
    <linearGradient
       inkscape:collect="always"
       id="linearGradient1035">
      <stop
         style="stop-color:#8787de;stop-opacity:1"
         offset="0"
         id="stop1031" />
      <stop
         style="stop-color:#e0cbff;stop-opacity:1"
         offset="1"
         id="stop1033" />
    </linearGradient>
    <filter
       id="filter4004-4"
       inkscape:label="Colorize"
       inkscape:menu="Color"
       inkscape:menu-tooltip="Blend image or object with a flood color and set lightness and contrast"
       x="0"
       y="0"
       width="1"
       height="1"
       color-interpolation-filters="sRGB">
      <feColorMatrix
         id="feColorMatrix4006-0"
         values="1"
         in="SourceGraphic"
         type="saturate"
         result="result2" />
      <feFlood
         id="feFlood4008-2"
         flood-color="rgb(250,247,247)"
         flood-opacity="1"
         result="result1" />
      <feBlend
         id="feBlend4010-1"
         in2="result2"
         mode="multiply"
         in="result1"
         result="result3" />
      <feComposite
         id="feComposite4012-3"
         in2="SourceGraphic"
         operator="in"
         result="result4" />
    </filter>
    <style
       id="current-color-scheme"
       type="text/css">      .ColorScheme-Text {
        color:#31363b;
      }
      .ColorScheme-Background{
        color:#eff0f1;
      }
      .ColorScheme-ViewText {
        color:#31363b;
      }
      .ColorScheme-ViewBackground{
        color:#fcfcfc;
      }
      .ColorScheme-ViewHover {
        color:#3daee9;
      }
      .ColorScheme-ViewFocus{
        color:#3daee9;
      }
      .ColorScheme-ButtonText {
        color:#31363b;
      }
      .ColorScheme-ButtonBackground{
        color:#eff0f1;
      }
      .ColorScheme-ButtonHover {
        color:#3daee9;
      }
      .ColorScheme-ButtonFocus{
        color:#3daee9;
      }</style>
    <linearGradient
       inkscape:collect="always"
       xlink:href="#linearGradient1035"
       id="linearGradient1240"
       gradientUnits="userSpaceOnUse"
       x1="3"
       y1="16.000004"
       x2="29"
       y2="16.000004"
       gradientTransform="matrix(4.6153843,0,0,4.6153842,-3.4976803,904.12557)" />
    <linearGradient
       inkscape:collect="always"
       xlink:href="#linearGradient1035"
       id="linearGradient1196"
       x1="3.3973112"
       y1="8.531949"
       x2="13.63709"
       y2="8.531949"
       gradientUnits="userSpaceOnUse"
       gradientTransform="matrix(4.6153843,0,0,4.6153842,-3.4976803,904.12557)" />
    <linearGradient
       inkscape:collect="always"
       xlink:href="#linearGradient1035"
       id="linearGradient1188"
       x1="4.5194702"
       y1="24.827089"
       x2="27.593719"
       y2="24.827089"
       gradientUnits="userSpaceOnUse"
       gradientTransform="matrix(4.6153843,0,0,4.6153842,-3.4976803,904.12557)" />
  </defs>
  <sodipodi:namedview
     id="base"
     pagecolor="#ffffff"
     bordercolor="#000000"
     borderopacity="1"
     inkscape:pageopacity="0.12941176"
     inkscape:pageshadow="2"
     inkscape:zoom="2"
     inkscape:cx="-118.5"
     inkscape:cy="21.5"
     inkscape:document-units="px"
     inkscape:current-layer="layer1"
     showgrid="true"
     inkscape:window-width="1920"
     inkscape:window-height="1013"
     inkscape:window-x="0"
     inkscape:window-y="0"
     inkscape:window-maximized="1"
     fit-margin-top="0"
     fit-margin-left="0"
     fit-margin-right="0"
     fit-margin-bottom="0"
     inkscape:snap-bbox="true"
     inkscape:document-rotation="0"
     inkscape:pagecheckerboard="0">
    <inkscape:grid
       type="xygrid"
       id="grid3001"
       empspacing="4"
       visible="true"
       enabled="true"
       snapvisiblegridlinesonly="true"
       color="#0101ff"
       opacity="0.01960784"
       empcolor="#0000ff"
       empopacity="0.03921569"
       originx="0"
       originy="0"
       spacingx="1"
       spacingy="1" />
  </sodipodi:namedview>
  <metadata
     id="metadata5053">
    <rdf:RDF>
      <cc:Work
         rdf:about="">
        <dc:format>image/svg+xml</dc:format>
        <dc:type
           rdf:resource="http://purl.org/dc/dcmitype/StillImage" />
      </cc:Work>
    </rdf:RDF>
  </metadata>
  <g
     inkscape:label="Layer 1"
     inkscape:groupmode="layer"
     id="layer1"
     transform="translate(-6.129729,-913.75296)">
    <path
       d="m 130.34847,977.97171 c 0,33.08269 -26.91751,60.00009 -59.99999,60.00009 -33.082541,0 -60.000001,-26.9174 -60.000001,-60.00009 0,-2.06996 1.68,-3.74996 3.75001,-3.74996 2.06995,0 3.74995,1.68 3.74995,3.74996 0,28.95009 23.550031,52.50019 52.500041,52.50019 28.950001,0 52.49998,-23.5501 52.49998,-52.50019 0,-28.94996 -23.549979,-52.49999 -52.49998,-52.49999 -2.07001,0 -3.75001,-1.67626 -3.75001,-3.75 0,-2.07375 1.68,-3.75001 3.75001,-3.75001 33.08248,0 59.99999,26.91751 59.99999,60 z"
       id="path2"
       style="fill:url(#linearGradient1240);fill-opacity:1;stroke-width:3.75" />
    <path
       d="m 56.66803,927.26628 c -1.98744,0.525 -4.04992,-0.67874 -4.57491,-2.6625 v 0 c -0.56256,-2.02501 0.63744,-4.05001 2.62498,-4.61253 v 0 c 2.02501,-0.52499 4.04997,0.67501 4.61248,2.6625 v 0 c 0.0748,0.33773 0.11225,0.63754 0.11225,0.97502 v 0 c 0,1.65002 -1.08746,3.18749 -2.77499,3.63751 z M 44.0306,932.5163 v -0.0394 c -1.80003,1.05004 -4.08749,0.44996 -5.137481,-1.34996 v 0 c -1.05004,-1.80012 -0.41256,-4.08758 1.387471,-5.13384 v 0 c 1.76251,-1.01627 4.08748,-0.41255 5.09996,1.38373 v 0 c 0.33723,0.59998 0.525,1.23752 0.525,1.87501 v 0 c 0,1.27877 -0.67495,2.55 -1.87495,3.26247 z m -10.875031,8.32871 c -1.46245,1.4625 -3.82499,1.4625 -5.28748,0 v 0 c -1.4625,-1.46624 -1.4625,-3.82872 0,-5.28748 v 0 c 0,0 0,0 0,-0.0394 v 0 c 1.46249,-1.42873 3.82503,-1.42873 5.28748,0.0345 v 0 c 0.74998,0.70872 1.08751,1.68748 1.08751,2.62498 v 0 c 0,0.97502 -0.33724,1.94998 -1.08751,2.66624 z m -8.36249,10.87129 c -1.01253,1.79997 -3.3375,2.40374 -5.09996,1.35001 v 0 c -1.80003,-1.01253 -2.4,-3.30004 -1.38757,-5.10002 v 0 0 0 c 1.05004,-1.79628 3.33755,-2.4 5.13753,-1.38752 v 0 c 1.2,0.71252 1.875,1.95373 1.875,3.26253 v 0 c 0,0.63744 -0.18757,1.27497 -0.525,1.875 z m -5.2125,12.63744 v 0 c -0.56246,1.98754 -2.62499,3.18754 -4.61248,2.66255 v 0 c -1.98755,-0.525 -3.18755,-2.58373 -2.66255,-4.57502 v 0 c 0,0 0,0 0,-0.0394 v 0 c 0.56256,-1.9875 2.58757,-3.15378 4.61253,-2.62499 v 0 c 1.65002,0.44997 2.77504,1.94998 2.77504,3.6 v 0 c 0,0.33723 -0.0345,0.675 -0.11274,0.97502 z"
       id="path6-67"
       style="fill:url(#linearGradient1196);fill-opacity:1.0;stroke-width:3.75" />
    <path
       d="m 123.85754,1005.4012 v 0 0 0 0 H 17.361399 c 9.91744,13.2044 23.923251,21.9853 39.636531,25.216 l 0.43274,0.09 c 0.87803,0.1738 1.76123,0.3352 2.64955,0.4736 0.39434,0.063 0.7936,0.1176 1.1904,0.1742 0.7168,0.099 1.43109,0.1965 2.15296,0.2743 0.64512,0.069 1.29541,0.1176 1.9456,0.1688 0.52736,0.039 1.04965,0.092 1.57957,0.1206 1.21344,0.067 2.43205,0.1054 3.66085,0.1054 1.2288,0 2.44731,-0.035 3.66075,-0.1054 0.52992,-0.029 1.05216,-0.08 1.57952,-0.1206 0.65024,-0.051 1.30048,-0.1 1.9456,-0.1688 0.72187,-0.077 1.436161,-0.1738 2.152961,-0.2743 0.3968,-0.057 0.79611,-0.1097 1.1904,-0.1742 0.88832,-0.1379 1.77152,-0.2994 2.6496,-0.4736 l 0.43274,-0.09 c 15.71327,-3.2307 29.719029,-12.0116 39.636469,-25.216 z m 0,0 z"
       sketch:type="MSShapeGroup"
       id="path6-3"
       sodipodi:nodetypes="cccccccccccccsccccccccccccccccc"
       style="fill:url(#linearGradient1188);fill-opacity:1.0;stroke-width:2.55997" />
  </g>
</svg>
