<?xml version="1.0" encoding="UTF-8" standalone="no"?>
<svg
   width="136.53334"
   height="136.53334"
   id="svg5048"
   version="1.1"
   inkscape:version="1.1.1 (3bf5ae0d25, 2021-09-20)"
   sodipodi:docname="suspend_primary.svg"
   viewBox="0 0 128 128"
   xmlns:inkscape="http://www.inkscape.org/namespaces/inkscape"
   xmlns:sodipodi="http://sodipodi.sourceforge.net/DTD/sodipodi-0.dtd"
   xmlns:xlink="http://www.w3.org/1999/xlink"
   xmlns="http://www.w3.org/2000/svg"
   xmlns:svg="http://www.w3.org/2000/svg"
   xmlns:rdf="http://www.w3.org/1999/02/22-rdf-syntax-ns#"
   xmlns:cc="http://creativecommons.org/ns#"
   xmlns:dc="http://purl.org/dc/elements/1.1/">
  <defs
     id="defs5050">
    <linearGradient
       inkscape:collect="always"
       id="linearGradient943">
      <stop
         style="stop-color:#ffe680;stop-opacity:1"
         offset="0"
         id="stop939" />
      <stop
         style="stop-color:#a8a8d7;stop-opacity:1"
         offset="1"
         id="stop941" />
    </linearGradient>
    <filter
       id="filter4004-4"
       inkscape:label="Colorize"
       inkscape:menu="Color"
       inkscape:menu-tooltip="Blend image or object with a flood color and set lightness and contrast"
       x="0"
       y="0"
       width="1"
       height="1"
       color-interpolation-filters="sRGB">
      <feColorMatrix
         id="feColorMatrix4006-0"
         values="1"
         in="SourceGraphic"
         type="saturate"
         result="result2" />
      <feFlood
         id="feFlood4008-2"
         flood-color="rgb(250,247,247)"
         flood-opacity="1"
         result="result1" />
      <feBlend
         id="feBlend4010-1"
         in2="result2"
         mode="multiply"
         in="result1"
         result="result3" />
      <feComposite
         id="feComposite4012-3"
         in2="SourceGraphic"
         operator="in"
         result="result4" />
    </filter>
    <style
       id="current-color-scheme"
       type="text/css">      .ColorScheme-Text {
        color:#31363b;
      }
      .ColorScheme-Background{
        color:#eff0f1;
      }
      .ColorScheme-ViewText {
        color:#31363b;
      }
      .ColorScheme-ViewBackground{
        color:#fcfcfc;
      }
      .ColorScheme-ViewHover {
        color:#3daee9;
      }
      .ColorScheme-ViewFocus{
        color:#3daee9;
      }
      .ColorScheme-ButtonText {
        color:#31363b;
      }
      .ColorScheme-ButtonBackground{
        color:#eff0f1;
      }
      .ColorScheme-ButtonHover {
        color:#3daee9;
      }
      .ColorScheme-ButtonFocus{
        color:#3daee9;
      }</style>
    <linearGradient
       inkscape:collect="always"
       xlink:href="#linearGradient943"
       id="linearGradient1264"
       x1="5.8049669"
       y1="16.955212"
       x2="26.051907"
       y2="16.955212"
       gradientUnits="userSpaceOnUse"
       gradientTransform="matrix(4.6153844,0,0,4.6153842,-3.497683,904.1256)" />
    <linearGradient
       inkscape:collect="always"
       xlink:href="#linearGradient943"
       id="linearGradient1272"
       x1="11.417979"
       y1="9.7363405"
       x2="15.19987"
       y2="9.7363405"
       gradientUnits="userSpaceOnUse"
       gradientTransform="matrix(4.6153844,0,0,4.6153842,-3.497683,904.1256)" />
    <linearGradient
       inkscape:collect="always"
       xlink:href="#linearGradient943"
       id="linearGradient1288"
       x1="13.740612"
       y1="16.980581"
       x2="16.307249"
       y2="16.980581"
       gradientUnits="userSpaceOnUse"
       gradientTransform="matrix(4.6153844,0,0,4.6153842,-3.497683,904.1256)" />
    <linearGradient
       inkscape:collect="always"
       xlink:href="#linearGradient943"
       id="linearGradient1280"
       x1="19.115932"
       y1="12.222935"
       x2="22.816736"
       y2="12.222935"
       gradientUnits="userSpaceOnUse"
       gradientTransform="matrix(4.6153844,0,0,4.6153842,-3.497683,904.1256)" />
    <linearGradient
       inkscape:collect="always"
       xlink:href="#linearGradient943"
       id="linearGradient1296"
       x1="15.952596"
       y1="29.047384"
       x2="15.952596"
       y2="3.0473824"
       gradientUnits="userSpaceOnUse"
       gradientTransform="matrix(0,4.6153842,-4.6153844,0,144.19457,904.1256)" />
    <linearGradient
       inkscape:collect="always"
       xlink:href="#linearGradient943"
       id="linearGradient1304"
       x1="18.345772"
       y1="8.5319853"
       x2="28.587978"
       y2="8.5319853"
       gradientUnits="userSpaceOnUse"
       gradientTransform="matrix(0,4.6153842,-4.6153844,0,144.7113,905.10509)" />
  </defs>
  <sodipodi:namedview
     id="base"
     pagecolor="#ffffff"
     bordercolor="#000000"
     borderopacity="1"
     inkscape:pageopacity="0.12941176"
     inkscape:pageshadow="2"
     inkscape:zoom="2"
     inkscape:cx="122"
     inkscape:cy="66"
     inkscape:document-units="px"
     inkscape:current-layer="layer1"
     showgrid="true"
     inkscape:window-width="1920"
     inkscape:window-height="1013"
     inkscape:window-x="0"
     inkscape:window-y="0"
     inkscape:window-maximized="1"
     fit-margin-top="0"
     fit-margin-left="0"
     fit-margin-right="0"
     fit-margin-bottom="0"
     inkscape:snap-bbox="true"
     inkscape:document-rotation="0"
     inkscape:lockguides="false"
     inkscape:pagecheckerboard="0">
    <inkscape:grid
       type="xygrid"
       id="grid3001"
       empspacing="4"
       visible="true"
       enabled="true"
       snapvisiblegridlinesonly="true"
       color="#0101ff"
       opacity="0.01960784"
       empcolor="#0000ff"
       empopacity="0.03921569"
       originx="0"
       originy="0"
       spacingx="1"
       spacingy="1" />
  </sodipodi:namedview>
  <metadata
     id="metadata5053">
    <rdf:RDF>
      <cc:Work
         rdf:about="">
        <dc:format>image/svg+xml</dc:format>
        <dc:type
           rdf:resource="http://purl.org/dc/dcmitype/StillImage" />
      </cc:Work>
    </rdf:RDF>
  </metadata>
  <g
     inkscape:label="Layer 1"
     inkscape:groupmode="layer"
     id="layer1"
     transform="translate(-6.129729,-913.75296)">
    <path
       d="m 96.307472,1018.0139 c 10.644958,-6.8748 17.632528,-17.3651 20.434398,-28.90175 -2.93563,3.129 -6.30297,5.9758 -10.09403,8.4249 -22.805998,14.72985 -51.961489,9.73035 -65.12152,-11.167 -9.1804,-14.57774 -8.14119,-32.28314 1.06014,-47.11711 -19.976761,14.81949 -25.364481,42.34481 -11.78885,63.90286 14.1347,22.4451 43.464321,29.0976 65.509862,14.8581 z"
       id="path2-3-9"
       style="fill:url(#linearGradient1264);fill-opacity:1.0;stroke-width:1.61113;stroke:none"
       sodipodi:nodetypes="ccccccc" />
    <path
       d="m 51.811171,948.96115 c 0,0 0,0.19495 0,0.38991 l -2.534001,5.06801 c -0.19496,0.19495 0,0.58471 0.3899,0.58471 l 5.652781,-0.97457 c 0.19545,0 0.38991,0 0.38991,0.19495 l 3.89839,4.09334 c 0.19544,0.19496 0.58481,0 0.77976,-0.19495 l 0.77967,-5.65272 c 0,-0.19496 0.19495,-0.19496 0.19495,-0.38991 l 5.06792,-2.53391 c 0.3899,-0.19495 0.19544,-0.58476 0,-0.77972 l -5.26302,-2.53405 c -0.19544,0 -0.19544,-0.19496 -0.19544,-0.19496 l -0.77972,-5.65272 c 0,-0.58476 -0.38991,-0.77967 -0.58476,-0.58476 l -3.89834,4.09334 c -0.19545,0 -0.19545,0.19495 -0.38942,0.19495 l -5.652771,-0.97462 c -0.38991,0 -0.58477,0.19495 -0.38991,0.58476 z"
       id="path6-3-3"
       style="fill:url(#linearGradient1272);fill-opacity:1.0;stroke-width:1.94922" />
    <path
       d="m 61.692231,982.42875 c 0,0 0,0.1324 0,0.2648 l -1.71958,3.4393 c -0.13243,0.1325 0,0.3968 0.26437,0.3968 l 3.83616,-0.6613 c 0.13243,0 0.26437,0 0.26437,0.1324 l 2.64561,2.7779 c 0.13243,0.1324 0.3968,0 0.52913,-0.1324 l 0.52913,-3.8362 c 0,-0.1325 0.13244,-0.1325 0.13244,-0.2649 l 3.43931,-1.7196 c 0.26437,-0.1325 0.13243,-0.3968 0,-0.5292 l -3.5716,-1.7196 c -0.13243,0 -0.13243,-0.1325 -0.13243,-0.1325 l -0.52923,-3.83619 c 0,-0.3968 -0.26437,-0.52913 -0.3968,-0.3968 l -2.64551,2.77799 c -0.13243,0 -0.13243,0.1324 -0.26437,0.1324 l -3.83621,-0.6615 c -0.26437,0 -0.3968,0.1325 -0.26437,0.3968 z"
       id="path6-6-6"
       style="fill:url(#linearGradient1288);fill-opacity:1.0;stroke-width:1.32285" />
    <path
       d="m 84.902622,967.24137 c 0.34707,0.83973 1.16519,1.38727 2.07409,1.38727 H 99.56241 c 1.24208,0 2.24792,-1.00583 2.24792,-2.24694 0,-1.24106 -1.00677,-2.24591 -2.24792,-2.24591 h -7.159138 l 7.848018,-7.84994 c 0.64428,-0.64335 0.83594,-1.61024 0.48886,-2.44997 -0.34708,-0.83973 -1.167057,-1.38634 -2.076054,-1.38634 H 86.976022 c -1.24017,0 -2.24596,1.00682 -2.24596,2.24694 0,1.24018 1.00677,2.2469 2.24596,2.2469 h 6.26053 l -7.84891,7.849 c -0.64335,0.64335 -0.83505,1.60926 -0.48492,2.44899 z"
       id="path4-7"
       style="fill:url(#linearGradient1280);fill-opacity:1.0;stroke-width:0.948854" />
    <path
       d="m 10.348479,977.97175 c 0,-33.08253 26.917511,-60.00004 59.999952,-60.00004 33.082519,0 59.999979,26.91751 59.999979,60.00004 0,2.07 -1.68,3.75 -3.74995,3.75 -2.07001,0 -3.75001,-1.68 -3.75001,-3.75 0,-28.95005 -23.550016,-52.50003 -52.500019,-52.50003 -28.949961,0 -52.499992,23.54998 -52.499992,52.50003 0,28.95065 23.550031,52.50055 52.499992,52.50055 2.07,0 3.75,1.6763 3.75,3.75 0,2.0738 -1.68,3.7501 -3.75,3.7501 -33.082441,0 -59.999952,-26.9176 -59.999952,-60.00065 z"
       id="path2-2"
       style="fill:url(#linearGradient1296);fill-opacity:1;stroke-width:3.75" />
    <path
       d="m 84.477612,1029.6519 c 1.98754,-0.525 4.05007,0.6787 4.57506,2.6625 v 0 c 0.56246,2.025 -0.63754,4.05 -2.62503,4.6125 v 0 c -2.02496,0.525 -4.05002,-0.675 -4.61248,-2.6626 v 0 c -0.0753,-0.3377 -0.11323,-0.6374 -0.11323,-0.9749 v 0 c 0,-1.65 1.08751,-3.1875 2.77499,-3.6375 z m 12.63754,-5.2501 v 0.039 c 1.799972,-1.05 4.087468,-0.4499 5.137508,1.35 v 0 c 1.04995,1.7983 0.41256,4.0858 -1.38751,5.1321 v 0 c -1.762506,1.0162 -4.087478,0.4125 -5.100008,-1.3838 v 0 c -0.33723,-0.6 -0.525,-1.2375 -0.525,-1.875 v 0 c 0,-1.2787 0.67501,-2.55 1.87501,-3.2625 z m 10.874958,-8.3287 c 1.46255,-1.4625 3.82504,-1.4625 5.28749,0 v 0 c 1.46254,1.4663 1.46254,3.8288 0,5.2875 v 0 c 0,0 0,0 0,0.039 v 0 c -1.46245,1.4289 -3.82494,1.4289 -5.28749,-0.034 v 0 c -0.74998,-0.7088 -1.0875,-1.6876 -1.0875,-2.625 v 0 c 0,-0.9751 0.33723,-1.95 1.0875,-2.6663 z m 8.36249,-10.8713 c 1.01253,-1.7999 3.33755,-2.4037 5.10006,-1.3499 v 0 c 1.79998,1.0125 2.39995,3.3 1.38747,5.1 v 0 0 0 c -1.04999,1.7962 -3.3375,2.4 -5.13748,1.3875 v 0 c -1.20004,-0.7125 -1.875,-1.9538 -1.875,-3.2626 v 0 c 0,-0.6374 0.18757,-1.2749 0.52495,-1.875 z m 5.2125,-12.63805 v 0 c 0.56251,-1.9875 2.62504,-3.1875 4.61253,-2.6625 v 0 c 1.9875,0.525 3.1875,2.5837 2.6625,4.575 v 0 c 0,0 0,0 0,0.039 v 0 c -0.56246,1.9875 -2.58752,3.1537 -4.61253,2.6249 v 0 c -1.64997,-0.4499 -2.77494,-1.95 -2.77494,-3.6 v 0 c 0,-0.3377 0.0394,-0.675 0.11274,-0.975 z"
       id="path6-7"
       style="fill:url(#linearGradient1304);fill-opacity:1.0;stroke-width:3.75" />
    <path
       d="m 126.59846,981.72175 c -1.01622,0 -1.95382,-0.4126 -2.6625,-1.0875 -0.67879,-0.7126 -1.08751,-1.6875 -1.08751,-2.6625 0,-0.97506 0.40911,-1.95002 1.08751,-2.66254 1.34626,-1.38752 3.90001,-1.38752 5.32495,0 0.67505,0.71252 1.0875,1.68748 1.0875,2.66254 0,0.975 -0.41255,1.9499 -1.0875,2.6625 -0.71247,0.675 -1.68749,1.0875 -2.66245,1.0875 z"
       id="path8-0"
       style="fill:#ffaaaa;fill-opacity:1;stroke-width:3.75;opacity:0.01" />
  </g>
</svg>
