<?xml version="1.0" encoding="UTF-8" standalone="no"?>
<!-- Created with Inkscape (http://www.inkscape.org/) -->

<svg
   width="32"
   height="32"
   id="svg5453"
   version="1.1"
   inkscape:version="1.3.2 (091e20ef0f, 2023-11-25)"
   sodipodi:docname="applications-education.svg"
   xmlns:inkscape="http://www.inkscape.org/namespaces/inkscape"
   xmlns:sodipodi="http://sodipodi.sourceforge.net/DTD/sodipodi-0.dtd"
   xmlns:xlink="http://www.w3.org/1999/xlink"
   xmlns="http://www.w3.org/2000/svg"
   xmlns:svg="http://www.w3.org/2000/svg"
   xmlns:rdf="http://www.w3.org/1999/02/22-rdf-syntax-ns#"
   xmlns:cc="http://creativecommons.org/ns#"
   xmlns:dc="http://purl.org/dc/elements/1.1/">
  <defs
     id="defs5455">
    <linearGradient
       gradientUnits="userSpaceOnUse"
       y2="503.798"
       x2="384.57144"
       y1="543.79797"
       x1="434.57144"
       id="linearGradient4586"
       xlink:href="#linearGradient4273"
       inkscape:collect="always"
       gradientTransform="translate(-1.1547241e-5,-1.6784668e-7)" />
    <linearGradient
       inkscape:collect="always"
       id="linearGradient4273">
      <stop
         style="stop-color:#343b40;stop-opacity:1"
         offset="0"
         id="stop4275" />
      <stop
         style="stop-color:#555e63;stop-opacity:1"
         offset="1"
         id="stop4277" />
    </linearGradient>
    <linearGradient
       id="linearGradient4152-0"
       inkscape:collect="always">
      <stop
         id="stop4154-0"
         offset="0"
         style="stop-color:#bd8d48;stop-opacity:1" />
      <stop
         id="stop4156-8"
         offset="1"
         style="stop-color:#e8b971;stop-opacity:1" />
    </linearGradient>
    <linearGradient
       inkscape:collect="always"
       xlink:href="#linearGradient4273"
       id="linearGradient3085"
       gradientUnits="userSpaceOnUse"
       gradientTransform="matrix(1,0,0,1.050001,-36.00001,-25.190442)"
       x1="434.57144"
       y1="543.79797"
       x2="384.57144"
       y2="503.798" />
    <linearGradient
       inkscape:collect="always"
       xlink:href="#linearGradient4152-0"
       id="linearGradient3087"
       gradientUnits="userSpaceOnUse"
       gradientTransform="matrix(1,0,0,1.0500001,348.57142,499.59799)"
       x1="24"
       y1="43.999973"
       x2="24"
       y2="4" />
    <linearGradient
       gradientUnits="userSpaceOnUse"
       y2="12.608932"
       x2="8.6675835"
       y1="2.7492537"
       x1="8.6675835"
       id="linearGradient1982"
       xlink:href="#linearGradient1980"
       inkscape:collect="always"
       gradientTransform="matrix(3.0783003,0,0,3.0783003,348.031,500.67569)" />
    <linearGradient
       id="linearGradient1980"
       inkscape:collect="always">
      <stop
         id="stop1976"
         offset="0"
         style="stop-color:#000000;stop-opacity:1" />
      <stop
         style="stop-color:#ffffff;stop-opacity:1"
         offset="0.48408228"
         id="stop1984" />
      <stop
         id="stop1978"
         offset="1"
         style="stop-color:#ffffff;stop-opacity:1" />
    </linearGradient>
  </defs>
  <sodipodi:namedview
     id="base"
     pagecolor="#ffffff"
     bordercolor="#666666"
     borderopacity="1.0"
     inkscape:pageopacity="0"
     inkscape:pageshadow="2"
     inkscape:zoom="15.999999"
     inkscape:cx="18.187501"
     inkscape:cy="18.312501"
     inkscape:document-units="px"
     inkscape:current-layer="g3068"
     showgrid="true"
     fit-margin-top="0"
     fit-margin-left="0"
     fit-margin-right="0"
     fit-margin-bottom="0"
     inkscape:window-width="1920"
     inkscape:window-height="996"
     inkscape:window-x="0"
     inkscape:window-y="0"
     inkscape:window-maximized="1"
     inkscape:showpageshadow="false"
     borderlayer="true"
     showguides="true"
     inkscape:snap-bbox="true"
     inkscape:pagecheckerboard="0"
     inkscape:deskcolor="#d1d1d1">
    <inkscape:grid
       type="xygrid"
       id="grid4063"
       originx="0"
       originy="0"
       spacingy="1"
       spacingx="1"
       units="px"
       visible="true" />
    <sodipodi:guide
       position="4.2167969e-05,32.000026"
       orientation="32,0"
       id="guide4625"
       inkscape:locked="false" />
    <sodipodi:guide
       position="4.2167969e-05,2.6367188e-05"
       orientation="0,31.999969"
       id="guide4627"
       inkscape:locked="false" />
    <sodipodi:guide
       position="32.000012,2.6367188e-05"
       orientation="-32,0"
       id="guide4629"
       inkscape:locked="false" />
    <sodipodi:guide
       position="32.000012,32.000026"
       orientation="0,-31.999969"
       id="guide4631"
       inkscape:locked="false" />
    <sodipodi:guide
       position="2.0000422,30.000026"
       orientation="28,0"
       id="guide4633"
       inkscape:locked="false" />
    <sodipodi:guide
       position="2.0000422,2.0000264"
       orientation="0,27.999969"
       id="guide4635"
       inkscape:locked="false" />
    <sodipodi:guide
       position="30,17"
       orientation="-28,0"
       id="guide4637"
       inkscape:locked="false" />
    <sodipodi:guide
       position="30.000012,30.000026"
       orientation="0,-27.999969"
       id="guide4639"
       inkscape:locked="false" />
    <sodipodi:guide
       position="9.0000117,24.000271"
       orientation="14,0"
       id="guide4429"
       inkscape:locked="false" />
    <sodipodi:guide
       position="9.0000117,10.000271"
       orientation="0,14.000031"
       id="guide4431"
       inkscape:locked="false" />
    <sodipodi:guide
       position="22.812501,-3.5000022"
       orientation="-14,0"
       id="guide4433"
       inkscape:locked="false" />
    <sodipodi:guide
       position="23.000042,24.000271"
       orientation="0,-14.000031"
       id="guide4435"
       inkscape:locked="false" />
  </sodipodi:namedview>
  <metadata
     id="metadata5458">
    <rdf:RDF>
      <cc:Work
         rdf:about="">
        <dc:format>image/svg+xml</dc:format>
        <dc:type
           rdf:resource="http://purl.org/dc/dcmitype/StillImage" />
      </cc:Work>
    </rdf:RDF>
  </metadata>
  <g
     inkscape:label="Capa 1"
     inkscape:groupmode="layer"
     id="layer1"
     transform="translate(-384.57143,-515.798)">
    <g
       id="g3068"
       transform="matrix(0.66666621,0,0,0.66666621,152.19064,181.9329)">
      <rect
         y="503.798"
         x="348.57144"
         height="42.000034"
         width="48.000011"
         id="rect4567"
         style="fill:url(#linearGradient3085);fill-opacity:1;stroke:none"
         ry="4.406251"
         rx="4.406251" />
      <path
         id="rect4778"
         d="m 351.72143,503.798 c -1.56838,-0.0515 -3.0504,1.38476 -3.15001,3 v 36.00002 c 0.17301,1.51523 1.60401,2.87786 3.04951,2.99998 h 41.95052 c 1.76525,-0.26766 2.81621,-1.56918 3.00002,-3.14998 l -5e-5,-35.85002 c 0.01,-1.57727 -1.44956,-2.82562 -2.99997,-3 v 0 h -41.95052 z m -0.14994,3 h 41.99996 v 36.00002 h -41.99996 z"
         style="fill:url(#linearGradient3087);fill-opacity:1;stroke:none"
         inkscape:connector-curvature="0"
         sodipodi:nodetypes="cccccccccccccccc" />
      <path
         id="rect4553"
         d="m 351.57149,506.72982 0,36.0682 0,0 41.99996,0 0,0 0,-36.0682 0,0 z m 1.49994,1.56818 39.00002,0 0,33.00002 -39.00002,0 z"
         style="text-decoration:none;color:#000000;fill:#aa7f41;fill-opacity:0.49803922;fill-rule:nonzero;stroke:none;visibility:visible;display:inline;overflow:visible;enable-background:accumulate"
         inkscape:connector-curvature="0"
         sodipodi:nodetypes="ccccccccccccc" />
      <rect
         y="539.79803"
         x="377.07144"
         height="1.4999862"
         width="5.9999447"
         id="rect4568"
         style="text-decoration:none;color:#000000;fill:#007ad9;fill-opacity:1;fill-rule:nonzero;stroke:none;visibility:visible;display:inline;overflow:visible;enable-background:accumulate" />
      <rect
         y="539.79803"
         x="384.57144"
         height="1.500013"
         width="5.9999857"
         id="rect4570"
         style="text-decoration:none;color:#000000;fill:#d6d6d6;fill-opacity:1;fill-rule:nonzero;stroke:none;visibility:visible;display:inline;overflow:visible;enable-background:accumulate" />
      <g
         style="opacity:0.591"
         transform="matrix(0.41755952,0,0,0.41755952,284.88529,497.61584)"
         id="g1537">
        <path
           inkscape:connector-curvature="0"
           id="path1456"
           d="m 192.32725,33.753842 c -5.53916,-0.129385 -11.40174,2.093418 -16.81836,5.447266 -1.92041,1.10875 -2.27148,2.540933 -2.27148,3.626953 l -0.20313,42.916015 c 0,2.230057 1.90298,1.534098 2.91602,0.949219 16.14903,-8.949371 25.94655,-3.826387 32.66211,8.130859 l -0.52735,-49.554687 c 0.0128,-1.418646 -0.17752,-1.9742 -0.88086,-2.847656 -4.12167,-6.056648 -9.33779,-8.538584 -14.87695,-8.667969 z m 35.53516,0 c -5.53916,0.129385 -10.75333,2.611321 -14.875,8.667969 -0.70334,0.873456 -0.89558,1.42901 -0.88282,2.847656 l -0.52734,49.554687 c 6.71556,-11.957246 16.51503,-17.08023 32.66407,-8.130859 1.01304,0.584879 2.91405,1.280838 2.91406,-0.949219 l -0.20313,-42.916015 c 0,-1.08602 -0.35107,-2.518203 -2.27148,-3.626953 -5.41662,-3.353848 -11.27921,-5.576651 -16.81836,-5.447266 z"
           style="fill:none;fill-opacity:1;stroke:#000000;stroke-width:0.1;stroke-linecap:round;stroke-linejoin:round;stroke-miterlimit:4;stroke-dasharray:none;stroke-opacity:0.00784314" />
        <path
           style="fill:none;fill-opacity:1;stroke:#000000;stroke-width:0.2;stroke-linecap:round;stroke-linejoin:round;stroke-miterlimit:4;stroke-dasharray:none;stroke-opacity:0.00784314"
           d="m 192.32725,33.753842 c -5.53916,-0.129385 -11.40174,2.093418 -16.81836,5.447266 -1.92041,1.10875 -2.27148,2.540933 -2.27148,3.626953 l -0.20313,42.916015 c 0,2.230057 1.90298,1.534098 2.91602,0.949219 16.14903,-8.949371 25.94655,-3.826387 32.66211,8.130859 l -0.52735,-49.554687 c 0.0128,-1.418646 -0.17752,-1.9742 -0.88086,-2.847656 -4.12167,-6.056648 -9.33779,-8.538584 -14.87695,-8.667969 z m 35.53516,0 c -5.53916,0.129385 -10.75333,2.611321 -14.875,8.667969 -0.70334,0.873456 -0.89558,1.42901 -0.88282,2.847656 l -0.52734,49.554687 c 6.71556,-11.957246 16.51503,-17.08023 32.66407,-8.130859 1.01304,0.584879 2.91405,1.280838 2.91406,-0.949219 l -0.20313,-42.916015 c 0,-1.08602 -0.35107,-2.518203 -2.27148,-3.626953 -5.41662,-3.353848 -11.27921,-5.576651 -16.81836,-5.447266 z"
           id="path1458"
           inkscape:connector-curvature="0" />
        <path
           inkscape:connector-curvature="0"
           id="path1460"
           d="m 192.32725,33.753842 c -5.53916,-0.129385 -11.40174,2.093418 -16.81836,5.447266 -1.92041,1.10875 -2.27148,2.540933 -2.27148,3.626953 l -0.20313,42.916015 c 0,2.230057 1.90298,1.534098 2.91602,0.949219 16.14903,-8.949371 25.94655,-3.826387 32.66211,8.130859 l -0.52735,-49.554687 c 0.0128,-1.418646 -0.17752,-1.9742 -0.88086,-2.847656 -4.12167,-6.056648 -9.33779,-8.538584 -14.87695,-8.667969 z m 35.53516,0 c -5.53916,0.129385 -10.75333,2.611321 -14.875,8.667969 -0.70334,0.873456 -0.89558,1.42901 -0.88282,2.847656 l -0.52734,49.554687 c 6.71556,-11.957246 16.51503,-17.08023 32.66407,-8.130859 1.01304,0.584879 2.91405,1.280838 2.91406,-0.949219 l -0.20313,-42.916015 c 0,-1.08602 -0.35107,-2.518203 -2.27148,-3.626953 -5.41662,-3.353848 -11.27921,-5.576651 -16.81836,-5.447266 z"
           style="fill:none;fill-opacity:1;stroke:#000000;stroke-width:0.3;stroke-linecap:round;stroke-linejoin:round;stroke-miterlimit:4;stroke-dasharray:none;stroke-opacity:0.00784314" />
        <path
           style="fill:none;fill-opacity:1;stroke:#000000;stroke-width:0.4;stroke-linecap:round;stroke-linejoin:round;stroke-miterlimit:4;stroke-dasharray:none;stroke-opacity:0.00784314"
           d="m 192.32725,33.753842 c -5.53916,-0.129385 -11.40174,2.093418 -16.81836,5.447266 -1.92041,1.10875 -2.27148,2.540933 -2.27148,3.626953 l -0.20313,42.916015 c 0,2.230057 1.90298,1.534098 2.91602,0.949219 16.14903,-8.949371 25.94655,-3.826387 32.66211,8.130859 l -0.52735,-49.554687 c 0.0128,-1.418646 -0.17752,-1.9742 -0.88086,-2.847656 -4.12167,-6.056648 -9.33779,-8.538584 -14.87695,-8.667969 z m 35.53516,0 c -5.53916,0.129385 -10.75333,2.611321 -14.875,8.667969 -0.70334,0.873456 -0.89558,1.42901 -0.88282,2.847656 l -0.52734,49.554687 c 6.71556,-11.957246 16.51503,-17.08023 32.66407,-8.130859 1.01304,0.584879 2.91405,1.280838 2.91406,-0.949219 l -0.20313,-42.916015 c 0,-1.08602 -0.35107,-2.518203 -2.27148,-3.626953 -5.41662,-3.353848 -11.27921,-5.576651 -16.81836,-5.447266 z"
           id="path1462"
           inkscape:connector-curvature="0" />
        <path
           inkscape:connector-curvature="0"
           id="path1464"
           d="m 192.32725,33.753842 c -5.53916,-0.129385 -11.40174,2.093418 -16.81836,5.447266 -1.92041,1.10875 -2.27148,2.540933 -2.27148,3.626953 l -0.20313,42.916015 c 0,2.230057 1.90298,1.534098 2.91602,0.949219 16.14903,-8.949371 25.94655,-3.826387 32.66211,8.130859 l -0.52735,-49.554687 c 0.0128,-1.418646 -0.17752,-1.9742 -0.88086,-2.847656 -4.12167,-6.056648 -9.33779,-8.538584 -14.87695,-8.667969 z m 35.53516,0 c -5.53916,0.129385 -10.75333,2.611321 -14.875,8.667969 -0.70334,0.873456 -0.89558,1.42901 -0.88282,2.847656 l -0.52734,49.554687 c 6.71556,-11.957246 16.51503,-17.08023 32.66407,-8.130859 1.01304,0.584879 2.91405,1.280838 2.91406,-0.949219 l -0.20313,-42.916015 c 0,-1.08602 -0.35107,-2.518203 -2.27148,-3.626953 -5.41662,-3.353848 -11.27921,-5.576651 -16.81836,-5.447266 z"
           style="fill:none;fill-opacity:1;stroke:#000000;stroke-width:0.5;stroke-linecap:round;stroke-linejoin:round;stroke-miterlimit:4;stroke-dasharray:none;stroke-opacity:0.00784314" />
        <path
           style="fill:none;fill-opacity:1;stroke:#000000;stroke-width:0.6;stroke-linecap:round;stroke-linejoin:round;stroke-miterlimit:4;stroke-dasharray:none;stroke-opacity:0.00784314"
           d="m 192.32725,33.753842 c -5.53916,-0.129385 -11.40174,2.093418 -16.81836,5.447266 -1.92041,1.10875 -2.27148,2.540933 -2.27148,3.626953 l -0.20313,42.916015 c 0,2.230057 1.90298,1.534098 2.91602,0.949219 16.14903,-8.949371 25.94655,-3.826387 32.66211,8.130859 l -0.52735,-49.554687 c 0.0128,-1.418646 -0.17752,-1.9742 -0.88086,-2.847656 -4.12167,-6.056648 -9.33779,-8.538584 -14.87695,-8.667969 z m 35.53516,0 c -5.53916,0.129385 -10.75333,2.611321 -14.875,8.667969 -0.70334,0.873456 -0.89558,1.42901 -0.88282,2.847656 l -0.52734,49.554687 c 6.71556,-11.957246 16.51503,-17.08023 32.66407,-8.130859 1.01304,0.584879 2.91405,1.280838 2.91406,-0.949219 l -0.20313,-42.916015 c 0,-1.08602 -0.35107,-2.518203 -2.27148,-3.626953 -5.41662,-3.353848 -11.27921,-5.576651 -16.81836,-5.447266 z"
           id="path1466"
           inkscape:connector-curvature="0" />
        <path
           inkscape:connector-curvature="0"
           id="path1468"
           d="m 192.32725,33.753842 c -5.53916,-0.129385 -11.40174,2.093418 -16.81836,5.447266 -1.92041,1.10875 -2.27148,2.540933 -2.27148,3.626953 l -0.20313,42.916015 c 0,2.230057 1.90298,1.534098 2.91602,0.949219 16.14903,-8.949371 25.94655,-3.826387 32.66211,8.130859 l -0.52735,-49.554687 c 0.0128,-1.418646 -0.17752,-1.9742 -0.88086,-2.847656 -4.12167,-6.056648 -9.33779,-8.538584 -14.87695,-8.667969 z m 35.53516,0 c -5.53916,0.129385 -10.75333,2.611321 -14.875,8.667969 -0.70334,0.873456 -0.89558,1.42901 -0.88282,2.847656 l -0.52734,49.554687 c 6.71556,-11.957246 16.51503,-17.08023 32.66407,-8.130859 1.01304,0.584879 2.91405,1.280838 2.91406,-0.949219 l -0.20313,-42.916015 c 0,-1.08602 -0.35107,-2.518203 -2.27148,-3.626953 -5.41662,-3.353848 -11.27921,-5.576651 -16.81836,-5.447266 z"
           style="fill:none;fill-opacity:1;stroke:#000000;stroke-width:0.7;stroke-linecap:round;stroke-linejoin:round;stroke-miterlimit:4;stroke-dasharray:none;stroke-opacity:0.00784314" />
        <path
           style="fill:none;fill-opacity:1;stroke:#000000;stroke-width:0.8;stroke-linecap:round;stroke-linejoin:round;stroke-miterlimit:4;stroke-dasharray:none;stroke-opacity:0.00784314"
           d="m 192.32725,33.753842 c -5.53916,-0.129385 -11.40174,2.093418 -16.81836,5.447266 -1.92041,1.10875 -2.27148,2.540933 -2.27148,3.626953 l -0.20313,42.916015 c 0,2.230057 1.90298,1.534098 2.91602,0.949219 16.14903,-8.949371 25.94655,-3.826387 32.66211,8.130859 l -0.52735,-49.554687 c 0.0128,-1.418646 -0.17752,-1.9742 -0.88086,-2.847656 -4.12167,-6.056648 -9.33779,-8.538584 -14.87695,-8.667969 z m 35.53516,0 c -5.53916,0.129385 -10.75333,2.611321 -14.875,8.667969 -0.70334,0.873456 -0.89558,1.42901 -0.88282,2.847656 l -0.52734,49.554687 c 6.71556,-11.957246 16.51503,-17.08023 32.66407,-8.130859 1.01304,0.584879 2.91405,1.280838 2.91406,-0.949219 l -0.20313,-42.916015 c 0,-1.08602 -0.35107,-2.518203 -2.27148,-3.626953 -5.41662,-3.353848 -11.27921,-5.576651 -16.81836,-5.447266 z"
           id="path1470"
           inkscape:connector-curvature="0" />
        <path
           inkscape:connector-curvature="0"
           id="path1472"
           d="m 192.32725,33.753842 c -5.53916,-0.129385 -11.40174,2.093418 -16.81836,5.447266 -1.92041,1.10875 -2.27148,2.540933 -2.27148,3.626953 l -0.20313,42.916015 c 0,2.230057 1.90298,1.534098 2.91602,0.949219 16.14903,-8.949371 25.94655,-3.826387 32.66211,8.130859 l -0.52735,-49.554687 c 0.0128,-1.418646 -0.17752,-1.9742 -0.88086,-2.847656 -4.12167,-6.056648 -9.33779,-8.538584 -14.87695,-8.667969 z m 35.53516,0 c -5.53916,0.129385 -10.75333,2.611321 -14.875,8.667969 -0.70334,0.873456 -0.89558,1.42901 -0.88282,2.847656 l -0.52734,49.554687 c 6.71556,-11.957246 16.51503,-17.08023 32.66407,-8.130859 1.01304,0.584879 2.91405,1.280838 2.91406,-0.949219 l -0.20313,-42.916015 c 0,-1.08602 -0.35107,-2.518203 -2.27148,-3.626953 -5.41662,-3.353848 -11.27921,-5.576651 -16.81836,-5.447266 z"
           style="fill:none;fill-opacity:1;stroke:#000000;stroke-width:0.9;stroke-linecap:round;stroke-linejoin:round;stroke-miterlimit:4;stroke-dasharray:none;stroke-opacity:0.00784314" />
        <path
           style="fill:none;fill-opacity:1;stroke:#000000;stroke-width:1;stroke-linecap:round;stroke-linejoin:round;stroke-miterlimit:4;stroke-dasharray:none;stroke-opacity:0.00784314"
           d="m 192.32725,33.753842 c -5.53916,-0.129385 -11.40174,2.093418 -16.81836,5.447266 -1.92041,1.10875 -2.27148,2.540933 -2.27148,3.626953 l -0.20313,42.916015 c 0,2.230057 1.90298,1.534098 2.91602,0.949219 16.14903,-8.949371 25.94655,-3.826387 32.66211,8.130859 l -0.52735,-49.554687 c 0.0128,-1.418646 -0.17752,-1.9742 -0.88086,-2.847656 -4.12167,-6.056648 -9.33779,-8.538584 -14.87695,-8.667969 z m 35.53516,0 c -5.53916,0.129385 -10.75333,2.611321 -14.875,8.667969 -0.70334,0.873456 -0.89558,1.42901 -0.88282,2.847656 l -0.52734,49.554687 c 6.71556,-11.957246 16.51503,-17.08023 32.66407,-8.130859 1.01304,0.584879 2.91405,1.280838 2.91406,-0.949219 l -0.20313,-42.916015 c 0,-1.08602 -0.35107,-2.518203 -2.27148,-3.626953 -5.41662,-3.353848 -11.27921,-5.576651 -16.81836,-5.447266 z"
           id="path1474"
           inkscape:connector-curvature="0" />
        <path
           inkscape:connector-curvature="0"
           id="path1476"
           d="m 192.32725,33.753842 c -5.53916,-0.129385 -11.40174,2.093418 -16.81836,5.447266 -1.92041,1.10875 -2.27148,2.540933 -2.27148,3.626953 l -0.20313,42.916015 c 0,2.230057 1.90298,1.534098 2.91602,0.949219 16.14903,-8.949371 25.94655,-3.826387 32.66211,8.130859 l -0.52735,-49.554687 c 0.0128,-1.418646 -0.17752,-1.9742 -0.88086,-2.847656 -4.12167,-6.056648 -9.33779,-8.538584 -14.87695,-8.667969 z m 35.53516,0 c -5.53916,0.129385 -10.75333,2.611321 -14.875,8.667969 -0.70334,0.873456 -0.89558,1.42901 -0.88282,2.847656 l -0.52734,49.554687 c 6.71556,-11.957246 16.51503,-17.08023 32.66407,-8.130859 1.01304,0.584879 2.91405,1.280838 2.91406,-0.949219 l -0.20313,-42.916015 c 0,-1.08602 -0.35107,-2.518203 -2.27148,-3.626953 -5.41662,-3.353848 -11.27921,-5.576651 -16.81836,-5.447266 z"
           style="fill:none;fill-opacity:1;stroke:#000000;stroke-width:1.2;stroke-linecap:round;stroke-linejoin:round;stroke-miterlimit:4;stroke-dasharray:none;stroke-opacity:0.00784314" />
        <path
           style="fill:none;fill-opacity:1;stroke:#000000;stroke-width:1.3;stroke-linecap:round;stroke-linejoin:round;stroke-miterlimit:4;stroke-dasharray:none;stroke-opacity:0.00784314"
           d="m 192.32725,33.753842 c -5.53916,-0.129385 -11.40174,2.093418 -16.81836,5.447266 -1.92041,1.10875 -2.27148,2.540933 -2.27148,3.626953 l -0.20313,42.916015 c 0,2.230057 1.90298,1.534098 2.91602,0.949219 16.14903,-8.949371 25.94655,-3.826387 32.66211,8.130859 l -0.52735,-49.554687 c 0.0128,-1.418646 -0.17752,-1.9742 -0.88086,-2.847656 -4.12167,-6.056648 -9.33779,-8.538584 -14.87695,-8.667969 z m 35.53516,0 c -5.53916,0.129385 -10.75333,2.611321 -14.875,8.667969 -0.70334,0.873456 -0.89558,1.42901 -0.88282,2.847656 l -0.52734,49.554687 c 6.71556,-11.957246 16.51503,-17.08023 32.66407,-8.130859 1.01304,0.584879 2.91405,1.280838 2.91406,-0.949219 l -0.20313,-42.916015 c 0,-1.08602 -0.35107,-2.518203 -2.27148,-3.626953 -5.41662,-3.353848 -11.27921,-5.576651 -16.81836,-5.447266 z"
           id="path1478"
           inkscape:connector-curvature="0" />
        <path
           inkscape:connector-curvature="0"
           id="path1480"
           d="m 192.32725,33.753842 c -5.53916,-0.129385 -11.40174,2.093418 -16.81836,5.447266 -1.92041,1.10875 -2.27148,2.540933 -2.27148,3.626953 l -0.20313,42.916015 c 0,2.230057 1.90298,1.534098 2.91602,0.949219 16.14903,-8.949371 25.94655,-3.826387 32.66211,8.130859 l -0.52735,-49.554687 c 0.0128,-1.418646 -0.17752,-1.9742 -0.88086,-2.847656 -4.12167,-6.056648 -9.33779,-8.538584 -14.87695,-8.667969 z m 35.53516,0 c -5.53916,0.129385 -10.75333,2.611321 -14.875,8.667969 -0.70334,0.873456 -0.89558,1.42901 -0.88282,2.847656 l -0.52734,49.554687 c 6.71556,-11.957246 16.51503,-17.08023 32.66407,-8.130859 1.01304,0.584879 2.91405,1.280838 2.91406,-0.949219 l -0.20313,-42.916015 c 0,-1.08602 -0.35107,-2.518203 -2.27148,-3.626953 -5.41662,-3.353848 -11.27921,-5.576651 -16.81836,-5.447266 z"
           style="fill:none;fill-opacity:1;stroke:#000000;stroke-width:1.5;stroke-linecap:round;stroke-linejoin:round;stroke-miterlimit:4;stroke-dasharray:none;stroke-opacity:0.00784314" />
        <path
           style="fill:none;fill-opacity:1;stroke:#000000;stroke-width:1.7;stroke-linecap:round;stroke-linejoin:round;stroke-miterlimit:4;stroke-dasharray:none;stroke-opacity:0.00784314"
           d="m 192.32725,33.753842 c -5.53916,-0.129385 -11.40174,2.093418 -16.81836,5.447266 -1.92041,1.10875 -2.27148,2.540933 -2.27148,3.626953 l -0.20313,42.916015 c 0,2.230057 1.90298,1.534098 2.91602,0.949219 16.14903,-8.949371 25.94655,-3.826387 32.66211,8.130859 l -0.52735,-49.554687 c 0.0128,-1.418646 -0.17752,-1.9742 -0.88086,-2.847656 -4.12167,-6.056648 -9.33779,-8.538584 -14.87695,-8.667969 z m 35.53516,0 c -5.53916,0.129385 -10.75333,2.611321 -14.875,8.667969 -0.70334,0.873456 -0.89558,1.42901 -0.88282,2.847656 l -0.52734,49.554687 c 6.71556,-11.957246 16.51503,-17.08023 32.66407,-8.130859 1.01304,0.584879 2.91405,1.280838 2.91406,-0.949219 l -0.20313,-42.916015 c 0,-1.08602 -0.35107,-2.518203 -2.27148,-3.626953 -5.41662,-3.353848 -11.27921,-5.576651 -16.81836,-5.447266 z"
           id="path1482"
           inkscape:connector-curvature="0" />
        <path
           inkscape:connector-curvature="0"
           id="path1484"
           d="m 192.32725,33.753842 c -5.53916,-0.129385 -11.40174,2.093418 -16.81836,5.447266 -1.92041,1.10875 -2.27148,2.540933 -2.27148,3.626953 l -0.20313,42.916015 c 0,2.230057 1.90298,1.534098 2.91602,0.949219 16.14903,-8.949371 25.94655,-3.826387 32.66211,8.130859 l -0.52735,-49.554687 c 0.0128,-1.418646 -0.17752,-1.9742 -0.88086,-2.847656 -4.12167,-6.056648 -9.33779,-8.538584 -14.87695,-8.667969 z m 35.53516,0 c -5.53916,0.129385 -10.75333,2.611321 -14.875,8.667969 -0.70334,0.873456 -0.89558,1.42901 -0.88282,2.847656 l -0.52734,49.554687 c 6.71556,-11.957246 16.51503,-17.08023 32.66407,-8.130859 1.01304,0.584879 2.91405,1.280838 2.91406,-0.949219 l -0.20313,-42.916015 c 0,-1.08602 -0.35107,-2.518203 -2.27148,-3.626953 -5.41662,-3.353848 -11.27921,-5.576651 -16.81836,-5.447266 z"
           style="fill:none;fill-opacity:1;stroke:#000000;stroke-width:2;stroke-linecap:round;stroke-linejoin:round;stroke-miterlimit:4;stroke-dasharray:none;stroke-opacity:0.00784314" />
        <path
           style="fill:none;fill-opacity:1;stroke:#000000;stroke-width:2.3;stroke-linecap:round;stroke-linejoin:round;stroke-miterlimit:4;stroke-dasharray:none;stroke-opacity:0.00784314"
           d="m 192.32725,33.753842 c -5.53916,-0.129385 -11.40174,2.093418 -16.81836,5.447266 -1.92041,1.10875 -2.27148,2.540933 -2.27148,3.626953 l -0.20313,42.916015 c 0,2.230057 1.90298,1.534098 2.91602,0.949219 16.14903,-8.949371 25.94655,-3.826387 32.66211,8.130859 l -0.52735,-49.554687 c 0.0128,-1.418646 -0.17752,-1.9742 -0.88086,-2.847656 -4.12167,-6.056648 -9.33779,-8.538584 -14.87695,-8.667969 z m 35.53516,0 c -5.53916,0.129385 -10.75333,2.611321 -14.875,8.667969 -0.70334,0.873456 -0.89558,1.42901 -0.88282,2.847656 l -0.52734,49.554687 c 6.71556,-11.957246 16.51503,-17.08023 32.66407,-8.130859 1.01304,0.584879 2.91405,1.280838 2.91406,-0.949219 l -0.20313,-42.916015 c 0,-1.08602 -0.35107,-2.518203 -2.27148,-3.626953 -5.41662,-3.353848 -11.27921,-5.576651 -16.81836,-5.447266 z"
           id="path1486"
           inkscape:connector-curvature="0" />
        <path
           inkscape:connector-curvature="0"
           id="path1488"
           d="m 192.32725,33.753842 c -5.53916,-0.129385 -11.40174,2.093418 -16.81836,5.447266 -1.92041,1.10875 -2.27148,2.540933 -2.27148,3.626953 l -0.20313,42.916015 c 0,2.230057 1.90298,1.534098 2.91602,0.949219 16.14903,-8.949371 25.94655,-3.826387 32.66211,8.130859 l -0.52735,-49.554687 c 0.0128,-1.418646 -0.17752,-1.9742 -0.88086,-2.847656 -4.12167,-6.056648 -9.33779,-8.538584 -14.87695,-8.667969 z m 35.53516,0 c -5.53916,0.129385 -10.75333,2.611321 -14.875,8.667969 -0.70334,0.873456 -0.89558,1.42901 -0.88282,2.847656 l -0.52734,49.554687 c 6.71556,-11.957246 16.51503,-17.08023 32.66407,-8.130859 1.01304,0.584879 2.91405,1.280838 2.91406,-0.949219 l -0.20313,-42.916015 c 0,-1.08602 -0.35107,-2.518203 -2.27148,-3.626953 -5.41662,-3.353848 -11.27921,-5.576651 -16.81836,-5.447266 z"
           style="fill:none;fill-opacity:1;stroke:#000000;stroke-width:2.6;stroke-linecap:round;stroke-linejoin:round;stroke-miterlimit:4;stroke-dasharray:none;stroke-opacity:0.00784314" />
        <path
           style="fill:none;fill-opacity:1;stroke:#000000;stroke-width:2.9;stroke-linecap:round;stroke-linejoin:round;stroke-miterlimit:4;stroke-dasharray:none;stroke-opacity:0.00784314"
           d="m 192.32725,33.753842 c -5.53916,-0.129385 -11.40174,2.093418 -16.81836,5.447266 -1.92041,1.10875 -2.27148,2.540933 -2.27148,3.626953 l -0.20313,42.916015 c 0,2.230057 1.90298,1.534098 2.91602,0.949219 16.14903,-8.949371 25.94655,-3.826387 32.66211,8.130859 l -0.52735,-49.554687 c 0.0128,-1.418646 -0.17752,-1.9742 -0.88086,-2.847656 -4.12167,-6.056648 -9.33779,-8.538584 -14.87695,-8.667969 z m 35.53516,0 c -5.53916,0.129385 -10.75333,2.611321 -14.875,8.667969 -0.70334,0.873456 -0.89558,1.42901 -0.88282,2.847656 l -0.52734,49.554687 c 6.71556,-11.957246 16.51503,-17.08023 32.66407,-8.130859 1.01304,0.584879 2.91405,1.280838 2.91406,-0.949219 l -0.20313,-42.916015 c 0,-1.08602 -0.35107,-2.518203 -2.27148,-3.626953 -5.41662,-3.353848 -11.27921,-5.576651 -16.81836,-5.447266 z"
           id="path1490"
           inkscape:connector-curvature="0" />
        <path
           inkscape:connector-curvature="0"
           id="path1492"
           d="m 192.32725,33.753842 c -5.53916,-0.129385 -11.40174,2.093418 -16.81836,5.447266 -1.92041,1.10875 -2.27148,2.540933 -2.27148,3.626953 l -0.20313,42.916015 c 0,2.230057 1.90298,1.534098 2.91602,0.949219 16.14903,-8.949371 25.94655,-3.826387 32.66211,8.130859 l -0.52735,-49.554687 c 0.0128,-1.418646 -0.17752,-1.9742 -0.88086,-2.847656 -4.12167,-6.056648 -9.33779,-8.538584 -14.87695,-8.667969 z m 35.53516,0 c -5.53916,0.129385 -10.75333,2.611321 -14.875,8.667969 -0.70334,0.873456 -0.89558,1.42901 -0.88282,2.847656 l -0.52734,49.554687 c 6.71556,-11.957246 16.51503,-17.08023 32.66407,-8.130859 1.01304,0.584879 2.91405,1.280838 2.91406,-0.949219 l -0.20313,-42.916015 c 0,-1.08602 -0.35107,-2.518203 -2.27148,-3.626953 -5.41662,-3.353848 -11.27921,-5.576651 -16.81836,-5.447266 z"
           style="fill:none;fill-opacity:1;stroke:#000000;stroke-width:3.2;stroke-linecap:round;stroke-linejoin:round;stroke-miterlimit:4;stroke-dasharray:none;stroke-opacity:0.00784314" />
        <path
           style="fill:none;fill-opacity:1;stroke:#000000;stroke-width:3.7;stroke-linecap:round;stroke-linejoin:round;stroke-miterlimit:4;stroke-dasharray:none;stroke-opacity:0.00784314"
           d="m 192.32725,33.753842 c -5.53916,-0.129385 -11.40174,2.093418 -16.81836,5.447266 -1.92041,1.10875 -2.27148,2.540933 -2.27148,3.626953 l -0.20313,42.916015 c 0,2.230057 1.90298,1.534098 2.91602,0.949219 16.14903,-8.949371 25.94655,-3.826387 32.66211,8.130859 l -0.52735,-49.554687 c 0.0128,-1.418646 -0.17752,-1.9742 -0.88086,-2.847656 -4.12167,-6.056648 -9.33779,-8.538584 -14.87695,-8.667969 z m 35.53516,0 c -5.53916,0.129385 -10.75333,2.611321 -14.875,8.667969 -0.70334,0.873456 -0.89558,1.42901 -0.88282,2.847656 l -0.52734,49.554687 c 6.71556,-11.957246 16.51503,-17.08023 32.66407,-8.130859 1.01304,0.584879 2.91405,1.280838 2.91406,-0.949219 l -0.20313,-42.916015 c 0,-1.08602 -0.35107,-2.518203 -2.27148,-3.626953 -5.41662,-3.353848 -11.27921,-5.576651 -16.81836,-5.447266 z"
           id="path1494"
           inkscape:connector-curvature="0" />
        <path
           inkscape:connector-curvature="0"
           id="path1496"
           d="m 192.32725,33.753842 c -5.53916,-0.129385 -11.40174,2.093418 -16.81836,5.447266 -1.92041,1.10875 -2.27148,2.540933 -2.27148,3.626953 l -0.20313,42.916015 c 0,2.230057 1.90298,1.534098 2.91602,0.949219 16.14903,-8.949371 25.94655,-3.826387 32.66211,8.130859 l -0.52735,-49.554687 c 0.0128,-1.418646 -0.17752,-1.9742 -0.88086,-2.847656 -4.12167,-6.056648 -9.33779,-8.538584 -14.87695,-8.667969 z m 35.53516,0 c -5.53916,0.129385 -10.75333,2.611321 -14.875,8.667969 -0.70334,0.873456 -0.89558,1.42901 -0.88282,2.847656 l -0.52734,49.554687 c 6.71556,-11.957246 16.51503,-17.08023 32.66407,-8.130859 1.01304,0.584879 2.91405,1.280838 2.91406,-0.949219 l -0.20313,-42.916015 c 0,-1.08602 -0.35107,-2.518203 -2.27148,-3.626953 -5.41662,-3.353848 -11.27921,-5.576651 -16.81836,-5.447266 z"
           style="fill:none;fill-opacity:1;stroke:#000000;stroke-width:4.2;stroke-linecap:round;stroke-linejoin:round;stroke-miterlimit:4;stroke-dasharray:none;stroke-opacity:0.00784314" />
        <path
           style="fill:none;fill-opacity:1;stroke:#000000;stroke-width:4.7;stroke-linecap:round;stroke-linejoin:round;stroke-miterlimit:4;stroke-dasharray:none;stroke-opacity:0.00784314"
           d="m 192.32725,33.753842 c -5.53916,-0.129385 -11.40174,2.093418 -16.81836,5.447266 -1.92041,1.10875 -2.27148,2.540933 -2.27148,3.626953 l -0.20313,42.916015 c 0,2.230057 1.90298,1.534098 2.91602,0.949219 16.14903,-8.949371 25.94655,-3.826387 32.66211,8.130859 l -0.52735,-49.554687 c 0.0128,-1.418646 -0.17752,-1.9742 -0.88086,-2.847656 -4.12167,-6.056648 -9.33779,-8.538584 -14.87695,-8.667969 z m 35.53516,0 c -5.53916,0.129385 -10.75333,2.611321 -14.875,8.667969 -0.70334,0.873456 -0.89558,1.42901 -0.88282,2.847656 l -0.52734,49.554687 c 6.71556,-11.957246 16.51503,-17.08023 32.66407,-8.130859 1.01304,0.584879 2.91405,1.280838 2.91406,-0.949219 l -0.20313,-42.916015 c 0,-1.08602 -0.35107,-2.518203 -2.27148,-3.626953 -5.41662,-3.353848 -11.27921,-5.576651 -16.81836,-5.447266 z"
           id="path1498"
           inkscape:connector-curvature="0" />
        <path
           inkscape:connector-curvature="0"
           id="path1500"
           d="m 192.32725,33.753842 c -5.53916,-0.129385 -11.40174,2.093418 -16.81836,5.447266 -1.92041,1.10875 -2.27148,2.540933 -2.27148,3.626953 l -0.20313,42.916015 c 0,2.230057 1.90298,1.534098 2.91602,0.949219 16.14903,-8.949371 25.94655,-3.826387 32.66211,8.130859 l -0.52735,-49.554687 c 0.0128,-1.418646 -0.17752,-1.9742 -0.88086,-2.847656 -4.12167,-6.056648 -9.33779,-8.538584 -14.87695,-8.667969 z m 35.53516,0 c -5.53916,0.129385 -10.75333,2.611321 -14.875,8.667969 -0.70334,0.873456 -0.89558,1.42901 -0.88282,2.847656 l -0.52734,49.554687 c 6.71556,-11.957246 16.51503,-17.08023 32.66407,-8.130859 1.01304,0.584879 2.91405,1.280838 2.91406,-0.949219 l -0.20313,-42.916015 c 0,-1.08602 -0.35107,-2.518203 -2.27148,-3.626953 -5.41662,-3.353848 -11.27921,-5.576651 -16.81836,-5.447266 z"
           style="fill:none;fill-opacity:1;stroke:#000000;stroke-width:5.2;stroke-linecap:round;stroke-linejoin:round;stroke-miterlimit:4;stroke-dasharray:none;stroke-opacity:0.00784314" />
        <path
           style="fill:none;fill-opacity:1;stroke:#000000;stroke-width:5.7;stroke-linecap:round;stroke-linejoin:round;stroke-miterlimit:4;stroke-dasharray:none;stroke-opacity:0.00784314"
           d="m 192.32725,33.753842 c -5.53916,-0.129385 -11.40174,2.093418 -16.81836,5.447266 -1.92041,1.10875 -2.27148,2.540933 -2.27148,3.626953 l -0.20313,42.916015 c 0,2.230057 1.90298,1.534098 2.91602,0.949219 16.14903,-8.949371 25.94655,-3.826387 32.66211,8.130859 l -0.52735,-49.554687 c 0.0128,-1.418646 -0.17752,-1.9742 -0.88086,-2.847656 -4.12167,-6.056648 -9.33779,-8.538584 -14.87695,-8.667969 z m 35.53516,0 c -5.53916,0.129385 -10.75333,2.611321 -14.875,8.667969 -0.70334,0.873456 -0.89558,1.42901 -0.88282,2.847656 l -0.52734,49.554687 c 6.71556,-11.957246 16.51503,-17.08023 32.66407,-8.130859 1.01304,0.584879 2.91405,1.280838 2.91406,-0.949219 l -0.20313,-42.916015 c 0,-1.08602 -0.35107,-2.518203 -2.27148,-3.626953 -5.41662,-3.353848 -11.27921,-5.576651 -16.81836,-5.447266 z"
           id="path1502"
           inkscape:connector-curvature="0" />
        <path
           inkscape:connector-curvature="0"
           id="path1504"
           d="m 192.32725,33.753842 c -5.53916,-0.129385 -11.40174,2.093418 -16.81836,5.447266 -1.92041,1.10875 -2.27148,2.540933 -2.27148,3.626953 l -0.20313,42.916015 c 0,2.230057 1.90298,1.534098 2.91602,0.949219 16.14903,-8.949371 25.94655,-3.826387 32.66211,8.130859 l -0.52735,-49.554687 c 0.0128,-1.418646 -0.17752,-1.9742 -0.88086,-2.847656 -4.12167,-6.056648 -9.33779,-8.538584 -14.87695,-8.667969 z m 35.53516,0 c -5.53916,0.129385 -10.75333,2.611321 -14.875,8.667969 -0.70334,0.873456 -0.89558,1.42901 -0.88282,2.847656 l -0.52734,49.554687 c 6.71556,-11.957246 16.51503,-17.08023 32.66407,-8.130859 1.01304,0.584879 2.91405,1.280838 2.91406,-0.949219 l -0.20313,-42.916015 c 0,-1.08602 -0.35107,-2.518203 -2.27148,-3.626953 -5.41662,-3.353848 -11.27921,-5.576651 -16.81836,-5.447266 z"
           style="fill:none;fill-opacity:1;stroke:#000000;stroke-width:6.3;stroke-linecap:round;stroke-linejoin:round;stroke-miterlimit:4;stroke-dasharray:none;stroke-opacity:0.00784314" />
        <path
           style="fill:none;fill-opacity:1;stroke:#000000;stroke-width:7.3;stroke-linecap:round;stroke-linejoin:round;stroke-miterlimit:4;stroke-dasharray:none;stroke-opacity:0.00784314"
           d="m 192.32725,33.753842 c -5.53916,-0.129385 -11.40174,2.093418 -16.81836,5.447266 -1.92041,1.10875 -2.27148,2.540933 -2.27148,3.626953 l -0.20313,42.916015 c 0,2.230057 1.90298,1.534098 2.91602,0.949219 16.14903,-8.949371 25.94655,-3.826387 32.66211,8.130859 l -0.52735,-49.554687 c 0.0128,-1.418646 -0.17752,-1.9742 -0.88086,-2.847656 -4.12167,-6.056648 -9.33779,-8.538584 -14.87695,-8.667969 z m 35.53516,0 c -5.53916,0.129385 -10.75333,2.611321 -14.875,8.667969 -0.70334,0.873456 -0.89558,1.42901 -0.88282,2.847656 l -0.52734,49.554687 c 6.71556,-11.957246 16.51503,-17.08023 32.66407,-8.130859 1.01304,0.584879 2.91405,1.280838 2.91406,-0.949219 l -0.20313,-42.916015 c 0,-1.08602 -0.35107,-2.518203 -2.27148,-3.626953 -5.41662,-3.353848 -11.27921,-5.576651 -16.81836,-5.447266 z"
           id="path1506"
           inkscape:connector-curvature="0" />
        <path
           inkscape:connector-curvature="0"
           id="path1508"
           d="m 192.32725,33.753842 c -5.53916,-0.129385 -11.40174,2.093418 -16.81836,5.447266 -1.92041,1.10875 -2.27148,2.540933 -2.27148,3.626953 l -0.20313,42.916015 c 0,2.230057 1.90298,1.534098 2.91602,0.949219 16.14903,-8.949371 25.94655,-3.826387 32.66211,8.130859 l -0.52735,-49.554687 c 0.0128,-1.418646 -0.17752,-1.9742 -0.88086,-2.847656 -4.12167,-6.056648 -9.33779,-8.538584 -14.87695,-8.667969 z m 35.53516,0 c -5.53916,0.129385 -10.75333,2.611321 -14.875,8.667969 -0.70334,0.873456 -0.89558,1.42901 -0.88282,2.847656 l -0.52734,49.554687 c 6.71556,-11.957246 16.51503,-17.08023 32.66407,-8.130859 1.01304,0.584879 2.91405,1.280838 2.91406,-0.949219 l -0.20313,-42.916015 c 0,-1.08602 -0.35107,-2.518203 -2.27148,-3.626953 -5.41662,-3.353848 -11.27921,-5.576651 -16.81836,-5.447266 z"
           style="fill:none;fill-opacity:1;stroke:#000000;stroke-width:7.8;stroke-linecap:round;stroke-linejoin:round;stroke-miterlimit:4;stroke-dasharray:none;stroke-opacity:0.00784314" />
      </g>
      <path
         inkscape:connector-curvature="0"
         id="path1449"
         d="m 365.19337,511.71008 c -2.31293,-0.054 -4.76091,0.87412 -7.02267,2.27455 -0.80188,0.46297 -0.94847,1.06099 -0.94847,1.51447 l -0.0848,17.91999 c 0,0.93118 0.79461,0.64058 1.21761,0.39636 6.74319,-3.7369 10.83423,-1.59774 13.63838,3.39511 l -0.2202,-20.69203 c 0.005,-0.59237 -0.0741,-0.82434 -0.36781,-1.18906 -1.72104,-2.52901 -3.89909,-3.56537 -6.21201,-3.61939 z m 14.83805,0 c -2.31293,0.054 -4.49016,1.09038 -6.21121,3.61939 -0.29366,0.36472 -0.37395,0.59669 -0.36862,1.18906 l -0.2202,20.69203 c 2.80415,-4.99285 6.89602,-7.13201 13.6392,-3.39511 0.423,0.24423 1.21679,0.53482 1.21679,-0.39636 l -0.0848,-17.91999 c 0,-0.45348 -0.14658,-1.0515 -0.94848,-1.51447 -2.26176,-1.40043 -4.70974,-2.32858 -7.02267,-2.27455 z"
         style="fill:#f5f5f5;fill-opacity:1;stroke:url(#linearGradient1982);stroke-width:0.407226;stroke-linecap:butt;stroke-linejoin:miter;stroke-miterlimit:4;stroke-dasharray:none;stroke-opacity:1" />
    </g>
  </g>
</svg>
