<?xml version="1.0" encoding="UTF-8" standalone="no"?>
<svg
   width="136"
   height="136"
   viewBox="0 0 35.983333 35.983334"
   id="svg2"
   version="1.1"
   inkscape:version="1.4 (e7c3feb100, 2024-10-09)"
   sodipodi:docname="busywidget.svg"
   xmlns:inkscape="http://www.inkscape.org/namespaces/inkscape"
   xmlns:sodipodi="http://sodipodi.sourceforge.net/DTD/sodipodi-0.dtd"
   xmlns:xlink="http://www.w3.org/1999/xlink"
   xmlns="http://www.w3.org/2000/svg"
   xmlns:svg="http://www.w3.org/2000/svg"
   xmlns:rdf="http://www.w3.org/1999/02/22-rdf-syntax-ns#"
   xmlns:cc="http://creativecommons.org/ns#"
   xmlns:dc="http://purl.org/dc/elements/1.1/">
  <defs
     id="defs4">
    <linearGradient
       inkscape:collect="always"
       id="linearGradient871">
      <stop
         style="stop-color:#7171a8;stop-opacity:1;"
         offset="0"
         id="stop867" />
      <stop
         style="stop-color:#efeff6;stop-opacity:0"
         offset="1"
         id="stop869" />
    </linearGradient>
    <linearGradient
       inkscape:collect="always"
       id="linearGradient900">
      <stop
         style="stop-color:#7171a8;stop-opacity:1;"
         offset="0"
         id="stop896" />
      <stop
         style="stop-color:#dfdfec;stop-opacity:0.25"
         offset="1"
         id="stop898" />
    </linearGradient>
    <style
       type="text/css"
       id="current-color-scheme" />
    <linearGradient
       inkscape:collect="always"
       xlink:href="#linearGradient871"
       id="linearGradient902"
       x1="14.01869"
       y1="269.70099"
       x2="13.154471"
       y2="281.99615"
       gradientUnits="userSpaceOnUse" />
    <linearGradient
       inkscape:collect="always"
       xlink:href="#linearGradient900"
       id="linearGradient887"
       x1="197"
       y1="125.00002"
       x2="215.3297"
       y2="125.00002"
       gradientUnits="userSpaceOnUse" />
    <linearGradient
       inkscape:collect="always"
       xlink:href="#linearGradient900"
       id="linearGradient895"
       x1="58.737499"
       y1="283.23718"
       x2="62.14006"
       y2="283.23718"
       gradientUnits="userSpaceOnUse" />
  </defs>
  <sodipodi:namedview
     id="base"
     pagecolor="#ffffff"
     bordercolor="#000000"
     borderopacity="1"
     inkscape:pageopacity="0"
     inkscape:pageshadow="2"
     inkscape:zoom="2"
     inkscape:cx="75.25"
     inkscape:cy="112"
     inkscape:document-units="px"
     inkscape:current-layer="layer1"
     showgrid="false"
     units="px"
     inkscape:showpageshadow="true"
     borderlayer="true"
     inkscape:window-width="1920"
     inkscape:window-height="994"
     inkscape:window-x="0"
     inkscape:window-y="0"
     inkscape:window-maximized="1"
     fit-margin-top="0"
     fit-margin-left="0"
     fit-margin-right="0"
     fit-margin-bottom="0"
     inkscape:document-rotation="0"
     showguides="false"
     inkscape:lockguides="false"
     inkscape:pagecheckerboard="0"
     inkscape:deskcolor="#cccccc">
    <inkscape:grid
       type="xygrid"
       id="grid4160"
       empspacing="2"
       originx="0"
       originy="0"
       visible="false"
       enabled="true"
       snapvisiblegridlinesonly="true"
       spacingx="1"
       spacingy="1"
       units="px" />
    <sodipodi:guide
       position="-5.8455811e-08,35.983344"
       orientation="136.00001,0"
       id="guide4155"
       inkscape:locked="false" />
    <sodipodi:guide
       position="-5.8455811e-08,6.6152344e-06"
       orientation="0,136"
       id="guide4157"
       inkscape:locked="false" />
    <sodipodi:guide
       position="35.983333,6.6152344e-06"
       orientation="-136.00001,0"
       id="guide4159"
       inkscape:locked="false" />
    <sodipodi:guide
       position="35.983333,35.983344"
       orientation="0,-136"
       id="guide4161"
       inkscape:locked="false" />
    <sodipodi:guide
       position="1.1488343e-09,17.991675"
       orientation="68.000007,0"
       id="guide4165"
       inkscape:locked="false" />
    <sodipodi:guide
       position="1.1488343e-09,6.6152344e-06"
       orientation="0,67.999998"
       id="guide4167"
       inkscape:locked="false" />
    <sodipodi:guide
       position="17.991666,6.6152344e-06"
       orientation="-68.000007,0"
       id="guide4169"
       inkscape:locked="false" />
    <sodipodi:guide
       position="17.991666,17.991675"
       orientation="0,-67.999998"
       id="guide4171"
       inkscape:locked="false" />
    <sodipodi:guide
       position="1.8520831,34.131232"
       orientation="122.00003,0"
       id="guide4199"
       inkscape:locked="false" />
    <sodipodi:guide
       position="1.8520831,1.8520574"
       orientation="0,121.99999"
       id="guide4201"
       inkscape:locked="false" />
    <sodipodi:guide
       position="34.131248,1.8520574"
       orientation="-122.00003,0"
       id="guide4203"
       inkscape:locked="false" />
    <sodipodi:guide
       position="34.131248,34.131232"
       orientation="0,-121.99999"
       id="guide4205"
       inkscape:locked="false" />
  </sodipodi:namedview>
  <metadata
     id="metadata7">
    <rdf:RDF>
      <cc:Work
         rdf:about="">
        <dc:format>image/svg+xml</dc:format>
        <dc:type
           rdf:resource="http://purl.org/dc/dcmitype/StillImage" />
      </cc:Work>
    </rdf:RDF>
  </metadata>
  <g
     inkscape:label="Capa 1"
     inkscape:groupmode="layer"
     id="layer1"
     transform="translate(0.52916664,-249.37498)">
    <g
       id="busywidget">
      <rect
         style="fill:none;stroke:none"
         id="rect3016"
         width="35.983334"
         height="35.983334"
         x="-0.52916682"
         y="249.37498" />
      <path
         d="m 2.226328,263.20015 1.3441071,0.63469 c 0.125365,-0.50076 0.284013,-0.99289 0.459158,-1.47747 L 2.702197,261.73125 c -0.175386,0.47582 -0.333941,0.96816 -0.475869,1.4689 z"
         id="path2-3"
         style="fill:#7171a8;fill-opacity:1;stroke-width:0.834837" />
      <path
         d="m 1.66696,267.32459 c 0,0.40078 0.325613,0.73464 0.734698,0.73464 0.4090591,0 0.7263271,-0.33386 0.7263271,-0.73464 0,-0.50083 0.0241,-0.98501 0.07503,-1.47784 L 1.825508,265.19591 c -0.09999,0.70107 -0.158633,1.4107 -0.158633,2.12868 z"
         id="path4"
         style="fill:#7171a8;fill-opacity:1;stroke-width:0.834837" />
      <path
         d="m 17.420509,251.57102 c -6.010857,0 -11.2369999,3.38046 -13.9001549,8.34006 l 1.319032,0.61804 c 2.429421,-4.4589 7.1546549,-7.49699 12.5811229,-7.49699 7.881012,0 14.30096,6.41138 14.30096,14.30085 0,7.5469 -6.052641,13.87489 -13.566277,14.25906 v 0 0 0 0 c -0.918757,0.10833 -0.911667,1.45014 0,1.46969 v 0 0 0 0 c 8.238976,-0.24415 15.027254,-7.38018 15.027254,-15.72875 0,-8.69927 -7.071182,-15.76196 -15.761937,-15.76196 z"
         id="path6-6"
         sodipodi:nodetypes="sccssccccccccccss"
         style="fill:url(#linearGradient902);fill-opacity:1;stroke-width:0.834837" />
    </g>
    <g
       id="stopped">
      <rect
         style="opacity:1;fill:none;fill-opacity:1;stroke:none;stroke-width:0.0264583;stroke-linecap:square;stroke-linejoin:miter;stroke-miterlimit:4;stroke-dasharray:none;stroke-dashoffset:0;stroke-opacity:1"
         id="rect4234"
         width="35.983334"
         height="35.983334"
         x="-42.862503"
         y="249.37497" />
      <ellipse
         ry="1.3229166"
         rx="1.322917"
         cy="38.364582"
         cx="267.36664"
         id="ellipse4238"
         style="opacity:1;fill:#7171a8;fill-opacity:1;stroke:none;stroke-width:0.0132292;stroke-linecap:square;stroke-linejoin:miter;stroke-miterlimit:4;stroke-dasharray:none;stroke-dashoffset:0;stroke-opacity:1"
         transform="rotate(90)" />
      <ellipse
         transform="rotate(90)"
         style="opacity:1;fill:#7171a8;fill-opacity:1;stroke:none;stroke-width:0.0105833;stroke-linecap:square;stroke-linejoin:miter;stroke-miterlimit:4;stroke-dasharray:none;stroke-dashoffset:0;stroke-opacity:1"
         id="ellipse4261"
         cx="267.36664"
         cy="11.377067"
         rx="1.0583339"
         ry="1.0583336" />
      <ellipse
         ry="2.1166663"
         rx="2.116667"
         cy="24.870825"
         cx="267.36664"
         id="ellipse4263"
         style="opacity:1;fill:#7171a8;fill-opacity:1;stroke:none;stroke-width:0.0211667;stroke-linecap:square;stroke-linejoin:miter;stroke-miterlimit:4;stroke-dasharray:none;stroke-dashoffset:0;stroke-opacity:1"
         transform="rotate(90)" />
    </g>
    <rect
       style="opacity:0.01;fill:#00cccc;fill-opacity:1;fill-rule:nonzero;stroke:none;stroke-width:0.264583"
       id="hint-rotation-angle"
       width="3.7041671"
       height="3.7041693"
       x="-0.52916706"
       y="285.35831" />
    <g
       id="22-22-busywidget">
      <rect
         y="279.53748"
         x="51.329166"
         height="5.8208337"
         width="5.8208337"
         id="rect3007"
         style="fill:none;stroke:none" />
      <path
         sodipodi:nodetypes="sccccccccccccccccsssss"
         inkscape:connector-curvature="0"
         id="path3009"
         transform="matrix(0.26458334,0,0,0.26458334,-0.52916714,249.37498)"
         d="m 206.90625,115 c -5.68285,0 -9.90626,4.76331 -9.90625,10 0,5.11064 3.86041,9.24196 8.53125,9.90625 0.007,0.001 0.0245,-0.001 0.0313,0 0.1869,0.0265 0.37435,0.0459 0.5625,0.0625 0.0726,0.008 0.11478,-0.004 0.1875,0 h 0.0313 c 0.0253,0.002 0.0371,0 0.0625,0 0.16207,0.008 0.3377,0.0313 0.5,0.0313 0.0253,-1.1e-4 0.0373,0 0.0625,0 0.22673,-0.003 0.46154,-0.0123 0.6875,-0.0313 0.0336,-0.003 0.06,0.002 0.0937,0 2.08268,-0.2143 4.08105,-1.19024 5.5625,-2.6875 2.29078,-2.85585 2.42433,-5.2927 1.42433,-9.29269 1.22819,5.24703 -2.45297,9.87167 -7.86188,10.0102 -4.24948,0 -7.87455,-3.58819 -7.87457,-7.99871 0.0682,-4.85133 3.99957,-7.98861 7.93707,-8.00652 h 0.15625 c 0.16789,0 0.31534,-0.15426 0.3125,-0.32394 -0.006,-0.3677 -0.0216,-0.97956 -0.0313,-1.32579 C 207.36994,115.1624 207.24222,115 207.0625,115 Z"
         style="fill:url(#linearGradient887);fill-opacity:1;stroke:none"
         class="ColorScheme-ButtonFocus" />
    </g>
    <g
       id="16-16-busywidget">
      <rect
         style="fill:none;stroke:none"
         id="rect3792"
         width="4.2333336"
         height="4.2333336"
         x="58.472801"
         y="281.12497" />
      <path
         style="fill:url(#linearGradient895);fill-opacity:1;stroke:none"
         d="m 60.57642,281.3808 c -1.05492,0 -1.838921,0.88423 -1.838919,1.85633 0,0.9487 0.716617,1.71561 1.583674,1.83892 0.0013,1.8e-4 0.0045,-1.8e-4 0.0058,0 0.03469,0.005 0.06949,0.008 0.104418,0.0115 0.01348,9.5e-4 0.02132,-7.1e-4 0.03481,0 h 0.0058 c 0.0047,3.7e-4 0.0068,0 0.0116,0 0.03009,9.5e-4 0.06269,0.006 0.09281,0.006 0.0047,-10e-6 0.007,0 0.01161,0 0.04209,-5.5e-4 0.08568,-0.002 0.127622,-0.006 0.0062,-5.5e-4 0.01115,3.7e-4 0.01739,0 0.386612,-0.0397 0.757573,-0.22096 1.032578,-0.49889 0.425244,-0.53014 0.450034,-0.98249 0.264402,-1.72502 0.227992,0.97402 -0.455349,1.8325 -1.459418,1.85821 -0.788838,0 -1.461768,-0.66608 -1.461773,-1.48481 0.01267,-0.90056 0.74245,-1.48294 1.473376,-1.48626 h 0.029 c 0.03117,0 0.05855,-0.0288 0.05801,-0.0601 -0.0011,-0.0683 -0.0039,-0.18183 -0.0058,-0.2461 -9.11e-4,-0.0337 -0.02464,-0.0638 -0.058,-0.0638 z"
         id="path3794"
         inkscape:connector-curvature="0"
         sodipodi:nodetypes="sccccccccccccccccsssss"
         class="ColorScheme-ButtonFocus" />
    </g>
  </g>
</svg>
