<?xml version="1.0" encoding="UTF-8" standalone="no"?>
<svg
   version="1.0"
   height="146.52753"
   width="113.18325"
   id="svg2"
   sodipodi:docname="listitem.svg"
   inkscape:version="1.1.1 (3bf5ae0d25, 2021-09-20)"
   xmlns:inkscape="http://www.inkscape.org/namespaces/inkscape"
   xmlns:sodipodi="http://sodipodi.sourceforge.net/DTD/sodipodi-0.dtd"
   xmlns="http://www.w3.org/2000/svg"
   xmlns:svg="http://www.w3.org/2000/svg"
   xmlns:rdf="http://www.w3.org/1999/02/22-rdf-syntax-ns#"
   xmlns:cc="http://creativecommons.org/ns#"
   xmlns:dc="http://purl.org/dc/elements/1.1/">
  <sodipodi:namedview
     pagecolor="#ffffff"
     bordercolor="#000000"
     borderopacity="1"
     objecttolerance="10"
     gridtolerance="10"
     guidetolerance="10"
     inkscape:pageopacity="0"
     inkscape:pageshadow="2"
     inkscape:window-width="1920"
     inkscape:window-height="1013"
     id="namedview58"
     showgrid="false"
     inkscape:zoom="3.1466666"
     inkscape:cx="65.148306"
     inkscape:cy="72.139832"
     inkscape:window-x="0"
     inkscape:window-y="0"
     inkscape:window-maximized="1"
     inkscape:current-layer="svg2"
     inkscape:lockguides="true"
     inkscape:document-rotation="0"
     inkscape:showpageshadow="false"
     inkscape:pagecheckerboard="0" />
  <metadata
     id="metadata7">
    <rdf:RDF>
      <cc:Work
         rdf:about="">
        <dc:format>image/svg+xml</dc:format>
        <dc:type
           rdf:resource="http://purl.org/dc/dcmitype/StillImage" />
      </cc:Work>
      <cc:Work
         rdf:about="">
        <dc:format>image/svg+xml</dc:format>
        <dc:type
           rdf:resource="http://purl.org/dc/dcmitype/StillImage" />
      </cc:Work>
    </rdf:RDF>
  </metadata>
  <defs
     id="defs5">
    <style
       type="text/css"
       id="current-color-scheme">      
      }</style>
  </defs>
  <g
     transform="translate(-2.2574148,14.741187)"
     style="opacity:1;fill:#393960;fill-opacity:1"
     id="separator">
    <rect
       style="color:#fcfcfc;opacity:0.2;fill:#393960;fill-opacity:1;stroke:none"
       id="rect4052"
       width="40"
       height="1"
       x="63"
       y="-49"
       transform="scale(1,-1)"
       class="ColorScheme-ViewBackground" />
    <rect
       class="ColorScheme-ViewText"
       transform="scale(1,-1)"
       y="-49"
       x="63"
       height="1"
       width="40"
       id="rect4054"
       style="color:#31363b;opacity:1;fill:#393960;fill-opacity:1;stroke:none" />
  </g>
  <path
     class="ColorScheme-ViewBackground"
     style="color:#fcfcfc;opacity:0.05;fill:#7171a8;fill-opacity:1;fill-rule:nonzero;stroke:none"
     d="m 10.742585,71.741532 v 11 h 10.999999 v -11 z"
     id="normal-center"
     inkscape:connector-curvature="0" />
  <path
     class="ColorScheme-ViewBackground"
     style="color:#fcfcfc;opacity:0.05;fill:#7171a8;fill-opacity:1;fill-rule:nonzero;stroke:none"
     d="m 21.742585,71.741532 v 11 h 2 c 6.68e-4,-0.01835 0,-0.03439 0,-0.05288 v -10.89423 c 0,-0.0185 6.68e-4,-0.03453 0,-0.05288 h -2 z"
     id="normal-right"
     inkscape:connector-curvature="0" />
  <path
     class="ColorScheme-ViewBackground"
     style="color:#fcfcfc;opacity:0.05;fill:#7171a8;fill-opacity:1;fill-rule:nonzero;stroke:none"
     d="m 10.742585,69.741485 v 2.000047 h 10.999999 v -2.000047 c -0.0041,-6.7e-4 0.0042,0 10e-7,0 h -10.98814 c -0.004,0 -0.008,-6.7e-4 -0.0119,0 z"
     id="normal-top"
     inkscape:connector-curvature="0" />
  <path
     class="ColorScheme-ViewBackground"
     style="color:#fcfcfc;opacity:0.05;fill:#7171a8;fill-opacity:1;fill-rule:nonzero;stroke:none"
     d="m 8.7428852,71.741532 c -6.7e-4,0.01835 0,0.03439 0,0.05288 v 10.89423 c 0,0.0185 -6.7e-4,0.03453 0,0.05288 h 1.9999998 v -11 H 8.7428852 Z"
     id="normal-left"
     inkscape:connector-curvature="0" />
  <path
     class="ColorScheme-ViewBackground"
     style="color:#fcfcfc;opacity:0.05;fill:#7171a8;fill-opacity:1;fill-rule:nonzero;stroke:none"
     d="m 10.742585,82.741187 v 2 h 11 v -1.999655 z"
     id="normal-bottom"
     inkscape:connector-curvature="0" />
  <path
     class="ColorScheme-ViewBackground"
     id="normal-topleft"
     d="m 8.7425522,69.741485 v 2.000047 h 1.9997708 v -2.000047 c -7.46e-4,-6.7e-4 7.63e-4,0 0,0 H 8.7447092 c -7.28e-4,0 -0.0015,-6.7e-4 -0.0022,0 z"
     style="color:#fcfcfc;opacity:0.05;fill:#7171a8;fill-opacity:1;fill-rule:nonzero;stroke:none"
     inkscape:connector-curvature="0" />
  <path
     class="ColorScheme-ViewBackground"
     id="normal-topright"
     d="m 21.742592,69.74183 v 1.999702 h 1.999771 V 69.74183 c -7.46e-4,-6.7e-4 7.63e-4,0 0,0 h -1.997614 c -7.28e-4,0 -0.0015,-6.7e-4 -0.0022,0 z"
     style="color:#fcfcfc;opacity:0.05;fill:#7171a8;fill-opacity:1;fill-rule:nonzero;stroke:none"
     inkscape:connector-curvature="0" />
  <path
     class="ColorScheme-ViewBackground"
     style="color:#fcfcfc;opacity:0.05;fill:#7171a8;fill-opacity:1;fill-rule:nonzero;stroke:none"
     d="m 21.742592,82.741485 v 1.999702 h 1.999771 v -1.999702 c -7.46e-4,-6.7e-4 7.63e-4,0 0,0 h -1.997614 c -7.28e-4,0 -0.0015,-6.7e-4 -0.0022,0 z"
     id="normal-bottomright"
     inkscape:connector-curvature="0" />
  <path
     class="ColorScheme-ViewBackground"
     id="normal-bottomleft"
     d="m 8.7425922,82.741485 v 1.999702 h 1.9997708 v -1.999702 c -7.46e-4,-6.7e-4 7.63e-4,0 0,0 H 8.7447492 c -7.28e-4,0 -0.0015,-6.7e-4 -0.0022,0 z"
     style="color:#fcfcfc;opacity:0.05;fill:#7171a8;fill-opacity:1;fill-rule:nonzero;stroke:none"
     inkscape:connector-curvature="0" />
  <path
     class="ColorScheme-ViewFocus"
     style="color:#3daee9;opacity:0.05;fill:#7171a8;fill-opacity:1;fill-rule:nonzero;stroke:none"
     d="M 6.7422852,28.741202 V 39.741207 H 17.742284 V 28.741202 Z"
     id="pressed-center"
     inkscape:connector-curvature="0" />
  <path
     class="ColorScheme-ViewFocus"
     style="color:#3daee9;opacity:0.05;fill:#7171a8;fill-opacity:1;fill-rule:nonzero;stroke:none"
     d="m 17.742285,28.741202 v 11.000005 h 2 c 6.68e-4,-0.01835 0,-0.0344 0,-0.05289 v -10.89423 c 0,-0.0185 6.68e-4,-0.03453 0,-0.05288 h -2 z"
     id="pressed-right"
     inkscape:connector-curvature="0" />
  <path
     class="ColorScheme-ViewFocus"
     style="color:#3daee9;opacity:0.05;fill:#7171a8;fill-opacity:1;fill-rule:nonzero;stroke:none"
     d="m 6.7422852,26.741155 v 2.000047 H 17.742284 v -2.000047 c -0.0041,-6.7e-4 0.0045,0 3.01e-4,0 H 6.7541452 c -0.004,0 -0.008,-6.7e-4 -0.0119,0 z"
     id="pressed-top"
     inkscape:connector-curvature="0" />
  <path
     class="ColorScheme-ViewFocus"
     style="color:#3daee9;opacity:0.05;fill:#7171a8;fill-opacity:1;fill-rule:nonzero;stroke:none"
     d="m 4.7425852,28.741202 c -6.7e-4,0.01835 0,0.03439 0,0.05288 v 10.89423 c 0,0.0185 -6.7e-4,0.03453 0,0.05288 h 2 V 28.741187 h -2 z"
     id="pressed-left"
     inkscape:connector-curvature="0" />
  <path
     class="ColorScheme-ViewFocus"
     style="color:#3daee9;opacity:0.05;fill:#7171a8;fill-opacity:1;fill-rule:nonzero"
     d="m 6.7425852,39.741187 v 2 H 17.742585 v -2 z"
     id="pressed-bottom"
     inkscape:connector-curvature="0" />
  <path
     class="ColorScheme-ViewFocus"
     id="pressed-topleft"
     d="m 4.7422522,26.741155 v 2.000047 h 1.999722 v -2.000047 c -7.45e-4,-6.7e-4 8.18e-4,0 5.5e-5,0 h -1.997621 c -7.27e-4,0 -0.0015,-6.7e-4 -0.0022,0 z"
     style="color:#3daee9;opacity:0.05;fill:#7171a8;fill-opacity:1;fill-rule:nonzero;stroke:none"
     inkscape:connector-curvature="0" />
  <path
     class="ColorScheme-ViewFocus"
     style="color:#3daee9;opacity:0.05;fill:#7171a8;fill-opacity:1;fill-rule:nonzero;stroke:none"
     d="m 17.742629,26.741155 v 2.000047 h 1.999722 v -2.000047 c -7.45e-4,-6.7e-4 8.18e-4,0 5.5e-5,0 h -1.997621 c -7.27e-4,0 -0.0015,-6.7e-4 -0.0022,0 z"
     id="pressed-topright"
     inkscape:connector-curvature="0" />
  <path
     class="ColorScheme-ViewFocus"
     id="pressed-bottomright"
     d="m 17.742629,39.74114 v 2.000047 h 1.999722 V 39.74114 c -7.45e-4,-6.7e-4 8.18e-4,0 5.5e-5,0 h -1.997621 c -7.27e-4,0 -0.0015,-6.7e-4 -0.0022,0 z"
     style="color:#3daee9;opacity:0.05;fill:#7171a8;fill-opacity:1;fill-rule:nonzero;stroke:none"
     inkscape:connector-curvature="0" />
  <path
     class="ColorScheme-ViewFocus"
     style="color:#3daee9;opacity:0.05;fill:#7171a8;fill-opacity:1;fill-rule:nonzero;stroke:none"
     d="m 4.7426292,39.74114 v 2.000047 h 1.999722 V 39.74114 c -7.45e-4,-6.7e-4 8.18e-4,0 5.5e-5,0 h -1.997621 c -7.27e-4,0 -0.0015,-6.7e-4 -0.0022,0 z"
     id="pressed-bottomleft"
     inkscape:connector-curvature="0" />
  <path
     class="ColorScheme-ViewBackground"
     style="color:#fcfcfc;opacity:0.05;fill:#7171a8;fill-opacity:1;fill-rule:nonzero;stroke:none"
     d="m 8.7422852,106.74119 v 11 H 19.742284 v -11 z"
     id="section-center"
     inkscape:connector-curvature="0" />
  <path
     class="ColorScheme-ViewBackground"
     style="color:#fcfcfc;opacity:0.05;fill:#7171a8;fill-opacity:1;fill-rule:nonzero;stroke:none"
     d="m 19.742285,106.74119 v 11 h 2 c 6.68e-4,-0.0183 0,-0.0344 0,-0.0529 v -10.89423 c 0,-0.0185 6.68e-4,-0.0345 0,-0.0529 h -2 z"
     id="section-right"
     inkscape:connector-curvature="0" />
  <path
     class="ColorScheme-ViewBackground"
     style="color:#fcfcfc;opacity:0.05;fill:#7171a8;fill-opacity:1;fill-rule:nonzero;stroke:none"
     d="m 8.7422852,104.74114 v 2.00005 H 19.742284 v -2.00005 c -0.0041,-6.7e-4 0.0042,0 10e-7,0 H 8.7541452 c -0.004,0 -0.008,-6.7e-4 -0.0119,0 z"
     id="section-top"
     inkscape:connector-curvature="0" />
  <path
     class="ColorScheme-ViewBackground"
     style="color:#fcfcfc;opacity:0.05;fill:#7171a8;fill-opacity:1;fill-rule:nonzero;stroke:none"
     d="m 6.7425852,106.74119 c -6.7e-4,0.0183 0,0.0344 0,0.0529 v 10.89423 c 0,0.0185 -6.7e-4,0.0345 0,0.0529 h 2 v -11 h -2 z"
     id="section-left"
     inkscape:connector-curvature="0" />
  <path
     class="ColorScheme-ViewBackground"
     style="color:#fcfcfc;opacity:0.05;fill:#7171a8;fill-opacity:1;fill-rule:nonzero;stroke:none"
     d="m 8.7422852,117.74085 v 2 H 19.742285 v -1.99966 z"
     id="section-bottom"
     inkscape:connector-curvature="0" />
  <g
     id="g872"
     style="fill:#7171a8;fill-opacity:1"
     transform="translate(-13.257415,18.741187)">
    <path
       style="color:#fcfcfc;opacity:0.05;fill:#7171a8;fill-opacity:1;fill-rule:nonzero;stroke:none"
       d="M 19.999667,85.999953 V 88 h 1.999771 v -2.000047 c -7.46e-4,-6.7e-4 7.63e-4,0 0,0 h -1.997614 c -7.28e-4,0 -0.0015,-6.7e-4 -0.0022,0 z"
       id="section-topleft"
       class="ColorScheme-ViewBackground"
       inkscape:connector-curvature="0" />
  </g>
  <path
     class="ColorScheme-ViewBackground"
     id="section-topright"
     d="m 19.742292,104.74149 v 1.9997 h 1.999771 v -1.9997 c -7.46e-4,-6.7e-4 7.63e-4,0 0,0 h -1.997614 c -7.28e-4,0 -0.0015,-6.7e-4 -0.0022,0 z"
     style="color:#fcfcfc;opacity:0.05;fill:#7171a8;fill-opacity:1;fill-rule:nonzero;stroke:none"
     inkscape:connector-curvature="0" />
  <path
     class="ColorScheme-ViewBackground"
     style="color:#fcfcfc;opacity:0.05;fill:#7171a8;fill-opacity:1;fill-rule:nonzero;stroke:none"
     d="m 19.742292,117.74114 v 1.99971 h 1.999771 v -1.99971 c -7.46e-4,-6.7e-4 7.63e-4,0 0,0 h -1.997614 c -7.28e-4,0 -0.0015,-6.7e-4 -0.0022,0 z"
     id="section-bottomright"
     inkscape:connector-curvature="0" />
  <path
     class="ColorScheme-ViewBackground"
     id="section-bottomleft"
     d="m 6.7422922,117.74114 v 1.99971 h 1.999771 v -1.99971 c -7.46e-4,-6.7e-4 7.63e-4,0 0,0 h -1.997614 c -7.28e-4,0 -0.0015,-6.7e-4 -0.0022,0 z"
     style="color:#fcfcfc;opacity:0.05;fill:#7171a8;fill-opacity:1;fill-rule:nonzero;stroke:none"
     inkscape:connector-curvature="0" />
  <path
     class="ColorScheme-ViewFocus"
     style="color:#3daee9;opacity:0.05;fill:#7171a8;fill-opacity:1;fill-rule:nonzero;stroke:none"
     d="M 46.742285,26.125345 V 37.12535 H 57.742284 V 26.125345 Z"
     id="hover-center"
     inkscape:connector-curvature="0" />
  <path
     class="ColorScheme-ViewFocus"
     style="color:#3daee9;opacity:0.05;fill:#7171a8;fill-opacity:1;fill-rule:nonzero;stroke:none"
     d="M 57.742285,26.125345 V 37.12535 h 2 c 6.68e-4,-0.01835 0,-0.0344 0,-0.05289 V 26.17823 c 0,-0.0185 6.68e-4,-0.03453 0,-0.05288 h -2 z"
     id="hover-right"
     inkscape:connector-curvature="0" />
  <path
     class="ColorScheme-ViewFocus"
     style="color:#3daee9;opacity:0.05;fill:#7171a8;fill-opacity:1;fill-rule:nonzero;stroke:none"
     d="m 46.742285,24.125298 v 2.000047 h 10.999999 v -2.000047 c -0.0041,-6.7e-4 0.0045,0 3.01e-4,0 h -10.98844 c -0.004,0 -0.008,-6.7e-4 -0.0119,0 z"
     id="hover-top"
     inkscape:connector-curvature="0" />
  <path
     class="ColorScheme-ViewFocus"
     style="color:#3daee9;opacity:0.05;fill:#7171a8;fill-opacity:1;fill-rule:nonzero;stroke:none"
     d="m 44.742585,26.125345 c -6.7e-4,0.01835 0,0.03439 0,0.05288 v 10.89423 c 0,0.0185 -6.7e-4,0.03453 0,0.05288 h 2 V 26.12533 h -2 z"
     id="hover-left"
     inkscape:connector-curvature="0" />
  <path
     class="ColorScheme-ViewFocus"
     style="color:#3daee9;opacity:0.05;fill:#7171a8;fill-opacity:1;fill-rule:nonzero"
     d="m 46.742585,37.12533 v 2 h 11 v -2 z"
     id="hover-bottom"
     inkscape:connector-curvature="0" />
  <path
     class="ColorScheme-ViewFocus"
     id="hover-topleft"
     d="m 44.742252,24.125298 v 2.000047 h 1.999722 v -2.000047 c -7.45e-4,-6.7e-4 8.18e-4,0 5.5e-5,0 h -1.997621 c -7.27e-4,0 -0.0015,-6.7e-4 -0.0022,0 z"
     style="color:#3daee9;opacity:0.05;fill:#7171a8;fill-opacity:1;fill-rule:nonzero;stroke:none"
     inkscape:connector-curvature="0" />
  <path
     class="ColorScheme-ViewFocus"
     style="color:#3daee9;opacity:0.05;fill:#7171a8;fill-opacity:1;fill-rule:nonzero;stroke:none"
     d="m 57.742629,24.125298 v 2.000047 h 1.999722 v -2.000047 c -7.45e-4,-6.7e-4 8.18e-4,0 5.5e-5,0 h -1.997621 c -7.27e-4,0 -0.0015,-6.7e-4 -0.0022,0 z"
     id="hover-topright"
     inkscape:connector-curvature="0" />
  <path
     class="ColorScheme-ViewFocus"
     id="hover-bottomright"
     d="m 57.742629,37.125283 v 2.000047 h 1.999722 v -2.000047 c -7.45e-4,-6.7e-4 8.18e-4,0 5.5e-5,0 h -1.997621 c -7.27e-4,0 -0.0015,-6.7e-4 -0.0022,0 z"
     style="color:#3daee9;opacity:0.05;fill:#7171a8;fill-opacity:1;fill-rule:nonzero;stroke:none"
     inkscape:connector-curvature="0" />
  <path
     class="ColorScheme-ViewFocus"
     style="color:#3daee9;opacity:0.05;fill:#7171a8;fill-opacity:1;fill-rule:nonzero;stroke:none"
     d="m 44.742629,37.125283 v 2.000047 h 1.999722 v -2.000047 c -7.45e-4,-6.7e-4 8.18e-4,0 5.5e-5,0 h -1.997621 c -7.27e-4,0 -0.0015,-6.7e-4 -0.0022,0 z"
     id="hover-bottomleft"
     inkscape:connector-curvature="0" />
  <rect
     style="opacity:0.01;fill:#4e9fac;fill-opacity:1;stroke:none"
     id="hint-stretch-borders"
     width="5"
     height="5"
     x="108.18325"
     y="141.52753" />
</svg>
