<?xml version="1.0" encoding="UTF-8" standalone="no"?>
<svg
   width="22"
   height="22"
   viewBox="0 0 22 22"
   id="svg7925"
   version="1.1"
   inkscape:version="1.1.1 (3bf5ae0d25, 2021-09-20)"
   sodipodi:docname="system-file-manager.svg"
   xmlns:inkscape="http://www.inkscape.org/namespaces/inkscape"
   xmlns:sodipodi="http://sodipodi.sourceforge.net/DTD/sodipodi-0.dtd"
   xmlns:xlink="http://www.w3.org/1999/xlink"
   xmlns="http://www.w3.org/2000/svg"
   xmlns:svg="http://www.w3.org/2000/svg"
   xmlns:rdf="http://www.w3.org/1999/02/22-rdf-syntax-ns#"
   xmlns:cc="http://creativecommons.org/ns#"
   xmlns:dc="http://purl.org/dc/elements/1.1/">
  <defs
     id="defs7927">
    <linearGradient
       inkscape:collect="always"
       id="linearGradient991">
      <stop
         style="stop-color:#00bfbf;stop-opacity:1"
         offset="0"
         id="stop987" />
      <stop
         style="stop-color:#80b3ff;stop-opacity:1"
         offset="1"
         id="stop989" />
    </linearGradient>
    <linearGradient
       id="linearGradient4274"
       inkscape:collect="always">
      <stop
         id="stop4276"
         offset="0"
         style="stop-color:#ffffff;stop-opacity:1;" />
      <stop
         id="stop4278"
         offset="1"
         style="stop-color:#ffffff;stop-opacity:0.48760331" />
    </linearGradient>
    <linearGradient
       inkscape:collect="always"
       xlink:href="#linearGradient4274"
       id="linearGradient8485"
       gradientUnits="userSpaceOnUse"
       gradientTransform="matrix(0.69224711,0,0,0.69224711,-264.27155,1668.4354)"
       x1="390.57144"
       y1="498.298"
       x2="442.57144"
       y2="498.298" />
    <linearGradient
       inkscape:collect="always"
       xlink:href="#linearGradient4274"
       id="linearGradient8603-0"
       gradientUnits="userSpaceOnUse"
       gradientTransform="matrix(0.34616832,0,0,0.34616832,-135.15325,827.3248)"
       x1="390.57144"
       y1="498.298"
       x2="442.57144"
       y2="498.298" />
    <linearGradient
       xlink:href="#linearGradient991"
       id="linearGradient4225-3"
       gradientUnits="userSpaceOnUse"
       x1="396.57101"
       y1="498.798"
       x2="426.57101"
       y2="511.798"
       gradientTransform="matrix(0.32790641,0,0,0.13075777,-125.54963,973.06895)" />
    <linearGradient
       id="linearGradient4227">
      <stop
         offset="0"
         style="stop-color:#f5f5f5;stop-opacity:1"
         id="stop21" />
      <stop
         offset="1"
         style="stop-color:#f9f9f9;stop-opacity:1"
         id="stop23" />
    </linearGradient>
    <linearGradient
       xlink:href="#linearGradient4227"
       id="linearGradient4225-3-3"
       gradientUnits="userSpaceOnUse"
       x1="396.57101"
       y1="498.798"
       x2="426.57101"
       y2="511.798"
       gradientTransform="matrix(0.3230488,0,0,0.14593594,-122.66012,965.55588)" />
  </defs>
  <sodipodi:namedview
     id="base"
     pagecolor="#ffffff"
     bordercolor="#666666"
     borderopacity="1.0"
     inkscape:pageopacity="0.0"
     inkscape:pageshadow="2"
     inkscape:zoom="16.000001"
     inkscape:cx="-9.3749994"
     inkscape:cy="11.062499"
     inkscape:document-units="px"
     inkscape:current-layer="layer1"
     showgrid="true"
     units="px"
     inkscape:snap-bbox="true"
     inkscape:bbox-nodes="true"
     inkscape:object-nodes="true"
     inkscape:document-rotation="0"
     inkscape:window-width="1920"
     inkscape:window-height="1013"
     inkscape:window-x="0"
     inkscape:window-y="0"
     inkscape:window-maximized="1"
     inkscape:pagecheckerboard="0">
    <inkscape:grid
       type="xygrid"
       id="grid8605" />
  </sodipodi:namedview>
  <metadata
     id="metadata7930">
    <rdf:RDF>
      <cc:Work
         rdf:about="">
        <dc:format>image/svg+xml</dc:format>
        <dc:type
           rdf:resource="http://purl.org/dc/dcmitype/StillImage" />
      </cc:Work>
    </rdf:RDF>
  </metadata>
  <g
     inkscape:label="Livello 1"
     inkscape:groupmode="layer"
     id="layer1"
     transform="translate(0,-1030.3622)">
    <path
       style="fill:#8484ac;fill-opacity:1;stroke-width:0.0626478"
       d="m 8.6551393,1034.5138 c -0.257241,2e-4 -0.561724,-0.2161 -0.67702,-0.4803 l -0.517064,-1.1875 c -0.115053,-0.2642 -0.419541,-0.4802 -0.67679,-0.4803 h -5.074121 c -1.02084804,0 -1.70781104,0.6954 -1.70558304,1.7254 v 0 0 L 2.5799094e-7,1048.6292 C -3.4374201e-4,1050.0209 0.34321026,1050.3619 1.7152213,1050.3622 H 20.296786 c 1.688332,3e-4 1.704681,-0.01 1.703157,-1.75 l -0.01081,-12.3714 c -9.91e-4,-1.043 -0.687578,-1.7312 -1.728157,-1.731 z"
       id="path16"
       sodipodi:nodetypes="sccsscccsssssss" />
    <g
       id="g24"
       transform="matrix(0.05837369,0,0,0.06712922,-3.5000867,1024.0382)">
      <path
         style="fill:#efefef;fill-opacity:1"
         d="m 179.58,131.156 8.844,17.688 c 1.968,3.936 4.8248,7.156 9.2248,7.156 H 208 c -4.4,0 -9.608,-3.22 -11.58,-7.156 l -8.844,-17.688 c -1.968,-3.936 -7.17873,-7.15601 -11.57873,-7.15601 L 168,124 c 4.4,0 9.608,3.22 11.58,7.156 z"
         id="path18"
         sodipodi:nodetypes="cssccsscc" />
      <rect
         x="75.888275"
         y="176.05383"
         style="fill:#263740;fill-opacity:1;stroke-width:0.991651"
         width="345.64072"
         height="205.93738"
         id="rect22"
         ry="10.823075" />
    </g>
    <rect
       x="1.0811522"
       y="1035.9967"
       style="fill:#9494b7;fill-opacity:1;stroke-width:0.0628135"
       width="19.872076"
       height="13.500991"
       id="rect26"
       ry="0.57682979" />
    <rect
       x="1.5613043"
       y="1036.583"
       style="fill:#ffffff;stroke-width:0.0625987"
       width="18.913103"
       height="12.351775"
       id="rect28"
       ry="0.41517124" />
    <g
       id="g36"
       transform="matrix(0.05837369,0,0,0.06712922,-3.7765487,1023.6577)">
      <polygon
         style="fill:#aaccff"
         points="100,272 168,204 172,204 172,276 100,276 "
         id="polygon34"
         transform="translate(-8.8452971)" />
    </g>
    <polygon
       style="fill:#2a7fff"
       points="100,272 168,204 168,272 "
       id="polygon38"
       transform="matrix(0.05837369,0,0,0.06712922,-4.2585617,1023.6577)" />
    <path
       style="opacity:0.7;fill:#8484ac;fill-opacity:1;stroke-width:0.0628072"
       d="m 4.9549323,1037.3787 -4.028228,4.4522 v 7.2071 c 0.01658,0.4616 0.365173,0.6261 0.630584,0.6497 l 18.7945887,0.013 c 0.722664,0 0.743439,-0.6443 0.743439,-0.6443 v -11.6778 z"
       id="path30-3"
       sodipodi:nodetypes="ccccsccc" />
  </g>
</svg>
