<?xml version="1.0" encoding="UTF-8" standalone="no"?>
<svg
   viewBox="0 0 16 16"
   version="1.1"
   id="svg6"
   sodipodi:docname="office-chart-pie.svg"
   inkscape:version="1.1.1 (3bf5ae0d25, 2021-09-20)"
   xmlns:inkscape="http://www.inkscape.org/namespaces/inkscape"
   xmlns:sodipodi="http://sodipodi.sourceforge.net/DTD/sodipodi-0.dtd"
   xmlns:xlink="http://www.w3.org/1999/xlink"
   xmlns="http://www.w3.org/2000/svg"
   xmlns:svg="http://www.w3.org/2000/svg"
   xmlns:rdf="http://www.w3.org/1999/02/22-rdf-syntax-ns#"
   xmlns:cc="http://creativecommons.org/ns#"
   xmlns:dc="http://purl.org/dc/elements/1.1/">
  <metadata
     id="metadata10">
    <rdf:RDF>
      <cc:Work
         rdf:about="">
        <dc:format>image/svg+xml</dc:format>
        <dc:type
           rdf:resource="http://purl.org/dc/dcmitype/StillImage" />
      </cc:Work>
    </rdf:RDF>
  </metadata>
  <sodipodi:namedview
     pagecolor="#ffffff"
     bordercolor="#666666"
     borderopacity="1"
     objecttolerance="10"
     gridtolerance="10"
     guidetolerance="10"
     inkscape:pageopacity="0"
     inkscape:pageshadow="2"
     inkscape:window-width="1920"
     inkscape:window-height="1007"
     id="namedview8"
     showgrid="true"
     inkscape:zoom="20.85965"
     inkscape:cx="7.4306136"
     inkscape:cy="9.6837675"
     inkscape:window-x="0"
     inkscape:window-y="0"
     inkscape:window-maximized="1"
     inkscape:current-layer="svg6"
     inkscape:document-rotation="0"
     inkscape:pagecheckerboard="0">
    <inkscape:grid
       type="xygrid"
       id="grid865" />
  </sodipodi:namedview>
  <defs
     id="defs3051">
    <linearGradient
       inkscape:collect="always"
       id="linearGradient1268">
      <stop
         style="stop-color:#2ad4ff;stop-opacity:1"
         offset="0"
         id="stop1264" />
      <stop
         style="stop-color:#2a7fff;stop-opacity:1"
         offset="1"
         id="stop1266" />
    </linearGradient>
    <style
       type="text/css"
       id="current-color-scheme">
      .ColorScheme-Text {
        color:#eff0f1;
      }
      </style>
    <linearGradient
       inkscape:collect="always"
       xlink:href="#linearGradient1268"
       id="linearGradient1270"
       x1="0"
       y1="26"
       x2="52"
       y2="26"
       gradientUnits="userSpaceOnUse" />
  </defs>
  <g
     data-name="Pie chart"
     id="g8"
     transform="matrix(0,0.23333283,-0.23333283,0,15.508722,0.61208959)" />
  <g
     id="Zoom_1_"
     transform="matrix(0.23076923,0,0,0.23076923,2,2)">
    <path
       id="Zoom"
       class="st0"
       d="m 49.1,37.8 v 0 C 51,34.3 52,30.3 52,26 52,11.6 40.4,0 26,0 11.6,0 0,11.6 0,26 0,40.4 11.6,52 26,52 34.6,52 42.2,47.8 47,41.3 v 0 0 0 0 z M 26,44 C 16.1,44 8,35.9 8,26 8,16.1 16.1,8 26,8 c 9.9,0 18,8.1 18,18 0,9.9 -8.1,18 -18,18 z"
       sodipodi:nodetypes="ccssssccccccsssss"
       style="fill-opacity:1;fill:url(#linearGradient1270)" />
    <path
       id="Zoom-s"
       class="st1"
       d="M 47,41.3 Z M 16.1,16.1 Z M 47,41.3 c 3.6,-4.9 5.4,-11 4.9,-17.1 C 51.5,17.9 48.8,12 44.3,7.6 l -2.8,2.8 c 4,4 6.4,9.5 6.4,15.6 0,4.6 -1.4,8.9 -3.9,12.5 z"
       sodipodi:nodetypes="ccccccccccccccccsccc"
       style="fill:#eff0f1;fill-opacity:1" />
  </g>
  <path
     d="m 7.7914345,3.8439419 -0.022204,0.00221 v 0 V 8 c 8.307e-4,-0.073938 0,0.4615385 0,0.4615385 h 4.3615385 v 0 c 0.02308,-0.2307693 0.02308,-0.923077 0.02308,-0.923077 0.02506,-0.7678507 -0.573081,-2.1613421 -1.846154,-3 C 9.6461875,4.102684 8.8024527,3.8167102 7.7692308,3.8461538 Z"
     id="path2"
     style="fill:#eff0f1;fill-opacity:1;stroke-width:0.0463345"
     sodipodi:nodetypes="scccccccscs" />
</svg>
