<?xml version="1.0" encoding="UTF-8" standalone="no"?>
<svg
   viewBox="0 0 16 16"
   version="1.1"
   id="svg6"
   sodipodi:docname="geany-close-all.svg"
   inkscape:version="1.1.1 (3bf5ae0d25, 2021-09-20)"
   xmlns:inkscape="http://www.inkscape.org/namespaces/inkscape"
   xmlns:sodipodi="http://sodipodi.sourceforge.net/DTD/sodipodi-0.dtd"
   xmlns="http://www.w3.org/2000/svg"
   xmlns:svg="http://www.w3.org/2000/svg"
   xmlns:rdf="http://www.w3.org/1999/02/22-rdf-syntax-ns#"
   xmlns:cc="http://creativecommons.org/ns#"
   xmlns:dc="http://purl.org/dc/elements/1.1/">
  <metadata
     id="metadata10">
    <rdf:RDF>
      <cc:Work
         rdf:about="">
        <dc:format>image/svg+xml</dc:format>
        <dc:type
           rdf:resource="http://purl.org/dc/dcmitype/StillImage" />
      </cc:Work>
    </rdf:RDF>
  </metadata>
  <sodipodi:namedview
     pagecolor="#ffffff"
     bordercolor="#666666"
     borderopacity="1"
     objecttolerance="10"
     gridtolerance="10"
     guidetolerance="10"
     inkscape:pageopacity="0"
     inkscape:pageshadow="2"
     inkscape:window-width="1920"
     inkscape:window-height="1013"
     id="namedview8"
     showgrid="true"
     inkscape:zoom="39.25"
     inkscape:cx="8"
     inkscape:cy="8"
     inkscape:window-x="0"
     inkscape:window-y="0"
     inkscape:window-maximized="1"
     inkscape:current-layer="svg6"
     inkscape:pagecheckerboard="0">
    <inkscape:grid
       type="xygrid"
       id="grid922" />
  </sodipodi:namedview>
  <defs
     id="defs3051">
    <style
       type="text/css"
       id="current-color-scheme">
      .ColorScheme-Text {
        color:#eff0f1;
      }
      .ColorScheme-NegativeText {
        color:#da4453;
      }
      </style>
  </defs>
  <path
     style="color:#dfdfdf;fill:currentColor;stroke-width:0.999022"
     class="ColorScheme-Text"
     d="M 11.000489,4 A 0.99951526,0.99878064 0 0 0 10.2938,4.292612 L 8.0019446,6.5827851 5.7198514,4.3023643 a 0.99951526,0.99878064 0 0 0 -0.00977,-0.00976 0.99951526,0.99878064 0 0 0 -0.7008298,-0.2887071 l -0.00974,0.013654 A 0.99951526,0.99878064 0 0 0 4,5.0163382 0.99951526,0.99878064 0 0 0 4.2928296,5.7225079 L 6.5846786,8.0126811 4.2928296,10.30285 A 0.99951526,0.99878064 0 0 0 4.003908,11.001224 0.99951526,0.99878064 0 0 0 5.0034197,12 0.99951526,0.99878064 0 0 0 5.7101037,11.707395 L 8.001953,9.4172162 10.284042,11.69764 A 0.99951526,0.99878064 0 0 0 11.000483,12 0.99951526,0.99878064 0 0 0 11.999995,11.001224 0.99951526,0.99878064 0 0 0 11.707164,10.295052 L 9.4075119,7.9990253 11.689607,5.7186051 A 0.99951526,0.99878064 0 0 0 12.000001,4.9987804 0.99951526,0.99878064 0 0 0 11.000489,4 Z"
     id="path5" />
</svg>
