<?xml version="1.0" encoding="UTF-8" standalone="no"?>
<svg
   viewBox="0 0 16 16"
   version="1.1"
   id="svg6"
   sodipodi:docname="kontes_close.svg"
   inkscape:version="1.1.1 (3bf5ae0d25, 2021-09-20)"
   xmlns:inkscape="http://www.inkscape.org/namespaces/inkscape"
   xmlns:sodipodi="http://sodipodi.sourceforge.net/DTD/sodipodi-0.dtd"
   xmlns="http://www.w3.org/2000/svg"
   xmlns:svg="http://www.w3.org/2000/svg"
   xmlns:rdf="http://www.w3.org/1999/02/22-rdf-syntax-ns#"
   xmlns:cc="http://creativecommons.org/ns#"
   xmlns:dc="http://purl.org/dc/elements/1.1/">
  <metadata
     id="metadata10">
    <rdf:RDF>
      <cc:Work
         rdf:about="">
        <dc:format>image/svg+xml</dc:format>
        <dc:type
           rdf:resource="http://purl.org/dc/dcmitype/StillImage" />
      </cc:Work>
    </rdf:RDF>
  </metadata>
  <sodipodi:namedview
     pagecolor="#ffffff"
     bordercolor="#666666"
     borderopacity="1"
     objecttolerance="10"
     gridtolerance="10"
     guidetolerance="10"
     inkscape:pageopacity="0"
     inkscape:pageshadow="2"
     inkscape:window-width="1920"
     inkscape:window-height="1013"
     id="namedview8"
     showgrid="false"
     inkscape:zoom="39.25"
     inkscape:cx="3.8980892"
     inkscape:cy="8"
     inkscape:window-x="0"
     inkscape:window-y="0"
     inkscape:window-maximized="1"
     inkscape:current-layer="svg6"
     inkscape:pagecheckerboard="0" />
  <defs
     id="defs3051">
    <style
       type="text/css"
       id="current-color-scheme">
      .ColorScheme-Text {
        color:#eff0f1;
      }
      .ColorScheme-NegativeText {
        color:#da4453;
      }
      </style>
  </defs>
  <path
     style="color:#dfdfdf;fill:currentColor;stroke-width:0.999052"
     class="ColorScheme-Text"
     d="M 11.000492,4 A 0.99951467,0.99878094 0 0 0 10.2938,4.292612 L 8.001948,6.5827848 5.7198539,4.3023647 A 0.99951467,0.99878094 0 0 0 5.710086,4.2926067 0.99951467,0.99878094 0 0 0 5.009255,4.0038964 l -0.00974,0.013654 A 0.99951467,0.99878094 0 0 0 4,5.0163381 0.99951467,0.99878094 0 0 0 4.2928299,5.7225071 L 6.5846784,8.0126805 4.2928299,10.302853 A 0.99951467,0.99878094 0 0 0 4.003908,11.00122 0.99951467,0.99878094 0 0 0 5.003419,12 0.99951467,0.99878094 0 0 0 5.710103,11.70739 L 8.0019525,9.4172162 10.284044,11.697636 A 0.99951467,0.99878094 0 0 0 11.000482,12 0.99951467,0.99878094 0 0 0 11.999994,11.00122 0.99951467,0.99878094 0 0 0 11.707168,10.295052 L 9.4075149,7.9990248 11.689611,5.7186054 A 0.99951467,0.99878094 0 0 0 12.000005,4.9987807 0.99951467,0.99878094 0 0 0 11.000492,4 Z"
     id="path5" />
</svg>
