<?xml version="1.0" encoding="UTF-8" standalone="no"?>
<svg
   inkscape:version="1.3.2 (091e20ef0f, 2023-11-25)"
   sodipodi:docname="alldesktops.svg"
   style="enable-background:new"
   version="1.1"
   height="22"
   width="22"
   id="svg4306"
   xmlns:inkscape="http://www.inkscape.org/namespaces/inkscape"
   xmlns:sodipodi="http://sodipodi.sourceforge.net/DTD/sodipodi-0.dtd"
   xmlns="http://www.w3.org/2000/svg"
   xmlns:svg="http://www.w3.org/2000/svg"
   xmlns:rdf="http://www.w3.org/1999/02/22-rdf-syntax-ns#"
   xmlns:cc="http://creativecommons.org/ns#"
   xmlns:dc="http://purl.org/dc/elements/1.1/">
  <metadata
     id="metadata28">
    <rdf:RDF>
      <cc:Work
         rdf:about="">
        <dc:format>image/svg+xml</dc:format>
        <dc:type
           rdf:resource="http://purl.org/dc/dcmitype/StillImage" />
      </cc:Work>
    </rdf:RDF>
  </metadata>
  <defs
     id="defs26" />
  <sodipodi:namedview
     inkscape:bbox-nodes="true"
     inkscape:snap-bbox="true"
     inkscape:current-layer="svg4306"
     inkscape:window-maximized="1"
     inkscape:window-y="0"
     inkscape:window-x="50"
     inkscape:cy="17.249999"
     inkscape:cx="50.124997"
     inkscape:zoom="8.0000004"
     showgrid="false"
     id="namedview24"
     inkscape:window-height="994"
     inkscape:window-width="1870"
     inkscape:pageshadow="2"
     inkscape:pageopacity="0"
     guidetolerance="10"
     gridtolerance="10"
     objecttolerance="10"
     borderopacity="1"
     bordercolor="#666666"
     pagecolor="#ffffff"
     inkscape:document-rotation="0"
     inkscape:snap-intersection-paths="true"
     inkscape:lockguides="false"
     showguides="true"
     inkscape:pagecheckerboard="0"
     inkscape:showpageshadow="2"
     inkscape:deskcolor="#d1d1d1">
    <inkscape:grid
       id="grid853"
       type="xygrid"
       originx="0"
       originy="0"
       spacingy="1"
       spacingx="1"
       units="px"
       visible="false" />
  </sodipodi:namedview>
  <style
     id="current-color-scheme"
     type="text/css">
        .ColorScheme-Text {
            color:#232629;
        }
        .ColorScheme-ButtonFocus{
            color:#3daee9;
        }
            .ColorScheme-NegativeText {
            color:#da4453;
        }
    </style>
  <g
     id="pressed-center"
     transform="translate(44,22)">
    <rect
       style="opacity:0.00100002;fill:#000000;fill-opacity:1;fill-rule:nonzero;stroke:none;stroke-width:2;stroke-linecap:round;stroke-linejoin:round;stroke-miterlimit:4;stroke-dasharray:none;stroke-opacity:1"
       y="0"
       x="-22"
       height="22"
       width="22"
       id="rect4266-6"
       transform="scale(-1)" />
    <rect
       width="18.73226"
       height="16.732256"
       rx="2.4976349"
       ry="2.5741944"
       x="1.63387"
       y="-19.366131"
       id="rect3000-9-3-3-6"
       style="color:#000000;display:inline;overflow:visible;visibility:visible;fill:#00d4aa;fill-opacity:1;stroke:#000405;stroke-width:1.26774;stroke-opacity:1;marker:none;enable-background:accumulate" />
    <path
       d="M 15.000005,-11.000002 C 15.000005,-8.791021 13.208983,-7 11.000002,-7 8.791021,-7 7,-8.791021 7,-11.000002 c 0,-2.208981 1.791021,-4.000002 4.000002,-4.000002 2.208981,0 4.000003,1.791021 4.000003,4.000002 z"
       id="path4-3-7"
       style="fill:#ffffff;stroke-width:0.00816327;enable-background:new;fill-opacity:1" />
  </g>
  <g
     id="pressed-inactive-center"
     transform="translate(44,22)">
    <rect
       transform="scale(-1)"
       id="rect4266-6-3"
       width="22"
       height="22"
       x="-22"
       y="-22"
       style="opacity:0.00100002;fill:#000000;fill-opacity:1;fill-rule:nonzero;stroke:none;stroke-width:2;stroke-linecap:round;stroke-linejoin:round;stroke-miterlimit:4;stroke-dasharray:none;stroke-opacity:1" />
    <rect
       width="18.73226"
       height="16.732256"
       rx="2.4976349"
       ry="2.5741944"
       x="1.63387"
       y="2.6338701"
       id="rect3000-9-3-3-6-5"
       style="color:#000000;display:inline;overflow:visible;visibility:visible;fill:#00d4aa;fill-opacity:0.5;stroke:#000405;stroke-width:1.26774;stroke-opacity:1;marker:none;enable-background:accumulate" />
    <path
       d="m 15,11 c 0,2.208981 -1.791022,4.000002 -4.000003,4.000002 -2.208981,0 -4.000002,-1.791021 -4.000002,-4.000002 0,-2.208981 1.791021,-4.000002 4.000002,-4.000002 C 13.208978,6.999998 15,8.791019 15,11 Z"
       id="path4-3-7-3"
       style="fill:#000000;stroke-width:0.00816327;enable-background:new" />
  </g>
  <g
     id="hover-center"
     transform="translate(22)">
    <rect
       transform="scale(-1)"
       id="rect4266-6-6"
       width="22"
       height="22"
       x="-22"
       y="-22"
       style="opacity:0.00100002;fill:#000000;fill-opacity:1;fill-rule:nonzero;stroke:none;stroke-width:2;stroke-linecap:round;stroke-linejoin:round;stroke-miterlimit:4;stroke-dasharray:none;stroke-opacity:1" />
    <rect
       width="18.73226"
       height="16.732256"
       rx="2.4976349"
       ry="2.5741944"
       x="1.63387"
       y="2.6338701"
       id="rect3000-9-3-36"
       style="color:#000000;display:inline;overflow:visible;visibility:visible;fill:#9191bb;fill-opacity:1;stroke:#30304f;stroke-width:1.26774;stroke-opacity:1;marker:none;enable-background:accumulate" />
    <path
       d="M 16.789999,16.057035 H 5.0899996 c -0.3588,0 -0.65,-0.236775 -0.65,-0.528517 0,-0.291742 0.2912,-0.528517 0.65,-0.528517 H 16.789999 c 0.3588,0 0.65,0.236775 0.65,0.528517 0,0.291742 -0.2912,0.528517 -0.65,0.528517 z"
       id="path2-7-7"
       style="fill:#ffffff;fill-opacity:1;stroke-width:0.29306;enable-background:new" />
    <path
       d="M 16.789999,7.0000008 H 5.0899996 c -0.3588,0 -0.65,-0.236775 -0.65,-0.528517 0,-0.291742 0.2912,-0.528517 0.65,-0.528517 H 16.789999 c 0.3588,0 0.65,0.236775 0.65,0.528517 0,0.291742 -0.2912,0.528517 -0.65,0.528517 z"
       id="path2-7-3-5"
       style="fill:#ffffff;fill-opacity:1;stroke-width:0.29306;enable-background:new" />
    <path
       d="m 14.8675,11.457035 h -7.785 c -0.2387402,0 -0.4325,-0.236775 -0.4325,-0.528517 0,-0.291742 0.1937598,-0.528517 0.4325,-0.528517 h 7.785 c 0.23874,0 0.4325,0.236775 0.4325,0.528517 0,0.291742 -0.19376,0.528517 -0.4325,0.528517 z"
       id="path2-7-6-3"
       style="fill:#ffffff;fill-opacity:1;stroke-width:0.293;enable-background:new;stroke-miterlimit:4;stroke-dasharray:none" />
  </g>
  <g
     id="inactive-center"
     transform="translate(22)">
    <rect
       style="opacity:0.00100002;fill:#000000;fill-opacity:1;fill-rule:nonzero;stroke:none;stroke-width:2;stroke-linecap:round;stroke-linejoin:round;stroke-miterlimit:4;stroke-dasharray:none;stroke-opacity:1"
       y="-44"
       x="0"
       height="22"
       width="22"
       id="rect4266-8"
       transform="scale(-1)" />
    <rect
       width="18.73226"
       height="16.732256"
       rx="2.4976349"
       ry="2.5741944"
       x="-20.15613"
       y="24.633869"
       id="rect3000-9-3-5"
       style="color:#000000;display:inline;overflow:visible;visibility:visible;fill:none;fill-opacity:0.01176471;stroke:#000405;stroke-width:1.26774;stroke-opacity:1;marker:none;enable-background:accumulate" />
    <path
       d="m -5,38.057034 h -11.7 c -0.3588,0 -0.65,-0.236775 -0.65,-0.528517 C -17.35,37.236775 -17.0588,37 -16.7,37 H -5 c 0.3588,0 0.65,0.236775 0.65,0.528517 0,0.291742 -0.2912,0.528517 -0.65,0.528517 z"
       id="path2-7-62"
       style="fill:#7171a7;fill-opacity:1;stroke-width:0.293;enable-background:new;stroke-miterlimit:4;stroke-dasharray:none;opacity:0.6" />
    <path
       d="m -5,29 h -11.7 c -0.3588,0 -0.65,-0.236775 -0.65,-0.528517 0,-0.291742 0.2912,-0.528517 0.65,-0.528517 H -5 c 0.3588,0 0.65,0.236775 0.65,0.528517 C -4.35,28.763225 -4.6412,29 -5,29 Z"
       id="path2-7-3-9"
       style="fill:#7171a7;fill-opacity:1;stroke-width:0.29306;enable-background:new;opacity:0.6" />
    <path
       d="m -7.0325,33.457034 h -7.785 c -0.23874,0 -0.4325,-0.236775 -0.4325,-0.528517 0,-0.291742 0.19376,-0.528517 0.4325,-0.528517 h 7.785 c 0.2387402,0 0.4325,0.236775 0.4325,0.528517 0,0.291742 -0.1937598,0.528517 -0.4325,0.528517 z"
       id="path2-7-6-1"
       style="fill:#7171a7;fill-opacity:1;stroke-width:0.293;enable-background:new;stroke-miterlimit:4;stroke-dasharray:none;opacity:0.6" />
  </g>
  <g
     id="hover-inactive-center"
     transform="translate(22)">
    <rect
       style="opacity:0.00100002;fill:#000000;fill-opacity:1;fill-rule:nonzero;stroke:none;stroke-width:2;stroke-linecap:round;stroke-linejoin:round;stroke-miterlimit:4;stroke-dasharray:none;stroke-opacity:1"
       y="-44"
       x="-22"
       height="22"
       width="22"
       id="rect4266-6-6-6"
       transform="scale(-1)" />
    <rect
       width="18.73226"
       height="16.732256"
       rx="2.4976349"
       ry="2.5741944"
       x="1.63387"
       y="24.633869"
       id="rect3000-9-3-2"
       style="color:#000000;display:inline;overflow:visible;visibility:visible;fill:#9191bb;fill-opacity:1;stroke:#000405;stroke-width:1.26774;stroke-opacity:1;marker:none;enable-background:accumulate" />
    <path
       d="M 16.79,38.057035 H 5.09 c -0.3588,0 -0.65,-0.236775 -0.65,-0.528517 0,-0.291742 0.2912,-0.528517 0.65,-0.528517 h 11.7 c 0.3588,0 0.65,0.236775 0.65,0.528517 0,0.291742 -0.2912,0.528517 -0.65,0.528517 z"
       id="path2-7-70"
       style="fill:#ffffff;fill-opacity:1;stroke-width:0.29306;enable-background:new" />
    <path
       d="M 16.79,29.000001 H 5.09 c -0.3588,0 -0.65,-0.236775 -0.65,-0.528517 0,-0.291742 0.2912,-0.528517 0.65,-0.528517 h 11.7 c 0.3588,0 0.65,0.236775 0.65,0.528517 0,0.291742 -0.2912,0.528517 -0.65,0.528517 z"
       id="path2-7-3-93"
       style="fill:#ffffff;fill-opacity:1;stroke-width:0.29306;enable-background:new" />
    <path
       d="m 14.8675,33.457035 h -7.785 c -0.2387402,0 -0.4325,-0.236775 -0.4325,-0.528517 0,-0.291742 0.1937598,-0.528517 0.4325,-0.528517 h 7.785 c 0.23874,0 0.4325,0.236775 0.4325,0.528517 0,0.291742 -0.19376,0.528517 -0.4325,0.528517 z"
       id="path2-7-6-6"
       style="fill:#ffffff;fill-opacity:1;stroke-width:0.293;enable-background:new;stroke-miterlimit:4;stroke-dasharray:none" />
  </g>
  <g
     id="active-center"
     transform="translate(22)"
     style="fill:#ffffff;fill-opacity:1">
    <rect
       transform="scale(-1)"
       id="rect4266"
       width="22"
       height="22"
       x="0"
       y="-22"
       style="opacity:0.00100002;fill:#ffffff;fill-opacity:1;fill-rule:nonzero;stroke:none;stroke-width:2;stroke-linecap:round;stroke-linejoin:round;stroke-miterlimit:4;stroke-dasharray:none;stroke-opacity:1" />
    <rect
       width="18.73226"
       height="16.732256"
       rx="2.4976349"
       ry="2.5741944"
       x="-20.306129"
       y="2.6338692"
       id="rect3000-9-3"
       style="color:#000000;display:inline;overflow:visible;visibility:visible;fill:none;fill-opacity:0.01;stroke:#31314f;stroke-width:1.26774;stroke-opacity:1;marker:none;enable-background:accumulate" />
    <path
       d="m -5.15,16.057034 h -11.7 c -0.3588,0 -0.65,-0.236775 -0.65,-0.528517 C -17.5,15.236775 -17.2088,15 -16.85,15 h 11.7 c 0.3588,0 0.65,0.236775 0.65,0.528517 0,0.291742 -0.2912,0.528517 -0.65,0.528517 z"
       id="path2-7"
       style="fill:#00d4aa;fill-opacity:1;stroke-width:0.29306;enable-background:new" />
    <path
       d="m -5.15,7 h -11.7 c -0.3588,0 -0.65,-0.236775 -0.65,-0.528517 0,-0.291742 0.2912,-0.528517 0.65,-0.528517 h 11.7 c 0.3588,0 0.65,0.236775 0.65,0.528517 C -4.5,6.763225 -4.7912,7 -5.15,7 Z"
       id="path2-7-3"
       style="fill:#00d4aa;fill-opacity:1;stroke-width:0.293;enable-background:new;stroke-miterlimit:4;stroke-dasharray:none" />
    <path
       d="m -7.0325,11.457034 h -7.785 c -0.23874,0 -0.4325,-0.236775 -0.4325,-0.528517 0,-0.291742 0.19376,-0.528517 0.4325,-0.528517 h 7.785 c 0.23874,0 0.4325,0.236775 0.4325,0.528517 0,0.291742 -0.19376,0.528517 -0.4325,0.528517 z"
       id="path2-7-36"
       style="fill:#00d4aa;fill-opacity:1;stroke-width:0.293;enable-background:new;stroke-miterlimit:4;stroke-dasharray:none" />
  </g>
</svg>
