<?xml version="1.0" encoding="UTF-8" standalone="no"?>
<svg
   width="64"
   version="1.1"
   height="64"
   id="svg15"
   sodipodi:docname="folder-Reddit.svg"
   inkscape:version="1.1.1 (3bf5ae0d25, 2021-09-20)"
   xmlns:inkscape="http://www.inkscape.org/namespaces/inkscape"
   xmlns:sodipodi="http://sodipodi.sourceforge.net/DTD/sodipodi-0.dtd"
   xmlns="http://www.w3.org/2000/svg"
   xmlns:svg="http://www.w3.org/2000/svg"
   xmlns:rdf="http://www.w3.org/1999/02/22-rdf-syntax-ns#"
   xmlns:cc="http://creativecommons.org/ns#"
   xmlns:dc="http://purl.org/dc/elements/1.1/">
  <sodipodi:namedview
     pagecolor="#ffffff"
     bordercolor="#666666"
     borderopacity="1"
     objecttolerance="10"
     gridtolerance="10"
     guidetolerance="10"
     inkscape:pageopacity="0"
     inkscape:pageshadow="2"
     inkscape:window-width="1920"
     inkscape:window-height="1013"
     id="namedview17"
     showgrid="true"
     inkscape:zoom="9.8125"
     inkscape:cx="31.388535"
     inkscape:cy="39.43949"
     inkscape:window-x="0"
     inkscape:window-y="0"
     inkscape:window-maximized="1"
     inkscape:current-layer="layer1"
     inkscape:document-rotation="0"
     inkscape:pagecheckerboard="0">
    <inkscape:grid
       type="xygrid"
       id="grid940" />
  </sodipodi:namedview>
  <defs
     id="defs5455" />
  <metadata
     id="metadata5458">
    <rdf:RDF>
      <cc:Work
         rdf:about="">
        <dc:format>image/svg+xml</dc:format>
        <dc:type
           rdf:resource="http://purl.org/dc/dcmitype/StillImage" />
      </cc:Work>
    </rdf:RDF>
  </metadata>
  <g
     inkscape:label="Capa 1"
     inkscape:groupmode="layer"
     id="layer1"
     transform="translate(-384.57143,-483.798)">
    <path
       style="fill:#8484ac;fill-opacity:1;stroke-width:0.181749"
       d="m 409.78927,496.01328 c -0.74951,1.6e-4 -1.63666,-0.62441 -1.97259,-1.38766 l -1.50654,-3.42996 c -0.33522,-0.76325 -1.22239,-1.38715 -1.97192,-1.38766 l -14.78414,-0.01 c -2.97438,-0.002 -4.97594,2.00879 -4.96945,4.98427 v 0 0 l -0.0132,41.9958 c -0.001,4.01994 0.99999,5.00499 4.99753,5.00602 l 54.13992,0.0139 c 4.91919,10e-4 4.96682,-0.0209 4.96238,-5.05526 l -0.0315,-35.73667 c -0.003,-3.01292 -2.00335,-5.00069 -5.03522,-5.00004 z"
       id="path16"
       sodipodi:nodetypes="sccsscccsssssss" />
    <g
       id="g24"
       transform="matrix(0.17007976,0,0,0.19391466,374.37336,465.75259)">
      <path
         style="fill:#efefef;fill-opacity:1"
         d="m 179.58,131.156 8.844,17.688 c 1.968,3.936 4.8248,7.156 9.2248,7.156 H 208 c -4.4,0 -9.608,-3.22 -11.58,-7.156 l -8.844,-17.688 c -1.968,-3.936 -7.17873,-7.15601 -11.57873,-7.15601 L 168,124 c 4.4,0 9.608,3.22 11.58,7.156 z"
         id="path18"
         sodipodi:nodetypes="cssccsscc" />
      <rect
         x="75.888275"
         y="176.05383"
         style="fill:#263740;fill-opacity:1;stroke-width:0.991651"
         width="345.64072"
         height="205.93738"
         id="rect22"
         ry="10.823075" />
    </g>
    <rect
       x="387.72147"
       y="500.298"
       style="fill:#9494b7;fill-opacity:1;stroke-width:0.18223"
       width="57.900002"
       height="39"
       id="rect26"
       ry="1.6662751" />
    <rect
       x="389.12045"
       y="501.991"
       style="fill:#ffffff;stroke-width:0.181607"
       width="55.1059"
       height="35.680298"
       id="rect28"
       ry="1.1992956" />
    <g
       id="g36"
       transform="matrix(0.17007976,0,0,0.19391466,373.56785,464.65328)">
      <polygon
         style="fill:#aaccff"
         points="100,276 100,272 168,204 172,204 172,276 "
         id="polygon34"
         transform="translate(-8.8452971)" />
    </g>
    <polygon
       style="fill:#2a7fff"
       points="168,204 168,272 100,272 "
       id="polygon38"
       transform="matrix(0.17007976,0,0,0.19391466,372.16344,464.65328)" />
    <path
       style="opacity:0.7;fill:#8484ac;stroke-width:0.182212;fill-opacity:1"
       d="m 399.00821,504.28906 -11.73679,12.86095 v 20.81904 c 0.0483,1.33341 1.06398,1.80853 1.83729,1.87677 l 54.7606,0.0379 c 2.10558,10e-4 2.16611,-1.86142 2.16611,-1.86142 v -33.73329 z"
       id="path30-3"
       sodipodi:nodetypes="ccccsccc" />
    <path
       class="st1"
       d="m 429.57073,513.29931 c -5.81216,0 -10.49939,4.68723 -10.49939,10.49939 0,5.81216 4.68723,10.49938 10.49939,10.49938 5.81216,0 10.49939,-4.68722 10.49939,-10.49938 h 0.74995 c 0,4.34974 -1.5749,8.17452 -5.0622,10.2744 -1.7999,1.08744 -3.93727,1.7249 -6.18714,1.7249 -6.63711,0 -11.9993,-5.36219 -11.9993,-11.9993 0,-4.49974 2.51235,-8.43701 6.18714,-10.49939 1.7249,-0.93745 3.71228,-0.74996 5.81216,-0.74996 z"
       id="path6-7"
       sodipodi:nodetypes="csscccssccc"
       style="clip-rule:evenodd;fill:#f0f0f0;fill-opacity:1;fill-rule:evenodd;stroke-width:0.374978" />
    <path
       class="st2"
       d="m 423.57108,513.4118 c 2.73734,-1.6124 6.03715,-2.02488 9.11197,-1.19993 3.07482,0.82496 5.69967,2.84984 7.27457,5.58718 1.57491,2.73734 2.02489,6.03715 1.19993,9.11197 -0.82495,3.07482 -2.84983,5.69966 -5.58717,7.27457 l -0.74996,-1.31242 c 2.39986,-1.38742 4.16226,-3.67479 4.87472,-6.37463 0.71246,-2.69984 0.37498,-5.54968 -1.04994,-7.94954 -1.38742,-2.39986 -3.67479,-4.16225 -6.37463,-4.87471 -2.66234,-0.74996 -5.54967,-0.37498 -7.94953,1.04994 z"
       id="path8-5"
       style="clip-rule:evenodd;fill:#263740;fill-opacity:1;fill-rule:evenodd;stroke-width:0.374978" />
    <path
       class="st3"
       d="m 426.6834,528.18594 c 0.18749,-0.26248 0.52497,-0.33748 0.78745,-0.14999 0.48747,0.33748 1.16243,0.63746 2.13738,0.63746 0.97494,0 1.6124,-0.33748 2.13737,-0.63746 0.26249,-0.18749 0.59997,-0.11249 0.78746,0.14999 0.18749,0.26249 0.11249,0.59997 -0.14999,0.78746 -0.67496,0.41247 -1.53741,0.82495 -2.81234,0.82495 -1.27492,0 -2.13738,-0.41248 -2.73734,-0.86245 -0.26248,-0.14999 -0.33748,-0.48747 -0.14999,-0.74996 z m 5.69967,-1.76239 c 0.71245,0 1.31242,-0.59997 1.31242,-1.31243 0,-0.71246 -0.59997,-1.31242 -1.31242,-1.31242 -0.71246,0 -1.31243,0.59996 -1.31243,1.31242 0,0.71246 0.59997,1.31243 1.31243,1.31243 z m -5.62468,0 c 0.71246,0 1.31243,-0.59997 1.31243,-1.31243 0,-0.71246 -0.59997,-1.31242 -1.31243,-1.31242 -0.71245,0 -1.31242,0.59996 -1.31242,1.31242 0,0.71246 0.59997,1.31243 1.31242,1.31243 z m 3.71229,-10.12441 c -0.18749,-0.0375 -0.41248,0 -0.56247,0.11249 -0.14999,0.11249 -0.26248,0.29998 -0.29998,0.48747 l -0.71246,3.89977 c -1.94989,0.1125 -3.71228,0.78746 -4.94971,1.7624 -0.26249,-0.18749 -0.59997,-0.26249 -0.93745,-0.26249 -0.93744,0 -1.6874,0.74996 -1.6874,1.68741 0,0.59996 0.33748,1.12493 0.78746,1.42491 -0.0375,0.22499 -0.0375,0.41248 -0.0375,0.63747 0,2.88733 3.3748,5.24969 7.49956,5.24969 4.12476,0 7.49956,-2.36236 7.49956,-5.24969 0,-0.22499 0,-0.41248 -0.0375,-0.63747 0.48747,-0.29998 0.78746,-0.82495 0.78746,-1.42491 0,-0.93745 -0.74996,-1.68741 -1.6874,-1.68741 -0.33749,0 -0.67496,0.1125 -0.93745,0.26249 -1.19993,-0.97494 -2.88733,-1.61241 -4.79972,-1.7624 l 0.52497,-2.88733 1.7249,0.33748 c 0.18749,0.59997 0.74996,1.01244 1.42492,1.01244 0.82495,0 1.49991,-0.67496 1.49991,-1.49991 0,-0.82495 -0.67496,-1.49991 -1.49991,-1.49991 -0.44998,0 -0.86245,0.18749 -1.12494,0.52497 z"
       id="path10-3"
       style="clip-rule:evenodd;fill:#f0f0f0;fill-opacity:1;fill-rule:evenodd;stroke-width:0.374978" />
  </g>
</svg>
