<?xml version="1.0" encoding="UTF-8" standalone="no"?>
<svg
   width="64"
   version="1.1"
   height="64"
   id="svg15"
   sodipodi:docname="folder-Pop_OS.svg"
   inkscape:version="1.1.1 (3bf5ae0d25, 2021-09-20)"
   xmlns:inkscape="http://www.inkscape.org/namespaces/inkscape"
   xmlns:sodipodi="http://sodipodi.sourceforge.net/DTD/sodipodi-0.dtd"
   xmlns="http://www.w3.org/2000/svg"
   xmlns:svg="http://www.w3.org/2000/svg"
   xmlns:rdf="http://www.w3.org/1999/02/22-rdf-syntax-ns#"
   xmlns:cc="http://creativecommons.org/ns#"
   xmlns:dc="http://purl.org/dc/elements/1.1/">
  <sodipodi:namedview
     pagecolor="#ffffff"
     bordercolor="#666666"
     borderopacity="1"
     objecttolerance="10"
     gridtolerance="10"
     guidetolerance="10"
     inkscape:pageopacity="0"
     inkscape:pageshadow="2"
     inkscape:window-width="1920"
     inkscape:window-height="1013"
     id="namedview17"
     showgrid="true"
     inkscape:zoom="9.8125"
     inkscape:cx="47.796178"
     inkscape:cy="23.235669"
     inkscape:window-x="0"
     inkscape:window-y="0"
     inkscape:window-maximized="1"
     inkscape:current-layer="layer1"
     inkscape:document-rotation="0"
     inkscape:pagecheckerboard="0">
    <inkscape:grid
       type="xygrid"
       id="grid850" />
  </sodipodi:namedview>
  <defs
     id="defs5455" />
  <metadata
     id="metadata5458">
    <rdf:RDF>
      <cc:Work
         rdf:about="">
        <dc:format>image/svg+xml</dc:format>
        <dc:type
           rdf:resource="http://purl.org/dc/dcmitype/StillImage" />
      </cc:Work>
    </rdf:RDF>
  </metadata>
  <g
     inkscape:label="Capa 1"
     inkscape:groupmode="layer"
     id="layer1"
     transform="translate(-384.57143,-483.798)">
    <path
       style="fill:#8484ac;fill-opacity:1;stroke-width:0.181749"
       d="m 409.78927,496.01328 c -0.74951,1.6e-4 -1.63666,-0.62441 -1.97259,-1.38766 l -1.50654,-3.42996 c -0.33522,-0.76325 -1.22239,-1.38715 -1.97192,-1.38766 l -14.78414,-0.01 c -2.97438,-0.002 -4.97594,2.00879 -4.96945,4.98427 v 0 0 l -0.0132,41.9958 c -0.001,4.01994 0.99999,5.00499 4.99753,5.00602 l 54.13992,0.0139 c 4.91919,10e-4 4.96682,-0.0209 4.96238,-5.05526 l -0.0315,-35.73667 c -0.003,-3.01292 -2.00335,-5.00069 -5.03522,-5.00004 z"
       id="path16"
       sodipodi:nodetypes="sccsscccsssssss" />
    <g
       id="g24"
       transform="matrix(0.17007976,0,0,0.19391466,374.37336,465.75259)">
      <path
         style="fill:#efefef;fill-opacity:1"
         d="m 179.58,131.156 8.844,17.688 c 1.968,3.936 4.8248,7.156 9.2248,7.156 H 208 c -4.4,0 -9.608,-3.22 -11.58,-7.156 l -8.844,-17.688 c -1.968,-3.936 -7.17873,-7.15601 -11.57873,-7.15601 L 168,124 c 4.4,0 9.608,3.22 11.58,7.156 z"
         id="path18"
         sodipodi:nodetypes="cssccsscc" />
      <rect
         x="75.888275"
         y="176.05383"
         style="fill:#263740;fill-opacity:1;stroke-width:0.991651"
         width="345.64072"
         height="205.93738"
         id="rect22"
         ry="10.823075" />
    </g>
    <rect
       x="387.72144"
       y="500.29803"
       style="fill:#9494b7;fill-opacity:1;stroke-width:0.18223"
       width="57.900002"
       height="39"
       id="rect26"
       ry="1.6662751" />
    <rect
       x="389.12042"
       y="501.99103"
       style="fill:#ffffff;stroke-width:0.181607"
       width="55.1059"
       height="35.680298"
       id="rect28"
       ry="1.1992956" />
    <g
       id="g36"
       transform="matrix(0.17007976,0,0,0.19391466,373.56785,464.65328)">
      <polygon
         style="fill:#aaccff"
         points="100,272 168,204 172,204 172,276 100,276 "
         id="polygon34"
         transform="translate(-8.8452971)" />
    </g>
    <polygon
       style="fill:#2a7fff"
       points="168,272 100,272 168,204 "
       id="polygon38"
       transform="matrix(0.17007976,0,0,0.19391466,372.16344,464.65328)" />
    <path
       style="opacity:0.7;fill:#8484ac;stroke-width:0.182212;fill-opacity:1"
       d="m 399.00821,504.28906 -11.73679,12.86095 v 20.81904 c 0.0483,1.33341 1.06398,1.80853 1.83729,1.87677 l 54.7606,0.0379 c 2.10558,10e-4 2.16611,-1.86142 2.16611,-1.86142 v -33.73329 z"
       id="path30-3"
       sodipodi:nodetypes="ccccsccc" />
    <path
       style="fill:#263740;fill-opacity:1;stroke-width:0.0282398"
       id="path2-3-3-3"
       d="m 438.45093,527.12991 c -0.0553,0.22553 -0.16757,0.42518 -0.36308,0.55079 -0.30745,0.19711 -0.68178,0.13983 -0.9472,-0.1 -0.24862,-0.22262 -0.33248,-0.59916 -0.25429,-0.92474 0.0806,-0.3398 0.33807,-0.63949 0.66777,-0.73374 0.73476,-0.20822 1.03938,0.60799 0.8968,1.20763 z m -0.44977,-2.31787 c -0.45532,-0.18567 -0.29899,-2.62604 0.11768,-5.58865 0.11769,-0.82786 0.31859,-1.21924 0.54491,-1.41911 0.32406,-0.28238 0.91357,-0.29401 1.31295,-0.23405 0.45826,0.0658 0.89696,0.28565 1.22938,0.61382 0.29338,0.29142 0.32686,0.588 0.22621,0.97356 -0.16469,0.61381 -0.44689,1.20182 -0.71802,1.77521 -0.0628,0.13971 -0.62587,1.22737 -0.70115,1.36148 -1.35501,2.4378 -1.62604,2.67466 -2.01149,2.51774 z" />
    <path
       style="fill:#f0f0f0;fill-opacity:1;stroke-width:0.0282398"
       id="path4-6"
       d="m 428.80949,523.71301 c 0.26815,1.1706 0.2402,2.45494 0.007,3.37968 -0.21502,0.87345 -0.79893,1.65551 -1.7265,1.9181 -0.81319,0.23129 -1.7601,0.0618 -2.34137,-0.50804 -0.95544,-0.93628 -1.51419,-3.13421 -1.26558,-4.72981 0.20123,-1.28134 0.87732,-2.92288 2.36092,-2.99443 0.0967,-0.004 0.18997,-0.002 0.28477,0.004 1.5116,0.1399 2.33575,1.44166 2.67669,2.92889 z m -2.73225,2.66318 c 0.0824,0.0163 0.16751,0.0163 0.25128,-0.007 0.28221,-0.0817 0.44427,-0.38257 0.51964,-0.67361 0.11539,-0.44248 0.0986,-0.91916 -0.0532,-1.35307 -0.0768,-0.21983 -0.18692,-0.4339 -0.35766,-0.59377 -0.60051,-0.56225 -1.201,0.0218 -1.30454,0.68792 -0.0806,0.5196 0.0377,1.12183 0.35472,1.5415 0.14812,0.19409 0.36065,0.36242 0.58695,0.4024 z" />
    <path
       style="fill:#f0f0f0;fill-opacity:1;stroke-width:0.0282398"
       id="path6-7"
       d="m 432.08109,526.19374 c -0.002,2.16053 0.20943,3.81328 -0.72092,4.01031 -0.75426,0.15689 -0.72906,-0.51953 -0.78788,-1.08758 -0.22337,-2.20062 -0.42731,-5.85698 -0.51406,-8.06951 0.0609,-0.95058 0.68462,-1.53282 1.33277,-1.67527 1.0002,-0.21987 2.06733,-0.15731 2.95305,0.4023 1.75177,1.10769 1.89148,3.13991 0.82982,4.7982 -0.58118,0.90488 -2.33846,1.56159 -3.09278,1.50425 z m 0.22341,-4.84398 c -0.10839,0.0182 -0.28771,0.0657 -0.33807,0.17667 -0.1201,0.25402 -0.11298,1.86716 0.0986,2.5435 0.0356,0.11262 0.10706,0.21682 0.21788,0.25679 0.39675,0.14851 0.7544,-0.34832 0.91644,-0.64795 0.22628,-0.41671 0.2988,-0.90759 0.15637,-1.36449 -0.13444,-0.42518 -0.55035,-1.04189 -1.05042,-0.96452 z" />
    <path
       style="fill:#f0f0f0;fill-opacity:1;stroke-width:0.0282398"
       id="path8-5"
       d="m 422.06227,522.42282 c -0.65655,1.4189 -1.74618,2.54614 -3.25472,3.10295 0.43328,1.15603 0.87433,2.29789 1.30462,3.45085 0.24043,0.62218 0.46943,1.30444 0.25976,1.91812 -0.21791,0.628 -1.06685,0.80207 -1.68447,0.13443 -1.18757,-1.29031 -5.20206,-9.4652 -5.49816,-10.07903 -0.25166,-0.52803 -0.62842,-1.0933 -0.61764,-1.70405 0.0197,-0.91923 1.41127,-1.84979 2.07842,-2.32622 0.93342,-0.66539 2.01168,-1.1193 3.16559,-1.12187 0.89974,0 1.66794,0.25145 2.34975,0.6963 1.04476,0.68539 1.77133,1.77822 2.03968,3.01421 0.23442,1.08767 0.18424,2.20118 -0.14275,2.91464 m -3.05904,-1.55295 c -0.23479,-0.87037 -0.76569,-1.67244 -1.43349,-2.23469 -0.1449,-0.12266 -0.30182,-0.23726 -0.48291,-0.29978 -1.25174,-0.41974 -0.70973,1.71824 -0.50577,2.25789 0.28211,0.7563 0.70974,1.71244 1.28224,2.28323 0.12535,0.12525 0.27386,0.23707 0.44414,0.27124 0.25988,0.056 0.50005,-0.13182 0.63162,-0.34814 0.10706,-0.1799 0.15052,-0.39396 0.17601,-0.60218 0.0451,-0.44232 0.004,-0.89364 -0.11334,-1.32757 z" />
    <path
       style="fill:#263740;fill-opacity:1;stroke-width:0.0282398"
       id="path10-3"
       d="m 437.02995,533.28878 c -0.004,1.25321 -0.75433,2.50622 -2.40559,2.50622 -1.65107,0 -2.41937,-1.23301 -2.41937,-2.49192 0,-1.56992 1.07001,-2.54041 2.45298,-2.54041 1.6037,0.0161 2.38597,1.23024 2.37198,2.52611 z m -2.37198,-1.73538 c -1.03649,0 -1.61775,0.73651 -1.62324,1.74119 0,0.87346 0.47769,1.69265 1.60357,1.69265 1.12593,0 1.55619,-0.88763 1.55619,-1.70121 0.0163,-0.84499 -0.42457,-1.71264 -1.53652,-1.73263 z m 3.06477,3.59935 c 0,0.18562 0.004,-0.88201 0,-1.04464 h 0.75994 l 0.0554,0.65371 c 0.24876,0.14555 0.63422,0.25406 0.94993,0.25406 0.58679,0 1.19862,-0.15141 1.19862,-0.73654 -0.0197,-0.53093 -0.70127,-0.63935 -1.25162,-0.69655 -0.93595,-0.098 -1.69026,-0.33092 -1.69026,-1.40429 0,-0.95627 1.0588,-1.43276 1.84665,-1.43276 0.63423,-0.0162 1.08402,0.0856 1.65671,0.5564 0,0.38553 -0.004,0.61382 -0.004,0.99907 h -0.73462 l -0.0451,-0.63353 c -0.29615,-0.1457 -0.60071,-0.18564 -0.83532,-0.17983 -0.50571,0.004 -1.04493,0.24821 -1.04493,0.68213 0,0.42523 0.34924,0.54228 0.96943,0.63374 1.01146,0.13708 1.98642,0.37096 1.98642,1.47282 -0.004,1.20446 -1.11196,1.52143 -2.06182,1.52143 -0.72357,0.002 -1.17621,-0.13451 -1.74891,-0.64522 z"
       inkscape:connector-curvature="0" />
    <path
       style="fill:#f0f0f0;fill-opacity:1;stroke-width:0.0282398"
       id="path12-5"
       d="m 431.17962,535.38406 c 0,0.21981 -0.1733,0.39667 -0.38826,0.39667 h -4.48979 c -0.21516,0 -0.38822,-0.17686 -0.38822,-0.39667 v -0.036 c 0,-0.21987 0.17306,-0.39657 0.38822,-0.39657 h 4.48979 c 0.21496,0 0.38826,0.1767 0.38826,0.39657 z"
       inkscape:connector-curvature="0" />
  </g>
</svg>
