<?xml version="1.0" encoding="UTF-8" standalone="no"?>
<svg
   width="64"
   version="1.1"
   height="64"
   id="svg15"
   sodipodi:docname="folder-Github.svg"
   inkscape:version="1.1.1 (3bf5ae0d25, 2021-09-20)"
   xmlns:inkscape="http://www.inkscape.org/namespaces/inkscape"
   xmlns:sodipodi="http://sodipodi.sourceforge.net/DTD/sodipodi-0.dtd"
   xmlns="http://www.w3.org/2000/svg"
   xmlns:svg="http://www.w3.org/2000/svg"
   xmlns:rdf="http://www.w3.org/1999/02/22-rdf-syntax-ns#"
   xmlns:cc="http://creativecommons.org/ns#"
   xmlns:dc="http://purl.org/dc/elements/1.1/">
  <sodipodi:namedview
     pagecolor="#ffffff"
     bordercolor="#666666"
     borderopacity="1"
     objecttolerance="10"
     gridtolerance="10"
     guidetolerance="10"
     inkscape:pageopacity="0"
     inkscape:pageshadow="2"
     inkscape:window-width="1920"
     inkscape:window-height="1013"
     id="namedview17"
     showgrid="true"
     inkscape:zoom="9.8125"
     inkscape:cx="32"
     inkscape:cy="32"
     inkscape:window-x="0"
     inkscape:window-y="0"
     inkscape:window-maximized="1"
     inkscape:current-layer="layer1"
     inkscape:document-rotation="0"
     inkscape:pagecheckerboard="0">
    <inkscape:grid
       type="xygrid"
       id="grid850" />
  </sodipodi:namedview>
  <defs
     id="defs5455" />
  <metadata
     id="metadata5458">
    <rdf:RDF>
      <cc:Work
         rdf:about="">
        <dc:format>image/svg+xml</dc:format>
        <dc:type
           rdf:resource="http://purl.org/dc/dcmitype/StillImage" />
      </cc:Work>
    </rdf:RDF>
  </metadata>
  <g
     inkscape:label="Capa 1"
     inkscape:groupmode="layer"
     id="layer1"
     transform="translate(-384.57143,-483.798)">
    <path
       style="fill:#8484ac;fill-opacity:1;stroke-width:0.181749"
       d="m 409.78927,496.01328 c -0.74951,1.6e-4 -1.63666,-0.62441 -1.97259,-1.38766 l -1.50654,-3.42996 c -0.33522,-0.76325 -1.22239,-1.38715 -1.97192,-1.38766 l -14.78414,-0.01 c -2.97438,-0.002 -4.97594,2.00879 -4.96945,4.98427 v 0 0 l -0.0132,41.9958 c -0.001,4.01994 0.99999,5.00499 4.99753,5.00602 l 54.13992,0.0139 c 4.91919,10e-4 4.96682,-0.0209 4.96238,-5.05526 l -0.0315,-35.73667 c -0.003,-3.01292 -2.00335,-5.00069 -5.03522,-5.00004 z"
       id="path16"
       sodipodi:nodetypes="sccsscccsssssss" />
    <g
       id="g24"
       transform="matrix(0.17007976,0,0,0.19391466,374.37336,465.75259)">
      <path
         style="fill:#efefef;fill-opacity:1"
         d="m 179.58,131.156 8.844,17.688 c 1.968,3.936 4.8248,7.156 9.2248,7.156 H 208 c -4.4,0 -9.608,-3.22 -11.58,-7.156 l -8.844,-17.688 c -1.968,-3.936 -7.17873,-7.15601 -11.57873,-7.15601 L 168,124 c 4.4,0 9.608,3.22 11.58,7.156 z"
         id="path18"
         sodipodi:nodetypes="cssccsscc" />
      <rect
         x="75.888275"
         y="176.05383"
         style="fill:#263740;fill-opacity:1;stroke-width:0.991651"
         width="345.64072"
         height="205.93738"
         id="rect22"
         ry="10.823075" />
    </g>
    <rect
       x="387.72141"
       y="500.2981"
       style="fill:#9494b7;fill-opacity:1;stroke-width:0.18223"
       width="57.900002"
       height="39"
       id="rect26"
       ry="1.6662751" />
    <rect
       x="389.12039"
       y="501.99109"
       style="fill:#ffffff;stroke-width:0.181607"
       width="55.1059"
       height="35.680298"
       id="rect28"
       ry="1.1992956" />
    <g
       id="g36"
       transform="matrix(0.17007976,0,0,0.19391466,373.56785,464.65328)">
      <polygon
         style="fill:#aaccff"
         points="172,204 172,276 100,276 100,272 168,204 "
         id="polygon34"
         transform="translate(-8.8452971)" />
    </g>
    <polygon
       style="fill:#2a7fff"
       points="168,272 100,272 168,204 "
       id="polygon38"
       transform="matrix(0.17007976,0,0,0.19391466,372.16344,464.65328)" />
    <path
       style="opacity:0.7;fill:#8484ac;stroke-width:0.182212;fill-opacity:1"
       d="m 399.00821,504.28906 -11.73679,12.86095 v 20.81904 c 0.0483,1.33341 1.06398,1.80853 1.83729,1.87677 l 54.7606,0.0379 c 2.10558,10e-4 2.16611,-1.86142 2.16611,-1.86142 v -33.73329 z"
       id="path30-3"
       sodipodi:nodetypes="ccccsccc" />
    <path
       class="st0"
       d="m 441.56206,523.79331 c 0,5.32293 -3.44865,9.82117 -8.24678,11.39555 h -7.49707 c -4.79813,-1.57438 -8.24678,-6.07262 -8.24678,-11.39555 0,-6.6349 5.36041,-11.99531 11.99531,-11.99531 6.63491,0 11.99532,5.36041 11.99532,11.99531 z"
       id="path4-7"
       style="fill:#f0f0f0;fill-opacity:1;stroke-width:0.374854" />
    <path
       class="st2"
       d="m 434.06499,528.66641 c 1.12456,-0.37485 2.99883,-1.49941 2.99883,-4.8731 0,-1.31198 -0.33737,-2.51151 -1.08708,-3.48613 0.82468,-1.98673 -0.075,-3.26123 -0.41234,-3.26123 -0.29988,0 -1.57438,0.22491 -2.73643,1.16205 -0.93713,-0.2624 -2.02421,-0.41234 -3.26123,-0.41234 -1.23701,0 -2.32409,0.14994 -3.26122,0.41234 -1.16205,-0.93714 -2.43655,-1.16205 -2.73643,-1.16205 -0.33737,0 -1.23702,1.2745 -0.41234,3.26123 -0.74971,0.97462 -1.08708,2.17415 -1.08708,3.48613 0,3.37369 1.87427,4.49825 2.99883,4.8731 0.89965,0.29988 1.87427,0.48731 2.24912,0.56228 -0.22491,0.22491 -0.59976,0.82468 -0.71222,1.64936 -0.29988,0.22491 -0.74971,0.41234 -1.34947,0.41234 -1.12456,0 -1.68684,-0.74971 -2.24912,-1.49942 -0.56228,-0.74971 -1.31199,-1.12456 -1.68684,-1.12456 -0.37486,0 -0.74971,0.18743 -0.37486,0.56228 0.37486,0.37485 0.86217,0.075 1.87427,1.87427 0.74971,1.34947 1.68684,1.31199 2.43655,1.31199 0.67473,0 1.31199,-0.37486 1.31199,-0.37486 h 5.6228 l 0.37485,-0.7497 c 0,-1.04959 -0.48731,-1.7993 -0.7497,-2.0617 0.37485,-0.075 1.34947,-0.2624 2.24912,-0.56228 z"
       id="path8-5"
       style="fill:#263740;fill-opacity:1;stroke-width:0.374854" />
    <path
       class="st3"
       d="m 420.94511,529.22869 c -0.22491,-0.22491 -0.18742,-0.37485 -0.0375,-0.44982 0.67473,0.67473 1.5369,1.19953 2.549,1.57438 0.44983,0.5248 0.97462,0.93714 1.7993,0.93714 0.37485,0 0.71222,-0.11246 1.0121,-0.22492 1.04959,0.14994 2.17415,0.22492 3.29871,0.22492 1.04959,0 2.0617,-0.0375 2.99883,-0.18743 0,0.075 0,0.11245 0,0.18743 v 2.99882 l 0.86217,0.86217 c -2.51152,0.86216 -5.21047,0.86216 -7.72199,0 l 0.86217,-0.86217 v -1.79929 c -0.29989,0.11245 -0.82468,0.29988 -1.31199,0.29988 -0.74971,0 -1.87427,-0.14994 -2.62398,-1.49941 -0.7497,-1.38696 -1.12456,-1.64936 -1.42444,-1.83679 -0.075,-0.075 -0.18743,-0.14994 -0.2624,-0.22491 z"
       id="path10-3"
       style="clip-rule:evenodd;fill:#263740;fill-opacity:1;fill-rule:evenodd;stroke-width:0.374854" />
  </g>
</svg>
