<?xml version="1.0" encoding="UTF-8" standalone="no"?>
<svg
   width="64"
   version="1.1"
   height="64"
   id="svg15"
   sodipodi:docname="folder-openSUSE.svg"
   inkscape:version="1.1.1 (3bf5ae0d25, 2021-09-20)"
   xmlns:inkscape="http://www.inkscape.org/namespaces/inkscape"
   xmlns:sodipodi="http://sodipodi.sourceforge.net/DTD/sodipodi-0.dtd"
   xmlns="http://www.w3.org/2000/svg"
   xmlns:svg="http://www.w3.org/2000/svg"
   xmlns:rdf="http://www.w3.org/1999/02/22-rdf-syntax-ns#"
   xmlns:cc="http://creativecommons.org/ns#"
   xmlns:dc="http://purl.org/dc/elements/1.1/">
  <sodipodi:namedview
     pagecolor="#ffffff"
     bordercolor="#666666"
     borderopacity="1"
     objecttolerance="10"
     gridtolerance="10"
     guidetolerance="10"
     inkscape:pageopacity="0"
     inkscape:pageshadow="2"
     inkscape:window-width="1920"
     inkscape:window-height="1013"
     id="namedview17"
     showgrid="true"
     inkscape:zoom="9.8125"
     inkscape:cx="29.350318"
     inkscape:cy="38.726115"
     inkscape:window-x="0"
     inkscape:window-y="0"
     inkscape:window-maximized="1"
     inkscape:current-layer="layer1"
     inkscape:document-rotation="0"
     inkscape:pagecheckerboard="0"
     inkscape:lockguides="true">
    <inkscape:grid
       type="xygrid"
       id="grid1567" />
  </sodipodi:namedview>
  <defs
     id="defs5455" />
  <metadata
     id="metadata5458">
    <rdf:RDF>
      <cc:Work
         rdf:about="">
        <dc:format>image/svg+xml</dc:format>
        <dc:type
           rdf:resource="http://purl.org/dc/dcmitype/StillImage" />
      </cc:Work>
    </rdf:RDF>
  </metadata>
  <g
     inkscape:label="Capa 1"
     inkscape:groupmode="layer"
     id="layer1"
     transform="translate(-384.57143,-483.798)">
    <path
       style="fill:#8484ac;fill-opacity:1;stroke-width:0.181749"
       d="m 409.78927,496.01328 c -0.74951,1.6e-4 -1.63666,-0.62441 -1.97259,-1.38766 l -1.50654,-3.42996 c -0.33522,-0.76325 -1.22239,-1.38715 -1.97192,-1.38766 l -14.78414,-0.01 c -2.97438,-0.002 -4.97594,2.00879 -4.96945,4.98427 v 0 0 l -0.0132,41.9958 c -0.001,4.01994 0.99999,5.00499 4.99753,5.00602 l 54.13992,0.0139 c 4.91919,10e-4 4.96682,-0.0209 4.96238,-5.05526 l -0.0315,-35.73667 c -0.003,-3.01292 -2.00335,-5.00069 -5.03522,-5.00004 z"
       id="path16"
       sodipodi:nodetypes="sccsscccsssssss" />
    <g
       id="g24"
       transform="matrix(0.17007976,0,0,0.19391466,374.37336,465.75259)">
      <path
         style="fill:#efefef;fill-opacity:1"
         d="m 179.58,131.156 8.844,17.688 c 1.968,3.936 4.8248,7.156 9.2248,7.156 H 208 c -4.4,0 -9.608,-3.22 -11.58,-7.156 l -8.844,-17.688 c -1.968,-3.936 -7.17873,-7.15601 -11.57873,-7.15601 L 168,124 c 4.4,0 9.608,3.22 11.58,7.156 z"
         id="path18"
         sodipodi:nodetypes="cssccsscc" />
      <rect
         x="75.888275"
         y="176.05383"
         style="fill:#263740;fill-opacity:1;stroke-width:0.991651"
         width="345.64072"
         height="205.93738"
         id="rect22"
         ry="10.823075" />
    </g>
    <rect
       x="387.72141"
       y="500.2981"
       style="fill:#9494b7;fill-opacity:1;stroke-width:0.18223"
       width="57.900002"
       height="39"
       id="rect26"
       ry="1.6662751" />
    <rect
       x="389.12039"
       y="501.99109"
       style="fill:#ffffff;stroke-width:0.181607"
       width="55.1059"
       height="35.680298"
       id="rect28"
       ry="1.1992956" />
    <g
       id="g36"
       transform="matrix(0.17007976,0,0,0.19391466,373.56785,464.65328)">
      <polygon
         style="fill:#aaccff"
         points="168,204 172,204 172,276 100,276 100,272 "
         id="polygon34"
         transform="translate(-8.8452971)" />
    </g>
    <polygon
       style="fill:#2a7fff"
       points="168,204 168,272 100,272 "
       id="polygon38"
       transform="matrix(0.17007976,0,0,0.19391466,372.16344,464.65328)" />
    <path
       style="opacity:0.7;fill:#8484ac;stroke-width:0.182212;fill-opacity:1"
       d="m 399.00821,504.28906 -11.73679,12.86095 v 20.81904 c 0.0483,1.33341 1.06398,1.80853 1.83729,1.87677 l 54.7606,0.0379 c 2.10558,10e-4 2.16611,-1.86142 2.16611,-1.86142 v -33.73329 z"
       id="path30-3"
       sodipodi:nodetypes="ccccsccc" />
    <path
       style="color:#4d4d4d;font-size:20.4884px;font-family:TrebuchetMS-Bold;fill:#f0f0f0;fill-opacity:1;fill-rule:evenodd;stroke:none;stroke-width:0.171819;stroke-miterlimit:4"
       d="m 429.57143,511.798 c -6.62682,0 -12,5.37266 -12,12 0,6.62734 5.37318,12 12,12 6.62683,0 12,-5.37266 12,-12 0,-6.62734 -5.37317,-12 -12,-12 z m 0.0559,1.66169 c 5.70999,0 10.34253,4.62895 10.34253,10.33831 0,5.70986 -4.63324,10.33831 -10.34253,10.33831 -3.08313,0 -5.84976,-1.35126 -7.74369,-3.49176 0.77879,-0.60447 2.08164,-0.45719 3.68622,-0.27437 0.76893,0.0888 1.64557,0.18789 2.5503,0.20791 2.52773,0.0162 5.24735,-0.44661 6.92595,-1.18023 1.08522,-0.4758 1.77998,-0.78939 2.21432,-1.1843 0.15663,-0.12869 0.2389,-0.3431 0.32271,-0.56585 l 0.0559,-0.15044 c 0.0706,-0.17987 0.17127,-0.56678 0.21653,-0.77785 0.0208,-0.093 0.0292,-0.19176 -0.0358,-0.24298 l -0.23424,0.0448 c -0.73652,0.44171 -2.57668,1.28277 -4.30055,1.31691 -2.13618,0.0453 -6.4416,-2.15045 -6.89061,-2.38206 l -0.0448,-0.0522 c -0.10704,-0.25694 -0.75196,-1.78662 -0.8884,-2.10842 3.09903,2.04086 5.66842,3.17028 7.63758,3.34591 2.18942,0.19454 3.89721,-1.00081 4.62762,-1.51155 0.14254,-0.0971 0.25145,-0.17365 0.29614,-0.19013 l 0.0485,-0.0783 c -0.12109,-0.76958 -1.26981,-4.49348 -2.13479,-5.38784 -0.2398,-0.24531 -0.4305,-0.48406 -0.81769,-0.7116 -3.13088,-1.82482 -10.56464,-2.92383 -10.91272,-2.9746 l -0.0559,0.0187 -0.0224,0.0485 c 0,0 -0.0273,1.5436 -0.0298,1.7149 -0.25522,-0.0854 -1.04609,-0.34339 -2.17903,-0.65412 1.47824,-1.82908 3.74361,-3.45194 7.70817,-3.45194 z m 2.73157,5.47187 c 0.052,-6.7e-4 0.10466,-10e-4 0.15903,0 1.75393,0.0645 3.1318,1.54029 3.07184,3.29281 -0.03,0.84815 -0.38869,1.63137 -1.00778,2.21002 -0.6209,0.582 -1.42793,0.88508 -2.28054,0.85735 -1.75091,-0.0665 -3.12886,-1.54234 -3.07186,-3.29281 0.029,-0.84877 0.38931,-1.63739 1.01212,-2.21411 0.58154,-0.54529 1.32578,-0.84138 2.11719,-0.85326 z m -0.0843,0.93724 c -0.51081,0.0299 -0.99286,0.23832 -1.37018,0.59236 -0.43005,0.40365 -0.6838,0.95038 -0.70278,1.54224 -0.0417,1.22356 0.91694,2.25317 2.1392,2.29848 0.59403,0.0193 1.15748,-0.18971 1.59117,-0.59234 0.43253,-0.40558 0.68445,-0.95732 0.70273,-1.54674 0.0421,-1.22548 -0.92076,-2.25112 -2.14359,-2.294 -0.0737,-0.002 -0.14367,-0.003 -0.21655,0 z m 0.58341,1.10929 c 0.54315,0 0.98122,0.29519 0.98122,0.6584 0,0.36169 -0.43807,0.6588 -0.98122,0.6588 -0.54504,0 -0.98571,-0.29763 -0.98571,-0.6588 0,-0.36321 0.44067,-0.6584 0.98571,-0.6584 z"
       id="path2445-7"
       class="ColorScheme-Text"
       inkscape:connector-curvature="0" />
    <path
       class="st2"
       d="m 423.57143,513.412 c 2.73734,-1.6124 6.03715,-2.02495 9.11197,-1.2 3.07482,0.82496 5.80013,2.94971 7.37503,5.68705 1.57491,2.73734 1.92443,6.03715 1.09947,9.11197 -0.82495,3.07482 -2.84983,5.69966 -5.58717,7.27457 l -0.74996,-1.51259 c 2.39986,-1.38742 4.0622,-3.47462 4.77466,-6.17446 0.71246,-2.69984 0.47504,-5.54968 -0.94988,-7.94954 -1.38742,-2.39986 -3.67479,-4.16225 -6.37463,-4.87471 -2.66234,-0.74996 -5.54967,-0.37498 -7.94953,1.04994 z"
       id="path8-5"
       style="clip-rule:evenodd;fill:#263740;fill-opacity:1;fill-rule:evenodd;stroke-width:0.374978"
       sodipodi:nodetypes="csssccscccc" />
  </g>
</svg>
