<?xml version="1.0" encoding="UTF-8" standalone="no"?>
<svg
   id="svg2"
   height="64"
   version="1.1"
   width="64"
   sodipodi:docname="folder-encrypted.svg"
   inkscape:version="1.1.1 (3bf5ae0d25, 2021-09-20)"
   xmlns:inkscape="http://www.inkscape.org/namespaces/inkscape"
   xmlns:sodipodi="http://sodipodi.sourceforge.net/DTD/sodipodi-0.dtd"
   xmlns:xlink="http://www.w3.org/1999/xlink"
   xmlns="http://www.w3.org/2000/svg"
   xmlns:svg="http://www.w3.org/2000/svg"
   xmlns:rdf="http://www.w3.org/1999/02/22-rdf-syntax-ns#"
   xmlns:cc="http://creativecommons.org/ns#"
   xmlns:dc="http://purl.org/dc/elements/1.1/">
  <sodipodi:namedview
     pagecolor="#ffffff"
     bordercolor="#666666"
     borderopacity="1"
     objecttolerance="10"
     gridtolerance="10"
     guidetolerance="10"
     inkscape:pageopacity="0"
     inkscape:pageshadow="2"
     inkscape:window-width="1920"
     inkscape:window-height="1013"
     id="namedview40"
     showgrid="true"
     inkscape:zoom="11.313708"
     inkscape:cx="22.804195"
     inkscape:cy="30.670758"
     inkscape:window-x="0"
     inkscape:window-y="0"
     inkscape:window-maximized="1"
     inkscape:current-layer="svg2"
     inkscape:pagecheckerboard="0"
     inkscape:lockguides="true">
    <inkscape:grid
       type="xygrid"
       id="grid977" />
  </sodipodi:namedview>
  <defs
     id="defs5455">
    <linearGradient
       id="linearGradient4172-5">
      <stop
         id="stop4174-6"
         style="stop-color:#3e3e3e" />
      <stop
         id="stop4176-6"
         style="stop-color:#494949"
         offset="1" />
    </linearGradient>
    <linearGradient
       gradientTransform="matrix(1,0,0,0.99967455,0,0.176455)"
       x2="0"
       gradientUnits="userSpaceOnUse"
       y2="499.78421"
       y1="541.79797"
       xlink:href="#linearGradient4172-5"
       id="linearGradient4178-3-3-1" />
  </defs>
  <metadata
     id="metadata5458">
    <rdf:RDF>
      <cc:Work
         rdf:about="">
        <dc:format>image/svg+xml</dc:format>
        <dc:type
           rdf:resource="http://purl.org/dc/dcmitype/StillImage" />
      </cc:Work>
    </rdf:RDF>
  </metadata>
  <path
     style="fill:#8484ac;fill-opacity:1;stroke-width:0.181749"
     d="m 25.217841,12.215281 c -0.74951,1.6e-4 -1.63666,-0.62441 -1.97259,-1.38766 l -1.50654,-3.4299595 c -0.33522,-0.76325 -1.22239,-1.38715 -1.97192,-1.38766 l -14.7841403,-0.01 c -2.97438,-0.002 -4.97593995,2.00879 -4.96944995,4.9842695 v 0 0 L 7.4826285e-7,52.980071 C -9.9925174e-4,57.000011 0.9999907,57.985061 4.9975307,57.986091 l 54.1399203,0.0139 c 4.91919,10e-4 4.96682,-0.0209 4.96238,-5.05526 l -0.0315,-35.73667 c -0.003,-3.01292 -2.00335,-5.00069 -5.03522,-5.00004 z"
     id="path16"
     sodipodi:nodetypes="sccsscccsssssss" />
  <g
     id="g24"
     transform="matrix(0.17007976,0,0,0.19391466,-10.198069,-18.045409)">
    <path
       style="fill:#efefef;fill-opacity:1"
       d="m 179.58,131.156 8.844,17.688 c 1.968,3.936 4.8248,7.156 9.2248,7.156 H 208 c -4.4,0 -9.608,-3.22 -11.58,-7.156 l -8.844,-17.688 c -1.968,-3.936 -7.17873,-7.15601 -11.57873,-7.15601 L 168,124 c 4.4,0 9.608,3.22 11.58,7.156 z"
       id="path18"
       sodipodi:nodetypes="cssccsscc" />
    <rect
       x="75.888275"
       y="176.05383"
       style="fill:#263740;fill-opacity:1;stroke-width:0.991651"
       width="345.64072"
       height="205.93738"
       id="rect22"
       ry="10.823075" />
  </g>
  <rect
     x="3.1500001"
     y="16.50001"
     style="fill:#9494b7;fill-opacity:1;stroke-width:0.18223"
     width="57.900002"
     height="39"
     id="rect26"
     ry="1.6662751" />
  <rect
     x="4.5489869"
     y="18.193003"
     style="fill:#ffffff;stroke-width:0.181607"
     width="55.1059"
     height="35.680298"
     id="rect28"
     ry="1.1992956" />
  <g
     id="g36"
     transform="matrix(0.17007976,0,0,0.19391466,-11.003579,-19.144719)">
    <polygon
       style="fill:#aaccff"
       points="100,276 100,272 168,204 172,204 172,276 "
       id="polygon34"
       transform="translate(-8.8452971)" />
  </g>
  <polygon
     style="fill:#2a7fff"
     points="168,272 100,272 168,204 "
     id="polygon38"
     transform="matrix(0.17007976,0,0,0.19391466,-12.407989,-19.144719)" />
  <path
     style="opacity:0.7;fill:#8484ac;fill-opacity:1;stroke-width:0.182212"
     d="M 14.436781,20.491061 2.6999907,33.352011 v 20.81904 c 0.0483,1.33341 1.06398,1.80853 1.83729,1.87677 l 54.7606003,0.0379 c 2.10558,10e-4 2.16611,-1.86142 2.16611,-1.86142 v -33.73329 z"
     id="path30-3"
     sodipodi:nodetypes="ccccsccc" />
  <g
     transform="matrix(0.84624474,0,0,1,-246.74282,-464.798)"
     id="layer1-4"
     style="fill:#00cbcb;fill-opacity:1">
    <g
       transform="translate(-247.13492,64.999996)"
       id="g5881-2-5"
       style="fill:#00cbcb;fill-opacity:1">
      <g
         id="g4154-5-3-6-0"
         transform="translate(129,-60)"
         style="fill:#00cbcb;fill-opacity:1" />
      <g
         id="g4445-8-6-2-1-3"
         transform="translate(127.99999,-59.99997)"
         style="fill:#00cbcb;fill-opacity:1">
        <rect
           y="507.79797"
           x="423.57144"
           height="4"
           width="4"
           id="rect4179-5-6-2-9-9-4-4-4-0-8-4-8-6"
           style="opacity:1;fill:#263740;fill-opacity:1;stroke:none;stroke-width:2;stroke-miterlimit:4;stroke-dasharray:none;stroke-opacity:1" />
        <rect
           y="507.79797"
           x="431.57144"
           height="4"
           width="4"
           id="rect4179-5-6-2-9-1-20-5-7-3-4-0-7-7-1"
           style="opacity:1;fill:#263740;fill-opacity:1;stroke:none;stroke-width:2;stroke-miterlimit:4;stroke-dasharray:none;stroke-opacity:1" />
        <rect
           y="507.79797"
           x="439.57144"
           height="4"
           width="4"
           id="rect4179-5-6-2-9-1-2-2-0-6-0-4-4-9-9-0"
           style="opacity:1;fill:#263740;fill-opacity:1;stroke:none;stroke-width:2;stroke-miterlimit:4;stroke-dasharray:none;stroke-opacity:1" />
        <rect
           y="503.79797"
           x="419.57144"
           height="4"
           width="4"
           id="rect4179-5-6-2-9-2-6-7-8-3-6-3-2-6"
           style="opacity:1;fill:#f0f0f0;fill-opacity:1;stroke:none;stroke-width:2;stroke-miterlimit:4;stroke-dasharray:none;stroke-opacity:1" />
        <rect
           y="503.79797"
           x="427.57144"
           height="4"
           width="4"
           id="rect4179-5-6-2-9-1-8-3-4-4-1-2-0-0-3"
           style="opacity:1;fill:#f0f0f0;fill-opacity:1;stroke:none;stroke-width:2;stroke-miterlimit:4;stroke-dasharray:none;stroke-opacity:1" />
        <rect
           y="503.79797"
           x="435.57144"
           height="4"
           width="4"
           id="rect4179-5-6-2-9-1-2-9-2-5-3-7-5-1-2-2"
           style="opacity:1;fill:#f0f0f0;fill-opacity:1;stroke:none;stroke-width:2;stroke-miterlimit:4;stroke-dasharray:none;stroke-opacity:1" />
        <rect
           y="503.79797"
           x="443.57144"
           height="4"
           width="4.1666245"
           id="rect4179-5-6-2-9-1-2-7-7-0-2-1-5-4-7-3-0"
           style="opacity:1;fill:#f0f0f0;fill-opacity:1;stroke:none;stroke-width:2.35702;stroke-miterlimit:4;stroke-dasharray:none;stroke-opacity:1" />
        <rect
           y="499.79797"
           x="423.57144"
           height="4"
           width="4"
           id="rect4179-5-6-2-9-9-4-4-4-6-7-6-4-7-6"
           style="opacity:1;fill:#263740;fill-opacity:1;stroke:none;stroke-width:2;stroke-miterlimit:4;stroke-dasharray:none;stroke-opacity:1" />
        <rect
           y="499.79797"
           x="431.57144"
           height="4"
           width="4"
           id="rect4179-5-6-2-9-1-20-5-7-3-8-8-0-9-5-1"
           style="opacity:1;fill:#263740;fill-opacity:1;stroke:none;stroke-width:2;stroke-miterlimit:4;stroke-dasharray:none;stroke-opacity:1" />
        <rect
           y="499.79797"
           x="439.57144"
           height="4"
           width="4"
           id="rect4179-5-6-2-9-1-2-2-0-6-0-9-5-5-2-9-5"
           style="opacity:1;fill:#263740;fill-opacity:1;stroke:none;stroke-width:2;stroke-miterlimit:4;stroke-dasharray:none;stroke-opacity:1" />
      </g>
    </g>
  </g>
  <path
     id="Lock-7-6"
     class="st0"
     d="m 49.5,43.75 c 0,0.5625 -0.3,1.05 -0.75,1.3125 V 46.75 c 0,0.4125 -0.3375,0.75 -0.75,0.75 -0.4125,0 -0.75,-0.3375 -0.75,-0.75 V 45.0625 C 46.8,44.8 46.5,44.3125 46.5,43.75 c 0,-0.825 0.675,-1.5 1.5,-1.5 0.825,0 1.5,0.675 1.5,1.5 z M 53.25,37 h 1.5 v 1.5 H 57 v 8.25 c 0,2.0625 -1.6875,3.75 -3.75,3.75 H 39 v -12 h 14.25 z"
     style="clip-rule:evenodd;fill:#f0f0f0;fill-opacity:1;fill-rule:evenodd;stroke-width:0.375" />
  <path
     id="Lock-s-5-2"
     class="st1"
     d="m 42.75,38.5 h -1.5 V 34.75 C 41.25,31.0375 44.2875,28 48,28 c 3.7125,0 6.75,3.0375 6.75,6.75 V 37 h -1.5 v -2.25 c 0,-2.8875 -2.3625,-5.25 -5.25,-5.25 -2.8875,0 -5.25,2.3625 -5.25,5.25 z M 57,38.5 H 53.25 V 40 h 2.25 v 7.5 c 0,1.65 -1.35,3 -3,3 h -12 V 52 h 12 c 2.475,0 4.5,-2.025 4.5,-4.5 z"
     style="fill:#263740;fill-opacity:1;stroke-width:0.375" />
</svg>
