<?xml version="1.0" encoding="UTF-8" standalone="no"?>
<svg
   width="64"
   version="1.1"
   height="64"
   id="svg15"
   sodipodi:docname="folder-android.svg"
   inkscape:version="1.1.1 (3bf5ae0d25, 2021-09-20)"
   xmlns:inkscape="http://www.inkscape.org/namespaces/inkscape"
   xmlns:sodipodi="http://sodipodi.sourceforge.net/DTD/sodipodi-0.dtd"
   xmlns="http://www.w3.org/2000/svg"
   xmlns:svg="http://www.w3.org/2000/svg"
   xmlns:rdf="http://www.w3.org/1999/02/22-rdf-syntax-ns#"
   xmlns:cc="http://creativecommons.org/ns#"
   xmlns:dc="http://purl.org/dc/elements/1.1/">
  <sodipodi:namedview
     pagecolor="#ffffff"
     bordercolor="#666666"
     borderopacity="1"
     objecttolerance="10"
     gridtolerance="10"
     guidetolerance="10"
     inkscape:pageopacity="0"
     inkscape:pageshadow="2"
     inkscape:window-width="1920"
     inkscape:window-height="1013"
     id="namedview17"
     showgrid="true"
     inkscape:zoom="8.0000001"
     inkscape:cx="3.25"
     inkscape:cy="38"
     inkscape:window-x="0"
     inkscape:window-y="0"
     inkscape:window-maximized="1"
     inkscape:current-layer="layer1"
     inkscape:document-rotation="0"
     inkscape:pagecheckerboard="0"
     inkscape:lockguides="true">
    <inkscape:grid
       type="xygrid"
       id="grid850" />
  </sodipodi:namedview>
  <defs
     id="defs5455" />
  <metadata
     id="metadata5458">
    <rdf:RDF>
      <cc:Work
         rdf:about="">
        <dc:format>image/svg+xml</dc:format>
        <dc:type
           rdf:resource="http://purl.org/dc/dcmitype/StillImage" />
      </cc:Work>
    </rdf:RDF>
  </metadata>
  <g
     inkscape:label="Capa 1"
     inkscape:groupmode="layer"
     id="layer1"
     transform="translate(-384.57143,-483.798)">
    <g
       transform="matrix(0.74351172,0,0,0.74285356,332.49565,-244.90835)"
       id="g4" />
    <path
       style="fill:#8484ac;fill-opacity:1;stroke-width:0.181749"
       d="m 409.78928,496.01327 c -0.74951,1.6e-4 -1.63666,-0.62441 -1.97259,-1.38766 l -1.50654,-3.42996 c -0.33522,-0.76325 -1.22239,-1.38715 -1.97192,-1.38766 l -14.78414,-0.01 c -2.97438,-0.002 -4.97594,2.00879 -4.96945,4.98427 v 0 0 l -0.0132,41.9958 c -10e-4,4.01994 0.99999,5.00499 4.99753,5.00602 l 54.13992,0.0139 c 4.91919,10e-4 4.96682,-0.0209 4.96238,-5.05526 l -0.0315,-35.73667 c -0.003,-3.01292 -2.00335,-5.00069 -5.03522,-5.00004 z"
       id="path16"
       sodipodi:nodetypes="sccsscccsssssss" />
    <g
       id="g24"
       transform="matrix(0.17007976,0,0,0.19391466,374.37337,465.75258)">
      <path
         style="fill:#efefef;fill-opacity:1"
         d="m 179.58,131.156 8.844,17.688 c 1.968,3.936 4.8248,7.156 9.2248,7.156 H 208 c -4.4,0 -9.608,-3.22 -11.58,-7.156 l -8.844,-17.688 c -1.968,-3.936 -7.17873,-7.15601 -11.57873,-7.15601 L 168,124 c 4.4,0 9.608,3.22 11.58,7.156 z"
         id="path18"
         sodipodi:nodetypes="cssccsscc" />
      <rect
         x="75.888275"
         y="176.05383"
         style="fill:#263740;fill-opacity:1;stroke-width:0.991651"
         width="345.64072"
         height="205.93738"
         id="rect22"
         ry="10.823075" />
    </g>
    <rect
       x="387.72144"
       y="500.298"
       style="fill:#9494b7;fill-opacity:1;stroke-width:0.18223"
       width="57.900002"
       height="39"
       id="rect26"
       ry="1.6662751" />
    <rect
       x="389.12042"
       y="501.991"
       style="fill:#ffffff;stroke-width:0.181607"
       width="55.1059"
       height="35.680298"
       id="rect28"
       ry="1.1992956" />
    <g
       id="g36"
       transform="matrix(0.17007976,0,0,0.19391466,373.56786,464.65327)">
      <polygon
         style="fill:#aaccff"
         points="168,204 172,204 172,276 100,276 100,272 "
         id="polygon34"
         transform="translate(-8.8452971)" />
    </g>
    <polygon
       style="fill:#2a7fff"
       points="100,272 168,204 168,272 "
       id="polygon38"
       transform="matrix(0.17007976,0,0,0.19391466,372.16345,464.65327)" />
    <path
       style="opacity:0.7;fill:#8484ac;fill-opacity:1;stroke-width:0.182212"
       d="M 399.00822,504.28905 387.27143,517.15 v 20.81904 c 0.0483,1.33341 1.06398,1.80853 1.83729,1.87677 l 54.7606,0.0379 c 2.10558,0.001 2.16611,-1.86142 2.16611,-1.86142 V 504.289 Z"
       id="path30-3"
       sodipodi:nodetypes="ccccsccc" />
    <path
       class="st0"
       d="m 432.49643,528.39608 c 0.6375,0 1.125,-0.58522 1.125,-1.35053 0,-0.7653 -0.4875,-1.35053 -1.125,-1.35053 -0.6375,0 -1.125,0.58523 -1.125,1.35053 0,0.76531 0.4875,1.35053 1.125,1.35053 z m -9.75,0 c 0.6375,0 1.125,-0.58522 1.125,-1.35053 0,-0.7653 -0.4875,-1.35053 -1.125,-1.35053 -0.6375,0 -1.125,0.58523 -1.125,1.35053 0,0.76531 0.4875,1.35053 1.125,1.35053 z m 16.125,4.50163 c -0.375,-7.02264 -5.2875,-12.60464 -11.25,-12.60464 -5.9625,0 -10.875,5.582 -11.25,12.60464 z"
       id="path4"
       style="clip-rule:evenodd;fill:#a1cd32;fill-opacity:1;fill-rule:evenodd;stroke-width:0.410867" />
    <path
       class="st1"
       d="m 419.03393,515.92642 c 0.375,-0.27008 0.825,-0.09 1.0125,0.31509 l 2.325,4.63673 0.825,1.48566 -0.7125,0.49526 c -1.425,0.9903 -2.625,2.34071 -3.5625,3.96129 -0.075,0.18007 -0.1125,0.36017 -0.1125,0.54024 0,1.57563 2.625,2.83601 5.8875,2.83601 5.8125,0 10.5,-1.98069 10.5,-4.45667 0,-0.6752 -0.3375,-1.30539 -0.975,-1.84556 h 1.35 l 3.75,8.55305 h -4.875 v 1.35048 h -18.825 l 0.0375,-0.94531 c 0.2625,-4.63668 2.325,-8.64312 5.3625,-11.07408 l -2.25001,-4.6365 c -0.18749,-0.40509 -0.075,-0.99062 0.26251,-1.21569 z"
       id="path6"
       style="fill:#f0f0f0;fill-opacity:1;stroke-width:0.410867" />
    <path
       class="st2"
       d="m 433.58393,533.798 h 6.0375 l -0.0375,-0.94531 c -0.2625,-4.63668 -2.325,-8.64312 -5.3625,-11.07408 l 2.25,-4.6365 c 0.225,-0.4501 0.075,-0.99062 -0.2625,-1.21569 -0.33748,-0.22507 -0.825,-0.13504 -1.04999,0.31509 l -2.28751,4.63673 c -1.575,-0.94528 -3.375,-1.48545 -5.2875,-1.48545 -1.9125,0 -3.7125,0.54017 -5.325,1.48545 l 0.75,1.53067 v 0.0457 c 1.3875,-0.81024 2.925,-1.26042 4.575,-1.26042 5.2875,0 9.675,4.68167 10.3875,10.80386 h -4.38751 z"
       id="path8"
       style="fill:#263740;fill-opacity:1;stroke-width:0.410867" />
    <path
       class="fil1"
       d="m 422.85226,524.83 c 1.057,0 1.86529,0.87047 1.86529,1.86529 0,1.05699 -0.80829,1.86528 -1.86529,1.86528 -1.05699,0 -1.86528,-0.87047 -1.86528,-1.86528 0,-1.057 0.80829,-1.86529 1.86528,-1.86529 z m 1.11917,1.36788 c 0.24871,0 0.49741,0.18652 0.49741,0.49741 0,0.2487 -0.18652,0.49741 -0.49741,0.49741 -0.2487,0 -0.4974,-0.18653 -0.4974,-0.49741 0,-0.24871 0.18652,-0.49741 0.4974,-0.49741 z"
       id="path12"
       style="fill:#263740;fill-opacity:1;stroke-width:0.0621762;image-rendering:optimizeQuality;shape-rendering:geometricPrecision;text-rendering:geometricPrecision" />
    <path
       class="fil1"
       d="m 431.85226,524.73 c 1.057,0 1.86529,0.87047 1.86529,1.86528 0,1.057 -0.80829,1.86529 -1.86529,1.86529 -1.05699,0 -1.86528,-0.87047 -1.86528,-1.86529 0,-1.05699 0.80829,-1.86528 1.86528,-1.86528 z m 1.11917,1.36788 c 0.24871,0 0.49741,0.18652 0.49741,0.4974 0,0.24871 -0.18652,0.49742 -0.49741,0.49742 -0.2487,0 -0.4974,-0.18653 -0.4974,-0.49742 0,-0.2487 0.18652,-0.4974 0.4974,-0.4974 z"
       id="path12-3"
       style="fill:#263740;fill-opacity:1;stroke-width:0.0621762;image-rendering:optimizeQuality;shape-rendering:geometricPrecision;text-rendering:geometricPrecision" />
  </g>
</svg>
