<?xml version="1.0" encoding="UTF-8" standalone="no"?>
<svg
   id="svg2"
   height="64"
   version="1.1"
   width="64"
   sodipodi:docname="folder-unlocked.svg"
   inkscape:version="1.1.1 (3bf5ae0d25, 2021-09-20)"
   xmlns:inkscape="http://www.inkscape.org/namespaces/inkscape"
   xmlns:sodipodi="http://sodipodi.sourceforge.net/DTD/sodipodi-0.dtd"
   xmlns:xlink="http://www.w3.org/1999/xlink"
   xmlns="http://www.w3.org/2000/svg"
   xmlns:svg="http://www.w3.org/2000/svg"
   xmlns:rdf="http://www.w3.org/1999/02/22-rdf-syntax-ns#"
   xmlns:cc="http://creativecommons.org/ns#"
   xmlns:dc="http://purl.org/dc/elements/1.1/">
  <sodipodi:namedview
     pagecolor="#ffffff"
     bordercolor="#666666"
     borderopacity="1"
     objecttolerance="10"
     gridtolerance="10"
     guidetolerance="10"
     inkscape:pageopacity="0"
     inkscape:pageshadow="2"
     inkscape:window-width="1920"
     inkscape:window-height="1013"
     id="namedview18"
     showgrid="true"
     inkscape:zoom="10.210463"
     inkscape:cx="16.355772"
     inkscape:cy="41.036338"
     inkscape:window-x="0"
     inkscape:window-y="0"
     inkscape:window-maximized="1"
     inkscape:current-layer="svg2"
     inkscape:document-rotation="0"
     inkscape:pagecheckerboard="0">
    <inkscape:grid
       type="xygrid"
       id="grid1095" />
  </sodipodi:namedview>
  <defs
     id="defs5455">
    <linearGradient
       gradientTransform="matrix(1 0 0 0.99967455 0 0.17645)"
       x2="0"
       gradientUnits="userSpaceOnUse"
       y2="499.78421"
       y1="541.79797"
       xlink:href="#linearGradient4172-5"
       id="linearGradient4178" />
    <linearGradient
       id="linearGradient4172-5">
      <stop
         id="stop4174-6"
         style="stop-color:#3daee9" />
      <stop
         id="stop4176-6"
         style="stop-color:#6cc1ef"
         offset="1" />
    </linearGradient>
  </defs>
  <metadata
     id="metadata5458">
    <rdf:RDF>
      <cc:Work
         rdf:about="">
        <dc:format>image/svg+xml</dc:format>
        <dc:type
           rdf:resource="http://purl.org/dc/dcmitype/StillImage" />
      </cc:Work>
    </rdf:RDF>
  </metadata>
  <path
     style="fill:#8484ac;fill-opacity:1;stroke-width:0.181749"
     d="m 25.217841,12.215281 c -0.74951,1.6e-4 -1.63666,-0.62441 -1.97259,-1.38766 l -1.50654,-3.4299595 c -0.33522,-0.76325 -1.22239,-1.38715 -1.97192,-1.38766 l -14.7841403,-0.01 c -2.97438,-0.002 -4.97593995,2.00879 -4.96944995,4.9842695 v 0 0 L 7.4826285e-7,52.980071 C -9.9925174e-4,57.000011 0.9999907,57.985061 4.9975307,57.986091 l 54.1399203,0.0139 c 4.91919,10e-4 4.96682,-0.0209 4.96238,-5.05526 l -0.0315,-35.73667 c -0.003,-3.01292 -2.00335,-5.00069 -5.03522,-5.00004 z"
     id="path16"
     sodipodi:nodetypes="sccsscccsssssss" />
  <g
     id="g24"
     transform="matrix(0.17007976,0,0,0.19391466,-10.198069,-18.045409)">
    <path
       style="fill:#efefef;fill-opacity:1"
       d="m 179.58,131.156 8.844,17.688 c 1.968,3.936 4.8248,7.156 9.2248,7.156 H 208 c -4.4,0 -9.608,-3.22 -11.58,-7.156 l -8.844,-17.688 c -1.968,-3.936 -7.17873,-7.15601 -11.57873,-7.15601 L 168,124 c 4.4,0 9.608,3.22 11.58,7.156 z"
       id="path18"
       sodipodi:nodetypes="cssccsscc" />
    <rect
       x="75.888275"
       y="176.05383"
       style="fill:#263740;fill-opacity:1;stroke-width:0.991651"
       width="345.64072"
       height="205.93738"
       id="rect22"
       ry="10.823075" />
  </g>
  <rect
     x="3.1500003"
     y="16.500015"
     style="fill:#9494b7;fill-opacity:1;stroke-width:0.18223"
     width="57.900002"
     height="39"
     id="rect26"
     ry="1.6662751" />
  <rect
     x="4.5489869"
     y="18.193008"
     style="fill:#ffffff;stroke-width:0.181607"
     width="55.1059"
     height="35.680298"
     id="rect28"
     ry="1.1992956" />
  <g
     id="g36"
     transform="matrix(0.17007976,0,0,0.19391466,-11.003579,-19.144719)">
    <polygon
       style="fill:#aaccff"
       points="172,276 100,276 100,272 168,204 172,204 "
       id="polygon34"
       transform="translate(-8.8452971)" />
  </g>
  <polygon
     style="fill:#2a7fff"
     points="168,272 100,272 168,204 "
     id="polygon38"
     transform="matrix(0.17007976,0,0,0.19391466,-12.407989,-19.144719)" />
  <path
     style="opacity:0.7;fill:#8484ac;fill-opacity:1;stroke-width:0.182212"
     d="M 14.436781,20.491061 2.6999907,33.352011 v 20.81904 c 0.0483,1.33341 1.06398,1.80853 1.83729,1.87677 l 54.7606003,0.0379 c 2.10558,10e-4 2.16611,-1.86142 2.16611,-1.86142 v -33.73329 z"
     id="path30-3"
     sodipodi:nodetypes="ccccsccc" />
  <path
     id="Lock-7"
     class="st0"
     d="m 48.8875,44.503846 c 0,0.496566 -0.2825,0.926923 -0.70625,1.158654 v 1.489698 c 0,0.364148 -0.31781,0.662088 -0.70625,0.662088 -0.38844,0 -0.70625,-0.29794 -0.70625,-0.662088 V 45.6625 C 46.345,45.430769 46.0625,45.000412 46.0625,44.503846 c 0,-0.728297 0.63563,-1.324176 1.4125,-1.324176 0.77688,0 1.4125,0.595879 1.4125,1.324176 z m 3.53125,-5.958791 h 1.4125 v 1.324176 H 55.95 v 7.282967 c 0,1.820742 -1.58906,3.310439 -3.53125,3.310439 H 39 V 39.869231 h 13.41875 z"
     style="clip-rule:evenodd;fill:#f0f0f0;fill-opacity:1;fill-rule:evenodd;stroke-width:0.341906" />
  <path
     id="Lock-s-5"
     class="st1"
     d="m 42.53125,36.768999 h -1.4125 V 36.558791 C 41.11875,33.281456 43.97906,30.6 47.475,30.6 c 3.49594,0 6.35625,2.681456 6.35625,5.958791 v 1.986264 h -1.4125 v -1.986264 c 0,-2.549038 -2.22469,-4.634615 -4.94375,-4.634615 -2.71906,0 -4.94375,2.085577 -4.94375,4.634615 z M 55.95,39.869231 h -3.53125 v 1.324176 h 2.11875 v 6.620879 c 0,1.456593 -1.27125,2.648351 -2.825,2.648351 h -11.3 v 1.324176 h 11.3 c 2.33063,0 4.2375,-1.787637 4.2375,-3.972527 z"
     style="fill:#263740;fill-opacity:1;stroke-width:0.341906"
     sodipodi:nodetypes="ccsssccssscccccssccssc" />
</svg>
