<?xml version="1.0" encoding="UTF-8" standalone="no"?>
<svg
   width="64"
   version="1.1"
   height="64"
   id="svg15"
   sodipodi:docname="folder-presentation.svg"
   inkscape:version="1.1.1 (3bf5ae0d25, 2021-09-20)"
   xmlns:inkscape="http://www.inkscape.org/namespaces/inkscape"
   xmlns:sodipodi="http://sodipodi.sourceforge.net/DTD/sodipodi-0.dtd"
   xmlns="http://www.w3.org/2000/svg"
   xmlns:svg="http://www.w3.org/2000/svg"
   xmlns:rdf="http://www.w3.org/1999/02/22-rdf-syntax-ns#"
   xmlns:cc="http://creativecommons.org/ns#"
   xmlns:dc="http://purl.org/dc/elements/1.1/">
  <sodipodi:namedview
     pagecolor="#ffffff"
     bordercolor="#666666"
     borderopacity="1"
     objecttolerance="10"
     gridtolerance="10"
     guidetolerance="10"
     inkscape:pageopacity="0"
     inkscape:pageshadow="2"
     inkscape:window-width="1920"
     inkscape:window-height="1013"
     id="namedview17"
     showgrid="true"
     inkscape:zoom="8.0000001"
     inkscape:cx="22.25"
     inkscape:cy="38"
     inkscape:window-x="0"
     inkscape:window-y="0"
     inkscape:window-maximized="1"
     inkscape:current-layer="layer1"
     inkscape:document-rotation="0"
     inkscape:pagecheckerboard="0"
     inkscape:lockguides="true">
    <inkscape:grid
       type="xygrid"
       id="grid850" />
  </sodipodi:namedview>
  <defs
     id="defs5455" />
  <metadata
     id="metadata5458">
    <rdf:RDF>
      <cc:Work
         rdf:about="">
        <dc:format>image/svg+xml</dc:format>
        <dc:type
           rdf:resource="http://purl.org/dc/dcmitype/StillImage" />
      </cc:Work>
    </rdf:RDF>
  </metadata>
  <g
     inkscape:label="Capa 1"
     inkscape:groupmode="layer"
     id="layer1"
     transform="translate(-384.57143,-483.798)">
    <g
       transform="matrix(0.74351172,0,0,0.74285356,332.49565,-244.90835)"
       id="g4" />
    <path
       style="fill:#8484ac;fill-opacity:1;stroke-width:0.181749"
       d="m 409.78928,496.01327 c -0.74951,1.6e-4 -1.63666,-0.62441 -1.97259,-1.38766 l -1.50654,-3.42996 c -0.33522,-0.76325 -1.22239,-1.38715 -1.97192,-1.38766 l -14.78414,-0.01 c -2.97438,-0.002 -4.97594,2.00879 -4.96945,4.98427 v 0 0 l -0.0132,41.9958 c -10e-4,4.01994 0.99999,5.00499 4.99753,5.00602 l 54.13992,0.0139 c 4.91919,10e-4 4.96682,-0.0209 4.96238,-5.05526 l -0.0315,-35.73667 c -0.003,-3.01292 -2.00335,-5.00069 -5.03522,-5.00004 z"
       id="path16"
       sodipodi:nodetypes="sccsscccsssssss" />
    <g
       id="g24"
       transform="matrix(0.17007976,0,0,0.19391466,374.37337,465.75258)">
      <path
         style="fill:#efefef;fill-opacity:1"
         d="m 179.58,131.156 8.844,17.688 c 1.968,3.936 4.8248,7.156 9.2248,7.156 H 208 c -4.4,0 -9.608,-3.22 -11.58,-7.156 l -8.844,-17.688 c -1.968,-3.936 -7.17873,-7.15601 -11.57873,-7.15601 L 168,124 c 4.4,0 9.608,3.22 11.58,7.156 z"
         id="path18"
         sodipodi:nodetypes="cssccsscc" />
      <rect
         x="75.888275"
         y="176.05383"
         style="fill:#263740;fill-opacity:1;stroke-width:0.991651"
         width="345.64072"
         height="205.93738"
         id="rect22"
         ry="10.823075" />
    </g>
    <rect
       x="387.72144"
       y="500.298"
       style="fill:#9494b7;fill-opacity:1;stroke-width:0.18223"
       width="57.900002"
       height="39"
       id="rect26"
       ry="1.6662751" />
    <rect
       x="389.12042"
       y="501.991"
       style="fill:#ffffff;stroke-width:0.181607"
       width="55.1059"
       height="35.680298"
       id="rect28"
       ry="1.1992956" />
    <g
       id="g36"
       transform="matrix(0.17007976,0,0,0.19391466,373.56786,464.65327)">
      <polygon
         style="fill:#aaccff"
         points="172,204 172,276 100,276 100,272 168,204 "
         id="polygon34"
         transform="translate(-8.8452971)" />
    </g>
    <polygon
       style="fill:#2a7fff"
       points="168,272 100,272 168,204 "
       id="polygon38"
       transform="matrix(0.17007976,0,0,0.19391466,372.16345,464.65327)" />
    <path
       style="opacity:0.7;fill:#8484ac;stroke-width:0.182212;fill-opacity:1"
       d="M 399.00822,504.28905 387.27143,517.15 v 20.81904 c 0.0483,1.33341 1.06398,1.80853 1.83729,1.87677 l 54.7606,0.0379 c 2.10558,0.001 2.16611,-1.86142 2.16611,-1.86142 V 504.289 Z"
       id="path30-3"
       sodipodi:nodetypes="ccccsccc" />
    <path
       id="Heartbeat"
       class="st0"
       d="m 432.74272,530.55543 c 0.94285,0 1.71428,-0.77143 1.71428,-1.71429 0,-0.94285 -0.77143,-1.71428 -1.71428,-1.71428 -0.94286,0 -1.71429,0.77143 -1.71429,1.71428 0,0.94286 0.77143,1.71429 1.71429,1.71429 z m -18,-20.57143 h 24 v 18 c 0,2.35714 -1.92858,4.28571 -4.28572,4.28571 h -19.71428 v -12 h 4.84285 l 1.54286,-3.72857 3.42857,8.52857 2.65714,-6.21428 0.68572,1.37143 h 9.12857 v -1.71429 h -8.05714 l -1.88572,-3.77143 -2.48571,5.78572 -3.42857,-8.52857 -2.7,6.55714 h -5.44286 v -1.71429 h 1.71429 z"
       style="clip-rule:evenodd;fill:#f0f0f0;fill-opacity:1;fill-rule:evenodd;stroke-width:0.428571" />
    <path
       id="Heartbeat-s"
       class="st1"
       d="m 437.02843,511.69829 h 1.71429 v 5.14285 h 1.71428 v 1.71429 h -3.42857 z m -3.42857,20.57142 H 416.457 v 1.71429 h 17.14286 c 2.82857,0 5.14286,-2.31429 5.14286,-5.14286 v -8.57143 h -1.71429 v 8.57143 c 0,1.88572 -1.54286,3.42857 -3.42857,3.42857 z m -15.42857,-1.71428 h 2.57143 v -1.71429 h -2.57143 z m 4.28571,0 h 2.57143 v -1.71429 H 422.457 Z"
       style="fill:#263740;fill-opacity:1;stroke-width:0.428571" />
  </g>
</svg>
