<?xml version="1.0" encoding="UTF-8" standalone="no"?>
<svg
   width="64"
   version="1.1"
   height="64"
   id="svg15"
   sodipodi:docname="folder-build.svg"
   inkscape:version="1.1.1 (3bf5ae0d25, 2021-09-20)"
   xmlns:inkscape="http://www.inkscape.org/namespaces/inkscape"
   xmlns:sodipodi="http://sodipodi.sourceforge.net/DTD/sodipodi-0.dtd"
   xmlns:xlink="http://www.w3.org/1999/xlink"
   xmlns="http://www.w3.org/2000/svg"
   xmlns:svg="http://www.w3.org/2000/svg"
   xmlns:rdf="http://www.w3.org/1999/02/22-rdf-syntax-ns#"
   xmlns:cc="http://creativecommons.org/ns#"
   xmlns:dc="http://purl.org/dc/elements/1.1/">
  <sodipodi:namedview
     pagecolor="#ffffff"
     bordercolor="#666666"
     borderopacity="1"
     objecttolerance="10"
     gridtolerance="10"
     guidetolerance="10"
     inkscape:pageopacity="0"
     inkscape:pageshadow="2"
     inkscape:window-width="1920"
     inkscape:window-height="1013"
     id="namedview17"
     showgrid="true"
     inkscape:zoom="8.0000001"
     inkscape:cx="22.125"
     inkscape:cy="38"
     inkscape:window-x="0"
     inkscape:window-y="0"
     inkscape:window-maximized="1"
     inkscape:current-layer="layer1"
     inkscape:document-rotation="0"
     inkscape:pagecheckerboard="0"
     inkscape:lockguides="true">
    <inkscape:grid
       type="xygrid"
       id="grid850" />
  </sodipodi:namedview>
  <defs
     id="defs5455">
    <linearGradient
       inkscape:collect="always"
       id="linearGradient1154">
      <stop
         style="stop-color:#ffffff;stop-opacity:1"
         offset="0"
         id="stop1150" />
      <stop
         style="stop-color:#1a1a1a;stop-opacity:1"
         offset="0.06666645"
         id="stop1768" />
      <stop
         style="stop-color:#232629;stop-opacity:1"
         offset="1"
         id="stop1152" />
    </linearGradient>
    <linearGradient
       inkscape:collect="always"
       xlink:href="#linearGradient1154"
       id="linearGradient1156"
       x1="425.57144"
       y1="522.79797"
       x2="431.57144"
       y2="524.79797"
       gradientUnits="userSpaceOnUse" />
  </defs>
  <metadata
     id="metadata5458">
    <rdf:RDF>
      <cc:Work
         rdf:about="">
        <dc:format>image/svg+xml</dc:format>
        <dc:type
           rdf:resource="http://purl.org/dc/dcmitype/StillImage" />
      </cc:Work>
    </rdf:RDF>
  </metadata>
  <g
     inkscape:label="Capa 1"
     inkscape:groupmode="layer"
     id="layer1"
     transform="translate(-384.57143,-483.798)">
    <g
       transform="matrix(0.74351172,0,0,0.74285356,332.49565,-244.90835)"
       id="g4" />
    <path
       style="fill:#8484ac;fill-opacity:1;stroke-width:0.181749"
       d="m 409.78928,496.01327 c -0.74951,1.6e-4 -1.63666,-0.62441 -1.97259,-1.38766 l -1.50654,-3.42996 c -0.33522,-0.76325 -1.22239,-1.38715 -1.97192,-1.38766 l -14.78414,-0.01 c -2.97438,-0.002 -4.97594,2.00879 -4.96945,4.98427 v 0 0 l -0.0132,41.9958 c -10e-4,4.01994 0.99999,5.00499 4.99753,5.00602 l 54.13992,0.0139 c 4.91919,10e-4 4.96682,-0.0209 4.96238,-5.05526 l -0.0315,-35.73667 c -0.003,-3.01292 -2.00335,-5.00069 -5.03522,-5.00004 z"
       id="path16"
       sodipodi:nodetypes="sccsscccsssssss" />
    <g
       id="g24"
       transform="matrix(0.17007976,0,0,0.19391466,374.37337,465.75258)">
      <path
         style="fill:#efefef;fill-opacity:1"
         d="m 179.58,131.156 8.844,17.688 c 1.968,3.936 4.8248,7.156 9.2248,7.156 H 208 c -4.4,0 -9.608,-3.22 -11.58,-7.156 l -8.844,-17.688 c -1.968,-3.936 -7.17873,-7.15601 -11.57873,-7.15601 L 168,124 c 4.4,0 9.608,3.22 11.58,7.156 z"
         id="path18"
         sodipodi:nodetypes="cssccsscc" />
      <rect
         x="75.888275"
         y="176.05383"
         style="fill:#263740;fill-opacity:1;stroke-width:0.991651"
         width="345.64072"
         height="205.93738"
         id="rect22"
         ry="10.823075" />
    </g>
    <rect
       x="387.72144"
       y="500.298"
       style="fill:#9494b7;fill-opacity:1;stroke-width:0.18223"
       width="57.900002"
       height="39"
       id="rect26"
       ry="1.6662751" />
    <rect
       x="389.12042"
       y="501.991"
       style="fill:#ffffff;stroke-width:0.181607"
       width="55.1059"
       height="35.680298"
       id="rect28"
       ry="1.1992956" />
    <g
       id="g36"
       transform="matrix(0.17007976,0,0,0.19391466,373.56786,464.65327)">
      <polygon
         style="fill:#aaccff"
         points="100,276 100,272 168,204 172,204 172,276 "
         id="polygon34"
         transform="translate(-8.8452971)" />
    </g>
    <polygon
       style="fill:#2a7fff"
       points="168,204 168,272 100,272 "
       id="polygon38"
       transform="matrix(0.17007976,0,0,0.19391466,372.16345,464.65327)" />
    <path
       style="opacity:0.7;fill:#8484ac;fill-opacity:1;stroke-width:0.182212"
       d="M 399.00822,504.28905 387.27143,517.15 v 20.81904 c 0.0483,1.33341 1.06398,1.80853 1.83729,1.87677 l 54.7606,0.0379 c 2.10558,0.001 2.16611,-1.86142 2.16611,-1.86142 V 504.289 Z"
       id="path30-3"
       sodipodi:nodetypes="ccccsccc" />
    <path
       style="color:#232629;fill:url(#linearGradient1156);fill-opacity:1;stroke:none"
       d="m 434.71791,510.76089 -0.31054,1.06054 c -0.636,-0.053 -1.27672,0.0171 -1.88672,0.20508 l -0.5293,-0.96875 -1.75586,0.95899 0.5293,0.96875 c -0.489,0.412 -0.89336,0.91256 -1.19336,1.47656 l -1.05664,-0.30859 -0.5625,1.91796 1.06054,0.31055 c -0.053,0.636 0.0151,1.27867 0.20313,1.88867 l -0.96875,0.5293 0.95898,1.75586 0.96875,-0.53125 c 0.412,0.489 0.91452,0.89531 1.47852,1.19531 l -0.31055,1.05664 1.91992,0.5625 0.31055,-1.06054 c 0.636,0.053 1.27672,-0.0171 1.88672,-0.20508 l 0.53125,0.96875 1.75391,-0.95899 -0.5293,-0.96875 c 0.489,-0.412 0.89336,-0.91256 1.19336,-1.47656 l 1.05664,0.30859 0.5625,-1.91796 -1.06055,-0.31055 c 0.053,-0.636 -0.0151,-1.27867 -0.20312,-1.88867 l 0.96875,-0.5293 -0.95899,-1.75586 -0.96875,0.53125 c -0.412,-0.489 -0.91451,-0.89531 -1.47851,-1.19531 l 0.31054,-1.05664 z m -0.98828,2.04883 c 0.19847,-0.0129 0.39873,-0.0109 0.59766,0.006 0.26523,0.0223 0.52981,0.0705 0.78906,0.14648 0.998,0.293 1.84347,0.96314 2.35547,1.86914 0.532,0.94 0.66142,2.05675 0.35742,3.09375 -0.293,0.998 -0.96314,1.84347 -1.86914,2.35547 -0.94,0.532 -2.05675,0.66142 -3.09375,0.35742 -0.998,-0.293 -1.84542,-0.96314 -2.35742,-1.86914 -0.532,-0.94 -0.66142,-2.05675 -0.35742,-3.09375 0.293,-0.998 0.96314,-1.84347 1.86914,-2.35547 0.52875,-0.29925 1.11358,-0.47098 1.70898,-0.50976 z m -13.33008,2.92187 -1.99023,0.19531 0.10742,1.09961 c -0.61,0.188 -1.17783,0.49058 -1.67383,0.89258 l -0.85547,-0.70117 -1.26953,1.54492 0.85352,0.70117 c -0.3,0.565 -0.48669,1.18236 -0.55469,1.81836 l -1.0957,0.10742 0.19531,1.99024 1.09961,-0.10742 c 0.188,0.61 0.49058,1.17782 0.89258,1.67382 l -0.70117,0.85547 1.54492,1.26953 0.70117,-0.85351 c 0.565,0.3 1.18236,0.48669 1.81836,0.55469 l 0.10742,1.0957 1.99024,-0.19531 -0.10743,-1.09961 c 0.61,-0.188 1.17783,-0.49058 1.67383,-0.89258 l 0.85547,0.70117 1.26953,-1.54492 -0.85351,-0.70117 c 0.3,-0.565 0.48668,-1.18236 0.55468,-1.81836 l 1.09571,-0.10742 -0.19532,-1.99024 -1.09961,0.10742 c -0.188,-0.61 -0.49057,-1.17782 -0.89257,-1.67382 l 0.70117,-0.85547 -1.54492,-1.26953 -0.70118,0.85351 c -0.565,-0.3 -1.18235,-0.48669 -1.81835,-0.55469 z m -0.0273,2.08594 c 0.76604,0.0737 1.50083,0.36872 2.11133,0.85547 0.845,0.674 1.38133,1.66032 1.48633,2.73632 0.102,1.03601 -0.20452,2.07077 -0.85352,2.88477 -0.674,0.845 -1.66228,1.38133 -2.73828,1.48633 -1.036,0.102 -2.06881,-0.20452 -2.88281,-0.85352 -0.845,-0.674 -1.38133,-1.66228 -1.48633,-2.73828 -0.102,-1.036 0.20452,-2.06881 0.85352,-2.88281 0.674,-0.845 1.66033,-1.38133 2.73633,-1.48633 0.259,-0.0256 0.51809,-0.0265 0.77343,-0.002 z m 8.61719,3.98242 v 1.10547 c -0.626,0.128 -1.22091,0.37456 -1.75391,0.72656 l -0.78125,-0.78125 -1.41406,1.41406 0.78125,0.78125 c -0.353,0.533 -0.60147,1.12791 -0.73047,1.75391 h -1.10156 v 2 h 1.10547 c 0.128,0.626 0.37456,1.22091 0.72656,1.75391 l -0.78125,0.78125 1.41406,1.41406 0.78125,-0.78125 c 0.533,0.353 1.12791,0.60147 1.75391,0.73047 v 1.10156 h 2 v -1.10547 c 0.626,-0.128 1.2209,-0.37456 1.7539,-0.72656 l 0.78125,0.78125 1.41407,-1.41406 -0.78125,-0.78125 c 0.353,-0.533 0.60146,-1.12791 0.73046,-1.75391 h 1.10157 v -2 h -1.10547 c -0.128,-0.626 -0.37456,-1.22091 -0.72656,-1.75391 l 0.78125,-0.78125 -1.41407,-1.41406 -0.78125,0.78125 c -0.533,-0.353 -1.1279,-0.60147 -1.7539,-0.73047 v -1.10156 z m 1,2 c 1.041,0 2.04011,0.40586 2.78711,1.13086 0.775,0.753 1.21289,1.78814 1.21289,2.86914 0,1.041 -0.40586,2.04011 -1.13086,2.78711 -0.753,0.775 -1.78814,1.21289 -2.86914,1.21289 -1.041,0 -2.04011,-0.40586 -2.78711,-1.13086 -0.775,-0.753 -1.21289,-1.78814 -1.21289,-2.86914 0,-1.041 0.40586,-2.04011 1.13086,-2.78711 0.753,-0.775 1.78814,-1.21289 2.86914,-1.21289 z"
       class="ColorScheme-Text"
       id="path12" />
  </g>
</svg>
