<?xml version="1.0" encoding="UTF-8" standalone="no"?>
<svg
   width="64"
   version="1.1"
   height="64"
   id="svg17"
   sodipodi:docname="folder-documents.svg"
   inkscape:version="1.1.1 (3bf5ae0d25, 2021-09-20)"
   xmlns:inkscape="http://www.inkscape.org/namespaces/inkscape"
   xmlns:sodipodi="http://sodipodi.sourceforge.net/DTD/sodipodi-0.dtd"
   xmlns:xlink="http://www.w3.org/1999/xlink"
   xmlns="http://www.w3.org/2000/svg"
   xmlns:svg="http://www.w3.org/2000/svg"
   xmlns:rdf="http://www.w3.org/1999/02/22-rdf-syntax-ns#"
   xmlns:cc="http://creativecommons.org/ns#"
   xmlns:dc="http://purl.org/dc/elements/1.1/"
   xmlns:i="http://ns.adobe.com/AdobeIllustrator/10.0/">
  <sodipodi:namedview
     pagecolor="#ffffff"
     bordercolor="#666666"
     borderopacity="1"
     objecttolerance="10"
     gridtolerance="10"
     guidetolerance="10"
     inkscape:pageopacity="0"
     inkscape:pageshadow="2"
     inkscape:window-width="1920"
     inkscape:window-height="1013"
     id="namedview19"
     showgrid="true"
     inkscape:zoom="8"
     inkscape:cx="8.625"
     inkscape:cy="24.25"
     inkscape:window-x="0"
     inkscape:window-y="0"
     inkscape:window-maximized="1"
     inkscape:current-layer="layer1"
     inkscape:document-rotation="0"
     inkscape:pagecheckerboard="0">
    <inkscape:grid
       type="xygrid"
       id="grid1076" />
  </sodipodi:namedview>
  <defs
     id="defs5455">
    <linearGradient
       inkscape:collect="always"
       id="linearGradient934">
      <stop
         style="stop-color:#ffcc00;stop-opacity:1"
         offset="0"
         id="stop930" />
      <stop
         style="stop-color:#00ffff;stop-opacity:1"
         offset="1"
         id="stop932" />
    </linearGradient>
    <linearGradient
       inkscape:collect="always"
       xlink:href="#linearGradient934"
       id="linearGradient902"
       x1="12"
       y1="50"
       x2="87.900002"
       y2="50"
       gradientUnits="userSpaceOnUse" />
  </defs>
  <metadata
     id="metadata5458">
    <rdf:RDF>
      <cc:Work
         rdf:about="">
        <dc:format>image/svg+xml</dc:format>
        <dc:type
           rdf:resource="http://purl.org/dc/dcmitype/StillImage" />
      </cc:Work>
    </rdf:RDF>
  </metadata>
  <g
     inkscape:label="Capa 1"
     inkscape:groupmode="layer"
     id="layer1"
     transform="translate(-384.57143,-483.798)">
    <g
       id="g14"
       transform="matrix(0.21052632,0,0,0.21052632,406.01592,508.67457)"
       style="fill:url(#linearGradient902);fill-opacity:1">
      <g
         i:extraneous="self"
         id="g12"
         style="fill:url(#linearGradient902);fill-opacity:1">
        <g
           id="g10"
           style="fill:url(#linearGradient902);fill-opacity:1">
          <g
             id="g4"
             style="fill:url(#linearGradient902);fill-opacity:1" />
          <g
             id="g8"
             style="fill:url(#linearGradient902);fill-opacity:1" />
        </g>
      </g>
    </g>
    <path
       style="fill:#8484ac;fill-opacity:1;stroke-width:0.181722"
       d="m 409.77607,496.02713 c -0.74951,1.6e-4 -1.63666,-0.62423 -1.97259,-1.38724 l -1.50654,-3.42893 c -0.33522,-0.76302 -1.22239,-1.38673 -1.97192,-1.38724 l -14.78414,-0.01 c -2.97438,-0.002 -4.97594,2.00818 -4.96945,4.98276 v 0 0 l -0.0132,41.9831 c -10e-4,4.01872 0.99999,5.00347 4.99753,5.0045 l 54.13992,0.0139 c 4.91919,10e-4 4.96682,-0.0209 4.96238,-5.05373 l -0.0315,-35.72586 c -0.003,-3.01201 -2.00335,-4.99918 -5.03522,-4.99853 z"
       id="path16"
       sodipodi:nodetypes="sccsscccsssssss" />
    <g
       id="g24"
       transform="matrix(0.17007976,0,0,0.19385601,374.37336,465.75986)">
      <path
         style="fill:#efefef;fill-opacity:1"
         d="m 179.58,131.156 8.844,17.688 c 1.968,3.936 4.8248,7.156 9.2248,7.156 H 208 c -4.4,0 -9.608,-3.22 -11.58,-7.156 l -8.844,-17.688 c -1.968,-3.936 -7.17873,-7.15601 -11.57873,-7.15601 L 168,124 c 4.4,0 9.608,3.22 11.58,7.156 z"
         id="path18"
         sodipodi:nodetypes="cssccsscc" />
      <rect
         x="75.888275"
         y="176.05383"
         style="fill:#263740;fill-opacity:1;stroke-width:0.991651"
         width="345.64072"
         height="205.93738"
         id="rect22"
         ry="10.823075" />
    </g>
    <rect
       x="387.72141"
       y="500.29489"
       style="fill:#9494b7;fill-opacity:1;stroke-width:0.182202"
       width="57.900002"
       height="38.988205"
       id="rect26"
       ry="1.6657711" />
    <rect
       x="389.12039"
       y="501.98737"
       style="fill:#ffffff;stroke-width:0.18158"
       width="55.1059"
       height="35.669506"
       id="rect28"
       ry="1.1989329" />
    <g
       id="g36"
       transform="matrix(0.17007976,0,0,0.19385601,373.56785,464.66089)">
      <polygon
         style="fill:#aaccff"
         points="100,272 168,204 172,204 172,276 100,276 "
         id="polygon34"
         transform="translate(-8.8452971)" />
    </g>
    <polygon
       style="fill:#2a7fff"
       points="168,272 100,272 168,204 "
       id="polygon38"
       transform="matrix(0.17007976,0,0,0.19385601,372.16344,464.66089)" />
    <path
       style="opacity:0.7;fill:#8484ac;fill-opacity:1;stroke-width:0.18224"
       d="m 399.0154,504.28468 -11.74398,12.85706 v 20.81274 c 0.0483,1.33301 1.06463,1.80798 1.83842,1.8762 l 54.79414,0.0379 c 2.10688,0.001 2.16744,-1.86086 2.16744,-1.86086 v -33.72308 z"
       id="path30-3"
       sodipodi:nodetypes="ccccsccc" />
    <path
       id="Page_1_-7-6"
       class="st0"
       d="m 436.57143,516.28999 v 2.99909 h -1.5 v -4.49864 h -10.5 v 19.4941 h 12.75 c 2.0625,0 3.75,-1.68699 3.75,-3.74886 v -9.74706 z m -9,2.24931 h 4.5 v 1.49955 h -4.5 z m 0,3.74887 h 4.5 v 1.49955 h -4.5 z m 9,8.99728 h -9 v -1.49955 h 9 z m 1.5,-3.74887 h -10.5 v -1.49954 h 10.5 z"
       style="fill:#f0f0f0;fill-opacity:1;stroke-width:0.374943" />
    <path
       id="Page-s-5-2"
       class="st1"
       d="m 435.07143,520.78862 h 6 v 10.49683 c 0,2.47425 -2.025,4.49864 -4.5,4.49864 h -10.5 v -1.49955 h 10.5 c 1.65,0 3,-1.34959 3,-2.99909 v -8.99728 h -4.5 z m -13.5,-5.99818 c 0,-1.6495 1.35,-2.99909 3,-2.99909 h 7.5 v 1.49954 h -7.5 c -0.825,0 -1.5,0.6748 -1.5,1.49955 v 12.74614 h -1.5 z"
       style="fill:#263740;fill-opacity:1;stroke-width:0.374943" />
  </g>
</svg>
