<?xml version="1.0" encoding="UTF-8" standalone="no"?>
<svg
   width="64"
   version="1.1"
   height="64"
   id="svg17"
   sodipodi:docname="folder-chart.svg"
   inkscape:version="1.1.1 (3bf5ae0d25, 2021-09-20)"
   xmlns:inkscape="http://www.inkscape.org/namespaces/inkscape"
   xmlns:sodipodi="http://sodipodi.sourceforge.net/DTD/sodipodi-0.dtd"
   xmlns="http://www.w3.org/2000/svg"
   xmlns:svg="http://www.w3.org/2000/svg"
   xmlns:rdf="http://www.w3.org/1999/02/22-rdf-syntax-ns#"
   xmlns:cc="http://creativecommons.org/ns#"
   xmlns:dc="http://purl.org/dc/elements/1.1/">
  <sodipodi:namedview
     pagecolor="#ffffff"
     bordercolor="#666666"
     borderopacity="1"
     objecttolerance="10"
     gridtolerance="10"
     guidetolerance="10"
     inkscape:pageopacity="0"
     inkscape:pageshadow="2"
     inkscape:window-width="1920"
     inkscape:window-height="1013"
     id="namedview19"
     showgrid="true"
     inkscape:zoom="4.9062502"
     inkscape:cx="27.515922"
     inkscape:cy="29.554139"
     inkscape:window-x="0"
     inkscape:window-y="0"
     inkscape:window-maximized="1"
     inkscape:current-layer="layer1"
     inkscape:document-rotation="0"
     inkscape:pagecheckerboard="0">
    <inkscape:grid
       type="xygrid"
       id="grid941" />
  </sodipodi:namedview>
  <defs
     id="defs5455" />
  <metadata
     id="metadata5458">
    <rdf:RDF>
      <cc:Work
         rdf:about="">
        <dc:format>image/svg+xml</dc:format>
        <dc:type
           rdf:resource="http://purl.org/dc/dcmitype/StillImage" />
      </cc:Work>
    </rdf:RDF>
  </metadata>
  <g
     inkscape:label="Capa 1"
     inkscape:groupmode="layer"
     id="layer1"
     transform="translate(-384.57143,-483.798)">
    <g
       inkscape:label="Capa 1"
       id="layer1-9" />
    <g
       transform="matrix(0.74255505,0,0,0.74255505,332.55689,-244.56411)"
       id="g4" />
    <path
       style="fill:#8484ac;fill-opacity:1;stroke-width:0.181749"
       d="m 409.78928,496.01328 c -0.74951,1.6e-4 -1.63666,-0.62441 -1.97259,-1.38766 l -1.50654,-3.42996 c -0.33522,-0.76325 -1.22239,-1.38715 -1.97192,-1.38766 l -14.78414,-0.01 c -2.97438,-0.002 -4.97594,2.00879 -4.96945,4.98427 v 0 0 l -0.0132,41.9958 c -10e-4,4.01994 0.99999,5.00499 4.99753,5.00602 l 54.13992,0.0139 c 4.91919,10e-4 4.96682,-0.0209 4.96238,-5.05526 l -0.0315,-35.73667 c -0.003,-3.01292 -2.00335,-5.00069 -5.03522,-5.00004 z"
       id="path16"
       sodipodi:nodetypes="sccsscccsssssss" />
    <g
       id="g24"
       transform="matrix(0.17007976,0,0,0.19391466,374.37337,465.75259)">
      <path
         style="fill:#efefef;fill-opacity:1"
         d="m 179.58,131.156 8.844,17.688 c 1.968,3.936 4.8248,7.156 9.2248,7.156 H 208 c -4.4,0 -9.608,-3.22 -11.58,-7.156 l -8.844,-17.688 c -1.968,-3.936 -7.17873,-7.15601 -11.57873,-7.15601 L 168,124 c 4.4,0 9.608,3.22 11.58,7.156 z"
         id="path18"
         sodipodi:nodetypes="cssccsscc" />
      <rect
         x="75.888275"
         y="176.05383"
         style="fill:#263740;fill-opacity:1;stroke-width:0.991651"
         width="345.64072"
         height="205.93738"
         id="rect22"
         ry="10.823075" />
    </g>
    <rect
       x="387.72144"
       y="500.29803"
       style="fill:#9494b7;fill-opacity:1;stroke-width:0.18223"
       width="57.900002"
       height="39"
       id="rect26"
       ry="1.6662751" />
    <rect
       x="389.12042"
       y="501.99103"
       style="fill:#ffffff;stroke-width:0.181607"
       width="55.1059"
       height="35.680298"
       id="rect28"
       ry="1.1992956" />
    <g
       id="g36"
       transform="matrix(0.17007976,0,0,0.19391466,373.56786,464.65328)">
      <polygon
         style="fill:#aaccff"
         points="100,276 100,272 168,204 172,204 172,276 "
         id="polygon34"
         transform="translate(-8.8452971)" />
    </g>
    <polygon
       style="fill:#2a7fff"
       points="100,272 168,204 168,272 "
       id="polygon38"
       transform="matrix(0.17007976,0,0,0.19391466,372.16345,464.65328)" />
    <path
       style="opacity:0.7;fill:#8484ac;stroke-width:0.182268;fill-opacity:1"
       d="m 399.01541,504.28906 -11.74398,12.86095 v 20.81904 c 0.0483,1.33341 1.06463,1.80853 1.83842,1.87677 l 54.79414,0.0379 c 2.10688,10e-4 2.16744,-1.86142 2.16744,-1.86142 v -33.73329 z"
       id="path30-3"
       sodipodi:nodetypes="ccccsccc" />
    <path
       id="Chart"
       class="st0"
       d="m 436.1,534.08371 h -19.71428 v -2.57142 H 418.1 l 0.85714,-3.42858 4.28572,-6 h 2.57143 l 0.85714,-0.85714 3.42857,1.71429 v 2.57143 h 3.42857 v -3.85715 l 4.71429,-6 2.14286,0.42857 V 529.798 c 0,2.35714 -1.92858,4.28571 -4.28572,4.28571 z"
       style="fill:#f0f0f0;stroke-width:0.428571;fill-opacity:1" />
    <path
       id="Chart-s"
       class="st1"
       d="m 439.52857,516.94086 c 1.41429,0 2.57143,-1.15715 2.57143,-2.57143 0,-1.41429 -1.15714,-2.57143 -2.57143,-2.57143 -1.41428,0 -2.57143,1.15714 -2.57143,2.57143 0,0.47143 0.12858,0.94286 0.38572,1.32857 l -4.67143,5.7 c -0.25714,-0.0857 -0.55714,-0.17143 -0.85714,-0.17143 -0.68572,0 -1.32857,0.25714 -1.8,0.72857 l -2.48572,-1.28571 c 0,-0.0857 0,-0.21429 0,-0.3 0,-1.41429 -1.15714,-2.57143 -2.57143,-2.57143 -1.41428,0 -2.57142,1.15714 -2.57142,2.57143 0,0.47143 0.12857,0.94286 0.38571,1.32857 l -4.67143,5.7 c -0.25714,-0.12857 -0.55714,-0.17143 -0.85714,-0.17143 -1.41429,0 -2.57143,1.15714 -2.57143,2.57143 0,1.41429 1.15714,2.57143 2.57143,2.57143 1.41428,0 2.57143,-1.15714 2.57143,-2.57143 0,-0.47143 -0.12857,-0.94286 -0.38572,-1.32857 l 4.67143,-5.7 c 0.25714,0.0857 0.55714,0.17143 0.85714,0.17143 0.68572,0 1.32858,-0.25715 1.8,-0.72857 l 2.52858,1.24285 c 0,0.0857 0,0.21429 0,0.3 0,1.41429 1.15714,2.57143 2.57142,2.57143 1.41429,0 2.57143,-1.15714 2.57143,-2.57143 0,-0.47143 -0.12857,-0.94285 -0.38571,-1.32857 l 4.62857,-5.65714 c 0.25714,0.12857 0.55714,0.17143 0.85714,0.17143 z m 0,-1.71429 c 0.47143,0 0.85715,-0.38571 0.85715,-0.85714 0,-0.47143 -0.38572,-0.85714 -0.85715,-0.85714 -0.47143,0 -0.85714,0.38571 -0.85714,0.85714 0,0.47143 0.38571,0.85714 0.85714,0.85714 z m -6.85714,8.57143 c 0,0.47143 -0.38571,0.85714 -0.85714,0.85714 -0.47143,0 -0.85715,-0.38571 -0.85715,-0.85714 0,-0.47143 0.38572,-0.85714 0.85715,-0.85714 0.47143,0 0.85714,0.38571 0.85714,0.85714 z m -7.71429,-2.57143 c 0.47143,0 0.85715,-0.38571 0.85715,-0.85714 0,-0.47143 -0.38572,-0.85714 -0.85715,-0.85714 -0.47142,0 -0.85714,0.38571 -0.85714,0.85714 0,0.47143 0.38572,0.85714 0.85714,0.85714 z M 418.1,529.798 c 0,0.47143 -0.38571,0.85714 -0.85714,0.85714 -0.47143,0 -0.85714,-0.38571 -0.85714,-0.85714 0,-0.47143 0.38571,-0.85714 0.85714,-0.85714 0.47143,0 0.85714,0.38571 0.85714,0.85714 z m 20.57143,-0.85714 h 1.71429 v 1.71428 c 0,2.82857 -2.31429,5.14286 -5.14286,5.14286 H 418.1 v -1.71429 h 17.14286 c 1.88571,0 3.42857,-1.54285 3.42857,-3.42857 z"
       style="clip-rule:evenodd;fill:#263740;fill-rule:evenodd;stroke-width:0.428571;fill-opacity:1" />
  </g>
</svg>
