<?xml version="1.0" encoding="UTF-8" standalone="no"?>
<svg
   height="64"
   width="64"
   version="1.1"
   id="svg19"
   sodipodi:docname="folder-root.svg"
   inkscape:version="1.1.1 (3bf5ae0d25, 2021-09-20)"
   xmlns:inkscape="http://www.inkscape.org/namespaces/inkscape"
   xmlns:sodipodi="http://sodipodi.sourceforge.net/DTD/sodipodi-0.dtd"
   xmlns="http://www.w3.org/2000/svg"
   xmlns:svg="http://www.w3.org/2000/svg"
   xmlns:rdf="http://www.w3.org/1999/02/22-rdf-syntax-ns#"
   xmlns:cc="http://creativecommons.org/ns#"
   xmlns:dc="http://purl.org/dc/elements/1.1/">
  <metadata
     id="metadata25">
    <rdf:RDF>
      <cc:Work
         rdf:about="">
        <dc:format>image/svg+xml</dc:format>
        <dc:type
           rdf:resource="http://purl.org/dc/dcmitype/StillImage" />
      </cc:Work>
    </rdf:RDF>
  </metadata>
  <defs
     id="defs23" />
  <sodipodi:namedview
     pagecolor="#ffffff"
     bordercolor="#666666"
     borderopacity="1"
     objecttolerance="10"
     gridtolerance="10"
     guidetolerance="10"
     inkscape:pageopacity="0"
     inkscape:pageshadow="2"
     inkscape:window-width="1920"
     inkscape:window-height="1013"
     id="namedview21"
     showgrid="true"
     inkscape:zoom="9.8124999"
     inkscape:cx="25.78344"
     inkscape:cy="32.815287"
     inkscape:window-x="0"
     inkscape:window-y="0"
     inkscape:window-maximized="1"
     inkscape:current-layer="svg19"
     inkscape:document-rotation="0"
     inkscape:pagecheckerboard="0">
    <inkscape:grid
       type="xygrid"
       id="grid977" />
  </sodipodi:namedview>
  <linearGradient
     id="a"
     gradientUnits="userSpaceOnUse"
     x1="3"
     x2="3"
     y1="58"
     y2="16">
    <stop
       offset="0"
       stop-color="#3daee9"
       id="stop2" />
    <stop
       offset="1"
       stop-color="#6cc1ef"
       id="stop4" />
  </linearGradient>
  <path
     style="fill:#8484ac;fill-opacity:1;stroke-width:0.181749"
     d="m 25.217841,12.215281 c -0.74951,1.6e-4 -1.63666,-0.62441 -1.97259,-1.38766 l -1.50654,-3.4299595 c -0.33522,-0.76325 -1.22239,-1.38715 -1.97192,-1.38766 l -14.7841403,-0.01 c -2.97438,-0.002 -4.97593995,2.00879 -4.96944995,4.9842695 v 0 0 L 7.4826285e-7,52.980071 C -9.9925174e-4,57.000011 0.9999907,57.985061 4.9975307,57.986091 l 54.1399203,0.0139 c 4.91919,10e-4 4.96682,-0.0209 4.96238,-5.05526 l -0.0315,-35.73667 c -0.003,-3.01292 -2.00335,-5.00069 -5.03522,-5.00004 z"
     id="path16"
     sodipodi:nodetypes="sccsscccsssssss" />
  <g
     id="g24"
     transform="matrix(0.17007976,0,0,0.19391466,-10.198069,-18.045409)">
    <path
       style="fill:#efefef;fill-opacity:1"
       d="m 179.58,131.156 8.844,17.688 c 1.968,3.936 4.8248,7.156 9.2248,7.156 H 208 c -4.4,0 -9.608,-3.22 -11.58,-7.156 l -8.844,-17.688 c -1.968,-3.936 -7.17873,-7.15601 -11.57873,-7.15601 L 168,124 c 4.4,0 9.608,3.22 11.58,7.156 z"
       id="path18"
       sodipodi:nodetypes="cssccsscc" />
    <rect
       x="75.888275"
       y="176.05383"
       style="fill:#263740;fill-opacity:1;stroke-width:0.991651"
       width="345.64072"
       height="205.93738"
       id="rect22"
       ry="10.823075" />
  </g>
  <rect
     x="3.1500003"
     y="16.500015"
     style="fill:#9494b7;fill-opacity:1;stroke-width:0.18223"
     width="57.900002"
     height="39"
     id="rect26"
     ry="1.6662751" />
  <rect
     x="4.5489869"
     y="18.193008"
     style="fill:#ffffff;stroke-width:0.181607"
     width="55.1059"
     height="35.680298"
     id="rect28"
     ry="1.1992956" />
  <g
     id="g36"
     transform="matrix(0.17007976,0,0,0.19391466,-11.003579,-19.144719)">
    <polygon
       style="fill:#aaccff"
       points="168,204 172,204 172,276 100,276 100,272 "
       id="polygon34"
       transform="translate(-8.8452971)" />
  </g>
  <polygon
     style="fill:#2a7fff"
     points="100,272 168,204 168,272 "
     id="polygon38"
     transform="matrix(0.17007976,0,0,0.19391466,-12.407989,-19.144719)" />
  <path
     style="opacity:0.7;fill:#8484ac;fill-opacity:1;stroke-width:0.182212"
     d="M 14.436781,20.491061 2.6999907,33.352011 v 20.81904 c 0.0483,1.33341 1.06398,1.80853 1.83729,1.87677 l 54.7606003,0.0379 c 2.10558,10e-4 2.16611,-1.86142 2.16611,-1.86142 v -33.73329 z"
     id="path30-3"
     sodipodi:nodetypes="ccccsccc" />
  <polygon
     id="X-5"
     class="st0"
     points="60,15.2 48.8,4 4,48.8 15.2,60 32,43.2 48.8,60 60,48.8 43.2,32 "
     transform="matrix(0.42838019,0,0,0.42838019,31.286479,26.28648)"
     style="fill:#f0f0f0;fill-opacity:1" />
  <path
     id="X-s-3"
     class="st1"
     d="m 36.084339,34.55422 4.79786,4.79786 -1.19947,1.19946 -4.8407,-4.79786 c -1.32797,-1.32798 -1.32797,-3.46988 0,-4.84069 L 37.797859,28 l 1.19946,1.19946 -2.91298,2.91299 c -0.68541,0.68541 -0.68541,1.7992 0,2.44177 z m 19.70549,-0.5569 -5.99733,5.997319 1.19947,1.199471 5.99732,-5.997321 z m -5.7403,15.29317 -4.79786,-4.79785 -6.25435,6.29719 1.19947,1.19946 5.05488,-5.05489 3.55556,3.55556 c 2.01339,2.01339 5.26907,2.01339 7.28246,0 l 0.8996,-0.8996 -1.19946,-1.19946 -0.8996,0.89959 c -1.32798,1.32798 -3.51272,1.32798 -4.8407,0 z"
     style="fill:#263740;fill-opacity:1;stroke-width:0.42838" />
</svg>
