<?xml version="1.0" encoding="UTF-8" standalone="no"?>
<svg
   width="16"
   height="16"
   viewBox="0 0 16 16"
   id="svg8694"
   version="1.1"
   inkscape:version="1.1.1 (3bf5ae0d25, 2021-09-20)"
   sodipodi:docname="system-file-manager.svg"
   xmlns:inkscape="http://www.inkscape.org/namespaces/inkscape"
   xmlns:sodipodi="http://sodipodi.sourceforge.net/DTD/sodipodi-0.dtd"
   xmlns:xlink="http://www.w3.org/1999/xlink"
   xmlns="http://www.w3.org/2000/svg"
   xmlns:svg="http://www.w3.org/2000/svg"
   xmlns:rdf="http://www.w3.org/1999/02/22-rdf-syntax-ns#"
   xmlns:cc="http://creativecommons.org/ns#"
   xmlns:dc="http://purl.org/dc/elements/1.1/">
  <defs
     id="defs8696">
    <linearGradient
       xlink:href="#linearGradient4227"
       id="linearGradient4225-3"
       gradientUnits="userSpaceOnUse"
       x1="396.57101"
       y1="498.798"
       x2="426.57101"
       y2="511.798"
       gradientTransform="matrix(0.24228659,0,0,0.10945197,-92.245086,987.50736)" />
    <linearGradient
       id="linearGradient4227">
      <stop
         offset="0"
         style="stop-color:#f5f5f5;stop-opacity:1"
         id="stop21" />
      <stop
         offset="1"
         style="stop-color:#f9f9f9;stop-opacity:1"
         id="stop23" />
    </linearGradient>
  </defs>
  <sodipodi:namedview
     id="base"
     pagecolor="#ffffff"
     bordercolor="#666666"
     borderopacity="1.0"
     inkscape:pageopacity="0.0"
     inkscape:pageshadow="2"
     inkscape:zoom="22.627417"
     inkscape:cx="7.0268736"
     inkscape:cy="6.4081552"
     inkscape:document-units="px"
     inkscape:current-layer="layer1"
     showgrid="true"
     units="px"
     inkscape:snap-bbox="true"
     inkscape:bbox-nodes="true"
     inkscape:object-nodes="true"
     inkscape:snap-global="true"
     inkscape:showpageshadow="false"
     showborder="true"
     inkscape:document-rotation="0"
     inkscape:window-width="1920"
     inkscape:window-height="1013"
     inkscape:window-x="0"
     inkscape:window-y="0"
     inkscape:window-maximized="1"
     inkscape:lockguides="true"
     inkscape:pagecheckerboard="0">
    <inkscape:grid
       type="xygrid"
       id="grid9302" />
  </sodipodi:namedview>
  <metadata
     id="metadata8699">
    <rdf:RDF>
      <cc:Work
         rdf:about="">
        <dc:format>image/svg+xml</dc:format>
        <dc:type
           rdf:resource="http://purl.org/dc/dcmitype/StillImage" />
      </cc:Work>
    </rdf:RDF>
  </metadata>
  <g
     inkscape:label="Livello 1"
     inkscape:groupmode="layer"
     id="layer1"
     transform="translate(0,-1036.3622)">
    <path
       style="fill:#8484ac;fill-opacity:1;stroke-width:0.0454372"
       d="m 6.3044836,1039.4159 c -0.1873773,10e-5 -0.4091634,-0.156 -0.493146,-0.3469 l -0.376634,-0.8574 c -0.083801,-0.1905 -0.3055962,-0.3465 -0.4929782,-0.3466 H 1.2457021 c -0.74359303,0 -1.24398127,0.5018 -1.24235905,1.2459 v 0 0 L 1.8674545e-7,1049.6097 C -2.4959878e-4,1050.6147 0.24999741,1050.861 1.249379,1050.8612 h 13.534937 c 1.229794,3e-4 1.241703,-0.01 1.240591,-1.2638 l -0.0075,-8.934 c -7.52e-4,-0.7535 -0.500836,-1.25 -1.258802,-1.2498 z"
       id="path16"
       sodipodi:nodetypes="sccsscccsssssss" />
    <g
       id="g24"
       transform="matrix(0.04251981,0,0,0.04847862,-2.549466,1031.8509)">
      <path
         style="fill:#efefef;fill-opacity:1"
         d="m 179.58,131.156 8.844,17.688 c 1.968,3.936 4.8248,7.156 9.2248,7.156 H 208 c -4.4,0 -9.608,-3.22 -11.58,-7.156 l -8.844,-17.688 c -1.968,-3.936 -7.17873,-7.15601 -11.57873,-7.15601 L 168,124 c 4.4,0 9.608,3.22 11.58,7.156 z"
         id="path18"
         sodipodi:nodetypes="cssccsscc" />
      <rect
         x="75.888275"
         y="176.05383"
         style="fill:#263740;fill-opacity:1;stroke-width:0.991651"
         width="345.64072"
         height="205.93738"
         id="rect22"
         ry="10.823075" />
    </g>
    <rect
       x="0.78754014"
       y="1040.4874"
       style="fill:#9494b7;fill-opacity:1;stroke-width:0.0455575"
       width="14.474955"
       height="9.7499933"
       id="rect26"
       ry="0.41656849" />
    <rect
       x="1.1372842"
       y="1040.9103"
       style="fill:#ffffff;stroke-width:0.0454018"
       width="13.776431"
       height="8.9200687"
       id="rect28"
       ry="0.29982364" />
    <g
       id="g36"
       transform="matrix(0.04251981,0,0,0.04847862,-2.7508433,1031.5762)">
      <polygon
         style="fill:#aaccff"
         points="100,272 168,204 172,204 172,276 100,276 "
         id="polygon34"
         transform="translate(-8.8452971)" />
    </g>
    <polygon
       style="fill:#2a7fff"
       points="168,204 168,272 100,272 "
       id="polygon38"
       transform="matrix(0.04251981,0,0,0.04847862,-3.1019442,1031.5762)" />
    <path
       style="opacity:0.7;fill:#8484ac;fill-opacity:1;stroke-width:0.045553"
       d="m 3.6092274,1041.4847 -2.93418881,3.2156 v 5.2047 c 0.0120714,0.3334 0.26599469,0.4522 0.45932111,0.4693 l 13.6901083,0.01 c 0.526392,0 0.541527,-0.4652 0.541527,-0.4652 v -8.4337 z"
       id="path30-3"
       sodipodi:nodetypes="ccccsccc" />
  </g>
</svg>
