<?xml version="1.0" encoding="UTF-8" standalone="no"?>
<svg
   width="32"
   height="32"
   version="1.1"
   id="svg12"
   sodipodi:docname="amarok.svg"
   inkscape:version="1.1.1 (3bf5ae0d25, 2021-09-20)"
   xmlns:inkscape="http://www.inkscape.org/namespaces/inkscape"
   xmlns:sodipodi="http://sodipodi.sourceforge.net/DTD/sodipodi-0.dtd"
   xmlns="http://www.w3.org/2000/svg"
   xmlns:svg="http://www.w3.org/2000/svg"
   xmlns:rdf="http://www.w3.org/1999/02/22-rdf-syntax-ns#"
   xmlns:cc="http://creativecommons.org/ns#"
   xmlns:dc="http://purl.org/dc/elements/1.1/">
  <g
     id="22-22-amarok">
    <path
       style="opacity:0.00100002"
       d="m 32,10.000001 v 22 h 22 v -22 z"
       id="path4" />
    <path
       style="color:#d5c289;fill:#eff0f1;fill-opacity:1;stroke-width:0.722867"
       class="ColorScheme-Text"
       d="m 46.742047,15.666668 c -0.27093,0 -0.796438,0.62166 -0.993413,0.719762 -0.19733,0.09809 -1.756979,1.209686 -1.904533,1.405914 -0.147909,0.196194 -0.345007,0.278104 -0.558339,0.261761 -0.213683,-0.01631 -0.888023,-0.02328 -1.118063,0.107527 -0.229688,0.130852 -1.279171,1.200569 -1.542032,1.331318 -0.262685,0.130771 -0.605258,0.197682 -0.769448,0.214046 -0.164164,0.01634 -0.708146,0.619733 -0.855912,0.73421 -0.147768,0.114479 -1.315334,0.617698 -1.479528,0.715727 -0.1642,0.09811 1.197794,1.472019 1.394805,1.504707 0.197027,0.03274 -0.510705,0.466376 -0.514935,0.777219 -0.0042,0.310089 0.33904,1.233761 2.328494,2.320567 1.719901,0.939539 3.536548,0.487054 4.22226,0.295698 0.272056,-0.07593 0.172227,-0.948086 0.222573,-1.411627 0.03287,-0.294304 0.147731,-2.763321 0.574658,-3.417346 0.426873,-0.653953 1.647069,-1.439117 2.073977,-1.520833 0.42691,-0.08175 0.344795,-0.245353 0.344795,-0.392474 0,-0.147134 -0.06597,-0.474157 -0.180904,-0.523188 -0.114922,-0.04904 -0.563351,0.245536 -0.711118,0.278226 -0.147767,0.03269 -0.853534,0.08184 -0.95209,-0.08165 -0.09849,-0.163405 0.796275,-1.831363 0.911119,-2.027555 0.114841,-0.19623 0.164379,-0.457647 -0.04933,-0.735554 -0.21332,-0.27801 -0.360919,-0.556122 -0.443052,-0.556122 z m -3.742049,3.440864 c 0.111362,-0.0015 0.187155,0.0094 0.187155,0.0094 0.06233,0.135742 -0.228187,0.562426 -0.49827,0.620637 -0.270006,0.05813 -0.8935,0.911705 -0.914247,0.717741 -0.02084,-0.19396 0.249499,-0.834067 0.561119,-1.124999 0.19475,-0.181847 0.478638,-0.219943 0.664243,-0.222787 z"
       id="path58-5-1-3" />
    <path
       id="path13-6"
       class="ColorScheme-Text"
       d="M 42.999998,13.000001 C 38.581722,13.000001 35,16.581723 35,20.999999 c 0,4.418278 3.581722,8.000002 7.999998,8.000002 4.418279,0 8.000002,-3.581724 8.000002,-8.000002 0,-4.418276 -3.581723,-7.999998 -8.000002,-7.999998 z m 0.0904,1.118645 c 4.050087,0 6.790959,2.831266 6.790959,6.881353 0,4.050092 -2.831266,6.971751 -6.881357,6.971751 -4.050086,0 -6.790961,-2.831267 -6.790961,-6.881353 0,-4.050089 2.83127,-6.971751 6.881359,-6.971751 z"
       style="color:#31363b;fill:#eff0f1;fill-opacity:1;stroke:none;stroke-width:0.666667"
       inkscape:connector-curvature="0"
       sodipodi:nodetypes="ssssssssss" />
  </g>
  <metadata
     id="metadata18">
    <rdf:RDF>
      <cc:Work
         rdf:about="">
        <dc:format>image/svg+xml</dc:format>
        <dc:type
           rdf:resource="http://purl.org/dc/dcmitype/StillImage" />
      </cc:Work>
    </rdf:RDF>
  </metadata>
  <defs
     id="defs16" />
  <sodipodi:namedview
     pagecolor="#ffffff"
     bordercolor="#000000"
     borderopacity="1"
     objecttolerance="10"
     gridtolerance="10"
     guidetolerance="10"
     inkscape:pageopacity="0"
     inkscape:pageshadow="2"
     inkscape:window-width="1920"
     inkscape:window-height="1013"
     id="namedview14"
     showgrid="false"
     inkscape:zoom="9.8125"
     inkscape:cx="16.509554"
     inkscape:cy="10.802548"
     inkscape:window-x="0"
     inkscape:window-y="0"
     inkscape:window-maximized="1"
     inkscape:current-layer="svg12"
     inkscape:document-rotation="0"
     inkscape:lockguides="false"
     inkscape:showpageshadow="false"
     inkscape:pagecheckerboard="0">
    <inkscape:grid
       type="xygrid"
       id="grid889"
       originx="32"
       originy="10.000001" />
  </sodipodi:namedview>
  <g
     id="amarok">
    <g
       id="g1987"
       transform="translate(32,10.000001)">
      <path
         style="opacity:0.00100002"
         d="M -32,-10.000001 V 22 H 0 v -32.000001 z"
         id="path7" />
    </g>
    <path
       style="color:#d5c289;fill:#eff0f1;fill-opacity:1;stroke-width:1.0843"
       class="ColorScheme-Text"
       d="m 21.852454,8 c -0.406395,0 -1.194657,0.932491 -1.490119,1.079643 -0.295995,0.147138 -2.635468,1.81453 -2.856799,2.108872 -0.221864,0.294291 -0.517511,0.417155 -0.837509,0.392641 -0.320524,-0.02447 -1.332034,-0.03492 -1.677094,0.161291 -0.344532,0.196278 -1.918757,1.800853 -2.313048,1.996977 -0.394028,0.196156 -0.907888,0.296522 -1.154172,0.321068 -0.246246,0.02451 -1.062219,0.9296 -1.283868,1.101316 -0.221652,0.171718 -1.973002,0.926547 -2.219293,1.07359 -0.2463,0.147169 1.796692,2.208028 2.092208,2.257061 0.295541,0.04911 -0.766058,0.699563 -0.772403,1.165828 -0.0063,0.465133 0.50856,1.850642 3.492741,3.480851 2.579852,1.409308 5.304823,0.73058 6.333391,0.443547 0.408083,-0.113891 0.25834,-1.422129 0.333859,-2.117441 0.04931,-0.441456 0.221596,-4.144981 0.861987,-5.126019 0.64031,-0.98093 2.470603,-2.158676 3.110966,-2.28125 0.640365,-0.122624 0.517192,-0.368029 0.517192,-0.58871 0,-0.220702 -0.09896,-0.711236 -0.271356,-0.784782 -0.172383,-0.07356 -0.845027,0.368304 -1.066677,0.417339 -0.22165,0.04904 -1.280301,0.122764 -1.428135,-0.122477 C 21.07659,12.734238 22.418737,10.2323 22.591003,9.938012 22.763265,9.643668 22.837572,9.251542 22.517013,8.834682 22.197028,8.417668 21.97563,8.0005 21.85243,8.0005 Z m -5.613073,5.161296 c 0.167043,-0.0023 0.280733,0.01414 0.280733,0.01414 0.09349,0.203612 -0.342281,0.843638 -0.747405,0.930955 -0.405009,0.0872 -1.34025,1.367558 -1.371371,1.076611 -0.03126,-0.290939 0.374249,-1.2511 0.841679,-1.687498 0.292125,-0.27277 0.717956,-0.329915 0.996364,-0.334181 z"
       id="path58-5-1" />
    <path
       id="path13"
       class="ColorScheme-Text"
       d="M 16,4 C 9.372586,4 4.000003,9.372583 4.000003,15.999997 4.000003,22.627414 9.372586,28 16,28 22.627418,28 28.000003,22.627414 28.000003,15.999997 28.000003,9.372583 22.627418,4 16,4 Z m 0.135597,1.677968 c 6.07513,0 10.186439,4.246899 10.186439,10.322029 0,6.075138 -4.246899,10.457626 -10.322036,10.457626 -6.075129,0 -10.186441,-4.2469 -10.186441,-10.322029 0,-6.075133 4.246905,-10.457626 10.322038,-10.457626 z"
       style="color:#31363b;fill:#eff0f1;fill-opacity:1;stroke:none;stroke-width:1"
       inkscape:connector-curvature="0"
       sodipodi:nodetypes="ssssssssss" />
  </g>
</svg>
