<?xml version="1.0" encoding="UTF-8" standalone="no"?>
<svg
   version="1.1"
   id="svg2"
   viewBox="0 0 32 32"
   inkscape:version="1.1.2 (0a00cf5339, 2022-02-04)"
   sodipodi:docname="cantata.svg"
   width="32"
   height="32"
   xmlns:inkscape="http://www.inkscape.org/namespaces/inkscape"
   xmlns:sodipodi="http://sodipodi.sourceforge.net/DTD/sodipodi-0.dtd"
   xmlns="http://www.w3.org/2000/svg"
   xmlns:svg="http://www.w3.org/2000/svg"
   xmlns:rdf="http://www.w3.org/1999/02/22-rdf-syntax-ns#"
   xmlns:cc="http://creativecommons.org/ns#"
   xmlns:dc="http://purl.org/dc/elements/1.1/">
  <g
     id="22-22-cantata"
     transform="translate(32,10)">
    <path
       id="path11"
       d="M 0,0 V 22 H 22 V 0 Z"
       style="fill:none" />
    <path
       id="path13-3"
       class="ColorScheme-Text"
       d="M 10.999998,3 C 6.6921789,3 3.2,6.477541 3.2,10.767303 c 0,4.289765 3.4921789,7.767308 7.799998,7.767308 4.307821,0 7.800002,-3.477543 7.800002,-7.767308 C 18.8,6.477541 15.307819,3 10.999998,3 Z m 0.08812,1.086106 c 3.948834,0 6.621185,2.748915 6.621185,6.681197 0,3.932288 -2.760484,6.768966 -6.709322,6.768966 -3.9488342,0 -6.6211852,-2.748915 -6.6211852,-6.681197 0,-3.932284 2.7604868,-6.768966 6.7093222,-6.768966 z"
       style="color:#31363b;fill:#eff0f1;fill-opacity:1;stroke:none;stroke-width:0.648637"
       inkscape:connector-curvature="0"
       sodipodi:nodetypes="ssssssssss" />
    <path
       d="M 11.428978,11.633326 C 11.428978,11.449355 11.360404,11.3 11.275916,11.3 H 4.8504881 c -0.1973889,0 -0.1973889,0.666667 0,0.666667 h 6.4254279 c 0.08448,0 0.153062,-0.149293 0.153062,-0.333341 z"
       id="path12-6"
       style="fill:#eff0f1;fill-opacity:0.98171735;stroke-width:0.180697"
       sodipodi:nodetypes="ssssss" />
    <path
       d="m 5.2765992,9.966667 h 6.2668278 c 0.197378,0 0.197378,-0.666667 0,-0.666667 H 5.2765992 c -0.1973807,0 -0.1973807,0.666667 0,0.666667 z"
       id="path14-7"
       style="fill:#eff0f1;fill-opacity:0.9999454;stroke-width:0.180698"
       sodipodi:nodetypes="sssss" />
    <path
       d="m 6.105459,7.966667 h 4.850035 c 0.178697,0 0.178697,-0.666667 0,-0.666667 H 6.105459 c -0.1787021,0 -0.1787021,0.666667 0,0.666667 z"
       id="path16-5"
       style="fill:#eff0f1;fill-opacity:0.99160904;stroke-width:0.171933" />
    <path
       d="m 5.6522969,13.3 c -0.2345102,0 -0.2345102,0.666667 0,0.666667 h 5.1683581 c 0.234506,0 0.234506,-0.666667 0,-0.666667 z"
       id="path18-3-3"
       style="fill:#eff0f1;fill-opacity:0.9890191;stroke-width:0.196957"
       sodipodi:nodetypes="sssss" />
    <path
       d="M 12.082517,5.3 H 8.3325153 c -0.3830727,0 -0.3907829,0.666667 0,0.666667 h 3.7500017 c 0.06918,0 0.06918,-0.666667 0,-0.666667 z"
       id="path20-5"
       style="fill:#eff0f1;fill-opacity:0.99103284;stroke-width:0.106983"
       sodipodi:nodetypes="sssss" />
    <path
       id="path9-3-6"
       class="ColorScheme-Text"
       d="m 10.806806,3.465391 v 10.723563 c -0.816237,-0.350678 -1.7640776,-0.255903 -2.7745275,0.1612 -1.6913801,0.697493 -2.6611907,2.22645 -2.1670771,3.415218 0.4941096,1.189164 2.26724,1.589149 3.9590126,0.891273 1.334508,-0.551874 2.15182,-1.986041 2.15182,-2.850136 v -8.45749 c 0,0 3.121107,0.38797 3.121107,3.494864 0,2.330176 -0.780798,3.108037 -2.73072,5.049845 1.949922,-1.165084 3.509576,-2.719669 3.509576,-5.049845 0,-3.106894 -2.407419,-4.504109 -3.023977,-5.1181 C 12.462028,5.337417 11.976034,3.854132 11.976034,3.854132 Z"
       style="fill:#eff0f1;fill-opacity:1;stroke:none;stroke-width:0.972944" />
  </g>
  <sodipodi:namedview
     pagecolor="#ffffff"
     bordercolor="#000000"
     borderopacity="1"
     objecttolerance="10"
     gridtolerance="10"
     guidetolerance="10"
     inkscape:pageopacity="0"
     inkscape:pageshadow="2"
     inkscape:window-width="1920"
     inkscape:window-height="1011"
     id="namedview14"
     showgrid="false"
     inkscape:zoom="10.429825"
     inkscape:cx="28.619847"
     inkscape:cy="25.599663"
     inkscape:window-x="0"
     inkscape:window-y="0"
     inkscape:window-maximized="1"
     inkscape:current-layer="svg2"
     inkscape:lockguides="false"
     inkscape:document-rotation="0"
     inkscape:showpageshadow="false"
     inkscape:pagecheckerboard="0">
    <inkscape:grid
       type="xygrid"
       id="grid838"
       originx="0"
       originy="0" />
  </sodipodi:namedview>
  <metadata
     id="metadata20">
    <rdf:RDF>
      <cc:Work
         rdf:about="">
        <dc:format>image/svg+xml</dc:format>
        <dc:type
           rdf:resource="http://purl.org/dc/dcmitype/StillImage" />
      </cc:Work>
    </rdf:RDF>
  </metadata>
  <defs
     id="defs3051">
    <style
       id="current-color-scheme"
       type="text/css" />
  </defs>
  <g
     id="cantata">
    <path
       id="path13"
       class="ColorScheme-Text"
       d="M 16.010178,3.9999999 C 9.5704407,3.9999999 4.35,9.2163111 4.35,15.650955 c 0,6.434647 5.2204407,11.650961 11.660178,11.650961 6.439741,0 11.660185,-5.216314 11.660185,-11.650961 0,-6.4346439 -5.220444,-11.6509551 -11.660185,-11.6509551 z m 0.131757,1.6291591 c 5.903093,0 9.897977,4.1233729 9.897977,10.021796 0,5.898431 -4.126634,10.153448 -10.029734,10.153448 -5.903092,0 -9.897976,-4.123372 -9.897976,-10.021795 0,-5.8984263 4.126638,-10.153449 10.029733,-10.153449 z"
       style="color:#31363b;fill:#eff0f1;fill-opacity:1;stroke:none;stroke-width:0.971299"
       inkscape:connector-curvature="0"
       sodipodi:nodetypes="ssssssssss" />
    <path
       id="path18"
       d="M 0,0 V 32 H 32 V 0 Z"
       style="fill:none" />
    <path
       d="M 16.651458,16.499989 C 16.651458,16.224032 16.548952,16 16.422646,16 H 6.8173061 c -0.2950748,0 -0.2950748,1 0,1 h 9.6053399 c 0.126287,0 0.228812,-0.223939 0.228812,-0.500011 z"
       id="path12"
       style="fill:#eff0f1;fill-opacity:1;stroke-width:0.270583"
       sodipodi:nodetypes="ssssss" />
    <path
       d="m 7.4542985,14 h 9.3682495 c 0.295059,0 0.295059,-1 0,-1 H 7.4542985 c -0.2950647,0 -0.2950647,1 0,1 z"
       id="path14"
       style="fill:#eff0f1;fill-opacity:1;stroke-width:0.270585"
       sodipodi:nodetypes="sssss" />
    <path
       d="M 8.6933558,11 H 15.94365 c 0.267133,0 0.267133,-1 0,-1 H 8.6933558 c -0.2671411,0 -0.2671411,1 0,1 z"
       id="path16"
       style="fill:#eff0f1;fill-opacity:1;stroke-width:0.25746" />
    <path
       d="m 8.0159256,19 c -0.3505677,0 -0.3505677,1 0,1 H 15.74208 c 0.35056,0 0.35056,-1 0,-1 z"
       id="path18-3"
       style="fill:#eff0f1;fill-opacity:1;stroke-width:0.294933"
       sodipodi:nodetypes="sssss" />
    <path
       d="m 17.628432,7 h -5.60586 c -0.572654,0 -0.584179,1 0,1 h 5.60586 c 0.103424,0 0.103424,-1 0,-1 z"
       id="path20"
       style="fill:#eff0f1;fill-opacity:1;stroke-width:0.160201"
       sodipodi:nodetypes="sssss" />
    <path
       id="path9-3"
       class="ColorScheme-Text"
       d="M 15.721377,4.6980864 V 20.783431 c -1.220189,-0.526017 -2.637111,-0.383855 -4.147627,0.2418 -2.5284361,1.046239 -3.9782011,3.339675 -3.2395544,5.122827 0.7386439,1.783746 3.3892864,2.383723 5.9183094,1.33691 1.994951,-0.827812 3.216744,-2.979062 3.216744,-4.275205 V 10.523528 c 0,0 4.665729,0.581955 4.665729,5.242297 0,3.495264 -1.167212,4.662055 -4.08214,7.574767 2.914928,-1.747626 5.246449,-4.079503 5.246449,-7.574767 0,-4.660342 -3.59884,-6.7561639 -4.52053,-7.6771505 C 18.19576,7.5061256 17.469249,5.2811981 17.469249,5.2811981 Z"
       style="fill:#eff0f1;fill-opacity:1;stroke:none;stroke-width:1.45693" />
  </g>
</svg>
