<?xml version="1.0" encoding="UTF-8" standalone="no"?>
<svg
   width="32"
   height="32"
   version="1.1"
   id="svg22"
   sodipodi:docname="computer.svg"
   inkscape:version="1.1.1 (3bf5ae0d25, 2021-09-20)"
   xmlns:inkscape="http://www.inkscape.org/namespaces/inkscape"
   xmlns:sodipodi="http://sodipodi.sourceforge.net/DTD/sodipodi-0.dtd"
   xmlns:xlink="http://www.w3.org/1999/xlink"
   xmlns="http://www.w3.org/2000/svg"
   xmlns:svg="http://www.w3.org/2000/svg"
   xmlns:rdf="http://www.w3.org/1999/02/22-rdf-syntax-ns#"
   xmlns:cc="http://creativecommons.org/ns#"
   xmlns:dc="http://purl.org/dc/elements/1.1/">
  <g
     id="computer">
    <rect
       style="opacity:0.00100002"
       width="32"
       height="32"
       x="0"
       y="1.8530274e-07"
       id="rect12" />
    <path
       style="color:#000000;text-indent:0;text-transform:none;direction:ltr;baseline-shift:baseline;fill:url(#linearGradient852);fill-opacity:1;stroke-width:0.356474;enable-background:accumulate"
       d="M 2.761762,3 C 2.382124,3 1.91802,3.1166849 1.567372,3.51376 1.216723,3.9108342 1.1,4.4608309 1.1,4.9116615 V 21.734321 c 0,0.450831 0.116703,0.988842 0.467372,1.385954 0.350669,0.397073 0.814774,0.525698 1.19439,0.525698 h 7.737594 l -0.0207,3.058667 c -0.441373,-7.4e-5 -2.734994,0 -3.167822,0 -0.522121,0.03135 -0.972494,0.606108 -0.9453,1.206745 0.0272,0.600637 0.527048,1.11865 1.049165,1.087259 h 11.964698 c 0.526762,0.0084 1.01126,-0.540993 1.01126,-1.147021 0,-0.606028 -0.484498,-1.155545 -1.01126,-1.146983 h -3.090881 v -3.058667 h 4.087942 v 2.676316 c 2.36e-4,0.39191 0.05722,0.752394 0.228495,1.111154 0.171255,0.358839 0.544338,0.800532 1.100916,0.800532 h 7.976467 c 0.556578,0 0.929486,-0.441539 1.100919,-0.800532 0.171433,-0.358913 0.228494,-0.718822 0.228494,-1.111154 v -4.97032 c 0.0074,-0.605953 -0.470245,-1.163308 -0.997056,-1.163308 -0.526811,0 -1.004512,0.557355 -0.997063,1.163308 v 4.588003 h -6.647059 l -0.01037,-14.91098 h 6.657443 v 6.499638 c -0.0074,0.605993 0.470251,1.16335 0.99706,1.16335 0.526808,0 1.004503,-0.557357 0.997054,-1.16335 v -6.881973 c 0,-0.392316 -0.05705,-0.7641589 -0.228494,-1.123104 C 30.611841,9.1646207 30.23896,8.7349915 29.682346,8.7349915 h -3.988234 v -3.82333 c 0,-0.4508306 -0.116714,-1.0008273 -0.46737,-1.3979015 C 24.876091,3.1166813 24.411997,3 24.032348,3 Z m 0.332351,2.2939972 h 20.60588 V 8.7349915 H 21.70588 c -0.556613,0 -0.923403,0.4186275 -1.100916,0.7766152 -0.177526,0.3579844 -0.23912,0.7339203 -0.238879,1.1350503 v 7.646641 H 7.909248 c -0.522119,0.03135 -1.005975,0.606146 -0.978786,1.206783 0.0272,0.6006 0.46066,1.118613 0.982773,1.087221 H 20.37647 v 0.764667 H 3.094113 Z M 25.694111,16.381651 c -0.72238,0 -1.329407,0.69829 -1.329407,1.529334 0,0.831044 0.607027,1.529336 1.329407,1.529336 0.722383,0 1.329407,-0.698292 1.329407,-1.529336 0,-0.831044 -0.607024,-1.529334 -1.329407,-1.529334 z m 0,3.00426 v 0.05441 0 0 z m -3.323529,6.554061 z"
       fill-opacity="1"
       fill-rule="nonzero"
       stroke="none"
       marker="none"
       visibility="visible"
       display="inline"
       overflow="visible"
       id="path2"
       sodipodi:nodetypes="scsscscccsccsccccccsscscsccccccscssscsssscccsscccscccccssssscccccccccccc" />
  </g>
  <metadata
     id="metadata28">
    <rdf:RDF>
      <cc:Work
         rdf:about="">
        <dc:format>image/svg+xml</dc:format>
        <dc:type
           rdf:resource="http://purl.org/dc/dcmitype/StillImage" />
      </cc:Work>
    </rdf:RDF>
  </metadata>
  <defs
     id="defs26">
    <linearGradient
       inkscape:collect="always"
       id="linearGradient902">
      <stop
         style="stop-color:#00d4aa;stop-opacity:1"
         offset="0"
         id="stop898" />
      <stop
         style="stop-color:#a8a8d7;stop-opacity:1"
         offset="1"
         id="stop900" />
    </linearGradient>
    <linearGradient
       inkscape:collect="always"
       xlink:href="#linearGradient902"
       id="linearGradient852"
       x1="1.1"
       y1="16"
       x2="31.011845"
       y2="16"
       gradientUnits="userSpaceOnUse" />
    <linearGradient
       inkscape:collect="always"
       xlink:href="#linearGradient902"
       id="linearGradient856"
       x1="1"
       y1="16"
       x2="30.912678"
       y2="16"
       gradientUnits="userSpaceOnUse" />
    <linearGradient
       inkscape:collect="always"
       xlink:href="#linearGradient902"
       id="linearGradient853"
       x1="-31.299999"
       y1="10.934997"
       x2="-10.591743"
       y2="10.934997"
       gradientUnits="userSpaceOnUse" />
    <linearGradient
       inkscape:collect="always"
       xlink:href="#linearGradient902"
       id="linearGradient861"
       x1="0.69999999"
       y1="10.999999"
       x2="21.408257"
       y2="10.999999"
       gradientUnits="userSpaceOnUse" />
  </defs>
  <sodipodi:namedview
     pagecolor="#ffffff"
     bordercolor="#000000"
     borderopacity="1"
     objecttolerance="10"
     gridtolerance="10"
     guidetolerance="10"
     inkscape:pageopacity="0"
     inkscape:pageshadow="2"
     inkscape:window-width="1920"
     inkscape:window-height="1013"
     id="namedview24"
     showgrid="false"
     inkscape:zoom="6.9384853"
     inkscape:cx="25.365767"
     inkscape:cy="2.1618551"
     inkscape:window-x="0"
     inkscape:window-y="0"
     inkscape:window-maximized="1"
     inkscape:current-layer="svg22"
     inkscape:document-rotation="0"
     inkscape:lockguides="false"
     inkscape:showpageshadow="false"
     inkscape:pagecheckerboard="0">
    <inkscape:grid
       type="xygrid"
       id="grid870"
       originx="0"
       originy="-7.1853027e-06" />
  </sodipodi:namedview>
  <g
     id="computer-laptop"
     transform="translate(32)">
    <rect
       style="opacity:0.00100002"
       width="32"
       height="32"
       x="0"
       y="0"
       id="rect17" />
    <path
       style="color:#000000;text-indent:0;text-transform:none;direction:ltr;baseline-shift:baseline;fill:url(#linearGradient856);fill-opacity:1.0;stroke-width:0.332358;enable-background:accumulate"
       d="M 2.661764,4.7 C 2.28212,4.7 1.818023,4.801436 1.467371,5.146576 1.11672,5.49172 1,5.969805 1,6.361681 v 14.622771 c 0,0.391876 0.116702,0.859527 0.467371,1.204708 0.350669,0.34515 0.814775,0.456953 1.194393,0.456953 h 7.737592 l -0.02064,2.658689 c -0.441375,-6.8e-5 -2.734999,0 -3.167825,0 -0.522127,0.02727 -0.972495,0.526845 -0.945304,1.048941 0.02719,0.522087 0.527047,0.972353 1.049162,0.945079 h 11.964698 c 0.526764,0.007 1.011259,-0.470245 1.011259,-0.997032 0,-0.526776 -0.484495,-1.004431 -1.011259,-0.996988 h -3.090904 v -2.658689 h 4.087937 v 2.326337 c 2.36e-4,0.340662 0.0572,0.654001 0.228495,0.965852 0.171256,0.311908 0.544337,0.695846 1.100912,0.695846 h 7.97647 c 0.556577,0 0.929485,-0.383812 1.10092,-0.695846 0.171428,-0.311981 0.22849,-0.624821 0.22849,-0.965852 v -4.32036 c 0.0072,-0.52671 -0.470246,-1.011183 -0.997056,-1.011183 -0.526807,0 -1.004514,0.484473 -0.99706,1.011183 v 3.988039 h -6.647055 l -0.0095,-12.961081 h 6.657379 v 5.649685 c -0.0072,0.52675 0.470249,1.011221 0.997058,1.011221 0.526809,0 1.004507,-0.484471 0.997058,-1.011221 v -5.982028 c 0,-0.34101 -0.05702,-0.66423 -0.228493,-0.976228 C 30.512624,10.058478 30.139739,9.685032 29.583127,9.685032 H 25.59477 V 6.361681 C 25.59477,5.969805 25.478059,5.49172 25.1274,5.146576 24.776565,4.801428 24.312467,4.7 23.932819,4.7 Z m 0.332353,1.994013 h 20.605876 v 2.991019 h -1.994117 c -0.556609,0 -0.923397,0.363887 -1.100917,0.675058 -0.177524,0.311163 -0.239115,0.637939 -0.23888,0.986615 v 6.646696 H 7.809242 c -0.522117,0.02727 -1.005973,0.526886 -0.978787,1.048977 0.0272,0.52206 0.460671,0.972328 0.982781,0.945046 H 20.276469 V 20.65209 H 2.994117 Z m 22.599985,9.637729 c -0.722377,0 -1.329407,0.606978 -1.329407,1.329343 0,0.722366 0.60703,1.329347 1.329407,1.329347 0.72239,0 1.329419,-0.606981 1.329419,-1.329347 0,-0.722365 -0.607029,-1.329343 -1.329419,-1.329343 z m 0,2.611403 v 0.04727 0 0 z m -3.323519,5.696984 z"
       fill-opacity="1"
       fill-rule="nonzero"
       stroke="none"
       marker="none"
       visibility="visible"
       display="inline"
       overflow="visible"
       id="path2-3-6"
       sodipodi:nodetypes="scsscscccsccsccccccsscscsccccccscssscsssscccsscccscccccssssscccccccccccc" />
  </g>
  <g
     id="22-22-computer"
     transform="translate(32,-21.999995)">
    <rect
       style="opacity:0.00100002"
       width="22"
       height="22"
       x="-32"
       y="-2.6757812e-06"
       id="rect7" />
    <path
       style="color:#000000;text-indent:0;text-transform:none;direction:ltr;baseline-shift:baseline;fill:url(#linearGradient853);fill-opacity:1.0;stroke-width:0.246794;enable-background:accumulate"
       d="m -30.14954,1.9349973 c -0.262833,0 -0.584133,0.080777 -0.826905,0.3556802 C -31.219195,2.5655757 -31.3,2.9463413 -31.3,3.2584565 V 14.904923 c 0,0.312111 0.08077,0.684584 0.323555,0.959497 0.242786,0.274893 0.56409,0.363939 0.826905,0.363939 h 5.356795 l -0.01431,2.117547 c -0.305557,-3.8e-5 -1.89346,0 -2.193109,0 -0.361468,0.02175 -0.673265,0.419609 -0.654428,0.835441 0.01882,0.415833 0.364878,0.774441 0.726345,0.752711 h 8.283253 c 0.364679,0.0069 0.700099,-0.374525 0.700099,-0.794077 0,-0.419561 -0.335421,-0.800009 -0.700099,-0.794075 h -2.139844 v -2.117547 h 2.830123 v 1.852852 c 1.62e-4,0.271317 0.03962,0.520876 0.158192,0.769245 0.118544,0.248432 0.376833,0.554216 0.762161,0.554216 h 5.522179 c 0.38531,0 0.643489,-0.305684 0.762163,-0.554216 0.118681,-0.248462 0.158199,-0.497633 0.158199,-0.769245 v -3.441003 c 0.0059,-0.419508 -0.325568,-0.80536 -0.69028,-0.80536 -0.364706,0 -0.695435,0.385852 -0.690279,0.80536 v 3.176311 h -4.601805 l -0.0081,-10.3229863 h 4.608996 V 11.99329 c -0.0059,0.419534 0.325562,0.805379 0.690278,0.805379 0.364709,0 0.695424,-0.385845 0.690267,-0.805379 V 7.2288394 c 0,-0.2716032 -0.03945,-0.5290346 -0.158187,-0.7775348 -0.11829,-0.2484919 -0.376443,-0.545928 -0.761786,-0.545928 h -2.761072 V 3.2584565 c 0,-0.3121152 -0.08076,-0.6928808 -0.32356,-0.967779 -0.242728,-0.2749014 -0.564022,-0.3556802 -0.826856,-0.3556802 z m 0.230077,1.5881522 h 14.265622 v 2.3822271 h -1.380533 c -0.385369,0 -0.639299,0.2898195 -0.762178,0.5376579 -0.122903,0.247836 -0.165539,0.5080997 -0.165377,0.7858049 v 5.2938386 h -8.623969 c -0.361472,0.02175 -0.696448,0.419627 -0.677634,0.835447 0.01886,0.4158 0.31892,0.774444 0.680386,0.752703 h 8.628404 v 0.52938 h -11.964721 z m 15.646158,7.6760645 c -0.500097,0 -0.920361,0.483431 -0.920361,1.058775 0,0.575343 0.420264,1.058775 0.920361,1.058775 0.500124,0 0.920356,-0.483432 0.920356,-1.058775 0,-0.575344 -0.420232,-1.058775 -0.920356,-1.058775 z m 0,2.079875 v 0.03761 0 0 z m -2.300905,4.53743 z"
       fill-opacity="1"
       fill-rule="nonzero"
       stroke="none"
       marker="none"
       visibility="visible"
       display="inline"
       overflow="visible"
       id="path2-5"
       sodipodi:nodetypes="scsscscccsccsccccccsscscsccccccscssscsssscccsscccscccccssssscccccccccccc" />
  </g>
  <g
     id="22-22-computer-laptop"
     transform="translate(32,-21.999995)">
    <rect
       style="opacity:0.00100002"
       width="22"
       height="22"
       x="0"
       y="2.6757812e-06"
       id="rect2" />
    <path
       style="color:#000000;text-indent:0;text-transform:none;direction:ltr;baseline-shift:baseline;fill:url(#linearGradient861);fill-opacity:1.0;stroke-width:0.246794;enable-background:accumulate"
       d="M 1.85046,2 C 1.587627,2 1.266327,2.080777 1.023555,2.3556802 0.780805,2.6305784 0.7,3.011344 0.7,3.3234592 V 14.969925 c 0,0.312112 0.08077,0.684584 0.323555,0.959497 0.242786,0.274893 0.56409,0.363939 0.826905,0.363939 h 5.356795 l -0.01431,2.117547 c -0.305557,-3.8e-5 -1.89346,0 -2.193109,0 -0.361468,0.02175 -0.673265,0.419609 -0.654428,0.835441 0.01882,0.415833 0.364878,0.774441 0.726345,0.752711 h 8.283253 c 0.364679,0.0069 0.700099,-0.374525 0.700099,-0.794077 0,-0.419561 -0.335421,-0.800009 -0.700099,-0.794075 h -2.139844 v -2.117547 h 2.830123 v 1.852852 c 1.62e-4,0.271317 0.03962,0.520876 0.158192,0.769245 0.118544,0.248432 0.376833,0.554216 0.762161,0.554216 h 5.522179 c 0.38531,0 0.643489,-0.305684 0.762163,-0.554216 0.118681,-0.248462 0.158199,-0.497633 0.158199,-0.769245 V 14.70521 c 0.0059,-0.419508 -0.325568,-0.80536 -0.69028,-0.80536 -0.364706,0 -0.695435,0.385852 -0.690279,0.80536 v 3.176311 h -4.601805 l -0.0081,-10.3229855 h 4.608996 v 4.4997565 c -0.0059,0.419534 0.325562,0.805379 0.690278,0.805379 0.364709,0 0.695424,-0.385845 0.690267,-0.805379 V 7.2938425 c 0,-0.271604 -0.03945,-0.529035 -0.158187,-0.777535 -0.11829,-0.248492 -0.376443,-0.5459282 -0.761786,-0.5459282 H 17.726211 V 3.3234592 c 0,-0.3121152 -0.08076,-0.6928808 -0.32356,-0.967779 C 17.159923,2.0807788 16.838629,2 16.575795,2 Z m 0.230077,1.5881522 h 14.265622 v 2.3822271 h -1.380533 c -0.385369,0 -0.639299,0.2898192 -0.762178,0.5376582 -0.122903,0.247836 -0.165539,0.508099 -0.165377,0.785805 V 12.587681 H 5.414102 c -0.361472,0.02175 -0.696448,0.419626 -0.677634,0.835446 0.01886,0.415801 0.31892,0.774445 0.680386,0.752703 h 8.628404 v 0.52938 H 2.080537 Z m 15.646158,7.6760638 c -0.500097,0 -0.920361,0.483431 -0.920361,1.058776 0,0.575343 0.420264,1.058775 0.920361,1.058775 0.500124,0 0.920356,-0.483432 0.920356,-1.058775 0,-0.575344 -0.420232,-1.058776 -0.920356,-1.058776 z m 0,2.079876 v 0.03761 0 0 z m -2.300905,4.537429 z"
       fill-opacity="1"
       fill-rule="nonzero"
       stroke="none"
       marker="none"
       visibility="visible"
       display="inline"
       overflow="visible"
       id="path2-5-6"
       sodipodi:nodetypes="scsscscccsccsccccccsscscsccccccscssscsssscccsscccscccccssssscccccccccccc" />
  </g>
</svg>
