<?xml version="1.0" encoding="UTF-8" standalone="no"?>
<svg
   id="svg2"
   width="22"
   height="22"
   version="1.1"
   sodipodi:docname="configure.svg"
   inkscape:version="1.1.1 (3bf5ae0d25, 2021-09-20)"
   xmlns:inkscape="http://www.inkscape.org/namespaces/inkscape"
   xmlns:sodipodi="http://sodipodi.sourceforge.net/DTD/sodipodi-0.dtd"
   xmlns="http://www.w3.org/2000/svg"
   xmlns:svg="http://www.w3.org/2000/svg"
   xmlns:rdf="http://www.w3.org/1999/02/22-rdf-syntax-ns#"
   xmlns:cc="http://creativecommons.org/ns#"
   xmlns:dc="http://purl.org/dc/elements/1.1/">
  <g
     id="22-22-configure"
     transform="translate(-16,6)">
    <rect
       id="rect817"
       style="opacity:0.00100002"
       width="16"
       height="16"
       x="0"
       y="0" />
    <path
       d="m 9.499993,7.99998 c 0,0.828602 -0.671452,1.500021 -1.499983,1.500021 C 7.17146,9.500001 6.5,8.828582 6.5,7.99998 6.5,7.171423 7.17146,6.5 8.00001,6.5 c 0.828531,0 1.499983,0.671423 1.499983,1.49998 z"
       id="path4-3-5-6"
       style="fill:#8585c7;fill-opacity:1;stroke-width:0.00826974" />
    <path
       d="m 13.999999,7.315002 c 0,-0.115006 -0.07998,-0.217499 -0.192489,-0.242493 l -1.652496,-0.375 C 12.072511,6.452498 11.972503,6.214994 11.850004,5.987502 L 12.76001,4.550003 c 0.06,-0.0975 0.04749,-0.227493 -0.03499,-0.309998 l -0.965,-0.962518 c -0.0825,-0.08241 -0.210006,-0.09747 -0.309998,-0.03505 L 9.9875,4.162438 C 9.767509,4.04994 9.542519,3.957442 9.310003,3.884947 L 8.920004,2.194948 C 8.895013,2.079989 8.792519,2 8.6775,2 H 7.32002 C 7.205,2 7.102504,2.0799 7.0775,2.19501 L 6.690015,3.885013 C 6.459995,3.957503 6.232509,4.050002 6.0125,4.162505 L 4.547505,3.242517 C 4.449995,3.179987 4.32002,3.195027 4.237495,3.277567 L 3.277507,4.240074 c -0.08244,0.0825 -0.09749,0.212494 -0.03507,0.309998 l 0.905,1.440002 C 4.029946,6.217568 3.927444,6.45507 3.847434,6.697578 l -1.6525,0.375 C 2.0825,7.097507 2,7.199996 2,7.315002 v 1.365006 c 0,0.117493 0.08244,0.2175 0.19501,0.242493 L 3.8075,9.290007 c 0.07991,0.26999 0.18252,0.527497 0.310004,0.769991 l -0.874987,1.389998 c -0.06253,0.0975 -0.04748,0.227509 0.03507,0.310014 l 0.959989,0.959992 c 0.08244,0.0825 0.212505,0.095 0.309993,0.035 l 1.362497,-0.857499 c 0.257511,0.137497 0.530008,0.252502 0.812505,0.337494 l 0.354977,1.57001 C 7.102508,13.920001 7.205,14.000002 7.32002,14.000002 H 8.6775 c 0.115019,0 0.217517,-0.08 0.242504,-0.194992 l 0.36,-1.570008 c 0.282488,-0.08749 0.552494,-0.199996 0.807502,-0.337493 l 1.362505,0.857498 c 0.09999,0.06 0.227493,0.0475 0.309999,-0.035 l 0.964996,-0.959992 c 0.0825,-0.0825 0.0975,-0.212508 0.03499,-0.310012 l -0.874995,-1.385 c 0.125001,-0.242492 0.229996,-0.5025 0.309998,-0.774994 l 1.612502,-0.367506 c 0.112506,-0.02501 0.192492,-0.125001 0.192492,-0.242493 z m -5.995007,3.752503 c -1.694989,0 -3.072492,-1.377503 -3.072492,-3.070007 0,-1.689988 1.377503,-3.064989 3.072492,-3.064989 1.690016,0 3.065019,1.375001 3.065019,3.064989 0,1.692504 -1.375003,3.070007 -3.065019,3.070007 z"
       id="path2-5-2"
       style="fill:#eff0f1;fill-opacity:1;stroke-width:0.250013" />
  </g>
  <metadata
     id="metadata13">
    <rdf:RDF>
      <cc:Work
         rdf:about="">
        <dc:format>image/svg+xml</dc:format>
        <dc:type
           rdf:resource="http://purl.org/dc/dcmitype/StillImage" />
      </cc:Work>
    </rdf:RDF>
  </metadata>
  <defs
     id="defs11" />
  <sodipodi:namedview
     pagecolor="#ffffff"
     bordercolor="#000000"
     borderopacity="1"
     objecttolerance="10"
     gridtolerance="10"
     guidetolerance="10"
     inkscape:pageopacity="0"
     inkscape:pageshadow="2"
     inkscape:window-width="1920"
     inkscape:window-height="1007"
     id="namedview9"
     showgrid="false"
     inkscape:zoom="10.092342"
     inkscape:cx="7.5304622"
     inkscape:cy="17.191252"
     inkscape:window-x="0"
     inkscape:window-y="0"
     inkscape:window-maximized="1"
     inkscape:current-layer="svg2"
     inkscape:document-rotation="0"
     inkscape:pagecheckerboard="0"
     inkscape:lockguides="true"
     inkscape:showpageshadow="false">
    <inkscape:grid
       type="xygrid"
       id="grid855"
       originx="0"
       originy="0" />
  </sodipodi:namedview>
  <g
     id="configure">
    <rect
       id="rect856"
       style="opacity:0.00100002"
       width="22"
       height="22"
       x="0"
       y="0" />
    <path
       d="M 12.999992,10.999972 C 12.999992,12.104776 12.10474,13 11.00001,13 9.895262,13 9,12.104776 9,10.999972 9,9.8952306 9.895262,9 11.00001,9 c 1.10473,0 1.999982,0.8952306 1.999982,1.999972 z"
       id="path4-3-5"
       style="fill:#8585c7;fill-opacity:1;stroke-width:0.011026" />
    <path
       d="m 18.999998,10.086669 c 0,-0.153341 -0.106649,-0.289998 -0.256653,-0.323324 l -2.203328,-0.5 C 16.430011,8.936665 16.29667,8.619994 16.133339,8.31667 l 1.213339,-1.916667 c 0.08,-0.130005 0.06333,-0.303324 -0.04667,-0.41333 L 16.013344,4.703327 C 15.903339,4.593342 15.733335,4.573343 15.600014,4.656677 L 13.650002,5.883341 C 13.356667,5.733337 13.056679,5.610006 12.746682,5.513346 L 12.226683,3.26001 C 12.193333,3.106669 12.056679,3 11.903339,3 H 10.093341 C 9.94,3 9.803343,3.106669 9.770018,3.26001 L 9.253335,5.513346 C 8.946674,5.610006 8.643349,5.733337 8.350014,5.883341 L 6.396665,4.656677 C 6.266681,4.573347 6.093341,4.593347 5.983335,4.703327 L 4.703347,5.986673 C 4.593341,6.096679 4.573342,6.269998 4.656677,6.400003 L 5.863342,8.320006 C 5.706685,8.623331 5.570007,8.940001 5.463338,9.263345 l -2.203328,0.5 C 3.110006,9.796675 3,9.933328 3,10.086669 v 1.820007 C 3,12.063333 3.110006,12.196675 3.26001,12.23 l 2.150004,0.49001 c 0.106669,0.359986 0.243327,0.703329 0.41333,1.026652 l -1.166667,1.853333 c -0.08333,0.130005 -0.06333,0.303345 0.04667,0.41335 l 1.279989,1.279989 c 0.110005,0.110006 0.283345,0.126668 0.41333,0.04667 l 1.81667,-1.143331 c 0.343343,0.183329 0.706665,0.33667 1.083333,0.449991 l 0.473348,2.093344 c 0.03333,0.153322 0.169983,0.259991 0.323324,0.259991 h 1.809998 c 0.15334,0 0.289998,-0.106669 0.323344,-0.259989 l 0.48,-2.093344 c 0.376648,-0.116658 0.736654,-0.266662 1.076661,-0.449991 l 1.81667,1.14333 c 0.133321,0.08 0.303325,0.06334 0.41333,-0.04667 l 1.286662,-1.279989 c 0.110006,-0.110005 0.130005,-0.283345 0.04667,-0.41335 l -1.166667,-1.846659 c 0.166667,-0.323324 0.306661,-0.670004 0.41333,-1.033326 l 2.150004,-0.49001 c 0.150006,-0.03333 0.256655,-0.166668 0.256655,-0.323325 z m -7.993327,5.003336 c -2.259989,0 -4.096659,-1.836669 -4.096659,-4.093343 0,-2.253316 1.83667,-4.086649 4.096659,-4.086649 2.253337,0 4.08667,1.833333 4.08667,4.086649 0,2.256674 -1.833333,4.093343 -4.08667,4.093343 z"
       id="path2-5"
       style="fill:#eff0f1;fill-opacity:1;stroke-width:0.333333" />
  </g>
</svg>
