<?xml version="1.0" encoding="UTF-8" standalone="no"?>
<svg
   xmlns:dc="http://purl.org/dc/elements/1.1/"
   xmlns:cc="http://creativecommons.org/ns#"
   xmlns:rdf="http://www.w3.org/1999/02/22-rdf-syntax-ns#"
   xmlns:svg="http://www.w3.org/2000/svg"
   xmlns="http://www.w3.org/2000/svg"
   xmlns:sodipodi="http://sodipodi.sourceforge.net/DTD/sodipodi-0.dtd"
   xmlns:inkscape="http://www.inkscape.org/namespaces/inkscape"
   width="32"
   height="32"
   version="1.1"
   id="svg12"
   sodipodi:docname="device.svg"
   inkscape:version="1.0.2 (e86c870879, 2021-01-15)">
  <g
     id="g886"
     transform="translate(32,9.999999)">
    <g
       id="22-22-device-notifier">
      <rect
         style="opacity:0.00100002"
         width="22"
         height="22"
         x="0"
         y="4.6325681e-08"
         id="rect2" />
      <circle
         cx="11.001583"
         cy="14.788338"
         r="0.83733332"
         id="circle2-3-3"
         style="fill:#eff0f1;fill-opacity:1;stroke-width:0.228662" />
      <path
         d="m 15.5,11.569001 v 0 l -4.374,-0.0028 c -1.755339,-0.0016 -3.183001,1.427667 -3.183001,3.182997 0,1.755334 1.427664,3.180862 3.183001,3.183002 l 4.374,0.0054 c -1.49566,0.0054 0,0 0,0 v 0 z m -4.477001,5.538331 C 9.73966,17.107332 8.7,16.053337 8.7,14.753001 c 0,-1.300333 1.03966,-2.35434 2.322999,-2.35434 1.282674,0 2.323001,1.054007 2.323001,2.35434 0,1.300336 -1.040327,2.354331 -2.323001,2.354331 z"
         id="path4-6-6"
         sodipodi:nodetypes="ccsssccccsssss"
         style="fill:#eff0f1;fill-opacity:1;stroke-width:0.333339" />
      <path
         d="m 7.605673,14.749338 c 0,-1.94067 1.579328,-3.520337 3.520327,-3.520337 h 4.42 V 7.39634 c 0,-0.366667 -0.295673,-0.666667 -0.65766,-0.666667 H 13.686661 L 13.689961,4 13.686661,3.67415 C 13.666291,3.333339 13.5,3 12.839605,3 H 9.061826 V 3 C 8.637744,3 8.366803,3.333339 8.35966,3.669942 V 6.729673 H 7.158 c -0.362,0 -0.658,0.3 -0.658,0.666667 V 18.333334 C 6.5,18.7 6.796,19 7.158,19 h 7.73034 c 0.361987,0 0.65766,-0.3 0.65766,-0.666666 v -0.06366 h -4.42 c -1.940661,0 -3.520327,-1.579673 -3.520327,-3.520335 z M 11.83566,4.105339 h 1.291672 V 5.397001 H 11.83566 Z m -2.916661,0 h 1.291662 V 5.397001 H 8.918999 Z"
         id="path6-7-7"
         sodipodi:nodetypes="sscssccccccccsssssscsscccccccccc"
         style="fill:#eff0f1;fill-opacity:1;stroke-width:0.333339" />
    </g>
  </g>
  <g
     id="device-notifier">
    <rect
       style="opacity:0.00100002"
       width="32"
       height="32"
       x="0"
       y="-4.6325681e-08"
       id="rect7" />
    <circle
       cx="15.952328"
       cy="21.682501"
       r="1.256"
       id="circle2-3"
       style="fill:#eff0f1;fill-opacity:1;stroke-width:0.342982" />
    <path
       d="m 22.7,16.8535 v 0 l -6.561,-0.004 c -2.633,-0.0016 -4.7745,2.1415 -4.7745,4.7745 0,2.633 2.141502,4.77129 4.7745,4.7745 l 6.561,0.008 c -2.2435,0.008 0,0 0,0 v 0 z m -6.7155,8.3075 c -1.925,0 -3.4845,-1.581 -3.4845,-3.5315 0,-1.9505 1.5595,-3.5315 3.4845,-3.5315 1.924,0 3.4845,1.581 3.4845,3.5315 0,1.9505 -1.5605,3.5315 -3.4845,3.5315 z"
       id="path4-6"
       sodipodi:nodetypes="ccsssccccsssss"
       style="fill:#eff0f1;fill-opacity:1;stroke-width:0.5" />
    <path
       d="m 10.8585,21.624 c 0,-2.911 2.369,-5.2805 5.2805,-5.2805 h 6.63 v -5.749 c 0,-0.55 -0.4435,-1 -0.9865,-1 H 19.98 L 19.9845,5.5 19.98,5.011217 C 19.94943,4.5 19.7,4 18.709418,4 H 13.042733 V 4 C 12.406624,4 12.000216,4.5 11.9895,5.004903 V 9.5945 H 10.187 c -0.543,0 -0.987,0.45 -0.987,1 V 27 c 0,0.55 0.444,1 0.987,1 h 11.5955 c 0.543,0 0.9865,-0.45 0.9865,-1 v -0.0955 h -6.63 c -2.911,0 -5.2805,-2.3695 -5.2805,-5.2805 z m 6.345,-15.966 h 1.9375 v 1.9375 h -1.9375 z m -4.375,0 h 1.9375 v 1.9375 h -1.9375 z"
       id="path6-7"
       sodipodi:nodetypes="sscssccccccccsssssscsscccccccccc"
       style="fill:#eff0f1;fill-opacity:1;stroke-width:0.5" />
  </g>
  <metadata
     id="metadata18">
    <rdf:RDF>
      <cc:Work
         rdf:about="">
        <dc:format>image/svg+xml</dc:format>
        <dc:type
           rdf:resource="http://purl.org/dc/dcmitype/StillImage" />
        <dc:title />
      </cc:Work>
    </rdf:RDF>
  </metadata>
  <defs
     id="defs16" />
  <sodipodi:namedview
     pagecolor="#ffffff"
     bordercolor="#000000"
     borderopacity="1"
     objecttolerance="10"
     gridtolerance="10"
     guidetolerance="10"
     inkscape:pageopacity="0"
     inkscape:pageshadow="2"
     inkscape:window-width="1920"
     inkscape:window-height="1007"
     id="namedview14"
     showgrid="false"
     inkscape:zoom="9.8125003"
     inkscape:cx="29.492909"
     inkscape:cy="14.534784"
     inkscape:window-x="0"
     inkscape:window-y="0"
     inkscape:window-maximized="1"
     inkscape:current-layer="svg12"
     inkscape:document-rotation="0"
     inkscape:lockguides="false"
     inkscape:showpageshadow="false">
    <inkscape:grid
       type="xygrid"
       id="grid865"
       originx="0"
       originy="-1.5367432e-07" />
  </sodipodi:namedview>
</svg>
