<?xml version="1.0" encoding="UTF-8" standalone="no"?>
<svg
   xmlns:dc="http://purl.org/dc/elements/1.1/"
   xmlns:cc="http://creativecommons.org/ns#"
   xmlns:rdf="http://www.w3.org/1999/02/22-rdf-syntax-ns#"
   xmlns:svg="http://www.w3.org/2000/svg"
   xmlns="http://www.w3.org/2000/svg"
   xmlns:sodipodi="http://sodipodi.sourceforge.net/DTD/sodipodi-0.dtd"
   xmlns:inkscape="http://www.inkscape.org/namespaces/inkscape"
   width="32"
   height="32"
   version="1.1"
   id="svg32"
   sodipodi:docname="document.svg"
   inkscape:version="1.0.2 (e86c870879, 2021-01-15)">
  <g
     id="document-open-recent">
    <rect
       style="opacity:0.00100002"
       width="32"
       height="32"
       x="0"
       y="0"
       id="rect17" />
    <path
       d="m 6.8,4 v 17.739939 h 3.809835 V 20.181946 H 9.830829 8.359042 V 5.558005 H 20.610134 V 4 h -0.779001 z"
       style="fill:#eff0f1;fill-opacity:1;stroke-width:0.519336"
       fill-rule="nonzero"
       id="path4-2-9-8-6" />
    <path
       d="M 10.064015,6.69119 V 24.431656 H 25.089 V 22.872615 H 19.809847 11.622026 V 8.249195 h 10.693086 v 6.239282 h 1.559043 V 13.709471 6.69119 Z"
       style="fill:#eff0f1;fill-opacity:1;stroke-width:0.519336"
       fill-rule="nonzero"
       id="path6-70-3-4-1"
       sodipodi:nodetypes="ccccccccccccc" />
    <path
       d="m 16.417034,15.736957 v 1.558006 h 8.754082 V 15.736957 H 24.72329 16.864861 Z"
       style="fill:#eff0f1;fill-opacity:1;stroke-width:0.393763"
       fill-rule="nonzero"
       id="path8-9-1-5-0" />
    <path
       d="m 16.438328,19.305301 v 1.558011 H 25.208 v -1.558011 h -0.679478 -7.311188 z"
       style="fill:#eff0f1;fill-opacity:1;stroke-width:0.519336"
       fill-rule="nonzero"
       id="path10-3-9-0-6"
       sodipodi:nodetypes="ccccccc" />
    <path
       d="M 16.438328,26.440957 V 28 H 25.208 v -1.559043 h -0.679478 -7.311188 z"
       style="fill:#eff0f1;fill-opacity:1;stroke-width:0.519336"
       fill-rule="nonzero"
       id="path12-6-4-3-3"
       sodipodi:nodetypes="ccccccc" />
  </g>
  <metadata
     id="metadata38">
    <rdf:RDF>
      <cc:Work
         rdf:about="">
        <dc:format>image/svg+xml</dc:format>
        <dc:type
           rdf:resource="http://purl.org/dc/dcmitype/StillImage" />
        <dc:title />
      </cc:Work>
    </rdf:RDF>
  </metadata>
  <defs
     id="defs36" />
  <sodipodi:namedview
     pagecolor="#ffffff"
     bordercolor="#000000"
     borderopacity="1"
     objecttolerance="10"
     gridtolerance="10"
     guidetolerance="10"
     inkscape:pageopacity="0"
     inkscape:pageshadow="2"
     inkscape:window-width="1920"
     inkscape:window-height="1007"
     id="namedview34"
     showgrid="false"
     inkscape:zoom="4.9062501"
     inkscape:cx="47.849303"
     inkscape:cy="21.665931"
     inkscape:window-x="0"
     inkscape:window-y="0"
     inkscape:window-maximized="1"
     inkscape:current-layer="svg32"
     inkscape:document-rotation="0"
     inkscape:lockguides="false"
     inkscape:showpageshadow="false">
    <inkscape:grid
       type="xygrid"
       id="grid886"
       originx="0"
       originy="0" />
  </sodipodi:namedview>
  <g
     id="document-encrypt">
    <rect
       style="opacity:0.00100002"
       width="32"
       height="32"
       x="32"
       y="0"
       id="rect22" />
    <path
       d="m 35.55,4 v 15.884829 h 3.411432 V 18.48975 H 38.263893 36.946008 V 5.395079 H 47.915976 V 4 h -0.69754 z"
       style="fill:#eff0f1;fill-opacity:1;stroke-width:0.465026"
       fill-rule="nonzero"
       id="path4" />
    <path
       d="M 38.472689,6.409766 V 22.295059 H 47.89691 V 20.899051 H 47.19937 39.867768 V 7.804844 h 9.574888 v 5.586824 h 1.396009 V 12.694129 6.409766 Z"
       style="fill:#eff0f1;fill-opacity:1;stroke-width:0.465026"
       fill-rule="nonzero"
       id="path6" />
    <path
       d="M 44.161354,14.509591 V 15.90467 H 52 v -1.395079 h -0.400995 -7.036656 z"
       style="fill:#eff0f1;fill-opacity:1;stroke-width:0.352584"
       fill-rule="nonzero"
       id="path8" />
    <path
       d="m 44.18042,17.704786 v 1.395078 h 7.941717 V 17.704786 H 51.424598 44.87796 Z"
       style="fill:#eff0f1;fill-opacity:1;stroke-width:0.465026"
       fill-rule="nonzero"
       id="path10" />
    <path
       d="m 44.18042,24.094245 v 1.396009 h 7.941717 V 24.094245 H 51.424598 44.87796 Z"
       style="fill:#eff0f1;fill-opacity:1;stroke-width:0.465026"
       fill-rule="nonzero"
       id="path12" />
    <path
       d="m 46.501831,20.899051 v 1.396008 h 5.620306 V 20.899051 H 51.424598 47.19937 Z"
       style="fill:#eff0f1;fill-opacity:1;stroke-width:0.465026"
       fill-rule="nonzero"
       id="path14-3" />
    <path
       d="M 53.260986,21.645883 V 28 h 7.043753 v -6.354117 z m 1.396009,1.396008 h 4.252664 v 3.563031 h -4.252664 z"
       style="fill:#eff0f1;fill-opacity:1;stroke-width:0.465026"
       fill-rule="nonzero"
       id="path16" />
    <path
       d="m 56.783099,16.904011 c -0.71521,0 -1.402989,0.284131 -1.908937,0.791009 -0.505948,0.505949 -0.790079,1.192327 -0.790079,1.907073 v 3.439798 h 5.398486 v -3.439798 c 0,-0.714746 -0.28459,-1.401124 -0.79008,-1.907073 -0.50641,-0.506878 -1.19372,-0.791009 -1.90939,-0.791009 z m 0,1.395078 c 0.3469,0 0.67754,0.136718 0.92214,0.381322 v 9.3e-4 c 0.24414,0.244139 0.38132,0.574772 0.38132,0.920752 v 2.04379 h -2.60647 v -2.04379 c 0,-0.34598 0.13672,-0.676613 0.38132,-0.920752 v -9.3e-4 c 0.24414,-0.244604 0.57524,-0.381322 0.92169,-0.381322 z"
       style="fill:#eff0f1;fill-opacity:1;stroke-width:0.465026"
       fill-rule="nonzero"
       id="path18" />
    <path
       d="m 55.365246,8.952994 -0.987246,0.98632 0.493856,0.492928 1.62759,1.627591 1.62667,-1.627591 0.49339,-0.492928 -0.98632,-0.98632 -0.4934,0.492927 -0.64034,0.640341 -0.64127,-0.640341 z"
       style="fill:#eff0f1;fill-opacity:1;stroke-width:0.465026"
       fill-rule="nonzero"
       id="path22" />
  </g>
  <g
     id="document-decrypt">
    <rect
       style="opacity:0.00100002"
       width="32"
       height="32"
       x="64"
       y="0"
       id="rect27" />
    <path
       d="m 76.144792,12.28302 v 1.294574 h 14.031965 v 13.12783 H 88.112354 87.465066 V 28 H 91.4722 V 12.28302 H 80.644381 Z"
       style="fill:#eff0f1;fill-opacity:1;stroke-width:0.431525"
       fill-rule="nonzero"
       id="path4-6"
       sodipodi:nodetypes="ccccccccccc" />
    <path
       d="m 76.162305,9.294803 v 1.294574 h 11.302761 v 13.12698 h -8.884664 v -5.187796 -0.647285 h -1.295429 v 7.130511 H 88.759641 V 9.294803 h -8.097552 z"
       style="fill:#eff0f1;fill-opacity:1;stroke-width:0.431525"
       fill-rule="nonzero"
       id="path6-7"
       sodipodi:nodetypes="ccccccccccccc" />
    <path
       d="m 76.058118,15.223948 v 1.294573 h 5.252951 v -1.294573 h -0.24444 -4.763762 z"
       style="fill:#eff0f1;fill-opacity:1;stroke-width:0.265172"
       fill-rule="nonzero"
       id="path8-5" />
    <path
       d="m 76.09396,6.3298 v 1.294572 h 5.197708 V 6.3298 h -0.647287 -3.90314 z"
       style="fill:#eff0f1;fill-opacity:1;stroke-width:0.431525"
       fill-rule="nonzero"
       id="path12-5" />
    <path
       d="m 68.5,8.401548 v 5.896349 h 6.53629 V 8.401548 Z m 1.295428,1.294574 h 3.946292 v 3.306339 h -3.946292 z"
       style="fill:#eff0f1;fill-opacity:1;stroke-width:0.431525"
       fill-rule="nonzero"
       id="path16-2" />
    <path
       d="m 71.768372,4 c -0.663696,0 -1.301926,0.263661 -1.771407,0.733592 v 8.63e-4 C 69.527887,5.203952 69.2638,5.840884 69.2638,6.504998 v 0.647287 h 1.29544 V 6.504998 c 0,-0.321054 0.126856,-0.627868 0.35384,-0.85528 0.226991,-0.226983 0.533793,-0.354282 0.855292,-0.354282 0.321908,0 0.628721,0.127299 0.855699,0.354282 0.226998,0.227412 0.353858,0.534226 0.353858,0.85528 v 1.89655 H 69.91108 69.2638 v 1.294574 h 5.009558 V 6.504998 c 0,-0.664114 -0.264081,-1.301046 -0.733159,-1.770543 V 4.733592 C 73.070696,4.263661 72.432489,4 71.768372,4 Z"
       style="fill:#eff0f1;fill-opacity:1;stroke-width:0.431525"
       fill-rule="nonzero"
       id="path18-9" />
    <path
       d="m 71.786962,19.811482 -0.915254,0.916127 0.458716,0.457848 0.593776,0.594208 -0.594654,0.594206 -0.457838,0.458287 0.916129,0.915255 0.457841,-0.457412 1.510337,-1.510336 -1.510337,-1.510335 z"
       style="fill:#eff0f1;fill-opacity:1;stroke-width:0.431525"
       fill-rule="nonzero"
       id="path22-1" />
  </g>
  <g
     id="22-22-document-decrypt">
    <rect
       style="opacity:0.00100002"
       width="22"
       height="22"
       x="64"
       y="-22"
       id="rect12" />
    <path
       d="m 72.496555,-13.477995 v 0.863051 h 9.354605 v 8.751888 h -1.37632 -0.4314 V -3 h 2.67134 v -10.477995 h -7.21847 z"
       style="fill:#eff0f1;fill-opacity:1;stroke-width:0.287685"
       fill-rule="nonzero"
       id="path4-6-9"
       sodipodi:nodetypes="ccccccccccc" />
    <path
       d="m 72.508176,-15.470135 v 0.863054 h 7.535264 v 8.751321 h -5.92313 v -3.458537 -0.431525 h -0.86359 v 4.753686 H 80.9064 V -15.470135 H 75.508 Z"
       style="fill:#eff0f1;fill-opacity:1;stroke-width:0.287685"
       fill-rule="nonzero"
       id="path6-7-2"
       sodipodi:nodetypes="ccccccccccccc" />
    <path
       d="m 72.438794,-11.51736 v 0.86304 h 3.501876 v -0.86304 h -0.16284 -3.17587 z"
       style="fill:#eff0f1;fill-opacity:1;stroke-width:0.176775"
       fill-rule="nonzero"
       id="path8-5-0" />
    <path
       d="m 72.462682,-17.4468 v 0.863048 H 75.9277 V -17.4468 h -0.43139 -2.602216 z"
       style="fill:#eff0f1;fill-opacity:1;stroke-width:0.287685"
       fill-rule="nonzero"
       id="path12-5-2" />
    <path
       d="m 67.4,-16.065638 v 3.930895 h 4.357563 v -3.930895 z m 0.863615,0.863049 h 2.630865 v 2.20423 h -2.630865 z"
       style="fill:#eff0f1;fill-opacity:1;stroke-width:0.287685"
       fill-rule="nonzero"
       id="path16-2-3" />
    <path
       d="m 69.57892,-19 c -0.442471,0 -0.86796,0.175773 -1.180942,0.489062 v 5.75e-4 c -0.312725,0.312997 -0.488778,0.737619 -0.488778,1.180361 v 0.431526 h 0.863631 v -0.431526 c 0,-0.214036 0.08453,-0.418578 0.235889,-0.570186 0.151328,-0.151322 0.355855,-0.236188 0.5702,-0.236188 0.2146,0 0.419133,0.08487 0.570455,0.236188 0.151345,0.151608 0.235915,0.35615 0.235915,0.570186 v 1.264364 H 68.34072 67.9092 v 0.863049 h 3.33968 v -2.127413 c 0,-0.442742 -0.176022,-0.867364 -0.488751,-1.180361 v -5.75e-4 C 70.447125,-18.824227 70.021665,-19 69.57892,-19 Z"
       style="fill:#eff0f1;fill-opacity:1;stroke-width:0.287685"
       fill-rule="nonzero"
       id="path18-9-7" />
    <path
       d="m 69.591302,-8.459007 -0.610155,0.610751 0.305808,0.305233 0.395845,0.396128 -0.39644,0.396135 -0.305213,0.305536 0.610751,0.61016 0.305222,-0.304935 1.00689,-1.006896 -1.00689,-1.006892 z"
       style="fill:#eff0f1;fill-opacity:1;stroke-width:0.287685"
       fill-rule="nonzero"
       id="path22-1-5" />
  </g>
  <g
     id="22-22-document-encrypt">
    <rect
       style="opacity:0.00100002"
       width="22"
       height="22"
       x="32"
       y="-22"
       id="rect2" />
    <path
       d="m 34.8,-19 v 10.58988 h 2.27438 V -9.34017 H 36.6092 35.73061 v -8.72978 H 43.044 V -19 h -0.46509 z"
       style="fill:#eff0f1;fill-opacity:1;stroke-width:0.310011"
       fill-rule="nonzero"
       id="path4-9" />
    <path
       d="m 36.7484,-17.393494 v 10.590208 h 6.2828 v -0.930683 h -0.46503 -4.8876 v -8.729471 h 6.38314 v 3.724548 h 0.93075 v -0.465028 -4.189574 z"
       style="fill:#eff0f1;fill-opacity:1;stroke-width:0.310011"
       fill-rule="nonzero"
       id="path6-2" />
    <path
       d="m 40.54095,-11.993609 v 0.93005 h 5.22574 v -0.93005 H 45.4994 40.80829 Z"
       style="fill:#eff0f1;fill-opacity:1;stroke-width:0.235063"
       fill-rule="nonzero"
       id="path8-2" />
    <path
       d="m 40.55362,-9.863474 v 0.930057 h 5.29452 v -0.930057 h -0.46499 -4.36459 z"
       style="fill:#eff0f1;fill-opacity:1;stroke-width:0.310011"
       fill-rule="nonzero"
       id="path10-8" />
    <path
       d="m 40.55362,-5.603835 v 0.930669 h 5.29452 v -0.930669 h -0.46499 -4.36459 z"
       style="fill:#eff0f1;fill-opacity:1;stroke-width:0.310011"
       fill-rule="nonzero"
       id="path12-9" />
    <path
       d="m 42.10123,-7.733969 v 0.930683 h 3.74691 v -0.930683 h -0.46499 -2.81698 z"
       style="fill:#eff0f1;fill-opacity:1;stroke-width:0.310011"
       fill-rule="nonzero"
       id="path14-3-7" />
    <path
       d="M 46.60724,-7.23608 V -3 h 4.69596 v -4.23608 z m 0.93078,0.93068 h 2.83513 v 2.375351 h -2.83513 z"
       style="fill:#eff0f1;fill-opacity:1;stroke-width:0.310011"
       fill-rule="nonzero"
       id="path16-3" />
    <path
       d="m 48.95545,-10.397329 c -0.47681,0 -0.93545,0.189416 -1.27269,0.527334 -0.33735,0.337304 -0.52676,0.794887 -0.52676,1.271388 V -6.3054 h 3.59897 v -2.293207 c 0,-0.476501 -0.18959,-0.934084 -0.52668,-1.271388 -0.33761,-0.337918 -0.79572,-0.527334 -1.27284,-0.527334 z m 0,0.930049 c 0.23115,0 0.45174,0.09115 0.61479,0.254226 v 6.16e-4 c 0.16274,0.162758 0.25418,0.383186 0.25418,0.613831 v 1.362527 h -1.73764 v -1.362527 c 0,-0.230645 0.091,-0.451073 0.25423,-0.613831 v -6.16e-4 c 0.16265,-0.16307 0.38337,-0.254226 0.61444,-0.254226 z"
       style="fill:#eff0f1;fill-opacity:1;stroke-width:0.310011"
       fill-rule="nonzero"
       id="path18-6" />
    <path
       d="m 48.01025,-15.698 -0.65825,0.657549 0.32918,0.328613 1.08507,1.085053 1.08447,-1.085053 0.32899,-0.328613 -0.65752,-0.657549 -0.32901,0.328621 -0.42693,0.426896 -0.42747,-0.426896 z"
       style="fill:#eff0f1;fill-opacity:1;stroke-width:0.310011"
       fill-rule="nonzero"
       id="path22-12" />
  </g>
  <g
     id="22-22-document-open-recent">
    <rect
       style="opacity:0.00100002"
       width="22"
       height="22"
       x="0"
       y="-22"
       id="rect7" />
    <path
       d="M 4.8,-19 V -7.173366 H 7.339891 V -8.212041 H 6.820552 5.839362 V -17.96133 H 14.00676 V -19 h -0.519334 z"
       style="fill:#eff0f1;fill-opacity:1;stroke-width:0.346216"
       fill-rule="nonzero"
       id="path4-2-9" />
    <path
       d="m 6.97601,-17.205874 v 11.82697 h 10.01666 v -1.03936 H 13.47323 8.014684 v -9.74894 h 7.128726 v 4.159521 h 1.039363 v -0.519336 -4.678855 z"
       style="fill:#eff0f1;fill-opacity:1;stroke-width:0.346216"
       fill-rule="nonzero"
       id="path6-70-3"
       sodipodi:nodetypes="ccccccccccccc" />
    <path
       d="m 11.211356,-11.175363 v 1.038671 h 5.836058 v -1.038671 h -0.298549 -5.238958 z"
       style="fill:#eff0f1;fill-opacity:1;stroke-width:0.262505"
       fill-rule="nonzero"
       id="path8-9-1" />
    <path
       d="m 11.225551,-8.79646 v 1.038662 H 17.072 V -8.79646 h -0.45299 -4.874122 z"
       style="fill:#eff0f1;fill-opacity:1;stroke-width:0.346216"
       fill-rule="nonzero"
       id="path10-3-9"
       sodipodi:nodetypes="ccccccc" />
    <path
       d="M 11.225551,-4.039363 V -3 H 17.072 v -1.039363 h -0.45299 -4.874122 z"
       style="fill:#eff0f1;fill-opacity:1;stroke-width:0.346216"
       fill-rule="nonzero"
       id="path12-6-4"
       sodipodi:nodetypes="ccccccc" />
  </g>
</svg>
