<?xml version="1.0" encoding="UTF-8" standalone="no"?>
<svg
   xmlns:dc="http://purl.org/dc/elements/1.1/"
   xmlns:cc="http://creativecommons.org/ns#"
   xmlns:rdf="http://www.w3.org/1999/02/22-rdf-syntax-ns#"
   xmlns:svg="http://www.w3.org/2000/svg"
   xmlns="http://www.w3.org/2000/svg"
   xmlns:sodipodi="http://sodipodi.sourceforge.net/DTD/sodipodi-0.dtd"
   xmlns:inkscape="http://www.inkscape.org/namespaces/inkscape"
   width="32"
   height="32"
   version="1.1"
   id="svg12"
   sodipodi:docname="drive.svg"
   inkscape:version="1.0.2 (e86c870879, 2021-01-15)">
  <g
     id="22-22-drive-harddisk"
     transform="translate(32,10.000001)">
    <rect
       style="opacity:0.00100002"
       width="22"
       height="22"
       x="0"
       y="-4.6325681e-08"
       id="rect2" />
    <path
       d="M 18.683083,3.997962 C 18.683083,3.447672 18.234985,3 17.684494,3 H 4.49944 C 3.947885,3 3.5,3.447672 3.5,3.997962 V 6.89155 c 0,0.550079 0.447885,0.997963 0.99944,0.997963 h 13.185054 c 0.550491,0 0.998589,-0.447884 0.998589,-0.997963 z m -1.07829,0.0797 v 2.7342 H 4.57829 V 4.077661 Z"
       id="path2-3"
       style="fill:#eff0f1;fill-opacity:1;stroke-width:0.210281" />
    <path
       d="m 14.377079,5.651352 h 2.055641 c 0.175802,0 0.316679,-0.141936 0.316679,-0.317094 V 4.941885 c 0,-0.176 -0.140877,-0.317093 -0.316679,-0.317093 h -2.055423 c -0.175787,0 -0.316897,0.141093 -0.316897,0.317093 v 0.392373 c -1.98e-4,0.175368 0.140898,0.317094 0.316679,0.317094 z"
       id="path4-6"
       style="fill:#eff0f1;fill-opacity:1;stroke-width:0.210281" />
    <path
       d="M 17.684494,8.555663 H 4.49944 C 3.947885,8.555663 3.5,9.003758 3.5,9.554047 v 2.892117 c 0,0.549867 0.447885,0.997962 0.99944,0.997962 h 13.185054 c 0.550491,0 0.998589,-0.448095 0.998589,-0.997962 V 9.554047 c 0,-0.550289 -0.448098,-0.998384 -0.998589,-0.998384 z m -0.07965,1.078078 v 2.732308 H 4.57829 V 9.633741 Z"
       id="path6-7"
       style="fill:#eff0f1;fill-opacity:1;stroke-width:0.210281" />
    <path
       d="m 14.377079,11.205544 h 2.055641 c 0.175802,0 0.316679,-0.141094 0.316679,-0.316884 v -0.392162 c 0,-0.174318 -0.140877,-0.316885 -0.316679,-0.316885 h -2.055423 c -0.175787,0 -0.316897,0.142567 -0.316897,0.316885 v 0.392162 c -1.98e-4,0.17579 0.140898,0.316884 0.316679,0.316884 z"
       id="path8-5"
       style="fill:#eff0f1;fill-opacity:1;stroke-width:0.210281" />
    <path
       d="m 4.49944,19 h 13.185054 c 0.550491,0 0.998589,-0.448304 0.998589,-0.997752 V 15.10845 c 0,-0.5505 -0.448098,-0.998384 -0.998589,-0.998384 H 4.49944 C 3.947885,14.110066 3.5,14.55795 3.5,15.10845 v 2.893798 C 3.5,18.551696 3.947885,19 4.49944,19 Z m 0.07888,-1.077658 v -2.73483 h 13.026498 v 2.73483 z"
       id="path10-3"
       style="fill:#eff0f1;fill-opacity:1;stroke-width:0.210281" />
    <path
       d="m 16.43272,15.735067 h -2.055423 c -0.175787,0 -0.316897,0.141725 -0.316897,0.317305 v 0.392792 c 0,0.17558 0.14111,0.316463 0.316897,0.316463 h 2.055423 c 0.175801,0 0.316678,-0.140883 0.316678,-0.316463 V 16.052372 C 16.7492,15.876583 16.608522,15.735067 16.43272,15.735067 Z"
       id="path12-5"
       style="fill:#eff0f1;fill-opacity:1;stroke-width:0.210281" />
  </g>
  <metadata
     id="metadata18">
    <rdf:RDF>
      <cc:Work
         rdf:about="">
        <dc:format>image/svg+xml</dc:format>
        <dc:type
           rdf:resource="http://purl.org/dc/dcmitype/StillImage" />
        <dc:title />
      </cc:Work>
    </rdf:RDF>
  </metadata>
  <defs
     id="defs16" />
  <sodipodi:namedview
     pagecolor="#ffffff"
     bordercolor="#000000"
     borderopacity="1"
     objecttolerance="10"
     gridtolerance="10"
     guidetolerance="10"
     inkscape:pageopacity="0"
     inkscape:pageshadow="2"
     inkscape:window-width="1920"
     inkscape:window-height="1007"
     id="namedview14"
     showgrid="false"
     inkscape:zoom="8.0000003"
     inkscape:cx="36.655647"
     inkscape:cy="20.797619"
     inkscape:window-x="0"
     inkscape:window-y="0"
     inkscape:window-maximized="1"
     inkscape:current-layer="svg12"
     inkscape:document-rotation="0"
     inkscape:lockguides="false"
     inkscape:showpageshadow="false">
    <inkscape:grid
       type="xygrid"
       id="grid875"
       originx="0"
       originy="-4.6325681e-08" />
  </sodipodi:namedview>
  <g
     id="drive-harddisk">
    <rect
       style="opacity:0.00100002"
       width="32"
       height="32"
       x="0"
       y="4.6325681e-08"
       id="rect7" />
    <path
       d="M 27.474625,5.496944 C 27.474625,4.671512 26.802483,4 25.976734,4 H 6.199152 C 5.371827,4 4.7,4.671512 4.7,5.496944 v 4.340382 c 0,0.825118 0.671827,1.496945 1.499152,1.496945 h 19.777582 c 0.825749,0 1.497891,-0.671827 1.497891,-1.496945 z M 25.857193,5.616486 V 9.717785 H 6.317432 V 5.616486 Z"
       id="path2"
       style="fill:#eff0f1;fill-opacity:1;stroke-width:0.315412" />
    <path
       d="m 21.015622,7.977028 h 3.083466 c 0.263684,0 0.47501,-0.212903 0.47501,-0.475642 V 6.912828 c 0,-0.264 -0.211326,-0.475641 -0.47501,-0.475641 h -3.083151 c -0.263684,0 -0.475325,0.211641 -0.475325,0.475641 v 0.588558 c -3.16e-4,0.263054 0.211326,0.475642 0.47501,0.475642 z"
       id="path4"
       style="fill:#eff0f1;fill-opacity:1;stroke-width:0.315412" />
    <path
       d="M 25.976734,12.333495 H 6.199152 C 5.371827,12.333495 4.7,13.005638 4.7,13.831071 v 4.338174 c 0,0.824802 0.671827,1.496944 1.499152,1.496944 h 19.777582 c 0.825749,0 1.497891,-0.672142 1.497891,-1.496944 v -4.338174 c 0,-0.825433 -0.672142,-1.497576 -1.497891,-1.497576 z m -0.119541,1.617117 v 4.098461 H 6.317432 v -4.098461 z"
       id="path6"
       style="fill:#eff0f1;fill-opacity:1;stroke-width:0.315412" />
    <path
       d="m 21.015622,16.308315 h 3.083466 c 0.263684,0 0.47501,-0.211641 0.47501,-0.475326 v -0.588243 c 0,-0.261476 -0.211326,-0.475325 -0.47501,-0.475325 h -3.083151 c -0.263684,0 -0.475325,0.213849 -0.475325,0.475325 v 0.588243 c -3.16e-4,0.263685 0.211326,0.475326 0.47501,0.475326 z"
       id="path8"
       style="fill:#eff0f1;fill-opacity:1;stroke-width:0.315412" />
    <path
       d="m 6.199152,28 h 19.777582 c 0.825749,0 1.497891,-0.672458 1.497891,-1.496629 v -4.340697 c 0,-0.825748 -0.672142,-1.497576 -1.497891,-1.497576 H 6.199152 C 5.371827,20.665098 4.7,21.336926 4.7,22.162674 v 4.340697 C 4.7,27.327542 5.371827,28 6.199152,28 Z m 0.11828,-1.616486 v -4.102246 h 19.539761 v 4.102246 z"
       id="path10"
       style="fill:#eff0f1;fill-opacity:1;stroke-width:0.315412" />
    <path
       d="m 24.099088,23.102601 h -3.083151 c -0.263684,0 -0.475325,0.212587 -0.475325,0.475956 v 0.58919 c 0,0.263368 0.211641,0.474694 0.475325,0.474694 h 3.083151 c 0.263684,0 0.47501,-0.211326 0.47501,-0.474694 v -0.58919 c -3.15e-4,-0.263684 -0.211326,-0.475956 -0.47501,-0.475956 z"
       id="path12"
       style="fill:#eff0f1;fill-opacity:1;stroke-width:0.315412" />
  </g>
</svg>
