<?xml version="1.0" encoding="UTF-8" standalone="no"?>
<svg
   xmlns:dc="http://purl.org/dc/elements/1.1/"
   xmlns:cc="http://creativecommons.org/ns#"
   xmlns:rdf="http://www.w3.org/1999/02/22-rdf-syntax-ns#"
   xmlns:svg="http://www.w3.org/2000/svg"
   xmlns="http://www.w3.org/2000/svg"
   xmlns:sodipodi="http://sodipodi.sourceforge.net/DTD/sodipodi-0.dtd"
   xmlns:inkscape="http://www.inkscape.org/namespaces/inkscape"
   width="32"
   height="32"
   version="1"
   id="svg12"
   sodipodi:docname="kate.svg"
   inkscape:version="1.0.2 (e86c870879, 2021-01-15)">
  <g
     id="22-22-kate"
     transform="translate(32,10)">
    <g
       id="g1030">
      <rect
         style="opacity:0.00100002"
         width="22"
         height="22"
         x="0"
         y="0"
         id="rect2" />
      <path
         style="fill:#eff0f1;fill-opacity:1;stroke:none;stroke-width:0.037715;stroke-linecap:butt;stroke-linejoin:miter;stroke-miterlimit:4;stroke-dasharray:none;stroke-opacity:1"
         d="M 4.714196,8.3379618 C 4.258119,6.823887 1.680805,7.1912775 1.25,7.1584088 1.733542,6.918386 2.170509,6.720536 3.167334,5.9984291 5.08765,4.6073383 7.120759,4.9107126 8.13888,5.4631524 5.35548,5.5689607 5.885739,7.0853662 6.295698,7.8843651 5.774349,8.035804 4.951342,8.2644103 4.714196,8.3379618 Z"
         id="path905-3-3"
         inkscape:connector-curvature="0" />
      <path
         sodipodi:nodetypes="cssscccccsssc"
         inkscape:connector-curvature="0"
         id="path907-6-6"
         d="M 11.584789,6.2545207 C 10.582484,7.57845 8.91604,9.3671641 7.092213,9.6027768 5.268394,9.8384029 3.529679,9.5773998 3.12692,10.935665 c -0.370904,1.250868 0.9336,2.418758 2.286585,2.13727 1.445426,-0.300695 1.133264,-1.938973 0.342673,-3.054602 0.600526,-0.03443 0.488824,-0.02549 1.507182,-0.07685 1.51792,1.293859 2.021057,1.662752 4.67296,3.550484 C 9.892702,13.277943 9.148928,13.08142 7.683195,12.204692 8.062887,13.157783 8.874457,15.320913 9.050257,16.999331 8.204882,15.784573 7.884393,15.33816 6.574246,14.461799 4.896042,13.339229 3.536906,13.301214 2.75024,11.647335 1.96528,9.997027 3.00428,8.8082485 4.863487,8.2934228 7.520436,7.5576984 9.809741,6.8601637 11.584789,6.2545207 Z"
         style="fill:#e6e6e6;fill-opacity:1;stroke:none;stroke-width:0.037715;stroke-linecap:butt;stroke-linejoin:miter;stroke-miterlimit:4;stroke-dasharray:none;stroke-opacity:1" />
      <path
         sodipodi:nodetypes="cccc"
         inkscape:connector-curvature="0"
         id="path909-7-7"
         d="m 5.756178,10.018333 c 0.600526,-0.03443 0.488824,-0.02549 1.507182,-0.07685 1.51792,1.293858 2.021057,1.662752 4.67296,3.550484 -2.665527,-0.190668 -4.682326,-0.976809 -6.180142,-3.47364 z"
         style="fill:#e6e6e6;fill-opacity:1;stroke:none;stroke-width:0.037715;stroke-linecap:butt;stroke-linejoin:miter;stroke-miterlimit:4;stroke-dasharray:none;stroke-opacity:1" />
      <path
         style="fill:#eff0f1;fill-opacity:1;stroke:none;stroke-width:0.037715;stroke-linecap:butt;stroke-linejoin:miter;stroke-miterlimit:4;stroke-dasharray:none;stroke-opacity:1"
         d="M 11.584789,6.2545207 C 10.582484,7.57845 8.91604,9.3671641 7.092213,9.6027768 5.268394,9.8384029 3.529679,9.5773998 3.12692,10.935665 c -0.370904,1.250868 0.9336,2.418758 2.286585,2.13727 1.445426,-0.300695 1.133264,-1.938973 0.342673,-3.054602 0.600526,-0.03443 0.488824,-0.02549 1.507182,-0.07685 1.51792,1.293859 2.021057,1.662752 4.67296,3.550484 C 9.892702,13.277943 9.148928,13.08142 7.683195,12.204692 8.062887,13.157783 8.874457,15.320913 9.050257,16.999331 8.204882,15.784573 7.884393,15.33816 6.574246,14.461799 4.896042,13.339229 3.536906,13.301214 2.75024,11.647335 1.96528,9.997027 3.00428,8.8082485 4.863487,8.2934228 7.520436,7.5576984 9.809741,6.8601637 11.584789,6.2545207 Z"
         id="path911-53-5"
         inkscape:connector-curvature="0"
         sodipodi:nodetypes="cssscccccsssc" />
      <path
         style="fill:#eff0f1;fill-opacity:1;stroke:none;stroke-width:0.037715;stroke-linecap:butt;stroke-linejoin:miter;stroke-miterlimit:4;stroke-dasharray:none;stroke-opacity:1"
         d="m 5.756178,10.018333 c 0.600526,-0.03443 0.488824,-0.02549 1.507182,-0.07685 1.51792,1.293858 2.021057,1.662752 4.67296,3.550484 -2.665527,-0.190668 -4.682326,-0.976809 -6.180142,-3.47364 z"
         id="path913-5-3"
         inkscape:connector-curvature="0"
         sodipodi:nodetypes="cccc" />
      <path
         sodipodi:nodetypes="ccccc"
         inkscape:connector-curvature="0"
         id="path915-6-5"
         d="M 1.25,7.1584088 C 1.733542,6.918386 2.170509,6.720536 3.167334,5.9984291 5.08765,4.6073383 7.120759,4.9107126 8.13888,5.4631524 5.35548,5.5689607 5.714105,6.1235511 5.70384,6.5583159 3.854542,6.1685051 3.314575,6.698879 1.25,7.1584088 Z"
         style="fill:#eff0f1;fill-opacity:1;stroke:none;stroke-width:0.037715;stroke-linecap:butt;stroke-linejoin:miter;stroke-miterlimit:4;stroke-dasharray:none;stroke-opacity:1" />
      <path
         inkscape:connector-curvature="0"
         id="path917-2-6"
         d="M 8.13888,5.4631524 C 5.355481,5.5689607 5.885739,7.0853662 6.295698,7.8843651 5.970894,7.9787071 5.618858,8.0861945 5.184645,8.2010993 3.432691,5.079416 6.708974,4.6733047 8.13888,5.4631524 Z"
         style="fill:#eff0f1;fill-opacity:1;stroke:none;stroke-width:0.037715;stroke-linecap:butt;stroke-linejoin:miter;stroke-miterlimit:4;stroke-dasharray:none;stroke-opacity:1"
         sodipodi:nodetypes="cccc" />
      <path
         sodipodi:nodetypes="cscc"
         style="fill:#eff0f1;fill-opacity:1;stroke:none;stroke-width:0.037715;stroke-linecap:butt;stroke-linejoin:miter;stroke-miterlimit:4;stroke-dasharray:none;stroke-opacity:1"
         d="M 3.251446,12.425032 C 1.8894,10.671224 2.140887,9.0637091 4.807967,8.2284989 7.439944,7.404276 9.809741,6.8601629 11.584789,6.2545207 6.794587,8.0796931 0.79632,9.299262 3.251446,12.425032 Z"
         id="path919-9-2"
         inkscape:connector-curvature="0" />
      <path
         d="M 10.192217,4.2929299 H 20.391163 A 0.36424813,0.64646495 0 0 0 20.391163,3 H 10.192217 a 0.36424813,0.64646495 0 0 0 0,1.2929299 z"
         id="path4-9"
         style="fill:#eff0f1;fill-opacity:1;stroke-width:0.242637" />
      <path
         d="m 20.108834,6.6783837 h -7.919195 a 0.64646515,0.64646515 0 0 0 0,1.2929303 h 7.919195 a 0.64646515,0.64646515 0 0 0 0,-1.2929303 z"
         id="path6-1"
         style="fill:#eff0f1;fill-opacity:1;stroke-width:0.323237" />
      <path
         d="m 20.108834,10.353533 h -7.919195 a 0.64646687,0.64646687 0 0 0 0,1.292933 h 7.919195 a 0.64646687,0.64646687 0 0 0 0,-1.292933 z"
         id="path8-2"
         style="fill:#eff0f1;fill-opacity:1;stroke-width:0.323237" />
      <path
         d="m 20.108834,14.03192 h -7.919195 a 0.64646585,0.64646585 0 0 0 0,1.29293 h 7.919195 a 0.64646585,0.64646585 0 0 0 0,-1.29293 z"
         id="path10-7"
         style="fill:#eff0f1;fill-opacity:1;stroke-width:0.323237" />
      <path
         d="M 20.108834,17.707075 H 2.007828 a 0.64646472,0.64646472 0 0 0 0,1.292925 h 18.101006 a 0.64646472,0.64646472 0 0 0 0,-1.292925 z"
         id="path12-0"
         style="fill:#eff0f1;fill-opacity:1;stroke-width:0.323237" />
    </g>
  </g>
  <metadata
     id="metadata18">
    <rdf:RDF>
      <cc:Work
         rdf:about="">
        <dc:format>image/svg+xml</dc:format>
        <dc:type
           rdf:resource="http://purl.org/dc/dcmitype/StillImage" />
        <dc:title />
      </cc:Work>
    </rdf:RDF>
  </metadata>
  <defs
     id="defs16" />
  <sodipodi:namedview
     pagecolor="#ffffff"
     bordercolor="#000000"
     borderopacity="1"
     objecttolerance="10"
     gridtolerance="10"
     guidetolerance="10"
     inkscape:pageopacity="0"
     inkscape:pageshadow="2"
     inkscape:window-width="1920"
     inkscape:window-height="1011"
     id="namedview14"
     showgrid="false"
     inkscape:zoom="6.9384853"
     inkscape:cx="40.583658"
     inkscape:cy="10.070817"
     inkscape:window-x="0"
     inkscape:window-y="0"
     inkscape:window-maximized="1"
     inkscape:current-layer="svg12"
     inkscape:document-rotation="0"
     inkscape:showpageshadow="false"
     inkscape:lockguides="false">
    <inkscape:grid
       type="xygrid"
       id="grid1003"
       originx="0"
       originy="0" />
  </sodipodi:namedview>
  <g
     id="kate">
    <rect
       style="opacity:0.00100002"
       width="32"
       height="32"
       x="0"
       y="0"
       id="rect7" />
    <path
       style="fill:#eff0f1;fill-opacity:1;stroke:none;stroke-width:0.056572;stroke-linecap:butt;stroke-linejoin:miter;stroke-miterlimit:4;stroke-dasharray:none;stroke-opacity:1"
       d="M 6.529248,12.006943 C 5.845142,9.735831 1.979178,10.286917 1.332961,10.237614 2.058263,9.877578 2.71372,9.580804 4.208958,8.4976442 7.089434,6.411008 10.139091,6.8660698 11.666279,7.6947284 7.491174,7.8534407 8.286563,10.128049 8.901513,11.326548 8.119476,11.553706 6.88497,11.896616 6.529248,12.006943 Z"
       id="path905-3"
       inkscape:connector-curvature="0" />
    <path
       sodipodi:nodetypes="cssscccccsssc"
       inkscape:connector-curvature="0"
       id="path907-6"
       d="m 16.835138,8.8817819 c -1.503453,1.9858921 -4.00311,4.6689651 -6.738849,5.0223841 -2.735734,0.353438 -5.343809,-0.03807 -5.947946,1.999335 -0.556354,1.876304 1.400403,3.628124 3.429883,3.205909 2.168136,-0.451056 1.699893,-2.908464 0.514008,-4.581907 0.900791,-0.05169 0.733238,-0.03824 2.260774,-0.115274 2.276883,1.940794 3.03157,2.494135 7.009425,5.325734 C 14.297023,19.416905 13.181352,19.12214 10.982744,17.807031 11.5523,19.236663 12.769657,22.48137 13.03335,24.999 11.765283,23.176865 11.284554,22.507237 9.319339,21.19269 6.802032,19.508834 4.763312,19.451826 3.583321,16.971007 c -1.177435,-2.475471 0.38106,-4.258636 3.16987,-5.030873 3.985417,-1.103588 7.419374,-2.14989 10.081947,-3.0583521 z"
       style="fill:#e6e6e6;fill-opacity:1;stroke:none;stroke-width:0.056572;stroke-linecap:butt;stroke-linejoin:miter;stroke-miterlimit:4;stroke-dasharray:none;stroke-opacity:1" />
    <path
       sodipodi:nodetypes="cccc"
       inkscape:connector-curvature="0"
       id="path909-7"
       d="m 8.092234,14.527503 c 0.900791,-0.05169 0.733238,-0.03824 2.260774,-0.115274 2.276883,1.940794 3.03157,2.494135 7.009425,5.325734 C 13.364154,19.451942 10.338955,18.272741 8.092234,14.5275 Z"
       style="fill:#e6e6e6;fill-opacity:1;stroke:none;stroke-width:0.056572;stroke-linecap:butt;stroke-linejoin:miter;stroke-miterlimit:4;stroke-dasharray:none;stroke-opacity:1" />
    <path
       style="fill:#eff0f1;fill-opacity:1;stroke:none;stroke-width:0.056572;stroke-linecap:butt;stroke-linejoin:miter;stroke-miterlimit:4;stroke-dasharray:none;stroke-opacity:1"
       d="m 16.835138,8.8817819 c -1.503453,1.9858921 -4.00311,4.6689651 -6.738849,5.0223841 -2.735734,0.353438 -5.343809,-0.03807 -5.947946,1.999335 -0.556354,1.876304 1.400403,3.628124 3.429883,3.205909 2.168136,-0.451056 1.699893,-2.908464 0.514008,-4.581907 0.900791,-0.05169 0.733238,-0.03824 2.260774,-0.115274 2.276883,1.940794 3.03157,2.494135 7.009425,5.325734 C 14.297023,19.416905 13.181352,19.12214 10.982744,17.807031 11.5523,19.236663 12.769657,22.48137 13.03335,24.999 11.765283,23.176865 11.284554,22.507237 9.319339,21.19269 6.802032,19.508834 4.763312,19.451826 3.583321,16.971007 c -1.177435,-2.475471 0.38106,-4.258636 3.16987,-5.030873 3.985417,-1.103588 7.419374,-2.14989 10.081947,-3.0583521 z"
       id="path911-53"
       inkscape:connector-curvature="0"
       sodipodi:nodetypes="cssscccccsssc" />
    <path
       style="fill:#eff0f1;fill-opacity:1;stroke:none;stroke-width:0.056572;stroke-linecap:butt;stroke-linejoin:miter;stroke-miterlimit:4;stroke-dasharray:none;stroke-opacity:1"
       d="m 8.092234,14.527503 c 0.900791,-0.05169 0.733238,-0.03824 2.260774,-0.115274 2.276883,1.940794 3.03157,2.494135 7.009425,5.325734 C 13.364154,19.451942 10.338955,18.272741 8.092234,14.5275 Z"
       id="path913-5"
       inkscape:connector-curvature="0"
       sodipodi:nodetypes="cccc" />
    <path
       sodipodi:nodetypes="ccccc"
       inkscape:connector-curvature="0"
       id="path915-6"
       d="M 1.332961,10.237614 C 2.058263,9.877578 2.71372,9.580804 4.208958,8.4976442 7.089434,6.411008 10.139091,6.8660698 11.666279,7.6947284 7.491174,7.8534407 8.029123,8.6853271 8.013716,9.3374736 5.239768,8.7527583 4.429828,9.548319 1.332961,10.237614 Z"
       style="fill:#eff0f1;fill-opacity:1;stroke:none;stroke-width:0.056572;stroke-linecap:butt;stroke-linejoin:miter;stroke-miterlimit:4;stroke-dasharray:none;stroke-opacity:1" />
    <path
       inkscape:connector-curvature="0"
       id="path917-2"
       d="M 11.666279,7.6947284 C 7.491174,7.8534407 8.286563,10.128049 8.901513,11.326548 8.414307,11.46806 7.886242,11.629291 7.234938,11.801649 4.607002,7.1191237 9.521427,6.5099579 11.666279,7.6947284 Z"
       style="fill:#eff0f1;fill-opacity:1;stroke:none;stroke-width:0.056572;stroke-linecap:butt;stroke-linejoin:miter;stroke-miterlimit:4;stroke-dasharray:none;stroke-opacity:1"
       sodipodi:nodetypes="cccc" />
    <path
       sodipodi:nodetypes="cscc"
       style="fill:#eff0f1;fill-opacity:1;stroke:none;stroke-width:0.056572;stroke-linecap:butt;stroke-linejoin:miter;stroke-miterlimit:4;stroke-dasharray:none;stroke-opacity:1"
       d="M 4.335127,18.13754 C 2.292056,15.506832 2.669288,13.095564 6.669911,11.842748 10.61787,10.606414 14.172565,9.790244 16.835138,8.8817819 9.649845,11.61954 0.652451,13.448894 4.335127,18.13754 Z"
       id="path919-9"
       inkscape:connector-curvature="0" />
    <path
       d="M 14.746293,5.9393939 H 30.044707 A 0.54637181,0.96969696 0 0 0 30.044707,4 H 14.746293 a 0.54637181,0.96969696 0 0 0 0,1.9393939 z"
       id="path4"
       style="fill:#eff0f1;fill-opacity:1;stroke-width:0.363945" />
    <path
       d="M 29.621212,9.5175757 H 17.742424 a 0.96969715,0.96969715 0 0 0 0,1.9393943 h 11.878788 a 0.96969715,0.96969715 0 0 0 0,-1.9393943 z"
       id="path6"
       style="fill:#eff0f1;fill-opacity:1;stroke-width:0.484848" />
    <path
       d="M 29.621212,15.030303 H 17.742424 a 0.969697,0.969697 0 0 0 0,1.939394 h 11.878788 a 0.969697,0.969697 0 0 0 0,-1.939394 z"
       id="path8"
       style="fill:#eff0f1;fill-opacity:1;stroke-width:0.484848" />
    <path
       d="M 29.621212,20.547879 H 17.742424 a 0.969697,0.969697 0 0 0 0,1.939394 h 11.878788 a 0.969697,0.969697 0 0 0 0,-1.939394 z"
       id="path10"
       style="fill:#eff0f1;fill-opacity:1;stroke-width:0.484848" />
    <path
       d="M 29.621212,26.060606 H 2.469697 a 0.969697,0.969697 0 0 0 0,1.939394 h 27.151515 a 0.969697,0.969697 0 0 0 0,-1.939394 z"
       id="path12"
       style="fill:#eff0f1;fill-opacity:1;stroke-width:0.484848" />
  </g>
</svg>
