<?xml version="1.0" encoding="UTF-8" standalone="no"?>
<svg
   width="32"
   height="32"
   version="1"
   id="svg12"
   sodipodi:docname="kate.svg"
   inkscape:version="1.1.2 (0a00cf5339, 2022-02-04)"
   xmlns:inkscape="http://www.inkscape.org/namespaces/inkscape"
   xmlns:sodipodi="http://sodipodi.sourceforge.net/DTD/sodipodi-0.dtd"
   xmlns="http://www.w3.org/2000/svg"
   xmlns:svg="http://www.w3.org/2000/svg"
   xmlns:rdf="http://www.w3.org/1999/02/22-rdf-syntax-ns#"
   xmlns:cc="http://creativecommons.org/ns#"
   xmlns:dc="http://purl.org/dc/elements/1.1/">
  <g
     id="22-22-kate"
     transform="translate(32,10)">
    <rect
       style="opacity:0.00100002"
       width="22"
       height="22"
       x="0"
       y="0"
       id="rect2" />
    <path
       style="fill:#eff0f1;fill-opacity:1;stroke:none;stroke-width:0.0440001;stroke-linecap:butt;stroke-linejoin:miter;stroke-miterlimit:4;stroke-dasharray:none;stroke-opacity:1"
       d="M 5.3414387,6.8950684 C 4.8093719,5.1286467 1.8025987,5.5572697 1.3,5.5189224 1.8641068,5.2388943 2.3738927,5.0080712 3.5368209,4.1656122 5.7771258,2.542673 8.1490127,2.8966101 9.3367904,3.5411231 6.0895819,3.6645651 6.7081993,5.4337056 7.1864799,6.365872 6.5782466,6.5425508 5.6181037,6.8092576 5.3414387,6.8950684 Z"
       id="path905-3-36"
       inkscape:connector-curvature="0" />
    <path
       sodipodi:nodetypes="cssscccccsssc"
       inkscape:connector-curvature="0"
       id="path907-6-7"
       d="M 13.356901,4.4643862 C 12.187578,6.0089699 10.243458,8.0958045 8.1157233,8.3706864 5.9879916,8.6455823 3.9595482,8.3410764 3.4896781,9.9257253 3.0569701,11.385064 4.5788487,12.747603 6.1572867,12.419208 7.8435656,12.068384 7.4793872,10.157072 6.557059,8.8555041 7.2576537,8.815301 7.1273386,8.8257657 8.315388,8.7658457 10.086245,10.275352 10.67321,10.705728 13.767001,12.908082 11.382867,12.658364 10.515149,12.429112 8.8051683,11.406253 9.2481432,12.518182 10.19495,15.04184 10.400034,17 9.413792,15.582783 9.0399023,15.061965 7.5114464,14.03954 5.553598,12.729869 3.9679733,12.685526 3.0502293,10.756005 2.1344728,8.8306401 3.3466001,7.4437334 5.5156112,6.843104 8.6152901,5.9847575 11.286065,5.1709663 13.356901,4.4643852 Z"
       style="fill:#e6e6e6;fill-opacity:1;stroke:none;stroke-width:0.0440001;stroke-linecap:butt;stroke-linejoin:miter;stroke-miterlimit:4;stroke-dasharray:none;stroke-opacity:1" />
    <path
       sodipodi:nodetypes="cccc"
       inkscape:connector-curvature="0"
       id="path909-7-5"
       d="M 6.557059,8.8555041 C 7.2576537,8.815301 7.1273386,8.8257657 8.315388,8.7658457 10.086245,10.275352 10.67321,10.705728 13.767001,12.908082 10.657321,12.685622 8.3044581,11.768468 6.557059,8.8555017 Z"
       style="fill:#e6e6e6;fill-opacity:1;stroke:none;stroke-width:0.0440001;stroke-linecap:butt;stroke-linejoin:miter;stroke-miterlimit:4;stroke-dasharray:none;stroke-opacity:1" />
    <path
       style="fill:#eff0f1;fill-opacity:1;stroke:none;stroke-width:0.0440001;stroke-linecap:butt;stroke-linejoin:miter;stroke-miterlimit:4;stroke-dasharray:none;stroke-opacity:1"
       d="M 13.356901,4.4643862 C 12.187578,6.0089699 10.243458,8.0958045 8.1157233,8.3706864 5.9879916,8.6455823 3.9595482,8.3410764 3.4896781,9.9257253 3.0569701,11.385064 4.5788487,12.747603 6.1572867,12.419208 7.8435656,12.068384 7.4793872,10.157072 6.557059,8.8555041 7.2576537,8.815301 7.1273386,8.8257657 8.315388,8.7658457 10.086245,10.275352 10.67321,10.705728 13.767001,12.908082 11.382867,12.658364 10.515149,12.429112 8.8051683,11.406253 9.2481432,12.518182 10.19495,15.04184 10.400034,17 9.413792,15.582783 9.0399023,15.061965 7.5114464,14.03954 5.553598,12.729869 3.9679733,12.685526 3.0502293,10.756005 2.1344728,8.8306401 3.3466001,7.4437334 5.5156112,6.843104 8.6152901,5.9847575 11.286065,5.1709663 13.356901,4.4643852 Z"
       id="path911-53-3"
       inkscape:connector-curvature="0"
       sodipodi:nodetypes="cssscccccsssc" />
    <path
       style="fill:#eff0f1;fill-opacity:1;stroke:none;stroke-width:0.0440001;stroke-linecap:butt;stroke-linejoin:miter;stroke-miterlimit:4;stroke-dasharray:none;stroke-opacity:1"
       d="M 6.557059,8.8555041 C 7.2576537,8.815301 7.1273386,8.8257657 8.315388,8.7658457 10.086245,10.275352 10.67321,10.705728 13.767001,12.908082 10.657321,12.685622 8.3044581,11.768468 6.557059,8.8555017 Z"
       id="path913-5-5"
       inkscape:connector-curvature="0"
       sodipodi:nodetypes="cccc" />
    <path
       sodipodi:nodetypes="ccccc"
       inkscape:connector-curvature="0"
       id="path915-6-6"
       d="M 1.3,5.5189224 C 1.8641068,5.2388943 2.3738927,5.0080712 3.5368209,4.1656122 5.7771258,2.542673 8.1490127,2.8966101 9.3367904,3.5411231 6.0895819,3.6645651 6.5079743,4.3115882 6.495991,4.8188139 4.3385395,4.3640342 3.708604,4.9828042 1.3,5.5189224 Z"
       style="fill:#eff0f1;fill-opacity:1;stroke:none;stroke-width:0.0440001;stroke-linecap:butt;stroke-linejoin:miter;stroke-miterlimit:4;stroke-dasharray:none;stroke-opacity:1" />
    <path
       inkscape:connector-curvature="0"
       id="path917-2-2"
       d="M 9.3367904,3.5411231 C 6.0895819,3.6645651 6.7081993,5.4337056 7.1864799,6.365872 6.8075528,6.4759351 6.3968478,6.6013393 5.8902925,6.7353948 3.8464022,3.0934311 7.6686216,2.6196341 9.3367904,3.5411231 Z"
       style="fill:#eff0f1;fill-opacity:1;stroke:none;stroke-width:0.0440001;stroke-linecap:butt;stroke-linejoin:miter;stroke-miterlimit:4;stroke-dasharray:none;stroke-opacity:1"
       sodipodi:nodetypes="cccc" />
    <path
       sodipodi:nodetypes="cscc"
       style="fill:#eff0f1;fill-opacity:1;stroke:none;stroke-width:0.0440001;stroke-linecap:butt;stroke-linejoin:miter;stroke-miterlimit:4;stroke-dasharray:none;stroke-opacity:1"
       d="M 3.6349499,11.663313 C 2.045942,9.6172048 2.3393348,7.7417736 5.4508403,6.7673604 8.5213856,5.8057674 11.286065,5.1709674 13.356901,4.4643862 7.768499,6.5937543 0.77072984,8.0165855 3.6349499,11.663313 Z"
       id="path919-9-9"
       inkscape:connector-curvature="0" />
    <path
       d="m 13.492208,4.9248613 h 6.898584 A 0.24637797,0.46243076 0 0 0 20.390792,4 h -6.898584 a 0.24637797,0.46243076 0 0 0 0,0.9248613 z"
       id="path4-1"
       style="fill:#eff0f1;fill-opacity:1;stroke-width:0.16877" />
    <path
       d="m 20.093425,7.0000001 h -7.91969 a 0.64650557,0.50000027 0 0 0 0,1 h 7.91969 a 0.64650561,0.50000027 0 0 0 0,-1 z"
       id="path6-2"
       style="fill:#eff0f1;fill-opacity:1;stroke-width:0.284276" />
    <path
       d="m 20.177456,10 h -6.887509 a 0.56224576,0.5 0 0 0 0,1 h 6.887509 a 0.56224576,0.5 0 0 0 0,-1 z"
       id="path8-7"
       style="fill:#eff0f1;fill-opacity:1;stroke-width:0.265104" />
    <path
       d="m 20.093176,14 h -7.919192 a 0.64646467,0.50000014 0 0 0 0,1 h 7.919192 a 0.64646467,0.50000014 0 0 0 0,-1 z"
       id="path10-0"
       style="fill:#eff0f1;fill-opacity:1;stroke-width:0.284268" />
    <path
       d="M 20.093176,18 H 1.992166 a 0.64646467,0.50000014 0 0 0 0,1 h 18.10101 a 0.64646467,0.50000014 0 0 0 0,-1 z"
       id="path12-9"
       style="fill:#eff0f1;fill-opacity:1;stroke-width:0.284268" />
  </g>
  <metadata
     id="metadata18">
    <rdf:RDF>
      <cc:Work
         rdf:about="">
        <dc:format>image/svg+xml</dc:format>
        <dc:type
           rdf:resource="http://purl.org/dc/dcmitype/StillImage" />
      </cc:Work>
    </rdf:RDF>
  </metadata>
  <defs
     id="defs16" />
  <sodipodi:namedview
     pagecolor="#ffffff"
     bordercolor="#000000"
     borderopacity="1"
     objecttolerance="10"
     gridtolerance="10"
     guidetolerance="10"
     inkscape:pageopacity="0"
     inkscape:pageshadow="2"
     inkscape:window-width="1920"
     inkscape:window-height="1011"
     id="namedview14"
     showgrid="false"
     inkscape:zoom="9.8125"
     inkscape:cx="21.656051"
     inkscape:cy="12.484076"
     inkscape:window-x="0"
     inkscape:window-y="0"
     inkscape:window-maximized="1"
     inkscape:current-layer="svg12"
     inkscape:document-rotation="0"
     inkscape:showpageshadow="false"
     inkscape:lockguides="true"
     inkscape:pagecheckerboard="0">
    <inkscape:grid
       type="xygrid"
       id="grid1003"
       originx="0"
       originy="0" />
  </sodipodi:namedview>
  <g
     id="kate">
    <rect
       style="opacity:0.00100002"
       width="32"
       height="32"
       x="0"
       y="0"
       id="rect7" />
    <path
       style="fill:#eff0f1;fill-opacity:1;stroke:none;stroke-width:0.0628571;stroke-linecap:butt;stroke-linejoin:miter;stroke-miterlimit:4;stroke-dasharray:none;stroke-opacity:1"
       d="M 7.204931,9.5643818 C 6.4448357,7.0409233 2.1494459,7.6532412 1.431448,7.59846 2.2373146,7.19842 2.9655804,6.8686721 4.6269063,5.6651602 7.8273417,3.346676 11.215759,3.8522998 12.912581,4.7730324 8.2737064,4.9493787 9.157446,7.4767211 9.8407039,8.8083875 8.9717993,9.0607852 7.6001662,9.4417962 7.204931,9.5643818 Z"
       id="path905-3"
       inkscape:connector-curvature="0" />
    <path
       sodipodi:nodetypes="cssscccccsssc"
       inkscape:connector-curvature="0"
       id="path907-6"
       d="m 18.655588,6.0919799 c -1.670459,2.2065475 -4.447772,5.1877471 -7.48739,5.5804261 -3.0396196,0.392718 -5.9373957,-0.04227 -6.6086389,2.221484 -0.6181536,2.084775 1.5559574,4.031255 3.8108689,3.56212 2.408972,-0.501176 1.888717,-3.231624 0.5711032,-5.091007 1.0008498,-0.05749 0.814685,-0.04244 2.5118988,-0.128074 2.529795,2.156434 3.368314,2.771255 7.788018,5.917474 C 15.835541,17.797668 14.595943,17.47016 12.153107,16.008931 12.785935,17.597403 14.138507,21.20263 14.431492,24 13.022583,21.975405 12.488448,21.231377 10.304944,19.77077 7.5080155,17.899814 5.2428377,17.836469 3.9317746,15.080007 2.6235515,12.329476 4.3551625,10.348191 7.4537493,9.4901499 11.881858,8.2639403 15.697254,7.1013821 18.655588,6.0919799 Z"
       style="fill:#e6e6e6;fill-opacity:1;stroke:none;stroke-width:0.0628571;stroke-linecap:butt;stroke-linejoin:miter;stroke-miterlimit:4;stroke-dasharray:none;stroke-opacity:1" />
    <path
       sodipodi:nodetypes="cccc"
       inkscape:connector-curvature="0"
       id="path909-7"
       d="m 8.9415312,12.365003 c 1.0008498,-0.05749 0.814685,-0.04244 2.5118988,-0.128074 2.529795,2.156434 3.368314,2.771255 7.788018,5.917474 C 14.799047,17.836602 11.437817,16.526381 8.9415312,12.365 Z"
       style="fill:#e6e6e6;fill-opacity:1;stroke:none;stroke-width:0.0628571;stroke-linecap:butt;stroke-linejoin:miter;stroke-miterlimit:4;stroke-dasharray:none;stroke-opacity:1" />
    <path
       style="fill:#eff0f1;fill-opacity:1;stroke:none;stroke-width:0.0628571;stroke-linecap:butt;stroke-linejoin:miter;stroke-miterlimit:4;stroke-dasharray:none;stroke-opacity:1"
       d="m 18.655588,6.0919799 c -1.670459,2.2065475 -4.447772,5.1877471 -7.48739,5.5804261 -3.0396196,0.392718 -5.9373957,-0.04227 -6.6086389,2.221484 -0.6181536,2.084775 1.5559574,4.031255 3.8108689,3.56212 2.408972,-0.501176 1.888717,-3.231624 0.5711032,-5.091007 1.0008498,-0.05749 0.814685,-0.04244 2.5118988,-0.128074 2.529795,2.156434 3.368314,2.771255 7.788018,5.917474 C 15.835541,17.797668 14.595943,17.47016 12.153107,16.008931 12.785935,17.597403 14.138507,21.20263 14.431492,24 13.022583,21.975405 12.488448,21.231377 10.304944,19.77077 7.5080155,17.899814 5.2428377,17.836469 3.9317746,15.080007 2.6235515,12.329476 4.3551625,10.348191 7.4537493,9.4901499 11.881858,8.2639403 15.697254,7.1013821 18.655588,6.0919799 Z"
       id="path911-53"
       inkscape:connector-curvature="0"
       sodipodi:nodetypes="cssscccccsssc" />
    <path
       style="fill:#eff0f1;fill-opacity:1;stroke:none;stroke-width:0.0628571;stroke-linecap:butt;stroke-linejoin:miter;stroke-miterlimit:4;stroke-dasharray:none;stroke-opacity:1"
       d="m 8.9415312,12.365003 c 1.0008498,-0.05749 0.814685,-0.04244 2.5118988,-0.128074 2.529795,2.156434 3.368314,2.771255 7.788018,5.917474 C 14.799047,17.836602 11.437817,16.526381 8.9415312,12.365 Z"
       id="path913-5"
       inkscape:connector-curvature="0"
       sodipodi:nodetypes="cccc" />
    <path
       sodipodi:nodetypes="ccccc"
       inkscape:connector-curvature="0"
       id="path915-6"
       d="M 1.431448,7.59846 C 2.2373146,7.19842 2.9655804,6.8686721 4.6269063,5.6651602 7.8273417,3.346676 11.215759,3.8522998 12.912581,4.7730324 8.2737064,4.9493787 8.87141,5.8736971 8.8542915,6.5983038 5.7722177,5.9486203 4.8723101,6.832577 1.431448,7.59846 Z"
       style="fill:#eff0f1;fill-opacity:1;stroke:none;stroke-width:0.0628571;stroke-linecap:butt;stroke-linejoin:miter;stroke-miterlimit:4;stroke-dasharray:none;stroke-opacity:1" />
    <path
       inkscape:connector-curvature="0"
       id="path917-2"
       d="M 12.912581,4.7730324 C 8.2737064,4.9493787 9.157446,7.4767211 9.8407039,8.8083875 9.2993797,8.9656228 8.712658,9.1447686 7.989008,9.3362772 5.0691646,4.1334717 10.529474,3.4566199 12.912581,4.7730324 Z"
       style="fill:#eff0f1;fill-opacity:1;stroke:none;stroke-width:0.0628571;stroke-linecap:butt;stroke-linejoin:miter;stroke-miterlimit:4;stroke-dasharray:none;stroke-opacity:1"
       sodipodi:nodetypes="cccc" />
    <path
       sodipodi:nodetypes="cscc"
       style="fill:#eff0f1;fill-opacity:1;stroke:none;stroke-width:0.0628571;stroke-linecap:butt;stroke-linejoin:miter;stroke-miterlimit:4;stroke-dasharray:none;stroke-opacity:1"
       d="M 4.7670898,16.37616 C 2.4970783,13.453152 2.9162117,10.773964 7.3612187,9.3819429 11.747704,8.008238 15.697254,7.1013821 18.655588,6.0919799 10.672165,9.133934 0.67534794,11.166554 4.7670898,16.37616 Z"
       id="path919-9"
       inkscape:connector-curvature="0" />
    <path
       d="m 19,7 h 11.191387 a 0.39969229,1 0 0 0 0,-2 H 19 a 0.39969229,1 0 0 0 0,2 z"
       id="path4"
       style="fill:#eff0f1;fill-opacity:1;stroke-width:0.316109" />
    <path
       d="M 29.621585,10 H 17.742051 a 0.96975836,1.0000003 0 0 0 0,2 h 11.879534 a 0.96975841,1.0000003 0 0 0 0,-2 z"
       id="path6"
       style="fill:#eff0f1;fill-opacity:1;stroke-width:0.492381" />
    <path
       d="M 29.747632,15 H 19.416368 a 0.84336822,1 0 0 0 0,2 h 10.331264 a 0.84336822,1 0 0 0 0,-2 z"
       id="path8"
       style="fill:#eff0f1;fill-opacity:1;stroke-width:0.459176" />
    <path
       d="M 29.621212,20 H 17.742424 a 0.969697,1 0 0 0 0,2 h 11.878788 a 0.969697,1 0 0 0 0,-2 z"
       id="path10"
       style="fill:#eff0f1;fill-opacity:1;stroke-width:0.492366" />
    <path
       d="M 29.621212,26 H 2.469697 a 0.969697,1 0 0 0 0,2 h 27.151515 a 0.969697,1 0 0 0 0,-2 z"
       id="path12"
       style="fill:#eff0f1;fill-opacity:1;stroke-width:0.492366" />
  </g>
</svg>
