<?xml version="1.0" encoding="UTF-8" standalone="no"?>
<svg
   xmlns:dc="http://purl.org/dc/elements/1.1/"
   xmlns:cc="http://creativecommons.org/ns#"
   xmlns:rdf="http://www.w3.org/1999/02/22-rdf-syntax-ns#"
   xmlns:svg="http://www.w3.org/2000/svg"
   xmlns="http://www.w3.org/2000/svg"
   xmlns:sodipodi="http://sodipodi.sourceforge.net/DTD/sodipodi-0.dtd"
   xmlns:inkscape="http://www.inkscape.org/namespaces/inkscape"
   sodipodi:docname="kdeconnect.svg"
   height="31.999973"
   width="32.000015"
   inkscape:version="1.0.2 (e86c870879, 2021-01-15)"
   version="1.1"
   id="svg"
   viewBox="0 0 32.000013 31.999973">
  <defs
     id="defs81">
    <style
       type="text/css"
       id="current-color-scheme" />
    <style
       id="current-color-scheme-9"
       type="text/css" />
  </defs>
  <metadata
     id="metadata34">
    <rdf:RDF>
      <cc:Work
         rdf:about="">
        <dc:format>image/svg+xml</dc:format>
        <dc:type
           rdf:resource="http://purl.org/dc/dcmitype/StillImage" />
        <dc:title />
      </cc:Work>
    </rdf:RDF>
  </metadata>
  <sodipodi:namedview
     inkscape:document-rotation="0"
     fit-margin-bottom="0"
     fit-margin-right="0"
     fit-margin-left="0"
     fit-margin-top="0"
     inkscape:snap-bbox-midpoints="true"
     inkscape:snap-bbox="true"
     inkscape:guide-bbox="true"
     showguides="false"
     borderlayer="true"
     inkscape:current-layer="svg"
     inkscape:window-maximized="1"
     inkscape:window-y="0"
     inkscape:window-x="0"
     inkscape:cy="51.939988"
     inkscape:cx="18.781192"
     inkscape:zoom="5.6568541"
     showgrid="false"
     id="namedview32"
     inkscape:window-height="1007"
     inkscape:window-width="1920"
     inkscape:pageshadow="2"
     inkscape:pageopacity="0.11372549"
     guidetolerance="10"
     gridtolerance="10"
     objecttolerance="10"
     borderopacity="1"
     bordercolor="#000000"
     pagecolor="#ffffff"
     inkscape:lockguides="false">
    <inkscape:grid
       spacingy="1.0666667"
       spacingx="1.0666666"
       originy="-31.766648"
       originx="-51.66668"
       snapvisiblegridlinesonly="true"
       enabled="true"
       visible="true"
       empspacing="5"
       id="grid3046"
       type="xygrid" />
  </sodipodi:namedview>
  <g
     id="kdeconnect"
     transform="translate(7.5624752,73.281212)">
    <rect
       width="32.000015"
       height="31.999973"
       rx="0"
       ry="0"
       x="-7.5624752"
       y="-73.281212"
       id="rect3860"
       style="opacity:0.01;fill:#eff0f1;fill-opacity:0;stroke:none" />
    <path
       class="fil0"
       d="m 4.3454751,-69.281209 h 8.6359829 c 1.004184,0 1.807531,0.903766 1.807531,1.90795 v 20.1841 c 0,1.104603 -0.803347,1.90795 -1.807531,1.90795 H 4.3454751 c -1.0041841,0 -1.9079498,-0.803347 -1.9079498,-1.90795 v -20.1841 c 0,-1.004184 0.9037657,-1.90795 1.9079498,-1.90795 z m 2.8117155,21.589958 h 2.9121344 c 0.502091,0 0.903765,0.401674 0.903765,0.903766 0,0.401673 -0.401674,0.803347 -0.903766,0.803347 H 7.1571906 c -0.5020921,0 -0.9037657,-0.401674 -0.9037657,-0.803347 0,-0.502092 0.4016736,-0.903766 0.9037657,-0.903766 z m 0.3012552,-20.585774 h 2.3096234 c 0.3012558,0 0.5020918,0.200837 0.5020918,0.401674 0,0.301255 -0.200836,0.502092 -0.5020918,0.502092 H 7.4584458 c -0.2008368,0 -0.4016736,-0.200837 -0.4016736,-0.502092 0,-0.200837 0.2008368,-0.401674 0.4016736,-0.401674 z m -3.214921,1.707113 h 8.8400002 c 0.401674,0 0.803,0.401674 0.803,0.903766 v 16.368201 c 0,0.502092 -0.401325,0.903765 -0.803,0.903765 H 4.2435248 c -0.502092,0 -0.904,-0.401673 -0.904,-0.903765 v -16.368201 c 0,-0.502092 0.4019118,-0.903766 0.904,-0.903766 z"
       id="path6"
       style="fill:#eff0f1;fill-opacity:1;fill-rule:evenodd;stroke-width:0.100418;image-rendering:optimizeQuality;shape-rendering:geometricPrecision;text-rendering:geometricPrecision"
       sodipodi:nodetypes="ssssssssssssssssssssssssssssssss" />
    <path
       style="color:#d3dae3;fill:#eff0f1;fill-opacity:1;fill-rule:evenodd;stroke-width:0.530408;image-rendering:optimizeQuality;shape-rendering:geometricPrecision;text-rendering:geometricPrecision"
       d="m 9.2194351,-61.636209 -1.599518,0.278674 v 5.509201 l 1.591231,-0.205119 -0.0083,-2.483183 1.8771479,2.748384 1.843997,-0.265201 -2.12163,-2.844731 2.128881,-2.386833 -1.866786,-0.343945 -1.8616099,2.386842 z m -3.3637388,1.406821 c -0.01539,9.97e-4 -0.02984,0.008 -0.04146,0.01965 l -0.549054,0.555274 c -0.02387,0.024 -0.02784,0.06145 -0.0092,0.09014 l 0.663011,1.018342 c -0.125077,0.221964 -0.219576,0.465339 -0.280748,0.719988 l -1.14472,0.280745 c -0.03172,0.0078 -0.056,0.0365 -0.056,0.06944 v 0.361548 0.361548 c 0,0.03292 0.02421,0.06163 0.056,0.06945 l 1.144719,0.280739 c 0.06115,0.254652 0.155669,0.498029 0.280748,0.719991 l -0.66301,1.018337 c -0.01853,0.02868 -0.01453,0.06613 0.0092,0.09013 l 0.549058,0.555273 c 0.02311,0.02341 0.0591,0.02528 0.08697,0.0083 l 1.03906,-0.637107 c 0.2038478,0.118758 0.5227228,0.214305 0.7552108,0.277635 l 0.243454,1.175798 c 0.0072,0.03393 0.03376,0.058 0.0673,0.058 h 0.409199 0.409203 c 0.03366,0 0.06055,-0.02402 0.06731,-0.058 l 0.243452,-1.175798 c 0.23249,-0.06335 0.55136,-0.158884 0.755212,-0.27764 l 1.0390639,0.63711 c 0.02797,0.01695 0.06383,0.01509 0.08696,-0.0083 l 0.549063,-0.555274 c 0.02387,-0.02401 0.02785,-0.06145 0.0093,-0.09013 l -0.552163,-0.848441 -0.06838,0.01011 -0.38745,-0.567705 c -0.395715,0.829537 -1.2325839,1.358173 -2.1516719,1.35917 -1.318213,0 -2.3868368,-1.06862 -2.3868368,-2.386833 9.62e-4,-0.906007 0.514418,-1.733472 1.3260168,-2.136139 v -0.521038 c -0.151291,0.05041 -0.299948,0.107355 -0.4143778,0.174045 l -1.039002,-0.637076 c -0.01401,-0.0085 -0.03017,-0.01267 -0.04562,-0.0113 z"
       class="ColorScheme-Text"
       id="path10" />
  </g>
  <g
     id="22-22-kdeconnect">
    <rect
       style="fill:#000000;fill-opacity:0;stroke:none"
       id="rect3841"
       width="22"
       height="22"
       x="4.5624743"
       y="38.781212" />
    <path
       class="fil0"
       d="m 12.634441,41.781211 h 5.757322 c 0.669456,0 1.20502,0.60251 1.20502,1.271967 v 13.456066 c 0,0.736402 -0.535564,1.271967 -1.20502,1.271967 h -5.757322 c -0.669457,0 -1.271967,-0.535565 -1.271967,-1.271967 V 43.053178 c 0,-0.669457 0.60251,-1.271967 1.271967,-1.271967 z m 1.874477,14.393305 h 1.941422 c 0.334728,0 0.602511,0.267783 0.602511,0.602511 0,0.267782 -0.267783,0.535565 -0.602511,0.535565 h -1.941422 c -0.334729,0 -0.602511,-0.267783 -0.602511,-0.535565 0,-0.334728 0.267782,-0.602511 0.602511,-0.602511 z m 0.200836,-13.723849 h 1.539749 c 0.200837,0 0.334728,0.133891 0.334728,0.267782 0,0.200837 -0.133891,0.334729 -0.334728,0.334729 h -1.539749 c -0.133891,0 -0.267782,-0.133892 -0.267782,-0.334729 0,-0.133891 0.133891,-0.267782 0.267782,-0.267782 z M 12.7,43.588742 h 5.626 c 0.267782,0 0.536,0.267783 0.536,0.602511 v 10.912134 c 0,0.334728 -0.268218,0.60251 -0.536,0.60251 H 12.7 c -0.334728,0 -0.603,-0.267782 -0.603,-0.60251 V 44.191253 c 0,-0.334728 0.268272,-0.602511 0.603,-0.602511 z"
       id="path6-6"
       style="fill:#eff0f1;fill-opacity:1;fill-rule:evenodd;stroke-width:0.0669453;image-rendering:optimizeQuality;shape-rendering:geometricPrecision;text-rendering:geometricPrecision"
       sodipodi:nodetypes="ssssssssssssssssssssssssssssssss" />
    <path
       style="color:#d3dae3;fill:#eff0f1;fill-opacity:1;fill-rule:evenodd;stroke-width:0.353608;image-rendering:optimizeQuality;shape-rendering:geometricPrecision;text-rendering:geometricPrecision"
       d="m 15.883774,46.877873 -1.06637,0.185786 v 3.6728 l 1.06083,-0.136745 -0.008,-1.65545 1.25146,1.832251 1.22937,-0.176801 -1.41443,-1.896485 1.41926,-1.591226 -1.24458,-0.229294 -1.24108,1.591228 z m -2.24258,0.93788 c -0.012,6.75e-4 -0.0192,0.0054 -0.0279,0.01306 l -0.36604,0.370189 c -0.0159,0.016 -0.0182,0.04098 -0.009,0.06009 l 0.44203,0.678892 c -0.0829,0.147977 -0.14645,0.310228 -0.18716,0.479989 l -0.76314,0.187156 c -0.0211,0.0052 -0.0374,0.02428 -0.0374,0.04624 v 0.241037 0.241027 c 0,0.02202 0.0162,0.04109 0.0374,0.04625 l 0.76315,0.18716 c 0.0402,0.169769 0.10382,0.332017 0.18717,0.479997 l -0.44203,0.678889 c -0.0124,0.01908 -0.012,0.04402 0.009,0.06003 l 0.36611,0.370199 c 0.0151,0.01561 0.0399,0.0168 0.0581,0.0057 l 0.69269,-0.424736 c 0.13587,0.07916 0.34845,0.142867 0.50343,0.185088 l 0.16234,0.783868 c 0.007,0.02261 0.0225,0.03864 0.0452,0.03864 h 0.27273 0.27287 c 0.0229,0 0.0403,-0.01602 0.0452,-0.03864 l 0.16219,-0.783868 c 0.15501,-0.04224 0.36769,-0.105864 0.50362,-0.185091 l 0.6927,0.424738 c 0.0185,0.01147 0.0424,0.01024 0.0581,-0.0057 l 0.36614,-0.370199 c 0.0159,-0.01601 0.0184,-0.04099 0.009,-0.06 l -0.36812,-0.565623 -0.0455,0.0068 -0.25825,-0.378472 c -0.2638,0.553027 -0.82176,0.905449 -1.43449,0.906115 -0.87878,0 -1.59118,-0.712412 -1.59118,-1.591223 6.3e-4,-0.604005 0.34293,-1.155647 0.88395,-1.424093 v -0.34729 c -0.10033,0.03361 -0.19996,0.07162 -0.27621,0.11602 l -0.69268,-0.424717 c -0.0119,-0.0059 -0.0195,-0.0073 -0.03,-0.0073 z"
       class="ColorScheme-Text"
       id="path10-7" />
  </g>
  <g
     id="16-16-kdeconnect">
    <rect
       style="fill:#566060;fill-opacity:0;stroke:none"
       id="rect3889"
       width="16"
       height="16"
       x="7.5624752"
       y="73.281212"
       ry="2.9278411e-07" />
    <path
       class="fil0"
       d="m 13.36645,75.281212 h 4.317991 c 0.502092,0 0.903766,0.451883 0.903766,0.953975 v 10.09205 c 0,0.552301 -0.401674,0.953975 -0.903765,0.953975 H 13.36645 c -0.502092,0 -0.953975,-0.401674 -0.953975,-0.953975 v -10.09205 c 0,-0.502092 0.451883,-0.953975 0.953975,-0.953975 z m 1.405858,10.794979 h 1.456067 c 0.251046,0 0.451882,0.200837 0.451882,0.451883 0,0.200836 -0.200836,0.401673 -0.451882,0.401673 h -1.456067 c -0.251046,0 -0.451883,-0.200837 -0.451883,-0.401673 0,-0.251046 0.200837,-0.451883 0.451883,-0.451883 z m 0.150627,-10.292887 h 1.154812 c 0.150628,0 0.251046,0.100418 0.251046,0.200837 0,0.150627 -0.100418,0.251046 -0.251046,0.251046 h -1.154812 c -0.100418,0 -0.200837,-0.100419 -0.200837,-0.251046 0,-0.100419 0.100419,-0.200837 0.200837,-0.200837 z M 13.515,76.636861 h 4.02 c 0.200837,0 0.402,0.200836 0.402,0.451882 v 8.184101 c 0,0.251046 -0.201163,0.451883 -0.402,0.451883 h -4.02 c -0.251046,0 -0.451,-0.200837 -0.451,-0.451883 v -8.184101 c 0,-0.251046 0.199954,-0.451882 0.451,-0.451882 z"
       id="path6-6-3"
       style="fill:#eff0f1;fill-opacity:1;fill-rule:evenodd;stroke-width:0.050209;image-rendering:optimizeQuality;shape-rendering:geometricPrecision;text-rendering:geometricPrecision"
       sodipodi:nodetypes="ssssssssssssssssssssssssssssssss" />
    <path
       style="color:#d3dae3;fill:#eff0f1;fill-opacity:1;fill-rule:evenodd;stroke-width:0.265208;image-rendering:optimizeQuality;shape-rendering:geometricPrecision;text-rendering:geometricPrecision"
       d="m 15.803416,79.103713 -0.79971,0.139337 v 2.7546 l 0.79563,-0.102565 -0.008,-1.24158 0.93862,1.374181 0.92199,-0.132601 -1.06082,-1.422365 1.06445,-1.193409 -0.93346,-0.171971 -0.93078,1.193412 z m -1.68186,0.703401 c -0.01,5.15e-4 -0.0148,0.0044 -0.0209,0.0098 l -0.27448,0.277648 c -0.0119,0.012 -0.0141,0.03068 -0.009,0.045 l 0.33151,0.509166 c -0.0625,0.110988 -0.10981,0.232674 -0.14038,0.359995 l -0.57236,0.140372 c -0.0161,0.0042 -0.0284,0.01824 -0.0284,0.03464 v 0.180777 0.18077 c 0,0.0165 0.0122,0.03079 0.0284,0.03465 l 0.57237,0.140372 c 0.0299,0.127326 0.078,0.249013 0.14038,0.359998 l -0.3315,0.509166 c -0.01,0.01428 -0.01,0.03302 0.009,0.045 l 0.27455,0.277649 c 0.0111,0.01169 0.0302,0.01259 0.0431,0.0047 l 0.5195,-0.318552 c 0.10189,0.05939 0.26132,0.107152 0.37761,0.138815 l 0.12175,0.587903 c 0.007,0.01699 0.0175,0.02901 0.0336,0.02901 h 0.20456 0.20464 c 0.0175,0 0.0303,-0.01202 0.0336,-0.02901 l 0.12166,-0.587903 c 0.11627,-0.03172 0.27575,-0.07942 0.37768,-0.138817 l 0.51953,0.318553 c 0.0141,0.0085 0.0314,0.0074 0.0431,-0.0047 l 0.27456,-0.277649 c 0.0119,-0.01201 0.0141,-0.0307 0.009,-0.045 l -0.2761,-0.424213 -0.0338,0.0058 -0.19368,-0.283853 c -0.19791,0.41477 -0.61633,0.679087 -1.07587,0.679584 -0.65914,0 -1.19337,-0.534307 -1.19337,-1.193416 4.3e-4,-0.453003 0.25715,-0.866735 0.66295,-1.06807 v -0.260553 c -0.0755,0.02521 -0.14997,0.05369 -0.20711,0.08701 l -0.51949,-0.318565 c -0.01,-0.0049 -0.015,-0.0061 -0.022,-0.0061 z"
       class="ColorScheme-Text"
       id="path10-7-5" />
  </g>
</svg>
