<?xml version="1.0" encoding="UTF-8" standalone="no"?>
<svg
   width="32"
   height="32"
   version="1"
   id="svg12"
   sodipodi:docname="klipper.svg"
   inkscape:version="1.1.2 (0a00cf5339, 2022-02-04)"
   xmlns:inkscape="http://www.inkscape.org/namespaces/inkscape"
   xmlns:sodipodi="http://sodipodi.sourceforge.net/DTD/sodipodi-0.dtd"
   xmlns="http://www.w3.org/2000/svg"
   xmlns:svg="http://www.w3.org/2000/svg"
   xmlns:rdf="http://www.w3.org/1999/02/22-rdf-syntax-ns#"
   xmlns:cc="http://creativecommons.org/ns#"
   xmlns:dc="http://purl.org/dc/elements/1.1/">
  <metadata
     id="metadata18">
    <rdf:RDF>
      <cc:Work
         rdf:about="">
        <dc:format>image/svg+xml</dc:format>
        <dc:type
           rdf:resource="http://purl.org/dc/dcmitype/StillImage" />
      </cc:Work>
    </rdf:RDF>
  </metadata>
  <defs
     id="defs16" />
  <sodipodi:namedview
     pagecolor="#ffffff"
     bordercolor="#000000"
     borderopacity="1"
     objecttolerance="10"
     gridtolerance="10"
     guidetolerance="10"
     inkscape:pageopacity="0"
     inkscape:pageshadow="2"
     inkscape:window-width="1920"
     inkscape:window-height="1011"
     id="namedview14"
     showgrid="false"
     inkscape:zoom="7.4130869"
     inkscape:cx="30.554073"
     inkscape:cy="21.785796"
     inkscape:window-x="0"
     inkscape:window-y="0"
     inkscape:window-maximized="1"
     inkscape:current-layer="svg12"
     inkscape:document-rotation="0"
     inkscape:lockguides="false"
     showguides="false"
     inkscape:showpageshadow="false"
     inkscape:pagecheckerboard="0">
    <inkscape:grid
       type="xygrid"
       id="grid855"
       originx="0"
       originy="0" />
  </sodipodi:namedview>
  <g
     id="klipper">
    <rect
       style="opacity:0.00100002"
       width="32"
       height="32"
       x="0"
       y="0"
       id="rect7" />
    <rect
       x="8.0961533"
       y="11"
       width="13.116347"
       height="1"
       id="rect2-3"
       style="fill:#eff0f1;fill-opacity:1;stroke-width:0.892265" />
    <rect
       x="8.0961533"
       y="14"
       width="13.116347"
       height="1"
       id="rect4"
       style="fill:#eff0f1;fill-opacity:1;stroke-width:0.892265" />
    <path
       d="m 24.275395,12.866216 0.447749,-0.776218 c 0.320246,-0.554233 1.028971,-0.742481 1.582433,-0.423738 v 0 c 0.554238,0.319488 0.74325,1.027464 0.423755,1.581705 L 26.280835,14.0242 Z"
       id="path6"
       style="fill:#9c9cc4;fill-opacity:1;stroke-width:0.749969" />
    <path
       d="m 24.062411,13.233705 -5.054837,8.75674 -0.119996,1.92144 c -0.0072,0.140977 0.05243,0.263234 0.161242,0.325494 0.107996,0.0622 0.24225,0.05468 0.362975,-0.024 l 1.601965,-1.064218 5.05559,-8.755233 z m -4.142115,10.083449 -0.513003,-0.295507 0.03976,-0.778463 1.127958,0.650967 z"
       id="path8"
       style="fill:#9f9fc6;fill-opacity:1;stroke-width:0.749969" />
    <polygon
       points="19.43,27.038 19.489,26.096 5.871,26.096 5.871,27.038 "
       id="polygon10"
       transform="matrix(0.74997663,0,0,1.0615711,3.693044,-4.7027594)"
       style="fill:#eff0f1;fill-opacity:1" />
    <polygon
       points="23.069,18.084 5.871,18.084 5.871,19.026 22.525,19.026 "
       id="polygon12"
       transform="matrix(0.74997663,0,0,1.0615711,3.693044,-2.1974518)"
       style="fill:#eff0f1;fill-opacity:1" />
    <polygon
       points="20.757,22.09 5.871,22.09 5.871,23.032 20.213,23.032 "
       id="polygon14"
       transform="matrix(0.74997663,0,0,1.0615711,3.693044,-3.4501056)"
       style="fill:#eff0f1;fill-opacity:1" />
    <path
       d="m 22.919727,21.083725 v 5.690054 c 0,0.08623 -0.0719,0.157506 -0.159061,0.157506 H 6.2370667 c -0.087132,0 -0.158327,-0.07118 -0.158327,-0.157506 V 8.049124 c 0,-0.08626 0.071203,-0.156744 0.158327,-0.156744 H 10.181611 L 9.9551001,9.112589 c -0.031054,0.1702467 0.085605,0.3089923 0.2605979,0.3089923 h 8.568597 c 0.174252,0 0.291653,-0.1394972 0.259827,-0.3089923 L 18.817641,7.89238 h 3.943025 c 0.0871,0 0.159061,0.07049 0.159061,0.156744 v 5.67958 l 1.079506,-1.850951 V 8.049124 c 0,-0.674978 -0.55527,-1.224713 -1.238567,-1.224713 H 18.619157 L 18.522934,6.304678 C 18.491885,6.134433 18.322945,5.994939 18.148715,5.994939 H 16.760134 C 16.760134,4.893221 15.747299,4 14.498872,4 13.251199,4 12.238354,4.893221 12.238354,5.994939 h -1.387832 c -0.174237,0 -0.343168,0.140244 -0.374985,0.309739 l -0.09621,0.520484 H 6.2370717 C 5.5552802,6.825162 5,7.374146 5,8.049873 V 26.774531 C 5,27.449525 5.5545236,28 6.2370717,28 H 22.76143 C 23.443971,28 24,27.45028 24,26.774531 V 19.234283 Z M 14.498872,5.170713 c 0.562842,0 1.019652,0.451485 1.019652,1.008718 0,0.557233 -0.45681,1.00797 -1.019652,1.00797 -0.562101,0 -1.018148,-0.451485 -1.018148,-1.008718 0,-0.557233 0.456047,-1.00797 1.018148,-1.00797 z"
       id="path16"
       style="fill:#eff0f1;fill-opacity:1;stroke-width:0.753745" />
  </g>
  <g
     id="22-22-klipper"
     transform="translate(32,10)">
    <rect
       style="opacity:0.00100002"
       width="22"
       height="22"
       x="0"
       y="0"
       id="rect2" />
    <rect
       x="5.6974459"
       y="7.5"
       width="8.7442312"
       height="0.5"
       id="rect2-6"
       style="fill:#eff0f1;fill-opacity:1;stroke-width:0.515146" />
    <rect
       x="5.6974459"
       y="9.5"
       width="8.7442312"
       height="0.5"
       id="rect4-7"
       style="fill:#eff0f1;fill-opacity:1;stroke-width:0.515146" />
    <path
       d="M 16.284,8.910811 16.582506,8.393332 C 16.796008,8.023844 17.268488,7.898345 17.637458,8.11084 v 0 c 0.369487,0.212992 0.495502,0.684976 0.282503,1.05447 L 17.620968,9.6828 Z"
       id="path6-5"
       style="fill:#9f9fc6;fill-opacity:1;stroke-width:0.499976" />
    <path
       d="m 16.14126,9.155803 -3.369899,5.837828 -0.08,1.28096 c -0.0046,0.094 0.03495,0.175488 0.107504,0.216996 0.072,0.04142 0.161503,0.03646 0.241983,-0.016 l 1.067973,-0.70948 3.37039,-5.8368211 z m -2.761419,6.722303 -0.341994,-0.197011 0.02651,-0.518977 0.751969,0.433983 z"
       id="path8-3"
       style="fill:#9e9ec7;fill-opacity:1;stroke-width:0.499976" />
    <polygon
       points="5.871,26.096 5.871,27.038 19.43,27.038 19.489,26.096 "
       id="polygon10-5"
       transform="matrix(0.49998437,0,0,0.53078556,2.762035,1.64862)"
       style="fill:#eff0f1;fill-opacity:1" />
    <polygon
       points="5.871,19.026 22.525,19.026 23.069,18.084 5.871,18.084 "
       id="polygon12-6"
       transform="matrix(0.49998437,0,0,0.53078556,2.762035,1.9012739)"
       style="fill:#eff0f1;fill-opacity:1" />
    <polygon
       points="20.213,23.032 20.757,22.09 5.871,22.09 5.871,23.032 "
       id="polygon14-2"
       transform="matrix(0.49711138,0,0,0.53078556,2.7789025,1.774947)"
       style="fill:#eff0f1;fill-opacity:1" />
    <path
       d="m 15.355458,14.417969 v 3.769663 c 0,0.05707 -0.04554,0.104352 -0.100807,0.104352 H 4.7839157 c -0.055205,0 -0.1003306,-0.04714 -0.1003306,-0.104352 V 5.7825447 c 0,-0.057141 0.045125,-0.1038429 0.1003306,-0.1038429 H 7.2835102 L 7.1399753,6.4870896 c -0.019691,0.1127896 0.054245,0.2047085 0.1651357,0.2047085 h 5.429786 c 0.110423,0 0.184812,-0.092419 0.16465,-0.2047085 L 12.756024,5.6787018 h 2.498636 c 0.05513,0 0.100806,0.046706 0.100806,0.1038419 v 3.762724 L 16.039529,8.319011 V 5.7825447 c 0,-0.4471736 -0.351872,-0.8113731 -0.784863,-0.8113731 H 12.630255 L 12.569283,4.6268492 C 12.549615,4.5140615 12.442548,4.4216478 12.332133,4.4216478 H 11.452218 C 11.452218,3.6917583 10.810396,3.1 10.019292,3.1 9.2286598,3.1 8.5868353,3.6917583 8.5868353,4.4216478 H 7.7073895 c -0.1104116,0 -0.2174592,0.092906 -0.2376239,0.2052014 L 7.4087984,4.9716705 H 4.7839127 C 4.3518724,4.9716705 4,5.3353711 4,5.7830415 V 18.188124 C 4.000003,18.635313 4.351396,19 4.7839157,19 H 15.255137 C 15.687652,19 16.04,18.635807 16.04,18.188124 V 13.192713 Z M 10.019292,3.875597 c 0.356663,0 0.646134,0.2991088 0.646134,0.668276 0,0.3691662 -0.289471,0.6677802 -0.646134,0.6677802 -0.3561954,0 -0.6451829,-0.2991088 -0.6451829,-0.668275 0,-0.3691672 0.2889875,-0.6677812 0.6451829,-0.6677812 z"
       id="path16-9"
       style="fill:#eff0f1;fill-opacity:1;stroke-width:0.488372" />
  </g>
</svg>
