<?xml version="1.0" encoding="UTF-8" standalone="no"?>
<svg
   xmlns:dc="http://purl.org/dc/elements/1.1/"
   xmlns:cc="http://creativecommons.org/ns#"
   xmlns:rdf="http://www.w3.org/1999/02/22-rdf-syntax-ns#"
   xmlns:svg="http://www.w3.org/2000/svg"
   xmlns="http://www.w3.org/2000/svg"
   xmlns:sodipodi="http://sodipodi.sourceforge.net/DTD/sodipodi-0.dtd"
   xmlns:inkscape="http://www.inkscape.org/namespaces/inkscape"
   width="32"
   height="32"
   version="1"
   id="svg12"
   sodipodi:docname="klipper.svg"
   inkscape:version="1.0.2 (e86c870879, 2021-01-15)">
  <metadata
     id="metadata18">
    <rdf:RDF>
      <cc:Work
         rdf:about="">
        <dc:format>image/svg+xml</dc:format>
        <dc:type
           rdf:resource="http://purl.org/dc/dcmitype/StillImage" />
        <dc:title />
      </cc:Work>
    </rdf:RDF>
  </metadata>
  <defs
     id="defs16" />
  <sodipodi:namedview
     pagecolor="#ffffff"
     bordercolor="#000000"
     borderopacity="1"
     objecttolerance="10"
     gridtolerance="10"
     guidetolerance="10"
     inkscape:pageopacity="0"
     inkscape:pageshadow="2"
     inkscape:window-width="1920"
     inkscape:window-height="1007"
     id="namedview14"
     showgrid="false"
     inkscape:zoom="5.241844"
     inkscape:cx="41.060071"
     inkscape:cy="30.3972"
     inkscape:window-x="0"
     inkscape:window-y="0"
     inkscape:window-maximized="1"
     inkscape:current-layer="svg12"
     inkscape:document-rotation="0"
     inkscape:lockguides="false"
     showguides="false"
     inkscape:showpageshadow="false">
    <inkscape:grid
       type="xygrid"
       id="grid855"
       originx="0"
       originy="0" />
  </sodipodi:namedview>
  <g
     id="klipper">
    <rect
       style="opacity:0.00100002"
       width="32"
       height="32"
       x="0"
       y="0"
       id="rect7" />
    <rect
       x="8.0961533"
       y="11.178766"
       width="13.116347"
       height="0.70647854"
       id="rect2-3"
       style="fill:#eff0f1;fill-opacity:1;stroke-width:0.749969" />
    <rect
       x="8.0961533"
       y="14.183187"
       width="13.116347"
       height="0.70647854"
       id="rect4"
       style="fill:#eff0f1;fill-opacity:1;stroke-width:0.749969" />
    <path
       d="m 24.275395,12.866216 0.447749,-0.776218 c 0.320246,-0.554233 1.028971,-0.742481 1.582433,-0.423738 v 0 c 0.554238,0.319488 0.74325,1.027464 0.423755,1.581705 L 26.280835,14.0242 Z"
       id="path6"
       style="fill:#9c9cc4;fill-opacity:1;stroke-width:0.749969" />
    <path
       d="m 24.062411,13.233705 -5.054837,8.75674 -0.119996,1.92144 c -0.0072,0.140977 0.05243,0.263234 0.161242,0.325494 0.107996,0.0622 0.24225,0.05468 0.362975,-0.024 l 1.601965,-1.064218 5.05559,-8.755233 z m -4.142115,10.083449 -0.513003,-0.295507 0.03976,-0.778463 1.127958,0.650967 z"
       id="path8"
       style="fill:#9f9fc6;fill-opacity:1;stroke-width:0.749969" />
    <polygon
       points="5.871,26.096 5.871,27.038 19.43,27.038 19.489,26.096 "
       id="polygon10"
       transform="matrix(0.74997663,0,0,0.74997663,3.693044,3.625012)"
       style="fill:#eff0f1;fill-opacity:1" />
    <polygon
       points="5.871,19.026 22.525,19.026 23.069,18.084 5.871,18.084 "
       id="polygon12"
       transform="matrix(0.74997663,0,0,0.74997663,3.693044,3.625012)"
       style="fill:#eff0f1;fill-opacity:1" />
    <polygon
       points="5.871,23.032 20.213,23.032 20.757,22.09 5.871,22.09 "
       id="polygon14"
       transform="matrix(0.74997663,0,0,0.74997663,3.693044,3.625012)"
       style="fill:#eff0f1;fill-opacity:1" />
    <path
       d="m 22.990676,21.083725 v 5.690054 c 0,0.08623 -0.07118,0.157506 -0.157472,0.157506 H 6.474706 c -0.08626,0 -0.156745,-0.07118 -0.156745,-0.157506 V 8.049124 c 0,-0.08626 0.07049,-0.156744 0.156745,-0.156744 h 3.90513 l -0.224245,1.220209 c -0.03075,0.1702467 0.08475,0.3089923 0.257992,0.3089923 h 8.482981 c 0.172511,0 0.288738,-0.1394972 0.257232,-0.3089923 L 18.929577,7.89238 h 3.903627 c 0.08623,0 0.157472,0.07049 0.157472,0.156744 v 5.67958 l 1.068719,-1.850951 V 8.049124 c 0,-0.674978 -0.549721,-1.224713 -1.226191,-1.224713 H 18.733075 L 18.637815,6.304678 C 18.607075,6.134433 18.439823,5.994939 18.267333,5.994939 H 16.89263 C 16.89263,4.893221 15.889912,4 14.65396,4 13.418755,4 12.416028,4.893221 12.416028,5.994939 h -1.373963 c -0.172496,0 -0.339739,0.140244 -0.37124,0.309739 l -0.09524,0.520484 H 6.474711 C 5.799732,6.825162 5.25,7.374146 5.25,8.049873 V 26.774531 C 5.25,27.449525 5.798983,28 6.474711,28 H 22.83396 c 0.675719,0 1.226194,-0.54972 1.226194,-1.225469 V 19.234283 Z M 14.65396,5.170713 c 0.55722,0 1.009463,0.451485 1.009463,1.008718 0,0.557233 -0.452243,1.00797 -1.009463,1.00797 -0.556485,0 -1.007973,-0.451485 -1.007973,-1.008718 0,-0.557233 0.451488,-1.00797 1.007973,-1.00797 z"
       id="path16"
       style="fill:#eff0f1;fill-opacity:1;stroke-width:0.749969" />
  </g>
  <g
     id="22-22-klipper"
     transform="translate(32,10)">
    <rect
       style="opacity:0.00100002"
       width="22"
       height="22"
       x="0"
       y="0"
       id="rect2" />
    <rect
       x="5.6974459"
       y="7.7858419"
       width="8.7442312"
       height="0.47098589"
       id="rect2-6"
       style="fill:#eff0f1;fill-opacity:1;stroke-width:0.499976" />
    <rect
       x="5.6974459"
       y="9.7887917"
       width="8.7442312"
       height="0.47098589"
       id="rect4-7"
       style="fill:#eff0f1;fill-opacity:1;stroke-width:0.499976" />
    <path
       d="M 16.483599,8.910811 16.782105,8.393332 C 16.995607,8.023844 17.468087,7.898345 17.837057,8.11084 v 0 c 0.369487,0.212992 0.495502,0.684976 0.282503,1.05447 L 17.820567,9.6828 Z"
       id="path6-5"
       style="fill:#9f9fc6;fill-opacity:1;stroke-width:0.499976" />
    <path
       d="m 16.341619,9.155803 -3.369899,5.837828 -0.08,1.28096 c -0.0046,0.094 0.03495,0.175488 0.107504,0.216996 0.072,0.04142 0.161503,0.03646 0.241983,-0.016 l 1.067973,-0.70948 3.37039,-5.8368211 z m -2.761419,6.722303 -0.341994,-0.197011 0.02651,-0.518977 0.751969,0.433983 z"
       id="path8-3"
       style="fill:#9e9ec7;fill-opacity:1;stroke-width:0.499976" />
    <polygon
       points="19.489,26.096 5.871,26.096 5.871,27.038 19.43,27.038 "
       id="polygon10-5"
       transform="matrix(0.49998437,0,0,0.49998437,2.762035,2.750008)"
       style="fill:#eff0f1;fill-opacity:1" />
    <polygon
       points="5.871,18.084 5.871,19.026 22.525,19.026 23.069,18.084 "
       id="polygon12-6"
       transform="matrix(0.49998437,0,0,0.49998437,2.762035,2.750008)"
       style="fill:#eff0f1;fill-opacity:1" />
    <polygon
       points="5.871,22.09 5.871,23.032 20.213,23.032 20.757,22.09 "
       id="polygon14-2"
       transform="matrix(0.49998437,0,0,0.49998437,2.762035,2.750008)"
       style="fill:#eff0f1;fill-opacity:1" />
    <path
       d="m 15.627127,14.389151 v 3.793372 c 0,0.05743 -0.04744,0.105008 -0.104994,0.105008 H 4.616477 c -0.0575,0 -0.104498,-0.04744 -0.104498,-0.105008 V 5.699416 c 0,-0.0575 0.047,-0.104496 0.104498,-0.104496 h 2.60342 L 7.0704,6.408392 C 7.04989,6.521891 7.1269,6.614388 7.242395,6.614388 h 5.655322 c 0.11501,0 0.192489,-0.093 0.17149,-0.205996 L 12.91972,5.59492 h 2.602422 c 0.05743,0 0.104994,0.047 0.104994,0.104495 V 9.485804 L 16.339613,8.251835 V 5.699416 c 0,-0.449986 -0.366485,-0.816476 -0.817465,-0.816476 H 12.788729 L 12.725219,4.536452 C 12.704739,4.422955 12.593226,4.32996 12.478225,4.32996 H 11.561759 C 11.561759,3.59548 10.89328,3 10.069314,3 9.245842,3 8.577358,3.59548 8.577358,4.32996 H 7.661383 c -0.114998,0 -0.226492,0.09349 -0.247494,0.206492 l -0.0635,0.34699 H 4.616474 C 4.166488,4.883442 3.8,5.24943 3.8,5.699916 V 18.183018 C 3.800003,18.633019 4.165992,19 4.616477,19 h 10.906162 c 0.450483,0 0.817465,-0.366484 0.817465,-0.816982 V 13.156189 Z M 10.069314,3.780475 c 0.371477,0 0.672974,0.30099 0.672974,0.672479 0,0.371488 -0.301497,0.67198 -0.672974,0.67198 -0.37099,0 -0.671981,-0.30099 -0.671981,-0.672478 0,-0.371489 0.300991,-0.671981 0.671981,-0.671981 z"
       id="path16-9"
       style="fill:#eff0f1;fill-opacity:1;stroke-width:0.499976" />
  </g>
</svg>
