<?xml version="1.0" encoding="UTF-8" standalone="no"?>
<svg
   xmlns:dc="http://purl.org/dc/elements/1.1/"
   xmlns:cc="http://creativecommons.org/ns#"
   xmlns:rdf="http://www.w3.org/1999/02/22-rdf-syntax-ns#"
   xmlns:svg="http://www.w3.org/2000/svg"
   xmlns="http://www.w3.org/2000/svg"
   xmlns:xlink="http://www.w3.org/1999/xlink"
   xmlns:sodipodi="http://sodipodi.sourceforge.net/DTD/sodipodi-0.dtd"
   xmlns:inkscape="http://www.inkscape.org/namespaces/inkscape"
   width="32"
   height="32"
   version="1.1"
   id="svg12"
   sodipodi:docname="ktorrent.svg"
   inkscape:version="1.0.2 (e86c870879, 2021-01-15)">
  <g
     id="22-22-ktorrent"
     transform="translate(32,10.000001)">
    <rect
       style="opacity:0.00100002"
       width="22"
       height="22"
       x="0"
       y="0"
       id="rect2" />
    <path
       d="m 18.00312,11.00312 c 0,-0.135501 0.05507,-0.260488 0.144997,-0.355 0.09503,-0.09049 0.225013,-0.145 0.355003,-0.145 0.13001,0 0.26,0.05452 0.355008,0.145 0.184992,0.179499 0.184992,0.52 0,0.710009 -0.09504,0.08999 -0.224998,0.144991 -0.355008,0.144991 -0.12999,0 -0.26,-0.05506 -0.355003,-0.144991 -0.09001,-0.09501 -0.144997,-0.225001 -0.144997,-0.355009 z"
       id="path8-6-7"
       style="fill:#e6e6e6;stroke-width:0.5" />
    <path
       d="m 3,11 c 0,-4.410998 3.589002,-8 8,-8 4.410992,0 8,3.589002 8,8 0,0.276 -0.224,0.5 -0.5,0.5 C 18.224,11.5 18,11.276 18,11 18,7.14 14.86,4 11,4 7.14,4 4,7.14 4,11 c 0,3.86 3.14,7 7,7 0.276,0 0.5,0.223496 0.5,0.5 0,0.276504 -0.224,0.5 -0.5,0.5 -4.410998,0 -8,-3.589002 -8,-8 z"
       id="path2-0-53"
       style="fill:#eff0f1;fill-opacity:1;stroke-width:0.5" />
    <path
       d="m 10.50312,3.50312 c 0,-0.129992 0.05507,-0.26 0.144997,-0.355003 0.09503,-0.09003 0.225013,-0.144997 0.355003,-0.144997 0.13001,0 0.26,0.05506 0.355008,0.144997 0.184992,0.190009 0.184992,0.52 0,0.710009 -0.09504,0.09003 -0.224998,0.144994 -0.355008,0.144994 -0.12999,0 -0.26,-0.05506 -0.355003,-0.144994 C 10.558107,3.763096 10.50312,3.633128 10.50312,3.50312 Z"
       id="path4-6-5"
       style="opacity:0.01;fill:url(#linearGradient941);fill-opacity:1;stroke-width:0.5" />
    <path
       d="m 12.84881,17.867219 c 0.264998,-0.07 0.54,0.0905 0.60999,0.355002 v 0 c 0.07495,0.269999 -0.08502,0.54 -0.34999,0.614994 v 0 c -0.27001,0.07 -0.54,-0.09 -0.615002,-0.354994 v 0 c -0.01007,-0.04504 -0.01514,-0.08501 -0.01514,-0.130001 v 0 c 0,-0.22 0.144997,-0.425001 0.37,-0.485001 z m 1.684998,-0.700001 v 0.0056 c 0.24,-0.14 0.544992,-0.05996 0.684992,0.18 v 0 c 0.14,0.24 0.05505,0.545 -0.184992,0.684502 v 0 c -0.235008,0.13549 -0.544998,0.05506 -0.68,-0.18451 v 0 c -0.04513,-0.08002 -0.06997,-0.165012 -0.06997,-0.250013 v 0 c 0,-0.170499 0.09003,-0.34 0.25001,-0.434999 z m 1.449989,-1.110498 c 0.195003,-0.195002 0.510011,-0.195002 0.705013,0 v 0 c 0.194987,0.1955 0.194987,0.510499 0,0.704998 v 0 c 0,0 0,0 0,0.0056 v 0 c -0.195002,0.190456 -0.51001,0.190456 -0.705013,-0.0049 v 0 c -0.1,-0.09455 -0.144997,-0.225052 -0.144997,-0.350049 v 0 c 0,-0.130001 0.04512,-0.26 0.144997,-0.355498 z M 17.0988,14.607219 c 0.135008,-0.24 0.444997,-0.320507 0.68,-0.18 v 0 c 0.24,0.135002 0.32,0.44 0.184997,0.68 v 0 0 0 c -0.14,0.239494 -0.444997,0.32 -0.684997,0.185001 v 0 c -0.16,-0.095 -0.24999,-0.2605 -0.24999,-0.435005 v 0 c 0,-0.085 0.02486,-0.169996 0.06995,-0.249996 z m 0.695008,-1.684998 v 0 c 0.07496,-0.265006 0.349989,-0.425006 0.615002,-0.355002 v 0 c 0.264998,0.06999 0.424998,0.344501 0.354987,0.609996 v 0 c 0,0 0,0 0,0.0056 v 0 c -0.07493,0.264979 -0.344997,0.420478 -0.614987,0.349979 v 0 c -0.22,-0.06009 -0.37001,-0.260117 -0.37001,-0.480117 v 0 c 0,-0.04504 0.0058,-0.09 0.01506,-0.130003 z"
       id="path6-2-6"
       style="fill:#eff0f1;fill-opacity:1;stroke-width:0.5" />
    <path
       style="fill:#eff0f1;fill-opacity:1;stroke-width:0.536743"
       d="M 7.98769,15.513951 7.1,14.661289 l 0.377469,-0.0069 0.377454,-0.0069 0.01668,-2.904767 c 0.0086,-1.597623 0.01664,-3.5767557 0.01666,-4.398076 8e-6,-1.177396 -0.008,-1.656899 0.01624,-1.657765 0.01718,-5.9e-4 1.009675,0.01008 1.009675,0.01008 l 0.963042,-0.0061 -0.0094,1.796462 c -0.0081,1.6179549 -0.006,1.8206269 0.0277,1.7873889 0.02046,-0.020613 0.623586,-0.8226028 1.340162,-1.7821889 1.004207,-1.344766 1.312735,-1.808348 1.345927,-1.798854 0.02361,0.0077 0.580698,-0.02559 1.042251,-0.02661 0.563693,-0.002 1.336352,-0.003 1.341223,0.0031 0.0052,0.0052 -0.93001,1.312501 -1.679519,2.322104 -0.724422,0.9758073 -1.297552,1.7568179 -1.308481,1.7708921 -0.01163,0.014956 0.507589,0.7837939 1.274028,1.8963769 0.722398,1.04866 1.693972,2.544409 1.693972,2.5533 0,0.02069 -2.351047,-0.0074 -2.381894,-0.01842 -0.01265,-0.0045 -0.610023,-0.868549 -1.327382,-1.92011 -0.717364,-1.051559 -1.321096,-1.928797 -1.34163,-1.949417 -0.03309,-0.03325 -0.03562,0.12453 -0.0217,1.39745 0.0081,0.789217 0.01556,1.77015 0.01556,2.179852 v 0.744839 l 0.318649,0.007 0.318653,0.007 -0.823107,0.849747 C 9.249483,15.97819 8.878347,16.361888 8.87744,16.363491 8.87604,16.365091 8.476336,15.98271 7.988111,15.513746 v 0 z"
       id="path3253-2"
       inkscape:connector-curvature="0"
       sodipodi:nodetypes="ccccsscccccssscsssscsssscccscscc" />
  </g>
  <metadata
     id="metadata18">
    <rdf:RDF>
      <cc:Work
         rdf:about="">
        <dc:format>image/svg+xml</dc:format>
        <dc:type
           rdf:resource="http://purl.org/dc/dcmitype/StillImage" />
        <dc:title></dc:title>
      </cc:Work>
    </rdf:RDF>
  </metadata>
  <defs
     id="defs16">
    <linearGradient
       inkscape:collect="always"
       id="linearGradient1209">
      <stop
         style="stop-color:#8787de;stop-opacity:1"
         offset="0"
         id="stop1205" />
      <stop
         style="stop-color:#ffccaa;stop-opacity:1"
         offset="1"
         id="stop1207" />
    </linearGradient>
    <linearGradient
       inkscape:collect="always"
       xlink:href="#linearGradient1209"
       id="linearGradient1171"
       x1="15.19257"
       y1="3.8175781"
       x2="16.807417"
       y2="3.8175781"
       gradientUnits="userSpaceOnUse"
       gradientTransform="matrix(0.92307695,0,0,0.92307695,1.230769,1.2307692)" />
    <linearGradient
       inkscape:collect="always"
       xlink:href="#linearGradient1209"
       id="linearGradient941"
       gradientUnits="userSpaceOnUse"
       gradientTransform="matrix(0.61538464,0,0,0.61538464,1.153843,1.153841)"
       x1="15.19257"
       y1="3.8175781"
       x2="16.807417"
       y2="3.8175781" />
  </defs>
  <sodipodi:namedview
     pagecolor="#ffffff"
     bordercolor="#000000"
     borderopacity="1"
     objecttolerance="10"
     gridtolerance="10"
     guidetolerance="10"
     inkscape:pageopacity="0"
     inkscape:pageshadow="2"
     inkscape:window-width="1920"
     inkscape:window-height="1007"
     id="namedview14"
     showgrid="false"
     inkscape:zoom="9.8125"
     inkscape:cx="29.648788"
     inkscape:cy="18.199291"
     inkscape:window-x="0"
     inkscape:window-y="0"
     inkscape:window-maximized="1"
     inkscape:current-layer="svg12"
     inkscape:document-rotation="0"
     inkscape:lockguides="false"
     inkscape:showpageshadow="false"
     showguides="false">
    <inkscape:grid
       type="xygrid"
       id="grid848"
       originx="0"
       originy="-4.6325683e-08" />
  </sodipodi:namedview>
  <g
     id="ktorrent">
    <rect
       style="opacity:0.00100002"
       width="32"
       height="32"
       x="0"
       y="0"
       id="rect7" />
    <path
       d="m 26.50468,16.00468 c 0,-0.203253 0.08256,-0.39073 0.2175,-0.532501 0.1425,-0.135735 0.33751,-0.217499 0.5325,-0.217499 0.19501,0 0.39,0.08179 0.532509,0.217499 0.277491,0.269248 0.277491,0.78 0,1.065014 -0.142509,0.134986 -0.337499,0.217487 -0.532509,0.217487 -0.19499,0 -0.39,-0.08258 -0.5325,-0.217487 -0.134991,-0.142513 -0.2175,-0.337503 -0.2175,-0.532513 z"
       id="path8-6"
       style="fill:#e6e6e6;stroke-width:0.75" />
    <path
       d="M 4,16 C 4,9.3835 9.383496,4 16,4 c 6.616491,0 12,5.3835 12,12 0,0.414 -0.336,0.75 -0.75,0.75 C 26.836,16.75 26.5,16.414 26.5,16 26.5,10.21 21.79,5.5 16,5.5 10.21,5.5 5.5,10.21 5.5,16 c 0,5.79 4.71,10.5 10.5,10.5 0.414,0 0.75,0.335243 0.75,0.75 C 16.75,27.664757 16.414,28 16,28 9.383496,28 4,22.616496 4,16 Z"
       id="path2-0"
       style="fill:#eff0f1;fill-opacity:1;stroke-width:0.75" />
    <path
       d="m 15.25468,4.7546879 c 0,-0.195 0.08256,-0.39 0.2175,-0.5325009 0.1425,-0.135 0.33751,-0.2174991 0.5325,-0.2174991 0.19501,0 0.39,0.082501 0.532509,0.2174991 0.277491,0.285 0.277491,0.78 0,1.065 -0.142509,0.135 -0.337499,0.2175009 -0.532509,0.2175009 -0.19499,0 -0.39,-0.08249 -0.5325,-0.2175009 -0.134991,-0.1424991 -0.2175,-0.3374991 -0.2175,-0.5324991 z"
       id="path4-6"
       style="opacity:0.01;fill:url(#linearGradient1171);fill-opacity:1;stroke-width:0.75" />
    <path
       d="m 18.77321,26.300827 c 0.397499,-0.105004 0.81,0.135749 0.91499,0.532505 v 0 c 0.112509,0.404998 -0.127491,0.81 -0.52499,0.922491 v 0 c -0.40501,0.105004 -0.81,-0.134996 -0.922501,-0.532491 v 0 c -0.01509,-0.06757 -0.02259,-0.127509 -0.02259,-0.195002 v 0 c 0,-0.33 0.217491,-0.637503 0.554992,-0.727503 z m 2.527499,-1.05 v 0.0083 c 0.36,-0.21 0.817491,-0.08995 1.027491,0.27 v 0 c 0.21,0.36 0.08258,0.817499 -0.277491,1.026752 v 0 c -0.352509,0.203248 -0.817499,0.08259 -1.02,-0.276752 v 0 c -0.0676,-0.12 -0.105009,-0.247497 -0.105009,-0.374998 v 0 c 0,-0.255749 0.135009,-0.51 0.375009,-0.652499 z M 23.4757,23.58508 c 0.2925,-0.292504 0.765009,-0.292504 1.05751,0 v 0 c 0.29249,0.29325 0.29249,0.765747 0,1.057496 v 0 c 0,0 0,0 0,0.0083 v 0 c -0.292501,0.285697 -0.76501,0.285697 -1.05751,-0.0073 v 0 c -0.15,-0.141766 -0.2175,-0.33752 -0.2175,-0.525017 v 0 c 0,-0.195002 0.0676,-0.39 0.2175,-0.533246 z m 1.6725,-2.174253 c 0.202509,-0.36 0.6675,-0.480757 1.02,-0.27 v 0 c 0.36,0.202505 0.48,0.66 0.2775,1.02 v 0 0 0 c -0.21,0.359243 -0.6675,0.48 -1.0275,0.277503 v 0 c -0.24,-0.142507 -0.37499,-0.39075 -0.37499,-0.652507 v 0 c 0,-0.127493 0.03741,-0.254996 0.10499,-0.374996 z m 1.042509,-2.527495 v 0 C 26.30321,18.485823 26.7157,18.245823 27.11321,18.350827 v 0 c 0.397499,0.104996 0.637499,0.516753 0.53249,0.914996 v 0 c 0,0 0,0 0,0.0083 v 0 c -0.11249,0.397468 -0.5175,0.630716 -0.92249,0.524967 v 0 c -0.33,-0.09013 -0.55501,-0.390162 -0.55501,-0.720162 v 0 c 0,-0.06757 0.0079,-0.135005 0.02257,-0.195005 z"
       id="path6-2"
       style="fill:#eff0f1;fill-opacity:1;stroke-width:0.75" />
    <path
       style="fill:#eff0f1;fill-opacity:1;stroke-width:0.805122"
       d="M 11.48153,22.770927 10.15,21.491934 l 0.566192,-0.01029 0.566192,-0.01029 0.02492,-4.357151 c 0.0137,-2.396435 0.02492,-5.365133 0.02493,-6.597108 1.4e-5,-1.7660923 -0.01269,-2.4853527 0.02425,-2.4866386 0.02578,-8.917e-4 1.514503,0.015091 1.514503,0.015091 l 1.444573,-0.00821 -0.01443,2.6946866 c -0.0128,2.426929 -0.0081,2.730937 0.04151,2.681081 0.03077,-0.03093 0.935379,-1.233905 2.010242,-2.673281 1.506318,-2.0171448 1.969105,-2.7125146 2.01889,-2.6982766 0.03552,0.01016 0.871048,-0.038394 1.563375,-0.04 0.845548,-0.00196 2.004536,-0.0033 2.011839,0.004 0.0073,0.0073 -1.395011,1.9687496 -2.519278,3.4831476 -1.086637,1.46371 -1.946332,2.635226 -1.962722,2.656338 -0.01741,0.02242 0.761387,1.17569 1.911039,2.844565 1.083598,1.572989 2.540961,3.816613 2.540961,3.82995 0,0.03103 -3.526568,-0.01123 -3.572839,-0.02762 -0.01905,-0.0068 -0.915032,-1.302824 -1.991075,-2.880165 -1.076041,-1.57734 -1.981643,-2.893197 -2.012443,-2.924126 -0.04968,-0.04988 -0.05336,0.186795 -0.03265,2.096175 0.01284,1.183825 0.02335,2.655224 0.02335,3.269777 v 1.117369 l 0.477981,0.01049 0.477982,0.01049 -1.234661,1.27462 c -0.679065,0.70104 -1.235773,1.276587 -1.237131,1.278991 -0.0014,0.0024 -0.601656,-0.571172 -1.333997,-1.274618 v 0 z"
       id="path3253"
       inkscape:connector-curvature="0"
       sodipodi:nodetypes="ccccsscccccssscsssscsssscccscscc" />
  </g>
</svg>
