<?xml version="1.0" encoding="UTF-8" standalone="no"?>
<svg
   xmlns:dc="http://purl.org/dc/elements/1.1/"
   xmlns:cc="http://creativecommons.org/ns#"
   xmlns:rdf="http://www.w3.org/1999/02/22-rdf-syntax-ns#"
   xmlns:svg="http://www.w3.org/2000/svg"
   xmlns="http://www.w3.org/2000/svg"
   xmlns:xlink="http://www.w3.org/1999/xlink"
   xmlns:sodipodi="http://sodipodi.sourceforge.net/DTD/sodipodi-0.dtd"
   xmlns:inkscape="http://www.inkscape.org/namespaces/inkscape"
   width="32"
   height="32"
   version="1.1"
   id="svg12"
   sodipodi:docname="qbittorrent.svg"
   inkscape:version="1.0.2 (e86c870879, 2021-01-15)">
  <g
     id="22-22-qbittorrent-tray"
     transform="translate(32,10.000001)">
    <g
       id="g1020">
      <rect
         style="opacity:0.00100002"
         width="22"
         height="22"
         x="0"
         y="0"
         id="rect7" />
      <path
         d="m 8.121648,12.833557 q 0.860297,0 1.254139,-0.46126 0.39388,-0.461216 0.419789,-1.554724 V 10.62584 q 0,-1.191961 -0.404226,-1.715379 -0.40423,-0.523433 -1.280066,-0.523433 -0.756644,0 -1.160848,0.590812 -0.399053,0.585598 -0.399053,1.658366 0,1.072768 0.393863,1.637634 0.399044,0.55969 1.176402,0.55969 z m -0.129568,0.72034 q -1.098654,0 -1.71536,-0.772172 -0.616719,-0.772191 -0.616719,-2.155885 0,-1.394079 0.62189,-2.176627 0.621872,-0.782552 1.730936,-0.782552 1.16603,0 1.793116,0.881016 h 0.04671 L 9.97703,7.77032 h 0.678907 v 8.229681 H 9.795639 v -2.430539 q 0,-0.518256 0.05697,-0.881023 h -0.06744 q -0.595982,0.865458 -1.793128,0.865458 z"
         id="path15-7"
         style="fill:#eff0f1;fill-opacity:1;stroke-width:0.0167932" />
      <path
         d="m 14.091681,7.695658 q 1.09645,0 1.700523,0.751263 0.609117,0.7462 0.609117,2.116751 0,1.370547 -0.614213,2.131987 -0.609112,0.756342 -1.695427,0.756342 -0.543157,0 -0.994927,-0.197967 -0.446698,-0.203055 -0.751261,-0.619291 h -0.06097 l -0.177651,0.715737 h -0.60408 V 5.452001 h 0.842645 V 7.3708 q 0,0.644667 -0.04068,1.157361 h 0.04071 q 0.58881,-0.832503 1.746161,-0.832503 z m -0.12184,0.705581 q -0.862908,0 -1.243638,0.497451 -0.38071,0.492405 -0.38071,1.664982 0,1.172582 0.390868,1.680216 0.390847,0.502528 1.253799,0.502528 0.77664,0 1.157364,-0.563456 0.380704,-0.568519 0.380704,-1.62944 0,-1.086297 -0.380704,-1.619302 Q 14.7668,8.401239 13.969841,8.401239 Z"
         id="path13-5"
         style="fill:#a0a0c5;fill-opacity:1;stroke-width:0.0164499" />
      <path
         d="m 18.00312,11.00312 c 0,-0.135506 0.0551,-0.260482 0.144999,-0.355001 0.095,-0.09045 0.225011,-0.144999 0.355001,-0.144999 0.13001,0 0.26,0.05457 0.355009,0.144999 0.184991,0.179495 0.184991,0.52 0,0.71001 -0.09501,0.09002 -0.224999,0.144991 -0.355009,0.144991 -0.12999,0 -0.26,-0.05505 -0.355001,-0.144991 -0.09001,-0.09501 -0.144999,-0.225 -0.144999,-0.355009 z"
         id="path8-6-3"
         style="fill:#e6e6e6;stroke-width:0.5" />
      <path
         d="M 3,11.000001 C 3,6.589001 6.589001,3 11,3 c 4.410991,0 8,3.589001 8,8.000001 0,0.276 -0.224,0.5 -0.5,0.5 -0.276,0 -0.5,-0.224 -0.5,-0.5 C 18,7.14 14.86,4 11,4 7.14,4 4,7.14 4,11.000001 4,14.86 7.14,18 11,18 c 0.276,0 0.5,0.223492 0.5,0.5 0,0.276507 -0.224,0.5 -0.5,0.5 -4.410999,0 -8,-3.589001 -8,-7.999999 z"
         id="path2-0-5"
         style="fill:#eff0f1;fill-opacity:1;stroke-width:0.5" />
      <path
         d="m 10.50312,3.50312 c 0,-0.129992 0.05507,-0.26 0.144999,-0.355001 0.095,-0.09002 0.225011,-0.144999 0.355001,-0.144999 0.13001,0 0.26,0.05507 0.355009,0.144999 0.184991,0.190013 0.184991,0.52 0,0.710013 -0.09501,0.09001 -0.224999,0.144988 -0.355009,0.144988 -0.12999,0 -0.26,-0.05507 -0.355001,-0.144988 C 10.558109,3.763122 10.50312,3.633128 10.50312,3.50312 Z"
         id="path4-6-6"
         style="opacity:0.01;fill:url(#linearGradient986);fill-opacity:1;stroke-width:0.5" />
      <path
         d="m 12.84881,17.867221 c 0.264999,-0.06997 0.54,0.09046 0.60999,0.354998 v 0 c 0.07494,0.270004 -0.08503,0.54 -0.34999,0.614994 v 0 c -0.27001,0.06998 -0.54,-0.09004 -0.615001,-0.354994 v 0 c -0.01009,-0.04508 -0.01515,-0.08503 -0.01515,-0.129995 v 0 c 0,-0.219999 0.144992,-0.425003 0.369999,-0.485003 z m 1.684999,-0.700001 v 0.0057 c 0.24,-0.140001 0.544991,-0.05998 0.684991,0.179997 v 0 c 0.14,0.24 0.05506,0.545001 -0.184991,0.684502 v 0 c -0.235009,0.135497 -0.544999,0.0551 -0.68,-0.184503 v 0 c -0.04512,-0.08 -0.06998,-0.164995 -0.06998,-0.249997 v 0 c 0,-0.170498 0.09005,-0.34 0.250013,-0.435 z m 1.44999,-1.1105 c 0.195001,-0.195002 0.51001,-0.195002 0.705011,0 v 0 c 0.194989,0.195503 0.194989,0.510501 0,0.704997 v 0 c 0,0 0,0 0,0.0058 v 0 c -0.195001,0.190486 -0.51001,0.190486 -0.705011,-0.0049 v 0 c -0.1,-0.0945 -0.144999,-0.225006 -0.144999,-0.350004 v 0 c 0,-0.129999 0.04511,-0.259999 0.144999,-0.355501 z M 17.0988,14.607223 c 0.135009,-0.24 0.444999,-0.320513 0.68,-0.18 v 0 c 0.24,0.134994 0.32,0.44 0.184999,0.68 v 0 0 0 c -0.14,0.239487 -0.444999,0.32 -0.684999,0.184999 v 0 c -0.16,-0.09501 -0.24999,-0.260502 -0.24999,-0.435008 v 0 c 0,-0.08504 0.02486,-0.169991 0.06996,-0.249991 z m 0.695009,-1.685006 v 0 c 0.07494,-0.265003 0.34999,-0.425003 0.615001,-0.354994 v 0 c 0.264999,0.06999 0.424999,0.344498 0.354989,0.609991 v 0 c 0,0 0,0 0,0.0058 v 0 c -0.07495,0.264994 -0.344999,0.420495 -0.614989,0.349996 v 0 c -0.22,-0.06006 -0.37001,-0.260133 -0.37001,-0.480133 v 0 c 0,-0.04507 0.0059,-0.09003 0.01506,-0.130001 z"
         id="path6-2-2"
         style="fill:#eff0f1;fill-opacity:1;stroke-width:0.5" />
    </g>
  </g>
  <metadata
     id="metadata18">
    <rdf:RDF>
      <cc:Work
         rdf:about="">
        <dc:format>image/svg+xml</dc:format>
        <dc:type
           rdf:resource="http://purl.org/dc/dcmitype/StillImage" />
        <dc:title></dc:title>
      </cc:Work>
    </rdf:RDF>
  </metadata>
  <defs
     id="defs16">
    <linearGradient
       inkscape:collect="always"
       id="linearGradient1209">
      <stop
         style="stop-color:#8787de;stop-opacity:1"
         offset="0"
         id="stop1205" />
      <stop
         style="stop-color:#ffccaa;stop-opacity:1"
         offset="1"
         id="stop1207" />
    </linearGradient>
    <linearGradient
       inkscape:collect="always"
       xlink:href="#linearGradient1209"
       id="linearGradient1171"
       x1="15.19257"
       y1="3.8175781"
       x2="16.807417"
       y2="3.8175781"
       gradientUnits="userSpaceOnUse"
       gradientTransform="matrix(0.92307694,0,0,0.92307694,1.230766,1.230765)" />
    <linearGradient
       inkscape:collect="always"
       xlink:href="#linearGradient1209"
       id="linearGradient986"
       gradientUnits="userSpaceOnUse"
       gradientTransform="matrix(0.61538461,0,0,0.61538461,1.153845,1.153842)"
       x1="15.19257"
       y1="3.8175781"
       x2="16.807417"
       y2="3.8175781" />
  </defs>
  <sodipodi:namedview
     pagecolor="#ffffff"
     bordercolor="#000000"
     borderopacity="1"
     objecttolerance="10"
     gridtolerance="10"
     guidetolerance="10"
     inkscape:pageopacity="0"
     inkscape:pageshadow="2"
     inkscape:window-width="1920"
     inkscape:window-height="1007"
     id="namedview14"
     showgrid="false"
     inkscape:zoom="6.9384855"
     inkscape:cx="28.542354"
     inkscape:cy="11.735504"
     inkscape:window-x="0"
     inkscape:window-y="0"
     inkscape:window-maximized="1"
     inkscape:current-layer="svg12"
     inkscape:document-rotation="0"
     inkscape:lockguides="false"
     inkscape:showpageshadow="false">
    <inkscape:grid
       type="xygrid"
       id="grid901"
       originx="32"
       originy="10.000001" />
  </sodipodi:namedview>
  <g
     id="qbittorrent-tray">
    <rect
       style="opacity:0.00100002"
       width="32"
       height="32"
       x="0"
       y="0"
       id="rect2" />
    <path
       d="m 11.682467,18.750337 q 1.290441,0 1.881219,-0.691883 0.590804,-0.691835 0.629669,-2.332085 v -0.287625 q 0,-1.787923 -0.606326,-2.573063 -0.60634,-0.785133 -1.92009,-0.785133 -1.134972,0 -1.741294,0.886203 -0.598581,0.878391 -0.598581,2.487555 0,1.609148 0.590811,2.456452 0.598564,0.839548 1.764592,0.839548 z m -0.194342,1.080516 q -1.64798,0 -2.573061,-1.158258 Q 7.99,17.514314 7.99,15.438744 q 0,-2.091087 0.932846,-3.264915 0.932812,-1.173828 2.596384,-1.173828 1.749062,0 2.689674,1.321516 h 0.07 l 0.186554,-1.166039 h 1.018356 v 12.344523 h -1.290439 v -3.645819 q 0,-0.777376 0.08555,-1.321516 h -0.101066 q -0.893961,1.298187 -2.689692,1.298187 z"
       id="path15"
       style="fill:#eff0f1;fill-opacity:1;stroke-width:0.0251908" />
    <path
       d="m 20.63752,11.043498 q 1.644686,0 2.550783,1.126879 0.91367,1.119304 0.91367,3.175135 0,2.055827 -0.921322,3.197987 -0.913672,1.134502 -2.543131,1.134502 -0.814737,0 -1.492387,-0.296947 -0.670042,-0.304575 -1.126901,-0.928951 h -0.09137 l -0.266473,1.073611 H 16.754257 V 7.678001 h 1.26397 v 2.87821 q 0,0.966996 -0.06091,1.73603 h 0.06097 q 0.883224,-1.248743 2.619256,-1.248743 z m -0.182744,1.058365 q -1.294384,0 -1.865464,0.746181 -0.57108,0.738591 -0.57108,2.497468 0,1.758878 0.586301,2.520316 0.586274,0.753788 1.880696,0.753788 1.164974,0 1.736054,-0.845182 0.571048,-0.852781 0.571048,-2.444144 0,-1.629466 -0.571048,-2.428952 -0.57108,-0.799475 -1.766507,-0.799475 z"
       id="path13"
       style="fill:#a0a0c5;fill-opacity:1;stroke-width:0.0246739" />
    <path
       d="m 26.504679,16.004681 c 0,-0.203248 0.08257,-0.390739 0.2175,-0.532497 0.1425,-0.135744 0.33751,-0.217503 0.5325,-0.217503 0.19501,0 0.39,0.08177 0.532509,0.217503 0.277491,0.26925 0.277491,0.779999 0,1.065005 -0.142509,0.134995 -0.337499,0.217492 -0.532509,0.217492 -0.19499,0 -0.39,-0.08252 -0.5325,-0.217492 -0.134991,-0.142508 -0.2175,-0.3375 -0.2175,-0.532508 z"
       id="path8-6"
       style="fill:#e6e6e6;stroke-width:0.75" />
    <path
       d="M 3.999999,16.000001 C 3.999999,9.3835 9.383499,4 15.999999,4 c 6.616491,0 12,5.3835 12,12.000001 0,0.414 -0.336,0.75 -0.75,0.75 -0.414,0 -0.75,-0.336 -0.75,-0.75 0,-5.790001 -4.71,-10.500001 -10.5,-10.500001 -5.79,0 -10.5,4.71 -10.5,10.500001 0,5.789999 4.71,10.499999 10.5,10.499999 0.414,0 0.75,0.335243 0.75,0.75 0,0.414758 -0.336,0.75 -0.75,0.75 -6.6165,0 -12,-5.383499 -12,-11.999999 z"
       id="path2-0"
       style="fill:#eff0f1;fill-opacity:1;stroke-width:0.75" />
    <path
       d="m 15.254679,4.75468 c 0,-0.194992 0.08257,-0.39 0.2175,-0.532497 0.1425,-0.134991 0.33751,-0.217503 0.5325,-0.217503 0.19501,0 0.39,0.08257 0.532509,0.217503 0.277491,0.285009 0.277491,0.78 0,1.065009 -0.142509,0.134991 -0.337499,0.217488 -0.532509,0.217488 -0.19499,0 -0.39,-0.08256 -0.5325,-0.217488 -0.134991,-0.142512 -0.2175,-0.337504 -0.2175,-0.532512 z"
       id="path4-6"
       style="opacity:0.01;fill:url(#linearGradient1171);fill-opacity:1;stroke-width:0.75" />
    <path
       d="m 18.773209,26.300826 c 0.397499,-0.105 0.81,0.135751 0.91499,0.532507 v 0 c 0.112509,0.404997 -0.127491,0.809999 -0.52499,0.922491 v 0 c -0.40501,0.105004 -0.81,-0.134996 -0.922501,-0.532491 v 0 c -0.01509,-0.06757 -0.02259,-0.127509 -0.02259,-0.195002 v 0 c 0,-0.330001 0.217491,-0.637504 0.554991,-0.727504 z m 2.527499,-1.050001 v 0.0078 c 0.36,-0.210001 0.817491,-0.08999 1.027491,0.269997 v 0 c 0.21,0.36 0.08257,0.8175 -0.277491,1.026753 v 0 c -0.352509,0.203246 -0.817499,0.08257 -1.02,-0.276755 v 0 c -0.0676,-0.120001 -0.105009,-0.247493 -0.105009,-0.374996 v 0 c 0,-0.255748 0.135009,-0.51 0.375009,-0.652501 z m 2.174991,-1.665744 c 0.2925,-0.292501 0.765009,-0.292501 1.05751,0 v 0 c 0.29249,0.293243 0.29249,0.765744 0,1.057499 v 0 c 0,0 0,0 0,0.0078 v 0 c -0.292501,0.285728 -0.76501,0.285728 -1.05751,-0.0068 v 0 c -0.15,-0.141765 -0.2175,-0.337518 -0.2175,-0.525018 v 0 c 0,-0.194994 0.0676,-0.39 0.2175,-0.533248 z m 1.6725,-2.174256 c 0.202509,-0.36 0.6675,-0.480755 1.02,-0.27 v 0 c 0.36,0.202509 0.48,0.66 0.2775,1.02 v 0 0 0 c -0.21,0.359245 -0.6675,0.48 -1.0275,0.277499 v 0 c -0.24,-0.142494 -0.37499,-0.390749 -0.37499,-0.652494 v 0 c 0,-0.127506 0.03741,-0.255005 0.10499,-0.375005 z m 1.042509,-2.527491 v 0 c 0.112501,-0.397504 0.524991,-0.637504 0.922501,-0.532509 v 0 c 0.397499,0.105005 0.637499,0.516751 0.53249,0.915005 v 0 c 0,0 0,0 0,0.0078 v 0 c -0.11249,0.397495 -0.5175,0.630743 -0.92249,0.524995 v 0 c -0.33,-0.09015 -0.55501,-0.390164 -0.55501,-0.720165 v 0 c 0,-0.06755 0.0079,-0.135005 0.02257,-0.195005 z"
       id="path6-2"
       style="fill:#eff0f1;fill-opacity:1;stroke-width:0.75" />
  </g>
</svg>
