<?xml version="1.0" encoding="UTF-8" standalone="no"?>
<svg
   width="32"
   height="32"
   version="1.1"
   id="svg12"
   sodipodi:docname="TeamViewer.svg"
   inkscape:version="1.1.1 (3bf5ae0d25, 2021-09-20)"
   xmlns:inkscape="http://www.inkscape.org/namespaces/inkscape"
   xmlns:sodipodi="http://sodipodi.sourceforge.net/DTD/sodipodi-0.dtd"
   xmlns="http://www.w3.org/2000/svg"
   xmlns:svg="http://www.w3.org/2000/svg"
   xmlns:rdf="http://www.w3.org/1999/02/22-rdf-syntax-ns#"
   xmlns:cc="http://creativecommons.org/ns#"
   xmlns:dc="http://purl.org/dc/elements/1.1/">
  <g
     id="22-22-TeamViewer"
     transform="translate(32,10.000001)">
    <rect
       style="opacity:0.00100002"
       width="22"
       height="22"
       x="0"
       y="-4.6325681e-08"
       id="rect2" />
    <polygon
       points="23.32,10.85 23.32,28.64 20.91,26.23 19.76,27.38 24.17,31.79 28.59,27.38 27.43,26.23 24.95,28.72 24.95,9.22 10.03,9.22 10.03,10.85 "
       id="polygon8-75"
       transform="matrix(0.33776658,0,0,0.33776658,5.587868,5.595736)"
       style="fill:#a0a0c5;fill-opacity:1" />
    <polygon
       points="8.68,21.15 8.68,3.28 11.16,5.77 12.31,4.62 7.9,0.21 3.49,4.62 4.64,5.77 7.05,3.36 7.05,22.78 21.97,22.78 21.97,21.15 "
       id="polygon10-3"
       transform="matrix(0.33776658,0,0,0.33776658,5.587868,5.595736)"
       style="fill:#eff0f1;fill-opacity:1" />
    <path
       d="m 18.00312,11.00312 c 0,-0.135498 0.05507,-0.260492 0.144997,-0.354998 0.09503,-0.09049 0.225013,-0.145002 0.355003,-0.145002 0.13001,0 0.26,0.05452 0.355002,0.145002 0.184998,0.1795 0.184998,0.520001 0,0.710003 -0.09503,0.09 -0.224992,0.144995 -0.355002,0.144995 -0.12999,0 -0.26,-0.05501 -0.355003,-0.144995 -0.09002,-0.09501 -0.144997,-0.224999 -0.144997,-0.355005 z"
       id="path8-6-5"
       style="fill:#e6e6e6;stroke-width:0.5" />
    <path
       d="m 3,11 c 0,-4.411003 3.589003,-8 8,-8 4.410998,0 8,3.588997 8,8 0,0.276 -0.224,0.5 -0.5,0.5 C 18.224,11.5 18,11.276 18,11 18,7.14 14.86,4 11,4 7.14,4 4,7.14 4,11 c 0,3.86 3.14,7 7,7 0.276,0 0.5,0.223494 0.5,0.5 0,0.276506 -0.224,0.5 -0.5,0.5 -4.410998,0 -8,-3.589 -8,-8 z"
       id="path2-0-6"
       style="fill:#eff0f1;fill-opacity:1;stroke-width:0.5" />
    <path
       d="m 12.84881,17.86722 c 0.264992,-0.07001 0.54,0.0905 0.60999,0.354999 v 0 c 0.07494,0.269997 -0.08503,0.54 -0.34999,0.614999 v 0 c -0.27001,0.07 -0.54,-0.09 -0.615008,-0.354999 v 0 c -0.01003,-0.04504 -0.01506,-0.085 -0.01506,-0.130003 v 0 c 0,-0.22 0.144996,-0.424996 0.369991,-0.484996 z m 1.684992,-0.700001 v 0.0053 c 0.24,-0.14 0.544998,-0.05998 0.684998,0.179999 v 0 c 0.14,0.24 0.05505,0.545 -0.184998,0.684501 v 0 c -0.235002,0.135497 -0.544992,0.05503 -0.68,-0.184503 v 0 c -0.04511,-0.08 -0.06998,-0.165 -0.06998,-0.249998 v 0 c 0,-0.1705 0.09004,-0.34 0.250006,-0.435001 z m 1.449995,-1.110499 c 0.195003,-0.195 0.510005,-0.195 0.705013,0 v 0 c 0.194987,0.195497 0.194987,0.510498 0,0.705 v 0 c 0,0 0,0 0,0.0053 v 0 c -0.195008,0.19048 -0.51001,0.19048 -0.705013,-0.0046 v 0 c -0.1,-0.09456 -0.144997,-0.225068 -0.144997,-0.350064 v 0 c 0,-0.129999 0.04513,-0.260001 0.144997,-0.355501 z M 17.0988,14.607217 c 0.135002,-0.24 0.444997,-0.320504 0.68,-0.18 v 0 c 0.24,0.135005 0.32,0.44 0.184997,0.68 v 0 0 0 c -0.14,0.239496 -0.444997,0.32 -0.684997,0.184999 v 0 c -0.16,-0.09499 -0.24999,-0.260499 -0.24999,-0.434996 v 0 c 0,-0.08501 0.02491,-0.170003 0.06995,-0.250003 z m 0.695002,-1.684995 v 0 c 0.07496,-0.265002 0.349995,-0.425002 0.615008,-0.355005 v 0 c 0.264992,0.07 0.424992,0.3445 0.354987,0.610003 v 0 c 0,0 0,0 0,0.0052 v 0 c -0.07496,0.26499 -0.344997,0.420489 -0.614987,0.34999 v 0 c -0.22,-0.06015 -0.37001,-0.26015 -0.37001,-0.48015 v 0 c 0,-0.04503 0.005,-0.09 0.01506,-0.130004 z"
       id="path6-2-9"
       style="fill:#eff0f1;fill-opacity:1;stroke-width:0.5" />
  </g>
  <metadata
     id="metadata18">
    <rdf:RDF>
      <cc:Work
         rdf:about="">
        <dc:format>image/svg+xml</dc:format>
        <dc:type
           rdf:resource="http://purl.org/dc/dcmitype/StillImage" />
      </cc:Work>
    </rdf:RDF>
  </metadata>
  <defs
     id="defs16" />
  <sodipodi:namedview
     pagecolor="#ffffff"
     bordercolor="#000000"
     borderopacity="1"
     objecttolerance="10"
     gridtolerance="10"
     guidetolerance="10"
     inkscape:pageopacity="0"
     inkscape:pageshadow="2"
     inkscape:window-width="1920"
     inkscape:window-height="1013"
     id="namedview14"
     showgrid="false"
     inkscape:zoom="9.8125003"
     inkscape:cx="29.248407"
     inkscape:cy="14.114649"
     inkscape:window-x="0"
     inkscape:window-y="0"
     inkscape:window-maximized="1"
     inkscape:current-layer="svg12"
     inkscape:document-rotation="0"
     inkscape:showpageshadow="false"
     showguides="false"
     inkscape:lockguides="false"
     inkscape:pagecheckerboard="0">
    <inkscape:grid
       type="xygrid"
       id="grid864"
       originx="0"
       originy="-4.6325683e-08" />
  </sodipodi:namedview>
  <g
     id="TeamViewer">
    <rect
       style="opacity:0.00100002"
       width="32"
       height="32"
       x="0"
       y="0"
       id="rect7" />
    <polygon
       points="27.43,26.23 24.95,28.72 24.95,9.22 10.03,9.22 10.03,10.85 23.32,10.85 23.32,28.64 20.91,26.23 19.76,27.38 24.17,31.79 28.59,27.38 "
       id="polygon8"
       transform="matrix(0.50664978,0,0,0.50664978,7.881792,7.8936035)"
       style="fill:#a0a0c5;fill-opacity:1" />
    <polygon
       points="4.64,5.77 7.05,3.36 7.05,22.78 21.97,22.78 21.97,21.15 8.68,21.15 8.68,3.28 11.16,5.77 12.31,4.62 7.9,0.21 3.49,4.62 "
       id="polygon10"
       transform="matrix(0.50664978,0,0,0.50664978,7.881792,7.8936035)"
       style="fill:#eff0f1;fill-opacity:1" />
    <path
       d="m 26.504673,16.00468 c 0,-0.203247 0.0825,-0.390738 0.217512,-0.532496 0.142502,-0.135743 0.337505,-0.217504 0.532502,-0.217504 0.195003,0 0.389986,0.08178 0.532493,0.217504 0.277507,0.269249 0.277507,0.78 0,1.065004 -0.142493,0.134996 -0.33749,0.217492 -0.532493,0.217492 -0.194997,0 -0.39,-0.08252 -0.532502,-0.217492 C 26.58718,16.39468 26.504687,16.199689 26.504673,16.00468 Z"
       id="path8-6"
       style="fill:#e6e6e6;stroke-width:0.75" />
    <path
       d="M 4,16 C 4,9.383495 9.383495,4 16,4 c 6.6165,0 12,5.383495 12,12 0,0.414 -0.336,0.75 -0.75,0.75 C 26.836,16.75 26.5,16.414 26.5,16 26.5,10.21 21.79,5.5 16,5.5 10.21,5.5 5.5,10.21 5.5,16 c 0,5.79 4.71,10.5 10.5,10.5 0.414,0 0.75,0.335246 0.75,0.75 C 16.75,27.664754 16.414,28 16,28 9.383495,28 4,22.6165 4,16 Z"
       id="path2-0"
       style="fill:#eff0f1;fill-opacity:1;stroke-width:0.75" />
    <path
       d="m 18.77321,26.300825 c 0.39749,-0.104996 0.81,0.135754 0.914997,0.532509 v 0 c 0.112493,0.404989 -0.127507,0.81 -0.524997,0.922495 v 0 c -0.405003,0.104994 -0.81,-0.135004 -0.92251,-0.532495 v 0 c -0.015,-0.06754 -0.0225,-0.127505 -0.0225,-0.195011 v 0 c 0,-0.33 0.2175,-0.637498 0.555005,-0.727498 z m 2.52749,-1.05 v 0.0078 c 0.36,-0.21 0.817507,-0.08999 1.027507,0.27 v 0 c 0.21,0.36 0.0825,0.817499 -0.277507,1.026752 v 0 c -0.352493,0.203248 -0.81749,0.08252 -1.02,-0.276752 v 0 c -0.06759,-0.12 -0.105006,-0.247499 -0.105006,-0.374998 v 0 c 0,-0.25575 0.134995,-0.51 0.374995,-0.652501 z m 2.175005,-1.665744 c 0.292502,-0.292501 0.764995,-0.292501 1.057505,0 v 0 c 0.292495,0.293243 0.292495,0.765744 0,1.057499 v 0 c 0,0 0,0 0,0.0078 v 0 c -0.29251,0.285729 -0.765003,0.285729 -1.057505,-0.0068 v 0 c -0.15,-0.141768 -0.217498,-0.337521 -0.217498,-0.525021 v 0 c 0,-0.194994 0.06758,-0.39 0.217498,-0.533248 z m 1.672502,-2.174256 c 0.202493,-0.36 0.667498,-0.480754 1.02,-0.27 v 0 c 0.36,0.202509 0.48,0.66 0.277498,1.02 v 0 0 0 c -0.21,0.359246 -0.667498,0.48 -1.027498,0.277499 v 0 c -0.24,-0.142495 -0.374997,-0.390749 -0.374997,-0.652495 v 0 c 0,-0.127506 0.0375,-0.255004 0.105005,-0.375004 z M 26.1907,18.883334 v 0 c 0.11251,-0.397505 0.525005,-0.637505 0.92251,-0.532509 v 0 c 0.39749,0.105004 0.63749,0.51675 0.532495,0.915004 v 0 c 0,0 0,0 0,0.0077 v 0 c -0.112495,0.397501 -0.517498,0.630749 -0.922495,0.525 v 0 c -0.33,-0.09016 -0.555003,-0.390162 -0.555003,-0.720162 v 0 c 0,-0.06754 0.007,-0.135005 0.0225,-0.195005 z"
       id="path6-2"
       style="fill:#eff0f1;fill-opacity:1;stroke-width:0.75" />
  </g>
</svg>
