<?xml version="1.0" encoding="UTF-8" standalone="no"?>
<svg
   sodipodi:docname="update.svg"
   inkscape:version="1.1.2 (0a00cf5339, 2022-02-04)"
   id="svg846"
   version="1.1"
   viewBox="0 0 8.4666665 8.4666699"
   height="32.000011"
   width="32"
   xmlns:inkscape="http://www.inkscape.org/namespaces/inkscape"
   xmlns:sodipodi="http://sodipodi.sourceforge.net/DTD/sodipodi-0.dtd"
   xmlns="http://www.w3.org/2000/svg"
   xmlns:svg="http://www.w3.org/2000/svg"
   xmlns:rdf="http://www.w3.org/1999/02/22-rdf-syntax-ns#"
   xmlns:cc="http://creativecommons.org/ns#"
   xmlns:dc="http://purl.org/dc/elements/1.1/">
  <defs
     id="defs840" />
  <sodipodi:namedview
     inkscape:document-rotation="0"
     inkscape:snap-midpoints="true"
     inkscape:object-paths="true"
     inkscape:snap-intersection-paths="true"
     inkscape:snap-smooth-nodes="true"
     inkscape:window-maximized="1"
     inkscape:window-y="0"
     inkscape:window-x="0"
     inkscape:window-height="1007"
     inkscape:window-width="1920"
     units="px"
     showgrid="false"
     inkscape:current-layer="layer1"
     inkscape:document-units="px"
     inkscape:cy="6.5369426"
     inkscape:cx="-31.28394"
     inkscape:zoom="3.212511"
     inkscape:pageshadow="2"
     inkscape:pageopacity="0.0"
     borderopacity="1"
     bordercolor="#000000"
     pagecolor="#ffffff"
     id="base"
     inkscape:lockguides="false"
     showguides="true"
     inkscape:showpageshadow="true"
     inkscape:pagecheckerboard="0">
    <inkscape:grid
       id="grid1394"
       type="xygrid"
       originx="-25.399984"
       originy="-5.8207589" />
  </sodipodi:namedview>
  <metadata
     id="metadata843">
    <rdf:RDF>
      <cc:Work
         rdf:about="">
        <dc:format>image/svg+xml</dc:format>
        <dc:type
           rdf:resource="http://purl.org/dc/dcmitype/StillImage" />
      </cc:Work>
    </rdf:RDF>
  </metadata>
  <style
     type="text/css"
     id="current-color-scheme" />
  <g
     transform="translate(-25.4,-296.99997)"
     id="layer1"
     inkscape:groupmode="layer"
     inkscape:label="Layer 1">
    <g
       id="22-22-update-low">
      <rect
         style="opacity:0.003;fill:#000000;fill-opacity:1;stroke:none;stroke-width:0.10795;stroke-miterlimit:4;stroke-dasharray:none;stroke-opacity:1"
         id="rect1396-3-2"
         width="5.8208332"
         height="5.8208332"
         x="17.4625"
         y="291.17914"
         ry="1.2988288e-06" />
      <path
         d="m 21.813261,292.61841 0.911355,0.4635 -0.275369,0.13511 c 0.113499,0.26808 0.177194,0.56271 0.177194,0.87256 0,1.24172 -1.006658,2.24894 -2.248937,2.24894 -0.397969,0 -0.771515,-0.10449 -1.095733,-0.28597 l 0.227479,-0.22743 c 0.261483,0.13119 0.55553,0.20689 0.868254,0.20689 1.072748,0 1.941959,-0.86969 1.941959,-1.942 0,-0.28776 -0.06657,-0.5589 -0.17911,-0.80452 z m -1.466555,0.47714 z m 0,0 z m 0.03128,-0.94847 c -1.072746,0 -1.941957,0.86977 -1.941957,1.9425 0,0.28777 0.06657,0.55886 0.179109,0.80448 l 0.327571,0.66665 -0.911355,-0.46357 0.27537,-0.13508 c -0.113501,-0.26816 -0.177195,-0.56271 -0.177195,-0.87248 -4.79e-4,-1.24189 1.006658,-2.24898 2.248457,-2.24898 0.39797,0 0.771516,0.10437 1.095734,0.28586 l -0.22748,0.22753 c -0.261481,-0.13122 -0.556007,-0.20691 -0.868254,-0.20691 z"
         id="path4-9-36-3-3-5-3-2"
         sodipodi:nodetypes="cccssccsscccccccccccccccccccccccccccsscccccscc"
         style="fill:#eff0f1;fill-opacity:1;stroke-width:0.00478901" />
      <path
         d="m 20.748848,294.08952 c 0,0.20705 -0.167783,0.37482 -0.374824,0.37482 -0.207044,0 -0.374828,-0.16777 -0.374828,-0.37482 0,-0.20705 0.167784,-0.37483 0.374828,-0.37483 0.207041,0 0.374824,0.16778 0.374824,0.37483 z"
         id="path4-3-5-6-8"
         style="fill:#8585c7;fill-opacity:1;stroke-width:0.00206642" />
      <path
         d="m 21.873328,293.91835 c 0,-0.0288 -0.01999,-0.0543 -0.0481,-0.0606 l -0.412933,-0.0937 c -0.02062,-0.0612 -0.04561,-0.12057 -0.07622,-0.17742 l 0.227396,-0.35921 c 0.01499,-0.0244 0.01187,-0.0569 -0.0087,-0.0775 l -0.241138,-0.24051 c -0.02062,-0.0206 -0.05248,-0.0244 -0.07746,-0.009 l -0.365458,0.22989 c -0.05497,-0.0281 -0.111196,-0.0512 -0.169294,-0.0693 l -0.09746,-0.42231 c -0.0062,-0.0288 -0.03186,-0.0487 -0.0606,-0.0487 h -0.339215 c -0.02874,0 -0.05435,0.02 -0.0606,0.0487 l -0.09683,0.42231 c -0.05747,0.0181 -0.114319,0.0412 -0.169294,0.0693 l -0.366083,-0.22989 c -0.02436,-0.0156 -0.05685,-0.0119 -0.07746,0.009 l -0.239887,0.24051 c -0.02062,0.0206 -0.02437,0.0531 -0.0087,0.0775 l 0.226145,0.35983 c -0.02936,0.0569 -0.05497,0.1162 -0.07497,0.1768 l -0.412933,0.0937 c -0.02811,0.006 -0.04873,0.0319 -0.04873,0.0606 v 0.3411 c 0,0.0293 0.02062,0.0543 0.04873,0.0606 l 0.40294,0.0918 c 0.01999,0.0675 0.0456,0.13182 0.07746,0.19241 l -0.218649,0.34734 c -0.01562,0.0244 -0.01187,0.0569 0.0087,0.0775 l 0.239887,0.23989 c 0.02061,0.0206 0.0531,0.0237 0.07746,0.009 l 0.340468,-0.21428 c 0.06434,0.0344 0.132439,0.0631 0.203031,0.0843 l 0.08871,0.39231 c 0.0062,0.0288 0.03185,0.0487 0.0606,0.0487 h 0.339217 c 0.02874,0 0.05435,-0.02 0.0606,-0.0487 l 0.08996,-0.39231 c 0.07058,-0.0219 0.138059,-0.0499 0.20178,-0.0843 l 0.340469,0.21428 c 0.02498,0.015 0.05684,0.0119 0.07746,-0.009 l 0.241137,-0.23989 c 0.02062,-0.0206 0.02437,-0.0531 0.0087,-0.0775 l -0.218651,-0.3461 c 0.03124,-0.0606 0.05747,-0.12556 0.07746,-0.19366 l 0.40294,-0.0918 c 0.02811,-0.006 0.0481,-0.0312 0.0481,-0.0606 z m -1.498055,0.93769 c -0.423552,0 -0.767768,-0.34422 -0.767768,-0.76715 0,-0.4223 0.344216,-0.76589 0.767768,-0.76589 0.422305,0 0.765896,0.34359 0.765896,0.76589 0,0.42293 -0.343591,0.76715 -0.765896,0.76715 z"
         id="path2-5-7-9"
         style="fill:#8585c7;fill-opacity:1;stroke-width:0.062471" />
    </g>
    <g
       id="g1996">
      <g
         id="update-none">
        <rect
           style="opacity:0.003;fill:#000000;fill-opacity:1;stroke:none;stroke-width:0.157018;stroke-miterlimit:4;stroke-dasharray:none;stroke-opacity:1"
           id="rect1396-6"
           width="8.4666672"
           height="8.46667"
           x="0"
           y="297"
           ry="1.8892064e-06" />
        <path
           d="m 6.2652051,299.15641 1.286619,0.65436 -0.388757,0.19074 c 0.160235,0.37847 0.250157,0.79441 0.250157,1.23185 0,1.75301 -1.421164,3.17497 -3.17497,3.17497 -0.561839,0 -1.089198,-0.14751 -1.546917,-0.40372 l 0.321147,-0.32107 c 0.369152,0.1852 0.784277,0.29208 1.22577,0.29208 1.514467,0 2.741589,-1.22781 2.741589,-2.74165 0,-0.40625 -0.09398,-0.78904 -0.252861,-1.13579 z m -2.07043,0.67362 z m 0,0 z m 0.04416,-1.33902 c -1.514466,0 -2.741587,1.22791 -2.741587,2.74235 0,0.40626 0.09398,0.78898 0.25286,1.13573 l 0.462453,0.94116 -1.28661943,-0.65445 0.38875853,-0.1907 c -0.1602368,-0.37858 -0.2501577,-0.79442 -0.2501577,-1.23174 -6.77e-4,-1.75325 1.4211636,-3.17503 3.1742926,-3.17503 0.561839,0 1.089199,0.14734 1.546918,0.40357 l -0.321148,0.32121 c -0.36915,-0.18524 -0.784952,-0.2921 -1.22577,-0.2921 z"
           id="path4-9-36-3-3-5"
           sodipodi:nodetypes="cccssccsscccccccccccccccccccccccccccsscccccscc"
           style="fill:#eff0f1;fill-opacity:1;stroke-width:0.00676095" />
        <path
           d="m 4.7625037,301.23327 c 0,0.29231 -0.236869,0.52917 -0.529162,0.52917 -0.292298,0 -0.529169,-0.23686 -0.529169,-0.52917 0,-0.2923 0.236871,-0.52916 0.529169,-0.52916 0.292293,0 0.529162,0.23686 0.529162,0.52916 z"
           id="path4-3-5"
           style="fill:#eff0f1;fill-opacity:1;stroke-width:0.0029173" />
        <path
           d="m 6.3500057,300.99162 c 0,-0.0406 -0.02822,-0.0767 -0.06791,-0.0855 l -0.582964,-0.13229 c -0.02911,-0.0864 -0.06439,-0.17022 -0.1076,-0.25048 l 0.321029,-0.50712 c 0.02117,-0.0344 0.01676,-0.0803 -0.01235,-0.10936 l -0.34043,-0.33955 c -0.02911,-0.0291 -0.07409,-0.0344 -0.10936,-0.0123 l -0.515941,0.32455 c -0.07761,-0.0397 -0.156983,-0.0723 -0.239003,-0.0979 l -0.137583,-0.5962 c -0.0088,-0.0406 -0.04498,-0.0688 -0.08555,-0.0688 h -0.478895 c -0.04057,0 -0.07673,0.0282 -0.08555,0.0688 l -0.136706,0.5962 c -0.08114,0.0256 -0.161392,0.0582 -0.239003,0.0979 l -0.516824,-0.32455 c -0.03439,-0.022 -0.08026,-0.0168 -0.10936,0.0123 l -0.338664,0.33955 c -0.02911,0.0291 -0.0344,0.075 -0.01235,0.10936 l 0.319264,0.508 c -0.04145,0.0803 -0.07761,0.16405 -0.105835,0.2496 l -0.582964,0.13229 c -0.03969,0.009 -0.06879,0.045 -0.06879,0.0855 v 0.48155 c 0,0.0414 0.02911,0.0767 0.06879,0.0855 l 0.568856,0.12965 c 0.02822,0.0953 0.06438,0.18609 0.10936,0.27164 l -0.308681,0.49036 c -0.02205,0.0344 -0.01676,0.0803 0.01235,0.10936 l 0.338664,0.33867 c 0.0291,0.0291 0.07497,0.0335 0.10936,0.0123 l 0.480661,-0.30251 c 0.09084,0.0485 0.186972,0.0891 0.286632,0.11906 l 0.12524,0.55386 c 0.0088,0.0406 0.04497,0.0688 0.08555,0.0688 h 0.478895 c 0.04057,0 0.07673,-0.0282 0.08555,-0.0688 l 0.127,-0.55386 c 0.09965,-0.0309 0.194906,-0.0705 0.284866,-0.11906 l 0.480661,0.30251 c 0.03527,0.0212 0.08025,0.0168 0.10936,-0.0123 l 0.340429,-0.33867 c 0.02911,-0.0291 0.0344,-0.075 0.01235,-0.10936 l -0.30868,-0.4886 c 0.0441,-0.0855 0.08114,-0.17727 0.10936,-0.2734 l 0.568855,-0.12965 c 0.03969,-0.009 0.06791,-0.0441 0.06791,-0.0855 z m -2.114901,1.3238 c -0.597956,0 -1.083908,-0.48595 -1.083908,-1.08303 0,-0.59619 0.485952,-1.08126 1.083908,-1.08126 0.596195,0 1.081264,0.48507 1.081264,1.08126 0,0.59708 -0.485069,1.08303 -1.081264,1.08303 z"
           id="path2-5"
           style="fill:#eff0f1;fill-opacity:1;stroke-width:0.0881943" />
      </g>
    </g>
    <g
       id="update-high">
      <rect
         style="opacity:0.003;fill:#000000;fill-opacity:1;stroke:none;stroke-width:0.157018;stroke-miterlimit:4;stroke-dasharray:none;stroke-opacity:1"
         id="rect1396-6-9"
         width="8.4666672"
         height="8.46667"
         x="8.4666672"
         y="296.99997"
         ry="1.8892064e-06" />
      <path
         d="m 14.731873,299.15638 1.286619,0.65436 -0.388757,0.19074 c 0.160235,0.37847 0.250157,0.79441 0.250157,1.23185 0,1.75301 -1.421164,3.17497 -3.17497,3.17497 -0.561839,0 -1.089198,-0.14751 -1.546918,-0.40372 l 0.321148,-0.32107 c 0.369152,0.1852 0.784277,0.29208 1.22577,0.29208 1.514467,0 2.741589,-1.22781 2.741589,-2.74165 0,-0.40625 -0.09398,-0.78904 -0.252861,-1.13579 z m -2.07043,0.67362 z m 0,0 z m 0.04416,-1.33902 c -1.514467,0 -2.7415882,1.22791 -2.7415882,2.74235 0,0.40626 0.09398,0.78898 0.2528602,1.13573 l 0.462453,0.94116 -1.2866191,-0.65445 0.3887585,-0.1907 c -0.1602368,-0.37858 -0.2501577,-0.79442 -0.2501577,-1.23174 -6.77e-4,-1.75325 1.4211633,-3.17503 3.1742933,-3.17503 0.561839,0 1.089199,0.14734 1.546918,0.40357 l -0.321148,0.32121 c -0.36915,-0.18524 -0.784952,-0.2921 -1.22577,-0.2921 z"
         id="path4-9-36-3-3-5-1"
         sodipodi:nodetypes="cccssccsscccccccccccccccccccccccccccsscccccscc"
         style="fill:#eff0f1;fill-opacity:1;stroke-width:0.00676095" />
      <path
         d="m 13.229171,301.23324 c 0,0.29231 -0.236869,0.52917 -0.529162,0.52917 -0.292298,0 -0.529169,-0.23686 -0.529169,-0.52917 0,-0.2923 0.236871,-0.52916 0.529169,-0.52916 0.292293,0 0.529162,0.23686 0.529162,0.52916 z"
         id="path4-3-5-27"
         style="fill:#ff4c78;fill-opacity:1;stroke-width:0.0029173" />
      <path
         d="m 14.816673,300.99159 c 0,-0.0406 -0.02822,-0.0767 -0.06791,-0.0855 l -0.582964,-0.13229 c -0.02911,-0.0864 -0.06439,-0.17022 -0.1076,-0.25048 l 0.321029,-0.50712 c 0.02117,-0.0344 0.01676,-0.0803 -0.01235,-0.10936 l -0.34043,-0.33955 c -0.02911,-0.0291 -0.07409,-0.0344 -0.10936,-0.0123 l -0.515941,0.32455 c -0.07761,-0.0397 -0.156983,-0.0723 -0.239003,-0.0979 l -0.137583,-0.5962 c -0.0088,-0.0406 -0.04498,-0.0688 -0.08555,-0.0688 h -0.478895 c -0.04057,0 -0.07673,0.0282 -0.08555,0.0688 l -0.136706,0.5962 c -0.08114,0.0256 -0.161392,0.0582 -0.239003,0.0979 l -0.516824,-0.32455 c -0.03439,-0.022 -0.08026,-0.0168 -0.10936,0.0123 l -0.338664,0.33955 c -0.02911,0.0291 -0.0344,0.075 -0.01235,0.10936 l 0.319264,0.508 c -0.04145,0.0803 -0.07761,0.16405 -0.105835,0.2496 l -0.582964,0.13229 c -0.03969,0.009 -0.06879,0.045 -0.06879,0.0855 v 0.48155 c 0,0.0414 0.02911,0.0767 0.06879,0.0855 l 0.568856,0.12965 c 0.02822,0.0953 0.06438,0.18609 0.10936,0.27164 l -0.308681,0.49036 c -0.02205,0.0344 -0.01676,0.0803 0.01235,0.10936 l 0.338664,0.33867 c 0.0291,0.0291 0.07497,0.0335 0.10936,0.0123 l 0.480661,-0.30251 c 0.09084,0.0485 0.186972,0.0891 0.286632,0.11906 l 0.12524,0.55386 c 0.0088,0.0406 0.04497,0.0688 0.08555,0.0688 h 0.478895 c 0.04057,0 0.07673,-0.0282 0.08555,-0.0688 l 0.127,-0.55386 c 0.09965,-0.0309 0.194906,-0.0705 0.284866,-0.11906 l 0.480661,0.30251 c 0.03527,0.0212 0.08025,0.0168 0.10936,-0.0123 l 0.340429,-0.33867 c 0.02911,-0.0291 0.0344,-0.075 0.01235,-0.10936 l -0.30868,-0.4886 c 0.0441,-0.0855 0.08114,-0.17727 0.10936,-0.2734 l 0.568855,-0.12965 c 0.03969,-0.009 0.06791,-0.0441 0.06791,-0.0855 z m -2.114901,1.3238 c -0.597956,0 -1.083908,-0.48595 -1.083908,-1.08303 0,-0.59619 0.485952,-1.08126 1.083908,-1.08126 0.596195,0 1.081264,0.48507 1.081264,1.08126 0,0.59708 -0.485069,1.08303 -1.081264,1.08303 z"
         id="path2-5-0"
         style="fill:#ff4c78;fill-opacity:1;stroke-width:0.0881943" />
    </g>
    <g
       id="update-medium">
      <rect
         style="opacity:0.003;fill:#000000;fill-opacity:1;stroke:none;stroke-width:0.157018;stroke-miterlimit:4;stroke-dasharray:none;stroke-opacity:1"
         id="rect1396-6-9-5"
         width="8.4666672"
         height="8.46667"
         x="16.933332"
         y="296.99997"
         ry="1.8892064e-06" />
      <path
         d="m 23.198537,299.15638 1.286619,0.65436 -0.388757,0.19074 c 0.160235,0.37847 0.250157,0.79441 0.250157,1.23185 0,1.75301 -1.421164,3.17497 -3.17497,3.17497 -0.561839,0 -1.089198,-0.14751 -1.546917,-0.40372 l 0.321147,-0.32107 c 0.369152,0.1852 0.784277,0.29208 1.22577,0.29208 1.514467,0 2.741589,-1.22781 2.741589,-2.74165 0,-0.40625 -0.09398,-0.78904 -0.252861,-1.13579 z m -2.07043,0.67362 z m 0,0 z m 0.04416,-1.33902 c -1.514466,0 -2.741587,1.22791 -2.741587,2.74235 0,0.40626 0.09398,0.78898 0.25286,1.13573 l 0.462453,0.94116 -1.286619,-0.65445 0.388758,-0.1907 c -0.160237,-0.37858 -0.250157,-0.79442 -0.250157,-1.23174 -6.77e-4,-1.75325 1.421163,-3.17503 3.174292,-3.17503 0.561839,0 1.089199,0.14734 1.546918,0.40357 l -0.321148,0.32121 c -0.36915,-0.18524 -0.784952,-0.2921 -1.22577,-0.2921 z"
         id="path4-9-36-3-3-5-9"
         sodipodi:nodetypes="cccssccsscccccccccccccccccccccccccccsscccccscc"
         style="fill:#eff0f1;fill-opacity:1;stroke-width:0.00676095" />
      <path
         d="m 21.695836,301.23324 c 0,0.29231 -0.236869,0.52917 -0.529162,0.52917 -0.292298,0 -0.529169,-0.23686 -0.529169,-0.52917 0,-0.2923 0.236871,-0.52916 0.529169,-0.52916 0.292293,0 0.529162,0.23686 0.529162,0.52916 z"
         id="path4-3-5-36"
         style="fill:#ff7f2a;fill-opacity:1;stroke-width:0.0029173" />
      <path
         d="m 23.283338,300.99159 c 0,-0.0406 -0.02822,-0.0767 -0.06791,-0.0855 l -0.582964,-0.13229 c -0.02911,-0.0864 -0.06439,-0.17022 -0.1076,-0.25048 l 0.321029,-0.50712 c 0.02117,-0.0344 0.01676,-0.0803 -0.01235,-0.10936 l -0.34043,-0.33955 c -0.02911,-0.0291 -0.07409,-0.0344 -0.10936,-0.0123 l -0.515941,0.32455 c -0.07761,-0.0397 -0.156983,-0.0723 -0.239003,-0.0979 l -0.137583,-0.5962 c -0.0088,-0.0406 -0.04498,-0.0688 -0.08555,-0.0688 h -0.478895 c -0.04057,0 -0.07673,0.0282 -0.08555,0.0688 l -0.136706,0.5962 c -0.08114,0.0256 -0.161392,0.0582 -0.239003,0.0979 l -0.516824,-0.32455 c -0.03439,-0.022 -0.08026,-0.0168 -0.10936,0.0123 l -0.338664,0.33955 c -0.02911,0.0291 -0.0344,0.075 -0.01235,0.10936 l 0.319264,0.508 c -0.04145,0.0803 -0.07761,0.16405 -0.105835,0.2496 l -0.582964,0.13229 c -0.03969,0.009 -0.06879,0.045 -0.06879,0.0855 v 0.48155 c 0,0.0414 0.02911,0.0767 0.06879,0.0855 l 0.568856,0.12965 c 0.02822,0.0953 0.06438,0.18609 0.10936,0.27164 l -0.308681,0.49036 c -0.02205,0.0344 -0.01676,0.0803 0.01235,0.10936 l 0.338664,0.33867 c 0.0291,0.0291 0.07497,0.0335 0.10936,0.0123 l 0.480661,-0.30251 c 0.09084,0.0485 0.186972,0.0891 0.286632,0.11906 l 0.12524,0.55386 c 0.0088,0.0406 0.04497,0.0688 0.08555,0.0688 h 0.478895 c 0.04057,0 0.07673,-0.0282 0.08555,-0.0688 l 0.127,-0.55386 c 0.09965,-0.0309 0.194906,-0.0705 0.284866,-0.11906 l 0.480661,0.30251 c 0.03527,0.0212 0.08025,0.0168 0.10936,-0.0123 l 0.340429,-0.33867 c 0.02911,-0.0291 0.0344,-0.075 0.01235,-0.10936 l -0.30868,-0.4886 c 0.0441,-0.0855 0.08114,-0.17727 0.10936,-0.2734 l 0.568855,-0.12965 c 0.03969,-0.009 0.06791,-0.0441 0.06791,-0.0855 z m -2.114901,1.3238 c -0.597956,0 -1.083908,-0.48595 -1.083908,-1.08303 0,-0.59619 0.485952,-1.08126 1.083908,-1.08126 0.596195,0 1.081264,0.48507 1.081264,1.08126 0,0.59708 -0.485069,1.08303 -1.081264,1.08303 z"
         id="path2-5-06"
         style="fill:#ff7f2a;fill-opacity:1;stroke-width:0.0881943" />
    </g>
    <g
       id="update-low">
      <rect
         style="opacity:0.003;fill:#000000;fill-opacity:1;stroke:none;stroke-width:0.157018;stroke-miterlimit:4;stroke-dasharray:none;stroke-opacity:1"
         id="rect1396-6-9-1"
         width="8.4666672"
         height="8.46667"
         x="25.4"
         y="296.99997"
         ry="1.8892064e-06" />
      <path
         d="m 31.665205,299.15638 1.286619,0.65436 -0.388757,0.19074 c 0.160235,0.37847 0.250157,0.79441 0.250157,1.23185 0,1.75301 -1.421164,3.17497 -3.17497,3.17497 -0.561839,0 -1.089198,-0.14751 -1.546917,-0.40372 l 0.321147,-0.32107 c 0.369152,0.1852 0.784277,0.29208 1.22577,0.29208 1.514467,0 2.741589,-1.22781 2.741589,-2.74165 0,-0.40625 -0.09398,-0.78904 -0.252861,-1.13579 z m -2.07043,0.67362 z m 0,0 z m 0.04416,-1.33902 c -1.514466,0 -2.741587,1.22791 -2.741587,2.74235 0,0.40626 0.09398,0.78898 0.25286,1.13573 l 0.462453,0.94116 -1.286619,-0.65445 0.388758,-0.1907 c -0.160237,-0.37858 -0.250158,-0.79442 -0.250158,-1.23174 -6.77e-4,-1.75325 1.421164,-3.17503 3.174293,-3.17503 0.561839,0 1.089199,0.14734 1.546918,0.40357 l -0.321148,0.32121 c -0.36915,-0.18524 -0.784952,-0.2921 -1.22577,-0.2921 z"
         id="path4-9-36-3-3-5-2"
         sodipodi:nodetypes="cccssccsscccccccccccccccccccccccccccsscccccscc"
         style="fill:#eff0f1;fill-opacity:1;stroke-width:0.00676095" />
      <path
         d="m 30.162504,301.23324 c 0,0.13666 -0.05177,0.2612 -0.136774,0.35508 -0.09682,0.10693 -0.236745,0.17409 -0.392388,0.17409 -0.292298,0 -0.529169,-0.23686 -0.529169,-0.52917 0,-0.2923 0.236871,-0.52916 0.529169,-0.52916 0.292293,0 0.529162,0.23686 0.529162,0.52916 z"
         id="path4-3-5-6"
         style="fill:#8585c7;fill-opacity:1;stroke-width:0.0029173"
         sodipodi:nodetypes="ssssss" />
      <path
         d="m 31.750006,300.99159 c 0,-0.0406 -0.02822,-0.0767 -0.06791,-0.0855 l -0.582964,-0.13229 c -0.02911,-0.0864 -0.06439,-0.17022 -0.1076,-0.25048 l 0.321029,-0.50712 c 0.02117,-0.0344 0.01676,-0.0803 -0.01235,-0.10936 l -0.34043,-0.33955 c -0.02911,-0.0291 -0.07409,-0.0344 -0.10936,-0.0123 l -0.515941,0.32455 c -0.07761,-0.0397 -0.156983,-0.0723 -0.239003,-0.0979 l -0.137583,-0.5962 c -0.0088,-0.0406 -0.04498,-0.0688 -0.08555,-0.0688 h -0.478895 c -0.04057,0 -0.07673,0.0282 -0.08555,0.0688 l -0.136706,0.5962 c -0.08114,0.0256 -0.161392,0.0582 -0.239003,0.0979 l -0.516824,-0.32455 c -0.03439,-0.022 -0.08026,-0.0168 -0.10936,0.0123 l -0.338664,0.33955 c -0.02911,0.0291 -0.0344,0.075 -0.01235,0.10936 l 0.319264,0.508 c -0.04145,0.0803 -0.07761,0.16405 -0.105835,0.2496 l -0.582964,0.13229 c -0.03969,0.009 -0.06879,0.045 -0.06879,0.0855 v 0.48155 c 0,0.0414 0.02911,0.0767 0.06879,0.0855 l 0.568856,0.12965 c 0.02822,0.0953 0.06438,0.18609 0.10936,0.27164 l -0.308681,0.49036 c -0.02205,0.0344 -0.01676,0.0803 0.01235,0.10936 l 0.338664,0.33867 c 0.0291,0.0291 0.07497,0.0335 0.10936,0.0123 l 0.480661,-0.30251 c 0.09084,0.0485 0.186972,0.0891 0.286632,0.11906 l 0.12524,0.55386 c 0.0088,0.0406 0.04497,0.0688 0.08555,0.0688 h 0.478895 c 0.04057,0 0.07673,-0.0282 0.08555,-0.0688 l 0.127,-0.55386 c 0.09965,-0.0309 0.194906,-0.0705 0.284866,-0.11906 l 0.480661,0.30251 c 0.03527,0.0212 0.08025,0.0168 0.10936,-0.0123 l 0.340429,-0.33867 c 0.02911,-0.0291 0.0344,-0.075 0.01235,-0.10936 l -0.30868,-0.4886 c 0.0441,-0.0855 0.08114,-0.17727 0.10936,-0.2734 l 0.568855,-0.12965 c 0.03969,-0.009 0.06791,-0.0441 0.06791,-0.0855 z m -2.114901,1.3238 c -0.597956,0 -1.083908,-0.48595 -1.083908,-1.08303 0,-0.59619 0.485952,-1.08126 1.083908,-1.08126 0.596195,0 1.081264,0.48507 1.081264,1.08126 0,0.59708 -0.485069,1.08303 -1.081264,1.08303 z"
         id="path2-5-1"
         style="fill:#8585c7;fill-opacity:1;stroke-width:0.0881943"
         sodipodi:nodetypes="sccccccccccssccccccccccsscccccsccccssccccccccccsssssss" />
    </g>
    <g
       id="22-22-update-high">
      <rect
         style="opacity:0.003;fill:#000000;fill-opacity:1;stroke:none;stroke-width:0.10795;stroke-miterlimit:4;stroke-dasharray:none;stroke-opacity:1"
         id="rect1396-3"
         width="5.8208332"
         height="5.8208332"
         x="5.8208332"
         y="291.17914"
         ry="1.2988288e-06" />
      <path
         d="m 10.171595,292.61841 0.911356,0.4635 -0.27537,0.13511 c 0.1135,0.26808 0.177195,0.56271 0.177195,0.87256 0,1.24172 -1.0066586,2.24894 -2.2489381,2.24894 -0.3979693,0 -0.7715153,-0.10449 -1.0957329,-0.28597 l 0.2274791,-0.22743 c 0.2614827,0.13119 0.5555295,0.20689 0.8682538,0.20689 1.0727474,0 1.9419591,-0.86969 1.9419591,-1.942 0,-0.28776 -0.06657,-0.5589 -0.17911,-0.80452 z m -1.4665548,0.47714 z m 0,0 z m 0.03128,-0.94847 c -1.0727467,0 -1.9419574,0.86977 -1.9419574,1.9425 0,0.28777 0.066569,0.55886 0.1791091,0.80448 l 0.3275709,0.66665 -0.9113554,-0.46357 0.2753706,-0.13508 c -0.1135011,-0.26816 -0.177195,-0.56271 -0.177195,-0.87248 -4.796e-4,-1.24189 1.0066575,-2.24898 2.2484572,-2.24898 0.3979693,0 0.771516,0.10437 1.0957336,0.28586 l -0.2274798,0.22753 c -0.2614813,-0.13122 -0.5560077,-0.20691 -0.8682538,-0.20691 z"
         id="path4-9-36-3-3-5-3"
         sodipodi:nodetypes="cccssccsscccccccccccccccccccccccccccsscccccscc"
         style="fill:#eff0f1;fill-opacity:1;stroke-width:0.00478901" />
      <path
         d="m 9.1071813,294.08952 c 0,0.20705 -0.1677822,0.37482 -0.3748231,0.37482 -0.2070444,0 -0.374828,-0.16777 -0.374828,-0.37482 0,-0.20705 0.1677836,-0.37483 0.374828,-0.37483 0.2070409,0 0.3748231,0.16778 0.3748231,0.37483 z"
         id="path4-3-5-6-2"
         style="fill:#ff4c78;fill-opacity:1;stroke-width:0.00206642" />
      <path
         d="m 10.231663,293.91835 c 0,-0.0288 -0.01999,-0.0543 -0.0481,-0.0606 l -0.4129339,-0.0937 c -0.02062,-0.0612 -0.04561,-0.12057 -0.076217,-0.17742 l 0.2273952,-0.35921 c 0.015,-0.0244 0.01187,-0.0569 -0.0087,-0.0775 l -0.2411376,-0.24051 c -0.02062,-0.0206 -0.05248,-0.0244 -0.077463,-0.009 l -0.3654582,0.22989 c -0.054974,-0.0281 -0.1111963,-0.0512 -0.1692938,-0.0693 l -0.097455,-0.42231 c -0.00623,-0.0288 -0.031861,-0.0487 -0.060598,-0.0487 H 8.562434 c -0.028737,0 -0.05435,0.02 -0.060598,0.0487 L 8.405003,293.061 c -0.057474,0.0181 -0.1143193,0.0412 -0.1692938,0.0693 l -0.3660837,-0.22989 c -0.02436,-0.0156 -0.056851,-0.0119 -0.077463,0.009 l -0.239887,0.24051 c -0.02062,0.0206 -0.024367,0.0531 -0.00875,0.0775 l 0.2261453,0.35983 c -0.02936,0.0569 -0.054974,0.1162 -0.074966,0.1768 l -0.4129329,0.0937 c -0.028114,0.006 -0.048726,0.0319 -0.048726,0.0606 v 0.3411 c 0,0.0293 0.02062,0.0543 0.048726,0.0606 l 0.4029397,0.0918 c 0.019989,0.0675 0.045603,0.13182 0.077463,0.19241 l -0.218649,0.34734 c -0.015619,0.0244 -0.011872,0.0569 0.00875,0.0775 l 0.239887,0.23989 c 0.020612,0.0206 0.053104,0.0237 0.077463,0.009 l 0.3404682,-0.21428 c 0.064345,0.0344 0.1324385,0.0631 0.203031,0.0843 l 0.088712,0.39231 c 0.00623,0.0288 0.031854,0.0487 0.060598,0.0487 h 0.3392173 c 0.028737,0 0.05435,-0.02 0.060598,-0.0487 l 0.089958,-0.39231 c 0.070585,-0.0219 0.1380584,-0.0499 0.2017801,-0.0843 l 0.3404682,0.21428 c 0.024983,0.015 0.056844,0.0119 0.077463,-0.009 l 0.2411369,-0.23989 c 0.02062,-0.0206 0.02437,-0.0531 0.0087,-0.0775 L 9.703106,294.6055 c 0.031238,-0.0606 0.057474,-0.12556 0.077463,-0.19366 l 0.40294,-0.0918 c 0.02811,-0.006 0.0481,-0.0312 0.0481,-0.0606 z m -1.498056,0.93769 c -0.4235521,0 -0.7677681,-0.34422 -0.7677681,-0.76715 0,-0.4223 0.344216,-0.76589 0.7677681,-0.76589 0.4223048,0 0.7658954,0.34359 0.7658954,0.76589 0,0.42293 -0.3435906,0.76715 -0.7658954,0.76715 z"
         id="path2-5-7"
         style="fill:#ff4c78;fill-opacity:1;stroke-width:0.062471" />
    </g>
    <g
       id="22-22-update-none">
      <rect
         style="opacity:0.003;fill:#000000;fill-opacity:1;stroke:none;stroke-width:0.10795;stroke-miterlimit:4;stroke-dasharray:none;stroke-opacity:1"
         id="rect1396"
         width="5.8208332"
         height="5.8208332"
         x="0"
         y="291.17914"
         ry="1.2988289e-06" />
      <path
         d="m 4.3507614,292.61841 0.9113552,0.4635 -0.2753696,0.13511 c 0.1134998,0.26808 0.1771946,0.56271 0.1771946,0.87256 0,1.24172 -1.0066578,2.24894 -2.248937,2.24894 -0.3979693,0 -0.7715153,-0.10449 -1.0957329,-0.28597 l 0.2274791,-0.22743 c 0.2614827,0.13119 0.5555295,0.20689 0.8682538,0.20689 1.0727474,0 1.9419588,-0.86969 1.9419588,-1.942 0,-0.28776 -0.066569,-0.5589 -0.1791099,-0.80452 z m -1.4665545,0.47714 z m 0,0 z m 0.03128,-0.94847 c -1.0727467,0 -1.94195733,0.86977 -1.94195733,1.9425 0,0.28777 0.066569,0.55886 0.17910903,0.80448 l 0.3275709,0.66665 -0.91135533,-0.46357 0.2753706,-0.13508 c -0.1135011,-0.26816 -0.177195,-0.56271 -0.177195,-0.87248 -4.796e-4,-1.24189 1.00665743,-2.24898 2.24845713,-2.24898 0.3979693,0 0.771516,0.10437 1.0957336,0.28586 l -0.2274798,0.22753 C 3.5222594,292.22277 3.227733,292.14708 2.9154869,292.14708 Z"
         id="path4-9-36-3-3-5-3-0"
         sodipodi:nodetypes="cccssccsscccccccccccccccccccccccccccsscccccscc"
         style="fill:#eff0f1;fill-opacity:1;stroke-width:0.00478901" />
      <path
         d="m 3.286348,294.08952 c 0,0.20705 -0.1677822,0.37482 -0.3748231,0.37482 -0.2070444,0 -0.374828,-0.16777 -0.374828,-0.37482 0,-0.20705 0.1677836,-0.37483 0.374828,-0.37483 0.2070409,0 0.3748231,0.16778 0.3748231,0.37483 z"
         id="path4-3-5-6-23"
         style="fill:#eff0f1;fill-opacity:1;stroke-width:0.00206642" />
      <path
         d="m 4.4108288,293.91835 c 0,-0.0288 -0.019989,-0.0543 -0.048103,-0.0606 l -0.412933,-0.0937 c -0.02062,-0.0612 -0.04561,-0.12057 -0.076217,-0.17742 l 0.2273955,-0.35921 c 0.014995,-0.0244 0.011872,-0.0569 -0.00875,-0.0775 l -0.2411379,-0.24051 c -0.02062,-0.0206 -0.05248,-0.0244 -0.077463,-0.009 l -0.3654582,0.22989 c -0.054974,-0.0281 -0.1111963,-0.0512 -0.1692938,-0.0693 l -0.097455,-0.42231 c -0.00623,-0.0288 -0.031861,-0.0487 -0.060598,-0.0487 H 2.7416007 c -0.028737,0 -0.05435,0.02 -0.060598,0.0487 l -0.096833,0.42231 c -0.057474,0.0181 -0.1143193,0.0412 -0.1692938,0.0693 l -0.3660837,-0.22989 c -0.02436,-0.0156 -0.056851,-0.0119 -0.077463,0.009 l -0.239887,0.24051 c -0.02062,0.0206 -0.024367,0.0531 -0.00875,0.0775 l 0.2261453,0.35983 c -0.02936,0.0569 -0.054974,0.1162 -0.074966,0.1768 l -0.4129329,0.0937 c -0.028114,0.006 -0.048726,0.0319 -0.048726,0.0606 v 0.3411 c 0,0.0293 0.02062,0.0543 0.048726,0.0606 l 0.4029397,0.0918 c 0.019989,0.0675 0.045603,0.13182 0.077463,0.19241 l -0.218649,0.34734 c -0.015619,0.0244 -0.011872,0.0569 0.00875,0.0775 l 0.239887,0.23989 c 0.020612,0.0206 0.053104,0.0237 0.077463,0.009 l 0.3404682,-0.21428 c 0.064345,0.0344 0.1324385,0.0631 0.203031,0.0843 l 0.088712,0.39231 c 0.00623,0.0288 0.031854,0.0487 0.060598,0.0487 h 0.3392173 c 0.028737,0 0.05435,-0.02 0.060598,-0.0487 l 0.089958,-0.39231 c 0.070585,-0.0219 0.1380584,-0.0499 0.2017801,-0.0843 l 0.3404682,0.21428 c 0.024983,0.015 0.056844,0.0119 0.077463,-0.009 l 0.2411372,-0.23989 c 0.02062,-0.0206 0.024367,-0.0531 0.00875,-0.0775 l -0.2186506,-0.3461 c 0.031238,-0.0606 0.057474,-0.12556 0.077463,-0.19366 l 0.4029392,-0.0918 c 0.028114,-0.006 0.048103,-0.0312 0.048103,-0.0606 z m -1.4980551,0.93769 c -0.4235521,0 -0.7677681,-0.34422 -0.7677681,-0.76715 0,-0.4223 0.344216,-0.76589 0.7677681,-0.76589 0.4223048,0 0.7658954,0.34359 0.7658954,0.76589 0,0.42293 -0.3435906,0.76715 -0.7658954,0.76715 z"
         id="path2-5-7-7"
         style="fill:#eff0f1;fill-opacity:1;stroke-width:0.062471" />
    </g>
    <g
       id="22-22-update-medium">
      <rect
         style="opacity:0.003;fill:#000000;fill-opacity:1;stroke:none;stroke-width:0.10795;stroke-miterlimit:4;stroke-dasharray:none;stroke-opacity:1"
         id="rect1396-3-1"
         width="5.8208332"
         height="5.8208332"
         x="11.641666"
         y="291.17914"
         ry="1.2988288e-06" />
      <path
         d="m 15.992428,292.61841 0.911356,0.4635 -0.27537,0.13511 c 0.1135,0.26808 0.177195,0.56271 0.177195,0.87256 0,1.24172 -1.006659,2.24894 -2.248938,2.24894 -0.397969,0 -0.771515,-0.10449 -1.095733,-0.28597 l 0.227479,-0.22743 c 0.261483,0.13119 0.55553,0.20689 0.868254,0.20689 1.072747,0 1.941959,-0.86969 1.941959,-1.942 0,-0.28776 -0.06657,-0.5589 -0.17911,-0.80452 z m -1.466555,0.47714 z m 0,0 z m 0.03128,-0.94847 c -1.072746,0 -1.941957,0.86977 -1.941957,1.9425 0,0.28777 0.06657,0.55886 0.179109,0.80448 l 0.327571,0.66665 -0.911356,-0.46357 0.275371,-0.13508 c -0.113501,-0.26816 -0.177195,-0.56271 -0.177195,-0.87248 -4.8e-4,-1.24189 1.006657,-2.24898 2.248457,-2.24898 0.39797,0 0.771516,0.10437 1.095734,0.28586 l -0.22748,0.22753 c -0.261481,-0.13122 -0.556008,-0.20691 -0.868254,-0.20691 z"
         id="path4-9-36-3-3-5-3-5"
         sodipodi:nodetypes="cccssccsscccccccccccccccccccccccccccsscccccscc"
         style="fill:#eff0f1;fill-opacity:1;stroke-width:0.00478901" />
      <path
         d="m 14.928014,294.08952 c 0,0.20705 -0.167782,0.37482 -0.374823,0.37482 -0.207044,0 -0.374828,-0.16777 -0.374828,-0.37482 0,-0.20705 0.167784,-0.37483 0.374828,-0.37483 0.207041,0 0.374823,0.16778 0.374823,0.37483 z"
         id="path4-3-5-6-2-9"
         style="fill:#ff7f2a;fill-opacity:1;stroke-width:0.00206642" />
      <path
         d="m 16.052496,293.91835 c 0,-0.0288 -0.01999,-0.0543 -0.0481,-0.0606 l -0.412934,-0.0937 c -0.02062,-0.0612 -0.04561,-0.12057 -0.07622,-0.17742 l 0.227395,-0.35921 c 0.015,-0.0244 0.01187,-0.0569 -0.0087,-0.0775 L 15.4928,292.90941 c -0.02062,-0.0206 -0.05248,-0.0244 -0.07746,-0.009 l -0.365458,0.22989 c -0.05497,-0.0281 -0.111197,-0.0512 -0.169294,-0.0693 l -0.09746,-0.42231 c -0.0062,-0.0288 -0.03186,-0.0487 -0.0606,-0.0487 H 14.38326 c -0.02874,0 -0.05435,0.02 -0.0606,0.0487 l -0.09683,0.42231 c -0.05747,0.0181 -0.114319,0.0412 -0.169294,0.0693 l -0.366083,-0.22989 c -0.02436,-0.0156 -0.05685,-0.0119 -0.07746,0.009 l -0.239887,0.24051 c -0.02062,0.0206 -0.02437,0.0531 -0.0088,0.0775 l 0.226145,0.35983 c -0.02936,0.0569 -0.05497,0.1162 -0.07497,0.1768 l -0.412933,0.0937 c -0.02811,0.006 -0.04873,0.0319 -0.04873,0.0606 v 0.3411 c 0,0.0293 0.02062,0.0543 0.04873,0.0606 l 0.40294,0.0918 c 0.01999,0.0675 0.0456,0.13182 0.07746,0.19241 l -0.218649,0.34734 c -0.01562,0.0244 -0.01187,0.0569 0.0088,0.0775 l 0.239887,0.23989 c 0.02061,0.0206 0.0531,0.0237 0.07746,0.009 l 0.340468,-0.21428 c 0.06434,0.0344 0.132438,0.0631 0.203031,0.0843 l 0.08871,0.39231 c 0.0062,0.0288 0.03185,0.0487 0.0606,0.0487 h 0.339217 c 0.02874,0 0.05435,-0.02 0.0606,-0.0487 l 0.08996,-0.39231 c 0.07059,-0.0219 0.138058,-0.0499 0.20178,-0.0843 l 0.340468,0.21428 c 0.02498,0.015 0.05684,0.0119 0.07746,-0.009 l 0.241137,-0.23989 c 0.02062,-0.0206 0.02437,-0.0531 0.0087,-0.0775 l -0.21865,-0.3461 c 0.03124,-0.0606 0.05747,-0.12556 0.07746,-0.19366 l 0.40294,-0.0918 c 0.02811,-0.006 0.0481,-0.0312 0.0481,-0.0606 z m -1.498056,0.93769 c -0.423552,0 -0.767768,-0.34422 -0.767768,-0.76715 0,-0.4223 0.344216,-0.76589 0.767768,-0.76589 0.422305,0 0.765895,0.34359 0.765895,0.76589 0,0.42293 -0.34359,0.76715 -0.765895,0.76715 z"
         id="path2-5-7-2"
         style="fill:#ff7f2a;fill-opacity:1;stroke-width:0.062471" />
    </g>
  </g>
</svg>
