<?xml version="1.0" encoding="UTF-8" standalone="no"?>
<svg
   width="32"
   height="32"
   version="1.1"
   id="svg22"
   sodipodi:docname="view.svg"
   inkscape:version="1.1.1 (3bf5ae0d25, 2021-09-20)"
   xmlns:inkscape="http://www.inkscape.org/namespaces/inkscape"
   xmlns:sodipodi="http://sodipodi.sourceforge.net/DTD/sodipodi-0.dtd"
   xmlns:xlink="http://www.w3.org/1999/xlink"
   xmlns="http://www.w3.org/2000/svg"
   xmlns:svg="http://www.w3.org/2000/svg"
   xmlns:rdf="http://www.w3.org/1999/02/22-rdf-syntax-ns#"
   xmlns:cc="http://creativecommons.org/ns#"
   xmlns:dc="http://purl.org/dc/elements/1.1/">
  <metadata
     id="metadata28">
    <rdf:RDF>
      <cc:Work
         rdf:about="">
        <dc:format>image/svg+xml</dc:format>
        <dc:type
           rdf:resource="http://purl.org/dc/dcmitype/StillImage" />
      </cc:Work>
    </rdf:RDF>
  </metadata>
  <defs
     id="defs26">
    <linearGradient
       inkscape:collect="always"
       id="linearGradient919">
      <stop
         style="stop-color:#cd87de;stop-opacity:1"
         offset="0"
         id="stop915" />
      <stop
         style="stop-color:#8585c7;stop-opacity:1"
         offset="1"
         id="stop917" />
    </linearGradient>
    <linearGradient
       inkscape:collect="always"
       xlink:href="#linearGradient944"
       id="linearGradient946"
       x1="27.38007"
       y1="16.00507"
       x2="28.994915"
       y2="16.00507"
       gradientUnits="userSpaceOnUse" />
    <linearGradient
       inkscape:collect="always"
       id="linearGradient944">
      <stop
         style="stop-color:#e6e6e6;stop-opacity:1;"
         offset="0"
         id="stop940" />
      <stop
         style="stop-color:#ffccaa;stop-opacity:1"
         offset="1"
         id="stop942" />
    </linearGradient>
    <linearGradient
       inkscape:collect="always"
       xlink:href="#linearGradient919"
       id="linearGradient1155"
       gradientUnits="userSpaceOnUse"
       x1="3"
       y1="16"
       x2="29"
       y2="16"
       gradientTransform="rotate(90,16,16)" />
    <linearGradient
       inkscape:collect="always"
       xlink:href="#linearGradient919"
       id="linearGradient1153"
       x1="18.7031"
       y1="23.341211"
       x2="28.94301"
       y2="23.341211"
       gradientUnits="userSpaceOnUse"
       gradientTransform="rotate(90,16.103739,15.661191)" />
    <linearGradient
       inkscape:collect="always"
       xlink:href="#linearGradient944"
       id="linearGradient984"
       gradientUnits="userSpaceOnUse"
       x1="27.38007"
       y1="16.00507"
       x2="28.994915"
       y2="16.00507"
       gradientTransform="matrix(0.69230779,0,0,0.69230779,9.9230779,31.923077)" />
    <linearGradient
       inkscape:collect="always"
       xlink:href="#linearGradient919"
       id="linearGradient986"
       gradientUnits="userSpaceOnUse"
       gradientTransform="matrix(0,0.69230779,-0.69230779,0,32.076928,31.923077)"
       x1="3"
       y1="16"
       x2="29"
       y2="16" />
    <linearGradient
       inkscape:collect="always"
       xlink:href="#linearGradient919"
       id="linearGradient988"
       gradientUnits="userSpaceOnUse"
       gradientTransform="matrix(0,0.69230779,-0.69230779,0,31.914192,31.616698)"
       x1="18.7031"
       y1="23.341211"
       x2="28.94301"
       y2="23.341211" />
    <linearGradient
       inkscape:collect="always"
       xlink:href="#linearGradient919"
       id="linearGradient868"
       x1="15.365817"
       y1="13.996246"
       x2="21.866287"
       y2="13.996246"
       gradientUnits="userSpaceOnUse" />
    <linearGradient
       inkscape:collect="always"
       xlink:href="#linearGradient919"
       id="linearGradient876"
       x1="20.560942"
       y1="41.612789"
       x2="25.061277"
       y2="41.612789"
       gradientUnits="userSpaceOnUse" />
    <linearGradient
       inkscape:collect="always"
       xlink:href="#linearGradient919"
       id="linearGradient884"
       x1="26"
       y1="16"
       x2="50"
       y2="16"
       gradientUnits="userSpaceOnUse" />
    <linearGradient
       inkscape:collect="always"
       xlink:href="#linearGradient919"
       id="linearGradient892"
       x1="3"
       y1="21"
       x2="19"
       y2="21"
       gradientUnits="userSpaceOnUse"
       gradientTransform="matrix(1.1250002,0,0,1.1250002,-1.375,-2.6250002)" />
  </defs>
  <sodipodi:namedview
     pagecolor="#ffffff"
     bordercolor="#000000"
     borderopacity="1"
     objecttolerance="10"
     gridtolerance="10"
     guidetolerance="10"
     inkscape:pageopacity="0"
     inkscape:pageshadow="2"
     inkscape:window-width="1920"
     inkscape:window-height="1013"
     id="namedview24"
     showgrid="false"
     inkscape:zoom="5.0461711"
     inkscape:cx="24.176747"
     inkscape:cy="14.070074"
     inkscape:window-x="0"
     inkscape:window-y="0"
     inkscape:window-maximized="1"
     inkscape:current-layer="svg22"
     inkscape:document-rotation="0"
     inkscape:showpageshadow="false"
     inkscape:lockguides="false"
     inkscape:pagecheckerboard="0">
    <inkscape:grid
       type="xygrid"
       id="grid911"
       originx="0"
       originy="0" />
  </sodipodi:namedview>
  <g
     id="22-22-view-refresh"
     transform="translate(64)">
    <path
       style="opacity:0.00100002"
       d="M 22,32 H 0 V 10 h 22 z"
       id="path2" />
    <path
       style="opacity:1;fill:url(#linearGradient892);fill-opacity:1.0;stroke-width:1.125"
       d="m 20,21 c 0,-1.62192 -0.415339,-3.15331 -1.16015,-4.46485 l -0.84376,0.84376 C 18.555644,18.46217 18.875,19.69218 18.875,21 c 0,4.269891 -3.367104,7.716648 -7.600339,7.861821 0.547143,-0.616714 0.84961,-1.412387 0.850339,-2.236821 0,-1.863954 -1.511046,-3.375 -3.375,-3.375 -1.86396,0 -3.375,1.511046 -3.375,3.375 C 5.375,28.488954 6.88604,30 8.75,30 H 11 c 4.985966,0 9,-4.014 9,-9 z M 16.625,15.375 C 16.625,13.511046 15.113954,12 13.25,12 H 11 c -4.985962,0 -9,4.014 -9,9 0,1.62192 0.415349,3.15331 1.160156,4.46485 l 0.84375,-0.84376 C 3.44436,23.53783 3.125,22.30782 3.125,21 c 0,-4.269891 3.367106,-7.716648 7.600339,-7.861821 -0.547143,0.616714 -0.84961,1.412387 -0.850339,2.236821 0,1.863954 1.511046,3.375 3.375,3.375 1.863954,0 3.375,-1.511046 3.375,-3.375 z"
       id="path4" />
  </g>
  <g
     id="view-refresh"
     transform="translate(10)">
    <path
       style="opacity:0.00100002"
       d="M 54,32 H 22 V 0 h 32 z"
       id="path7" />
    <path
       style="opacity:1;fill:url(#linearGradient884);fill-opacity:1.0"
       d="m 26,16 c 0.0046,2.140821 0.581863,4.241429 1.671875,6.083984 l 0.732422,-0.732422 C 27.487898,19.716487 27.0045,17.874364 27,16 27,10.041548 31.740547,5.201755 37.654297,5.017578 36.608346,5.871419 36.001064,7.149794 36,8.5 36,10.985281 38.014719,13 40.5,13 42.985281,13 45,10.985281 45,8.5 45,6.014719 42.985281,4 40.5,4 H 38 C 31.372583,4 26,9.372583 26,16 Z m 5,7.5 c 0,2.485281 2.014719,4.5 4.5,4.5 H 38 c 6.627417,0 12,-5.372583 12,-12 -0.0046,-2.140821 -0.581863,-4.241429 -1.671875,-6.083984 l -0.732422,0.732422 C 48.512102,12.283513 48.9955,14.125636 49,16 49,21.958452 44.259453,26.798245 38.345703,26.982422 39.391654,26.128581 39.998936,24.850206 40,23.5 40,21.014719 37.985281,19 35.5,19 33.014719,19 31,21.014719 31,23.5 Z"
       id="path9" />
  </g>
  <g
     id="view-history">
    <path
       style="opacity:0.00100002"
       d="M 0,0 V 32 H 32 V 0 Z"
       id="path17" />
    <path
       d="m 21.052498,20.496246 c -0.15436,0 -0.311181,-0.04474 -0.450128,-0.1365 l -4.875,-3.25 c -0.225873,-0.151128 -0.361553,-0.404628 -0.361553,-0.676 v -8.125 c 0,-0.4485 0.364,-0.8125 0.8125,-0.8125 0.4485,0 0.8125,0.364 0.8125,0.8125 v 7.69032 l 4.513451,3.00868 c 0.37373,0.249447 0.4745,0.75318 0.22505,1.126947 -0.156,0.234803 -0.41437,0.361553 -0.67682,0.361553 z"
       id="path12-3"
       style="fill:url(#linearGradient868);fill-opacity:1.0;stroke-width:0.8125" />
    <path
       d="m 27.380068,16.00507 c 0,-0.220184 0.0894,-0.423299 0.23563,-0.576871 0.15437,-0.147055 0.36563,-0.235628 0.57687,-0.235628 0.21126,0 0.4225,0.08859 0.57688,0.235628 0.30062,0.291687 0.30062,0.845 0,1.153755 -0.15438,0.146245 -0.36562,0.235616 -0.57688,0.235616 -0.21124,0 -0.4225,-0.0894 -0.57687,-0.235616 -0.14625,-0.154384 -0.23563,-0.365624 -0.23563,-0.576884 z"
       id="path8-6"
       style="fill:url(#linearGradient946);fill-opacity:1;stroke-width:0.8125" />
    <path
       d="m 16,3 c 7.167878,0 12.999998,5.83212 12.999998,13 0,7.16787 -5.83212,13 -12.999998,13 -0.4485,0 -0.8125,-0.364 -0.8125,-0.8125 0,-0.4485 0.364,-0.8125 0.8125,-0.8125 6.272498,0 11.374998,-5.1025 11.374998,-11.375 C 27.374998,9.7275 22.272498,4.625 16,4.625 9.7275001,4.625 4.625,9.7275 4.625,16 c 0,0.4485 -0.363183,0.8125 -0.8125,0.8125 C 3.363183,16.8125 3,16.4485 3,16 3,8.83212 8.8321241,3 16,3 Z"
       id="path2-0"
       style="fill:url(#linearGradient1155);fill-opacity:1;stroke-width:0.8125" />
    <path
       d="m 15.19257,3.817578 c 0,-0.21125 0.0894,-0.4225 0.23563,-0.576875 0.15437,-0.14625 0.36563,-0.235625 0.57687,-0.235625 0.21126,0 0.4225,0.08938 0.57688,0.235625 0.30062,0.30875 0.30062,0.845 0,1.15375 -0.15438,0.14625 -0.36562,0.235625 -0.57688,0.235625 -0.21124,0 -0.4225,-0.08937 -0.57687,-0.235625 C 15.28195,4.240078 15.19257,4.028828 15.19257,3.817578 Z"
       id="path4-6"
       style="fill:#cd87de;fill-opacity:1;stroke-width:0.8125" />
    <path
       d="m 4.905597,18.861861 c 0.113745,0.43062 -0.147068,0.8775 -0.576885,0.99124 v 0 c -0.438739,0.12188 -0.877501,-0.13812 -0.99937,-0.56874 v 0 c -0.113746,-0.43876 0.146255,-0.8775 0.57687,-0.99938 v 0 c 0.07317,-0.0163 0.13813,-0.0244 0.211261,-0.0244 v 0 c 0.3575,0 0.690624,0.23562 0.788124,0.60125 z m 1.1375,2.73812 h -0.0084 c 0.2275,0.39 0.09749,0.88562 -0.2925,1.11312 v 0 c -0.39,0.2275 -0.885624,0.0894 -1.112315,-0.30062 v 0 c -0.220185,-0.38188 -0.0894,-0.88562 0.299815,-1.105 v 0 c 0.13,-0.0732 0.268124,-0.11375 0.406248,-0.11375 v 0 c 0.277063,0 0.5525,0.14625 0.706877,0.40625 z m 1.8045561,2.35625 c 0.316876,0.31687 0.316876,0.82875 0,1.14563 v 0 c -0.31768,0.31687 -0.8295561,0.31687 -1.1456241,0 v 0 c 0,0 0,0 -0.0084,0 v 0 c -0.309539,-0.31688 -0.309539,-0.82876 0.0074,-1.14563 v 0 c 0.153567,-0.1625 0.365633,-0.23563 0.568758,-0.23563 v 0 c 0.2112431,0 0.4225001,0.0732 0.5776841,0.23563 z m 2.3554439,1.81187 c 0.39,0.21938 0.520817,0.72313 0.2925,1.105 v 0 c -0.219385,0.39 -0.7149999,0.52 -1.1049999,0.30063 v 0 0 0 c -0.389183,-0.2275 -0.52,-0.72313 -0.300624,-1.11313 v 0 c 0.154369,-0.26 0.423311,-0.40624 0.706869,-0.40624 v 0 c 0.1381313,0 0.2762549,0.0406 0.4062549,0.11374 z m 2.738115,1.12938 v 0 c 0.43063,0.12188 0.690629,0.56875 0.576885,0.99938 v 0 c -0.113755,0.43062 -0.559813,0.69062 -0.991255,0.57687 v 0 c 0,0 0,0 -0.0084,0 v 0 c -0.430625,-0.12187 -0.683311,-0.56062 -0.568751,-0.99937 v 0 c 0.09767,-0.3575 0.422676,-0.60126 0.780177,-0.60126 v 0 c 0.07317,0 0.146255,0.008 0.211255,0.0244 z"
       id="path6-2"
       style="fill:url(#linearGradient1153);fill-opacity:1.0;stroke-width:0.8125" />
  </g>
  <g
     id="22-22-view-history"
     transform="translate(-32,-22)">
    <path
       style="opacity:0.00100002"
       d="M 10,32 V 54 H 32 V 32 Z"
       id="path12" />
    <path
       d="m 24.49788,46.112791 c -0.106862,0 -0.215434,-0.03106 -0.311607,-0.0945 l -3.375,-2.25 c -0.156395,-0.104643 -0.250332,-0.280143 -0.250332,-0.46801 v -5.624996 c 0,-0.3105 0.251998,-0.5625 0.562498,-0.5625 0.3105,0 0.5625,0.252 0.5625,0.5625 v 5.324086 l 3.124714,2.08292 c 0.258727,0.172685 0.3285,0.521435 0.155794,0.780184 -0.108,0.162562 -0.286859,0.250316 -0.468567,0.250316 z"
       id="path12-3-5"
       style="fill:url(#linearGradient876);fill-opacity:1.0;stroke-width:0.5625" />
    <path
       d="m 28.878513,43.003513 c 0,-0.152445 0.06198,-0.293042 0.163124,-0.399379 0.106876,-0.101796 0.253131,-0.163123 0.399376,-0.163123 0.146255,0 0.2925,0.06137 0.39938,0.163123 0.208119,0.201935 0.208119,0.585002 0,0.798765 -0.10688,0.101238 -0.253125,0.163114 -0.39938,0.163114 -0.146245,0 -0.2925,-0.06195 -0.399376,-0.163114 -0.101244,-0.106886 -0.163124,-0.253128 -0.163124,-0.399386 z"
       id="path8-6-6"
       style="fill:url(#linearGradient984);fill-opacity:1;stroke-width:0.5625" />
    <path
       d="m 21,34 c 4.962377,0 9,4.037623 9,9.000001 C 30,47.962372 25.962377,52 21,52 20.6895,52 20.437501,51.748 20.437501,51.4375 20.437501,51.127 20.6895,50.875 21,50.875 c 4.342498,0 7.874998,-3.5325 7.874998,-7.874999 0,-4.3425 -3.5325,-7.875001 -7.874998,-7.875001 -4.342499,0 -7.875,3.532501 -7.875,7.875001 0,0.3105 -0.251428,0.5625 -0.5625,0.5625 -0.311072,0 -0.5625,-0.252 -0.5625,-0.5625 C 12,38.037623 16.037628,34 21,34 Z"
       id="path2-0-2"
       style="fill:url(#linearGradient986);fill-opacity:1.0;stroke-width:0.5625" />
    <path
       d="m 20.441011,34.566016 c 0,-0.14625 0.06195,-0.2925 0.163123,-0.399376 0.106878,-0.10125 0.253136,-0.163124 0.399379,-0.163124 0.146257,0 0.2925,0.06187 0.399382,0.163124 0.208118,0.21375 0.208118,0.585 0,0.79875 -0.106882,0.10125 -0.253125,0.163126 -0.399382,0.163126 -0.146243,0 -0.292501,-0.06186 -0.399379,-0.163126 -0.10124,-0.106874 -0.163123,-0.253124 -0.163123,-0.399374 z"
       id="path4-6-9"
       style="fill:#cd87de;fill-opacity:1;stroke-width:0.5625" />
    <path
       d="m 13.319268,44.9813 c 0.07872,0.298127 -0.101837,0.6075 -0.399378,0.686224 v 0 C 12.616134,45.751894 12.312389,45.571914 12.228,45.2738 v 0 c -0.07871,-0.303777 0.101267,-0.607501 0.39939,-0.691874 v 0 c 0.05072,-0.01135 0.09561,-0.01704 0.146244,-0.01704 v 0 c 0.2475,0 0.478134,0.16312 0.545634,0.416244 z m 0.7875,1.895627 h -0.0064 c 0.1575,0.27 0.06748,0.613097 -0.2025,0.770596 v 0 c -0.270004,0.1575 -0.613128,0.06202 -0.770066,-0.208096 v 0 c -0.152442,-0.264403 -0.062,-0.613128 0.207558,-0.765 v 0 c 0.09,-0.0508 0.185624,-0.0787 0.28125,-0.0787 v 0 c 0.191811,0 0.3825,0.101256 0.489375,0.281256 z m 1.249292,1.631231 c 0.219372,0.219365 0.219372,0.573768 0,0.793141 v 0 c -0.219926,0.219359 -0.574292,0.219359 -0.793128,0 v 0 c 0,0 0,0 -0.0064,0 v 0 c -0.214308,-0.219373 -0.214308,-0.573776 0.0056,-0.793141 v 0 c 0.106311,-0.1125 0.253118,-0.163135 0.393752,-0.163135 v 0 c 0.146238,0 0.2925,0.05078 0.399933,0.163135 z m 1.630709,1.254365 c 0.27,0.151903 0.360566,0.500635 0.2025,0.765 v 0 c -0.151878,0.27 -0.495,0.36 -0.765,0.208135 v 0 0 0 c -0.269434,-0.1575 -0.360001,-0.500635 -0.208135,-0.770635 v 0 c 0.106867,-0.18 0.293069,-0.281224 0.489368,-0.281224 v 0 c 0.09563,0 0.191267,0.02798 0.281267,0.07866 z m 1.895622,0.781903 v 0 c 0.298111,0.08434 0.47811,0.393732 0.399378,0.691873 v 0 c -0.07874,0.298127 -0.387566,0.478127 -0.686267,0.399359 v 0 c 0,0 0,0 -0.0064,0 v 0 c -0.298166,-0.08435 -0.473105,-0.388125 -0.393795,-0.691859 v 0 c 0.06755,-0.247499 0.292621,-0.416276 0.540122,-0.416276 v 0 c 0.05072,0 0.101255,0.0065 0.146255,0.01703 z"
       id="path6-2-1"
       style="fill:url(#linearGradient988);fill-opacity:1.0;stroke-width:0.5625" />
  </g>
</svg>
