<?xml version="1.0" encoding="UTF-8" standalone="no"?>
<svg
   xmlns:dc="http://purl.org/dc/elements/1.1/"
   xmlns:cc="http://creativecommons.org/ns#"
   xmlns:rdf="http://www.w3.org/1999/02/22-rdf-syntax-ns#"
   xmlns:svg="http://www.w3.org/2000/svg"
   xmlns="http://www.w3.org/2000/svg"
   xmlns:sodipodi="http://sodipodi.sourceforge.net/DTD/sodipodi-0.dtd"
   xmlns:inkscape="http://www.inkscape.org/namespaces/inkscape"
   width="32"
   height="32"
   version="1.1"
   id="svg12"
   sodipodi:docname="vlc.svg"
   inkscape:version="1.0.2 (e86c870879, 2021-01-15)">
  <metadata
     id="metadata18">
    <rdf:RDF>
      <cc:Work
         rdf:about="">
        <dc:format>image/svg+xml</dc:format>
        <dc:type
           rdf:resource="http://purl.org/dc/dcmitype/StillImage" />
        <dc:title />
      </cc:Work>
    </rdf:RDF>
  </metadata>
  <defs
     id="defs16">
    <linearGradient
       id="l4k1"
       x1="0"
       x2="0"
       y1="0"
       y2="1">
      <stop
         offset="0%"
         style="stop-color:#303b3d; stop-opacity:1"
         id="stop18" />
      <stop
         offset="100%"
         style="stop-color:#bc985d; stop-opacity:1"
         id="stop20" />
    </linearGradient>
  </defs>
  <sodipodi:namedview
     pagecolor="#ffffff"
     bordercolor="#000000"
     borderopacity="1"
     objecttolerance="10"
     gridtolerance="10"
     guidetolerance="10"
     inkscape:pageopacity="0"
     inkscape:pageshadow="2"
     inkscape:window-width="1920"
     inkscape:window-height="1007"
     id="namedview14"
     showgrid="false"
     inkscape:zoom="9.8125003"
     inkscape:cx="26.93823"
     inkscape:cy="18.436497"
     inkscape:window-x="0"
     inkscape:window-y="0"
     inkscape:window-maximized="1"
     inkscape:current-layer="svg12"
     inkscape:lockguides="false"
     inkscape:document-rotation="0"
     inkscape:showpageshadow="false"
     showguides="false">
    <inkscape:grid
       type="xygrid"
       id="grid868"
       originx="0"
       originy="0" />
  </sodipodi:namedview>
  <g
     id="vlc">
    <rect
       style="opacity:0.00100002"
       width="32"
       height="32"
       x="0"
       y="0"
       id="rect7" />
    <path
       style="fill:#eff0f1;fill-opacity:1;stroke-width:1.59934"
       class="ColorScheme-Text"
       d="m 7.6831056,18.466426 c -0.3595013,0 -0.6497325,0.32726 -0.6497325,0.734073 l -2.4333732,8.06543 c 0,0.406811 0.2902313,0.734072 0.6497326,0.734072 H 26.822101 c 0.359502,0 0.649732,-0.327261 0.649732,-0.734072 l -2.27094,-8.06543 c 0,-0.406813 -0.290232,-0.734073 -0.649732,-0.734073 h -2.349033 c 0.243188,0.672358 -0.338459,1.207173 -0.306125,1.315083 -0.943624,1.037853 -3.28083,1.764899 -5.856963,1.764899 -2.683471,0 -4.973015,-0.785587 -5.844469,-1.892971 0.06253,-0.197312 -0.4594975,-0.670579 -0.2553444,-1.187011 z m 2.5114654,1.187011 c 0.358965,0.455354 0.491079,0.507006 0.537279,0.577038 0.131417,0.199195 2.276602,0.957347 2.627044,1.106744 0.350441,0.149395 3.89508,0.244687 4.727378,0.14714 0.832299,-0.09754 2.761809,-0.864337 2.761809,-0.864337 l 1.047824,-0.838513 0.796647,1.202624 c 0.0072,0.01024 0.0086,0.02092 0.01567,0.03123 0.190403,0.282907 0.306124,0.579764 0.306124,0.890257 0,1.716391 -3.122379,3.098724 -6.978377,3.098724 -3.855997,0 -6.9783763,-1.382333 -6.9783763,-3.098724 -2e-7,-0.341627 0.1273204,-0.664005 0.3561033,-0.971475 0,0 0.691641,-1.010707 0.780872,-1.280713 z"
       id="path58"
       sodipodi:nodetypes="sccssccsccsccsccsscccsssscc" />
    <path
       style="fill:#aeaed0;fill-opacity:1;stroke-width:1.59934"
       class="ColorScheme-Text"
       d="m 16.082772,4.0005073 c -0.336823,0.00689 -0.666886,0.086352 -1.018331,0.2311548 -0.181753,0.074886 -0.323013,0.2463093 -0.374845,0.4185777 C 13.12196,9.860459 9.413643,19.665933 9.413643,19.665933 c -0.2287821,0.270463 -0.3561033,0.54914 -0.3561033,0.84965 0,1.509811 3.1223793,2.727002 6.9783763,2.727002 3.855998,0 6.978377,-1.217191 6.978377,-2.727002 0,-0.273124 -0.115713,-0.528947 -0.306124,-0.777804 -0.0069,-0.0091 -0.0085,-0.01908 -0.01567,-0.02812 0,0 -3.619558,-10.1400033 -5.126014,-15.1468878 C 17.515856,4.39432 17.321861,4.2687958 17.141711,4.200425 16.763525,4.0568947 16.419595,3.9936125 16.082772,4.0005073 Z M 14.986,6.9305509 c 0.56313,0.099044 0.419287,0.1561858 1.049916,0.1561856 0.65198,0 0.676394,-0.050459 1.256084,-0.1561853 0.387351,1.4751778 1.068853,3.0696198 1.515,4.6824468 -0.892155,0.314635 -1.605806,0.502918 -2.771084,0.502918 -1.15184,0 -1.710875,-0.179966 -2.595916,-0.487299 0.461785,-1.605442 1.14706,-3.2068173 1.546,-4.6980661 z m -2.883,8.5621001 c 1.133582,0.563976 2.142782,0.915248 3.93604,0.915248 1.759743,0 2.972723,-0.340842 4.10396,-0.884011 0.609943,2.076452 1.482349,4.02185 1.553,4.257621 -0.943626,1.037853 -3.080827,1.764899 -5.65696,1.764899 -2.683471,0 -4.672586,-0.785587 -5.54404,-1.892971 0.152747,-0.482036 0.941921,-1.994242 1.608,-4.160786 z"
       id="path60"
       sodipodi:nodetypes="csccssscccsccsccscccsccscc" />
  </g>
  <g
     id="22-22-vlc"
     transform="translate(32,10)">
    <rect
       style="opacity:0.00100002"
       width="22"
       height="22"
       x="0"
       y="0"
       id="rect2" />
    <path
       style="fill:#eff0f1;fill-opacity:1;stroke-width:1.06632"
       class="ColorScheme-Text"
       d="m 5.455404,12.644277 c -0.239662,0 -0.433151,0.218174 -0.433151,0.489383 L 3.4,18.510615 c 0,0.271208 0.193489,0.489381 0.433161,0.489381 h 14.381586 c 0.239662,0 0.43315,-0.218173 0.43315,-0.489381 L 17.133939,13.13366 c 0,-0.271209 -0.193499,-0.489383 -0.433166,-0.489383 h -1.566011 c 0.16212,0.448239 -0.225647,0.804783 -0.204091,0.876722 -0.629087,0.691903 -2.187229,1.176601 -3.904644,1.176601 -1.788986,0 -3.315347,-0.523725 -3.896311,-1.261981 0.04173,-0.131541 -0.306325,-0.447054 -0.170236,-0.791342 z m 1.674312,0.791342 c 0.239317,0.303569 0.327377,0.338003 0.358191,0.384691 0.08759,0.132798 1.517735,0.638233 1.751366,0.73783 0.233611,0.0996 2.596706,0.163125 3.151573,0.09809 0.554872,-0.06503 1.841217,-0.576225 1.841217,-0.576225 l 0.698544,-0.559009 0.531094,0.801751 c 0.005,0.0068 0.0064,0.01395 0.01049,0.02082 0.126939,0.188604 0.20408,0.386509 0.20408,0.593504 0,1.144261 -2.081592,2.065817 -4.652254,2.065817 -2.570662,0 -4.652246,-0.921556 -4.652246,-2.065817 -1e-6,-0.227751 0.08489,-0.44267 0.237405,-0.647649 0,0 0.461086,-0.673806 0.520569,-0.85381 z"
       id="path58-3"
       sodipodi:nodetypes="sccssccsccsccsccsscccsssscc" />
    <path
       style="fill:#aeaed0;fill-opacity:1;stroke-width:1.06632"
       class="ColorScheme-Text"
       d="m 11.055177,3.0003354 c -0.224536,0.0047 -0.444579,0.05755 -0.678885,0.154101 -0.121171,0.04995 -0.21534,0.164201 -0.249893,0.27905 C 9.081313,6.9069574 6.609091,13.44395 6.609091,13.44395 c -0.152525,0.180308 -0.23739,0.366092 -0.23739,0.566433 0,1.00654 2.08158,1.818002 4.652242,1.818002 2.570673,0 4.65226,-0.811462 4.65226,-1.818002 0,-0.182083 -0.07719,-0.352632 -0.204085,-0.518537 -0.0047,-0.006 -0.0063,-0.01272 -0.01042,-0.01875 0,0 -2.413033,-6.7600056 -3.417333,-10.0979326 -0.03383,-0.112294 -0.163097,-0.195978 -0.283188,-0.241547 -0.252121,-0.09568 -0.481405,-0.137872 -0.705961,-0.133279 z m -0.731174,1.953349 c 0.375426,0.06605 0.279528,0.104139 0.69994,0.104139 0.434659,0 0.450932,-0.03366 0.837396,-0.104139 0.258232,0.983464 0.712559,2.04642 1.009993,3.121638 -0.594771,0.209756 -1.070533,0.335283 -1.847389,0.335283 -0.767888,0 -1.140579,-0.119975 -1.730604,-0.324872 0.307862,-1.070296 0.764701,-2.13787 1.030664,-3.132049 z M 8.402001,10.66176 c 0.755719,0.375985 1.428519,0.610165 2.624026,0.610165 1.173161,0 1.981821,-0.227228 2.735974,-0.589341 0.406627,1.384302 0.988233,2.681235 1.035341,2.838415 -0.629097,0.691903 -2.0539,1.176601 -3.771315,1.176601 -1.788986,0 -3.115066,-0.523725 -3.696026,-1.261981 0.101828,-0.321359 0.627953,-1.329496 1.072,-2.773859 z"
       id="path60-6"
       sodipodi:nodetypes="csccssscccsccsccscccsccscc" />
  </g>
</svg>
