<?xml version="1.0" encoding="UTF-8" standalone="no"?>
<svg
   inkscape:version="1.1.1 (3bf5ae0d25, 2021-09-20)"
   sodipodi:docname="window.svg"
   viewBox="0 0 32 32"
   version="1.1"
   height="32"
   width="32"
   id="svg"
   xmlns:inkscape="http://www.inkscape.org/namespaces/inkscape"
   xmlns:sodipodi="http://sodipodi.sourceforge.net/DTD/sodipodi-0.dtd"
   xmlns:xlink="http://www.w3.org/1999/xlink"
   xmlns="http://www.w3.org/2000/svg"
   xmlns:svg="http://www.w3.org/2000/svg"
   xmlns:rdf="http://www.w3.org/1999/02/22-rdf-syntax-ns#"
   xmlns:cc="http://creativecommons.org/ns#"
   xmlns:dc="http://purl.org/dc/elements/1.1/">
  <metadata
     id="metadata60">
    <rdf:RDF>
      <cc:Work
         rdf:about="">
        <dc:format>image/svg+xml</dc:format>
        <dc:type
           rdf:resource="http://purl.org/dc/dcmitype/StillImage" />
      </cc:Work>
    </rdf:RDF>
  </metadata>
  <sodipodi:namedview
     inkscape:document-rotation="0"
     inkscape:lockguides="false"
     inkscape:current-layer="svg"
     inkscape:window-maximized="1"
     inkscape:window-y="0"
     inkscape:window-x="0"
     inkscape:cy="5.4999997"
     inkscape:cx="46.749998"
     inkscape:zoom="8.0000004"
     showgrid="false"
     id="namedview58"
     inkscape:window-height="1013"
     inkscape:window-width="1920"
     inkscape:pageshadow="2"
     inkscape:pageopacity="0"
     guidetolerance="10"
     gridtolerance="10"
     objecttolerance="10"
     borderopacity="1"
     bordercolor="#000000"
     pagecolor="#ffffff"
     inkscape:showpageshadow="false"
     inkscape:pagecheckerboard="0">
    <inkscape:grid
       id="grid863"
       type="xygrid"
       originx="-1e-06"
       originy="-2e-06" />
  </sodipodi:namedview>
  <defs
     id="defs4">
    <linearGradient
       inkscape:collect="always"
       id="linearGradient877">
      <stop
         style="stop-color:#ae81ff;stop-opacity:1"
         offset="0"
         id="stop873" />
      <stop
         style="stop-color:#ae81ff;stop-opacity:0"
         offset="1"
         id="stop875" />
    </linearGradient>
    <linearGradient
       id="linearGradient5606"
       inkscape:swatch="solid">
      <stop
         style="stop-color:#000000"
         offset="0"
         id="stop5608" />
    </linearGradient>
    <radialGradient
       inkscape:collect="always"
       xlink:href="#linearGradient877"
       id="radialGradient870"
       cx="-25.925686"
       cy="40.785618"
       fx="-25.925686"
       fy="40.785618"
       r="3.0391901"
       gradientUnits="userSpaceOnUse"
       gradientTransform="matrix(2.2482041,-0.01094638,0.01101835,2.2817963,33.734815,-50.780726)" />
    <radialGradient
       inkscape:collect="always"
       xlink:href="#linearGradient877"
       id="radialGradient904"
       cx="-25.925695"
       cy="40.785618"
       fx="-25.925695"
       fy="40.785618"
       r="2.7352686"
       gradientUnits="userSpaceOnUse"
       gradientTransform="matrix(2.4980059,-0.01216334,0.01224317,2.5353322,40.161177,-61.152868)" />
    <radialGradient
       inkscape:collect="always"
       xlink:href="#linearGradient877"
       id="radialGradient920"
       gradientUnits="userSpaceOnUse"
       cx="-25.857271"
       cy="40.998245"
       fx="-25.857271"
       fy="40.998245"
       r="3.0391901"
       gradientTransform="matrix(2.6807194,0,0,2.6875307,44.68411,-67.688337)" />
    <radialGradient
       inkscape:collect="always"
       xlink:href="#linearGradient877"
       id="radialGradient934"
       cx="-25.857271"
       cy="40.998245"
       fx="-25.857271"
       fy="40.998245"
       r="3.0391901"
       gradientUnits="userSpaceOnUse"
       gradientTransform="matrix(2.6807194,0,0,2.6875307,44.68411,-67.688337)" />
  </defs>
  <rect
     id="rect16"
     y="13.769998"
     x="-38.329987"
     height="22"
     width="22"
     style="fill:#cfd8dc;fill-opacity:0" />
  <g
     transform="translate(32,10)"
     id="22-22-window-close">
    <rect
       id="rect18"
       y="0"
       x="0"
       height="22"
       width="22"
       style="opacity:0.00100002" />
    <g
       id="g24"
       transform="matrix(1.7493122,0,0,1.7499488,-107.95048,-909.47286)"
       style="fill:#ffffff">
      <g
         id="g22"
         transform="translate(19,-242)"
         style="fill:#ffffff">
        <path
           id="path20"
           d="m 45.571203,764.57141 h 0.857142 c 0.0089,-1.1e-4 0.01782,-4e-4 0.02679,0 0.21853,0.01 0.437032,0.11021 0.589286,0.26785 l 1.955357,1.95536 1.982143,-1.95536 c 0.227678,-0.19757 0.382861,-0.26185 0.589285,-0.26785 h 0.857143 v 0.85714 c 0,0.24555 -0.02943,0.47199 -0.214285,0.64286 l -1.955357,1.95535 1.928571,1.92858 c 0.161304,0.16128 0.241064,0.38867 0.241071,0.61607 v 0.85714 h -0.857143 c -0.2274,-10e-6 -0.454788,-0.0798 -0.616071,-0.24107 l -1.955357,-1.95536 -1.955357,1.95536 c -0.161288,0.1613 -0.388684,0.24107 -0.616076,0.24107 h -0.857142 v -0.85714 c -3e-6,-0.22739 0.07977,-0.45479 0.241071,-0.61607 l 1.955357,-1.92858 -1.955357,-1.95535 c -0.180636,-0.16683 -0.259851,-0.40222 -0.241071,-0.64286 z"
           style="fill:#eff0f1;fill-opacity:1" />
      </g>
    </g>
  </g>
  <g
     transform="translate(54,31.999998)"
     id="16-16-window-close">
    <rect
       id="rect27"
       y="-16"
       x="0"
       height="16"
       width="16"
       style="opacity:0.00100002" />
    <g
       id="g33"
       transform="matrix(1.2495087,0,0,1.2499635,-76.964626,-665.48065)"
       style="fill:#ffffff">
      <g
         id="g31"
         transform="translate(19,-242)"
         style="fill:#ffffff">
        <path
           id="path29"
           d="m 45.799685,764.79997 h 0.8 c 0.0083,-10e-5 0.01663,-3.7e-4 0.025,0 0.203961,0.009 0.407896,0.10286 0.55,0.25 l 1.825,1.825 1.85,-1.825 c 0.2125,-0.1844 0.357337,-0.2444 0.55,-0.25 h 0.8 v 0.8 c 0,0.22918 -0.02747,0.44052 -0.2,0.6 l -1.825,1.825 1.8,1.8 c 0.15055,0.15054 0.224993,0.36276 0.225,0.575 v 0.8 h -0.8 c -0.212241,-10e-6 -0.424469,-0.0745 -0.575,-0.225 l -1.825,-1.825 -1.825,1.825 c -0.150531,0.15055 -0.362768,0.225 -0.575,0.225 h -0.8 v -0.8 c -3e-6,-0.21223 0.07445,-0.42446 0.225,-0.575 l 1.825,-1.8 -1.825,-1.825 c -0.168594,-0.1557 -0.242528,-0.3754 -0.225,-0.6 z"
           style="fill:#eff0f1;fill-opacity:1" />
      </g>
    </g>
  </g>
  <g
     id="window-close">
    <rect
       id="rect36"
       style="opacity:0.00100002"
       y="0"
       x="0"
       height="32"
       width="32" />
    <g
       id="g46"
       transform="matrix(1.7493122,0,0,1.7499488,-102.95048,-903.47286)"
       style="opacity:0.2">
      <g
         id="g44"
         transform="translate(19,-242)" />
    </g>
    <g
       id="g52"
       style="fill:#ffffff"
       transform="matrix(1.7493122,0,0,1.7499488,-102.95048,-904.47286)">
      <g
         id="g50"
         style="fill:#ffffff"
         transform="translate(19,-242)">
        <path
           id="path48"
           style="fill:#eff0f1;fill-opacity:1"
           d="m 45.571203,764.57141 h 0.857142 c 0.0089,-1.1e-4 0.01782,-4e-4 0.02679,0 0.21853,0.01 0.437032,0.11021 0.589286,0.26785 l 1.955357,1.95536 1.982143,-1.95536 c 0.227678,-0.19757 0.382861,-0.26185 0.589285,-0.26785 h 0.857143 v 0.85714 c 0,0.24555 -0.02943,0.47199 -0.214285,0.64286 l -1.955357,1.95535 1.928571,1.92858 c 0.161304,0.16128 0.241064,0.38867 0.241071,0.61607 v 0.85714 h -0.857143 c -0.2274,-10e-6 -0.454788,-0.0798 -0.616071,-0.24107 l -1.955357,-1.95536 -1.955357,1.95536 c -0.161288,0.1613 -0.388684,0.24107 -0.616076,0.24107 h -0.857142 v -0.85714 c -3e-6,-0.22739 0.07977,-0.45479 0.241071,-0.61607 l 1.955357,-1.92858 -1.955357,-1.95535 c -0.180636,-0.16683 -0.259851,-0.40222 -0.241071,-0.64286 z" />
      </g>
    </g>
  </g>
  <g
     transform="matrix(0.60115581,0,0,0.59905677,85.411335,14.134803)"
     id="window-pin">
    <g
       id="e"
       transform="matrix(1.1111111,0,0,1.1111111,10.755556,-20.722222)"
       inkscape:label=""
       style="fill:none;stroke:none">
      <circle
         r="4.5"
         cy="42.5"
         cx="-27.5"
         id="path4145"
         style="opacity:1;fill:none;fill-opacity:1;fill-rule:evenodd;stroke:none;stroke-width:1;stroke-linecap:round;stroke-linejoin:round;stroke-miterlimit:4;stroke-dasharray:none;stroke-dashoffset:0;stroke-opacity:1" />
    </g>
    <g
       id="e-5"
       transform="matrix(0.7125,0,0,0.7125,-1.3937488,-2.5937493)"
       inkscape:label="">
      <ellipse
         cy="42.567505"
         cx="-24.102049"
         id="path4145-9"
         style="opacity:1;fill:url(#radialGradient870);fill-opacity:1;fill-rule:evenodd;stroke:url(#radialGradient904);stroke-width:2.53026"
         rx="6.9062643"
         ry="6.9348974" />
    </g>
  </g>
  <g
     id="window-unpin"
     transform="matrix(0.60286117,0,0,0.60148606,92.920628,14.048189)">
    <g
       id="e-0"
       transform="matrix(1.1111111,0,0,1.1111111,10.755556,-20.722222)"
       inkscape:label=""
       style="fill:none;stroke:none">
      <circle
         r="4.5"
         cy="42.5"
         cx="-27.5"
         id="path4145-2"
         style="opacity:1;fill:none;fill-opacity:1;fill-rule:evenodd;stroke:none;stroke-width:1;stroke-linecap:round;stroke-linejoin:round;stroke-miterlimit:4;stroke-dasharray:none;stroke-dashoffset:0;stroke-opacity:1" />
    </g>
    <g
       id="e-5-5"
       transform="matrix(0.7125,0,0,0.7125,-1.3937488,-2.5937493)"
       inkscape:label="">
      <ellipse
         cy="42.49572"
         cx="-24.631992"
         id="path4145-9-6"
         style="opacity:1;fill:url(#radialGradient934);fill-opacity:1;fill-rule:evenodd;stroke:url(#radialGradient920);stroke-width:1.63157;stroke-linecap:round;stroke-linejoin:round;stroke-miterlimit:4;stroke-dasharray:none;stroke-dashoffset:0;stroke-opacity:1"
         rx="7.3324928"
         ry="7.3511229" />
    </g>
  </g>
</svg>
