<?xml version="1.0" encoding="UTF-8" standalone="no"?>
<svg
   sodipodi:docname="login.svg"
   inkscape:version="1.3.2 (091e20ef0f, 2023-11-25)"
   id="svg1699"
   version="1.1"
   viewBox="0 0 32 32"
   height="32"
   width="32"
   xmlns:inkscape="http://www.inkscape.org/namespaces/inkscape"
   xmlns:sodipodi="http://sodipodi.sourceforge.net/DTD/sodipodi-0.dtd"
   xmlns="http://www.w3.org/2000/svg"
   xmlns:svg="http://www.w3.org/2000/svg"
   xmlns:rdf="http://www.w3.org/1999/02/22-rdf-syntax-ns#"
   xmlns:cc="http://creativecommons.org/ns#"
   xmlns:dc="http://purl.org/dc/elements/1.1/">
  <defs
     id="defs1693" />
  <sodipodi:namedview
     inkscape:document-rotation="0"
     inkscape:window-maximized="1"
     inkscape:window-y="0"
     inkscape:window-x="0"
     inkscape:window-height="994"
     inkscape:window-width="1920"
     showgrid="true"
     inkscape:current-layer="layer1"
     inkscape:document-units="px"
     inkscape:cy="1.4285714"
     inkscape:cx="15.982143"
     inkscape:zoom="5.6"
     inkscape:pageshadow="2"
     inkscape:pageopacity="0"
     borderopacity="1"
     bordercolor="#ff1919"
     pagecolor="#000000"
     id="base"
     inkscape:pagecheckerboard="true"
     inkscape:showpageshadow="false"
     inkscape:deskcolor="#000000">
    <inkscape:grid
       type="xygrid"
       id="grid844"
       originx="22"
       originy="-53.000003"
       spacingy="1"
       spacingx="1"
       units="mm"
       visible="true" />
  </sodipodi:namedview>
  <metadata
     id="metadata1696">
    <rdf:RDF>
      <cc:Work
         rdf:about="">
        <dc:format>image/svg+xml</dc:format>
        <dc:type
           rdf:resource="http://purl.org/dc/dcmitype/StillImage" />
      </cc:Work>
    </rdf:RDF>
  </metadata>
  <g
     transform="translate(-76.729144,-134.91899)"
     id="layer1"
     inkscape:groupmode="layer"
     inkscape:label="Layer 1">
    <path
       style="color:#000000;overflow:visible;opacity:0;fill:none;fill-opacity:1;stroke-width:1.06667"
       id="path951-3"
       overflow="visible"
       d="m 92.729144,134.91899 c -8.82763,0 -16,7.17237 -16,16 0,8.82763 7.17237,16 16,16 8.827626,0 15.999996,-7.17237 15.999996,-16 0,-8.82763 -7.17237,-16 -15.999996,-16 z"
       inkscape:connector-curvature="0" />
    <path
       d="m 99.603994,144.5232 c -2.09e-4,0.0248 -0.002,0.0493 -0.006,0.0731 l -1.352262,8.79213 c -0.0588,0.38927 -0.536292,0.54493 -0.81308,0.26495 l -1.69075,-1.691 -5.409402,5.4111 c -0.560314,0.56005 -1.468582,0.56005 -2.028895,0 l -2.028139,-2.02961 c -0.560141,-0.56025 -0.560141,-1.46833 0,-2.02855 l 5.411359,-5.41071 -1.691215,-1.69043 c -0.279997,-0.27692 -0.124008,-0.75469 0.265512,-0.81298 l 8.793284,-1.35247 c 0.289585,-0.0448 0.550834,0.17954 0.550944,0.47252 z m -2.162312,7.787 1.11008,-7.2149 -7.213464,1.1118 7.213464,-1.1118 v 0 0 0 0 0 0 0 z"
       id="path8"
       style="fill:#b380ff;fill-opacity:1;stroke-width:0.478255"
       sodipodi:nodetypes="ccccccccccccccccccccccccccc" />
    <path
       d="m 82.11488,140.32499 c -5.895493,5.89939 -5.847254,15.52871 0.144699,21.367 5.581219,5.43819 14.575165,5.6605 20.400081,0.48464 5.10388,-4.53518 6.45833,-11.76079 3.58696,-17.72714 -0.34466,-0.71609 -1.24681,-0.96194 -1.92574,-0.54963 -0.60869,0.36992 -0.81439,1.13851 -0.50838,1.78185 2.36577,4.97482 1.15186,11.00499 -3.23006,14.68448 -4.444657,3.73231 -11.039144,3.79505 -15.550349,0.14366 -5.753477,-4.657 -6.083154,-13.15792 -0.988984,-18.25538 3.712516,-3.71504 9.287395,-4.63184 13.937319,-2.41313 0.63922,0.30499 1.403053,0.0944 1.770578,-0.51065 l 0.002,-0.003 c 0.410966,-0.67733 0.169096,-1.57826 -0.544186,-1.92239 -5.695763,-2.74766 -12.54118,-1.63564 -17.094459,2.92074 z"
       id="path1-0-9"
       style="fill:#b380ff;fill-opacity:1;stroke-width:0.54556" />
  </g>
</svg>
