<?xml version="1.0" encoding="UTF-8" standalone="no"?>
<svg
   width="48"
   height="48"
   version="1.1"
   id="svg5"
   sodipodi:docname="flatsweep.svg"
   inkscape:version="1.4 (e7c3feb100, 2024-10-09)"
   xmlns:inkscape="http://www.inkscape.org/namespaces/inkscape"
   xmlns:sodipodi="http://sodipodi.sourceforge.net/DTD/sodipodi-0.dtd"
   xmlns="http://www.w3.org/2000/svg"
   xmlns:svg="http://www.w3.org/2000/svg">
  <sodipodi:namedview
     id="namedview5"
     pagecolor="#ffffff"
     bordercolor="#000000"
     borderopacity="0.25"
     inkscape:showpageshadow="2"
     inkscape:pageopacity="0.0"
     inkscape:pagecheckerboard="0"
     inkscape:deskcolor="#d1d1d1"
     showgrid="false"
     inkscape:zoom="8.3085047"
     inkscape:cx="49.948819"
     inkscape:cy="42.005152"
     inkscape:window-width="1920"
     inkscape:window-height="998"
     inkscape:window-x="0"
     inkscape:window-y="0"
     inkscape:window-maximized="1"
     inkscape:current-layer="svg5">
    <inkscape:grid
       id="grid5"
       units="px"
       originx="0"
       originy="0"
       spacingx="1"
       spacingy="1"
       empcolor="#0099e5"
       empopacity="0.30196078"
       color="#0099e5"
       opacity="0.14901961"
       empspacing="5"
       enabled="true"
       visible="false" />
  </sodipodi:namedview>
  <defs
     id="defs3">
    <filter
       id="c"
       width="1.3100079"
       height="1.2796"
       x="-0.15500394"
       y="-0.1398"
       color-interpolation-filters="sRGB">
      <feGaussianBlur
         stdDeviation="4.66"
         id="feGaussianBlur1" />
    </filter>
    <filter
       id="a"
       width="1.06144"
       height="1.06144"
       x="-0.03072"
       y="-0.03072"
       color-interpolation-filters="sRGB">
      <feGaussianBlur
         stdDeviation=".768"
         id="feGaussianBlur2" />
    </filter>
    <linearGradient
       id="b"
       x1="7.9369998"
       x2="7.9369998"
       y1="15.081"
       y2="1.852"
       gradientTransform="matrix(3.0520048,0,0,3.0520048,-1.8995335,-2.4956165)"
       gradientUnits="userSpaceOnUse">
      <stop
         offset="0"
         stop-color="#fb2e2e"
         id="stop2" />
      <stop
         offset="1"
         stop-color="#fb7878"
         id="stop3" />
    </linearGradient>
  </defs>
  <g
     id="g5"
     transform="matrix(0.91666667,0,0,0.91666667,2.0535446,2.9325588)">
    <rect
       width="60"
       height="60"
       x="38.485386"
       y="14.434067"
       filter="url(#a)"
       opacity="0.15"
       rx="30"
       ry="30"
       id="rect3"
       transform="matrix(0.7536931,0,0,0.7536931,-27.675375,-9.4160772)" />
    <rect
       width="45.221584"
       height="45.221584"
       x="1.3307927"
       y="0.70908582"
       fill="url(#b)"
       rx="22.610792"
       ry="22.610792"
       id="rect4"
       style="fill:url(#b);stroke-width:0.753693" />
    <path
       d="M 64,24 V 64 L 98.64,44 Z M 64,64 29.36,44 V 84 L 64,104 Z m 19.721,1.11 c -0.89,0.514 -1.78,1.944 -1.78,2.861 v 2.75 l -6.226,3.596 c -0.493,0.284 -0.89,0.922 -0.89,1.43 v 1.834 c 0,0.508 0.397,0.687 0.89,0.403 l 2.669,-1.54 v 17.418 c 0,0.917 0.89,1.32 1.779,0.806 l 16.012,-9.244 c 0.89,-0.514 1.78,-1.944 1.78,-2.861 V 65.144 l 2.668,-1.54 c 0.493,-0.285 0.89,-0.923 0.89,-1.431 v -1.834 c 0,-0.508 -0.397,-0.687 -0.89,-0.403 l -6.227,3.595 v -2.75 c 0,-0.917 -0.89,-1.32 -1.78,-0.807 z m 1.78,1.724 5.337,-3.082 c 0.446,-0.258 0.89,-0.052 0.89,0.403 v 0.917 l -7.117,4.109 v -0.917 c 0,-0.46 0.445,-1.174 0.89,-1.43 m -3.56,7.555 12.455,-7.19 v 15.585 l -12.454,7.19 z m 4.004,0.439 c -0.74,0.427 -1.334,1.384 -1.334,2.145 v 7.335 c 0,0.762 0.595,1.031 1.334,0.605 0.74,-0.427 1.334,-1.384 1.334,-2.146 v -7.334 c 0,-0.762 -0.595,-1.032 -1.334,-0.605 m 4.448,-2.568 c -0.74,0.427 -1.335,1.384 -1.335,2.146 v 7.334 c 0,0.762 0.596,1.031 1.335,0.605 0.739,-0.427 1.334,-1.384 1.334,-2.146 v -7.334 c 0,-0.762 -0.595,-1.032 -1.334,-0.605"
       id="path4"
       transform="matrix(0.42958999,0,0,0.42958999,-4.1108685,-4.1740911)"
       style="opacity:0.15;fill:#050000;filter:url(#c)" />
    <path
       fill="#ffffff"
       d="M 23.383102,6.1356765 V 23.319879 l 14.880917,-8.592101 z m 0,17.1842025 L 8.5021855,14.727778 V 31.91198 l 14.8809165,8.591348 z m 8.472265,0.476334 c -0.382877,0.220832 -0.765,0.835092 -0.765,1.229274 v 1.18179 l -2.674857,1.545071 c -0.211788,0.121345 -0.382122,0.395689 -0.382122,0.613506 v 0.788363 c 0,0.218571 0.170334,0.294694 0.382122,0.17335 l 1.146367,-0.661743 v 7.481912 c 0,0.394181 0.382877,0.567531 0.764245,0.346698 l 6.878957,-3.971208 c 0.382124,-0.220833 0.764245,-0.835092 0.764245,-1.22852 v -7.484173 l 1.146367,-0.660989 c 0.211788,-0.122098 0.382123,-0.396442 0.382123,-0.615013 v -0.787609 c 0,-0.218571 -0.170335,-0.295448 -0.382123,-0.17335 l -2.67561,1.545071 v -1.181791 c 0,-0.394181 -0.381369,-0.566777 -0.764245,-0.346699 z m 0.764244,0.74088 2.292734,-1.324238 c 0.191439,-0.110793 0.382122,-0.02261 0.382122,0.173349 v 0.394182 l -3.056979,1.765149 v -0.394182 c 0,-0.197467 0.190685,-0.50422 0.382122,-0.61426 m -1.529997,3.245403 5.351221,-3.088634 v 6.695055 l -5.350467,3.088635 z m 1.720682,0.188423 c -0.318059,0.183901 -0.572807,0.595418 -0.572807,0.921767 v 3.150437 c 0,0.327857 0.255503,0.443925 0.572807,0.260778 0.318058,-0.183901 0.572806,-0.595418 0.572806,-0.921767 v -3.150437 c 0,-0.327856 -0.255502,-0.443925 -0.572806,-0.260778 m 1.910612,-1.102653 C 34.402848,27.051414 34.1481,27.46293 34.1481,27.790033 v 3.150437 c 0,0.327103 0.255503,0.443172 0.572807,0.260024 0.317304,-0.183147 0.572806,-0.594664 0.572806,-0.921767 V 27.12829 c 0,-0.327856 -0.255502,-0.443925 -0.572806,-0.260024"
       id="path5"
       style="stroke-width:0.753693" />
  </g>
</svg>
