<?xml version="1.0" encoding="UTF-8" standalone="no"?>
<svg
   xmlns:dc="http://purl.org/dc/elements/1.1/"
   xmlns:cc="http://creativecommons.org/ns#"
   xmlns:rdf="http://www.w3.org/1999/02/22-rdf-syntax-ns#"
   xmlns:svg="http://www.w3.org/2000/svg"
   xmlns="http://www.w3.org/2000/svg"
   xmlns:xlink="http://www.w3.org/1999/xlink"
   xmlns:sodipodi="http://sodipodi.sourceforge.net/DTD/sodipodi-0.dtd"
   xmlns:inkscape="http://www.inkscape.org/namespaces/inkscape"
   inkscape:version="1.0.2 (e86c870879, 2021-01-15)"
   sodipodi:docname="system-lock-screen.svg"
   id="svg6"
   version="1.1"
   viewBox="0 0 32 32">
  <metadata
     id="metadata10">
    <rdf:RDF>
      <cc:Work
         rdf:about="">
        <dc:format>image/svg+xml</dc:format>
        <dc:type
           rdf:resource="http://purl.org/dc/dcmitype/StillImage" />
      </cc:Work>
    </rdf:RDF>
  </metadata>
  <sodipodi:namedview
     inkscape:document-rotation="0"
     inkscape:current-layer="svg6"
     inkscape:window-maximized="1"
     inkscape:window-y="0"
     inkscape:window-x="0"
     inkscape:cy="17.077158"
     inkscape:cx="11.594147"
     inkscape:zoom="10.028541"
     showgrid="true"
     id="namedview8"
     inkscape:window-height="1007"
     inkscape:window-width="1920"
     inkscape:pageshadow="2"
     inkscape:pageopacity="0"
     guidetolerance="10"
     gridtolerance="10"
     objecttolerance="10"
     borderopacity="1"
     bordercolor="#666666"
     pagecolor="#ffffff">
    <inkscape:grid
       type="xygrid"
       id="grid862" />
  </sodipodi:namedview>
  <defs
     id="defs3051">
    <linearGradient
       inkscape:collect="always"
       id="linearGradient847">
      <stop
         style="stop-color:#751aff;stop-opacity:1"
         offset="0"
         id="stop843" />
      <stop
         style="stop-color:#b0b0cf;stop-opacity:1"
         offset="1"
         id="stop845" />
    </linearGradient>
    <style
       id="current-color-scheme"
       type="text/css">
      .ColorScheme-Text {
        color:#eff0f1;
      }
      </style>
    <linearGradient
       inkscape:collect="always"
       xlink:href="#linearGradient847"
       id="linearGradient1344"
       x1="11.219061"
       y1="16.434111"
       x2="20.969021"
       y2="16.434111"
       gradientUnits="userSpaceOnUse"
       gradientTransform="matrix(0.92307707,0,0,0.92307707,1.230765,1.2307683)" />
    <linearGradient
       inkscape:collect="always"
       id="linearGradient1334">
      <stop
         style="stop-color:#954fff;stop-opacity:1"
         offset="0"
         id="stop1330" />
      <stop
         style="stop-color:#ffdd55;stop-opacity:1"
         offset="1"
         id="stop1332" />
    </linearGradient>
    <linearGradient
       inkscape:collect="always"
       xlink:href="#linearGradient1334"
       id="linearGradient1360"
       x1="12.831223"
       y1="4.0063157"
       x2="19.353516"
       y2="4.1825223"
       gradientUnits="userSpaceOnUse"
       gradientTransform="matrix(0.92307707,0,0,0.92307707,1.230765,1.2307683)" />
    <linearGradient
       inkscape:collect="always"
       xlink:href="#linearGradient847"
       id="linearGradient1352"
       x1="3.27336"
       y1="23.698376"
       x2="13.515568"
       y2="23.698376"
       gradientUnits="userSpaceOnUse"
       gradientTransform="matrix(0,0.92307707,-0.92307707,0,30.878453,1.2553591)" />
    <linearGradient
       inkscape:collect="always"
       xlink:href="#linearGradient847"
       id="linearGradient849"
       gradientUnits="userSpaceOnUse"
       gradientTransform="matrix(0,0.92307707,-0.92307707,0,30.769234,1.2307683)"
       x1="3"
       y1="16"
       x2="29"
       y2="16" />
  </defs>
  <path
     d="m 27.25,15.259381 c 0.203247,0 0.39076,0.08257 0.5325,0.217497 0.135767,0.142503 0.217501,0.337485 0.217501,0.532503 0,0.194982 -0.0818,0.39 -0.217501,0.532483 -0.269253,0.277517 -0.78,0.277517 -1.064993,0 C 26.5825,16.399381 26.5,16.204363 26.5,16.009381 c 0,-0.195018 0.08257,-0.39 0.217507,-0.532503 C 26.86,15.341861 27.055003,15.259381 27.25,15.259381 Z"
     id="path8-2"
     style="fill:#e6e6e6;stroke-width:0.75" />
  <path
     d="m 11.59038,11.900917 h 1.124578 c 0.0122,-1.75e-4 0.02333,-3.46e-4 0.03502,0 0.286703,0.01805 0.573378,0.144537 0.773129,0.351454 l 2.565393,2.5666 2.600536,-2.5666 c 0.298749,-0.259049 0.502324,-0.343584 0.77315,-0.351454 h 1.124559 v 1.124886 c 0,0.32232 -0.0387,0.619698 -0.28113,0.843805 l -2.56539,2.56654 2.53024,2.531133 c 0.211615,0.2115 0.316271,0.51014 0.31628,0.8084 v 1.12504 h -1.12453 c -0.298357,-2e-5 -0.596701,-0.10225 -0.80828,-0.31635 l -2.565394,-2.56646 -2.56541,2.56646 c -0.21158,0.211507 -0.50992,0.31635 -0.80827,0.31635 h -1.124547 v -1.12504 c 0,-0.298253 0.104725,-0.5969 0.316302,-0.8084 l 2.565397,-2.531133 -2.565377,-2.56654 c -0.23699,-0.218967 -0.34092,-0.527957 -0.316286,-0.843805 z"
     style="fill:url(#linearGradient1344);fill-opacity:1.0;stroke-width:1.31215"
     id="path48"
     inkscape:connector-curvature="0" />
  <path
     d="M 28.000001,16 C 28.000001,22.616502 22.616507,28 16,28 9.383507,28 4,22.616502 4,16 4,15.586001 4.336,15.25 4.75,15.25 5.164,15.25 5.5,15.586001 5.5,16 5.5,21.79 10.21,26.5 16,26.5 21.79,26.5 26.5,21.79 26.5,16 26.5,10.210001 21.79,5.5 16,5.5 15.586,5.5 15.25,5.1647507 15.25,4.75 15.25,4.33525 15.586,4 16,4 22.616507,4 28.000001,9.3835008 28.000001,16 Z"
     id="path2-87"
     style="fill:url(#linearGradient849);fill-opacity:1;stroke-width:0.75" />
  <path
     d="m 16,4.0093738 c 0.195003,0 0.39,0.082502 0.5325,0.2175007 0.135007,0.1424994 0.2175,0.3375 0.2175,0.5325 0,0.194999 -0.08257,0.389999 -0.2175,0.532501 -0.284993,0.277498 -0.780002,0.277498 -1.064993,0 C 15.332496,5.1493735 15.25,4.9543735 15.25,4.7593745 c 0,-0.195 0.08257,-0.3900006 0.217507,-0.5325 C 15.61,4.0918745 15.805003,4.0093738 16,4.0093738 Z"
     id="path4-9"
     style="fill:url(#linearGradient1360);fill-opacity:1;stroke-width:0.75;opacity:0.01" />
  <path
     d="m 13.174117,5.7565951 c -0.397507,0.105 -0.81,-0.1357507 -0.915027,-0.5324987 v 0 c -0.11248,-0.405001 0.12752,-0.810001 0.525027,-0.9225003 v 0 c 0.404973,-0.105 0.81,0.135 0.922493,0.5324993 v 0 c 0.01507,0.067507 0.02257,0.1274997 0.02257,0.195001 v 0 c 0,0.33 -0.2175,0.6374987 -0.554995,0.7274987 z m -2.527507,1.049999 v -0.0076 c -0.36,0.21 -0.81752,0.09 -1.02752,-0.2699992 v 0 C 9.40909,6.1689999 9.53653,5.7115004 9.89661,5.5022497 v 0 c 0.35248,-0.203227 0.817507,-0.082473 1.02,0.2767732 v 0 c 0.0676,0.12 0.104986,0.2475015 0.104986,0.3750001 v 0 c 0,0.2557506 -0.134986,0.5099994 -0.374986,0.6525004 z M 8.471593,8.4723454 c -0.292503,0.2924987 -0.764983,0.2924987 -1.057476,0 v 0 c -0.292534,-0.2932493 -0.292534,-0.7657513 0,-1.0575013 v 0 c 0,0 0,0 0,-0.0076 v 0 C 7.70661,7.1215195 8.17909,7.1215195 8.471593,7.4139441 v 0 c 0.15,0.1417708 0.217497,0.3375205 0.217497,0.5250204 v 0 c 0,0.195 -0.0676,0.3900001 -0.217497,0.5332499 z M 6.79909,10.646595 c -0.20248,0.36 -0.667507,0.480751 -1.02,0.27 v 0 c -0.36,-0.202499 -0.48,-0.66 -0.277507,-1.0200002 v 0 0 0 c 0.21,-0.3592494 0.667507,-0.48 1.027507,-0.2774987 v 0 c 0.24,0.1424987 0.375027,0.3907479 0.375027,0.6524989 v 0 c 0,0.127501 -0.03743,0.255 -0.105027,0.375 z m -1.04248,2.527501 v 0 c -0.112493,0.397511 -0.525027,0.637511 -0.922493,0.532497 v 0 C 4.43661,13.601607 4.19661,13.189834 4.301583,12.791605 v 0 c 0,0 0,0 0,-0.0079 v 0 c 0.112535,-0.39755 0.517507,-0.630804 0.922534,-0.525051 v 0 c 0.33,0.09 0.554973,0.39 0.554973,0.719999 v 0 c 0,0.06758 -0.0087,0.134992 -0.02266,0.194993 z"
     id="path6-3"
     style="fill:url(#linearGradient1352);fill-opacity:1.0;stroke-width:0.75" />
</svg>
