<?xml version="1.0" encoding="UTF-8" standalone="no"?>
<svg
   xmlns:dc="http://purl.org/dc/elements/1.1/"
   xmlns:cc="http://creativecommons.org/ns#"
   xmlns:rdf="http://www.w3.org/1999/02/22-rdf-syntax-ns#"
   xmlns:svg="http://www.w3.org/2000/svg"
   xmlns="http://www.w3.org/2000/svg"
   xmlns:xlink="http://www.w3.org/1999/xlink"
   xmlns:sodipodi="http://sodipodi.sourceforge.net/DTD/sodipodi-0.dtd"
   xmlns:inkscape="http://www.inkscape.org/namespaces/inkscape"
   inkscape:version="1.0.2 (e86c870879, 2021-01-15)"
   sodipodi:docname="system-switch-user.svg"
   id="svg5"
   version="1.1"
   viewBox="0 0 32 32">
  <metadata
     id="metadata9">
    <rdf:RDF>
      <cc:Work
         rdf:about="">
        <dc:format>image/svg+xml</dc:format>
        <dc:type
           rdf:resource="http://purl.org/dc/dcmitype/StillImage" />
      </cc:Work>
    </rdf:RDF>
  </metadata>
  <sodipodi:namedview
     inkscape:document-rotation="0"
     inkscape:current-layer="svg5"
     inkscape:window-maximized="1"
     inkscape:window-y="0"
     inkscape:window-x="0"
     inkscape:cy="9.7788792"
     inkscape:cx="-1.299874"
     inkscape:zoom="14.182499"
     showgrid="false"
     id="namedview7"
     inkscape:window-height="1007"
     inkscape:window-width="1920"
     inkscape:pageshadow="2"
     inkscape:pageopacity="0"
     guidetolerance="10"
     gridtolerance="10"
     objecttolerance="10"
     borderopacity="1"
     bordercolor="#666666"
     pagecolor="#ffffff" />
  <defs
     id="defs3051">
    <linearGradient
       inkscape:collect="always"
       id="linearGradient848">
      <stop
         style="stop-color:#8787de;stop-opacity:1"
         offset="0"
         id="stop844" />
      <stop
         style="stop-color:#1affff;stop-opacity:1"
         offset="1"
         id="stop846" />
    </linearGradient>
    <style
       id="current-color-scheme"
       type="text/css">
      .ColorScheme-Text {
        color:#eff0f1;
      }
      </style>
    <linearGradient
       inkscape:collect="always"
       xlink:href="#linearGradient848"
       id="linearGradient1412"
       x1="15.423117"
       y1="14.431876"
       x2="24.62199"
       y2="14.431876"
       gradientUnits="userSpaceOnUse"
       gradientTransform="matrix(0.92307695,0,0,0.92307695,1.230767,1.2307692)" />
    <linearGradient
       inkscape:collect="always"
       xlink:href="#linearGradient848"
       id="linearGradient1404"
       x1="7.961122"
       y1="18.052322"
       x2="17.15996"
       y2="18.052322"
       gradientUnits="userSpaceOnUse"
       gradientTransform="matrix(0.92307695,0,0,0.92307695,1.230767,1.2307692)" />
    <linearGradient
       inkscape:collect="always"
       xlink:href="#linearGradient848"
       id="linearGradient1396"
       x1="15.639642"
       y1="3.2573984"
       x2="16"
       y2="29.000002"
       gradientUnits="userSpaceOnUse"
       gradientTransform="matrix(0,-0.92307695,0.92307695,0,1.230767,30.769232)" />
    <linearGradient
       inkscape:collect="always"
       xlink:href="#linearGradient848"
       id="linearGradient1428"
       x1="15.1875"
       y1="3.8175776"
       x2="16.8125"
       y2="3.8175776"
       gradientUnits="userSpaceOnUse"
       gradientTransform="matrix(0.92307695,0,0,0.92307695,1.230767,1.2307692)" />
    <linearGradient
       inkscape:collect="always"
       xlink:href="#linearGradient848"
       id="linearGradient1420"
       x1="18.345772"
       y1="8.5319605"
       x2="28.587978"
       y2="8.5319605"
       gradientUnits="userSpaceOnUse"
       gradientTransform="matrix(0,-0.92307695,0.92307695,0,1.127367,30.665827)" />
  </defs>
  <path
     d="m 27.250001,16.750001 c -0.203252,0 -0.390748,-0.08253 -0.532495,-0.217503 -0.135757,-0.142497 -0.217505,-0.337498 -0.217505,-0.532497 0,-0.195001 0.08178,-0.39 0.217505,-0.532503 0.269243,-0.277497 0.779991,-0.277497 1.064991,0 0.135,0.142503 0.217504,0.337502 0.217504,0.532503 0,0.194999 -0.08252,0.39 -0.217504,0.532497 -0.142496,0.135003 -0.337496,0.217503 -0.532496,0.217503 z"
     id="path8-92"
     style="fill:#e6e6e6;stroke-width:0.75" />
  <path
     d="m 15.603355,14.77132 8.005394,3.881391 c 0.09702,0.04614 0.213462,0.0219 0.286246,-0.05584 0.07274,-0.08003 0.08252,-0.198925 0.02437,-0.291105 l -2.343416,-3.752834 2.345825,-3.752825 c 0.05815,-0.09222 0.04606,-0.211052 -0.02437,-0.291101 -0.04606,-0.05095 -0.11401,-0.08003 -0.181939,-0.08003 -0.03636,0 -0.07283,0.0074 -0.106727,0.02428 l -8.005393,3.881415 c -0.08243,0.04126 -0.135846,0.126147 -0.135846,0.218326 0,0.09212 0.05335,0.177092 0.135846,0.218326 z"
     id="path2-3-2"
     style="fill:url(#linearGradient1412);fill-opacity:1.0;stroke-width:0.242581" />
  <path
     d="M 16.934885,17.675681 8.929487,13.79428 C 8.832457,13.74813 8.71601,13.7724 8.643231,13.85003 c -0.07273,0.08003 -0.08243,0.198923 -0.0243,0.291111 l 2.343399,3.752834 -2.345817,3.752828 c -0.05824,0.09213 -0.04609,0.211051 0.0243,0.29111 0.04609,0.05098 0.114007,0.08003 0.181934,0.08003 0.03639,0 0.07273,-0.0073 0.106736,-0.0243 l 8.005408,-3.881372 c 0.08243,-0.04128 0.13585,-0.126148 0.13585,-0.218337 0,-0.09213 -0.05337,-0.177081 -0.13585,-0.218328 z"
     id="path2-3-3-8"
     style="fill:url(#linearGradient1404);fill-opacity:1.0;stroke-width:0.242581" />
  <path
     d="M 28.000001,16.000001 C 28.000001,22.6165 22.616496,28 16,28 9.383503,28 4,22.6165 4,16.000001 c 0,-0.414 0.336,-0.75 0.75,-0.75 0.414,0 0.75,0.336 0.75,0.75 C 5.5,21.790001 10.21,26.5 16,26.5 21.79,26.5 26.500001,21.790001 26.500001,16.000001 26.500001,10.21 21.79,5.5 16,5.5 15.586,5.5 15.25,5.1647505 15.25,4.75 15.25,4.3352497 15.586,4 16,4 22.616496,4 28.000001,9.3834999 28.000001,16.000001 Z"
     id="path2-02"
     style="fill:url(#linearGradient1396);fill-opacity:1;stroke-width:0.75" />
  <path
     d="M 16,5.5 C 15.805,5.5 15.61,5.417477 15.467499,5.2824954 15.332498,5.14 15.25,4.945 15.25,4.75 15.25,4.555 15.33253,4.36 15.467499,4.2174953 15.752497,3.94 16.247501,3.94 16.532497,4.2174953 16.667501,4.36 16.75,4.555 16.75,4.75 16.75,4.945 16.66747,5.14 16.532497,5.2824954 16.39,5.4174954 16.195,5.5 16,5.5 Z"
     id="path4-37"
     style="fill:url(#linearGradient1428);fill-opacity:1;stroke-width:0.75;opacity:0.01" />
  <path
     d="m 13.174095,5.756596 c -0.397496,0.105 -0.81,-0.1357496 -0.914995,-0.5325001 v 0 c -0.112501,-0.405 0.127499,-0.81 0.524995,-0.9224999 v 0 c 0.404995,-0.105 0.81,0.135 0.922504,0.5324999 v 0 c 0.01494,0.067505 0.02253,0.1275001 0.02253,0.195 v 0 c 0,0.33 -0.2175,0.6375 -0.555003,0.7275001 z m -2.527496,1.05 v -0.00748 c -0.36,0.2099997 -0.817509,0.09 -1.027499,-0.27 v 0 C 9.40909,6.1690929 9.53657,5.7115929 9.896599,5.5023424 v 0 c 0.352491,-0.2032496 0.817506,-0.082505 1.02,0.2767505 v 0 c 0.0675,0.12 0.104998,0.2475 0.104998,0.375 v 0 c 0,0.2557505 -0.134998,0.51 -0.374998,0.6525031 z M 8.471597,8.4723462 c -0.292507,0.2925002 -0.764998,0.2925002 -1.057504,0 v 0 c -0.292496,-0.2932501 -0.292496,-0.7657502 0,-1.0574998 v 0 c 0,0 0,0 0,-0.0075 v 0 C 7.706599,7.1215972 8.17909,7.1215972 8.471597,7.4140564 v 0 c 0.15,0.1417504 0.217493,0.3375 0.217493,0.525 v 0 c 0,0.195 -0.0675,0.39 -0.217493,0.53325 z M 6.79909,10.646596 c -0.202491,0.36 -0.667493,0.48075 -1.01999,0.27 v 0 c -0.36,-0.2025 -0.48001,-0.66 -0.277503,-1.02 v 0 0 0 c 0.21,-0.35925 0.667503,-0.4800001 1.027503,-0.2775 v 0 c 0.23999,0.1425 0.375003,0.390751 0.375003,0.6525 v 0 c 0,0.127501 -0.03747,0.255 -0.105013,0.375 z m -1.042491,2.5275 v 0 c -0.112506,0.3975 -0.525002,0.6375 -0.922506,0.5325 v 0 c -0.397494,-0.105 -0.637494,-0.51675 -0.532496,-0.915 v 0 c 0,0 0,0 0,-0.0075 v 0 c 0.112496,-0.3975 0.517493,-0.63075 0.922496,-0.525 v 0 c 0.33,0.09 0.555007,0.39 0.555007,0.72 v 0 c 0,0.0675 -0.0073,0.135 -0.02253,0.195 z"
     id="path6-5"
     style="fill:url(#linearGradient1420);fill-opacity:1.0;stroke-width:0.75" />
</svg>
