<?xml version="1.0" encoding="UTF-8" standalone="no"?>
<svg
   inkscape:version="1.1.1 (3bf5ae0d25, 2021-09-20)"
   sodipodi:docname="system-reboot.svg"
   id="svg6"
   version="1.1"
   viewBox="0 0 32 32"
   xmlns:inkscape="http://www.inkscape.org/namespaces/inkscape"
   xmlns:sodipodi="http://sodipodi.sourceforge.net/DTD/sodipodi-0.dtd"
   xmlns:xlink="http://www.w3.org/1999/xlink"
   xmlns="http://www.w3.org/2000/svg"
   xmlns:svg="http://www.w3.org/2000/svg"
   xmlns:rdf="http://www.w3.org/1999/02/22-rdf-syntax-ns#"
   xmlns:cc="http://creativecommons.org/ns#"
   xmlns:dc="http://purl.org/dc/elements/1.1/">
  <metadata
     id="metadata10">
    <rdf:RDF>
      <cc:Work
         rdf:about="">
        <dc:format>image/svg+xml</dc:format>
        <dc:type
           rdf:resource="http://purl.org/dc/dcmitype/StillImage" />
      </cc:Work>
    </rdf:RDF>
  </metadata>
  <sodipodi:namedview
     inkscape:document-rotation="0"
     inkscape:current-layer="svg6"
     inkscape:window-maximized="1"
     inkscape:window-y="0"
     inkscape:window-x="0"
     inkscape:cy="15.455887"
     inkscape:cx="26.02572"
     inkscape:zoom="10.028541"
     showgrid="false"
     id="namedview8"
     inkscape:window-height="1013"
     inkscape:window-width="1920"
     inkscape:pageshadow="2"
     inkscape:pageopacity="0"
     guidetolerance="10"
     gridtolerance="10"
     objecttolerance="10"
     borderopacity="1"
     bordercolor="#666666"
     pagecolor="#ffffff"
     inkscape:pagecheckerboard="0">
    <inkscape:grid
       type="xygrid"
       id="grid871" />
  </sodipodi:namedview>
  <defs
     id="defs3051">
    <linearGradient
       inkscape:collect="always"
       id="linearGradient973">
      <stop
         style="stop-color:#a8a8d7;stop-opacity:1"
         offset="0"
         id="stop969" />
      <stop
         style="stop-color:#ffccaa;stop-opacity:1"
         offset="1"
         id="stop971" />
    </linearGradient>
    <style
       id="current-color-scheme"
       type="text/css">
      .ColorScheme-Text {
        color:#eff0f1;
      }
      </style>
    <linearGradient
       inkscape:collect="always"
       xlink:href="#linearGradient973"
       id="linearGradient1109"
       x1="5.1840019"
       y1="11.984631"
       x2="21.439787"
       y2="11.984631"
       gradientUnits="userSpaceOnUse"
       gradientTransform="matrix(0.92307691,0,0,0.92307691,1.230767,1.3234198)" />
    <linearGradient
       inkscape:collect="always"
       xlink:href="#linearGradient973"
       id="linearGradient1100"
       x1="3"
       y1="16"
       x2="29"
       y2="16"
       gradientUnits="userSpaceOnUse"
       gradientTransform="matrix(0.92307691,0,0,0.92307691,1.230767,1.2307697)" />
    <linearGradient
       inkscape:collect="always"
       xlink:href="#linearGradient973"
       id="linearGradient1121"
       x1="18.459492"
       y1="23.584602"
       x2="28.699293"
       y2="23.584602"
       gradientUnits="userSpaceOnUse"
       gradientTransform="matrix(0.92307691,0,0,0.92307691,1.230767,1.2307697)" />
  </defs>
  <g
     id="g887" />
  <path
     style="color:#000000;overflow:visible;opacity:0;fill:#0000ff;fill-opacity:1;stroke-width:1.06667"
     id="path940"
     overflow="visible"
     d="m 60.626965,-17.595446 c -8.82859,0 -16,7.171413 -16,15.9999996 0,8.828587 7.17141,16.0000004 16,16.0000004 8.82752,0 16,-7.1714134 16,-16.0000004 0,-8.8275196 -7.17141,-15.9999996 -16,-15.9999996 z"
     inkscape:connector-curvature="0" />
  <path
     d="m 26.504685,16.004686 c 0,-0.203246 0.08243,-0.390753 0.2175,-0.532498 0.1425,-0.135749 0.337505,-0.217502 0.5325,-0.217502 0.195005,0 0.39,0.08179 0.532496,0.217502 0.277504,0.269252 0.277504,0.78 0,1.064995 -0.142496,0.135005 -0.337491,0.217503 -0.532496,0.217503 -0.194995,0 -0.39,-0.08243 -0.5325,-0.217503 -0.135004,-0.142497 -0.2175,-0.337492 -0.2175,-0.532497 z"
     id="path8-9"
     style="fill:#e6e6e6;stroke-width:0.75" />
  <path
     d="m 8.045252,7.1115516 c -1.03091,1.0309178 -1.703434,2.2843818 -2.017864,3.6057514 -0.09004,0.378499 0.375128,0.634029 0.649536,0.358255 0.0032,-0.0034 0.0059,-0.0059 0.0099,-0.0099 1.89752,-2.8909346 6.46923,-2.4993376 8.70694,-0.117188 2.109651,2.245856 1.65275,5.982379 -0.489569,8.197083 -0.02699,0.02793 -0.05423,0.05554 -0.08168,0.08277 -0.275173,0.273386 -0.01803,0.736429 0.359399,0.64675 1.309622,-0.311225 2.55265,-0.974151 3.578536,-1.989108 2.99952,-2.967614 3.016415,-7.779027 0.03688,-10.76667 C 15.83087,4.1446361 11.014643,4.1421713 8.045022,7.111095 Z"
     id="path2-3"
     style="fill:url(#linearGradient1109);fill-opacity:1.0;stroke-width:0.0164344"
     sodipodi:nodetypes="cccccscscccc" />
  <path
     d="M 4,16.000001 C 4,9.3834984 9.383498,4 16,4 c 6.6165,0 12,5.3834984 12,12.000001 0,0.414 -0.336,0.75 -0.75,0.75 -0.414,0 -0.75,-0.336 -0.75,-0.75 C 26.5,10.210001 21.79,5.5 16,5.5 10.21,5.5 5.5,10.210001 5.5,16.000001 c 0,5.79 4.71,10.5 10.5,10.5 0.414,0 0.75,0.335247 0.75,0.75 0,0.41475 -0.336,0.75 -0.75,0.75 -6.616502,0 -12,-5.3835 -12,-12 z"
     id="path2-5-3"
     style="fill:url(#linearGradient1100);fill-opacity:1;stroke-width:0.75" />
  <path
     d="m 18.825249,26.248673 c 0.397502,-0.105007 0.81,0.135747 0.914994,0.5325 v 0 c 0.112508,0.405005 -0.127492,0.81 -0.524994,0.922493 v 0 c -0.405006,0.105007 -0.81,-0.134993 -0.922498,-0.532493 v 0 c -0.01497,-0.06752 -0.02244,-0.127507 -0.02244,-0.194995 v 0 c 0,-0.33 0.217504,-0.637505 0.555001,-0.727505 z m 2.527502,-1.05 v 0.0069 c 0.36,-0.21 0.817492,-0.08994 1.027492,0.27 v 0 c 0.21,0.36 0.08243,0.817498 -0.277492,1.026747 v 0 c -0.352508,0.203253 -0.817502,0.08243 -1.02,-0.276747 v 0 c -0.06751,-0.12 -0.104997,-0.247499 -0.104997,-0.375003 v 0 c 0,-0.255748 0.134997,-0.51 0.374997,-0.652496 z m 2.175003,-1.665752 c 0.292489,-0.292501 0.764997,-0.292501 1.057495,0 v 0 c 0.292505,0.293257 0.292505,0.765752 0,1.057499 v 0 c 0,0 0,0 0,0.0069 v 0 c -0.292498,0.285746 -0.765006,0.285746 -1.057495,-0.0062 v 0 c -0.15,-0.141758 -0.217511,-0.337511 -0.217511,-0.525006 v 0 c 0,-0.195008 0.06751,-0.39 0.217511,-0.533256 z m 1.672489,-2.174246 c 0.202508,-0.36 0.667511,-0.480748 1.02,-0.27 v 0 c 0.36,0.202498 0.48,0.66 0.277511,1.02 v 0 0 0 c -0.21,0.359252 -0.667511,0.479998 -1.027511,0.277503 v 0 c -0.24,-0.142512 -0.374994,-0.39076 -0.374994,-0.652512 v 0 c 0,-0.127488 0.03755,-0.254991 0.104994,-0.374991 z m 1.042508,-2.527502 v 0 c 0.112496,-0.397507 0.525003,-0.637507 0.922496,-0.532498 v 0 c 0.397503,0.104991 0.637503,0.516743 0.532507,0.914991 v 0 c 0,0 0,0 0,0.0069 v 0 c -0.112507,0.397503 -0.517511,0.630753 -0.922507,0.525003 v 0 c -0.33,-0.09001 -0.555004,-0.389952 -0.555004,-0.719952 v 0 c 0,-0.06751 0.0069,-0.135003 0.02243,-0.195003 z"
     id="path6-62"
     style="fill:url(#linearGradient1121);fill-opacity:1.0;stroke-width:0.75" />
</svg>
