<?xml version="1.0" encoding="UTF-8" standalone="no"?>
<svg
   inkscape:version="1.1.1 (3bf5ae0d25, 2021-09-20)"
   sodipodi:docname="system-suspend-hibernate.svg"
   id="svg5"
   version="1.1"
   viewBox="0 0 32 32"
   xmlns:inkscape="http://www.inkscape.org/namespaces/inkscape"
   xmlns:sodipodi="http://sodipodi.sourceforge.net/DTD/sodipodi-0.dtd"
   xmlns:xlink="http://www.w3.org/1999/xlink"
   xmlns="http://www.w3.org/2000/svg"
   xmlns:svg="http://www.w3.org/2000/svg"
   xmlns:rdf="http://www.w3.org/1999/02/22-rdf-syntax-ns#"
   xmlns:cc="http://creativecommons.org/ns#"
   xmlns:dc="http://purl.org/dc/elements/1.1/">
  <metadata
     id="metadata9">
    <rdf:RDF>
      <cc:Work
         rdf:about="">
        <dc:format>image/svg+xml</dc:format>
        <dc:type
           rdf:resource="http://purl.org/dc/dcmitype/StillImage" />
      </cc:Work>
    </rdf:RDF>
  </metadata>
  <sodipodi:namedview
     inkscape:document-rotation="0"
     inkscape:current-layer="svg5"
     inkscape:window-maximized="1"
     inkscape:window-y="0"
     inkscape:window-x="0"
     inkscape:cy="4.9597607"
     inkscape:cx="-6.4780547"
     inkscape:zoom="9.879509"
     showgrid="true"
     id="namedview7"
     inkscape:window-height="1013"
     inkscape:window-width="1920"
     inkscape:pageshadow="2"
     inkscape:pageopacity="0"
     guidetolerance="10"
     gridtolerance="10"
     objecttolerance="10"
     borderopacity="1"
     bordercolor="#666666"
     pagecolor="#ffffff"
     inkscape:pagecheckerboard="0">
    <inkscape:grid
       type="xygrid"
       id="grid893" />
  </sodipodi:namedview>
  <defs
     id="defs3051">
    <linearGradient
       inkscape:collect="always"
       id="linearGradient934">
      <stop
         style="stop-color:#a8a8d7;stop-opacity:1"
         offset="0"
         id="stop930" />
      <stop
         style="stop-color:#80b3ff;stop-opacity:1"
         offset="1"
         id="stop932" />
    </linearGradient>
    <style
       id="current-color-scheme"
       type="text/css">
      .ColorScheme-Text {
        color:#eff0f1;
      }
      </style>
    <linearGradient
       inkscape:collect="always"
       xlink:href="#linearGradient934"
       id="linearGradient1122"
       x1="3"
       y1="16"
       x2="29"
       y2="16"
       gradientUnits="userSpaceOnUse"
       gradientTransform="matrix(0.92307692,0,0,0.92307692,1.230768,1.2307693)" />
    <linearGradient
       inkscape:collect="always"
       xlink:href="#linearGradient934"
       id="linearGradient1139"
       x1="3.3973122"
       y1="8.531949"
       x2="13.637239"
       y2="8.531949"
       gradientUnits="userSpaceOnUse"
       gradientTransform="matrix(0.92307692,0,0,0.92307692,1.230768,1.2307693)" />
    <linearGradient
       inkscape:collect="always"
       xlink:href="#linearGradient934"
       id="linearGradient1147"
       x1="7.212585"
       y1="13.890016"
       x2="16.01531"
       y2="13.890016"
       gradientUnits="userSpaceOnUse"
       gradientTransform="matrix(0.92307692,0,0,0.92307692,1.230768,1.2307693)" />
    <linearGradient
       inkscape:collect="always"
       xlink:href="#linearGradient934"
       id="linearGradient1156"
       x1="16.380066"
       y1="19.2236"
       x2="25.18281"
       y2="19.2236"
       gradientUnits="userSpaceOnUse"
       gradientTransform="matrix(0.92307692,0,0,0.92307692,1.230768,1.2307693)" />
  </defs>
  <path
     d="m 28,15.999999 c 0,6.616501 -5.3835,12 -12,12 -6.616499,0 -12,-5.383499 -12,-12 C 4,15.585999 4.336,15.25 4.75,15.25 c 0.414,0 0.75,0.335999 0.75,0.749999 0,5.79 4.71,10.5 10.5,10.5 5.79,0 10.5,-4.71 10.5,-10.5 C 26.5,10.21 21.79,5.5 16,5.5 15.586,5.5 15.25,5.1647505 15.25,4.75 15.25,4.33525 15.586,4 16,4 22.6165,4 28,9.3835 28,15.999999 Z"
     id="path2-9"
     style="fill:url(#linearGradient1122);fill-opacity:1;stroke-width:0.75" />
  <path
     d="m 16.74532,4.7546875 c 0,0.195 -0.08256,0.39 -0.217499,0.5324995 -0.142501,0.135 -0.337511,0.2175005 -0.532501,0.2175005 -0.19501,0 -0.39,-0.082491 -0.53251,-0.2175005 -0.27749,-0.285 -0.27749,-0.78 0,-1.065 0.14251,-0.135 0.3375,-0.2174995 0.53251,-0.2174995 0.19499,0 0.39,0.082495 0.532501,0.2174995 0.134989,0.1425005 0.217499,0.3375005 0.217499,0.5325005 z"
     id="path4-73"
     style="fill:#2ca589;fill-opacity:0.104836;stroke-width:0.75" />
  <path
     d="M 13.263917,5.8589136 C 12.86643,5.9639135 12.453921,5.723164 12.348928,5.3264145 v 0 c -0.112499,-0.405 0.127502,-0.8100005 0.524992,-0.922501 v 0 c 0.405008,-0.105 0.809997,0.1350005 0.922514,0.532501 v 0 c 0.01506,0.067507 0.02257,0.127499 0.02257,0.195 v 0 c 0,0.33 -0.2175,0.637499 -0.555006,0.7274991 z m -2.52749,1.049999 v -0.00757 c -0.36,0.2100101 -0.817501,0.090009 -1.027501,-0.2699889 v 0 c -0.21,-0.359977 -0.08252,-0.8174766 0.277501,-1.0267274 v 0 c 0.352499,-0.2032497 0.817494,-0.082494 1.019999,0.2767503 v 0 c 0.06753,0.1200001 0.104995,0.2475001 0.104995,0.3750001 v 0 c 0,0.2557496 -0.134994,0.5099992 -0.374994,0.6524982 z M 8.561421,8.574663 c -0.292495,0.292501 -0.764995,0.292501 -1.0575,0 v 0 c -0.292499,-0.293249 -0.292499,-0.7657506 0,-1.057499 v 0 c 0,0 0,0 0,-0.00756 v 0 c 0.292505,-0.2857403 0.765005,-0.2857403 1.0575,0.00674 v 0 c 0.150001,0.1417445 0.217505,0.3374941 0.217505,0.5249948 v 0 c 0,0.195 -0.06753,0.39 -0.217505,0.5332484 z m -1.672495,2.17425 c -0.2025,0.36 -0.667504,0.48075 -1.02,0.27 v 0 c -0.36,-0.202498 -0.48,-0.66 -0.277505,-1.02 v 0 0 0 c 0.21,-0.35925 0.667505,-0.4800005 1.027505,-0.277499 v 0 c 0.24,0.142499 0.374995,0.390751 0.374995,0.652499 v 0 c 0,0.127502 -0.03748,0.255 -0.104995,0.375 z m -1.042499,2.5275 v 0 C 5.733921,13.673912 5.321422,13.913912 4.923921,13.80892 v 0 C 4.526426,13.703912 4.286426,13.292169 4.391421,12.893912 v 0 c 0,0 0,0 0,-0.0076 v 0 c 0.1125,-0.397446 0.517505,-0.630697 0.9225,-0.524946 v 0 c 0.33,0.09 0.555005,0.39 0.555005,0.720001 v 0 c 0,0.06753 -0.0077,0.134996 -0.02252,0.194996 z"
     id="path6-6"
     style="fill:url(#linearGradient1139);fill-opacity:1.0;stroke-width:0.75" />
  <path
     d="m 27.995319,16.004679 c 0,0.203267 -0.08253,0.390751 -0.217503,0.532512 -0.142497,0.13574 -0.337506,0.217489 -0.532497,0.217489 -0.195008,0 -0.39,-0.08177 -0.532508,-0.217489 -0.277492,-0.269245 -0.277492,-0.780002 0,-1.065007 0.142508,-0.134995 0.3375,-0.217503 0.532508,-0.217503 0.194992,0 0.39,0.08255 0.532497,0.217503 0.134995,0.142497 0.217503,0.337506 0.217503,0.532495 z"
     id="path8-1"
     style="fill:#80b3ff;fill-opacity:1;stroke-width:0.75" />
  <path
     d="m 15.705074,13.758203 h -2.971091 l 1.655026,-1.655025 c 0.119655,-0.119646 0.119655,-0.309076 0,-0.418749 -0.119625,-0.11964 -0.309069,-0.11964 -0.418741,0 l -1.684927,1.664998 v -3.160506 c 0,-0.169492 -0.129608,-0.299101 -0.299114,-0.299101 -0.169487,0 -0.299095,0.129609 -0.299095,0.299101 v 3.120626 l -1.555325,-1.555326 c -0.119651,-0.11964 -0.309078,-0.11964 -0.418745,0 -0.119643,0.11964 -0.119643,0.309072 0,0.418744 l 1.57527,1.575263 H 8.18764 c -0.169493,0 -0.299099,0.129609 -0.299099,0.299101 0,0.169503 0.129606,0.299112 0.299099,0.299112 h 3.100692 l -1.57527,1.585238 c -0.119643,0.119631 -0.119643,0.309074 0,0.418743 0.05983,0.05978 0.13958,0.08978 0.209364,0.08978 0.06981,0 0.149551,-0.02992 0.209381,-0.08978 l 1.555325,-1.555344 v 3.120646 c 0,0.169492 0.129608,0.299105 0.299095,0.299105 0.169506,0 0.299114,-0.129613 0.299114,-0.299105 v -3.16051 l 1.5952,1.595209 c 0.05977,0.05978 0.139579,0.08978 0.209385,0.08978 0.06986,0 0.149554,-0.02993 0.209353,-0.08978 0.119658,-0.119658 0.119658,-0.309076 0,-0.418744 l -1.565296,-1.575277 h 2.981042 c 0.169491,0 0.299106,-0.12961 0.299106,-0.299092 0,-0.169494 -0.139568,-0.299108 -0.309057,-0.299107 z"
     id="path4-3-2"
     style="fill:url(#linearGradient1147);fill-opacity:1.0;stroke-width:0.0997105" />
  <path
     d="m 24.167355,18.68151 h -2.971069 l 1.655034,-1.655024 c 0.119627,-0.119646 0.119627,-0.309069 0,-0.418744 -0.119654,-0.119644 -0.309077,-0.119644 -0.418744,0 l -1.684955,1.664997 v -3.160508 c 0,-0.169491 -0.129602,-0.299102 -0.299101,-0.299102 -0.169479,0 -0.29909,0.129611 -0.29909,0.299102 v 3.120619 l -1.555333,-1.555316 c -0.119637,-0.119654 -0.309082,-0.119654 -0.418747,0 -0.11963,0.119627 -0.11963,0.309062 0,0.418733 l 1.575265,1.575288 h -3.100674 c -0.169505,0 -0.299115,0.129604 -0.299115,0.299086 0,0.169488 0.12961,0.299102 0.299115,0.299102 h 3.100674 l -1.575265,1.585251 c -0.11963,0.119622 -0.11963,0.309058 0,0.418727 0.05978,0.05977 0.139574,0.08979 0.209383,0.08979 0.06986,0 0.149547,-0.02987 0.209364,-0.08979 l 1.555333,-1.555315 v 3.120617 c 0,0.169502 0.129611,0.299115 0.29909,0.299115 0.169499,0 0.299101,-0.129613 0.299101,-0.299115 v -3.160499 l 1.595219,1.595198 c 0.05977,0.05977 0.139586,0.08979 0.209366,0.08979 0.06986,0 0.149557,-0.02987 0.209375,-0.08979 0.119639,-0.119628 0.119639,-0.30906 0,-0.418729 l -1.565295,-1.575274 h 2.981044 c 0.169494,0 0.299109,-0.1296 0.299109,-0.2991 0,-0.169495 -0.139593,-0.29911 -0.309084,-0.299109 z"
     id="path4-3-6"
     style="fill:url(#linearGradient1156);fill-opacity:1.0;stroke-width:0.0997105" />
</svg>
