<?xml version="1.0" encoding="UTF-8" standalone="no"?>
<svg
   inkscape:version="1.1.1 (3bf5ae0d25, 2021-09-20)"
   sodipodi:docname="system-log-out.svg"
   id="svg6"
   version="1.1"
   viewBox="0 0 32 32"
   xmlns:inkscape="http://www.inkscape.org/namespaces/inkscape"
   xmlns:sodipodi="http://sodipodi.sourceforge.net/DTD/sodipodi-0.dtd"
   xmlns:xlink="http://www.w3.org/1999/xlink"
   xmlns="http://www.w3.org/2000/svg"
   xmlns:svg="http://www.w3.org/2000/svg"
   xmlns:rdf="http://www.w3.org/1999/02/22-rdf-syntax-ns#"
   xmlns:cc="http://creativecommons.org/ns#"
   xmlns:dc="http://purl.org/dc/elements/1.1/">
  <metadata
     id="metadata10">
    <rdf:RDF>
      <cc:Work
         rdf:about="">
        <dc:format>image/svg+xml</dc:format>
        <dc:type
           rdf:resource="http://purl.org/dc/dcmitype/StillImage" />
      </cc:Work>
    </rdf:RDF>
  </metadata>
  <sodipodi:namedview
     inkscape:document-rotation="0"
     inkscape:lockguides="true"
     inkscape:current-layer="svg6"
     inkscape:window-maximized="1"
     inkscape:window-y="0"
     inkscape:window-x="0"
     inkscape:cy="22.535681"
     inkscape:cx="15.954464"
     inkscape:zoom="10.028541"
     showgrid="true"
     id="namedview8"
     inkscape:window-height="1013"
     inkscape:window-width="1920"
     inkscape:pageshadow="2"
     inkscape:pageopacity="0"
     guidetolerance="10"
     gridtolerance="10"
     objecttolerance="10"
     borderopacity="1"
     bordercolor="#666666"
     pagecolor="#ffffff"
     inkscape:pagecheckerboard="0">
    <inkscape:grid
       type="xygrid"
       id="grid883" />
  </sodipodi:namedview>
  <defs
     id="defs3051">
    <linearGradient
       inkscape:collect="always"
       id="linearGradient937">
      <stop
         style="stop-color:#8787de;stop-opacity:1"
         offset="0"
         id="stop933" />
      <stop
         style="stop-color:#ffccaa;stop-opacity:1"
         offset="1"
         id="stop935" />
    </linearGradient>
    <linearGradient
       inkscape:collect="always"
       id="linearGradient850">
      <stop
         style="stop-color:#8787de;stop-opacity:1"
         offset="0"
         id="stop846" />
      <stop
         style="stop-color:#ffccaa;stop-opacity:1"
         offset="1"
         id="stop848" />
    </linearGradient>
    <style
       id="current-color-scheme"
       type="text/css">
      .ColorScheme-Text {
        color:#eff0f1;
      }
      </style>
    <linearGradient
       inkscape:collect="always"
       xlink:href="#linearGradient937"
       id="linearGradient1112"
       x1="11.79367"
       y1="16.05044"
       x2="23.251207"
       y2="16.05044"
       gradientUnits="userSpaceOnUse"
       gradientTransform="matrix(0.92307681,0,0,0.92307681,1.230763,1.2307682)" />
    <linearGradient
       inkscape:collect="always"
       xlink:href="#linearGradient850"
       id="linearGradient1171"
       x1="15.19257"
       y1="3.8175781"
       x2="16.807417"
       y2="3.8175781"
       gradientUnits="userSpaceOnUse"
       gradientTransform="matrix(0.92307681,0,0,0.92307681,1.230763,1.2307682)" />
    <linearGradient
       inkscape:collect="always"
       xlink:href="#linearGradient937"
       id="linearGradient1153"
       x1="18.7031"
       y1="23.341211"
       x2="28.94301"
       y2="23.341211"
       gradientUnits="userSpaceOnUse"
       gradientTransform="matrix(0.92307681,0,0,0.92307681,0.95375,1.5075919)" />
    <linearGradient
       inkscape:collect="always"
       xlink:href="#linearGradient937"
       id="linearGradient852"
       gradientUnits="userSpaceOnUse"
       gradientTransform="matrix(0.92307681,0,0,0.92307681,1.230763,1.2307682)"
       x1="3"
       y1="16"
       x2="29"
       y2="16" />
  </defs>
  <path
     d="m 26.504686,16.004686 c 0,-0.20325 0.0825,-0.390745 0.217498,-0.532502 0.142502,-0.135744 0.337506,-0.217498 0.532502,-0.217498 0.195004,0 0.39,0.08179 0.532494,0.217498 0.277506,0.269252 0.277506,0.78 0,1.065 -0.142494,0.135 -0.33749,0.21749 -0.532494,0.21749 -0.194996,0 -0.39,-0.0825 -0.532502,-0.21749 -0.135004,-0.142498 -0.217498,-0.337494 -0.217498,-0.532498 z"
     id="path8-6"
     style="fill:#e6e6e6;stroke-width:0.75" />
  <path
     d="m 22.52423,15.774011 -9.971054,-4.834452 c -0.120866,-0.05739 -0.265906,-0.02716 -0.356546,0.06949 -0.09065,0.09975 -0.102763,0.247773 -0.0302,0.362588 l 2.91882,4.674317 -2.92184,4.674309 c -0.07253,0.114819 -0.0574,0.262877 0.0302,0.362572 0.0574,0.06358 0.142014,0.09976 0.22662,0.09976 0.04521,0 0.09065,-0.0089 0.132946,-0.03017 l 9.971074,-4.834492 c 0.102746,-0.05137 0.16921,-0.157117 0.16921,-0.271938 0,-0.114813 -0.0665,-0.220568 -0.16921,-0.271932 z"
     id="path2-3-1"
     style="fill:url(#linearGradient1112);fill-opacity:1.0;stroke-width:0.302144" />
  <path
     d="M 4,16 C 4,9.383496 9.383496,4 16,4 c 6.6165,0 12,5.383496 12,12 0,0.414 -0.336,0.75 -0.75,0.75 C 26.836,16.75 26.5,16.414 26.5,16 26.5,10.21 21.79,5.5 16,5.5 10.21,5.5 5.5,10.21 5.5,16 c 0,5.79 4.71,10.5 10.5,10.5 0.414,0 0.75,0.335243 0.75,0.75 C 16.75,27.664757 16.414,28 16,28 9.383496,28 4,22.616504 4,16 Z"
     id="path2-0"
     style="fill:url(#linearGradient852);fill-opacity:1;stroke-width:0.75" />
  <path
     d="m 15.254686,4.754688 c 0,-0.195 0.0825,-0.39 0.217498,-0.532501 0.142502,-0.135004 0.337506,-0.217499 0.532502,-0.217499 0.195004,0 0.39,0.08248 0.532494,0.217499 0.277506,0.284996 0.277506,0.78 0,1.064996 -0.142494,0.135004 -0.33749,0.217505 -0.532494,0.217505 -0.194996,0 -0.39,-0.08247 -0.532502,-0.217505 C 15.33718,5.144688 15.254686,4.949688 15.254686,4.754688 Z"
     id="path4-6"
     style="fill:url(#linearGradient1171);fill-opacity:1;stroke-width:0.75;opacity:0.01" />
  <path
     d="m 18.77321,26.300827 c 0.39749,-0.104994 0.81,0.135757 0.914996,0.532505 v 0 c 0.112494,0.404989 -0.127506,0.81 -0.524996,0.9225 v 0 c -0.405004,0.104994 -0.81,-0.135005 -0.92251,-0.5325 v 0 c -0.015,-0.06754 -0.0225,-0.1275 -0.0225,-0.195011 v 0 c 0,-0.33 0.2175,-0.637494 0.555004,-0.727494 z m 2.52749,-1.05 v 0.0074 c 0.36,-0.21 0.817506,-0.09002 1.027506,0.27 v 0 c 0.21,0.36 0.0825,0.817501 -0.277506,1.026755 v 0 c -0.352494,0.203245 -0.81749,0.0825 -1.02,-0.276755 v 0 c -0.06759,-0.12 -0.104994,-0.247496 -0.104994,-0.374994 v 0 c 0,-0.255752 0.134996,-0.51 0.374996,-0.652502 z m 2.175004,-1.665753 c 0.292502,-0.29249 0.764996,-0.29249 1.057506,0 v 0 c 0.292494,0.293247 0.292494,0.765753 0,1.05751 v 0 c 0,0 0,0 0,0.0074 v 0 c -0.29251,0.285698 -0.765004,0.285698 -1.057506,-0.0064 v 0 c -0.15,-0.141761 -0.217498,-0.337505 -0.217498,-0.525009 v 0 c 0,-0.194998 0.06759,-0.39 0.217498,-0.533245 z m 1.672502,-2.174247 c 0.202494,-0.36 0.667498,-0.480757 1.02,-0.27 v 0 c 0.36,0.202505 0.479988,0.66 0.277498,1.02 v 0 0 0 c -0.21,0.359243 -0.667498,0.48 -1.027498,0.277494 v 0 C 25.178194,22.295832 25.04321,22.047576 25.04321,21.785832 v 0 c 0,-0.127511 0.0375,-0.255005 0.104996,-0.375005 z M 26.1907,18.883332 v 0 c 0.11251,-0.3975 0.525004,-0.6375 0.92251,-0.532505 v 0 c 0.39749,0.105006 0.63749,0.516749 0.532494,0.915005 v 0 c 0,0 0,0 0,0.0074 v 0 c -0.112494,0.397529 -0.517498,0.630776 -0.922494,0.525027 v 0 c -0.33,-0.09014 -0.555004,-0.390125 -0.555004,-0.720125 v 0 c 0,-0.06756 0.007,-0.135006 0.0225,-0.195006 z"
     id="path6-2"
     style="fill:url(#linearGradient1153);fill-opacity:1.0;stroke-width:0.75" />
</svg>
