<?xml version="1.0" encoding="UTF-8" standalone="no"?>
<svg
   inkscape:version="1.1.1 (3bf5ae0d25, 2021-09-20)"
   sodipodi:docname="system-suspend.svg"
   id="svg5"
   version="1.1"
   viewBox="0 0 32 32"
   xmlns:inkscape="http://www.inkscape.org/namespaces/inkscape"
   xmlns:sodipodi="http://sodipodi.sourceforge.net/DTD/sodipodi-0.dtd"
   xmlns:xlink="http://www.w3.org/1999/xlink"
   xmlns="http://www.w3.org/2000/svg"
   xmlns:svg="http://www.w3.org/2000/svg"
   xmlns:rdf="http://www.w3.org/1999/02/22-rdf-syntax-ns#"
   xmlns:cc="http://creativecommons.org/ns#"
   xmlns:dc="http://purl.org/dc/elements/1.1/">
  <metadata
     id="metadata9">
    <rdf:RDF>
      <cc:Work
         rdf:about="">
        <dc:format>image/svg+xml</dc:format>
        <dc:type
           rdf:resource="http://purl.org/dc/dcmitype/StillImage" />
      </cc:Work>
    </rdf:RDF>
  </metadata>
  <sodipodi:namedview
     inkscape:document-rotation="0"
     inkscape:current-layer="svg5"
     inkscape:window-maximized="1"
     inkscape:window-y="0"
     inkscape:window-x="0"
     inkscape:cy="15.230038"
     inkscape:cx="-7.1919624"
     inkscape:zoom="14.182499"
     showgrid="true"
     id="namedview7"
     inkscape:window-height="1013"
     inkscape:window-width="1920"
     inkscape:pageshadow="2"
     inkscape:pageopacity="0"
     guidetolerance="10"
     gridtolerance="10"
     objecttolerance="10"
     borderopacity="1"
     bordercolor="#666666"
     pagecolor="#ffffff"
     inkscape:pagecheckerboard="0">
    <inkscape:grid
       type="xygrid"
       id="grid885" />
  </sodipodi:namedview>
  <defs
     id="defs3051">
    <linearGradient
       inkscape:collect="always"
       id="linearGradient1713">
      <stop
         style="stop-color:#ffe680;stop-opacity:1"
         offset="0"
         id="stop1709" />
      <stop
         style="stop-color:#a8a8d7;stop-opacity:1"
         offset="1"
         id="stop1711" />
    </linearGradient>
    <style
       id="current-color-scheme"
       type="text/css">
      .ColorScheme-Text {
        color:#eff0f1;
      }
      </style>
    <linearGradient
       inkscape:collect="always"
       xlink:href="#linearGradient1713"
       id="linearGradient1264"
       x1="5.8049669"
       y1="16.955212"
       x2="26.051907"
       y2="16.955212"
       gradientUnits="userSpaceOnUse"
       gradientTransform="matrix(0.92307695,0,0,0.92307695,1.230765,1.2307697)" />
    <linearGradient
       inkscape:collect="always"
       xlink:href="#linearGradient1713"
       id="linearGradient1272"
       x1="11.417979"
       y1="9.7363405"
       x2="15.19987"
       y2="9.7363405"
       gradientUnits="userSpaceOnUse"
       gradientTransform="matrix(0.92307695,0,0,0.92307695,1.230765,1.2307697)" />
    <linearGradient
       inkscape:collect="always"
       xlink:href="#linearGradient1713"
       id="linearGradient1288"
       x1="13.740612"
       y1="16.980581"
       x2="16.307249"
       y2="16.980581"
       gradientUnits="userSpaceOnUse"
       gradientTransform="matrix(0.92307695,0,0,0.92307695,1.230765,1.2307697)" />
    <linearGradient
       inkscape:collect="always"
       xlink:href="#linearGradient1713"
       id="linearGradient1280"
       x1="19.115932"
       y1="12.222935"
       x2="22.816736"
       y2="12.222935"
       gradientUnits="userSpaceOnUse"
       gradientTransform="matrix(0.92307695,0,0,0.92307695,1.230765,1.2307697)" />
    <linearGradient
       inkscape:collect="always"
       xlink:href="#linearGradient1713"
       id="linearGradient1296"
       x1="15.999999"
       y1="28.999998"
       x2="15.999999"
       y2="2.999999"
       gradientUnits="userSpaceOnUse"
       gradientTransform="matrix(0,0.92307695,-0.92307695,0,30.76923,1.2307697)" />
    <linearGradient
       inkscape:collect="always"
       xlink:href="#linearGradient1713"
       id="linearGradient1304"
       x1="18.345772"
       y1="8.5319853"
       x2="28.587978"
       y2="8.5319853"
       gradientUnits="userSpaceOnUse"
       gradientTransform="matrix(0,0.92307695,-0.92307695,0,30.87257,1.426673)" />
  </defs>
  <path
     d="m 21.1918,24.008302 c 2.129,-1.37496 3.52652,-3.473012 4.08689,-5.780209 -0.58713,0.625797 -1.2606,1.195156 -2.01881,1.684987 C 18.69868,22.858897 12.86758,21.859 10.23557,17.679653 8.3995,14.76412 8.60734,11.223045 10.4476,8.256249 6.452238,11.220145 5.374701,16.725203 8.08983,21.036694 c 2.82694,4.489026 8.69287,5.819515 13.10197,2.971608 z"
     id="path2-3-9"
     style="fill:url(#linearGradient1264);fill-opacity:1;stroke-width:0.322217"
     sodipodi:nodetypes="ccccccc" />
  <path
     d="m 12.29255,10.197892 c 0,0 0,0.039 0,0.07796 l -0.50681,1.013593 c -0.0391,0.039 0,0.116951 0.07798,0.116951 l 1.13056,-0.194919 c 0.0391,0 0.07798,0 0.07798,0.039 l 0.77968,0.818668 c 0.0391,0.03901 0.11696,0 0.15594,-0.039 l 0.15595,-1.130542 c 0,-0.039 0.0391,-0.039 0.0391,-0.07796 l 1.013577,-0.506784 c 0.07801,-0.03899 0.0391,-0.116953 0,-0.15594 L 14.163891,9.6521062 c -0.0391,0 -0.0391,-0.03899 -0.0391,-0.03899 l -0.15594,-1.13054 c 0,-0.116952 -0.07799,-0.155938 -0.11696,-0.116952 l -0.779658,0.8186654 c -0.0391,0 -0.0391,0.038988 -0.07794,0.038988 l -1.13057,-0.194925 c -0.078,0 -0.11694,0.03899 -0.078,0.116953 z"
     id="path6-3-3"
     style="fill:url(#linearGradient1272);fill-opacity:1.0;stroke-width:0.389852" />
  <path
     d="m 14.26876,16.891407 c 0,0 0,0.0265 0,0.05294 l -0.34392,0.687869 c -0.0265,0.02648 0,0.07941 0.0529,0.07941 l 0.76723,-0.132273 c 0.0265,0 0.0529,0 0.0529,0.02647 l 0.52912,0.555582 c 0.0265,0.02647 0.0794,0 0.10582,-0.02651 l 0.10583,-0.767247 c 0,-0.0265 0.0265,-0.0265 0.0265,-0.05294 l 0.68787,-0.343922 c 0.0529,-0.02651 0.0265,-0.07941 0,-0.10583 l -0.71433,-0.343931 c -0.0265,0 -0.0265,-0.02651 -0.0265,-0.02651 L 15.406331,15.72727 c 0,-0.07942 -0.0529,-0.105826 -0.0794,-0.07942 l -0.52909,0.555593 c -0.0265,0 -0.0265,0.02647 -0.0529,0.02647 l -0.76724,-0.132296 c -0.0529,0 -0.0794,0.0265 -0.0529,0.07941 z"
     id="path6-6-6"
     style="fill:url(#linearGradient1288);fill-opacity:1.0;stroke-width:0.264578" />
  <path
     d="m 18.91084,13.853937 c 0.0694,0.167936 0.23304,0.27745 0.41481,0.27745 h 2.51714 c 0.24842,0 0.44959,-0.20117 0.44959,-0.449395 0,-0.2482 -0.20135,-0.449175 -0.44959,-0.449175 h -1.43182 l 1.5696,-1.569991 c 0.12885,-0.128664 0.16718,-0.322046 0.09773,-0.489992 -0.0694,-0.167947 -0.23343,-0.277262 -0.41522,-0.277262 h -2.33761 c -0.24805,0 -0.449199,0.201355 -0.449199,0.449385 0,0.248033 0.20136,0.449381 0.449199,0.449381 h 1.25211 l -1.569789,1.569803 c -0.128661,0.128671 -0.167021,0.321851 -0.09697,0.489796 z"
     id="path4-7"
     style="fill:url(#linearGradient1280);fill-opacity:1.0;stroke-width:0.189765" />
  <path
     d="M 4,16 C 4,9.3835 9.38351,4 16,4 c 6.6165,0 12,5.3835 12,12 0,0.414 -0.336,0.75 -0.75,0.75 C 26.836,16.75 26.5,16.414 26.5,16 26.5,10.21 21.79,5.5 16,5.5 10.21,5.5 5.5,10.21 5.5,16 c 0,5.79 4.71,10.5 10.5,10.5 0.414,0 0.75,0.33524 0.75,0.75 C 16.75,27.66476 16.414,28 16,28 9.38351,28 4,22.616493 4,16 Z"
     id="path2-2"
     style="fill:url(#linearGradient1296);fill-opacity:1.0;stroke-width:0.75" />
  <path
     d="m 18.82584,26.335909 c 0.39749,-0.10501 0.81001,0.135735 0.915,0.532493 v 0 c 0.11249,0.404998 -0.12751,0.81 -0.525,0.922497 v 0 c -0.405,0.10501 -0.81,-0.13499 -0.92251,-0.532497 v 0 c -0.0151,-0.0676 -0.0226,-0.127503 -0.0226,-0.195002 v 0 c 0,-0.33 0.21749,-0.637491 0.55499,-0.727491 z m 2.52749,-1.05 v 0.0085 c 0.36,-0.21 0.8175,-0.08997 1.02751,0.27 v 0 c 0.20999,0.359654 0.0826,0.817154 -0.27751,1.02641 v 0 c -0.35249,0.203244 -0.81748,0.08262 -1.02,-0.276756 v 0 c -0.0675,-0.12 -0.10499,-0.247501 -0.10499,-0.375002 v 0 c 0,-0.255742 0.13499,-0.51 0.37499,-0.652499 z m 2.17501,-1.665755 c 0.2925,-0.29251 0.76499,-0.29251 1.0575,0 v 0 c 0.2925,0.293246 0.2925,0.765755 0,1.05749 v 0 c 0,0 0,0 0,0.0085 v 0 c -0.29251,0.285777 -0.765,0.285777 -1.0575,-0.0076 v 0 c -0.15,-0.141758 -0.21751,-0.337512 -0.21751,-0.525008 v 0 c 0,-0.195002 0.0675,-0.39 0.21751,-0.533247 z m 1.67249,-2.174245 c 0.2025,-0.36 0.66751,-0.48076 1.02001,-0.27 v 0 c 0.360001,0.202493 0.479991,0.66 0.2775,1.02 v 0 0 0 c -0.21,0.35924 -0.6675,0.48 -1.0275,0.277491 v 0 c -0.24001,-0.142501 -0.37499,-0.390731 -0.37499,-0.652501 v 0 c 0,-0.127499 0.0374,-0.25499 0.10498,-0.37499 z m 1.042501,-2.527507 v 0 c 0.112508,-0.397503 0.525008,-0.637503 0.922515,-0.532493 v 0 c 0.39749,0.10499 0.637492,0.51676 0.532492,0.91499 v 0 c 0,0 0,0 0,0.0085 v 0 c -0.112493,0.397499 -0.517506,0.630747 -0.9225,0.524996 v 0 c -0.329989,-0.08995 -0.554998,-0.39 -0.554998,-0.72 v 0 c 0,-0.06759 0.008,-0.134996 0.02259,-0.194996 z"
     id="path6-7"
     style="fill:url(#linearGradient1304);fill-opacity:1.0;stroke-width:0.75" />
</svg>
