<?xml version="1.0" encoding="UTF-8" standalone="no"?>
<svg
   width="22"
   height="22"
   version="1.1"
   id="svg1"
   sodipodi:docname="applications-all-symbolic.svg"
   inkscape:version="1.3.2 (091e20ef0f, 2023-11-25)"
   xmlns:inkscape="http://www.inkscape.org/namespaces/inkscape"
   xmlns:sodipodi="http://sodipodi.sourceforge.net/DTD/sodipodi-0.dtd"
   xmlns:xlink="http://www.w3.org/1999/xlink"
   xmlns="http://www.w3.org/2000/svg"
   xmlns:svg="http://www.w3.org/2000/svg">
  <defs
     id="defs1">
    <linearGradient
       id="linearGradient1"
       inkscape:collect="always">
      <stop
         style="stop-color:#9955ff;stop-opacity:1"
         offset="0"
         id="stop1" />
      <stop
         style="stop-color:#cd87de;stop-opacity:1"
         offset="1"
         id="stop2" />
    </linearGradient>
    <linearGradient
       inkscape:collect="always"
       xlink:href="#linearGradient1"
       id="linearGradient2"
       x1="33"
       y1="21"
       x2="53"
       y2="21"
       gradientUnits="userSpaceOnUse"
       gradientTransform="translate(-32,-9.9999997)" />
    <linearGradient
       inkscape:collect="always"
       xlink:href="#linearGradient1"
       id="linearGradient9"
       x1="18.065701"
       y1="11.244982"
       x2="4.9959435"
       y2="11"
       gradientUnits="userSpaceOnUse" />
    <linearGradient
       inkscape:collect="always"
       xlink:href="#linearGradient1"
       id="linearGradient10"
       gradientUnits="userSpaceOnUse"
       x1="5"
       y1="11"
       x2="17.000055"
       y2="11" />
    <linearGradient
       inkscape:collect="always"
       xlink:href="#linearGradient1"
       id="linearGradient11"
       gradientUnits="userSpaceOnUse"
       x1="5.0816612"
       y1="10.673357"
       x2="17.408358"
       y2="10.591697" />
  </defs>
  <sodipodi:namedview
     id="namedview1"
     pagecolor="#ffffff"
     bordercolor="#999999"
     borderopacity="1"
     inkscape:showpageshadow="2"
     inkscape:pageopacity="0"
     inkscape:pagecheckerboard="0"
     inkscape:deskcolor="#d1d1d1"
     inkscape:zoom="12.245804"
     inkscape:cx="10.942524"
     inkscape:cy="17.883677"
     inkscape:window-width="1920"
     inkscape:window-height="996"
     inkscape:window-x="0"
     inkscape:window-y="0"
     inkscape:window-maximized="1"
     inkscape:current-layer="svg1" />
  <style
     type="text/css"
     id="current-color-scheme">.ColorScheme-Text { color:#f2f2f2; }
.ColorScheme-Background { color:#E9E8E8; }
.ColorScheme-ViewText { color:#31363b; }
.ColorScheme-ViewBackground { color:#ffffff; }
.ColorScheme-ViewHover { color:#000000; }
.ColorScheme-ViewFocus { color:#5a5a5a; }
.ColorScheme-ButtonText { color:#31363b; }
.ColorScheme-ButtonBackground { color:#E9E8E8; }
.ColorScheme-ButtonHover { color:#1489ff; }
.ColorScheme-ButtonFocus { color: #2B74C7; }
</style>
  <path
     style="clip-rule:evenodd;fill:#ffffc1;fill-opacity:0;fill-rule:evenodd;stroke-width:0.688964;stroke-linejoin:round;stroke-miterlimit:1.41421"
     d="M 0,0 V 22 H 22 V 0 Z"
     id="rect817-5-5"
     inkscape:connector-curvature="0" />
  <path
     style="fill:url(#linearGradient2);fill-opacity:1;stroke-width:1.25"
     d="M 11,1.0000003 C 5.47,1.0000003 1,5.4700003 1,11 1,16.53 5.47,21.000001 11,21.000001 16.53,21.000001 21,16.53 21,11 21,5.4700003 16.53,1.0000003 11,1.0000003 Z m 0,1.45 c 4.837483,0 8.55,3.7125 8.55,8.5499997 0,4.837484 -3.712517,8.55 -8.55,8.55 C 6.162483,19.55 2.45,15.837484 2.45,11 2.45,6.1625003 6.162483,2.4500003 11,2.4500003 Z m 0.937483,6.948748 v 0 0 0 0 0 c 0,0 -0.04242,0.01 0,0 z"
     id="path58-0"
     sodipodi:nodetypes="ssssssssssccccccc"
     class="ColorScheme-Text " />
  <g
     id="g7"
     style="fill:url(#linearGradient9)">
    <path
       d="M 7.742636,5.0000603 H 7.399382 C 6.074252,5.0000603 5,6.0744823 5,7.3998743 v 0.343308 c 0,0.636596 0.252938,1.247136 0.703065,1.697133 0.450173,0.450082 1.060628,0.7028087 1.69713,0.7025517 H 10.14278 V 7.3998563 c 0,-0.636596 -0.252814,-1.247135 -0.702977,-1.697303 C 8.989843,5.2527703 8.379611,5.0000423 7.743439,5.0000423 H 7.74258"
       stroke-width="0.428573"
       id="path2618-3"
       style="fill:url(#linearGradient10);fill-opacity:1"
       class="ColorScheme-Text" />
    <path
       d="m 7.399782,11.857159 c -0.636562,0 -1.247227,0.252932 -1.697224,0.70311 -0.450033,0.450125 -0.702725,1.060621 -0.702548,1.697132 v 0.343249 c 0,0.636296 0.252858,1.246621 0.702855,1.696617 C 6.1529,16.747178 6.763313,17 7.399732,17 h 0.343617 c 0.636595,0 1.247048,-0.253052 1.697044,-0.703247 0.449998,-0.45004 0.702598,-1.060536 0.702468,-1.697046 v -2.742582 z"
       stroke-width="0.428573"
       id="path2620-6"
       style="fill:url(#linearGradient11);fill-opacity:1"
       class="ColorScheme-Text" />
    <path
       d="m 14.599728,11.857159 h -2.742496 v 2.743439 c 0,0.636502 0.252885,1.246793 0.703068,1.696789 0.45015,0.449989 1.060615,0.702715 1.69713,0.702501 h 0.343241 c 0.636292,0 1.246627,-0.252812 1.696624,-0.702715 0.449903,-0.449988 0.702761,-1.060279 0.702761,-1.696618 v -0.34324 c 0,-0.636716 -0.252581,-1.247221 -0.702761,-1.697475 -0.449987,-0.449911 -1.060369,-0.702673 -1.696624,-0.702715 h -8.51e-4"
       stroke-width="0.428573"
       id="path2622-7"
       style="fill:url(#linearGradient9);fill-opacity:1"
       class="ColorScheme-Text" />
    <path
       d="m 14.256874,5.0000603 h -5.99e-4 c -0.636467,0 -1.246874,0.253002 -1.696954,0.703153 -0.44996,0.450168 -0.702725,1.060622 -0.702431,1.697045 v 2.7425837 h 2.743019 c 0.636595,0 1.247047,-0.2528827 1.697127,-0.7030667 0.450127,-0.450169 0.702808,-1.060622 0.702641,-1.697218 v -0.343259 c 0,-1.325134 -1.074428,-2.399298 -2.399818,-2.399298 h -0.343298 z"
       stroke-width="0.428573"
       id="path2624-5"
       style="fill:url(#linearGradient9);fill-opacity:1"
       class="ColorScheme-Text " />
  </g>
</svg>
