<?xml version="1.0" encoding="UTF-8" standalone="no"?>
<svg
   id="svg4306"
   width="22"
   height="22"
   version="1.1"
   style="enable-background:new"
   sodipodi:docname="keepabove.svg"
   inkscape:version="1.3.2 (091e20ef0f, 2023-11-25)"
   xmlns:inkscape="http://www.inkscape.org/namespaces/inkscape"
   xmlns:sodipodi="http://sodipodi.sourceforge.net/DTD/sodipodi-0.dtd"
   xmlns="http://www.w3.org/2000/svg"
   xmlns:svg="http://www.w3.org/2000/svg"
   xmlns:rdf="http://www.w3.org/1999/02/22-rdf-syntax-ns#"
   xmlns:cc="http://creativecommons.org/ns#"
   xmlns:dc="http://purl.org/dc/elements/1.1/">
  <g
     id="pressed-inactive-center"
     transform="translate(44,22)">
    <rect
       style="opacity:0.00100002;fill:#000000;fill-opacity:1;fill-rule:nonzero;stroke:none;stroke-width:2;stroke-linecap:round;stroke-linejoin:round;stroke-miterlimit:4;stroke-dasharray:none;stroke-opacity:1"
       y="0"
       x="0"
       height="22"
       width="22"
       id="rect4266-3-6-5" />
    <rect
       width="18.73226"
       height="16.732256"
       rx="2.4976349"
       ry="2.5741944"
       x="1.63387"
       y="2.6338701"
       id="rect3000-9-3-5-7-9"
       style="color:#000000;display:inline;overflow:visible;visibility:visible;fill:#9191bb;fill-opacity:1;stroke:#000405;stroke-width:1.26774;stroke-opacity:1;marker:none;enable-background:accumulate" />
    <path
       d="m 17.040631,16.4 a 0.48279725,0.48278859 0 0 1 -0.341176,-0.141622 l -5.69379,-5.693683 -5.6937899,5.693683 A 0.48279725,0.48278859 0 0 1 4.6295223,15.576044 L 10.664497,9.541188 a 0.48279725,0.48278859 0 0 1 0.682339,0 l 6.034968,6.034856 A 0.48279725,0.48278859 0 0 1 17.040631,16.4 Z"
       id="path4-3-3-3"
       style="fill:#000405;fill-opacity:1;stroke-width:0.160928;enable-background:new" />
    <path
       d="M 17.040634,11.5 A 0.48279778,0.48278848 0 0 1 16.699458,11.358376 L 11.005657,5.6646935 5.3118627,11.358376 A 0.48279778,0.48278848 0 0 1 4.6295092,10.676044 L 10.664492,4.6411871 a 0.48279778,0.48278848 0 0 1 0.682336,0 l 6.034979,6.0348569 A 0.48279778,0.48278848 0 0 1 17.040634,11.5 Z"
       id="path4-36-5-6"
       style="fill:#000405;fill-opacity:1;stroke-width:0.160929;enable-background:new" />
  </g>
  <g
     id="hover-inactive-center"
     transform="translate(22,22)">
    <rect
       id="rect4266-3-67"
       width="22"
       height="22"
       x="0"
       y="0"
       style="opacity:0.00100002;fill:#000000;fill-opacity:1;fill-rule:nonzero;stroke:none;stroke-width:2;stroke-linecap:round;stroke-linejoin:round;stroke-miterlimit:4;stroke-dasharray:none;stroke-opacity:1" />
    <rect
       width="18.73226"
       height="16.732256"
       rx="2.4976349"
       ry="2.5741944"
       x="1.63387"
       y="2.6338701"
       id="rect3000-9-3-5-7-9-9"
       style="color:#000000;display:inline;overflow:visible;visibility:visible;fill:#9191bb;fill-opacity:1;stroke:#000405;stroke-width:1.26774;stroke-opacity:1;marker:none;enable-background:accumulate" />
    <path
       d="M 17.140635,16.4 A 0.4827972,0.48278849 0 0 1 16.799457,16.258378 L 11.105665,10.564695 5.4118758,16.258378 A 0.4827972,0.48278849 0 0 1 4.7295231,15.576044 L 10.764497,9.5411881 a 0.4827972,0.48278849 0 0 1 0.682341,0 l 6.034969,6.0348559 A 0.4827972,0.48278849 0 0 1 17.140635,16.4 Z"
       id="path4-3-3-3-2"
       style="fill:#ffffff;fill-opacity:1;stroke-width:0.160927;enable-background:new" />
    <path
       d="M 17.140632,11.5 A 0.48279731,0.48278887 0 0 1 16.799454,11.358379 L 11.10566,5.6646935 5.4118703,11.358379 A 0.48279731,0.48278887 0 0 1 4.7295177,10.676045 L 10.764495,4.6411867 a 0.48279731,0.48278887 0 0 1 0.682334,0 l 6.034979,6.0348583 A 0.48279731,0.48278887 0 0 1 17.140632,11.5 Z"
       id="path4-36-5-6-0"
       style="fill:#ffffff;fill-opacity:1;stroke-width:0.160929;enable-background:new" />
  </g>
  <g
     id="hover-center"
     transform="translate(22)">
    <rect
       style="opacity:0.00100002;fill:#000000;fill-opacity:1;fill-rule:nonzero;stroke:none;stroke-width:2;stroke-linecap:round;stroke-linejoin:round;stroke-miterlimit:4;stroke-dasharray:none;stroke-opacity:1"
       y="0"
       x="0"
       height="22"
       width="22"
       id="rect4266-3" />
    <rect
       width="18.73226"
       height="16.732256"
       rx="2.4976349"
       ry="2.5741944"
       x="1.63387"
       y="2.6338701"
       id="rect3000-9-3-5-7-61"
       style="color:#000000;display:inline;overflow:visible;visibility:visible;fill:#9191bb;fill-opacity:1;stroke:#31314f;stroke-width:1.26774;stroke-opacity:1;marker:none;enable-background:accumulate" />
    <path
       d="M 17.140634,16.451998 A 0.48279724,0.48278853 0 0 1 16.799458,16.310376 L 11.105667,10.616693 5.4118758,16.310376 A 0.48279724,0.48278853 0 0 1 4.729523,15.628042 l 6.034976,-6.0348561 a 0.48279724,0.48278853 0 0 1 0.682339,0 l 6.034969,6.0348561 a 0.48279724,0.48278853 0 0 1 -0.341173,0.823956 z"
       id="path4-3-3-8"
       style="fill:#ffffff;fill-opacity:1;stroke-width:0.160928;enable-background:new" />
    <path
       d="M 17.140632,11.628 A 0.48279751,0.48278875 0 0 1 16.799456,11.486378 L 11.10566,5.7926921 5.4118697,11.486378 A 0.48279751,0.48278875 0 0 1 4.7295171,10.804044 L 10.764496,4.7691854 a 0.48279751,0.48278875 0 0 1 0.682332,0 l 6.03498,6.0348586 A 0.48279751,0.48278875 0 0 1 17.140632,11.628 Z"
       id="path4-36-5-7"
       style="fill:#ffffff;fill-opacity:1;stroke-width:0.160928;enable-background:new" />
  </g>
  <metadata
     id="metadata28">
    <rdf:RDF>
      <cc:Work
         rdf:about="">
        <dc:format>image/svg+xml</dc:format>
        <dc:type
           rdf:resource="http://purl.org/dc/dcmitype/StillImage" />
      </cc:Work>
    </rdf:RDF>
  </metadata>
  <defs
     id="defs26" />
  <sodipodi:namedview
     inkscape:document-rotation="0"
     pagecolor="#ffffff"
     bordercolor="#666666"
     borderopacity="1"
     objecttolerance="10"
     gridtolerance="10"
     guidetolerance="10"
     inkscape:pageopacity="0"
     inkscape:pageshadow="2"
     inkscape:window-width="1870"
     inkscape:window-height="994"
     id="namedview24"
     showgrid="false"
     inkscape:zoom="11.313709"
     inkscape:cx="36.681163"
     inkscape:cy="24.218406"
     inkscape:window-x="50"
     inkscape:window-y="0"
     inkscape:window-maximized="1"
     inkscape:current-layer="svg4306"
     inkscape:snap-bbox="true"
     inkscape:bbox-nodes="true"
     inkscape:lockguides="false"
     showguides="false"
     inkscape:pagecheckerboard="0"
     inkscape:showpageshadow="2"
     inkscape:deskcolor="#d1d1d1">
    <inkscape:grid
       type="xygrid"
       id="grid853"
       originx="0"
       originy="0"
       spacingy="1"
       spacingx="1"
       units="px"
       visible="false" />
  </sodipodi:namedview>
  <style
     type="text/css"
     id="current-color-scheme" />
  <g
     id="inactive-center">
    <rect
       style="opacity:0.00100002;fill:#000000;fill-opacity:1;fill-rule:nonzero;stroke:none;stroke-width:2;stroke-linecap:round;stroke-linejoin:round;stroke-miterlimit:4;stroke-dasharray:none;stroke-opacity:1"
       y="22"
       x="0"
       height="22"
       width="22"
       id="rect4266-9" />
    <rect
       width="18.73226"
       height="16.732256"
       rx="2.4976349"
       ry="2.5741944"
       x="1.63387"
       y="24.633869"
       id="rect3000-9-3-5-7"
       style="color:#000000;display:inline;overflow:visible;visibility:visible;fill:none;fill-opacity:0.01;stroke:#000405;stroke-width:1.26774;stroke-opacity:1;marker:none;enable-background:accumulate" />
    <path
       d="M 17.040637,38.399999 A 0.48279738,0.48278849 0 0 1 16.699459,38.258378 L 11.005662,32.564699 5.3118722,38.258378 A 0.48279738,0.48278849 0 0 1 4.6295207,37.576043 L 10.66449,31.541191 a 0.48279738,0.48278849 0 0 1 0.682348,0 l 6.034969,6.034852 a 0.48279738,0.48278849 0 0 1 -0.34117,0.823956 z"
       id="path4-3-3"
       style="fill:#7171a7;fill-opacity:1;stroke-width:0.160927;enable-background:new;opacity:0.6" />
    <path
       d="M 17.040636,33.499997 A 0.48279614,0.48278851 0 0 1 16.699457,33.35838 L 11.005675,27.664698 5.3119015,33.35838 A 0.48279614,0.48278851 0 0 1 4.6295513,32.676041 L 10.664503,26.64119 a 0.48279614,0.48278851 0 0 1 0.682351,0 l 6.034953,6.034851 a 0.48279614,0.48278851 0 0 1 -0.341171,0.823956 z"
       id="path4-36-5"
       style="fill:#7171a7;fill-opacity:1;stroke-width:0.160927;enable-background:new;opacity:0.6" />
  </g>
  <g
     id="pressed-center"
     transform="translate(44)">
    <rect
       id="rect4266-3-6"
       width="22"
       height="22"
       x="0"
       y="0"
       style="opacity:0.00100002;fill:#000000;fill-opacity:1;fill-rule:nonzero;stroke:none;stroke-width:2;stroke-linecap:round;stroke-linejoin:round;stroke-miterlimit:4;stroke-dasharray:none;stroke-opacity:1" />
    <rect
       width="18.73226"
       height="16.732256"
       rx="2.4976349"
       ry="2.5741944"
       x="1.63387"
       y="2.6338701"
       id="rect3000-9-3-5-7-1"
       style="color:#000000;display:inline;overflow:visible;visibility:visible;fill:#ffb380;fill-opacity:1;stroke:#000405;stroke-width:1.26774;stroke-opacity:1;marker:none;enable-background:accumulate" />
    <path
       d="M 17.040631,16.452 A 0.48279713,0.48278855 0 0 1 16.699458,16.310379 L 11.005667,10.616694 5.3118791,16.310379 A 0.48279713,0.48278855 0 0 1 4.6295269,15.628044 L 10.6645,9.5931878 a 0.48279713,0.48278855 0 0 1 0.682338,0 l 6.034969,6.0348562 A 0.48279713,0.48278855 0 0 1 17.040631,16.452 Z"
       id="path4-3-3-27"
       style="fill:#ffffff;fill-opacity:1;stroke-width:0.160929;enable-background:new" />
    <path
       d="M 17.040632,11.628 A 0.48279708,0.48278855 0 0 1 16.699457,11.486379 L 11.005666,5.7926941 5.3118803,11.486379 A 0.48279708,0.48278855 0 0 1 4.629528,10.804044 l 6.034973,-6.0348563 a 0.48279708,0.48278855 0 0 1 0.682338,0 l 6.034968,6.0348563 A 0.48279708,0.48278855 0 0 1 17.040632,11.628 Z"
       id="path4-36-5-0"
       style="fill:#ffffff;fill-opacity:1;stroke-width:0.160928;enable-background:new" />
  </g>
  <g
     id="active-center">
    <rect
       id="rect4266"
       width="22"
       height="22"
       x="0"
       y="0"
       style="opacity:0.00100002;fill:#000000;fill-opacity:1;fill-rule:nonzero;stroke:none;stroke-width:2;stroke-linecap:round;stroke-linejoin:round;stroke-miterlimit:4;stroke-dasharray:none;stroke-opacity:1" />
    <rect
       width="18.73226"
       height="16.732256"
       rx="2.4976349"
       ry="2.5741944"
       x="1.63387"
       y="2.6338701"
       id="rect3000-9-3-5-7-0"
       style="color:#000000;display:inline;overflow:visible;visibility:visible;fill:none;fill-opacity:0.01;stroke:#31314f;stroke-width:1.26774;stroke-opacity:1;marker:none;enable-background:accumulate" />
    <path
       d="M 17.040634,16.452 A 0.4827982,0.48278855 0 0 1 16.699456,16.310378 L 11.00565,10.616694 5.3118557,16.310378 A 0.4827982,0.48278855 0 0 1 4.6295016,15.628047 L 10.664483,9.5931893 a 0.4827982,0.48278855 0 0 1 0.682344,0 L 17.38181,15.628047 A 0.4827982,0.48278855 0 0 1 17.040634,16.452 Z"
       id="path4-3-3-6"
       style="fill:#ffb380;fill-opacity:1;stroke-width:0.160927;enable-background:new" />
    <path
       d="M 17.04063,11.628 A 0.48279693,0.48278841 0 0 1 16.699455,11.486378 L 11.005663,5.7926957 5.3118823,11.486378 A 0.48279693,0.48278841 0 0 1 4.6295301,10.804043 L 10.664497,4.7691897 a 0.48279693,0.48278841 0 0 1 0.682343,0 l 6.034966,6.0348533 A 0.48279693,0.48278841 0 0 1 17.04063,11.628 Z"
       id="path4-36-5-2"
       style="fill:#ffb380;fill-opacity:1;stroke-width:0.160927;enable-background:new" />
  </g>
</svg>
