<?xml version="1.0" encoding="UTF-8" standalone="no"?>
<svg
   id="svg4306"
   width="22"
   height="22"
   version="1.1"
   style="enable-background:new"
   sodipodi:docname="minimize.svg"
   inkscape:version="1.1.1 (3bf5ae0d25, 2021-09-20)"
   xmlns:inkscape="http://www.inkscape.org/namespaces/inkscape"
   xmlns:sodipodi="http://sodipodi.sourceforge.net/DTD/sodipodi-0.dtd"
   xmlns="http://www.w3.org/2000/svg"
   xmlns:svg="http://www.w3.org/2000/svg"
   xmlns:rdf="http://www.w3.org/1999/02/22-rdf-syntax-ns#"
   xmlns:cc="http://creativecommons.org/ns#"
   xmlns:dc="http://purl.org/dc/elements/1.1/">
  <g
     id="pressed-inactive-center"
     transform="translate(44,22)">
    <rect
       style="opacity:0.00100002;fill:#000000;fill-opacity:1;fill-rule:nonzero;stroke:none;stroke-width:2;stroke-linecap:round;stroke-linejoin:round;stroke-miterlimit:4;stroke-dasharray:none;stroke-opacity:1"
       y="0"
       x="0"
       height="22"
       width="22"
       id="rect4266-3-6-5" />
    <rect
       width="18.73226"
       height="16.732256"
       rx="2.4976349"
       ry="2.5741944"
       x="1.63387"
       y="2.6338682"
       id="rect3000-9-3-3-6-9"
       style="color:#000000;display:inline;overflow:visible;visibility:visible;fill:#ffd42a;fill-opacity:1;stroke:#000405;stroke-width:1.26774;stroke-opacity:1;marker:none;enable-background:accumulate" />
    <path
       d="m 4.9823559,8 a 0.48278835,0.48278835 0 0 1 0.341174,0.141622 l 5.6936871,5.693682 5.69368,-5.693682 a 0.48278835,0.48278835 0 0 1 0.68234,0.682335 l -6.034856,6.034853 a 0.48278835,0.48278835 0 0 1 -0.682334,0 L 4.6411889,8.823957 A 0.48278835,0.48278835 0 0 1 4.9823559,8 Z"
       id="path4-3-3-7-1"
       style="fill:#001723;fill-opacity:1;stroke-width:0.160926;enable-background:new" />
  </g>
  <g
     id="hover-inactive-center"
     transform="translate(22,22)">
    <rect
       id="rect4266-3-67"
       width="22"
       height="22"
       x="0"
       y="0"
       style="opacity:0.00100002;fill:#000000;fill-opacity:1;fill-rule:nonzero;stroke:none;stroke-width:2;stroke-linecap:round;stroke-linejoin:round;stroke-miterlimit:4;stroke-dasharray:none;stroke-opacity:1" />
    <rect
       width="18.73226"
       height="16.732256"
       rx="2.4976349"
       ry="2.5741944"
       x="1.63387"
       y="2.6338701"
       id="rect3000-9-3-3-6-2"
       style="color:#000000;display:inline;overflow:visible;visibility:visible;fill:#ffdd55;fill-opacity:0.5;stroke:#000405;stroke-width:1.26774;stroke-opacity:1;marker:none;enable-background:accumulate" />
    <path
       d="m 4.9823621,8.000001 a 0.48278835,0.48278835 0 0 1 0.341174,0.141622 l 5.6936869,5.693682 5.693684,-5.693682 a 0.48278835,0.48278835 0 0 1 0.682339,0.682335 l -6.034859,6.034853 a 0.48278835,0.48278835 0 0 1 -0.682334,0 L 4.6411951,8.823958 a 0.48278835,0.48278835 0 0 1 0.341167,-0.823957 z"
       id="path4-3-3-7-7"
       style="fill:#ffffff;fill-opacity:1;stroke-width:0.160926;enable-background:new" />
  </g>
  <metadata
     id="metadata28">
    <rdf:RDF>
      <cc:Work
         rdf:about="">
        <dc:format>image/svg+xml</dc:format>
        <dc:type
           rdf:resource="http://purl.org/dc/dcmitype/StillImage" />
      </cc:Work>
    </rdf:RDF>
  </metadata>
  <defs
     id="defs26" />
  <sodipodi:namedview
     inkscape:document-rotation="0"
     pagecolor="#ffffff"
     bordercolor="#666666"
     borderopacity="1"
     objecttolerance="10"
     gridtolerance="10"
     guidetolerance="10"
     inkscape:pageopacity="0"
     inkscape:pageshadow="2"
     inkscape:window-width="1920"
     inkscape:window-height="1013"
     id="namedview24"
     showgrid="false"
     inkscape:zoom="8"
     inkscape:cx="32.625"
     inkscape:cy="27.375"
     inkscape:window-x="0"
     inkscape:window-y="0"
     inkscape:window-maximized="1"
     inkscape:current-layer="svg4306"
     inkscape:snap-bbox="true"
     inkscape:bbox-nodes="true"
     inkscape:lockguides="false"
     inkscape:pagecheckerboard="0">
    <inkscape:grid
       type="xygrid"
       id="grid853"
       originx="0"
       originy="0" />
  </sodipodi:namedview>
  <style
     type="text/css"
     id="current-color-scheme" />
  <g
     id="inactive-center"
     transform="translate(44,22)">
    <rect
       style="opacity:0.00100002;fill:#000000;fill-opacity:1;fill-rule:nonzero;stroke:none;stroke-width:2;stroke-linecap:round;stroke-linejoin:round;stroke-miterlimit:4;stroke-dasharray:none;stroke-opacity:1"
       y="0"
       x="-44"
       height="22"
       width="22"
       id="rect4266-9" />
    <rect
       width="18.73226"
       height="16.732256"
       rx="2.4976349"
       ry="2.5741944"
       x="-42.366131"
       y="2.6338692"
       id="rect3000-9-3-3"
       style="color:#000000;display:inline;overflow:visible;visibility:visible;fill:none;fill-opacity:0.01;stroke:#000405;stroke-width:1.26774;stroke-opacity:1;marker:none;enable-background:accumulate" />
    <path
       d="m -39.017642,8 a 0.48278835,0.48278835 0 0 1 0.341174,0.141622 l 5.693687,5.693682 5.693684,-5.693682 a 0.48278835,0.48278835 0 0 1 0.682339,0.682335 l -6.034859,6.034853 a 0.48278835,0.48278835 0 0 1 -0.682334,0 L -39.358809,8.823957 A 0.48278835,0.48278835 0 0 1 -39.017642,8 Z"
       id="path4-3-3"
       style="fill:#ffd42a;fill-opacity:1;stroke-width:0.160926;enable-background:new;opacity:0.6" />
  </g>
  <g
     id="active-center"
     transform="translate(44,22)">
    <rect
       id="rect4266"
       width="22"
       height="22"
       x="-44"
       y="-22"
       style="opacity:0.00100002;fill:#000000;fill-opacity:1;fill-rule:nonzero;stroke:none;stroke-width:2;stroke-linecap:round;stroke-linejoin:round;stroke-miterlimit:4;stroke-dasharray:none;stroke-opacity:1" />
    <rect
       width="18.73226"
       height="16.732256"
       rx="2.4976349"
       ry="2.5741944"
       x="-42.366131"
       y="-19.366131"
       id="rect3000-9-3-3-6"
       style="color:#000000;display:inline;overflow:visible;visibility:visible;fill:none;fill-opacity:0.01;stroke:#313150;stroke-width:1.26774;stroke-opacity:1;marker:none;enable-background:accumulate" />
    <path
       d="m -39.017641,-13.999999 a 0.48278835,0.48278835 0 0 1 0.341174,0.141622 l 5.693687,5.693682 5.693684,-5.693682 a 0.48278835,0.48278835 0 0 1 0.682339,0.682335 l -6.034859,6.034853 a 0.48278835,0.48278835 0 0 1 -0.682334,0 l -6.034858,-6.034853 a 0.48278835,0.48278835 0 0 1 0.341167,-0.823957 z"
       id="path4-3-3-7"
       style="fill:#ffd42a;fill-opacity:1;stroke-width:0.160926;enable-background:new" />
  </g>
  <g
     id="hover-center"
     transform="translate(22)">
    <g
       id="g27">
      <rect
         style="opacity:0.00100002;fill:#000000;fill-opacity:1;fill-rule:nonzero;stroke:none;stroke-width:2;stroke-linecap:round;stroke-linejoin:round;stroke-miterlimit:4;stroke-dasharray:none;stroke-opacity:1"
         y="0"
         x="0"
         height="22"
         width="22"
         id="rect4266-3" />
    </g>
    <rect
       width="18.73226"
       height="16.732256"
       rx="2.4976349"
       ry="2.5741944"
       x="1.63387"
       y="2.6338701"
       id="rect3000-9-3-3-6-5"
       style="color:#000000;display:inline;overflow:visible;visibility:visible;fill:#ffdd55;fill-opacity:0.5;stroke:#31314f;stroke-width:1.26774;stroke-opacity:1;marker:none;enable-background:accumulate" />
    <path
       d="m 4.9823561,8.000001 a 0.48278835,0.48278835 0 0 1 0.341174,0.141622 l 5.6936869,5.693682 5.69368,-5.693682 a 0.48278835,0.48278835 0 0 1 0.68234,0.682335 l -6.034856,6.034853 a 0.48278835,0.48278835 0 0 1 -0.682334,0 L 4.6411891,8.823958 a 0.48278835,0.48278835 0 0 1 0.341167,-0.823957 z"
       id="path4-3-3-7-3"
       style="fill:#ffffff;fill-opacity:1;stroke-width:0.160926;enable-background:new" />
  </g>
  <g
     id="pressed-center"
     transform="translate(44)">
    <rect
       id="rect4266-3-6"
       width="22"
       height="22"
       x="0"
       y="0"
       style="opacity:0.00100002;fill:#000000;fill-opacity:1;fill-rule:nonzero;stroke:none;stroke-width:2;stroke-linecap:round;stroke-linejoin:round;stroke-miterlimit:4;stroke-dasharray:none;stroke-opacity:1" />
    <rect
       width="18.73226"
       height="16.732256"
       rx="2.4976349"
       ry="2.5741944"
       x="1.63387"
       y="2.6338701"
       id="rect3000-9-3-3-6-56"
       style="color:#000000;display:inline;overflow:visible;visibility:visible;fill:#ffd42a;fill-opacity:0.99999;stroke:#000405;stroke-width:1.26774;stroke-opacity:1;marker:none;enable-background:accumulate" />
    <path
       d="m 4.9823561,8.0000019 a 0.48278835,0.48278835 0 0 1 0.341174,0.141622 l 5.6936869,5.6936821 5.69368,-5.6936821 a 0.48278835,0.48278835 0 0 1 0.68234,0.682335 l -6.034856,6.0348531 a 0.48278835,0.48278835 0 0 1 -0.682334,0 L 4.6411891,8.8239589 a 0.48278835,0.48278835 0 0 1 0.341167,-0.823957 z"
       id="path4-3-3-7-2"
       style="fill:#001723;fill-opacity:1;stroke-width:0.160926;enable-background:new" />
  </g>
</svg>
