<?xml version="1.0" encoding="UTF-8" standalone="no"?>
<svg
   id="svg4306"
   width="22"
   height="22"
   version="1.1"
   style="enable-background:new"
   sodipodi:docname="shade.svg"
   inkscape:version="1.1.1 (3bf5ae0d25, 2021-09-20)"
   xmlns:inkscape="http://www.inkscape.org/namespaces/inkscape"
   xmlns:sodipodi="http://sodipodi.sourceforge.net/DTD/sodipodi-0.dtd"
   xmlns="http://www.w3.org/2000/svg"
   xmlns:svg="http://www.w3.org/2000/svg"
   xmlns:rdf="http://www.w3.org/1999/02/22-rdf-syntax-ns#"
   xmlns:cc="http://creativecommons.org/ns#"
   xmlns:dc="http://purl.org/dc/elements/1.1/">
  <g
     id="pressed-center"
     transform="translate(22,22)">
    <rect
       id="rect4266-3-67"
       width="22"
       height="22"
       x="0"
       y="0"
       style="opacity:0.00100002;fill:#000000;fill-opacity:1;fill-rule:nonzero;stroke:none;stroke-width:2;stroke-linecap:round;stroke-linejoin:round;stroke-miterlimit:4;stroke-dasharray:none;stroke-opacity:1" />
    <rect
       width="18.73226"
       height="16.732256"
       rx="2.4976349"
       ry="2.5741944"
       x="1.63387"
       y="2.6338701"
       id="rect3000-9-3-5-3-7-2-6-1"
       style="color:#000000;display:inline;overflow:visible;visibility:visible;fill:#4e4e7e;fill-opacity:1;stroke:#000405;stroke-width:1.26774;stroke-opacity:1;marker:none;enable-background:accumulate" />
    <path
       d="m 17.0404,16.399996 a 0.48278835,0.48278835 0 0 1 -0.34117,-0.141622 l -5.69369,-5.693682 -5.6936801,5.693682 a 0.48278835,0.48278835 0 0 1 -0.68234,-0.682335 L 10.664381,9.5411872 a 0.48278835,0.48278835 0 0 1 0.682329,0 l 6.03486,6.0348518 a 0.48278835,0.48278835 0 0 1 -0.34117,0.823957 z"
       id="path4-3-62-7-1-2"
       style="fill:#ffffff;fill-opacity:1;stroke-width:0.160926;enable-background:new;stroke:none" />
    <path
       d="M 16.85022,6.5570346 H 5.1502199 c -0.3588,0 -0.65,-0.236775 -0.65,-0.5285166 0,-0.291742 0.2912,-0.528518 0.65,-0.528518 H 16.85022 c 0.3588,0 0.65,0.236776 0.65,0.528518 0,0.2917406 -0.2912,0.5285166 -0.65,0.5285166 z"
       id="path2-91-0-8-93"
       style="fill:#ffffff;fill-opacity:1;stroke-width:0.161;enable-background:new;stroke-miterlimit:4;stroke-dasharray:none;stroke:none" />
  </g>
  <g
     id="pressed-inactive-center"
     transform="translate(44,22)">
    <rect
       style="opacity:0.00100002;fill:#000000;fill-opacity:1;fill-rule:nonzero;stroke:none;stroke-width:2;stroke-linecap:round;stroke-linejoin:round;stroke-miterlimit:4;stroke-dasharray:none;stroke-opacity:1"
       y="0"
       x="0"
       height="22"
       width="22"
       id="rect4266-3-6-5" />
    <rect
       width="18.73226"
       height="16.732256"
       rx="2.4976349"
       ry="2.5741944"
       x="1.63387"
       y="2.6338701"
       id="rect3000-9-3-5-3-7-2-6-7"
       style="color:#000000;display:inline;overflow:visible;visibility:visible;fill:#9191bb;fill-opacity:1;stroke:#000405;stroke-width:1.26774;stroke-opacity:1;marker:none;enable-background:accumulate" />
    <path
       d="m 17.040403,16.479956 a 0.48278835,0.48278835 0 0 1 -0.34117,-0.141622 l -5.69369,-5.693683 -5.6936805,5.693683 a 0.48278835,0.48278835 0 0 1 -0.68234,-0.682335 L 10.664384,9.6211469 a 0.48278835,0.48278835 0 0 1 0.682329,0 l 6.03486,6.0348521 a 0.48278835,0.48278835 0 0 1 -0.34117,0.823957 z"
       id="path4-3-62-7-1-3"
       style="fill:#000405;fill-opacity:1;stroke:none;stroke-width:0.160926;stroke-opacity:1;enable-background:new" />
    <path
       d="M 16.850223,6.557035 H 5.1502225 c -0.3588,0 -0.65,-0.236775 -0.65,-0.528517 0,-0.291742 0.2912,-0.528518 0.65,-0.528518 H 16.850223 c 0.3588,0 0.65,0.236776 0.65,0.528518 0,0.291741 -0.2912,0.528517 -0.65,0.528517 z"
       id="path2-91-0-8-6"
       style="fill:#000405;fill-opacity:1;stroke-width:0.29306;enable-background:new;stroke:none" />
  </g>
  <g
     id="hover-inactive-center"
     transform="translate(44)">
    <rect
       id="rect4266-3-6"
       width="22"
       height="22"
       x="0"
       y="0"
       style="opacity:0.00100002;fill:#000000;fill-opacity:1;fill-rule:nonzero;stroke:none;stroke-width:2;stroke-linecap:round;stroke-linejoin:round;stroke-miterlimit:4;stroke-dasharray:none;stroke-opacity:1" />
    <rect
       width="18.73226"
       height="16.732256"
       rx="2.4976349"
       ry="2.5741944"
       x="1.63387"
       y="2.6338701"
       id="rect3000-9-3-5-3-7-2-6-2"
       style="color:#000000;display:inline;overflow:visible;visibility:visible;fill:#9191bb;fill-opacity:1;stroke:#000405;stroke-width:1.26774;stroke-opacity:1;marker:none;enable-background:accumulate" />
    <path
       d="m 17.0404,16.451996 a 0.48278835,0.48278835 0 0 1 -0.34117,-0.141622 l -5.69369,-5.693682 -5.6936807,5.693682 a 0.48278835,0.48278835 0 0 1 -0.68234,-0.682335 L 10.664381,9.5931872 a 0.48278835,0.48278835 0 0 1 0.682329,0 l 6.03486,6.0348518 a 0.48278835,0.48278835 0 0 1 -0.34117,0.823957 z"
       id="path4-3-62-7-1-8"
       style="fill:#ffffff;fill-opacity:1;stroke-width:0.160926;enable-background:new;stroke:none" />
    <path
       d="M 16.85022,6.557035 H 5.1502193 c -0.3588,0 -0.65,-0.236775 -0.65,-0.528517 0,-0.291742 0.2912,-0.528518 0.65,-0.528518 H 16.85022 c 0.3588,0 0.65,0.236776 0.65,0.528518 0,0.291741 -0.2912,0.528517 -0.65,0.528517 z"
       id="path2-91-0-8-9"
       style="fill:#ffffff;fill-opacity:1;stroke-width:0.161;enable-background:new;stroke-miterlimit:4;stroke-dasharray:none;stroke:none" />
  </g>
  <metadata
     id="metadata28">
    <rdf:RDF>
      <cc:Work
         rdf:about="">
        <dc:format>image/svg+xml</dc:format>
        <dc:type
           rdf:resource="http://purl.org/dc/dcmitype/StillImage" />
      </cc:Work>
    </rdf:RDF>
  </metadata>
  <defs
     id="defs26" />
  <sodipodi:namedview
     inkscape:document-rotation="0"
     pagecolor="#ffffff"
     bordercolor="#666666"
     borderopacity="1"
     objecttolerance="10"
     gridtolerance="10"
     guidetolerance="10"
     inkscape:pageopacity="0"
     inkscape:pageshadow="2"
     inkscape:window-width="1920"
     inkscape:window-height="1013"
     id="namedview24"
     showgrid="false"
     inkscape:zoom="5.6568543"
     inkscape:cx="69.119687"
     inkscape:cy="43.84062"
     inkscape:window-x="0"
     inkscape:window-y="0"
     inkscape:window-maximized="1"
     inkscape:current-layer="svg4306"
     inkscape:snap-bbox="true"
     inkscape:bbox-nodes="true"
     inkscape:lockguides="false"
     inkscape:pagecheckerboard="0">
    <inkscape:grid
       type="xygrid"
       id="grid853"
       originx="0"
       originy="0" />
  </sodipodi:namedview>
  <style
     type="text/css"
     id="current-color-scheme" />
  <g
     id="inactive-center"
     transform="translate(0,22)">
    <rect
       style="opacity:0.00100002;fill:#000000;fill-opacity:1;fill-rule:nonzero;stroke:none;stroke-width:2;stroke-linecap:round;stroke-linejoin:round;stroke-miterlimit:4;stroke-dasharray:none;stroke-opacity:1"
       y="0"
       x="0"
       height="22"
       width="22"
       id="rect4266-9" />
    <rect
       width="18.73226"
       height="16.732256"
       rx="2.4976349"
       ry="2.5741944"
       x="1.63387"
       y="2.6338701"
       id="rect3000-9-3-5-3-7"
       style="color:#000000;display:inline;overflow:visible;visibility:visible;fill:none;fill-opacity:0;stroke:#000405;stroke-width:1.26774;stroke-opacity:1;marker:none;enable-background:accumulate" />
    <path
       d="M 17.040405,16.4 A 0.48278835,0.48278835 0 0 1 16.699231,16.258378 L 11.005544,10.564696 5.3118604,16.258378 A 0.48278835,0.48278835 0 0 1 4.6295214,15.576043 L 10.66438,9.5411897 a 0.48278835,0.48278835 0 0 1 0.682334,0 l 6.034857,6.0348533 A 0.48278835,0.48278835 0 0 1 17.040405,16.4 Z"
       id="path4-3-62"
       style="fill:#7171a7;fill-opacity:1;stroke-width:0.160926;enable-background:new;stroke:none;opacity:0.6" />
    <path
       d="M 16.850218,6.557035 H 5.1502184 c -0.3588,0 -0.65,-0.236775 -0.65,-0.528517 0,-0.291742 0.2912,-0.528518 0.65,-0.528518 H 16.850218 c 0.3588,0 0.65,0.236776 0.65,0.528518 0,0.291741 -0.2912,0.528517 -0.65,0.528517 z"
       id="path2-91"
       style="fill:#7171a7;fill-opacity:1;stroke-width:0.161;enable-background:new;stroke-miterlimit:4;stroke-dasharray:none;stroke:none;opacity:0.6" />
  </g>
  <g
     id="hover-center"
     transform="translate(22)">
    <rect
       style="opacity:0.00100002;fill:#000000;fill-opacity:1;fill-rule:nonzero;stroke:none;stroke-width:2;stroke-linecap:round;stroke-linejoin:round;stroke-miterlimit:4;stroke-dasharray:none;stroke-opacity:1"
       y="0"
       x="0"
       height="22"
       width="22"
       id="rect4266-3" />
    <rect
       width="18.73226"
       height="16.732256"
       rx="2.4976349"
       ry="2.5741944"
       x="1.63387"
       y="2.6338701"
       id="rect3000-9-3-5-3-7-2-6-5"
       style="color:#000000;display:inline;overflow:visible;visibility:visible;fill:#9191bb;fill-opacity:1;stroke:#30304e;stroke-width:1.26774;stroke-opacity:1;marker:none;enable-background:accumulate" />
    <path
       d="m 17.040401,16.451997 a 0.48278835,0.48278835 0 0 1 -0.34117,-0.141622 l -5.69369,-5.693682 -5.69368,5.693682 A 0.48278835,0.48278835 0 0 1 4.629521,15.62804 l 6.034861,-6.0348528 a 0.48278835,0.48278835 0 0 1 0.682329,0 l 6.03486,6.0348528 a 0.48278835,0.48278835 0 0 1 -0.34117,0.823957 z"
       id="path4-3-62-7-1-9"
       style="fill:#ffffff;fill-opacity:1;stroke-width:0.160926;enable-background:new;stroke:none" />
    <path
       d="m 16.850221,6.557035 h -11.7 c -0.3588,0 -0.65,-0.236775 -0.65,-0.528517 0,-0.291742 0.2912,-0.528518 0.65,-0.528518 h 11.7 c 0.3588,0 0.65,0.236776 0.65,0.528518 0,0.291741 -0.2912,0.528517 -0.65,0.528517 z"
       id="path2-91-0-8-2"
       style="fill:#ffffff;fill-opacity:1;stroke-width:0.161;enable-background:new;stroke-miterlimit:4;stroke-dasharray:none;stroke:none" />
  </g>
  <g
     id="g908">
    <g
       id="active-center">
      <rect
         id="rect4266"
         width="22"
         height="22"
         x="0"
         y="0"
         style="opacity:0.00100002;fill:#000000;fill-opacity:1;fill-rule:nonzero;stroke:none;stroke-width:2;stroke-linecap:round;stroke-linejoin:round;stroke-miterlimit:4;stroke-dasharray:none;stroke-opacity:1" />
      <rect
         width="18.73226"
         height="16.732256"
         rx="2.4976349"
         ry="2.5741944"
         x="1.6338702"
         y="2.6338701"
         id="rect3000-9-3-5-3-7-2-6-19"
         style="color:#000000;display:inline;overflow:visible;visibility:visible;fill:none;fill-opacity:0;stroke:#30304e;stroke-width:1.26774;stroke-opacity:1;marker:none;enable-background:accumulate" />
      <path
         d="m 17.040397,16.451998 a 0.48278835,0.48278835 0 0 1 -0.34117,-0.141622 l -5.69369,-5.693682 -5.6936795,5.693682 a 0.48278835,0.48278835 0 0 1 -0.68234,-0.682335 L 10.664377,9.5931877 a 0.48278835,0.48278835 0 0 1 0.68233,0 l 6.03486,6.0348533 a 0.48278835,0.48278835 0 0 1 -0.34117,0.823957 z"
         id="path4-3-62-7-1-4"
         style="fill:#7171a7;fill-opacity:1;stroke-width:0.160926;enable-background:new;stroke:none" />
      <path
         d="M 16.850217,6.557035 H 5.1502175 c -0.3588,0 -0.65,-0.236775 -0.65,-0.528517 0,-0.291742 0.2912,-0.528518 0.65,-0.528518 H 16.850217 c 0.3588,0 0.65,0.236776 0.65,0.528518 0,0.291741 -0.2912,0.528517 -0.65,0.528517 z"
         id="path2-91-0-8-7"
         style="fill:#7171a7;fill-opacity:1;stroke-width:0.161;enable-background:new;stroke-miterlimit:4;stroke-dasharray:none;stroke:none;stroke-opacity:1" />
    </g>
  </g>
</svg>
