<?xml version="1.0" encoding="UTF-8" standalone="no"?>
<svg
   width="32"
   version="1.1"
   height="32"
   viewBox="0 0 32 32"
   id="svg36"
   sodipodi:docname="desktop.svg"
   inkscape:version="1.1.1 (3bf5ae0d25, 2021-09-20)"
   xmlns:inkscape="http://www.inkscape.org/namespaces/inkscape"
   xmlns:sodipodi="http://sodipodi.sourceforge.net/DTD/sodipodi-0.dtd"
   xmlns:xlink="http://www.w3.org/1999/xlink"
   xmlns="http://www.w3.org/2000/svg"
   xmlns:svg="http://www.w3.org/2000/svg"
   xmlns:rdf="http://www.w3.org/1999/02/22-rdf-syntax-ns#"
   xmlns:cc="http://creativecommons.org/ns#"
   xmlns:dc="http://purl.org/dc/elements/1.1/">
  <sodipodi:namedview
     pagecolor="#ffffff"
     bordercolor="#666666"
     borderopacity="1"
     objecttolerance="10"
     gridtolerance="10"
     guidetolerance="10"
     inkscape:pageopacity="0"
     inkscape:pageshadow="2"
     inkscape:window-width="1920"
     inkscape:window-height="973"
     id="namedview38"
     showgrid="true"
     inkscape:zoom="13.876971"
     inkscape:cx="17.222779"
     inkscape:cy="17.943398"
     inkscape:window-x="0"
     inkscape:window-y="40"
     inkscape:window-maximized="1"
     inkscape:current-layer="layer1"
     inkscape:document-rotation="0"
     inkscape:pagecheckerboard="0"
     inkscape:lockguides="true">
    <inkscape:grid
       type="xygrid"
       id="grid1654" />
  </sodipodi:namedview>
  <defs
     id="defs5455">
    <linearGradient
       inkscape:collect="always"
       id="linearGradient842">
      <stop
         style="stop-color:#00aa88;stop-opacity:1"
         offset="0"
         id="stop838" />
      <stop
         style="stop-color:#008fb2;stop-opacity:1"
         offset="1"
         id="stop840" />
    </linearGradient>
    <linearGradient
       inkscape:collect="always"
       xlink:href="#linearGradient842"
       id="linearGradient867-3"
       x1="320"
       y1="187.5"
       x2="439"
       y2="187.5"
       gradientUnits="userSpaceOnUse"
       gradientTransform="matrix(0.11428571,0,0,0.11428571,355.457,511.32657)" />
    <linearGradient
       inkscape:collect="always"
       xlink:href="#linearGradient2432"
       id="linearGradient4703"
       y1="503.07938"
       x1="418.16971"
       y2="531.45813"
       x2="384.57144"
       gradientUnits="userSpaceOnUse"
       gradientTransform="matrix(0.66770805,0,0,0.7944441,127.79001,118.55865)" />
    <linearGradient
       inkscape:collect="always"
       id="linearGradient2432">
      <stop
         style="stop-color:#a4a4c1;stop-opacity:1"
         id="stop2428" />
      <stop
         offset="1"
         style="stop-color:#7676a3;stop-opacity:1"
         id="stop2430" />
    </linearGradient>
    <linearGradient
       inkscape:collect="always"
       xlink:href="#linearGradient2432"
       id="linearGradient4532"
       y1="525.19666"
       x1="399.54575"
       y2="528.35034"
       x2="430.73611"
       gradientUnits="userSpaceOnUse"
       gradientTransform="matrix(0.66770805,0,0,0.7944441,127.79001,118.55865)" />
    <linearGradient
       inkscape:collect="always"
       xlink:href="#linearGradient1666"
       id="linearGradient4474"
       y1="542.22382"
       x1="398.09201"
       y2="524.89966"
       x2="394.00299"
       gradientUnits="userSpaceOnUse"
       gradientTransform="matrix(0.66770805,0,0,0.7944441,127.79001,118.55865)" />
    <linearGradient
       inkscape:collect="always"
       id="linearGradient1666">
      <stop
         style="stop-color:#f0f0f0;stop-opacity:1"
         id="stop1662" />
      <stop
         offset="1"
         style="stop-color:#263740;stop-opacity:1"
         id="stop1664" />
    </linearGradient>
    <linearGradient
       inkscape:collect="always"
       xlink:href="#linearGradient4468"
       id="linearGradient4500"
       y1="568.79803"
       x1="431.57141"
       y2="562.79803"
       x2="439.57141"
       gradientUnits="userSpaceOnUse"
       gradientTransform="matrix(-0.66770805,0,0,0.79444405,688.09246,86.780897)" />
    <linearGradient
       inkscape:collect="always"
       id="linearGradient4468">
      <stop
         style="stop-color:#334545"
         id="stop4470" />
      <stop
         offset="1"
         style="stop-color:#536161"
         id="stop4472" />
    </linearGradient>
    <linearGradient
       inkscape:collect="always"
       xlink:href="#linearGradient4468"
       id="linearGradient4498"
       y1="581.87024"
       x1="406.53735"
       y2="572.67786"
       x2="423.31955"
       gradientUnits="userSpaceOnUse"
       gradientTransform="matrix(-0.66770805,0,0,0.7944441,688.09246,86.780877)" />
    <linearGradient
       inkscape:collect="always"
       xlink:href="#linearGradient4468"
       id="linearGradient4496"
       y1="572.33411"
       x1="423.05438"
       y2="566.76562"
       x2="431.22452"
       gradientUnits="userSpaceOnUse"
       gradientTransform="matrix(-0.66770805,0,0,0.7944441,688.09246,86.780877)" />
    <linearGradient
       inkscape:collect="always"
       xlink:href="#linearGradient4468"
       id="linearGradient4492"
       y1="577.10217"
       x1="431.3129"
       y2="571.44531"
       x2="440.63208"
       gradientUnits="userSpaceOnUse"
       gradientTransform="matrix(-0.66770805,0,0,0.7944441,688.09246,86.780877)" />
    <linearGradient
       inkscape:collect="always"
       xlink:href="#linearGradient4468"
       id="linearGradient4490"
       y1="577.36243"
       x1="430.56738"
       y2="591.32782"
       x2="423.74994"
       gradientUnits="userSpaceOnUse"
       gradientTransform="matrix(-0.66770805,0,0,0.7944441,688.09246,86.780877)" />
    <linearGradient
       inkscape:collect="always"
       xlink:href="#linearGradient2432"
       id="linearGradient2516"
       x1="399.53738"
       y1="513.6488"
       x2="432.57144"
       y2="513.6488"
       gradientUnits="userSpaceOnUse"
       gradientTransform="matrix(0.66770805,0,0,0.79444405,127.79001,118.55867)" />
  </defs>
  <metadata
     id="metadata5458">
    <rdf:RDF>
      <cc:Work
         rdf:about="">
        <dc:format>image/svg+xml</dc:format>
        <dc:type
           rdf:resource="http://purl.org/dc/dcmitype/StillImage" />
      </cc:Work>
    </rdf:RDF>
  </metadata>
  <g
     inkscape:label="Capa 1"
     inkscape:groupmode="layer"
     id="layer1"
     transform="translate(-384.57143,-515.798)">
    <path
       inkscape:connector-curvature="0"
       style="fill:url(#linearGradient4703);stroke-width:0.794535"
       id="path4589"
       d="m 384.57144,521.298 v 21.50001 c 0,1 1.10517,2 2.22749,1.99999 h 27.6406 c 1.07673,10e-6 2.18191,-0.99999 2.18191,-1.99999 V 521.298 c 0,-1.5 -1.10518,-2.49999 -2.76294,-2.49999 l -26.49713,-10e-6 c -1.68476,10e-6 -2.78993,1 -2.78993,2.5 z"
       sodipodi:nodetypes="ccccccccc" />
    <path
       inkscape:connector-curvature="0"
       style="fill:url(#linearGradient4532);fill-opacity:1;stroke-width:1.58907;stroke-linecap:round"
       id="path4284"
       d="m 416.62144,521.298 -22.05713,12.65143 15.7931,10.84857 h 4.09939 c 1.05946,10e-6 2.16464,-0.99999 2.16464,-1.99999 z"
       sodipodi:nodetypes="cccccc" />
    <path
       inkscape:connector-curvature="0"
       style="fill:url(#linearGradient4474);stroke-width:1.58907;stroke-linecap:round"
       id="path4284-5-6"
       d="m 394.58707,533.89188 -10.01562,6.88086 -1e-5,2.02527 c 0,1 1.10517,2 2.13174,1.99999 h 23.80361 z"
       sodipodi:nodetypes="cccccc" />
    <path
       inkscape:transform-center-x="-2.7528408"
       inkscape:connector-curvature="0"
       style="fill:url(#linearGradient4500);stroke-width:1.45665;stroke-linecap:round"
       id="path4284-5-6-2-2"
       d="m 400.10134,537.68038 -5.51428,-3.78795 v 7.5759 z"
       inkscape:transform-center-y="-2.4999456e-06" />
    <path
       inkscape:connector-curvature="0"
       style="fill:url(#linearGradient4498);stroke-width:1.58907;stroke-linecap:round"
       id="path4284-5-6-2-0"
       d="m 405.61564,541.46675 v 3.33125 h 4.84847 z" />
    <path
       inkscape:connector-curvature="0"
       style="fill:url(#linearGradient4496);stroke-width:1.58907;stroke-linecap:round"
       id="path4284-5-6-2-6"
       d="m 400.10135,537.68016 v 7.11784 h 0.66724 l 4.84705,-3.32956 z" />
    <path
       inkscape:connector-curvature="0"
       style="fill:url(#linearGradient4492);stroke-width:1.58907;stroke-linecap:round"
       id="path4284-5-6-2-6-50"
       d="m 394.58707,541.46844 v 3.32956 h 4.84705 z" />
    <path
       inkscape:connector-curvature="0"
       style="fill:url(#linearGradient4490);stroke-width:1.58907;stroke-linecap:round"
       id="path4284-5-6-2-0-6"
       d="m 405.61564,541.46675 -4.84847,3.33125 h 4.84847 z" />
    <path
       inkscape:transform-center-x="2.7528444"
       inkscape:connector-curvature="0"
       style="opacity:0.8;fill:url(#linearGradient2516);fill-opacity:1;stroke-width:1.65316;stroke-linecap:round"
       id="path4284-1"
       d="m 394.56432,533.94982 18.7416,-13.15182 2.31284,-1.49999 c 0.52225,0.34774 1.00267,0.99999 1.00267,1.99999 -6.53913,7.29495 -14.38575,9.64174 -22.05711,12.65182 z"
       sodipodi:nodetypes="ccccc"
       inkscape:transform-center-y="-1.5611135e-06" />
    <path
       inkscape:connector-curvature="0"
       style="fill:#ffffff;fill-opacity:0.784314;stroke-width:0.525635"
       id="rect4128"
       d="m 384.57143,542.79795 v 0 0 c 0,1 1.10517,2 2.21034,2 h 27.62931 c 1.10517,0 2.21035,-1 2.21035,-2 v 0 0 z"
       sodipodi:nodetypes="ccccccccc" />
    <g
       id="text4213-7"
       transform="matrix(0.35824065,0,0,0.32414914,256.40476,368.9293)">
      <path
         inkscape:connector-curvature="0"
         id="path4218"
         d="m 434.23853,537.83412 c -0.15893,0.11003 -0.36677,0.22414 -0.54201,0.30157 l 0.0734,0.28934 c 0.14264,-0.0448 0.27305,-0.12225 0.43198,-0.22414 v 2.60819 h 0.35455 v -2.97496 h -0.31787 z" />
      <path
         inkscape:connector-curvature="0"
         id="path4220"
         d="m 435.20119,538.03381 0.11819,0.29749 c 0.16708,-0.17116 0.41568,-0.24452 0.66427,-0.24452 0.33825,0 0.52571,0.18747 0.52571,0.51757 v 0.0204 c -0.004,0.2323 -0.15486,0.46051 -0.38715,0.71726 l -1.02697,1.14108 0.0448,0.32602 h 1.74016 l 0.0245,-0.30565 h -1.38153 l 0.83951,-0.89656 c 0.32603,-0.35048 0.52572,-0.63575 0.52979,-1.01067 v -0.0122 c 0,-0.48904 -0.34232,-0.81098 -0.88434,-0.81098 -0.38715,0 -0.63982,0.10595 -0.80691,0.26082 z" />
      <path
         inkscape:connector-curvature="0"
         id="path4222"
         d="m 437.42599,540.85799 h 0.4116 v -0.46459 h -0.4116 z m 0,-1.82574 h 0.4116 v -0.46051 h -0.4116 z" />
      <path
         inkscape:connector-curvature="0"
         id="path4224"
         d="m 439.75394,539.98995 c 0,0.3627 -0.2649,0.56239 -0.65613,0.56239 -0.30157,0 -0.50941,-0.0978 -0.6602,-0.21599 l -0.1141,0.28934 c 0.11003,0.10596 0.39122,0.22822 0.77838,0.22822 0.57869,0 1.00252,-0.3301 1.00252,-0.85989 0,-0.41975 -0.23229,-0.68872 -0.59499,-0.77023 0.32195,-0.0978 0.52164,-0.3301 0.52164,-0.71317 0,-0.47681 -0.41161,-0.73763 -0.85174,-0.73763 -0.41161,0 -0.6765,0.0897 -0.85581,0.22821 l 0.1141,0.28935 c 0.15894,-0.12634 0.39123,-0.21192 0.66428,-0.21192 0.35047,0 0.54609,0.14671 0.54609,0.47681 0,0.46866 -0.43198,0.52164 -0.88842,0.52164 v 0.29342 c 0.55424,0 0.99438,0.0856 0.99438,0.61945 z" />
      <path
         inkscape:connector-curvature="0"
         id="path4226"
         d="m 441.86538,538.2824 v 1.49971 h -0.99437 z m 0.67243,1.78905 0.0285,-0.28934 h -0.36678 v -1.94799 h -0.37085 l -1.30817,1.93169 v 0.30564 h 1.34484 v 0.73763 h 0.33418 v -0.73763 h 0.33825 z" />
    </g>
    <path
       inkscape:connector-curvature="0"
       style="color:#000000;stroke-width:0.525635"
       id="path2994"
       d="m 386.50548,543.24814 a 0.09209769,0.08333334 0 0 0 -0.0921,0.0833 0.09209769,0.08333334 0 0 0 0.0921,0.0833 0.09209769,0.08333334 0 0 0 0.0921,-0.0833 0.09209769,0.08333334 0 0 0 -0.0921,-0.0833 z m 0.46049,0 -0.17845,0.13021 0.23888,0.26823 -0.22449,0.20313 0.16406,0.14843 0.36839,-0.33333 z m -0.59864,0.33334 a 0.13814655,0.12500001 0 0 0 -0.13814,0.125 0.13814655,0.12500001 0 0 0 0.13814,0.125 0.13814655,0.12500001 0 0 0 0.13815,-0.125 0.13814655,0.12500001 0 0 0 -0.13815,-0.125 z m 0.2763,0.41666 a 0.13814655,0.12500001 0 0 0 -0.13815,0.125 0.13814655,0.12500001 0 0 0 0.13815,0.125 0.13814655,0.12500001 0 0 0 0.13814,-0.125 0.13814655,0.12500001 0 0 0 -0.13814,-0.125 z" />
  </g>
</svg>
