<?xml version="1.0" encoding="UTF-8" standalone="no"?>
<svg
   width="32"
   version="1.1"
   height="32"
   viewBox="0 0 32 32"
   id="svg15"
   sodipodi:docname="folder-Plasma.svg"
   inkscape:version="1.1.1 (3bf5ae0d25, 2021-09-20)"
   xmlns:inkscape="http://www.inkscape.org/namespaces/inkscape"
   xmlns:sodipodi="http://sodipodi.sourceforge.net/DTD/sodipodi-0.dtd"
   xmlns:xlink="http://www.w3.org/1999/xlink"
   xmlns="http://www.w3.org/2000/svg"
   xmlns:svg="http://www.w3.org/2000/svg"
   xmlns:rdf="http://www.w3.org/1999/02/22-rdf-syntax-ns#"
   xmlns:cc="http://creativecommons.org/ns#"
   xmlns:dc="http://purl.org/dc/elements/1.1/">
  <sodipodi:namedview
     pagecolor="#ffffff"
     bordercolor="#666666"
     borderopacity="1"
     objecttolerance="10"
     gridtolerance="10"
     guidetolerance="10"
     inkscape:pageopacity="0"
     inkscape:pageshadow="2"
     inkscape:window-width="1920"
     inkscape:window-height="1013"
     id="namedview17"
     showgrid="true"
     inkscape:zoom="9.8125"
     inkscape:cx="-8.3566879"
     inkscape:cy="1.7324841"
     inkscape:window-x="0"
     inkscape:window-y="0"
     inkscape:window-maximized="1"
     inkscape:current-layer="layer1"
     inkscape:pagecheckerboard="0">
    <inkscape:grid
       type="xygrid"
       id="grid862" />
  </sodipodi:namedview>
  <defs
     id="defs5455">
    <linearGradient
       inkscape:collect="always"
       xlink:href="#linearGradient1444-3"
       id="linearGradient1232"
       gradientUnits="userSpaceOnUse"
       gradientTransform="matrix(1.3883591,0,0,1.3461679,-630.40646,239.92933)"
       x1="404.57144"
       y1="520.79797"
       x2="428.57144"
       y2="520.79797" />
    <linearGradient
       inkscape:collect="always"
       id="linearGradient1444-3">
      <stop
         style="stop-color:#cccccc;stop-opacity:1"
         offset="0"
         id="stop1434-6" />
      <stop
         style="stop-color:#cccccc;stop-opacity:1"
         offset="0"
         id="stop1436-7" />
      <stop
         style="stop-color:#ffffff;stop-opacity:1"
         offset="0"
         id="stop1438-5" />
      <stop
         style="stop-color:#ffffff;stop-opacity:1"
         offset="0.50410038"
         id="stop2478" />
      <stop
         style="stop-color:#263740;stop-opacity:1"
         offset="0.54166621"
         id="stop1440-3" />
      <stop
         style="stop-color:#263740;stop-opacity:1"
         offset="1"
         id="stop1442-5" />
    </linearGradient>
  </defs>
  <metadata
     id="metadata5458">
    <rdf:RDF>
      <cc:Work
         rdf:about="">
        <dc:format>image/svg+xml</dc:format>
        <dc:type
           rdf:resource="http://purl.org/dc/dcmitype/StillImage" />
      </cc:Work>
    </rdf:RDF>
  </metadata>
  <g
     inkscape:label="Capa 1"
     inkscape:groupmode="layer"
     id="layer1"
     transform="translate(-384.57143,-515.798)">
    <g
       transform="matrix(0.35957555,0,0,0.37142583,425.75422,186.28229)"
       id="g4">
      <path
         style="fill:#8484ac;fill-opacity:1;stroke-width:0.248469"
         d="m -79.520438,903.608 c -1.040589,2.1e-4 -2.272272,-0.84056 -2.738664,-1.86802 l -2.091618,-4.61731 c -0.465406,-1.02746 -1.697116,-1.86733 -2.737733,-1.86802 l -20.525697,-0.0134 c -4.12951,-0.003 -6.90839,2.70417 -6.89938,6.70967 v 0 0 l -0.0183,56.53337 c -0.002,5.41152 1.38834,6.73757 6.93837,6.73897 l 75.165646,0.0185 c 6.829603,0 6.89573,-0.028 6.889566,-6.80522 l -0.04374,-48.10756 c -0.0041,-4.05589 -2.781369,-6.73176 -6.990693,-6.73089 z"
         id="path16"
         sodipodi:nodetypes="sccsscccsssssss" />
      <g
         id="g24"
         transform="matrix(0.23613179,0,0,0.2610417,-128.69044,862.87203)">
        <path
           style="fill:#efefef;fill-opacity:1"
           d="m 179.58,131.156 8.844,17.688 c 1.968,3.936 4.8248,7.156 9.2248,7.156 H 208 c -4.4,0 -9.608,-3.22 -11.58,-7.156 l -8.844,-17.688 c -1.968,-3.936 -7.17873,-7.15601 -11.57873,-7.15601 L 168,124 c 4.4,0 9.608,3.22 11.58,7.156 z"
           id="path18"
           sodipodi:nodetypes="cssccsscc" />
        <rect
           x="75.888275"
           y="176.05383"
           style="fill:#263740;fill-opacity:1;stroke-width:0.991651"
           width="345.64072"
           height="205.93738"
           id="rect22"
           ry="10.823075" />
      </g>
      <rect
         x="-110.15856"
         y="909.37592"
         style="fill:#9494b7;fill-opacity:1;stroke-width:0.249127"
         width="80.385994"
         height="52.500549"
         id="rect26"
         ry="2.2430861" />
      <rect
         x="-108.21626"
         y="911.65491"
         style="fill:#ffffff;stroke-width:0.248275"
         width="76.506783"
         height="48.031673"
         id="rect28"
         ry="1.6144534" />
      <g
         id="g36"
         transform="matrix(0.23613179,0,0,0.2610417,-129.80878,861.39217)">
        <polygon
           style="fill:#aaccff"
           points="168,204 172,204 172,276 100,276 100,272 "
           id="polygon34"
           transform="translate(-8.8452971)" />
      </g>
      <polygon
         style="fill:#2a7fff"
         points="168,272 100,272 168,204 "
         id="polygon38"
         transform="matrix(0.23613179,0,0,0.2610417,-131.7586,861.39217)" />
      <path
         style="opacity:0.7;fill:#8484ac;fill-opacity:1;stroke-width:0.249102"
         d="m -94.488421,914.74859 -16.294879,17.313 v 28.02591 c 0.0671,1.795 1.47718,2.43461 2.55082,2.52646 l 76.027376,0.0511 c 2.923301,0 3.007338,-2.50581 3.007338,-2.50581 v -45.41068 z"
         id="path30-3"
         sodipodi:nodetypes="ccccsccc" />
      <path
         d="m -60.385851,924.85688 a 2.7767182,2.6923359 0 0 0 -2.776718,2.69234 2.7767182,2.6923359 0 0 0 2.776718,2.69234 2.7767182,2.6923359 0 0 0 2.776719,-2.69234 2.7767182,2.6923359 0 0 0 -2.776719,-2.69234 z m 13.883591,0 -4.165077,4.03851 6.941796,6.73084 -6.941796,6.73084 4.165077,4.0385 11.106873,-10.76934 z m -18.742848,12.11552 a 3.4708978,3.3654198 0 0 0 -3.470897,3.36542 3.4708978,3.3654198 0 0 0 3.470897,3.36542 3.4708978,3.3654198 0 0 0 3.470898,-3.36542 3.4708978,3.3654198 0 0 0 -3.470898,-3.36542 z m 9.024335,12.11551 a 4.1650773,4.0385038 0 0 0 -4.165078,4.03852 4.1650773,4.0385038 0 0 0 4.165078,4.03851 4.1650773,4.0385038 0 0 0 4.165077,-4.03851 4.1650773,4.0385038 0 0 0 -4.165077,-4.03852 z"
         class="ColorScheme-Text"
         id="path3-5"
         style="color:#eff0f1;fill:url(#linearGradient1232);fill-opacity:1;stroke-width:2.7342" />
    </g>
  </g>
</svg>
