<?xml version="1.0" encoding="UTF-8" standalone="no"?>
<svg
   width="32"
   version="1.1"
   height="32"
   viewBox="0 0 32 32"
   id="svg17"
   sodipodi:docname="folder-text.svg"
   inkscape:version="1.1.1 (3bf5ae0d25, 2021-09-20)"
   xmlns:inkscape="http://www.inkscape.org/namespaces/inkscape"
   xmlns:sodipodi="http://sodipodi.sourceforge.net/DTD/sodipodi-0.dtd"
   xmlns="http://www.w3.org/2000/svg"
   xmlns:svg="http://www.w3.org/2000/svg"
   xmlns:rdf="http://www.w3.org/1999/02/22-rdf-syntax-ns#"
   xmlns:cc="http://creativecommons.org/ns#"
   xmlns:dc="http://purl.org/dc/elements/1.1/">
  <sodipodi:namedview
     pagecolor="#ffffff"
     bordercolor="#666666"
     borderopacity="1"
     objecttolerance="10"
     gridtolerance="10"
     guidetolerance="10"
     inkscape:pageopacity="0"
     inkscape:pageshadow="2"
     inkscape:window-width="1920"
     inkscape:window-height="1013"
     id="namedview19"
     showgrid="false"
     inkscape:zoom="9.8125"
     inkscape:cx="-19.057325"
     inkscape:cy="-0.61146497"
     inkscape:window-x="0"
     inkscape:window-y="0"
     inkscape:window-maximized="1"
     inkscape:current-layer="layer1"
     inkscape:pagecheckerboard="0" />
  <defs
     id="defs5455" />
  <metadata
     id="metadata5458">
    <rdf:RDF>
      <cc:Work
         rdf:about="">
        <dc:format>image/svg+xml</dc:format>
        <dc:type
           rdf:resource="http://purl.org/dc/dcmitype/StillImage" />
      </cc:Work>
    </rdf:RDF>
  </metadata>
  <g
     inkscape:label="Capa 1"
     inkscape:groupmode="layer"
     id="layer1"
     transform="translate(-384.57143,-515.798)">
    <path
       style="fill:#8484ac;fill-opacity:1;stroke-width:0.0908036"
       d="m 397.16109,521.90564 c -0.37417,8e-5 -0.81705,-0.31221 -0.98476,-0.69383 l -0.7521,-1.71498 c -0.16734,-0.38163 -0.61023,-0.69358 -0.98442,-0.69383 l -7.38054,-0.005 c -1.48487,-10e-4 -2.48409,1.00439 -2.48084,2.49213 v 0 0 l -0.007,20.9979 c -5e-4,2.00997 0.49921,2.50249 2.49486,2.50301 l 27.02774,0.007 c 2.45575,5e-4 2.47953,-0.0104 2.47732,-2.52763 l -0.0158,-17.86833 c -10e-4,-1.50646 -1.00012,-2.50035 -2.51368,-2.50002 z"
       id="path16"
       sodipodi:nodetypes="sccsscccsssssss" />
    <g
       id="g24"
       transform="matrix(0.08490721,0,0,0.09695731,379.48076,506.7753)">
      <path
         style="fill:#efefef;fill-opacity:1"
         d="m 179.58,131.156 8.844,17.688 c 1.968,3.936 4.8248,7.156 9.2248,7.156 H 208 c -4.4,0 -9.608,-3.22 -11.58,-7.156 l -8.844,-17.688 c -1.968,-3.936 -7.17873,-7.15601 -11.57873,-7.15601 L 168,124 c 4.4,0 9.608,3.22 11.58,7.156 z"
         id="path18"
         sodipodi:nodetypes="cssccsscc" />
      <rect
         x="75.888275"
         y="176.05383"
         style="fill:#263740;fill-opacity:1;stroke-width:0.991651"
         width="345.64072"
         height="205.93738"
         id="rect22"
         ry="10.823075" />
    </g>
    <rect
       x="386.14438"
       y="524.04816"
       style="fill:#9494b7;fill-opacity:1;stroke-width:0.0910439"
       width="28.904837"
       height="19.499996"
       id="rect26"
       ry="0.83313739" />
    <rect
       x="386.8428"
       y="524.89465"
       style="fill:#ffffff;stroke-width:0.0907326"
       width="27.509966"
       height="17.840145"
       id="rect28"
       ry="0.5996477" />
    <g
       id="g36"
       transform="matrix(0.08490721,0,0,0.09695731,379.07863,506.22564)">
      <polygon
         style="fill:#aaccff"
         points="100,276 100,272 168,204 172,204 172,276 "
         id="polygon34"
         transform="translate(-8.8452971)" />
    </g>
    <polygon
       style="fill:#2a7fff"
       points="100,272 168,204 168,272 "
       id="polygon38"
       transform="matrix(0.08490721,0,0,0.09695731,378.37753,506.22564)" />
    <path
       style="opacity:0.7;fill:#8484ac;fill-opacity:1;stroke-width:0.0910349"
       d="m 391.77897,526.04353 -5.85925,6.43047 v 10.40952 c 0.0242,0.6667 0.53116,0.90426 0.91722,0.93838 l 27.33758,0.019 c 1.05115,5e-4 1.08137,-0.93071 1.08137,-0.93071 v -16.86664 z"
       id="path30-3"
       sodipodi:nodetypes="ccccsccc" />
    <path
       id="Newspaper-7"
       class="st0"
       d="m 410.8379,538.36943 h -7.27446 v 0.85714 h 7.27446 z m -7.27446,-1.71429 h 2.99537 v 0.85714 h -2.99537 z m 0,-1.71429 h 2.99537 v 0.85715 h -2.99537 z m 3.85118,0 h 3.42328 v 2.57143 h -3.42328 z m 3.42328,-3.42857 h -7.27446 v 1.71429 h 7.27446 z m 2.13955,-1.71428 h -11.12566 v 10.28571 c 0,0.47143 -0.007,0.85714 -0.007,0.85714 h 8.99303 c 1.17676,0 2.13955,-0.96428 2.13955,-2.14285 z"
       style="clip-rule:evenodd;fill:#f0f0f0;fill-opacity:1;fill-rule:evenodd;stroke-width:0.21412"
       sodipodi:nodetypes="cccccccccccccccccccccccccccscssc" />
    <path
       id="Newspaper-s-5"
       class="st1"
       d="m 412.97745,530.65514 v 8.57143 c 0,1.41428 -1.15535,2.57142 -2.56746,2.57142 h -6.84655 v -0.85714 h 6.84655 c 0.9414,0 1.71165,-0.77142 1.71165,-1.71428 v -8.57143 z m -9.41401,10.28571 z"
       style="fill:#263740;fill-opacity:1;stroke-width:0.21412"
       sodipodi:nodetypes="cssccssccccccccccccc" />
  </g>
</svg>
