<?xml version="1.0" encoding="UTF-8" standalone="no"?>
<svg
   width="32"
   version="1.1"
   height="32"
   viewBox="0 0 32 32"
   id="svg15"
   sodipodi:docname="folder-Reddit.svg"
   inkscape:version="1.1.1 (3bf5ae0d25, 2021-09-20)"
   xmlns:inkscape="http://www.inkscape.org/namespaces/inkscape"
   xmlns:sodipodi="http://sodipodi.sourceforge.net/DTD/sodipodi-0.dtd"
   xmlns="http://www.w3.org/2000/svg"
   xmlns:svg="http://www.w3.org/2000/svg"
   xmlns:rdf="http://www.w3.org/1999/02/22-rdf-syntax-ns#"
   xmlns:cc="http://creativecommons.org/ns#"
   xmlns:dc="http://purl.org/dc/elements/1.1/">
  <sodipodi:namedview
     pagecolor="#ffffff"
     bordercolor="#666666"
     borderopacity="1"
     objecttolerance="10"
     gridtolerance="10"
     guidetolerance="10"
     inkscape:pageopacity="0"
     inkscape:pageshadow="2"
     inkscape:window-width="1920"
     inkscape:window-height="1013"
     id="namedview17"
     showgrid="true"
     inkscape:zoom="9.8125"
     inkscape:cx="-18.751592"
     inkscape:cy="8.6624204"
     inkscape:window-x="0"
     inkscape:window-y="0"
     inkscape:window-maximized="1"
     inkscape:current-layer="layer1"
     inkscape:document-rotation="0"
     inkscape:pagecheckerboard="0">
    <inkscape:grid
       type="xygrid"
       id="grid847" />
  </sodipodi:namedview>
  <defs
     id="defs5455" />
  <metadata
     id="metadata5458">
    <rdf:RDF>
      <cc:Work
         rdf:about="">
        <dc:format>image/svg+xml</dc:format>
        <dc:type
           rdf:resource="http://purl.org/dc/dcmitype/StillImage" />
      </cc:Work>
    </rdf:RDF>
  </metadata>
  <g
     inkscape:label="Capa 1"
     inkscape:groupmode="layer"
     id="layer1"
     transform="translate(-384.57143,-515.798)">
    <path
       style="fill:#8484ac;fill-opacity:1;stroke-width:0.0908036"
       d="m 397.16109,521.90564 c -0.37417,8e-5 -0.81705,-0.31221 -0.98476,-0.69383 l -0.7521,-1.71498 c -0.16734,-0.38163 -0.61023,-0.69358 -0.98442,-0.69383 l -7.38054,-0.005 c -1.48487,-10e-4 -2.48409,1.00439 -2.48084,2.49213 v 0 0 l -0.007,20.9979 c -5e-4,2.00997 0.49921,2.50249 2.49486,2.50301 l 27.02774,0.007 c 2.45575,5e-4 2.47953,-0.0104 2.47732,-2.52763 l -0.0157,-17.86833 c -0.002,-1.50646 -1.00012,-2.50035 -2.51368,-2.50002 z"
       id="path16"
       sodipodi:nodetypes="sccsscccsssssss" />
    <g
       id="g24"
       transform="matrix(0.08490721,0,0,0.09695731,379.48076,506.7753)">
      <path
         style="fill:#efefef;fill-opacity:1"
         d="m 179.58,131.156 8.844,17.688 c 1.968,3.936 4.8248,7.156 9.2248,7.156 H 208 c -4.4,0 -9.608,-3.22 -11.58,-7.156 l -8.844,-17.688 c -1.968,-3.936 -7.17873,-7.15601 -11.57873,-7.15601 L 168,124 c 4.4,0 9.608,3.22 11.58,7.156 z"
         id="path18"
         sodipodi:nodetypes="cssccsscc" />
      <rect
         x="75.888275"
         y="176.05383"
         style="fill:#263740;fill-opacity:1;stroke-width:0.991651"
         width="345.64072"
         height="205.93738"
         id="rect22"
         ry="10.823075" />
    </g>
    <rect
       x="386.14441"
       y="524.0481"
       style="fill:#9494b7;fill-opacity:1;stroke-width:0.0910439"
       width="28.904837"
       height="19.499996"
       id="rect26"
       ry="0.83313739" />
    <rect
       x="386.84283"
       y="524.89459"
       style="fill:#ffffff;stroke-width:0.0907326"
       width="27.509966"
       height="17.840145"
       id="rect28"
       ry="0.5996477" />
    <g
       id="g36"
       transform="matrix(0.08490721,0,0,0.09695731,379.07863,506.22564)">
      <polygon
         style="fill:#aaccff"
         points="168,204 172,204 172,276 100,276 100,272 "
         id="polygon34"
         transform="translate(-8.8452971)" />
    </g>
    <polygon
       style="fill:#2a7fff"
       points="100,272 168,204 168,272 "
       id="polygon38"
       transform="matrix(0.08490721,0,0,0.09695731,378.37753,506.22564)" />
    <path
       style="opacity:0.7;fill:#8484ac;fill-opacity:1;stroke-width:0.0910349"
       d="m 391.77897,526.04353 -5.85925,6.43047 v 10.40952 c 0.0241,0.6667 0.53116,0.90426 0.91722,0.93838 l 27.33758,0.019 c 1.05115,5e-4 1.08137,-0.93071 1.08137,-0.93071 V 526.0435 Z"
       id="path30-3"
       sodipodi:nodetypes="ccccsccc" />
    <path
       class="st1"
       d="m 407.03639,530.54865 c -2.90154,0 -5.24151,2.34362 -5.24151,5.2497 0,2.90608 2.33997,5.24969 5.24151,5.24969 2.90154,0 5.2415,-2.34361 5.2415,-5.24969 h 0.37439 c 0,2.17487 -0.78622,4.08726 -2.52715,5.1372 -0.89854,0.54372 -1.96556,0.86244 -3.08874,0.86244 -3.31338,0 -5.99029,-2.68109 -5.99029,-5.99964 0,-2.24987 1.25421,-4.21851 3.08875,-5.2497 0.8611,-0.46872 1.85324,-0.37498 2.90154,-0.37498 z"
       id="path6-7"
       sodipodi:nodetypes="csscccssccc"
       style="clip-rule:evenodd;fill:#f0f0f0;fill-opacity:1;fill-rule:evenodd;stroke-width:0.187343" />
    <path
       class="st2"
       d="m 404.04124,530.6049 c 1.36654,-0.8062 3.01387,-1.01244 4.54889,-0.59997 1.535,0.41248 2.84538,1.42492 3.6316,2.79359 0.78622,1.36867 1.01086,3.01858 0.59903,4.55599 -0.41183,1.53741 -1.42269,2.84983 -2.78923,3.63728 l -0.37439,-0.65621 c 1.19806,-0.69371 2.07788,-1.83739 2.43356,-3.18731 0.35567,-1.34992 0.18719,-2.77484 -0.52415,-3.97477 -0.69263,-1.19993 -1.83454,-2.08113 -3.18234,-2.43736 -1.3291,-0.37498 -2.77051,-0.18749 -3.96857,0.52497 z"
       id="path8-5"
       style="clip-rule:evenodd;fill:#263740;fill-opacity:1;fill-rule:evenodd;stroke-width:0.187343" />
    <path
       class="st3"
       d="m 405.59497,537.99197 c 0.0936,-0.13124 0.26209,-0.16874 0.39312,-0.075 0.24335,0.16874 0.5803,0.31873 1.06702,0.31873 0.48671,0 0.80495,-0.16874 1.06702,-0.31873 0.13104,-0.0937 0.29952,-0.0562 0.39311,0.075 0.0936,0.13124 0.0562,0.29998 -0.0749,0.39373 -0.33695,0.20623 -0.76751,0.41247 -1.40398,0.41247 -0.63646,0 -1.06702,-0.20624 -1.36653,-0.43122 -0.13104,-0.075 -0.16848,-0.24374 -0.0749,-0.37498 z m 2.8454,-0.8812 c 0.35566,0 0.65519,-0.29998 0.65519,-0.65621 0,-0.35623 -0.29953,-0.65621 -0.65519,-0.65621 -0.35567,0 -0.6552,0.29998 -0.6552,0.65621 0,0.35623 0.29953,0.65621 0.6552,0.65621 z m -2.80795,0 c 0.35567,0 0.65518,-0.29998 0.65518,-0.65621 0,-0.35623 -0.29951,-0.65621 -0.65518,-0.65621 -0.35568,0 -0.65519,0.29998 -0.65519,0.65621 0,0.35623 0.29951,0.65621 0.65519,0.65621 z m 1.85324,-5.0622 c -0.0935,-0.0188 -0.20592,0 -0.28079,0.0562 -0.0749,0.0563 -0.13104,0.14999 -0.14976,0.24374 l -0.35567,1.94988 c -0.97343,0.0562 -1.85325,0.39373 -2.471,0.8812 -0.13104,-0.0937 -0.29951,-0.13124 -0.46799,-0.13124 -0.46799,0 -0.84238,0.37498 -0.84238,0.8437 0,0.29998 0.16847,0.56247 0.39311,0.71246 -0.0188,0.11249 -0.0188,0.20624 -0.0188,0.31873 0,1.44367 1.68477,2.62485 3.74393,2.62485 2.05917,0 3.74392,-1.18118 3.74392,-2.62485 0,-0.11249 0,-0.20624 -0.0188,-0.31873 0.24336,-0.14999 0.39312,-0.41248 0.39312,-0.71246 0,-0.46872 -0.3744,-0.8437 -0.84238,-0.8437 -0.16848,0 -0.33696,0.0563 -0.46799,0.13124 -0.59903,-0.48747 -1.44141,-0.8062 -2.39612,-0.8812 l 0.26208,-1.44366 0.86111,0.16874 c 0.0935,0.29998 0.37439,0.50622 0.71134,0.50622 0.41183,0 0.74878,-0.33748 0.74878,-0.74996 0,-0.41247 -0.33695,-0.74995 -0.74878,-0.74995 -0.22464,0 -0.43055,0.0937 -0.56159,0.26248 z"
       id="path10-3"
       style="clip-rule:evenodd;fill:#f0f0f0;fill-opacity:1;fill-rule:evenodd;stroke-width:0.187343" />
  </g>
</svg>
