<?xml version="1.0" encoding="UTF-8" standalone="no"?>
<svg
   width="32"
   version="1.1"
   height="32"
   viewBox="0 0 32 32"
   id="svg15"
   sodipodi:docname="folder-Neon.svg"
   inkscape:version="1.1.1 (3bf5ae0d25, 2021-09-20)"
   xmlns:inkscape="http://www.inkscape.org/namespaces/inkscape"
   xmlns:sodipodi="http://sodipodi.sourceforge.net/DTD/sodipodi-0.dtd"
   xmlns="http://www.w3.org/2000/svg"
   xmlns:svg="http://www.w3.org/2000/svg"
   xmlns:rdf="http://www.w3.org/1999/02/22-rdf-syntax-ns#"
   xmlns:cc="http://creativecommons.org/ns#"
   xmlns:dc="http://purl.org/dc/elements/1.1/">
  <sodipodi:namedview
     pagecolor="#ffffff"
     bordercolor="#666666"
     borderopacity="1"
     objecttolerance="10"
     gridtolerance="10"
     guidetolerance="10"
     inkscape:pageopacity="0"
     inkscape:pageshadow="2"
     inkscape:window-width="1920"
     inkscape:window-height="1013"
     id="namedview17"
     showgrid="false"
     inkscape:zoom="9.8125"
     inkscape:cx="-26.292994"
     inkscape:cy="8.6624204"
     inkscape:window-x="0"
     inkscape:window-y="0"
     inkscape:window-maximized="1"
     inkscape:current-layer="layer1"
     inkscape:document-rotation="0"
     inkscape:pagecheckerboard="0" />
  <defs
     id="defs5455" />
  <metadata
     id="metadata5458">
    <rdf:RDF>
      <cc:Work
         rdf:about="">
        <dc:format>image/svg+xml</dc:format>
        <dc:type
           rdf:resource="http://purl.org/dc/dcmitype/StillImage" />
      </cc:Work>
    </rdf:RDF>
  </metadata>
  <g
     inkscape:label="Capa 1"
     inkscape:groupmode="layer"
     id="layer1"
     transform="translate(-384.57143,-515.798)">
    <path
       style="fill:#8484ac;fill-opacity:1;stroke-width:0.0908036"
       d="m 397.16108,521.90564 c -0.37417,8e-5 -0.81705,-0.31221 -0.98476,-0.69383 l -0.7521,-1.71498 c -0.16734,-0.38163 -0.61023,-0.69358 -0.98442,-0.69383 l -7.38054,-0.005 c -1.48487,-10e-4 -2.48409,1.00439 -2.48084,2.49213 v 0 0 l -0.007,20.9979 c -5e-4,2.00997 0.49921,2.50249 2.49486,2.50301 l 27.02774,0.007 c 2.45575,5e-4 2.47953,-0.0104 2.47732,-2.52763 l -0.0158,-17.86833 c -0.001,-1.50646 -1.00012,-2.50035 -2.51368,-2.50002 z"
       id="path16"
       sodipodi:nodetypes="sccsscccsssssss" />
    <g
       id="g24"
       transform="matrix(0.08490721,0,0,0.09695731,379.48075,506.7753)">
      <path
         style="fill:#efefef;fill-opacity:1"
         d="m 179.58,131.156 8.844,17.688 c 1.968,3.936 4.8248,7.156 9.2248,7.156 H 208 c -4.4,0 -9.608,-3.22 -11.58,-7.156 l -8.844,-17.688 c -1.968,-3.936 -7.17873,-7.15601 -11.57873,-7.15601 L 168,124 c 4.4,0 9.608,3.22 11.58,7.156 z"
         id="path18"
         sodipodi:nodetypes="cssccsscc" />
      <rect
         x="75.888275"
         y="176.05383"
         style="fill:#263740;fill-opacity:1;stroke-width:0.991651"
         width="345.64072"
         height="205.93738"
         id="rect22"
         ry="10.823075" />
    </g>
    <rect
       x="386.14435"
       y="524.04803"
       style="fill:#9494b7;fill-opacity:1;stroke-width:0.0910439"
       width="28.904837"
       height="19.499996"
       id="rect26"
       ry="0.83313739" />
    <rect
       x="386.84277"
       y="524.89453"
       style="fill:#ffffff;stroke-width:0.0907326"
       width="27.509966"
       height="17.840145"
       id="rect28"
       ry="0.5996477" />
    <g
       id="g36"
       transform="matrix(0.08490721,0,0,0.09695731,379.07862,506.22564)">
      <polygon
         style="fill:#aaccff"
         points="172,204 172,276 100,276 100,272 168,204 "
         id="polygon34"
         transform="translate(-8.8452971)" />
    </g>
    <polygon
       style="fill:#2a7fff"
       points="168,272 100,272 168,204 "
       id="polygon38"
       transform="matrix(0.08490721,0,0,0.09695731,378.37752,506.22564)" />
    <path
       style="opacity:0.7;fill:#8484ac;fill-opacity:1;stroke-width:0.0910349"
       d="m 391.77896,526.04353 -5.85925,6.43047 v 10.40952 c 0.0242,0.6667 0.53116,0.90426 0.91722,0.93838 l 27.33758,0.019 c 1.05115,5e-4 1.08137,-0.93071 1.08137,-0.93071 v -16.86664 z"
       id="path30-3"
       sodipodi:nodetypes="ccccsccc" />
    <path
       d="m 407.03713,537.35657 c 0.85926,0 1.55586,-0.69769 1.55586,-1.55831 0,-0.86058 -0.6966,-1.55827 -1.55586,-1.55827 -0.85926,0 -1.55587,0.69769 -1.55587,1.55827 0,0.86062 0.69661,1.55831 1.55587,1.55831 z m 0.26997,-0.50119 c 0.29165,-0.0745 0.54204,-0.26954 0.68676,-0.53593 0.0138,-0.0254 0.0401,-0.0399 0.0684,-0.0399 0.0126,0 0.0251,0.002 0.0369,0.01 0.0373,0.0212 0.0513,0.068 0.0319,0.10572 -0.16545,0.30397 -0.45169,0.52716 -0.78512,0.61223 -0.0422,0.0113 -0.084,-0.0141 -0.0946,-0.0565 -0.0109,-0.0417 0.0142,-0.084 0.0564,-0.0945 z"
       id="path2-6-7"
       style="fill:#263740;fill-opacity:1;stroke:#ffffff;stroke-width:0.133218;stroke-opacity:1" />
    <path
       d="m 407.57998,532.27492 c -0.01,-0.29317 -0.24775,-0.52837 -0.54285,-0.52837 -0.29514,0 -0.53367,0.2352 -0.54286,0.52837 -1.70586,0.26277 -3.01629,1.74252 -3.01629,3.52338 0,1.78079 1.31054,3.26053 3.01629,3.5233 0.01,0.29321 0.24772,0.52842 0.54286,0.52842 0.2951,0 0.53364,-0.23521 0.54285,-0.52842 1.70591,-0.26277 3.01632,-1.74251 3.01632,-3.5233 0,-1.78086 -1.31041,-3.26061 -3.01632,-3.52338 z m -0.009,6.92953 c -0.0472,-0.25331 -0.268,-0.44529 -0.53464,-0.44529 -0.26664,0 -0.4875,0.19181 -0.5346,0.44529 -1.64516,-0.25828 -2.90776,-1.68694 -2.90776,-3.40615 0,-1.71923 1.2626,-3.14792 2.90791,-3.40618 0.0472,0.25333 0.26797,0.44531 0.53456,0.44531 0.26665,0 0.48749,-0.19185 0.53465,-0.44531 1.64503,0.25826 2.90765,1.68695 2.90765,3.40618 0,1.71921 -1.26262,3.14787 -2.90777,3.40615 z"
       id="path4-5"
       style="fill:#f0f0f0;fill-opacity:1;stroke-width:0.133218" />
    <path
       d="m 413.02737,535.7983 c 0,-0.29052 -0.2271,-0.52558 -0.51303,-0.54223 -0.10902,-1.11381 -0.55048,-2.1312 -1.22308,-2.95156 0.19204,-0.21411 0.18725,-0.54248 -0.019,-0.74858 -0.20565,-0.206 -0.53364,-0.21094 -0.74732,-0.0191 -0.81893,-0.67379 -1.83486,-1.11568 -2.94678,-1.22499 -0.016,-0.28606 -0.25146,-0.51384 -0.54156,-0.51384 -0.29002,0 -0.52475,0.22778 -0.54135,0.51384 -1.11194,0.1092 -2.12776,0.5512 -2.94679,1.22499 -0.2137,-0.19252 -0.54178,-0.18757 -0.74761,0.0191 -0.20563,0.2061 -0.21055,0.53473 -0.0186,0.74873 -0.67273,0.82021 -1.11394,1.83773 -1.22308,2.95141 -0.28594,0.0159 -0.51304,0.25171 -0.51304,0.54223 0,0.29049 0.2271,0.52556 0.51304,0.54223 0.10903,1.11364 0.55035,2.13092 1.22296,2.95119 -0.19224,0.21419 -0.18731,0.54282 0.0189,0.74895 0.20581,0.20592 0.5338,0.21086 0.74774,0.0185 0.81892,0.67393 1.83486,1.11568 2.94682,1.22499 0.0159,0.28606 0.2513,0.51383 0.54136,0.51383 0.29005,0 0.52477,-0.22777 0.54137,-0.51383 1.11195,-0.1092 2.12776,-0.55106 2.94678,-1.22499 0.21398,0.19252 0.54184,0.18757 0.74761,-0.0185 0.20563,-0.20613 0.21057,-0.53476 0.0188,-0.74878 0.67294,-0.82019 1.11393,-1.83772 1.22308,-2.95136 0.286,-0.0159 0.51303,-0.25174 0.51303,-0.54223 z m -0.62966,0.53687 c -0.10753,1.08566 -0.53778,2.07761 -1.1931,2.87832 -0.21287,-0.15334 -0.51021,-0.13594 -0.70162,0.0561 -0.19148,0.19185 -0.20908,0.48967 -0.0561,0.70273 -0.79934,0.65634 -1.78986,1.08725 -2.87409,1.19495 -0.0401,-0.26051 -0.26409,-0.46006 -0.53579,-0.46006 -0.27169,0 -0.49494,0.19955 -0.53582,0.46006 -1.08422,-0.1077 -2.07474,-0.53861 -2.87411,-1.19495 0.15322,-0.21334 0.13578,-0.51135 -0.056,-0.70284 -0.19143,-0.19177 -0.48893,-0.20955 -0.7018,-0.0562 -0.65532,-0.80048 -1.08568,-1.79242 -1.19324,-2.87808 0.26011,-0.0405 0.45937,-0.26476 0.45937,-0.53688 0,-0.27215 -0.19926,-0.49574 -0.45937,-0.5369 0.10756,-1.08568 0.53777,-2.07748 1.19299,-2.87824 0.21298,0.15359 0.51062,0.13603 0.70191,-0.0561 0.19144,-0.1917 0.20888,-0.48983 0.056,-0.70303 0.79948,-0.65617 1.78975,-1.08711 2.87397,-1.19484 0.0401,0.2605 0.26412,0.46008 0.53581,0.46008 0.27168,0 0.49494,-0.19958 0.53581,-0.46008 1.08421,0.10773 2.07458,0.53867 2.87401,1.19484 -0.15315,0.21333 -0.13586,0.51117 0.056,0.7029 0.1914,0.1917 0.48896,0.2092 0.70181,0.0561 0.65528,0.80063 1.08554,1.79268 1.19314,2.87836 -0.26012,0.0404 -0.45935,0.26475 -0.45935,0.5369 0,0.27212 0.19935,0.49569 0.45958,0.53688 z"
       id="path6-3"
       style="fill:#f0f0f0;fill-opacity:1;stroke-width:0.133218" />
  </g>
</svg>
