<?xml version="1.0" encoding="UTF-8" standalone="no"?>
<svg
   width="32"
   version="1.1"
   height="32"
   viewBox="0 0 32 32"
   id="svg15"
   sodipodi:docname="folder-openSUSE.svg"
   inkscape:version="1.1.1 (3bf5ae0d25, 2021-09-20)"
   xmlns:inkscape="http://www.inkscape.org/namespaces/inkscape"
   xmlns:sodipodi="http://sodipodi.sourceforge.net/DTD/sodipodi-0.dtd"
   xmlns="http://www.w3.org/2000/svg"
   xmlns:svg="http://www.w3.org/2000/svg"
   xmlns:rdf="http://www.w3.org/1999/02/22-rdf-syntax-ns#"
   xmlns:cc="http://creativecommons.org/ns#"
   xmlns:dc="http://purl.org/dc/elements/1.1/">
  <sodipodi:namedview
     pagecolor="#ffffff"
     bordercolor="#666666"
     borderopacity="1"
     objecttolerance="10"
     gridtolerance="10"
     guidetolerance="10"
     inkscape:pageopacity="0"
     inkscape:pageshadow="2"
     inkscape:window-width="1920"
     inkscape:window-height="1013"
     id="namedview17"
     showgrid="false"
     inkscape:zoom="9.8125"
     inkscape:cx="-25.681529"
     inkscape:cy="0.50955414"
     inkscape:window-x="0"
     inkscape:window-y="0"
     inkscape:window-maximized="1"
     inkscape:current-layer="layer1"
     inkscape:document-rotation="0"
     inkscape:pagecheckerboard="0" />
  <defs
     id="defs5455" />
  <metadata
     id="metadata5458">
    <rdf:RDF>
      <cc:Work
         rdf:about="">
        <dc:format>image/svg+xml</dc:format>
        <dc:type
           rdf:resource="http://purl.org/dc/dcmitype/StillImage" />
      </cc:Work>
    </rdf:RDF>
  </metadata>
  <g
     inkscape:label="Capa 1"
     inkscape:groupmode="layer"
     id="layer1"
     transform="translate(-384.57143,-515.798)">
    <path
       style="fill:#8484ac;fill-opacity:1;stroke-width:0.0908036"
       d="m 397.16109,521.90564 c -0.37417,8e-5 -0.81705,-0.31221 -0.98476,-0.69383 l -0.7521,-1.71498 c -0.16734,-0.38163 -0.61023,-0.69358 -0.98442,-0.69383 l -7.38054,-0.005 c -1.48487,-10e-4 -2.48409,1.00439 -2.48084,2.49213 v 0 0 l -0.007,20.9979 c -5e-4,2.00997 0.49921,2.50249 2.49486,2.50301 l 27.02774,0.007 c 2.45575,5e-4 2.47953,-0.0105 2.47732,-2.52763 l -0.0157,-17.86833 c -0.002,-1.50646 -1.00012,-2.50035 -2.51368,-2.50002 z"
       id="path16"
       sodipodi:nodetypes="sccsscccsssssss" />
    <g
       id="g24"
       transform="matrix(0.08490721,0,0,0.09695731,379.48076,506.7753)">
      <path
         style="fill:#efefef;fill-opacity:1"
         d="m 179.58,131.156 8.844,17.688 c 1.968,3.936 4.8248,7.156 9.2248,7.156 H 208 c -4.4,0 -9.608,-3.22 -11.58,-7.156 l -8.844,-17.688 c -1.968,-3.936 -7.17873,-7.15601 -11.57873,-7.15601 L 168,124 c 4.4,0 9.608,3.22 11.58,7.156 z"
         id="path18"
         sodipodi:nodetypes="cssccsscc" />
      <rect
         x="75.888275"
         y="176.05383"
         style="fill:#263740;fill-opacity:1;stroke-width:0.991651"
         width="345.64072"
         height="205.93738"
         id="rect22"
         ry="10.823075" />
    </g>
    <rect
       x="386.14435"
       y="524.04803"
       style="fill:#9494b7;fill-opacity:1;stroke-width:0.0910439"
       width="28.904837"
       height="19.499996"
       id="rect26"
       ry="0.83313739" />
    <rect
       x="386.84277"
       y="524.89453"
       style="fill:#ffffff;stroke-width:0.0907326"
       width="27.509966"
       height="17.840145"
       id="rect28"
       ry="0.5996477" />
    <g
       id="g36"
       transform="matrix(0.08490721,0,0,0.09695731,379.07863,506.22564)">
      <polygon
         style="fill:#aaccff"
         points="100,276 100,272 168,204 172,204 172,276 "
         id="polygon34"
         transform="translate(-8.8452971)" />
    </g>
    <polygon
       style="fill:#2a7fff"
       points="168,272 100,272 168,204 "
       id="polygon38"
       transform="matrix(0.08490721,0,0,0.09695731,378.37753,506.22564)" />
    <path
       style="opacity:0.7;fill:#8484ac;fill-opacity:1;stroke-width:0.0910349"
       d="m 391.77897,526.04353 -5.85925,6.43047 v 10.40952 c 0.0241,0.6667 0.53116,0.90426 0.91722,0.93838 l 27.33758,0.0189 c 1.05115,5e-4 1.08137,-0.93071 1.08137,-0.93071 v -16.86664 z"
       id="path30-3"
       sodipodi:nodetypes="ccccsccc" />
    <path
       style="color:#4d4d4d;font-size:20.4884px;font-family:TrebuchetMS-Bold;fill:#f0f0f0;fill-opacity:1;fill-rule:evenodd;stroke:none;stroke-width:0.0858425;stroke-miterlimit:4"
       d="m 407.03674,529.798 c -3.30824,0 -5.99064,2.68633 -5.99064,6 0,3.31367 2.6824,5.99999 5.99064,5.99999 3.30824,0 5.99063,-2.68632 5.99063,-5.99999 0,-3.31367 -2.68239,-6 -5.99063,-6 z m 0.028,0.83084 c 2.85054,0 5.16319,2.31448 5.16319,5.16916 0,2.85493 -2.313,5.16915 -5.16319,5.16915 -1.53917,0 -2.92032,-0.67563 -3.86581,-1.74588 0.38879,-0.30223 1.03919,-0.22859 1.84023,-0.13718 0.38387,0.0444 0.82151,0.0939 1.27316,0.10395 1.2619,0.008 2.61959,-0.2233 3.45757,-0.59011 0.54177,-0.2379 0.8886,-0.3947 1.10544,-0.59215 0.0782,-0.0643 0.11926,-0.17155 0.1611,-0.28293 l 0.028,-0.0752 c 0.0352,-0.0899 0.0855,-0.28339 0.10809,-0.38892 0.0104,-0.0465 0.0146,-0.0959 -0.0179,-0.12149 l -0.11694,0.0224 c -0.36768,0.22085 -1.28633,0.64138 -2.14691,0.65845 -1.06643,0.0226 -3.21578,-1.07522 -3.43993,-1.19103 l -0.0224,-0.0261 c -0.0534,-0.12847 -0.3754,-0.89331 -0.44351,-1.05421 1.54709,1.02043 2.82979,1.58514 3.81283,1.67296 1.09299,0.0973 1.94556,-0.50041 2.31019,-0.75578 0.0712,-0.0485 0.12554,-0.0868 0.14784,-0.0951 l 0.0242,-0.0392 c -0.0604,-0.38479 -0.63391,-2.24674 -1.06572,-2.69392 -0.11971,-0.12266 -0.21492,-0.24203 -0.40821,-0.3558 -1.56299,-0.91241 -5.27407,-1.46192 -5.44784,-1.4873 l -0.028,0.009 -0.0112,0.0242 c 0,0 -0.0136,0.7718 -0.0149,0.85745 -0.12741,-0.0427 -0.52223,-0.1717 -1.08782,-0.32706 0.73797,-0.91454 1.86889,-1.72597 3.84808,-1.72597 z m 1.36365,2.73594 c 0.026,-3.4e-4 0.0522,-5e-4 0.0794,0 0.8756,0.0322 1.56345,0.77014 1.53352,1.6464 -0.015,0.42408 -0.19404,0.81569 -0.50311,1.10501 -0.30995,0.291 -0.71284,0.44254 -1.13848,0.42868 -0.87409,-0.0333 -1.56199,-0.77117 -1.53353,-1.64641 0.0145,-0.42438 0.19435,-0.81869 0.50527,-1.10705 0.29032,-0.27265 0.66186,-0.42069 1.05694,-0.42663 z m -0.042,0.46862 c -0.255,0.0149 -0.49565,0.11916 -0.68402,0.29618 -0.21468,0.20182 -0.34136,0.47519 -0.35084,0.77112 -0.0208,0.61178 0.45776,1.12658 1.06793,1.14924 0.29656,0.01 0.57784,-0.0949 0.79435,-0.29617 0.21592,-0.20279 0.34169,-0.47866 0.35081,-0.77337 0.0211,-0.61274 -0.45966,-1.12556 -1.07011,-1.147 -0.0369,-10e-4 -0.0717,-10e-4 -0.10812,0 z m 0.29126,0.55464 c 0.27115,0 0.48984,0.1476 0.48984,0.3292 0,0.18085 -0.21869,0.3294 -0.48984,0.3294 -0.2721,0 -0.49209,-0.14881 -0.49209,-0.3294 0,-0.1816 0.21999,-0.3292 0.49209,-0.3292 z"
       id="path2445-7"
       class="ColorScheme-Text"
       inkscape:connector-curvature="0" />
    <path
       class="st2"
       d="m 404.04142,530.605 c 1.36654,-0.8062 3.01386,-1.01248 4.54888,-0.6 1.53501,0.41248 2.89553,1.47485 3.68175,2.84352 0.78624,1.36867 0.96072,3.01858 0.54889,4.55599 -0.41184,1.53741 -1.4227,2.84983 -2.78924,3.63728 l -0.37439,-0.75629 c 1.19806,-0.69371 2.02793,-1.73731 2.3836,-3.08723 0.35568,-1.34992 0.23715,-2.77484 -0.47419,-3.97477 -0.69263,-1.19993 -1.83453,-2.08113 -3.18234,-2.43736 -1.3291,-0.37498 -2.7705,-0.18749 -3.96856,0.52497 z"
       id="path8-5"
       style="clip-rule:evenodd;fill:#263740;fill-opacity:1;fill-rule:evenodd;stroke-width:0.187343"
       sodipodi:nodetypes="csssccscccc" />
  </g>
</svg>
