<?xml version="1.0" encoding="UTF-8" standalone="no"?>
<svg
   width="32"
   version="1.1"
   height="32"
   viewBox="0 0 32 32"
   id="svg17"
   sodipodi:docname="folder-chart.svg"
   inkscape:version="1.1.1 (3bf5ae0d25, 2021-09-20)"
   xmlns:inkscape="http://www.inkscape.org/namespaces/inkscape"
   xmlns:sodipodi="http://sodipodi.sourceforge.net/DTD/sodipodi-0.dtd"
   xmlns="http://www.w3.org/2000/svg"
   xmlns:svg="http://www.w3.org/2000/svg"
   xmlns:rdf="http://www.w3.org/1999/02/22-rdf-syntax-ns#"
   xmlns:cc="http://creativecommons.org/ns#"
   xmlns:dc="http://purl.org/dc/elements/1.1/">
  <sodipodi:namedview
     pagecolor="#ffffff"
     bordercolor="#666666"
     borderopacity="1"
     objecttolerance="10"
     gridtolerance="10"
     guidetolerance="10"
     inkscape:pageopacity="0"
     inkscape:pageshadow="2"
     inkscape:window-width="1920"
     inkscape:window-height="1013"
     id="namedview19"
     showgrid="false"
     inkscape:zoom="9.8125"
     inkscape:cx="13.55414"
     inkscape:cy="-0.10191083"
     inkscape:window-x="0"
     inkscape:window-y="0"
     inkscape:window-maximized="1"
     inkscape:current-layer="layer1"
     inkscape:document-rotation="0"
     inkscape:pagecheckerboard="0"
     inkscape:lockguides="false" />
  <defs
     id="defs5455" />
  <metadata
     id="metadata5458">
    <rdf:RDF>
      <cc:Work
         rdf:about="">
        <dc:format>image/svg+xml</dc:format>
        <dc:type
           rdf:resource="http://purl.org/dc/dcmitype/StillImage" />
      </cc:Work>
    </rdf:RDF>
  </metadata>
  <g
     inkscape:label="Capa 1"
     inkscape:groupmode="layer"
     id="layer1"
     transform="translate(-384.57143,-515.798)">
    <path
       style="fill:#8484ac;fill-opacity:1;stroke-width:0.0908036"
       d="m 397.16109,521.90564 c -0.37417,8e-5 -0.81705,-0.3122 -0.98476,-0.69384 l -0.7521,-1.71496 c -0.16735,-0.38163 -0.61023,-0.69358 -0.98442,-0.69383 l -7.38055,-0.005 c -1.48486,-10e-4 -2.48408,1.00438 -2.48083,2.49213 v 0 0 l -0.007,20.99787 c -5e-4,2.00996 0.49921,2.50248 2.49486,2.50299 l 27.02774,0.007 c 2.45574,5e-4 2.47953,-0.0104 2.47732,-2.52761 l -0.0158,-17.86831 c -0.002,-1.50645 -1.00012,-2.50034 -2.51368,-2.50001 z"
       id="path16"
       sodipodi:nodetypes="sccsscccsssssss" />
    <g
       id="g24"
       transform="matrix(0.08490721,0,0,0.09695715,379.48076,506.77533)">
      <path
         style="fill:#efefef;fill-opacity:1"
         d="m 179.58,131.156 8.844,17.688 c 1.968,3.936 4.8248,7.156 9.2248,7.156 H 208 c -4.4,0 -9.608,-3.22 -11.58,-7.156 l -8.844,-17.688 c -1.968,-3.936 -7.17873,-7.15601 -11.57873,-7.15601 L 168,124 c 4.4,0 9.608,3.22 11.58,7.156 z"
         id="path18"
         sodipodi:nodetypes="cssccsscc" />
      <rect
         x="75.888275"
         y="176.05383"
         style="fill:#263740;fill-opacity:1;stroke-width:0.991651"
         width="345.64072"
         height="205.93738"
         id="rect22"
         ry="10.823075" />
    </g>
    <rect
       x="386.14438"
       y="524.04785"
       style="fill:#9494b7;fill-opacity:1;stroke-width:0.0910438"
       width="28.904831"
       height="19.499964"
       id="rect26"
       ry="0.83313602" />
    <rect
       x="386.8428"
       y="524.89429"
       style="fill:#ffffff;stroke-width:0.0907327"
       width="27.509962"
       height="17.840113"
       id="rect28"
       ry="0.59964669" />
    <g
       id="g36"
       transform="matrix(0.08490721,0,0,0.09695715,379.07864,506.22567)">
      <polygon
         style="fill:#aaccff"
         points="100,276 100,272 168,204 172,204 172,276 "
         id="polygon34"
         transform="translate(-8.8452971)" />
    </g>
    <polygon
       style="fill:#2a7fff"
       points="168,204 168,272 100,272 "
       id="polygon38"
       transform="matrix(0.08490721,0,0,0.09695715,378.37753,506.22567)" />
    <path
       style="opacity:0.7;fill:#8484ac;fill-opacity:1;stroke-width:0.0910629"
       d="m 391.78255,526.04353 -5.86284,6.43047 v 10.4095 c 0.0241,0.66668 0.5315,0.90424 0.91779,0.93838 l 27.35433,0.019 c 1.05179,5e-4 1.08203,-0.93071 1.08203,-0.93071 v -16.86661 z"
       id="path30-3"
       sodipodi:nodetypes="ccccsccc" />
    <path
       id="Chart"
       class="st0"
       d="m 410.47758,541.00185 h -9.85714 v -1.28571 h 0.85714 l 0.42857,-1.71429 2.14286,-3 h 1.28572 l 0.42857,-0.42857 1.71428,0.85715 v 1.28571 h 1.71429 v -1.92857 l 2.35714,-3 1.07143,0.21428 v 6.85715 c 0,1.17857 -0.96429,2.14285 -2.14286,2.14285 z"
       style="fill:#f0f0f0;fill-opacity:1;stroke-width:0.214285" />
    <path
       id="Chart-s"
       class="st1"
       d="m 412.19187,532.43043 c 0.70714,0 1.28571,-0.57858 1.28571,-1.28572 0,-0.70714 -0.57857,-1.28571 -1.28571,-1.28571 -0.70714,0 -1.28572,0.57857 -1.28572,1.28571 0,0.23572 0.0643,0.47143 0.19286,0.66429 l -2.33571,2.85 c -0.12857,-0.0428 -0.27857,-0.0857 -0.42857,-0.0857 -0.34286,0 -0.66429,0.12857 -0.9,0.36429 l -1.24286,-0.64286 c 0,-0.0429 0,-0.10714 0,-0.15 0,-0.70714 -0.57857,-1.28571 -1.28572,-1.28571 -0.70714,0 -1.28571,0.57857 -1.28571,1.28571 0,0.23572 0.0643,0.47143 0.19286,0.66429 l -2.33572,2.85 c -0.12857,-0.0643 -0.27857,-0.0857 -0.42857,-0.0857 -0.70714,0 -1.28571,0.57857 -1.28571,1.28572 0,0.70714 0.57857,1.28571 1.28571,1.28571 0.70714,0 1.28572,-0.57857 1.28572,-1.28571 0,-0.23572 -0.0643,-0.47143 -0.19286,-0.66429 l 2.33571,-2.85 c 0.12857,0.0429 0.27857,0.0857 0.42857,0.0857 0.34286,0 0.66429,-0.12858 0.9,-0.36429 l 1.26429,0.62143 c 0,0.0428 0,0.10714 0,0.15 0,0.70714 0.57857,1.28571 1.28571,1.28571 0.70715,0 1.28572,-0.57857 1.28572,-1.28571 0,-0.23572 -0.0643,-0.47143 -0.19286,-0.66429 l 2.31429,-2.82857 c 0.12857,0.0643 0.27857,0.0857 0.42857,0.0857 z m 0,-0.85715 c 0.23571,0 0.42857,-0.19285 0.42857,-0.42857 0,-0.23571 -0.19286,-0.42857 -0.42857,-0.42857 -0.23572,0 -0.42857,0.19286 -0.42857,0.42857 0,0.23572 0.19285,0.42857 0.42857,0.42857 z m -3.42857,4.28572 c 0,0.23571 -0.19286,0.42857 -0.42857,0.42857 -0.23572,0 -0.42858,-0.19286 -0.42858,-0.42857 0,-0.23572 0.19286,-0.42857 0.42858,-0.42857 0.23571,0 0.42857,0.19285 0.42857,0.42857 z m -3.85715,-1.28572 c 0.23572,0 0.42858,-0.19285 0.42858,-0.42857 0,-0.23571 -0.19286,-0.42857 -0.42858,-0.42857 -0.23571,0 -0.42857,0.19286 -0.42857,0.42857 0,0.23572 0.19286,0.42857 0.42857,0.42857 z m -3.42857,4.28572 c 0,0.23571 -0.19285,0.42857 -0.42857,0.42857 -0.23571,0 -0.42857,-0.19286 -0.42857,-0.42857 0,-0.23572 0.19286,-0.42857 0.42857,-0.42857 0.23572,0 0.42857,0.19285 0.42857,0.42857 z m 10.28572,-0.42857 h 0.85714 v 0.85714 c 0,1.41428 -1.15714,2.57143 -2.57143,2.57143 h -8.57143 v -0.85715 h 8.57143 c 0.94286,0 1.71429,-0.77142 1.71429,-1.71428 z"
       style="clip-rule:evenodd;fill:#263740;fill-opacity:1;fill-rule:evenodd;stroke-width:0.214285" />
  </g>
</svg>
