<?xml version="1.0" encoding="UTF-8" standalone="no"?>
<svg
   width="32"
   version="1.1"
   height="32"
   viewBox="0 0 32 32"
   id="svg17"
   sodipodi:docname="folder-cloud.svg"
   inkscape:version="1.1.1 (3bf5ae0d25, 2021-09-20)"
   xmlns:inkscape="http://www.inkscape.org/namespaces/inkscape"
   xmlns:sodipodi="http://sodipodi.sourceforge.net/DTD/sodipodi-0.dtd"
   xmlns="http://www.w3.org/2000/svg"
   xmlns:svg="http://www.w3.org/2000/svg"
   xmlns:rdf="http://www.w3.org/1999/02/22-rdf-syntax-ns#"
   xmlns:cc="http://creativecommons.org/ns#"
   xmlns:dc="http://purl.org/dc/elements/1.1/">
  <sodipodi:namedview
     pagecolor="#ffffff"
     bordercolor="#666666"
     borderopacity="1"
     objecttolerance="10"
     gridtolerance="10"
     guidetolerance="10"
     inkscape:pageopacity="0"
     inkscape:pageshadow="2"
     inkscape:window-width="1920"
     inkscape:window-height="1013"
     id="namedview19"
     showgrid="false"
     inkscape:zoom="9.8125"
     inkscape:cx="-19.770701"
     inkscape:cy="-7.9490446"
     inkscape:window-x="0"
     inkscape:window-y="0"
     inkscape:window-maximized="1"
     inkscape:current-layer="layer1"
     inkscape:document-rotation="0"
     inkscape:pagecheckerboard="0" />
  <defs
     id="defs5455" />
  <metadata
     id="metadata5458">
    <rdf:RDF>
      <cc:Work
         rdf:about="">
        <dc:format>image/svg+xml</dc:format>
        <dc:type
           rdf:resource="http://purl.org/dc/dcmitype/StillImage" />
      </cc:Work>
    </rdf:RDF>
  </metadata>
  <g
     inkscape:label="Capa 1"
     inkscape:groupmode="layer"
     id="layer1"
     transform="translate(-384.57143,-515.798)">
    <path
       style="fill:#8484ac;fill-opacity:1;stroke-width:0.0908036"
       d="m 397.16109,521.90564 c -0.37417,8e-5 -0.81705,-0.31221 -0.98476,-0.69383 l -0.7521,-1.71498 c -0.16734,-0.38163 -0.61023,-0.69358 -0.98442,-0.69383 l -7.38054,-0.005 c -1.48487,-10e-4 -2.48409,1.00439 -2.48084,2.49213 v 0 0 l -0.007,20.9979 c -5e-4,2.00997 0.49921,2.50249 2.49486,2.50301 l 27.02774,0.007 c 2.45575,5e-4 2.47953,-0.0104 2.47732,-2.52763 l -0.0157,-17.86833 c -0.002,-1.50646 -1.00012,-2.50035 -2.51368,-2.50002 z"
       id="path16"
       sodipodi:nodetypes="sccsscccsssssss" />
    <g
       id="g24"
       transform="matrix(0.08490721,0,0,0.09695731,379.48076,506.7753)">
      <path
         style="fill:#efefef;fill-opacity:1"
         d="m 179.58,131.156 8.844,17.688 c 1.968,3.936 4.8248,7.156 9.2248,7.156 H 208 c -4.4,0 -9.608,-3.22 -11.58,-7.156 l -8.844,-17.688 c -1.968,-3.936 -7.17873,-7.15601 -11.57873,-7.15601 L 168,124 c 4.4,0 9.608,3.22 11.58,7.156 z"
         id="path18"
         sodipodi:nodetypes="cssccsscc" />
      <rect
         x="75.888275"
         y="176.05383"
         style="fill:#263740;fill-opacity:1;stroke-width:0.991651"
         width="345.64072"
         height="205.93738"
         id="rect22"
         ry="10.823075" />
    </g>
    <rect
       x="386.14438"
       y="524.04803"
       style="fill:#9494b7;fill-opacity:1;stroke-width:0.0910439"
       width="28.904837"
       height="19.499996"
       id="rect26"
       ry="0.83313739" />
    <rect
       x="386.8428"
       y="524.89453"
       style="fill:#ffffff;stroke-width:0.0907326"
       width="27.509966"
       height="17.840145"
       id="rect28"
       ry="0.5996477" />
    <g
       id="g36"
       transform="matrix(0.08490721,0,0,0.09695731,379.07863,506.22564)">
      <polygon
         style="fill:#aaccff"
         points="168,204 172,204 172,276 100,276 100,272 "
         id="polygon34"
         transform="translate(-8.8452971)" />
    </g>
    <polygon
       style="fill:#2a7fff"
       points="168,204 168,272 100,272 "
       id="polygon38"
       transform="matrix(0.08490721,0,0,0.09695731,378.37753,506.22564)" />
    <path
       style="opacity:0.7;fill:#8484ac;fill-opacity:1;stroke-width:0.0910629"
       d="m 391.78255,526.04353 -5.86283,6.43047 v 10.40952 c 0.0242,0.6667 0.53149,0.90426 0.91778,0.93838 l 27.35433,0.0189 c 1.0518,5e-4 1.08203,-0.93071 1.08203,-0.93071 v -16.86664 z"
       id="path30-3"
       sodipodi:nodetypes="ccccsccc" />
    <path
       id="Cloud-7"
       class="st0"
       d="m 411.46162,536.50255 c 0.0227,-0.20455 0.0453,-0.4091 0.0453,-0.61364 0,-2.25 -1.83804,-4.09091 -4.08452,-4.09091 -2.24649,0 -4.08453,1.84091 -4.08453,4.09091 0,0.15909 0,0.29545 0.0228,0.45454 h -2.29188 c -1.24805,0 -2.26918,1.02273 -2.26918,2.27273 v 2.27273 h 11.79974 c 1.24805,0 2.26918,-1.02273 2.26918,-2.27273 0,-0.95454 -0.58999,-1.77273 -1.40689,-2.11363 z"
       style="fill:#f0f0f0;fill-opacity:1;stroke-width:0.227095" />
    <path
       id="Cloud-s-5"
       class="st1"
       d="m 402.43028,534.52527 c -0.49922,0 -0.90767,0.40909 -0.90767,0.90909 v 0.90909 h -0.45384 c -0.15885,0 -0.31769,0.0227 -0.45383,0.0455 v -0.95454 c 0,-1 0.8169,-1.81818 1.81534,-1.81818 h 0.45384 v 0.90909 z m 10.89207,4.54546 c 0,-1.5 -1.22536,-2.72728 -2.72302,-2.72728 v 0.9091 c 0.99844,0 1.81535,0.81818 1.81535,1.81818 0,1 -0.81691,1.81818 -1.81535,1.81818 h -10.89207 v 0.90908 h 10.89207 c 1.49766,0 2.72302,-1.22726 2.72302,-2.72726 z"
       style="fill:#263740;fill-opacity:1;stroke-width:0.227095" />
  </g>
</svg>
