<?xml version="1.0" encoding="UTF-8" standalone="no"?>
<svg
   width="32"
   version="1.1"
   height="32"
   viewBox="0 0 32 32"
   id="svg17"
   sodipodi:docname="folder_html.svg"
   inkscape:version="1.1.1 (3bf5ae0d25, 2021-09-20)"
   xmlns:inkscape="http://www.inkscape.org/namespaces/inkscape"
   xmlns:sodipodi="http://sodipodi.sourceforge.net/DTD/sodipodi-0.dtd"
   xmlns="http://www.w3.org/2000/svg"
   xmlns:svg="http://www.w3.org/2000/svg"
   xmlns:rdf="http://www.w3.org/1999/02/22-rdf-syntax-ns#"
   xmlns:cc="http://creativecommons.org/ns#"
   xmlns:dc="http://purl.org/dc/elements/1.1/">
  <sodipodi:namedview
     pagecolor="#ffffff"
     bordercolor="#666666"
     borderopacity="1"
     objecttolerance="10"
     gridtolerance="10"
     guidetolerance="10"
     inkscape:pageopacity="0"
     inkscape:pageshadow="2"
     inkscape:window-width="1920"
     inkscape:window-height="1013"
     id="namedview19"
     showgrid="true"
     inkscape:zoom="9.8125"
     inkscape:cx="-18.140127"
     inkscape:cy="7.7452229"
     inkscape:window-x="0"
     inkscape:window-y="0"
     inkscape:window-maximized="1"
     inkscape:current-layer="layer1"
     inkscape:document-rotation="0"
     inkscape:pagecheckerboard="0"
     inkscape:lockguides="true">
    <inkscape:grid
       type="xygrid"
       id="grid838" />
  </sodipodi:namedview>
  <defs
     id="defs5455" />
  <metadata
     id="metadata5458">
    <rdf:RDF>
      <cc:Work
         rdf:about="">
        <dc:format>image/svg+xml</dc:format>
        <dc:type
           rdf:resource="http://purl.org/dc/dcmitype/StillImage" />
      </cc:Work>
    </rdf:RDF>
  </metadata>
  <g
     inkscape:label="Capa 1"
     inkscape:groupmode="layer"
     id="layer1"
     transform="translate(-384.57143,-515.798)">
    <path
       style="fill:#8484ac;fill-opacity:1;stroke-width:0.0908036"
       d="m 397.16109,521.90564 c -0.37417,8e-5 -0.81705,-0.31221 -0.98476,-0.69383 l -0.7521,-1.71498 c -0.16734,-0.38163 -0.61023,-0.69358 -0.98442,-0.69383 l -7.38054,-0.005 c -1.48487,-10e-4 -2.48409,1.00439 -2.48084,2.49213 v 0 0 l -0.007,20.9979 c -5e-4,2.00997 0.49921,2.50249 2.49486,2.50301 l 27.02774,0.007 c 2.45575,5e-4 2.47953,-0.0105 2.47732,-2.52763 l -0.0157,-17.86833 c -0.002,-1.50646 -1.00012,-2.50035 -2.51368,-2.50002 z"
       id="path16-3"
       sodipodi:nodetypes="sccsscccsssssss" />
    <g
       id="g24"
       transform="matrix(0.08490721,0,0,0.09695731,379.48076,506.7753)">
      <path
         style="fill:#efefef;fill-opacity:1"
         d="m 179.58,131.156 8.844,17.688 c 1.968,3.936 4.8248,7.156 9.2248,7.156 H 208 c -4.4,0 -9.608,-3.22 -11.58,-7.156 l -8.844,-17.688 c -1.968,-3.936 -7.17873,-7.15601 -11.57873,-7.15601 L 168,124 c 4.4,0 9.608,3.22 11.58,7.156 z"
         id="path18-6"
         sodipodi:nodetypes="cssccsscc" />
      <rect
         x="75.888275"
         y="176.05383"
         style="fill:#263740;fill-opacity:1;stroke-width:0.991651"
         width="345.64072"
         height="205.93738"
         id="rect22"
         ry="10.823075" />
    </g>
    <rect
       x="386.14438"
       y="524.04773"
       style="fill:#9494b7;fill-opacity:1;stroke-width:0.0910439"
       width="28.904837"
       height="19.499996"
       id="rect26"
       ry="0.83313739" />
    <rect
       x="386.8428"
       y="524.89423"
       style="fill:#ffffff;stroke-width:0.0907326"
       width="27.509966"
       height="17.840145"
       id="rect28"
       ry="0.5996477" />
    <g
       id="g36"
       transform="matrix(0.08490721,0,0,0.09695731,379.07863,506.22564)">
      <polygon
         style="fill:#aaccff"
         points="168,204 172,204 172,276 100,276 100,272 "
         id="polygon34"
         transform="translate(-8.8452971)" />
    </g>
    <polygon
       style="fill:#2a7fff"
       points="168,204 168,272 100,272 "
       id="polygon38"
       transform="matrix(0.08490721,0,0,0.09695731,378.37753,506.22564)" />
    <path
       style="opacity:0.7;fill:#8484ac;fill-opacity:1;stroke-width:0.0910349"
       d="m 391.77897,526.04353 -5.85925,6.43047 v 10.40952 c 0.0241,0.6667 0.53116,0.90426 0.91722,0.93838 l 27.33758,0.0189 c 1.05115,5e-4 1.08137,-0.93071 1.08137,-0.93071 V 526.0435 Z"
       id="path30-3"
       sodipodi:nodetypes="ccccsccc" />
    <path
       d="m 409.10802,531.01171 c 0,0 0.002,0 0.002,0.002 0,0 0.003,0 0.005,0 -0.003,-0.002 -0.005,-0.002 -0.006,-0.002 z"
       id="path6-39"
       style="fill:#f0f0f0;fill-opacity:1;stroke-width:0.0156493" />
    <path
       d="m 409.03139,538.76261 c -0.0109,0.022 -0.0109,0.0767 -0.025,0.094 -0.0547,0.0532 -0.16106,0.17228 -0.23613,0.22083 -0.0985,0.0564 -0.20953,0.0564 -0.22204,0.2036 -0.003,0.0501 0.0391,0.11746 0.0375,0.15035 0.002,0.006 -0.0735,0.13469 -0.0735,0.13469 -0.004,10e-4 -0.0657,0.0532 -0.0688,0.0626 -0.003,0.0423 -0.006,0.0877 0.0298,0.11119 10e-4,0.0172 -0.011,0.0329 -0.011,0.0705 -0.005,0.0736 0.0532,0.14252 0.13135,0.13939 0.18921,-0.0204 0.23455,-0.1989 0.3018,-0.33359 0.0845,-0.16915 0.16575,-0.31324 0.18608,-0.5372 0.005,0 0.0375,0.008 0.0516,0.0109 10e-4,-0.0126 0.004,-0.0314 0.004,-0.0439 -0.0219,-0.0814 0,-0.27564 -0.10633,-0.28347 z"
       id="path8-0"
       style="fill:#f0f0f0;fill-opacity:1;stroke-width:0.0156493" />
    <path
       d="m 411.51769,536.85034 c -0.001,0.0454 0.0219,0.0877 0.0516,0.0877 0.0437,-0.005 0.0735,-0.0783 0.0766,-0.13939 0.006,-0.10493 -0.0594,-0.14252 -0.0876,-0.22083 -0.005,0.1018 -0.0375,0.17385 -0.0406,0.27252 z"
       id="path10-8"
       style="fill:#f0f0f0;fill-opacity:1;stroke-width:0.0156493" />
    <path
       d="m 412.3574,537.01635 c -0.0109,-10e-4 -0.0109,0.003 -0.0109,-0.0109 -0.006,-0.0392 -0.011,-0.0783 -0.0328,-0.094 -0.0282,0.006 -0.009,-0.002 -0.036,0.006 -0.011,-0.022 0.003,-0.0251 -0.022,-0.022 -0.006,0 -0.008,-0.003 -0.008,10e-4 -0.002,0.008 -0.002,0.0156 -0.002,0.022 0.005,0.0282 0.005,0.0971 0.0266,0.10337 0.022,0.0109 0.022,-0.005 0.0235,0.0203 0,0.0266 0.006,0.0501 0.0109,0.0767 0.003,0.036 0.0251,0.0204 0.0312,0.0783 0,0.022 -0.003,0.0736 0.005,0.0877 0.006,0.008 0.0141,0.003 0.0141,0.009 0.003,0.008 -0.003,0.022 -0.001,0.022 0.0125,-0.0705 0.025,-0.14095 0.0344,-0.21299 -0.002,-0.008 -0.002,-0.0126 -0.006,-0.022 -0.009,-0.0251 -0.0141,-0.0548 -0.0266,-0.0658 z"
       id="path12-8"
       style="fill:#f0f0f0;fill-opacity:1;stroke-width:0.0156493" />
    <path
       d="m 412.32456,537.375 c -0.006,0.005 -0.001,0.003 -0.008,0.003 0,0.003 -0.002,0.008 -0.002,0.011 -0.003,0.0188 -0.003,0.0532 0.0109,0.0548 0.005,-0.0267 0,-0.0407 -0.001,-0.0548 -0.002,-0.005 -0.002,-0.009 0,-0.0141 z"
       id="path14-5"
       style="fill:#f0f0f0;fill-opacity:1;stroke-width:0.0156493" />
    <path
       d="m 412.30111,537.22621 c 0,0.006 -0.002,0.005 -0.006,0.006 0.002,0 0.002,0 0.002,0 -0.002,0.0156 0.003,0.0501 0.0125,0.0532 0.0172,-0.0109 0.002,-0.0423 -0.008,-0.0595 z"
       id="path16-0"
       style="fill:#f0f0f0;fill-opacity:1;stroke-width:0.0156493" />
    <path
       d="m 409.05954,531.433 c 0.0453,0.0141 0.025,0.0251 0.0484,0.0407 0.005,0.008 0.0469,0.009 0.0657,0.0141 0.009,0 0.0141,0.006 0.0204,0.0109 0.0673,0.0141 0.13292,0.0298 0.20173,0.0454 -0.003,-0.002 -0.005,-0.003 -0.009,-0.006 -0.0625,-0.0329 -0.14699,-0.0611 -0.1595,-0.094 -0.0156,-0.0626 0.13761,-0.0767 0.25644,-0.0533 0.0422,0.008 0.0453,-0.008 0.10478,0.009 0.025,0.008 0.0265,-0.003 0.0437,-0.003 0.0719,0.0125 0.12978,0.0344 0.20171,0.0485 0.0156,0.003 0.0422,0.0109 0.0704,0.0204 -0.0312,-0.022 -0.0625,-0.0423 -0.0922,-0.0626 -0.0547,-0.011 -0.11103,-0.0188 -0.18296,-0.0392 -0.0266,-0.008 -0.0469,-0.0235 -0.0751,-0.0314 -0.0437,-0.0141 -0.0391,-0.003 -0.0704,-0.0125 -0.0892,-0.025 -0.14229,-0.005 -0.20327,-0.0204 -0.0406,-0.009 -0.0579,-0.009 -0.0969,-0.0188 -0.0156,-0.008 -0.0282,0 -0.0235,0.003 0,0.008 0.0188,0.009 0.0235,0.0188 0.008,0.022 -0.11885,0.006 -0.11885,0.022 0.006,0.009 0.0343,0.0156 0.0453,0.0282 -0.0406,-0.003 -0.12041,-0.0172 -0.11884,0 0.003,0.006 0.005,0.006 0.005,0.0141 0.006,0.0235 -0.0751,-10e-4 -0.0704,0.022 0.008,0.0141 0.0531,0.0282 0.0531,0.0282 0,0 0.0751,0.0141 0.0813,0.0156 z"
       id="path18-9"
       style="fill:#f0f0f0;fill-opacity:1;stroke-width:0.0156493" />
    <polygon
       points="675.5,197.7 675.6,197.7 675.4,197.6 "
       id="polygon20-6"
       style="fill:#f0f0f0;fill-opacity:1"
       transform="matrix(0.01563712,0,0,0.01566155,398.82504,528.44321)" />
    <path
       d="m 410.49502,531.9655 c 0.0141,0.008 0.0406,0.0125 0.0688,0.025 -0.0328,-0.0313 -0.0672,-0.0626 -0.10007,-0.0908 -10e-4,0.004 -0.005,0.009 -0.0156,0.0109 -0.005,0.003 0.022,0.0407 0.0469,0.0548 z"
       id="path22-3"
       style="fill:#f0f0f0;fill-opacity:1;stroke-width:0.0156493" />
    <path
       d="m 410.58728,532.01091 c -0.0328,-0.0157 -0.0625,-0.0298 -0.0641,-0.0266 0.0172,0.0329 0.0563,0.083 0.0172,0.0689 -0.001,-0.002 -0.0109,0.008 -0.0266,0.0141 -0.0438,0.0141 -0.0704,0 -0.0876,-0.003 -0.0251,0 -0.0126,-0.0392 -0.0172,-0.0439 -0.0126,-10e-4 0.0578,-0.009 0.0531,-0.0204 -0.003,-0.0109 0.0125,-0.0141 0.005,-0.025 -0.0126,-0.0126 -0.05,-0.0344 -0.061,-0.0486 -0.0173,-0.0329 -0.0173,-0.0548 -0.0328,-0.0799 -0.022,-0.0344 -0.0453,-0.0439 -0.0547,-0.0564 -0.002,-0.005 0,-0.009 0.005,-0.011 -0.0343,-0.0282 -0.0704,-0.0564 -0.10477,-0.0846 0,0 -0.001,0 -0.001,0 h 0.001 c -0.0125,-0.0109 -0.0281,-0.0219 -0.0406,-0.0313 -0.009,-0.002 -0.011,0 -0.008,0.008 0,0.002 -0.002,0.005 0,0.006 -0.0156,-0.006 -0.0312,-0.009 -0.0391,-0.0109 -0.0312,-0.003 -0.0297,0.0282 -0.0547,0.0297 -0.0297,0.002 -0.0516,-0.009 -0.0672,-0.002 -0.0235,0.011 0.0375,0.0282 0.0438,0.0407 0.0172,0.0282 -0.0172,0.0235 0.009,0.0392 0.0298,0.0141 0.0657,0.0313 0.10007,0.0517 0.0579,0.0533 0.0563,0.0658 0.009,0.0486 -0.0298,-0.009 -0.0782,-0.0439 -0.12197,-0.0658 -0.0813,-0.0392 -0.16576,-0.0767 -0.21424,-0.10023 -0.34558,-0.13313 -0.17826,-0.0125 -0.18765,-0.009 -0.15167,0.002 -0.0829,-0.0439 -0.12978,-0.0595 -0.0813,-0.0141 -0.25019,0.006 -0.38467,-0.0454 -0.008,-0.009 0.0672,-0.0141 0.0516,-0.0204 -0.0641,-0.0172 -0.18765,-0.0141 -0.319,0 -0.0516,0.005 -0.0954,-0.0125 -0.1423,-0.008 -0.0719,0.0109 -0.011,0.0642 -0.15637,0.0344 -0.0343,-0.008 -0.12197,-0.0423 -0.10946,-0.0595 0.008,-0.0109 0.13761,0.022 0.13604,0.006 -0.0109,-0.0423 -0.19546,-0.11903 -0.25019,-0.0752 -0.0172,0.0125 0.0578,0.022 0.006,0.0705 -0.0125,0.008 0.0563,0.0282 0.0594,0.0517 0,0.0172 -0.10007,0.009 -0.12666,0.003 -0.0126,-0.005 0.003,-0.0313 -0.0282,-0.0313 -0.0672,0.002 -0.18139,0.0423 -0.21892,0.0407 -0.0422,0.008 0.0422,0.0485 0.0219,0.0642 -0.0219,0.0109 -0.1423,-0.0157 -0.33307,-0.0611 0.0126,0.0188 0.0297,0.0392 0.0469,0.0564 0.0391,0.009 0.0735,0.0188 0.11258,0.0297 -0.0735,-0.003 -0.11258,0.0156 -0.16888,-0.008 -0.0297,-0.011 -0.0704,-0.0141 -0.0922,-0.0329 -0.0204,-0.0109 0.002,-0.0297 -0.0141,-0.0485 -0.0312,-0.0344 -0.0907,-0.0705 -0.10789,-0.083 0.13448,0.009 0.20484,0.011 0.33932,0.0344 0.1767,0.0282 0.51447,-0.0344 -0.0235,-0.15036 -0.15637,-0.0313 -0.25489,-0.0626 -0.37216,-0.072 -0.009,0 -0.0798,-0.025 -0.1642,-0.025 -0.008,-0.002 -0.0813,-0.005 -0.11727,-0.009 10e-4,-0.008 -0.0251,-0.006 -0.0594,-0.0172 0.0813,-0.008 0.10947,0.003 0.13917,-0.0204 -0.0281,-0.008 -0.10946,-0.0204 -0.12353,-0.022 -0.0297,-0.003 -0.0406,0.005 -0.0516,0.0126 -0.0391,-0.003 -0.0313,-0.006 -0.036,-0.0235 -0.0547,0.006 -0.0813,0.0109 -0.13135,0.025 -0.005,-0.006 -0.005,-0.0125 -0.0188,-0.0188 -0.0594,0.006 -0.0798,0.0298 -0.15169,0.0298 0.0156,-0.0141 0.0719,-0.0126 0.0735,-0.0329 0,-0.0173 -0.13448,0.0109 -0.18765,0.0109 -0.0328,0 -0.0516,-0.009 -0.0735,-0.0141 -0.0109,0.003 -0.0719,0.009 -0.0751,0.0156 0,0.009 0.0235,0.009 0.0516,0.0109 -0.0641,0.009 -0.1204,0.005 -0.17044,0.0314 0,-0.008 10e-4,-0.009 0,-0.0173 -0.0735,0.002 -0.086,0.0267 -0.13136,0.0329 0,-0.006 0,-0.008 0,-0.0126 -0.0547,0.005 -0.11414,0.008 -0.15324,0.0188 0.008,0.005 0.0204,0.006 0.0282,0.006 -0.022,0.006 -0.0923,0.0109 -0.11571,0.0109 -0.0328,0 -0.0563,0.0156 -0.0735,0.0235 0.0235,0 0.0265,-0.002 0.0485,0 -0.005,0 -0.0453,0.0188 -0.0594,0.022 -0.0406,0.002 -0.0125,0 -0.0641,0 0.0109,-0.006 -0.006,0 -0.0235,-0.005 -0.008,0.006 -0.022,0.0109 -0.0282,0.0172 -0.008,-0.002 -0.0172,-0.003 -0.0251,-0.002 -0.022,0 -0.0406,0.008 -0.0484,0.022 0,0 -0.0204,0.0141 -0.006,0.011 -0.0109,0.001 -0.0453,0.0156 -0.0625,0.0235 0.0751,0 0.17044,-0.0172 0.25018,-0.0282 -0.0172,0.0235 -0.10789,0.0736 -0.17513,0.0893 -0.0672,0.0125 -0.11102,0.0344 -0.15168,0.0627 -9.9e-4,0 -0.0343,0.0329 -0.0343,0.0329 -0.0219,0.002 -0.0235,0.0407 -0.061,0.0564 -0.0985,0.0391 -0.15794,0.0736 -0.29867,0.10336 0.0266,0 0.0391,0.002 0.0735,0.002 -0.11103,0.008 -0.11572,0.0392 -0.17514,0.0501 -0.0688,0.0126 -0.10477,0.0344 -0.14387,0.0627 -0.0188,0.0109 -0.0516,0.0266 -0.0547,0.0485 -0.006,0.0407 0.0235,0.0955 0.0672,0.11903 -0.0141,0.009 -0.0516,0.0313 -0.0547,0.0423 0.0235,-0.005 0.0547,-0.009 0.0829,-0.0156 0,0.008 0,0.0141 -0.003,0.022 -0.011,0.004 -0.0532,0.0156 -0.0547,0.0282 -10e-4,0.006 0.11728,0.0298 0.13761,0.0282 0.13291,-0.0126 0.26114,-0.0689 0.3315,-0.11903 0.0203,0.0109 0.0266,0.022 0.061,0.0313 -0.006,0.005 -0.0172,0.0141 -0.0172,0.022 -0.003,0.0267 0.0453,0.0282 0.0625,0.0501 0.0204,0.0313 0.011,0.0532 0.0657,0.0767 0,0.004 -0.005,0.0109 -0.008,0.0156 0,0.008 0.0235,0.083 0.0516,0.0861 0.0829,-0.008 0.10008,-0.0767 0.15638,-0.0814 0.0219,-10e-4 0.0751,0 0.12197,-10e-4 0.0141,-0.0298 0.0876,-0.0376 0.10319,-0.0767 -0.0156,-0.003 -0.0485,-0.008 -0.0485,-0.025 0,-0.0313 -0.008,-0.0893 0.0594,-0.0924 0.0328,-0.002 0.13291,-0.0392 0.13291,-0.0642 0.001,-0.0282 -0.011,-0.0658 -0.0719,-0.0674 0.002,-0.0109 -0.009,-0.0219 -0.0251,-0.025 -0.0141,-0.0141 -0.0312,-0.0251 -0.05,-0.0376 0.0516,-0.0126 0.0219,-0.0376 0.0453,-0.058 0.0344,-0.0251 0.0829,-0.0344 0.13917,-0.0517 0.0688,-0.0156 0.22049,-0.0642 0.22361,-0.0971 0.009,-0.008 0,-0.0126 0.002,-0.0298 0.002,-0.0392 0.0798,-0.0689 0.1892,-0.0705 0.0798,-0.002 0.18453,0.005 0.18608,0.0392 -0.002,0.025 -0.1376,0.0736 -0.18295,0.0846 -0.0845,0.0251 -0.0625,0.0658 -0.20016,0.0673 0.006,0.0109 -0.009,0.0611 -0.011,0.0705 0.002,0.0172 0.006,0.036 0.0391,0.0407 -0.009,0.006 -0.0453,0.0172 -0.0469,0.0329 0,0.0313 0.0719,0.047 0.14073,0.047 0.002,0.0156 0.0141,0.0172 0.0579,0.0204 0.0594,-0.002 0.0953,0.006 0.16263,0 0.0641,0.005 0.12823,-0.009 0.16106,-0.0392 0.0266,0.0156 0.16732,0.0188 0.1939,0.0438 -0.0406,0.0126 -0.0751,0.0501 -0.11884,0.0501 -0.0579,0 -0.17357,-0.0251 -0.24863,-0.0267 -0.0735,0.003 -0.27678,0.072 -0.22674,0.0971 0.0594,0.025 0.10477,-0.022 0.16419,0.025 0.0437,0.0344 -0.022,0.0705 -0.0469,0.072 -0.0672,0.002 -0.0766,-0.0344 -0.13448,-0.0376 -0.0579,0.005 -0.11572,0.10024 -0.11885,0.13939 0,0.0595 -0.11884,0.0423 -0.12822,0.0987 -0.0406,0.005 -0.0798,0.006 -0.12197,0.006 0.006,-0.006 0.011,-0.0125 0.0141,-0.0172 -0.0203,-0.005 -0.0688,-0.003 -0.11415,-0.003 -0.0406,0.005 -0.0923,0.0282 -0.1251,0.0344 -0.0484,0.0141 -0.0829,-0.002 -0.14073,0.0156 -0.0141,0.005 -0.0204,0.0172 -0.0579,0.0188 0,0 -0.0531,-0.0188 -0.0547,-0.022 0,-0.005 0.0172,-0.0125 0.0204,-0.0204 -0.0767,0.002 -0.13917,0.0392 -0.22987,0.047 -0.009,-0.002 -0.0845,-0.0674 -0.0907,-0.0752 -0.025,0.003 0.0251,0.0485 -0.0109,0.0532 0,-0.006 0.002,-0.0126 0.002,-0.0188 -0.0156,0 -0.0343,-0.011 -0.0328,-0.0282 0.003,-0.0344 0.0438,-0.0454 0.0767,-0.0673 0.008,-10e-4 0.0391,-0.0109 0.0391,-0.0188 0,-0.005 0,-0.009 0.002,-0.0141 -0.022,0.003 -0.0626,0.003 -0.061,-0.0141 0.002,-0.0172 0.006,-0.0251 0.0235,-0.0454 10e-4,-0.006 10e-4,-0.0125 10e-4,-0.0204 -0.0829,0.036 -0.20641,0.0486 -0.21579,0.12059 -0.003,0.0391 0.0453,0.0501 0.0563,0.0955 0,0.002 0.0204,0.0329 0.0188,0.0423 -0.006,0.0109 -0.0547,0.0313 -0.0751,0.0344 -0.0282,0.002 -0.0547,-0.002 -0.0798,0.0109 -0.006,0.002 -0.0204,0.0126 -0.0282,0.009 -0.0188,0.005 -0.003,-0.002 -0.0453,0.003 -0.0735,0.005 -0.19546,0.0893 -0.24393,0.12372 -0.003,0.002 -0.0344,0.0172 -0.0344,0.0267 -0.003,0.0235 0.003,0.0501 -0.022,0.0689 -0.0109,0.008 -0.14386,0.0548 -0.16419,0.0611 -0.0126,0.003 -0.0282,0.006 -0.0438,0.009 -0.0235,0.0532 0.003,0.0673 -0.0923,0.0783 -0.009,0.0141 -0.0328,0.0329 -0.0563,0.0376 -0.0391,0.005 -0.0673,-0.003 -0.0907,-0.0172 -0.009,0.002 -0.0235,0.003 -0.0312,0.005 -0.003,0.003 -0.002,0.0109 -0.002,0.0172 0.005,0.005 -0.0109,0.0376 0.011,0.0407 0,0.005 -0.002,0.0109 -0.002,0.0156 -0.0109,10e-4 -0.0469,0.0141 -0.0735,0.0188 -0.0219,0 -0.0735,0 -0.0798,-0.0125 -0.0329,0.0109 -0.11728,0.0329 -0.1204,0.0517 0,0.002 0.002,0.005 0.002,0.008 0,0.0329 0.12666,0.0344 0.1767,0.0392 0.0141,0.003 0.0156,0.009 0.0359,0.0109 -0.003,0.0329 0.0282,0.11276 0.0923,0.10806 0,0.0156 0.0156,0.0109 0.0156,0.0329 -0.002,0.006 -0.009,0.0266 -0.0156,0.0344 0.001,-0.002 0.005,-0.003 0.006,-0.005 0,0.0126 -0.003,0.0548 -0.003,0.0627 -0.003,0.0438 -0.0594,0.0454 -0.0641,0.0924 -0.008,10e-4 -0.0563,0.0156 -0.0798,0.0188 -0.0312,0.003 -0.05,-0.011 -0.086,-0.002 -0.05,0.006 -0.0985,0.011 -0.14854,0.0141 -0.0141,0 -0.0391,0 -0.05,-0.008 -0.0484,0.005 -0.0892,0.0109 -0.13603,0.0141 -0.0156,0.008 -0.0343,-0.005 -0.0437,-0.003 -0.0157,10e-4 -0.12041,0.0626 -0.12509,0.0752 -0.002,0.0172 0.0266,0.047 0.0235,0.0814 -0.008,0.058 -0.039,0.12059 -0.0437,0.17854 -0.003,0.0141 -0.0343,0.0267 -0.0375,0.0564 -0.003,0.0157 0.0204,0.0298 0.0437,0.0282 -0.004,0.0454 -0.008,0.094 -0.0125,0.14252 -0.002,0.008 0.003,0.022 0.022,0.022 0.05,-0.003 0.0766,-0.0282 0.13134,-0.0329 0.0672,-0.006 0.0641,0.10337 0.11103,0.1018 0.0672,-0.008 0.11258,-0.0689 0.18764,-0.0767 0.0141,0 0.0735,-0.0172 0.10008,-0.0141 0.002,0 0,-0.002 0,-0.003 0.0641,0.0141 0.0735,-0.0611 0.11415,-0.0846 0.0688,-0.0376 0.0953,-0.0987 0.13917,-0.15348 -0.0126,-10e-4 -0.0298,-0.0125 -0.0298,-0.0282 0.006,-0.0501 0.10321,-0.15349 0.16419,-0.16915 0.0704,-0.0141 0.14073,-0.0376 0.16575,-0.0861 -0.006,-0.0141 -0.011,-0.0344 -0.0156,-0.0501 0.005,-0.0313 0.0547,-0.0595 0.1079,-0.0642 0.0625,-0.006 0.0453,0.022 0.11883,0.0172 0.0767,-0.003 0.11885,-0.0454 0.18453,-0.0736 0.0312,-0.009 0.0343,-0.0392 0.0969,-0.0439 0.12823,-0.006 0.20485,0.0501 0.20329,0.13938 0.004,0.0125 0.0563,0.025 0.0798,0.0391 0.0578,0.0376 0.0782,0.0595 0.18764,0.0705 0,0.0109 0.0547,0.0251 0.0657,0.0235 0.005,0.0109 0.16419,0.12686 0.17201,0.12999 0.006,0.0172 0.0343,0.0313 0.0343,0.0674 0,0.0235 -0.0172,0.0673 -0.0625,0.0673 0,0.008 0.0141,0.0188 0.0375,0.0156 0.05,-0.002 0.05,-0.0548 0.0845,-0.0767 0,0 0.0328,-0.0266 0.0328,-0.0376 0.003,-0.0297 -0.0328,-0.0156 -0.0312,-0.047 0,-0.0204 0.005,-0.0627 0.0485,-0.0627 0.0437,0 0.061,0.0297 0.1126,0.0344 0.011,-0.0517 -0.0892,-0.0893 -0.1595,-0.11276 -0.0172,-0.003 -0.10321,-0.0156 -0.0892,-0.0454 9.9e-4,-0.005 0.006,-0.0125 0.006,-0.0188 -0.0516,0 -0.086,0.0126 -0.13918,0 -0.0219,-0.006 -0.0563,-0.0673 -0.0688,-0.0987 -0.009,-0.0172 -0.0344,-0.0564 -0.0876,-0.0705 -0.0406,-0.008 -0.0704,-0.0204 -0.0688,-0.0548 -9.9e-4,-0.0109 0.009,-0.0313 0.0156,-0.0423 -0.005,0 -0.0156,-0.009 -0.0172,-0.0125 0.002,-0.0219 0.0751,-0.0282 0.11572,-0.0454 0.0156,0.0126 -0.003,0.0627 0.0422,0.0595 0.0359,0 0.0688,-0.003 0.10477,-0.003 0.002,0.0564 0.10321,0.14565 0.18138,0.14721 0.0126,0 0.036,-0.002 0.0485,-0.002 0,0.0329 0.0547,0.0345 0.10477,0.0501 0.0484,0.0172 0.1251,0.0642 0.1251,0.0987 0,0.0172 -0.002,0.0423 -0.002,0.0626 -0.002,0.0486 -0.0172,0.0548 0.0266,0.0861 0.0328,0.022 0.0579,0.0454 0.0735,0.0767 0,0.005 0.009,0.0267 0.0204,0.0282 0.0141,-0.003 0.0453,-10e-4 0.061,-10e-4 -0.006,0.009 -0.0469,0.0548 -0.0469,0.0752 0,0.0564 0.0766,0.12529 0.13448,0.12529 0.0125,10e-4 0.0375,0 0.05,0 -0.0375,-0.0126 0,-0.0564 0,-0.0736 0.002,-0.0204 -0.0125,-0.0752 -0.0204,-0.0861 0,-0.005 0,-0.0141 0,-0.0204 0.0141,0.009 0.0516,0.0658 0.0922,0.0752 10e-4,0 0.005,0 0.008,0 0.004,-0.0172 0.0469,-0.047 0.061,-0.0532 -10e-4,-0.006 -0.009,-0.0173 -0.0141,-0.022 -0.0219,-0.002 -0.12354,-0.0626 -0.1251,-0.0689 0,-0.006 0.011,-0.0172 0.0141,-0.0297 -0.0157,-0.0141 -0.0438,-0.0345 -0.0673,-0.0533 0,-0.009 0.0266,-0.0282 0.0391,-0.0266 0.0344,0.002 0.0375,0.0376 0.0923,0.036 0.004,-0.0156 0.006,-0.036 0,-0.0532 0.0453,-0.0109 0.0594,-0.0297 0.11728,-0.0329 0.0657,0 0.0657,0.0251 0.12196,0.0282 0.0453,0.003 0.0719,0.005 0.11728,-0.0109 0.0329,-0.008 0.0986,-0.008 0.12979,-0.0141 0.0126,-0.005 0.0344,-0.002 0.0453,-0.009 -0.022,-0.0235 -0.11571,-0.0564 -0.11728,-0.10337 0,-0.0329 0.0641,-0.083 0.0985,-0.10337 0,-0.0172 0,-0.0439 -0.001,-0.0611 0.008,-0.011 0.009,0.006 0.0219,-0.0344 0,-0.0188 0.036,-0.0329 0.0719,-0.0376 -0.002,-0.011 -0.002,-0.0251 -0.005,-0.036 0.0766,-0.011 0.0845,-0.0987 0.16263,-0.0987 0.0203,10e-4 0.10476,0.0391 0.20485,0.0485 0.011,0 -0.0719,0.0297 -0.0641,0.0376 0.0563,0.0439 0.11101,0.0908 0.13603,0.0924 0.0485,-0.002 0.20955,-0.0423 0.23769,-0.0626 -0.005,10e-4 -0.0969,-0.0126 -0.0969,-0.0126 -0.0109,0 -0.0579,-0.008 -0.061,-0.036 0.003,-0.0156 0.2455,-0.072 0.33775,-0.0877 0,0 -0.0453,0.0329 -0.0594,0.036 0.006,0.0109 0.10321,0.0767 -0.0985,0.10494 0.0985,0.13782 0.47068,0.15974 0.48944,0.35238 0.004,0 0.0109,0 0.0141,-0.002 v 0 c -0.0547,0.0141 -0.0954,0.0486 -0.16419,0.0454 -0.0657,10e-4 -0.12823,-0.006 -0.19547,-0.009 -0.0406,-10e-4 -0.17044,-0.025 -0.17513,-0.0532 -0.0798,-0.005 -0.0751,-0.0376 -0.17045,-0.0423 -0.061,-10e-4 -0.15637,-10e-4 -0.20171,0.0157 -0.0391,0.0125 -0.10009,0.0454 -0.14387,0.0454 -0.0343,0 -0.0719,-0.003 -0.10946,-0.002 -0.0125,0 -0.0829,-0.0141 -0.0845,0.011 -0.001,0.0141 0.0204,0.008 0.0298,0.0297 -0.0657,0.0188 -0.36904,-0.022 -0.37686,0.0532 10e-4,0.011 0.0359,0.0126 0.061,0.0126 -0.005,0.0109 0,0.0156 0,0.0297 -0.002,0.0485 -0.0375,0.0439 -0.0751,0.0658 0.0516,0.022 0.0892,0.0423 0.12197,0.0846 -0.0328,0.0329 0.0672,0.0799 0.0907,0.0987 -0.003,0.004 -0.022,0.0156 -0.0298,0.0188 0.009,10e-4 0.0313,10e-4 0.0391,0 0.0704,-0.0267 0.1032,0.0564 0.17357,0.0595 0.0641,0.002 0.0485,-0.072 0.12354,-0.072 0.0766,0.005 0.14699,0.0877 0.22204,0.0924 0.10477,0.002 0.12041,-0.0376 0.17671,-0.0752 0.011,0.011 0.0359,0.0251 0.0719,0.0267 0.022,0 0.0391,-0.0204 0.0657,-0.0267 0.001,0.009 0.001,0.0235 0.001,0.0329 -0.006,0.004 -0.0235,0.0156 -0.0235,0.0313 0.003,0.0376 0.0188,0.083 0.0219,0.13939 0,0.0752 -0.0672,0.0861 -0.0876,0.15192 -0.0204,0.0658 -0.0298,0.0987 -0.0532,0.17227 -0.003,0.009 -0.0281,0.011 -0.0297,0.0344 0.008,0.0126 0.0172,0.0392 0.0251,0.0517 -0.003,-0.008 -0.0141,-0.0235 -0.0156,-0.0313 -0.05,0.0125 -0.0531,0.003 -0.10946,0.004 -0.0798,-10e-4 -0.15167,-0.036 -0.22361,-0.0344 -0.11258,-0.003 -0.05,0.0282 -0.16731,0.0313 -0.12822,-0.004 -0.28772,-0.0517 -0.40813,-0.0908 -0.0594,-0.022 -0.14074,0.005 -0.17358,-0.0329 -0.0109,-0.0156 -0.0547,-0.0282 -0.0547,-0.0752 -0.0188,-10e-4 -0.0516,0.002 -0.0798,0 -0.003,0 -0.008,-0.005 -0.0109,-0.006 -0.11415,0.0344 -0.19703,0.0313 -0.20016,0.13939 0,0.0172 0,0.0454 0,0.0673 0,0.0125 -0.0391,0.047 -0.0735,0.0501 -0.27052,0 -0.41126,-0.2083 -0.64738,-0.21143 -0.0328,0.003 -0.0657,0.002 -0.0985,0.003 -0.0688,-0.001 -0.1548,-0.0673 -0.1548,-0.14722 0.003,-0.0501 0.0469,-0.0752 0.0485,-0.12373 0,-0.0235 -0.0406,-0.0376 -0.0422,-0.0689 0.005,-0.0407 0.0484,-0.0344 0.0547,-0.0846 -0.0156,0.003 -0.0359,0.0204 -0.0516,0.0204 -0.0563,0.001 -0.0343,-0.0517 -0.10164,-0.0517 -0.0657,0.005 -0.0704,0.0501 -0.14074,0.0517 -0.0375,0.005 -0.0563,-0.0172 -0.10164,-0.0172 -0.0516,0.006 -0.10633,0.0517 -0.14542,0.0548 -0.022,0.002 -0.0704,-0.0282 -0.11728,-0.0266 -0.15324,0.009 -0.36435,0.0908 -0.49726,0.15662 -0.0422,0.0204 -0.1079,0.0595 -0.17514,0.0626 -0.11258,0.006 -0.14386,-0.006 -0.21892,-0.0579 -0.0344,0.0282 -0.0485,0.10493 -0.0766,0.13938 -0.0156,0.006 -0.0343,0.0235 -0.0547,0.0344 -0.0829,0.1018 -0.16419,0.11903 -0.25176,0.2271 -0.0391,0.0532 -0.0547,0.15191 -0.0485,0.19577 -0.0343,0.0501 -0.0876,0.12685 -0.13136,0.15661 -0.0563,0.036 -0.15481,0.0799 -0.19859,0.14095 -0.0766,0.10807 -0.12979,0.2271 -0.17044,0.35239 -0.022,0.0517 -0.0813,0.0893 -0.0845,0.15348 -0.003,0.12843 0.0516,0.2224 0.05,0.36335 0,0.0814 -0.05,0.23179 -0.1079,0.26938 0.0219,0.0454 0.0657,0.10493 0.0657,0.15035 0,0.0219 0.0109,0.0532 0.0141,0.1018 -0.003,0 -0.006,0 -0.008,0 0.009,0.0172 0.0203,0.025 0.0343,0.0438 10e-4,0.011 0.14387,0.16445 0.16263,0.18168 0.0672,0.0673 0.086,0.14095 0.1423,0.23649 0.0641,0.10336 0.18452,0.0861 0.31274,0.2913 0.008,0.009 0.0531,0.0266 0.0876,0.0298 0.11728,0.003 0.1939,-0.0579 0.32212,-0.0548 0.0641,0.002 0.14699,0.0517 0.19546,0.0548 0.0531,0 0.0626,-0.0407 0.11416,-0.0564 0.12509,-0.036 0.31118,-0.12216 0.48475,-0.12059 0.14542,0.005 0.0297,0.20986 0.13291,0.21926 0.0328,0 0.15012,-0.0141 0.21424,-0.0125 0.12352,10e-4 0.18295,0.0705 0.22516,0.14408 -0.0359,0.0298 -0.0328,0.12686 -0.0328,0.16915 0,0.009 -0.0141,0.022 0.002,0.0501 -0.0188,0.0109 -0.0782,0.0955 -0.0782,0.13156 0.004,0.15975 0.19547,0.3195 0.29555,0.42913 0.0469,0.0595 0.036,0.12842 0.0657,0.19733 0.0391,0.0783 0.0673,0.12686 0.0953,0.26938 0.0141,0.0689 0.0469,0.1018 0.05,0.18324 0.002,0.16445 -0.18452,0.24276 -0.17826,0.45419 0.009,0.19733 0.11414,0.3054 0.21892,0.44792 0.0297,0.0376 0.0688,0.0564 0.0719,0.0971 0,0.0235 0.003,0.0501 0.003,0.0752 0.0109,0.25059 0.10164,0.34143 0.21892,0.4307 0.0251,0.0204 0.0923,0.14722 0.16263,0.23335 0.0172,0.0267 0.0204,0.0564 -0.006,0.0783 0.0281,0.0204 0.0281,0.0564 0.0281,0.10807 0.006,0 0.0125,-0.009 0.0328,-0.0109 0.0188,0.0297 0.05,0.0485 0.10633,0.0501 0.12511,0.003 0.15481,-0.0705 0.29711,-0.072 0.0359,0 0.0547,0.0235 0.0907,0.0235 0.0312,0 0.0563,-0.0125 0.10007,-0.0172 0.0109,-0.0438 0.12197,-0.0204 0.1814,-0.0376 0.13917,-0.0517 0.18139,-0.12216 0.26896,-0.20829 0.0563,-0.0501 0.10007,-0.0532 0.17826,-0.1112 0.0391,-0.0344 0.10477,-0.0971 0.10789,-0.17384 10e-4,-0.022 -0.0172,-0.0423 -0.0469,-0.0548 0.0422,-0.0705 -0.0156,-0.0595 0.11415,-0.10493 0.0391,-0.0141 0.10477,-0.0109 0.1376,-0.0423 0.0328,-0.0313 0.05,-0.14566 0.0516,-0.20204 0.003,-0.10963 -0.0798,-0.083 -0.0782,-0.16131 0.002,-0.0407 0.0547,-0.0861 0.10477,-0.094 0.0516,-0.19734 0.47537,-0.17698 0.49883,-0.4166 -10e-4,-0.0204 -0.006,-0.0423 -0.025,-0.0595 0.003,-0.0642 0.006,-0.12843 0.009,-0.1989 0.003,-0.0204 0.009,-0.047 0.0141,-0.0736 0.004,-0.003 0.0266,-0.0329 0.0266,-0.047 0.002,-0.0595 -0.12666,-0.12843 -0.12666,-0.24119 0.005,-0.094 -0.0547,-0.17854 -0.0531,-0.28191 0.006,-0.0893 0.0923,-0.11589 0.12197,-0.20047 0.0422,-0.12842 0.13448,-0.11746 0.22049,-0.19107 0.0328,-0.0297 0.0422,-0.15348 0.0782,-0.18167 0.0892,-0.0627 0.18451,-0.11903 0.27833,-0.19264 0.13136,-0.10023 0.16732,-0.18794 0.27522,-0.32733 0.0845,-0.11746 0.24237,-0.39623 0.24863,-0.59044 0,-0.0156 -0.0125,-0.0297 -0.0235,-0.0501 -0.12041,0.0329 -0.21424,0.0877 -0.34558,0.11119 -0.0516,0.006 -0.086,-0.0156 -0.13761,0.002 -0.0453,0.0141 -0.0485,0.0564 -0.10321,0.0579 -0.0594,-10e-4 -0.10633,-0.10807 -0.15011,-0.14409 0.0344,-0.0423 0.003,-0.0486 0.003,-0.10806 -0.11728,-0.002 -0.14699,-0.13939 -0.20328,-0.18324 -0.0657,-0.0438 -0.10008,-0.0485 -0.1595,-0.10337 -0.0641,-0.0642 -0.0282,-0.14722 -0.0907,-0.23336 -0.0563,-0.0689 -0.13448,-0.14722 -0.17201,-0.24118 -0.002,-0.0611 -0.002,-0.11903 -0.002,-0.18168 -0.0547,-0.0407 -0.15481,-0.1112 -0.13761,-0.1848 -0.11258,-0.20047 -0.21892,-0.39154 -0.33307,-0.58731 0,-0.0141 -0.002,-0.0407 -0.002,-0.0564 0.061,0.0626 0.12353,0.20516 0.20172,0.22082 0.0109,-0.0344 0.0453,-0.11276 0.0625,-0.16444 -0.008,0.0423 -0.0172,0.0814 -0.0172,0.10493 0,0.008 0.0516,0.0705 0.0625,0.0814 0.039,0.0611 0.0751,0.0924 0.12041,0.15192 0.0109,0.0141 0.0391,0.0485 0.0516,0.0814 0.005,0.0156 0.003,0.0689 0.0235,0.0908 0.009,0.006 0.061,0.009 0.0735,0.0172 0.006,0.009 0.0282,0.0298 0.0453,0.0439 0.0172,0.0642 0.0688,0.0799 0.0719,0.15975 0.005,0.12999 0.0297,0.19734 0.15637,0.22866 0.002,0.083 0.0813,0.1895 0.12197,0.23179 0.0375,0.0392 0.11728,0.0783 0.10164,0.15505 -0.005,0.0235 -0.0359,0.0955 0.005,0.10023 0.003,0.0658 -0.005,0.13626 0.0281,0.19108 0.0235,0.0345 -10e-4,0.0345 0.003,0.0376 0.008,0.005 0.10164,0.0454 0.10946,0.047 0.006,-0.002 0.0156,-0.009 0.022,-0.0125 0.0704,0 0.0845,-0.0548 0.1423,-0.0971 0.0469,0.003 0.086,0.006 0.12979,0.0109 0.0406,-0.022 0.16731,-0.11903 0.2111,-0.13156 0.0766,-0.0204 0.15636,-0.0454 0.23142,-0.0814 -0.005,-0.006 -0.0141,-0.0219 -0.0126,-0.0313 0.002,-0.0736 0.1767,-0.0814 0.2674,-0.0987 0,-0.0392 0.0579,-0.0924 0.086,-0.094 0.0485,0.002 0.0422,-0.0924 0.0892,-0.094 0.0343,0 0.0312,-0.0533 0.0438,-0.0924 0.008,-0.0376 0.0406,-0.0501 0.0876,-0.0486 0,-0.0799 0.1204,-0.1065 0.11884,-0.18167 -0.003,-0.0235 -0.0438,-0.0235 -0.0594,-0.0532 0.002,0 0.002,0.002 0,0.002 -0.0188,-0.011 -0.0282,-0.0674 -0.0594,-0.0799 -0.0907,-0.0329 -0.14699,-0.0486 -0.19547,-0.14722 -0.002,-0.0392 -0.005,-0.0767 -0.005,-0.11902 -0.11258,0.083 -0.11258,0.21143 -0.33306,0.20673 -0.0516,-0.003 -0.13135,-0.0266 -0.13605,-0.0736 0,-0.0407 0.0203,-0.0658 0.0188,-0.10493 -0.002,-0.008 -0.005,-0.0266 -0.005,-0.036 -0.0359,0.006 -0.0251,0.047 -0.0641,0.0564 -0.003,-0.0235 -0.022,-0.0392 -0.0251,-0.0767 -0.0751,-0.022 -0.17513,-0.16288 -0.1986,-0.24119 -0.006,-0.0203 -0.006,-0.0454 -0.009,-0.0752 0,-0.0501 0.0141,-0.1018 0.0625,-0.1018 0.0953,0.005 0.16887,0.10807 0.20797,0.18168 0.006,0.009 0,0.0376 0.0172,0.0579 0.0391,0.0376 0.0876,0.022 0.12978,0.0626 0.0344,0.0344 0.061,0.0752 0.11259,0.0955 0.0531,0.003 0.10476,0.003 0.15793,0.008 0.0141,-0.0173 0.0266,-0.0454 0.0641,-0.0454 0.0657,0.005 0.0704,0.0987 0.10008,0.13312 0.002,0.003 0.0939,0.0329 0.1079,0.0344 0.0829,0.005 0.2111,0.0485 0.26896,0.0532 0.004,-0.002 0.009,0 0.0141,0 0.0172,0.003 0.0391,0.008 0.0594,0.0125 0.003,-0.006 0.0141,-0.0125 0.0251,-0.0203 0.022,0.008 0.0469,0.0172 0.0735,0.0266 0.0281,0 0.061,-0.0125 0.0969,-0.0109 0.0297,0.003 0.0516,-0.002 0.0813,0.009 0.0359,0.0156 0.0531,0.0861 0.0767,0.12843 0.0312,0.0485 0.10789,0.11433 0.15949,0.11746 0.022,10e-4 0.0375,0.004 0.0594,0.0109 -0.009,0.0125 -0.011,0.0376 -0.0314,0.0439 -0.0235,0.008 -0.0406,-0.009 -0.0641,0.008 0.0406,0.0517 0.0751,0.14409 0.15324,0.15035 0.0657,0.002 0.0704,-0.0689 0.10164,-0.1065 0.008,-0.002 0.0125,0 0.0188,0.002 0.001,0.009 -0.0141,0.0344 -0.0126,0.0407 0.003,0.0423 0.0281,0.0783 0.0297,0.12686 0,0.0392 -0.011,0.0439 -0.011,0.0861 0,0 -10e-4,-0.002 -10e-4,-0.002 0,0.008 0.005,0.036 0.005,0.0439 -0.002,0.058 0.0282,0.11589 0.0437,0.17854 0.0156,0.0689 0.0406,0.16131 0.0516,0.20673 0.0125,0.0392 0.0109,0.0595 0.0297,0.0987 0.0172,0.036 0.008,0.0752 0.0251,0.12373 0.0109,0.0204 0.0422,0.0532 0.05,0.0971 0.0156,0.0658 0.0406,0.12059 0.0547,0.19264 0.002,0.008 0.006,0.0282 0.0188,0.0298 0.003,0.0172 0.0141,0.0329 0.0328,0.0282 0.022,0.002 0.0235,-0.036 0.0297,-0.0627 0.0141,-0.0313 0.0141,-0.0172 0.0422,-0.036 0.0204,-0.0126 0.0125,-0.0877 0.0422,-0.1018 0.008,-0.003 0.0219,-0.005 0.0219,-0.0125 0.003,-0.002 0.006,0 0.011,-0.003 -0.003,-0.0219 -0.008,-0.0501 -0.011,-0.0767 0.003,-0.0548 0.0266,-0.1018 0.0266,-0.17854 0,-0.0454 -0.0156,-0.11433 -0.0156,-0.16601 0,-0.0626 0.0437,-0.0454 0.0798,-0.0658 0.0188,-0.005 0.0344,-0.0407 0.0516,-0.0674 0.0344,-0.0564 0.0688,-0.11746 0.1032,-0.17697 0.0266,-0.047 0.0798,-0.0595 0.10946,-0.10963 0.0156,-0.0282 0.009,-0.058 0.0141,-0.10024 0.009,-0.0266 0.0391,0.009 0.05,-0.0329 0.0125,0.022 0.0125,0.0297 0.0406,0.0344 0.0391,0.003 0.0798,-0.008 0.0766,-0.094 0.0204,0.011 0.0484,0.0313 0.0563,0.0736 0.0109,0.0313 0.006,0.0783 0.0204,0.1159 0.0109,0.036 0.0312,0.0626 0.0484,0.0971 0.0204,0.047 0.022,0.0533 0.0359,0.11119 0.002,0.0125 0.009,0.022 0.009,0.0344 -0.002,0.0298 -0.006,0.0439 -0.003,0.0783 0.002,0.0376 -10e-4,0.0595 0.0173,0.0611 0.0343,-10e-4 0.0453,-0.0658 0.0641,-0.1112 0.009,0.0204 0.006,0.0251 0.0109,0.0423 0.006,0.003 0.0125,-0.002 0.0141,0.0141 0.0126,0.0407 -0.025,0.1112 0.009,0.11746 10e-4,0.083 0.0219,0.20047 0.0219,0.31793 -10e-4,0.0266 -0.0156,0.0768 -0.003,0.0987 0.003,0 0,0 -0.003,0 0,0 0,0 -0.003,0 -0.006,0.0344 -0.011,0.0689 -0.0141,0.10493 0,0.006 0.005,0.0156 0,0.0156 0,10e-4 0.002,0.003 0.003,0.005 10e-4,-0.003 0.005,-0.005 0.0109,-0.006 0.0438,0.003 0.0219,0.0861 0.0251,0.12216 0.006,0.0548 0.008,0.10964 0.008,0.18011 0.002,0.0109 0.002,0.022 0.003,0.0297 0.009,-0.0752 0.0172,-0.15348 0.0235,-0.23022 -0.004,-0.008 -0.0109,-0.0172 -0.0141,-0.0267 -0.003,-0.0251 -0.003,-0.0611 -0.006,-0.0799 0.001,0 0,0 0.001,0 0,-0.0752 -0.025,-0.047 -0.0235,-0.1253 0.003,-0.0736 0.0173,-0.10023 0.0204,-0.18324 0.002,-0.022 0.011,-0.0548 0.011,-0.0783 0,-0.0126 -0.0141,-0.0298 0.006,-0.0298 0.0281,0 0.0204,0.005 0.0235,0.0344 0,0 0,0.0344 0.005,0.0344 10e-4,0.002 10e-4,0.002 10e-4,0.002 0,-0.0204 0.002,-0.0376 0.002,-0.0564 0.003,-1.68361 -0.71306,-3.19965 -1.85613,-4.26151 z m -1.16966,1.62411 c -0.0235,-0.002 -0.0469,0.0439 -0.05,0.0783 0.0657,0.0156 0.10007,0.0439 0.10477,0.0893 0,0.0156 0.003,0.0407 0.003,0.0564 0.002,0.0173 0.003,0.0642 0.006,0.0689 0.001,0.0141 0.001,0.0392 0.003,0.0548 -0.0422,0.008 -0.0876,0.009 -0.14386,0.008 -0.0391,-0.005 -0.12041,-0.003 -0.14699,-0.0297 -0.0156,-0.0156 -0.0297,-0.0486 -0.0579,-0.0595 -0.0375,-0.006 -0.0766,-0.0344 -0.0969,-0.0627 -0.0188,-0.0313 0.006,-0.047 -0.022,-0.0767 -0.0141,-0.0141 -0.0422,-0.0204 -0.0438,-0.0439 0.0126,0 0.0328,0.006 0.0453,0.008 0.0375,-0.0392 0.0328,-0.0908 0.0798,-0.1065 -0.0892,-0.0438 -0.22517,-0.19107 -0.23612,-0.27094 0,-0.0204 -0.0751,-0.0611 -0.0766,-0.0971 -0.002,-0.0109 0.0516,-0.0893 0.0672,-0.10336 0.011,0.008 0.10789,-0.022 0.11727,-0.0235 0.0798,-0.0172 0.11571,-0.0329 0.22049,-0.0266 0.16418,0.022 0.20016,0.0893 0.27207,0.16288 -0.0453,0.0204 -0.1032,-0.009 -0.15949,-0.0156 -0.0782,-0.008 -0.20171,0.036 -0.20953,0.036 0.008,0.047 0.0547,0.0485 0.0766,0.0752 0.0672,0.0814 0.15793,0.1065 0.16888,0.1989 0.022,-0.006 0.0766,-0.0235 0.10164,-0.0251 0.004,0.0392 0.0641,0.0752 0.0657,0.11276 -0.0266,-0.003 -0.0563,-0.005 -0.0892,-0.008 z"
       id="path24-8"
       style="fill:#f0f0f0;fill-opacity:1;stroke-width:0.0156493" />
    <path
       d="m 408.70301,530.9381 c -0.006,0.001 -0.009,0 -0.0156,0 0,0.001 0,0.001 0.002,0.003 0.003,-0.005 0.008,0.002 0.0141,-0.003 z"
       id="path26-5"
       style="fill:#f0f0f0;fill-opacity:1;stroke-width:0.0156493" />
    <path
       d="m 408.42623,530.87232 c 0.0235,0.005 0.036,0.0109 0.0625,0.0172 -0.0125,-10e-4 -0.0235,-10e-4 -0.0359,-10e-4 0.0141,0.004 0.0313,0.008 0.0469,0.009 -0.0172,0.002 -0.0343,-0.003 -0.0531,-0.003 0.0109,0.008 0.0328,0.0141 0.0735,0.022 0.009,0.005 0.0172,0.0109 0.0312,0.0125 0.0235,0.005 0.0235,-0.006 0.0469,-0.006 0.0344,0.001 0.0563,0.0109 0.0892,0.0156 0.003,0 0.002,-0.005 -0.003,-0.005 0.009,-0.002 0.0172,10e-4 0.0266,0.005 0.0281,-0.002 0.0641,0.0266 0.0641,10e-4 -0.0172,-0.003 -0.0469,-0.0156 -0.0798,-0.0235 -0.036,-0.009 -0.0516,-0.003 -0.0907,-0.009 -0.0485,-0.009 -0.0845,-0.0251 -0.15481,-0.0376 -0.0547,-0.0109 -0.17981,-0.0267 -0.20014,-0.022 0.0219,0.006 0.0375,0.009 0.061,0.0125 0.0391,0.006 0.0845,0.008 0.11571,0.0125 z"
       id="path28-6"
       style="fill:#f0f0f0;fill-opacity:1;stroke-width:0.0156493" />
    <path
       d="m 409.10802,531.04616 c 0.005,0 0.0125,0.008 0.0266,0.011 0.0235,0.008 0.0282,0.0156 0.0328,0.003 0.0156,0.008 0.0376,0.0156 0.0516,0.0204 0.0251,0.006 0.0282,0.003 0.0453,0.005 -0.0126,-0.006 -0.0297,-0.0141 -0.0422,-0.022 -0.0266,-0.006 -0.11885,-0.0344 -0.11415,-0.0173 z"
       id="path30-1"
       style="fill:#f0f0f0;fill-opacity:1;stroke-width:0.0156493" />
    <path
       d="m 409.17368,531.04146 c -0.0204,-0.0109 -0.0422,-0.0203 -0.0625,-0.0297 -0.0328,-0.008 -0.0641,-0.0188 -0.0969,-0.0266 -0.0125,-0.002 -0.0156,-0.002 -0.0297,0 0.005,-0.002 0.11103,0.0392 0.12666,0.0438 0.0219,0.006 0.0422,0.009 0.0625,0.0126 z"
       id="path32-1"
       style="fill:#f0f0f0;fill-opacity:1;stroke-width:0.0156493" />
    <path
       d="m 409.08455,531.00074 c -0.006,-0.003 -0.0109,-0.005 -0.0141,-0.008 0,0.003 0.002,0.002 0.003,0.008 0.005,0 0.008,0 0.011,0 z"
       id="path34-5"
       style="fill:#f0f0f0;fill-opacity:1;stroke-width:0.0156493" />
    <path
       d="m 405.63814,530.85509 c -0.0172,0.0156 0.0266,0.0172 0.0766,0.0204 -0.008,10e-4 -0.0156,10e-4 -0.0235,0.003 0.0156,0.008 0.0422,0.0109 0.0892,0.005 0.0594,-0.006 0.0641,-0.022 0.0876,-0.0282 0.006,0.003 0.0172,0 0.0235,-10e-4 0.0109,0.003 0.0375,0.006 0.0422,0.004 0.022,-0.003 0.0484,-0.004 0.0751,-0.004 -0.0344,0.0109 -0.11103,0.0235 -0.15013,0.0297 -0.0141,-0.002 -0.0798,0.003 -0.0829,0.0141 0,0.0313 0.0735,0.006 0.10946,0.002 0.0188,-0.002 0.11259,-0.006 0.12979,-0.003 -0.0343,0.003 -0.0657,0.004 -0.0969,0.0125 0,0 -0.0641,0.002 -0.10633,0.006 9.9e-4,0.0282 0.15168,0.0297 0.22204,0.0391 0.0437,-0.0141 0.0375,-0.0376 0.0892,-0.0501 0.0141,-0.002 0.0359,-0.005 0.0453,-0.009 0.0328,-0.0235 0.0625,-0.0548 0.16419,-0.0626 0,0 0.022,0.009 0.0704,0.009 -0.0126,0 -0.0281,0.002 -0.0406,0.003 0.0141,0.005 0.0359,0.0204 0.0579,0.022 -0.0109,0.0172 -0.036,0.008 -0.0453,0.0251 0.0391,0.002 0.0985,0 0.13448,0 -0.009,0.003 -0.009,0.005 -0.003,0.0141 0.0766,-0.006 0.10634,-0.0172 0.18608,-0.0282 -0.0282,-0.008 -0.10789,-0.003 -0.11103,-0.0298 -0.0312,0 -0.061,0 -0.0923,0 0.008,-0.003 0.006,-0.006 0,-0.0125 -0.0188,0.003 -0.0297,0 -0.0531,0 0.008,0 0.0204,0 0.0297,-0.002 -0.0281,-0.009 -0.18295,-0.0282 -0.23142,-0.0266 -0.008,0 -0.0204,0 -0.0282,0 0.009,-0.006 0.0125,-0.0188 -0.0328,-0.0172 -0.0203,10e-4 -0.0297,0.006 -0.0516,0.0109 -0.002,-0.009 0.005,-0.008 0.009,-0.0156 -0.002,-0.0125 -0.0751,-0.008 -0.1126,-0.009 -0.0391,0.002 -0.0563,-0.005 -0.0594,0.0141 -0.003,0.025 0.0141,0.0219 0.0312,0.0329 -0.0735,-0.003 -0.0469,-0.0282 -0.12511,-0.0267 -0.0235,0 -0.0469,0.005 -0.05,0.0156 0.005,0.003 0.006,0.003 0.009,0.008 -0.0172,-0.005 -0.0422,-0.002 -0.0673,-0.005 0.009,-0.006 0.022,-0.009 0.036,-0.0141 -0.0641,0.003 -0.0939,0.006 -0.14073,0.008 -0.0282,0.002 -0.0892,0.0235 -0.10164,0.0282 0.0204,0.005 0.0453,0.0125 0.0672,0.0109 0.006,0.005 0.0125,0.006 0.0204,0.008 z"
       id="path36-9"
       style="fill:#f0f0f0;fill-opacity:1;stroke-width:0.0156493" />
    <path
       d="m 406.28707,530.77835 c 0.005,0 0.1251,-0.001 0.13605,-0.001 -0.0125,0.003 -0.0437,0.001 -0.0719,0.006 -0.005,0 -0.0375,0.002 -0.0578,0.002 0.008,0.008 0.0109,0.0109 0.0376,0.0109 0.0563,0 0.10789,-0.005 0.16419,-0.003 0.022,0.0109 0.05,0.0141 0.10164,0.0125 0.0845,-10e-4 0.22674,-0.025 0.2971,-0.0376 -0.022,-0.005 -0.0704,-0.0235 -0.12979,-0.0219 -0.0312,0 -0.061,0 -0.0938,0 -0.0438,0 -0.061,0.008 -0.086,0.008 -0.009,-0.005 -0.003,-10e-4 0,-0.0188 -0.0109,0 -0.0251,0 -0.0344,0 -0.0141,0.005 -0.0359,0.0172 -0.0719,0.0188 -0.0126,0 -0.0985,-0.008 -0.11416,-0.0125 -0.0282,10e-4 -0.0516,0.003 -0.0813,0.003 0.006,0.002 0.009,0.005 0.0141,0.008 -0.0156,0 -0.0343,0 -0.05,10e-4 0.003,0 0.003,0.005 0,0.005 -0.0156,0 -0.0406,0 -0.0563,0 -0.0125,0 -0.0297,0 -0.0422,0.002 0.001,0.0141 0.0188,0.0109 0.0422,0.0156 -0.0141,0.0267 0.0453,0.005 0.0969,0.003 z"
       id="path38-8"
       style="fill:#f0f0f0;fill-opacity:1;stroke-width:0.0156493" />
    <path
       d="m 405.55056,530.87075 c 0,-0.001 0.002,-0.001 0,-0.001 0,0 -0.003,0 -0.004,0 10e-4,0.001 0.003,0.001 0.004,0.001 -9.9e-4,0 -0.003,0 -0.004,-0.001 -0.0453,0.0109 0.0328,0.025 0.0892,0.025 -0.0219,-0.022 -0.0516,-0.0156 -0.0845,-0.0235 z"
       id="path40-4"
       style="fill:#f0f0f0;fill-opacity:1;stroke-width:0.0156493" />
    <path
       d="m 403.57872,532.81592 c 0.0156,0 0.0422,-0.009 0.0563,-0.0156 0.0219,-0.0141 0.0641,-0.0517 0.11259,-0.0595 0.0266,-0.006 0.061,-0.006 0.0782,-0.022 0.0281,-0.0172 0.009,-0.0392 0.0109,-0.0548 0.002,-0.0219 0.006,-0.0423 0.011,-0.0658 0.005,-0.0141 0.0516,-0.022 0.0563,-0.0376 0,-0.0344 -0.0188,-0.072 -0.0876,-0.0627 -0.0156,0.003 -0.0343,0.005 -0.0485,0.008 -0.0282,0.003 -0.0892,0.036 -0.0923,0.0501 0,0.009 0.002,0.011 0.0126,0.0219 -0.0172,0.0109 -0.0719,0.0329 -0.0876,0.036 -0.008,0.003 -0.0297,0 -0.0344,0.0267 -0.002,0.0203 0.0204,0.0282 0.0469,0.0313 -0.022,0.0485 -0.0907,0.0626 -0.10007,0.11276 -0.002,0.0204 0.0312,0.0376 0.0657,0.0313 z"
       id="path42-8"
       style="fill:#f0f0f0;fill-opacity:1;stroke-width:0.0156493" />
    <path
       d="m 403.91024,532.25367 c -0.0204,0.006 -0.0704,0.022 -0.0751,0.0313 0,0.008 0.004,0.0204 0.0125,0.0188 0.0313,-0.006 0.0594,-0.0282 0.0626,-0.0501 z"
       id="path44-1"
       style="fill:#f0f0f0;fill-opacity:1;stroke-width:0.0156493" />
    <path
       d="m 403.93212,532.34294 c 0,0.006 0,0.0109 -0.003,0.0141 0.002,0 -0.0235,0.0172 -0.025,0.0266 -0.002,0.008 0.025,0.009 0.0422,0.008 0,0.006 -0.001,0.011 -0.003,0.0172 -0.003,0.005 -0.009,0.011 -0.0141,0.0141 0,0.009 -0.003,0.0204 -0.005,0.0313 0.008,0 0.0156,-0.002 0.0235,-0.005 -0.006,-0.008 -0.0126,-0.009 0.005,-0.0282 0.008,0.006 0.0235,0.005 0.0484,0.002 -0.0109,0.0126 -0.005,0.0156 -0.005,0.036 -0.006,0.0141 -0.0312,0.0297 -0.0343,0.0439 0,0.0156 0.0172,0.0125 0.0453,0.008 0.0219,-0.005 0.0406,-0.0141 0.0704,-0.0204 0.009,0 0.0204,0 0.0266,-10e-4 -0.004,0.008 -0.0235,0.0156 -0.025,0.0297 -0.003,0.0204 0.0391,0.0172 0.0704,0.011 -10e-4,0.009 -0.003,0.0203 -0.005,0.0297 -0.0172,0.022 -0.086,0.0485 -0.1423,0.0548 -0.001,0.0204 0.022,0.0267 0.0156,0.0548 -0.003,0.0313 -0.086,0.0407 -0.0923,0.0736 0,0.003 0.008,0.006 0.0126,0.006 0.0141,0 0.0109,-0.0109 0.0329,-0.0125 0.0328,-0.006 0.0391,0.0156 0.0813,0.0125 0.0188,-0.006 0.0438,-0.0109 0.0578,-0.0266 0,0.005 0.001,0.009 0.005,0.0141 -0.002,0.0313 -0.0641,0.0251 -0.10789,0.0392 -0.008,0.003 -0.10946,0.0814 -0.11572,0.0877 -0.003,0.003 -0.003,0.009 -0.002,0.0126 0.006,-0.002 0.0157,-0.002 0.022,-0.002 0.011,-0.009 0.0235,-0.022 0.0453,-0.022 0.0109,-0.006 0.0297,-0.003 0.0422,-0.006 10e-4,-0.0156 0.0235,-0.036 0.0547,-0.0407 0.0188,-0.003 0.0328,0.008 0.0531,0.005 0.0469,-0.008 0.13291,-0.0329 0.16575,-0.0376 0.0453,-0.003 0.0813,-0.008 0.12666,-0.0125 0.036,-0.006 0.061,-0.0204 0.0939,-0.0392 0,-0.005 9.9e-4,-0.0109 9.9e-4,-0.0141 -0.0156,0.002 -0.0312,0.003 -0.0641,-0.002 0.0313,-0.0282 0.10321,-0.0564 0.11103,-0.0908 0,-0.0204 -0.0251,-0.0329 -0.0641,-0.0313 -0.022,0.003 -0.0172,0 -0.0406,0.0126 0.003,-0.003 0.0126,-0.006 0.0156,-0.009 -0.0109,0.003 -0.0172,0.011 -0.0391,0.0172 0,-0.004 0.002,-0.009 0.002,-0.0125 0.008,-0.002 0.0172,-0.009 0.0172,-0.0156 0.003,-0.0156 -0.0312,-0.022 -0.0297,-0.0392 0.006,-0.0501 -0.0735,-0.0501 -0.11885,-0.0752 -0.0359,-0.0204 -0.0172,-0.0658 -0.0751,-0.0689 -0.022,-0.002 -0.0422,0.008 -0.0704,0.008 0.005,-0.008 0.0156,-0.0172 0.0282,-0.0188 0.006,-0.0423 0.10321,-0.072 0.0985,-0.1253 -0.0594,0.008 -0.11572,0.0156 -0.17826,0.025 -0.003,-0.004 -0.006,-0.006 -0.006,-0.0125 0.011,-0.0282 0.0782,-0.0329 0.0813,-0.0595 0,-0.003 -0.0157,-0.0126 -0.0265,-0.011 -0.0297,0.005 -0.0579,0.011 -0.086,0.0141 -0.0156,0.003 -0.0469,0.022 -0.05,0.0297 -0.002,0.0109 -0.0141,0.0172 -0.0172,0.0329 -0.0188,0.005 -0.0406,0.0141 -0.0438,0.0282 0,0.005 0.006,0.009 0.0126,0.009 0,0.003 -0.009,0.011 -0.0141,0.0126 -0.005,-0.002 -0.0188,-0.002 -0.0172,-0.0126 -0.0141,0.002 -0.0329,0.003 -0.0469,0.008 -0.008,0.0235 0.0156,0.0266 0.0594,0.0235 z"
       id="path46-0"
       style="fill:#f0f0f0;fill-opacity:1;stroke-width:0.0156493" />
    <path
       d="m 404.01344,532.53871 c -0.005,-0.001 -0.011,0.002 -0.0141,0.003 -0.0141,0.006 -0.025,0.0156 -0.025,0.0266 0.009,-0.002 0.0235,-0.005 0.0328,-0.005 0.003,-0.009 0.005,-0.0172 0.006,-0.025 z"
       id="path48-3"
       style="fill:#f0f0f0;fill-opacity:1;stroke-width:0.0156493" />
    <path
       d="m 403.35824,531.91068 c -0.0251,0.009 -0.0422,0.0109 -0.0391,-0.005 -0.0109,0.005 -0.008,0.009 -0.0282,0.008 -0.005,0.008 -0.011,0.0109 -0.0173,0.0235 -0.0281,-0.009 -0.0531,0.0172 -0.0845,0.0298 -0.0235,0.006 -0.0375,0.009 -0.0751,0.0204 0,0.004 -0.004,0.008 -0.004,0.0141 -0.011,10e-4 -0.011,-0.005 -0.0298,10e-4 -0.022,0.008 -0.0375,0.0173 -0.0594,0.0267 -0.0156,0.006 -0.0125,0 -0.0266,-10e-4 -0.008,0.008 -0.006,0.003 -0.006,0.0172 -0.0125,0.005 -0.0282,0.0188 -0.0437,0.022 -0.0172,0.009 -0.0298,-0.002 -0.0235,-0.0141 0,-0.0109 -0.006,-0.005 -0.006,-0.0156 -0.006,0.002 -0.0109,0.005 -0.0172,0.006 -0.0219,0.008 -0.0266,0.0235 -0.0453,0.0297 0,0.005 -0.003,0.006 -0.003,0.011 -0.0172,0.003 -0.0204,0.004 -0.0422,0.0141 0,0.0204 0.0735,-0.002 0.10008,-0.0125 0,0.005 -0.003,0.008 0.005,0.008 -0.0266,0.0141 -0.086,0.0439 -0.11885,0.0548 0.0297,0.0141 0.0563,-0.0204 0.0923,-0.0297 -0.009,0.0204 -0.022,0.0266 -0.0266,0.0454 -0.008,0.003 -0.0141,0.009 -0.0235,0.0141 0.05,-0.0172 0.061,-0.003 0.0907,-0.011 0.0641,-0.006 0.11416,-0.0156 0.20641,-0.0407 0.0876,-0.025 0.13448,-0.0626 0.20328,-0.0908 0.0328,-0.0156 0.10477,-0.0548 0.13136,-0.0814 0.003,0 0.005,-0.003 0.006,-0.003 0.0109,-0.0392 -0.086,-0.005 -0.0735,-0.0454 0,-0.005 0.0126,-0.011 0.0204,-0.0172 -0.022,0.004 -0.0375,0.0156 -0.061,0.022 z"
       id="path50-0"
       style="fill:#f0f0f0;fill-opacity:1;stroke-width:0.0156493" />
    <path
       d="m 403.1362,531.64287 c -0.0204,0.0156 -0.0391,0.0297 -0.0594,0.0454 0.0282,-0.0141 0.0563,-0.0282 0.0735,-0.0454 -0.008,10e-4 -0.0125,10e-4 -0.0141,0 z"
       id="path54-4"
       style="fill:#f0f0f0;fill-opacity:1;stroke-width:0.0156493" />
    <path
       d="m 402.86724,531.92008 c 0.039,-0.025 0.0594,-0.0297 0.0953,-0.0548 -0.0298,0.011 -0.13135,0.0564 -0.17826,0.0674 -0.0485,0.0438 -0.0953,0.0861 -0.1423,0.12999 0.0204,-0.0109 0.0406,-0.0235 0.0641,-0.036 0.0578,-0.0329 0.0907,-0.0689 0.16106,-0.1065 z"
       id="path56-4"
       style="fill:#f0f0f0;fill-opacity:1;stroke-width:0.0156493" />
    <path
       d="m 403.20812,531.58962 c -0.0188,0.0141 -0.0359,0.0266 -0.0547,0.0407 0.0359,-0.0172 0.0719,-0.0392 0.0876,-0.0532 -0.008,0.003 -0.0204,0.008 -0.0328,0.0126 z"
       id="path58-4"
       style="fill:#f0f0f0;fill-opacity:1;stroke-width:0.0156493" />
    <path
       d="m 403.03299,531.73371 c 0.005,-0.008 -0.002,-0.004 -0.0141,0.002 -0.0204,0.0156 -0.0391,0.0329 -0.0594,0.047 0.0109,-0.005 0.0203,-0.009 0.0312,-0.0126 0.0282,-0.0156 0.036,-0.0219 0.0422,-0.036 z"
       id="path60-4"
       style="fill:#f0f0f0;fill-opacity:1;stroke-width:0.0156493" />
    <path
       d="m 402.96262,531.85117 c 0.022,-0.008 0.0516,-0.022 0.061,-0.0329 0.0125,-0.0344 -0.0281,-0.0329 -0.0735,-0.0266 -0.0266,0.022 -0.0532,0.0454 -0.0782,0.0673 0.0235,-0.002 0.0172,0.0203 0.0907,-0.008 z"
       id="path62-7"
       style="fill:#f0f0f0;fill-opacity:1;stroke-width:0.0156493" />
    <path
       d="m 403.36762,531.50661 c -0.0141,0.003 -0.0235,0.006 -0.0359,0.0125 0,-0.006 0.004,-0.005 0.004,-0.0109 -0.0125,0.005 -0.022,0.008 -0.0328,0.0125 -0.0109,0.008 -0.0219,0.0141 -0.0313,0.0235 0,0.005 0.006,0.005 0.0204,10e-4 0.0235,-0.0141 0.0625,-0.0344 0.0751,-0.0391 z"
       id="path64-6"
       style="fill:#f0f0f0;fill-opacity:1;stroke-width:0.0156493" />
    <path
       d="m 405.7085,533.78694 c -0.0531,-0.008 -0.0735,0.022 -0.1204,0.022 -0.0484,0 -0.0766,-0.0344 -0.15324,-0.005 0,0.006 -0.002,0.0156 0,0.022 0.009,0.009 0.0406,0.0109 0.0484,0.0125 0.0563,0.0156 0.0969,0.0595 0.1595,0.072 -0.005,0.006 0.0204,0.0125 0.0282,0.0109 0.008,0 0.0204,-0.0141 0.022,-0.0204 -0.001,-0.0188 -0.0156,-0.0266 -0.0156,-0.047 0,-0.009 0.0188,-0.0329 0.0188,-0.0329 0,-0.009 0.008,-0.0266 0.0126,-0.0345 z"
       id="path66-3"
       style="fill:#f0f0f0;fill-opacity:1;stroke-width:0.0156493" />
    <path
       d="m 405.17059,533.37347 c -0.008,0 -0.0109,-0.0188 -0.0109,-0.0297 -0.0126,0.005 -0.0328,0.0282 -0.0547,0.0313 -0.006,0.003 -0.0172,0.003 -0.0235,0.008 0.0141,0.0172 0.022,0.10024 0.0547,0.10493 0.005,-0.0156 0.0235,-0.0783 0.0344,-0.11432 z"
       id="path68-1"
       style="fill:#f0f0f0;fill-opacity:1;stroke-width:0.0156493" />
    <path
       d="m 405.07989,533.60526 c -0.003,0.0156 -0.0172,0.036 -0.0235,0.058 -0.001,0.0204 -0.004,0.0595 0.0314,0.0595 0.022,-0.003 0.0907,-0.0438 0.0938,-0.0846 0.002,-0.047 0.011,-0.0705 -0.0156,-0.1159 -0.008,-10e-4 -0.0204,-0.0156 -0.0437,-0.0141 -0.0235,0.003 -0.0344,0.0282 -0.0735,0.0392 0.002,0.0188 0.0312,0.0344 0.0312,0.058 z"
       id="path70-7"
       style="fill:#f0f0f0;fill-opacity:1;stroke-width:0.0156493" />
    <path
       d="m 404.55761,533.66634 c -0.0141,0.005 -0.0328,0.0126 -0.0531,0.0235 0.003,0 0.0297,0.0235 0.0406,0.022 0.008,0 0.025,-0.009 0.0266,-0.0156 0.003,-0.006 -0.0141,-0.0251 -0.0141,-0.0298 z"
       id="path72-5"
       style="fill:#f0f0f0;fill-opacity:1;stroke-width:0.0156493" />
    <path
       d="m 405.38794,532.33981 c 0.002,-0.0125 -0.0141,-0.009 -0.0125,-0.0251 -0.011,0 -0.0298,0.002 -0.0406,0.003 -0.002,0.003 -0.002,0.008 -0.002,0.0109 -9.9e-4,0.0125 0.0235,0.0172 0.0485,0.0125 0,0.003 0,0.006 0,0.009 10e-4,-0.002 0.004,0 0.006,-0.0109 z"
       id="path74-9"
       style="fill:#f0f0f0;fill-opacity:1;stroke-width:0.0156493" />
    <path
       d="m 405.40983,532.34764 c -0.002,0.001 -0.008,0.006 -0.0109,0.008 10e-4,0 0.0172,0.006 0.0296,0.006 0.05,0 0.0329,-0.0454 0.0704,-0.0548 -0.009,-0.0204 -0.0109,-0.0313 -0.0547,-0.0297 -0.011,10e-4 -0.0422,0.0344 -0.0422,0.0392 0,0.008 0.0219,0.0156 0.0437,0.0172 0,0.006 -0.0188,0.0141 -0.0312,0.0188 -0.003,-0.003 -0.005,-0.003 -0.005,-0.005 z"
       id="path76-6"
       style="fill:#f0f0f0;fill-opacity:1;stroke-width:0.0156493" />
    <path
       d="m 406.08536,532.15187 c 0.008,-10e-4 0.0391,-0.009 0.0391,-0.0141 0,-0.005 0,-0.009 0,-0.0141 0.003,0 0.0141,-0.0109 0.0172,-0.0156 -0.006,-0.003 -0.0172,-0.008 -0.0235,-0.011 0,0 -0.022,0.006 -0.0204,0.0126 -10e-4,0.005 0.009,0.009 0.0141,0.0141 -0.0141,0.003 -0.0344,0.009 -0.0484,0.011 -0.002,0.006 0.006,0.0172 0.0219,0.0172 z"
       id="path78-2"
       style="fill:#f0f0f0;fill-opacity:1;stroke-width:0.0156493" />
    <path
       d="m 406.80779,534.06101 c -0.0625,-0.0156 -0.14386,-0.0313 -0.22518,-0.0188 0.0422,0.0172 0.10634,0.0235 0.13605,0.025 0.0188,-0.001 0.0406,0.0157 0.0892,-0.006 z"
       id="path80-1"
       style="fill:#f0f0f0;fill-opacity:1;stroke-width:0.0156493" />
    <path
       d="m 407.5959,534.07511 c 0.005,-0.008 -0.002,-0.0266 0.008,-0.0297 0.0156,-0.006 0.0375,0.003 0.0437,-0.0251 -0.0594,0.006 -0.14855,0.0344 -0.20328,0.0548 0.002,0.004 0.0126,0.0141 0.0172,0.0141 0,0.008 0.0172,0.0156 0.0251,0.0156 0.0328,0 0.0985,-0.0156 0.10946,-0.0297 z"
       id="path82-7"
       style="fill:#f0f0f0;fill-opacity:1;stroke-width:0.0156493" />
    <path
       d="m 409.55835,536.37892 c 0.0204,0 0.0532,-0.0344 0.0563,-0.0454 -0.0422,0 -0.0641,0.008 -0.0923,0.0188 10e-4,0.0141 0.0282,0.0266 0.0359,0.0266 z"
       id="path84-8"
       style="fill:#f0f0f0;fill-opacity:1;stroke-width:0.0156493" />
    <path
       d="m 408.71395,531.46746 c -0.005,-0.002 -0.0328,0.0109 -0.0312,0.0172 0.003,0.0125 0.0172,0.0156 0.0516,0.0204 0.0469,0.0125 0.0782,0.006 0.11415,0.001 0.003,-0.005 0,-0.008 -10e-4,-0.0125 -0.0406,-0.0109 -0.061,-0.0251 -0.10007,-0.0313 -0.0141,-0.002 -0.0204,0.005 -0.0328,0.005 z"
       id="path86-5"
       style="fill:#f0f0f0;fill-opacity:1;stroke-width:0.0156493" />
    <path
       d="m 409.47079,531.57709 c 0,0.0156 0.0641,0.0376 0.0939,0.0454 0,0 0.0328,0.0125 0.0312,0.003 -0.0141,-0.022 -0.13135,-0.0658 -0.1251,-0.0486 z"
       id="path88-7"
       style="fill:#f0f0f0;fill-opacity:1;stroke-width:0.0156493" />
    <path
       class="st1"
       d="m 407.03639,530.54865 c -2.90154,0 -5.24151,2.34362 -5.24151,5.2497 0,2.90608 2.33997,5.24969 5.24151,5.24969 2.90154,0 5.2415,-2.34361 5.2415,-5.24969 h 0.37439 c 0,2.17487 -0.78622,4.08726 -2.52715,5.1372 -0.89854,0.54372 -1.96556,0.86244 -3.08874,0.86244 -3.31338,0 -5.99029,-2.68109 -5.99029,-5.99964 0,-2.24987 1.25421,-4.21851 3.08875,-5.2497 0.8611,-0.46872 1.85324,-0.37498 2.90154,-0.37498 z"
       id="path6-3-4"
       sodipodi:nodetypes="csscccssccc"
       style="clip-rule:evenodd;fill:#f0f0f0;fill-opacity:1;fill-rule:evenodd;stroke-width:0.187343" />
    <path
       class="st2"
       d="m 404.04124,530.6049 c 1.36654,-0.8062 3.01387,-1.01244 4.54889,-0.59997 1.535,0.41248 2.84538,1.42492 3.6316,2.79359 0.78622,1.36867 1.01086,3.01858 0.59903,4.55599 -0.41183,1.53741 -1.42269,2.84983 -2.78923,3.63728 l -0.37439,-0.65621 c 1.19806,-0.69371 2.07788,-1.83739 2.43356,-3.18731 0.35567,-1.34992 0.18719,-2.77484 -0.52415,-3.97477 -0.69263,-1.19993 -1.83454,-2.08113 -3.18234,-2.43736 -1.3291,-0.37498 -2.77051,-0.18749 -3.96857,0.52497 z"
       id="path8-6-1"
       style="clip-rule:evenodd;fill:#263740;fill-opacity:1;fill-rule:evenodd;stroke-width:0.187343" />
  </g>
</svg>
