<?xml version="1.0" encoding="UTF-8" standalone="no"?>
<svg
   width="32"
   version="1.1"
   height="32"
   viewBox="0 0 32 32"
   id="svg17"
   sodipodi:docname="folder-public.svg"
   inkscape:version="1.1.1 (3bf5ae0d25, 2021-09-20)"
   xmlns:inkscape="http://www.inkscape.org/namespaces/inkscape"
   xmlns:sodipodi="http://sodipodi.sourceforge.net/DTD/sodipodi-0.dtd"
   xmlns="http://www.w3.org/2000/svg"
   xmlns:svg="http://www.w3.org/2000/svg"
   xmlns:rdf="http://www.w3.org/1999/02/22-rdf-syntax-ns#"
   xmlns:cc="http://creativecommons.org/ns#"
   xmlns:dc="http://purl.org/dc/elements/1.1/">
  <sodipodi:namedview
     pagecolor="#ffffff"
     bordercolor="#666666"
     borderopacity="1"
     objecttolerance="10"
     gridtolerance="10"
     guidetolerance="10"
     inkscape:pageopacity="0"
     inkscape:pageshadow="2"
     inkscape:window-width="1920"
     inkscape:window-height="1013"
     id="namedview19"
     showgrid="false"
     inkscape:zoom="9.8125"
     inkscape:cx="-13.350318"
     inkscape:cy="8.0509554"
     inkscape:window-x="0"
     inkscape:window-y="0"
     inkscape:window-maximized="1"
     inkscape:current-layer="layer1"
     inkscape:pagecheckerboard="0" />
  <defs
     id="defs5455" />
  <metadata
     id="metadata5458">
    <rdf:RDF>
      <cc:Work
         rdf:about="">
        <dc:format>image/svg+xml</dc:format>
        <dc:type
           rdf:resource="http://purl.org/dc/dcmitype/StillImage" />
      </cc:Work>
    </rdf:RDF>
  </metadata>
  <g
     inkscape:label="Capa 1"
     inkscape:groupmode="layer"
     id="layer1"
     transform="translate(-384.57143,-515.798)">
    <path
       style="fill:#8484ac;fill-opacity:1;stroke-width:0.0908036"
       d="m 397.16109,521.90564 c -0.37417,8e-5 -0.81705,-0.31221 -0.98476,-0.69383 l -0.7521,-1.71498 c -0.16734,-0.38163 -0.61023,-0.69358 -0.98442,-0.69383 l -7.38054,-0.005 c -1.48487,-10e-4 -2.48409,1.00439 -2.48084,2.49213 v 0 0 l -0.007,20.9979 c -5e-4,2.00997 0.49921,2.50249 2.49486,2.50301 l 27.02774,0.007 c 2.45575,5e-4 2.47953,-0.0104 2.47732,-2.52763 l -0.0157,-17.86833 c -0.002,-1.50646 -1.00012,-2.50035 -2.51368,-2.50002 z"
       id="path16"
       sodipodi:nodetypes="sccsscccsssssss" />
    <g
       id="g24"
       transform="matrix(0.08490721,0,0,0.09695731,379.50039,506.7803)">
      <path
         style="fill:#efefef;fill-opacity:1"
         d="m 179.58,131.156 8.844,17.688 c 1.968,3.936 4.8248,7.156 9.2248,7.156 H 208 c -4.4,0 -9.608,-3.22 -11.58,-7.156 l -8.844,-17.688 c -1.968,-3.936 -7.17873,-7.15601 -11.57873,-7.15601 L 168,124 c 4.4,0 9.608,3.22 11.58,7.156 z"
         id="path18"
         sodipodi:nodetypes="cssccsscc" />
      <rect
         x="75.888275"
         y="176.05383"
         style="fill:#263740;fill-opacity:1;stroke-width:0.991651"
         width="345.64072"
         height="205.93738"
         id="rect22"
         ry="10.823075" />
    </g>
    <rect
       x="386.16397"
       y="524.05316"
       style="fill:#9494b7;fill-opacity:1;stroke-width:0.0910439"
       width="28.904837"
       height="19.499996"
       id="rect26"
       ry="0.83313739" />
    <rect
       x="386.8624"
       y="524.89966"
       style="fill:#ffffff;stroke-width:0.0907326"
       width="27.509966"
       height="17.840145"
       id="rect28"
       ry="0.5996477" />
    <g
       id="g36"
       transform="matrix(0.08490721,0,0,0.09695731,379.09826,506.23064)">
      <polygon
         style="fill:#aaccff"
         points="100,276 100,272 168,204 172,204 172,276 "
         id="polygon34"
         transform="translate(-8.8452971)" />
    </g>
    <polygon
       style="fill:#2a7fff"
       points="168,272 100,272 168,204 "
       id="polygon38"
       transform="matrix(0.08490721,0,0,0.09695731,378.39716,506.23064)" />
    <path
       style="opacity:0.7;fill:#8484ac;fill-opacity:1;stroke-width:0.0910349"
       d="m 391.7986,526.04853 -5.85925,6.43047 v 10.40952 c 0.0241,0.6667 0.53116,0.90426 0.91722,0.93838 l 27.33758,0.019 c 1.05115,5e-4 1.08137,-0.93071 1.08137,-0.93071 v -16.86664 z"
       id="path30-3"
       sodipodi:nodetypes="ccccsccc" />
    <path
       id="Friends-7"
       class="st0"
       d="m 405.55871,532.37443 c 0,-1.41429 1.15534,-2.57143 2.56742,-2.57143 1.41208,0 2.56741,1.15714 2.56741,2.57143 0,1.41428 -1.15533,2.57142 -2.56741,2.57142 -1.41208,0 -2.56742,-1.15714 -2.56742,-2.57142 z m 0.4279,3.42857 c -1.64742,0 -2.99532,1.35 -2.99532,3 v 2.14285 h 8.55805 c 0.94139,0 1.71162,-0.77142 1.71162,-1.71428 V 538.803 c 0,-1.65 -1.3479,-3 -2.99532,-3 z"
       style="fill:#f0f0f0;fill-opacity:1;stroke-width:0.214118" />
    <path
       id="Friends-s-5"
       class="st1"
       d="m 400.42387,532.803 c 0,-1.17857 0.96279,-2.14286 2.13952,-2.14286 1.17673,0 2.13951,0.96429 2.13951,2.14286 0,1.17857 -0.96278,2.14285 -2.13951,2.14285 -1.17673,0 -2.13952,-0.96428 -2.13952,-2.14285 z m 2.13952,-1.28572 c -0.70605,0 -1.28371,0.57857 -1.28371,1.28572 0,0.70714 0.57766,1.28571 1.28371,1.28571 0.70604,0 1.28371,-0.57857 1.28371,-1.28571 0,-0.70715 -0.57767,-1.28572 -1.28371,-1.28572 z m 1.28371,5.14286 c 0.0214,0 0.0214,0 0.0427,0 0.25675,-0.23571 0.53488,-0.45 0.87721,-0.6 -0.27815,-0.17143 -0.57768,-0.25714 -0.91999,-0.25714 h -2.56742 c -0.94138,0 -1.71161,0.77143 -1.71161,1.71428 v 1.71429 h 0.8558 v -1.71429 c 0,-0.47143 0.38511,-0.85714 0.85581,-0.85714 z m 0,4.28571 v 0.85714 h 6.84644 c 1.41208,0 2.56742,-1.15714 2.56742,-2.57142 V 538.803 h -0.8558 v 0.42857 c 0,0.94286 -0.77023,1.71428 -1.71162,1.71428 z"
       style="clip-rule:evenodd;fill:#263740;fill-opacity:1;fill-rule:evenodd;stroke-width:0.214118" />
  </g>
</svg>
