<?xml version="1.0" encoding="UTF-8" standalone="no"?>
<svg
   id="svg2"
   viewBox="0 0 32 32"
   height="32"
   version="1.1"
   width="32"
   sodipodi:docname="folder-unlocked.svg"
   inkscape:version="1.1.1 (3bf5ae0d25, 2021-09-20)"
   xmlns:inkscape="http://www.inkscape.org/namespaces/inkscape"
   xmlns:sodipodi="http://sodipodi.sourceforge.net/DTD/sodipodi-0.dtd"
   xmlns:xlink="http://www.w3.org/1999/xlink"
   xmlns="http://www.w3.org/2000/svg"
   xmlns:svg="http://www.w3.org/2000/svg"
   xmlns:rdf="http://www.w3.org/1999/02/22-rdf-syntax-ns#"
   xmlns:cc="http://creativecommons.org/ns#"
   xmlns:dc="http://purl.org/dc/elements/1.1/">
  <sodipodi:namedview
     pagecolor="#ffffff"
     bordercolor="#666666"
     borderopacity="1"
     objecttolerance="10"
     gridtolerance="10"
     guidetolerance="10"
     inkscape:pageopacity="0"
     inkscape:pageshadow="2"
     inkscape:window-width="1920"
     inkscape:window-height="1013"
     id="namedview18"
     showgrid="false"
     inkscape:zoom="9.8125"
     inkscape:cx="-7.9490446"
     inkscape:cy="2.8535032"
     inkscape:window-x="0"
     inkscape:window-y="0"
     inkscape:window-maximized="1"
     inkscape:current-layer="svg2"
     inkscape:pagecheckerboard="0" />
  <defs
     id="defs5455">
    <linearGradient
       id="linearGradient4172-5">
      <stop
         id="stop4174-6"
         style="stop-color:#3daee9" />
      <stop
         id="stop4176-6"
         style="stop-color:#6cc1ef"
         offset="1" />
    </linearGradient>
    <linearGradient
       x2="0"
       gradientUnits="userSpaceOnUse"
       y2="8"
       y1="29"
       xlink:href="#linearGradient4172-5"
       id="linearGradient4342" />
  </defs>
  <metadata
     id="metadata5458">
    <rdf:RDF>
      <cc:Work
         rdf:about="">
        <dc:format>image/svg+xml</dc:format>
        <dc:type
           rdf:resource="http://purl.org/dc/dcmitype/StillImage" />
      </cc:Work>
    </rdf:RDF>
  </metadata>
  <path
     style="fill:#8484ac;fill-opacity:1;stroke-width:0.0908036"
     d="m 12.589259,6.1076407 c -0.37417,8e-5 -0.817053,-0.312205 -0.984756,-0.69383 l -0.752094,-1.71498 C 10.68506,3.3172057 10.242167,3.0052557 9.8679874,3.0050007 l -7.380539,-0.005 c -1.48487,-0.001 -2.48408803,1.004395 -2.48084803,2.492135 v 0 0 L 3.7321899e-7,26.490031 C -4.9862678e-4,28.500001 0.49921537,28.992526 2.4948664,28.993041 l 27.0277306,0.0069 c 2.455758,5e-4 2.479536,-0.01045 2.47732,-2.52763 L 31.984187,8.6040297 c -0.0015,-1.50646 -1.000112,-2.500344 -2.513683,-2.500019 z"
     id="path16"
     sodipodi:nodetypes="sccsscccsssssss" />
  <g
     id="g24"
     transform="matrix(0.08490721,0,0,0.09695731,-5.0910696,-9.0227023)">
    <path
       style="fill:#efefef;fill-opacity:1"
       d="m 179.58,131.156 8.844,17.688 c 1.968,3.936 4.8248,7.156 9.2248,7.156 H 208 c -4.4,0 -9.608,-3.22 -11.58,-7.156 l -8.844,-17.688 c -1.968,-3.936 -7.17873,-7.15601 -11.57873,-7.15601 L 168,124 c 4.4,0 9.608,3.22 11.58,7.156 z"
       id="path18"
       sodipodi:nodetypes="cssccsscc" />
    <rect
       x="75.888275"
       y="176.05383"
       style="fill:#263740;fill-opacity:1;stroke-width:0.991651"
       width="345.64072"
       height="205.93738"
       id="rect22"
       ry="10.823075" />
  </g>
  <rect
     x="1.5725504"
     y="8.2500076"
     style="fill:#9494b7;fill-opacity:1;stroke-width:0.0910439"
     width="28.904839"
     height="19.499996"
     id="rect26"
     ry="0.83313739" />
  <rect
     x="2.2709527"
     y="9.0965042"
     style="fill:#ffffff;stroke-width:0.0907326"
     width="27.509966"
     height="17.840145"
     id="rect28"
     ry="0.5996477" />
  <g
     id="g36"
     transform="matrix(0.08490721,0,0,0.09695731,-5.4931966,-9.5723563)">
    <polygon
       style="fill:#aaccff"
       points="168,204 172,204 172,276 100,276 100,272 "
       id="polygon34"
       transform="translate(-8.8452971)" />
  </g>
  <polygon
     style="fill:#2a7fff"
     points="100,272 168,204 168,272 "
     id="polygon38"
     transform="matrix(0.08490721,0,0,0.09695731,-6.1943066,-9.5723563)" />
  <path
     style="opacity:0.7;fill:#8484ac;fill-opacity:1;stroke-width:0.0910349"
     d="m 7.2071394,10.245529 -5.859241,6.430474 v 10.409518 c 0.02411,0.666705 0.53116,0.904265 0.917212,0.938385 l 27.3375866,0.01895 c 1.051148,5e-4 1.081365,-0.93071 1.081365,-0.93071 V 10.245504 Z"
     id="path30-3"
     sodipodi:nodetypes="ccccsccc" />
  <path
     id="Lock-7"
     class="st0"
     d="m 24.405627,22.251919 c 0,0.248283 -0.14103,0.463462 -0.352574,0.579327 v 0.744849 c 0,0.182074 -0.158657,0.331044 -0.352574,0.331044 -0.193917,0 -0.352575,-0.14897 -0.352575,-0.331044 V 22.831246 C 23.13636,22.715381 22.99533,22.500202 22.99533,22.251919 c 0,-0.364148 0.317319,-0.662088 0.705149,-0.662088 0.387834,0 0.705148,0.29794 0.705148,0.662088 z m 1.76287,-2.979395 h 0.705148 v 0.662088 h 1.057723 v 3.641483 c 0,0.910371 -0.793291,1.655219 -1.762871,1.655219 h -6.698908 v -5.296702 h 6.698908 z"
     style="clip-rule:evenodd;fill:#f0f0f0;fill-opacity:1;fill-rule:evenodd;stroke-width:0.17082" />
  <path
     id="Lock-s-5"
     class="st1"
     d="m 21.232459,18.384496 h -0.705148 v -0.105104 c 0,-1.638667 1.427924,-2.979395 3.173168,-2.979395 1.745242,0 3.173166,1.340728 3.173166,2.979395 v 0.993132 h -0.705148 v -0.993132 c 0,-1.274518 -1.11061,-2.317307 -2.468018,-2.317307 -1.35741,0 -2.46802,1.042789 -2.46802,2.317307 z m 6.698909,1.550116 H 26.168497 V 20.5967 h 1.057722 v 3.310439 c 0,0.728297 -0.634633,1.324175 -1.410296,1.324175 h -5.641186 v 0.662088 h 5.641186 c 1.163497,0 2.115445,-0.893818 2.115445,-1.986263 z"
     style="fill:#263740;fill-opacity:1;stroke-width:0.17082"
     sodipodi:nodetypes="ccsssccssscccccssccssc" />
</svg>
