<?xml version="1.0" encoding="UTF-8" standalone="no"?>
<svg
   width="32"
   version="1.1"
   height="32"
   viewBox="0 0 32 32"
   id="svg15"
   sodipodi:docname="folder-android.svg"
   inkscape:version="1.1.1 (3bf5ae0d25, 2021-09-20)"
   xmlns:inkscape="http://www.inkscape.org/namespaces/inkscape"
   xmlns:sodipodi="http://sodipodi.sourceforge.net/DTD/sodipodi-0.dtd"
   xmlns="http://www.w3.org/2000/svg"
   xmlns:svg="http://www.w3.org/2000/svg"
   xmlns:rdf="http://www.w3.org/1999/02/22-rdf-syntax-ns#"
   xmlns:cc="http://creativecommons.org/ns#"
   xmlns:dc="http://purl.org/dc/elements/1.1/">
  <sodipodi:namedview
     pagecolor="#ffffff"
     bordercolor="#666666"
     borderopacity="1"
     objecttolerance="10"
     gridtolerance="10"
     guidetolerance="10"
     inkscape:pageopacity="0"
     inkscape:pageshadow="2"
     inkscape:window-width="1920"
     inkscape:window-height="1013"
     id="namedview17"
     showgrid="true"
     inkscape:zoom="9.8125"
     inkscape:cx="-9.477707"
     inkscape:cy="18.038217"
     inkscape:window-x="0"
     inkscape:window-y="0"
     inkscape:window-maximized="1"
     inkscape:current-layer="layer1"
     inkscape:pagecheckerboard="0">
    <inkscape:grid
       type="xygrid"
       id="grid862" />
  </sodipodi:namedview>
  <defs
     id="defs5455" />
  <metadata
     id="metadata5458">
    <rdf:RDF>
      <cc:Work
         rdf:about="">
        <dc:format>image/svg+xml</dc:format>
        <dc:type
           rdf:resource="http://purl.org/dc/dcmitype/StillImage" />
      </cc:Work>
    </rdf:RDF>
  </metadata>
  <g
     inkscape:label="Capa 1"
     inkscape:groupmode="layer"
     id="layer1"
     transform="translate(-384.57143,-515.798)">
    <path
       style="fill:#8484ac;fill-opacity:1;stroke-width:0.0908071"
       d="m 397.16109,521.9059 c -0.37416,2e-4 -0.81705,-0.3122 -0.98475,-0.6938 l -0.7521,-1.7153 c -0.16735,-0.3816 -0.61024,-0.6936 -0.98442,-0.6938 h -7.38054 c -1.48487,0 -2.48409,1.0045 -2.48085,2.4923 v 0 0 l -0.007,20.9995 c -5e-4,2.0102 0.49921,2.5028 2.49487,2.5032 h 27.02773 c 2.45575,4e-4 2.47954,-0.014 2.47732,-2.5278 l -0.0157,-17.8698 c -0.001,-1.5065 -1.00012,-2.5006 -2.51369,-2.5003 z"
       id="path16"
       sodipodi:nodetypes="sccsscccsssssss" />
    <g
       id="g24"
       transform="matrix(0.08490719,0,0,0.09696453,379.48077,506.7744)">
      <path
         style="fill:#efefef;fill-opacity:1"
         d="m 179.58,131.156 8.844,17.688 c 1.968,3.936 4.8248,7.156 9.2248,7.156 H 208 c -4.4,0 -9.608,-3.22 -11.58,-7.156 l -8.844,-17.688 c -1.968,-3.936 -7.17873,-7.15601 -11.57873,-7.15601 L 168,124 c 4.4,0 9.608,3.22 11.58,7.156 z"
         id="path18"
         sodipodi:nodetypes="cssccsscc" />
      <rect
         x="75.888275"
         y="176.05383"
         style="fill:#263740;fill-opacity:1;stroke-width:0.991651"
         width="345.64072"
         height="205.93738"
         id="rect22"
         ry="10.823075" />
    </g>
    <rect
       x="386.14438"
       y="524.04803"
       style="fill:#9494b7;fill-opacity:1;stroke-width:0.0910473"
       width="28.904839"
       height="19.501451"
       id="rect26"
       ry="0.83319944" />
    <rect
       x="386.84277"
       y="524.89484"
       style="fill:#ffffff;stroke-width:0.0907359"
       width="27.509966"
       height="17.841471"
       id="rect28"
       ry="0.5996924" />
    <g
       id="g36"
       transform="matrix(0.08490719,0,0,0.09696453,379.07864,506.2248)">
      <polygon
         style="fill:#aaccff"
         points="100,276 100,272 168,204 172,204 172,276 "
         id="polygon34"
         transform="translate(-8.8452971)" />
    </g>
    <polygon
       style="fill:#2a7fff"
       points="168,272 100,272 168,204 "
       id="polygon38"
       transform="matrix(0.08490719,0,0,0.09696453,378.37753,506.2248)" />
    <path
       style="opacity:0.7;fill:#8484ac;fill-opacity:1;stroke-width:0.0910382"
       d="m 391.77897,526.0441 -5.85924,6.4309 v 10.4103 c 0.0241,0.6667 0.53116,0.9043 0.91722,0.9384 l 27.33758,0.019 c 1.05115,0 1.08137,-0.9306 1.08137,-0.9306 v -16.868 z"
       id="path30-3"
       sodipodi:nodetypes="ccccsccc" />
    <path
       class="st0"
       d="m 408.68198,538.33185 c 0.37897,0 0.66876,-0.34789 0.66876,-0.80281 0,-0.4549 -0.28979,-0.8028 -0.66876,-0.8028 -0.37895,0 -0.66875,0.3479 -0.66875,0.8028 0,0.45492 0.2898,0.80281 0.66875,0.80281 z m -5.79583,0 c 0.37895,0 0.66875,-0.34789 0.66875,-0.80281 0,-0.4549 -0.2898,-0.8028 -0.66875,-0.8028 -0.37896,0 -0.66875,0.3479 -0.66875,0.8028 0,0.45492 0.28979,0.80281 0.66875,0.80281 z m 9.58543,2.67599 c -0.22292,-4.17457 -3.14313,-7.49277 -6.68752,-7.49277 -3.54437,0 -6.4646,3.3182 -6.68756,7.49277 z"
       id="path4"
       style="clip-rule:evenodd;fill:#a1cd32;fill-opacity:1;fill-rule:evenodd;stroke-width:0.244237" />
    <path
       class="st1"
       d="m 400.67923,530.91934 c 0.22296,-0.16055 0.49046,-0.0535 0.60192,0.18731 l 1.38206,2.75628 0.49044,0.8831 -0.42355,0.29438 c -0.84712,0.5887 -1.56041,1.39148 -2.1177,2.35481 -0.0448,0.10705 -0.0672,0.21412 -0.0672,0.32116 0,0.93659 1.56046,1.68585 3.49984,1.68585 3.45521,0 6.24168,-1.17742 6.24168,-2.64924 0,-0.40138 -0.20062,-0.77601 -0.57958,-1.09712 h 0.8025 l 2.22916,5.08435 h -2.89791 v 0.80278 h -11.19046 l 0.0224,-0.56192 c 0.15602,-2.75627 1.3821,-5.13789 3.18773,-6.58295 l -1.33751,-2.75621 c -0.11147,-0.24081 -0.0448,-0.58878 0.15603,-0.72258 z"
       id="path6"
       style="fill:#f0f0f0;fill-opacity:1;stroke-width:0.244237" />
    <path
       class="st2"
       d="m 409.32845,541.543 h 3.58897 l -0.0224,-0.56192 c -0.15604,-2.75627 -1.38208,-5.13789 -3.18771,-6.58295 l 1.33751,-2.75621 c 0.13375,-0.26756 0.0448,-0.58878 -0.15605,-0.72258 -0.2006,-0.13379 -0.49041,-0.0802 -0.62415,0.18731 l -1.35981,2.75628 c -0.93625,-0.56194 -2.00625,-0.88305 -3.14315,-0.88305 -1.13685,0 -2.20685,0.32111 -3.16541,0.88305 l 0.44584,0.90986 v 0.0271 c 0.82477,-0.48166 1.73875,-0.74928 2.71957,-0.74928 3.14315,0 5.75128,2.78303 6.17482,6.42236 h -2.60813 z"
       id="path8"
       style="fill:#263740;fill-opacity:1;stroke-width:0.244237" />
    <path
       class="fil1"
       d="m 402.94905,536.212 c 0.62834,0 1.10882,0.51748 1.10882,1.1088 0,0.62835 -0.48048,1.10884 -1.10882,1.10884 -0.62835,0 -1.10884,-0.51744 -1.10884,-1.10884 0,-0.62831 0.48049,-1.1088 1.10884,-1.1088 z m 0.66526,0.81314 c 0.14786,0 0.29572,0.11089 0.29572,0.29566 0,0.14786 -0.1109,0.29573 -0.29572,0.29573 -0.14784,0 -0.29566,-0.11091 -0.29566,-0.29573 0,-0.14782 0.11089,-0.29566 0.29566,-0.29566 z"
       id="path12"
       style="fill:#263740;fill-opacity:1;stroke-width:0.0369606;image-rendering:optimizeQuality;shape-rendering:geometricPrecision;text-rendering:geometricPrecision" />
    <path
       class="fil1"
       d="m 408.29907,536.15257 c 0.62832,0 1.10881,0.51743 1.10881,1.10883 0,0.62832 -0.48049,1.10879 -1.10881,1.10879 -0.62833,0 -1.10882,-0.51746 -1.10882,-1.10879 0,-0.62834 0.48049,-1.10883 1.10882,-1.10883 z m 0.66529,0.81312 c 0.14784,0 0.29568,0.11087 0.29568,0.29571 0,0.14783 -0.11088,0.29565 -0.29568,0.29565 -0.14785,0 -0.29568,-0.11087 -0.29568,-0.29565 0,-0.14785 0.11087,-0.29571 0.29568,-0.29571 z"
       id="path12-3"
       style="fill:#263740;fill-opacity:1;stroke-width:0.0369606;image-rendering:optimizeQuality;shape-rendering:geometricPrecision;text-rendering:geometricPrecision" />
  </g>
</svg>
