<?xml version="1.0" encoding="UTF-8" standalone="no"?>
<svg
   width="32"
   version="1.1"
   height="32"
   viewBox="0 0 32 32"
   id="svg15"
   sodipodi:docname="folder-sign.svg"
   inkscape:version="1.1.1 (3bf5ae0d25, 2021-09-20)"
   xmlns:inkscape="http://www.inkscape.org/namespaces/inkscape"
   xmlns:sodipodi="http://sodipodi.sourceforge.net/DTD/sodipodi-0.dtd"
   xmlns:xlink="http://www.w3.org/1999/xlink"
   xmlns="http://www.w3.org/2000/svg"
   xmlns:svg="http://www.w3.org/2000/svg"
   xmlns:rdf="http://www.w3.org/1999/02/22-rdf-syntax-ns#"
   xmlns:cc="http://creativecommons.org/ns#"
   xmlns:dc="http://purl.org/dc/elements/1.1/">
  <sodipodi:namedview
     pagecolor="#ffffff"
     bordercolor="#666666"
     borderopacity="1"
     objecttolerance="10"
     gridtolerance="10"
     guidetolerance="10"
     inkscape:pageopacity="0"
     inkscape:pageshadow="2"
     inkscape:window-width="1920"
     inkscape:window-height="1013"
     id="namedview17"
     showgrid="true"
     inkscape:zoom="9.8125"
     inkscape:cx="-9.477707"
     inkscape:cy="18.038217"
     inkscape:window-x="0"
     inkscape:window-y="0"
     inkscape:window-maximized="1"
     inkscape:current-layer="layer1"
     inkscape:pagecheckerboard="0">
    <inkscape:grid
       type="xygrid"
       id="grid862" />
  </sodipodi:namedview>
  <defs
     id="defs5455">
    <linearGradient
       inkscape:collect="always"
       xlink:href="#linearGradient994"
       id="linearGradient996"
       x1="416.57144"
       y1="510.798"
       x2="428.57144"
       y2="532.79797"
       gradientUnits="userSpaceOnUse"
       gradientTransform="matrix(0.45852738,0,0,0.45852738,211.42552,297.46728)" />
    <linearGradient
       inkscape:collect="always"
       id="linearGradient994">
      <stop
         style="stop-color:#263740;stop-opacity:1"
         offset="0"
         id="stop990" />
      <stop
         style="stop-color:#263740;stop-opacity:1"
         offset="0.73382789"
         id="stop1610" />
      <stop
         style="stop-color:#f0f0f0;stop-opacity:1"
         offset="0.77272815"
         id="stop1224" />
      <stop
         style="stop-color:#f0f0f0;stop-opacity:1"
         offset="1"
         id="stop992" />
    </linearGradient>
  </defs>
  <metadata
     id="metadata5458">
    <rdf:RDF>
      <cc:Work
         rdf:about="">
        <dc:format>image/svg+xml</dc:format>
        <dc:type
           rdf:resource="http://purl.org/dc/dcmitype/StillImage" />
      </cc:Work>
    </rdf:RDF>
  </metadata>
  <g
     inkscape:label="Capa 1"
     inkscape:groupmode="layer"
     id="layer1"
     transform="translate(-384.57143,-515.798)">
    <path
       style="fill:#8484ac;fill-opacity:1;stroke-width:0.0908071"
       d="m 397.16109,521.9059 c -0.37416,2e-4 -0.81705,-0.3122 -0.98475,-0.6938 l -0.7521,-1.7153 c -0.16735,-0.3816 -0.61024,-0.6936 -0.98442,-0.6938 h -7.38054 c -1.48487,0 -2.48409,1.0045 -2.48085,2.4923 v 0 0 l -0.007,20.9995 c -5e-4,2.0102 0.49921,2.5028 2.49487,2.5032 h 27.02773 c 2.45575,4e-4 2.47954,-0.014 2.47732,-2.5278 l -0.0157,-17.8698 c -0.001,-1.5065 -1.00012,-2.5006 -2.51369,-2.5003 z"
       id="path16"
       sodipodi:nodetypes="sccsscccsssssss" />
    <g
       id="g24"
       transform="matrix(0.08490719,0,0,0.09696453,379.48077,506.7744)">
      <path
         style="fill:#efefef;fill-opacity:1"
         d="m 179.58,131.156 8.844,17.688 c 1.968,3.936 4.8248,7.156 9.2248,7.156 H 208 c -4.4,0 -9.608,-3.22 -11.58,-7.156 l -8.844,-17.688 c -1.968,-3.936 -7.17873,-7.15601 -11.57873,-7.15601 L 168,124 c 4.4,0 9.608,3.22 11.58,7.156 z"
         id="path18"
         sodipodi:nodetypes="cssccsscc" />
      <rect
         x="75.888275"
         y="176.05383"
         style="fill:#263740;fill-opacity:1;stroke-width:0.991651"
         width="345.64072"
         height="205.93738"
         id="rect22"
         ry="10.823075" />
    </g>
    <rect
       x="386.14438"
       y="524.04803"
       style="fill:#9494b7;fill-opacity:1;stroke-width:0.0910473"
       width="28.904839"
       height="19.501451"
       id="rect26"
       ry="0.83319944" />
    <rect
       x="386.84277"
       y="524.89484"
       style="fill:#ffffff;stroke-width:0.0907359"
       width="27.509966"
       height="17.841471"
       id="rect28"
       ry="0.5996924" />
    <g
       id="g36"
       transform="matrix(0.08490719,0,0,0.09696453,379.07864,506.2248)">
      <polygon
         style="fill:#aaccff"
         points="100,276 100,272 168,204 172,204 172,276 "
         id="polygon34"
         transform="translate(-8.8452971)" />
    </g>
    <polygon
       style="fill:#2a7fff"
       points="168,272 100,272 168,204 "
       id="polygon38"
       transform="matrix(0.08490719,0,0,0.09696453,378.37753,506.2248)" />
    <path
       style="opacity:0.7;fill:#8484ac;fill-opacity:1;stroke-width:0.0910382"
       d="m 391.77897,526.0441 -5.85924,6.4309 v 10.4103 c 0.0241,0.6667 0.53116,0.9043 0.91722,0.9384 l 27.33758,0.019 c 1.05115,0 1.08137,-0.9306 1.08137,-0.9306 v -16.868 z"
       id="path30-3"
       sodipodi:nodetypes="ccccsccc" />
    <path
       style="color:#232629;fill:url(#linearGradient996);fill-opacity:1;stroke:none;stroke-width:0.391592"
       d="m 412.72256,531.86605 c -0.0684,-9.2e-4 -0.13861,0.0118 -0.20478,0.0385 -0.0355,0.0155 -0.18887,0.13319 -0.33971,0.26168 l -0.27465,0.23595 -0.0995,-0.0435 c -0.13928,-0.0586 -0.27369,-0.0716 -0.39904,-0.0353 -0.0867,0.025 -0.28971,0.19233 -1.62201,1.324 -0.84081,0.71341 -1.52452,1.3027 -1.5225,1.31183 10e-4,0.007 0.34311,0.17787 0.756,0.37592 l 0.75501,0.36252 0.99331,-0.84541 c 0.54669,-0.4651 1.00153,-0.84149 1.01244,-0.83625 0.0356,0.0164 0.0997,0.382 0.0871,0.49943 -0.005,0.0641 -0.0426,0.17914 -0.0813,0.25549 -0.0691,0.13654 -0.0767,0.14454 -1.30814,1.19571 -0.68109,0.58111 -1.24818,1.07467 -1.25837,1.09418 -0.0291,0.0538 0.004,0.15441 0.067,0.21211 0.10653,0.0973 0.37003,0.12802 0.51962,0.0587 0.10335,-0.0482 2.54254,-2.14566 2.6201,-2.25502 0.22656,-0.31199 0.27348,-0.71153 0.13015,-1.10461 -0.0566,-0.15602 -0.13069,-0.306 -0.20287,-0.41262 -0.021,-0.029 0.0142,-0.0664 0.24209,-0.26226 0.21559,-0.18699 0.26502,-0.23946 0.2689,-0.2879 0.008,-0.10306 -0.0407,-0.16041 -0.19903,-0.23901 l -0.14738,-0.0734 0.29283,-0.25118 c 0.24004,-0.20786 0.29193,-0.2621 0.29569,-0.31057 0.0109,-0.15439 -0.1756,-0.2675 -0.38086,-0.26895 z m -4.93303,3.48432 c -0.007,9.2e-4 -0.90308,0.7611 -1.99234,1.68774 -1.75191,1.49221 -2.00111,1.7131 -2.1627,1.90295 -0.32098,0.37794 -0.67032,0.95412 -0.90239,1.48052 -0.15038,0.33762 -0.15795,0.30707 0.0517,0.23532 0.64664,-0.22308 1.49132,-0.58525 1.98277,-0.85151 0.48058,-0.26068 0.56241,-0.32695 2.59811,-2.05878 l 1.95789,-1.66761 -0.76077,-0.36494 c -0.41841,-0.20067 -0.76507,-0.36434 -0.77226,-0.36369 z m 0.2201,3.86207 c -0.0961,-0.004 -0.19514,-0.002 -0.25932,0.006 v 9.2e-4 c -0.30426,0.041 -0.64306,0.20943 -0.80671,0.40348 -0.0442,0.0504 -0.1143,0.16451 -0.15788,0.25059 -0.0411,0.0877 -0.0793,0.16074 -0.0823,0.16263 -0.0237,0.0186 -0.60538,0.10793 -0.94738,0.14546 -0.80401,0.0898 -1.02349,0.12333 -1.10238,0.16992 -0.15481,0.0914 -0.035,0.18347 0.1847,0.14247 0.0583,-0.0115 0.30681,-0.0428 0.54641,-0.0691 0.24007,-0.0258 0.60518,-0.0748 0.81243,-0.10454 0.20773,-0.0318 0.38354,-0.0527 0.39235,-0.0471 0.009,0.005 -0.026,0.11199 -0.0813,0.23715 l -0.0995,0.22436 -0.2201,0.0617 c -0.12005,0.0338 -0.29216,0.0914 -0.38277,0.13084 -0.27488,0.11581 -0.32797,0.26126 -0.13494,0.35453 0.10534,0.0504 0.39766,0.0486 0.57894,-0.002 0.16072,-0.0466 0.25114,-0.11185 0.37704,-0.28179 0.0671,-0.0879 0.12011,-0.13436 0.16076,-0.13998 0.0324,-0.006 0.32261,-0.043 0.64404,-0.0862 0.3219,-0.041 0.61394,-0.0806 0.65167,-0.0862 0.0612,-0.009 0.0674,-0.005 0.0496,0.0299 -0.0118,0.023 -0.0647,0.0882 -0.12056,0.14611 -0.0554,0.0579 -0.0995,0.12679 -0.0995,0.15466 0,0.0579 0.0766,0.11589 0.1378,0.10087 0.0237,-0.006 0.0552,-0.0112 0.0699,-0.0112 0.0149,0 0.0794,-0.03 0.14354,-0.0672 0.12005,-0.0692 0.40959,-0.4076 0.40959,-0.47865 0,-0.0353 0.044,-0.0443 0.0698,-0.0159 0.009,0.009 0.0753,0.0258 0.14833,0.0373 0.10241,0.0164 0.13205,0.0295 0.13205,0.0593 0,0.0579 0.14956,0.14236 0.28134,0.15893 0.1024,0.0115 0.23405,-0.002 0.37416,-0.0391 0.0494,-0.0137 0.0526,-0.009 0.0356,0.0391 -0.0118,0.03 -0.0969,0.12541 -0.18756,0.21336 -0.19304,0.18309 -0.42679,0.4744 -0.48802,0.60334 -0.0494,0.11016 -0.0293,0.19255 0.0612,0.23167 0.0818,0.0338 0.21605,0.018 0.28612,-0.0307 0.0613,-0.0429 0.39522,-0.49278 0.51771,-0.69808 0.0877,-0.14396 0.12835,-0.1833 0.32727,-0.31787 0.16364,-0.11015 0.21709,-0.1364 0.18182,-0.0935 -0.0583,0.0805 -0.0556,0.14186 0.009,0.17911 0.13718,0.0804 0.33614,0.002 0.50909,-0.19988 0.10239,-0.11958 0.17864,-0.15473 0.55885,-0.26895 l 0.19808,-0.0581 -0.02,0.0691 c -0.0118,0.0372 -0.0792,0.14395 -0.14929,0.23532 -0.13767,0.18498 -0.16316,0.30268 -0.0813,0.40345 0.0554,0.0692 0.11379,0.0714 0.38278,0.0119 0.37432,-0.0804 0.86257,-0.26586 0.98947,-0.37225 0.17246,-0.14963 0.22543,-0.29319 0.12058,-0.34173 -0.10828,-0.0504 -0.1695,-0.0299 -0.30718,0.099 -0.18422,0.17561 -0.41208,0.31228 -0.63158,0.38146 -0.1024,0.0338 -0.1931,0.0557 -0.20191,0.0501 -0.0118,-0.007 0.22194,-0.40911 0.34737,-0.59786 0.0266,-0.0391 0.0477,-0.0879 0.0477,-0.10818 0,-0.0523 -0.10272,-0.11188 -0.19042,-0.11188 -0.0411,0 -0.23472,0.0502 -0.42776,0.11371 -0.40078,0.12708 -0.37417,0.13825 -0.27177,-0.10085 0.0612,-0.14743 0.041,-0.18686 -0.0995,-0.19622 -0.13474,-0.009 -0.18708,0.0189 -0.31005,0.15892 -0.0789,0.0951 -0.18379,0.17385 -0.38565,0.29342 -0.26603,0.15681 -0.27797,0.16231 -0.3397,0.13447 -0.0936,-0.0429 -0.14635,-0.0372 -0.37417,0.0355 -0.22244,0.071 -0.29583,0.0804 -0.35119,0.0372 -0.0472,-0.0353 0.0266,-0.0541 0.43348,-0.10451 0.39491,-0.0485 0.44403,-0.062 0.44403,-0.11432 0,-0.0842 -0.1084,-0.16409 -0.30145,-0.21824 -0.33365,-0.0951 -0.37073,-0.10111 -0.51674,-0.077 -0.15776,0.0258 -0.39208,0.16998 -0.42392,0.25983 -0.0324,0.0936 -0.13206,0.0653 -0.13206,-0.0373 0,-0.0429 -0.0822,-0.15117 -0.12918,-0.16994 -0.0995,-0.0429 -0.2598,0.0507 -0.38279,0.22248 l -0.0966,0.13269 -0.21626,0.0299 c -0.28074,0.0391 -1.09649,0.14361 -1.20479,0.1571 -0.07,0.007 -0.0817,0.004 -0.067,-0.0231 0.0118,-0.0186 0.0467,-0.1004 0.0813,-0.1846 0.0906,-0.2316 0.1175,-0.26184 0.24881,-0.29158 0.15777,-0.0353 0.69056,-0.18141 0.82775,-0.22615 0.0642,-0.0208 0.19535,-0.084 0.29188,-0.13999 0.29544,-0.17562 0.34178,-0.3383 0.1311,-0.45788 -0.0583,-0.0318 -0.13461,-0.0652 -0.16939,-0.0746 -0.0539,-0.0137 -0.14691,-0.0226 -0.24307,-0.0254 z m -0.29473,0.21823 c 0.0405,-0.002 0.0887,-9.2e-4 0.14928,0.002 0.15482,0.005 0.21667,0.015 0.2603,0.0446 0.0583,0.0372 0.0582,0.039 0.006,0.11003 -0.0355,0.0448 -0.11673,0.0974 -0.21914,0.1424 -0.17833,0.0786 -0.73737,0.22222 -0.75501,0.19625 -0.0237,-0.0429 0.15568,-0.29913 0.26984,-0.38144 0.11392,-0.0826 0.16718,-0.10932 0.28901,-0.1137 z m -1.50143,1.56428 c 0.0224,9.2e-4 0.0228,0.0139 0.004,0.0367 -0.038,0.0466 -0.13792,0.0804 -0.1933,0.0672 -0.0642,-0.0164 -0.0471,-0.0389 0.0555,-0.0727 0.0674,-0.0217 0.11168,-0.0324 0.13399,-0.0314 z"
       class="ColorScheme-Text"
       id="path12" />
  </g>
</svg>
