<?xml version="1.0" encoding="UTF-8" standalone="no"?>
<svg
   width="32"
   version="1.1"
   height="32"
   viewBox="0 0 32 32"
   id="svg15"
   sodipodi:docname="folder-Github.svg"
   inkscape:version="1.1.1 (3bf5ae0d25, 2021-09-20)"
   xmlns:inkscape="http://www.inkscape.org/namespaces/inkscape"
   xmlns:sodipodi="http://sodipodi.sourceforge.net/DTD/sodipodi-0.dtd"
   xmlns="http://www.w3.org/2000/svg"
   xmlns:svg="http://www.w3.org/2000/svg"
   xmlns:rdf="http://www.w3.org/1999/02/22-rdf-syntax-ns#"
   xmlns:cc="http://creativecommons.org/ns#"
   xmlns:dc="http://purl.org/dc/elements/1.1/">
  <sodipodi:namedview
     pagecolor="#ffffff"
     bordercolor="#666666"
     borderopacity="1"
     objecttolerance="10"
     gridtolerance="10"
     guidetolerance="10"
     inkscape:pageopacity="0"
     inkscape:pageshadow="2"
     inkscape:window-width="1920"
     inkscape:window-height="1013"
     id="namedview17"
     showgrid="true"
     inkscape:zoom="9.8125"
     inkscape:cx="-26.292994"
     inkscape:cy="8.6624204"
     inkscape:window-x="0"
     inkscape:window-y="0"
     inkscape:window-maximized="1"
     inkscape:current-layer="layer1"
     inkscape:document-rotation="0"
     inkscape:pagecheckerboard="0">
    <inkscape:grid
       type="xygrid"
       id="grid847" />
  </sodipodi:namedview>
  <defs
     id="defs5455" />
  <metadata
     id="metadata5458">
    <rdf:RDF>
      <cc:Work
         rdf:about="">
        <dc:format>image/svg+xml</dc:format>
        <dc:type
           rdf:resource="http://purl.org/dc/dcmitype/StillImage" />
      </cc:Work>
    </rdf:RDF>
  </metadata>
  <g
     inkscape:label="Capa 1"
     inkscape:groupmode="layer"
     id="layer1"
     transform="translate(-384.57143,-515.798)">
    <path
       style="fill:#8484ac;fill-opacity:1;stroke-width:0.0908745"
       d="m 397.18075,521.90564 c -0.37476,8e-5 -0.81833,-0.31221 -0.9863,-0.69383 l -0.75327,-1.71498 c -0.16761,-0.38163 -0.61119,-0.69358 -0.98596,-0.69383 l -7.39207,-0.005 c -1.48719,-10e-4 -2.48797,1.00439 -2.48472,2.49213 v 0 0 l -0.007,20.9979 c -5e-4,2.00997 0.49999,2.50249 2.49876,2.50301 l 27.06996,0.007 c 2.45959,5e-4 2.48341,-0.0104 2.48119,-2.52763 l -0.0157,-17.86833 c -0.002,-1.50646 -1.00168,-2.50035 -2.51761,-2.50002 z"
       id="path16"
       sodipodi:nodetypes="sccsscccsssssss" />
    <g
       id="g24"
       transform="matrix(0.08503986,0,0,0.09695731,379.4728,506.7753)">
      <path
         style="fill:#efefef;fill-opacity:1"
         d="m 179.58,131.156 8.844,17.688 c 1.968,3.936 4.8248,7.156 9.2248,7.156 H 208 c -4.4,0 -9.608,-3.22 -11.58,-7.156 l -8.844,-17.688 c -1.968,-3.936 -7.17873,-7.15601 -11.57873,-7.15601 L 168,124 c 4.4,0 9.608,3.22 11.58,7.156 z"
         id="path18"
         sodipodi:nodetypes="cssccsscc" />
      <rect
         x="75.888275"
         y="176.05383"
         style="fill:#263740;fill-opacity:1;stroke-width:0.991651"
         width="345.64072"
         height="205.93738"
         id="rect22"
         ry="10.823075" />
    </g>
    <rect
       x="386.14679"
       y="524.04803"
       style="fill:#9494b7;fill-opacity:1;stroke-width:0.091115"
       width="28.949995"
       height="19.499996"
       id="rect26"
       ry="0.83313739" />
    <rect
       x="386.84628"
       y="524.89453"
       style="fill:#ffffff;stroke-width:0.0908035"
       width="27.552944"
       height="17.840145"
       id="rect28"
       ry="0.5996477" />
    <g
       id="g36"
       transform="matrix(0.08503986,0,0,0.09695731,379.07004,506.22564)">
      <polygon
         style="fill:#aaccff"
         points="100,272 168,204 172,204 172,276 100,276 "
         id="polygon34"
         transform="translate(-8.8452971)" />
    </g>
    <polygon
       style="fill:#2a7fff"
       points="168,272 100,272 168,204 "
       id="polygon38"
       transform="matrix(0.08503986,0,0,0.09695731,378.36784,506.22564)" />
    <path
       style="opacity:0.7;fill:#8484ac;fill-opacity:1;stroke-width:0.091106"
       d="m 391.79022,526.04353 -5.8684,6.43047 v 10.40952 c 0.0241,0.6667 0.53199,0.90426 0.91865,0.93838 l 27.38029,0.019 c 1.05279,5e-4 1.08306,-0.93071 1.08306,-0.93071 V 526.0435 Z"
       id="path30-3"
       sodipodi:nodetypes="ccccsccc" />
    <path
       class="st0"
       d="m 413.06714,535.79565 c 0,2.66147 -1.72433,4.91059 -4.12339,5.69778 h -3.74853 c -2.39907,-0.78719 -4.12339,-3.03631 -4.12339,-5.69778 0,-3.31745 2.6802,-5.99765 5.99765,-5.99765 3.31745,0 5.99766,2.6802 5.99766,5.99765 z"
       id="path4-7"
       style="fill:#f0f0f0;fill-opacity:1;stroke-width:0.187427" />
    <path
       class="st2"
       d="m 409.31861,538.2322 c 0.56227,-0.18742 1.49941,-0.7497 1.49941,-2.43655 0,-0.65599 -0.16869,-1.25575 -0.54354,-1.74306 0.41234,-0.99337 -0.0375,-1.63062 -0.20617,-1.63062 -0.14994,0 -0.78719,0.11246 -1.36821,0.58103 -0.46857,-0.1312 -1.01211,-0.20617 -1.63062,-0.20617 -0.6185,0 -1.16204,0.075 -1.63061,0.20617 -0.58102,-0.46857 -1.21827,-0.58103 -1.36821,-0.58103 -0.16869,0 -0.61851,0.63725 -0.20617,1.63062 -0.37486,0.48731 -0.54354,1.08707 -0.54354,1.74306 0,1.68685 0.93713,2.24913 1.49941,2.43655 0.44983,0.14994 0.93714,0.24366 1.12456,0.28114 -0.11245,0.11246 -0.29988,0.41234 -0.35611,0.82468 -0.14994,0.11246 -0.37485,0.20617 -0.67473,0.20617 -0.56228,0 -0.84342,-0.37485 -1.12456,-0.74971 -0.28114,-0.37485 -0.656,-0.56228 -0.84342,-0.56228 -0.18743,0 -0.37486,0.0937 -0.18743,0.28114 0.18743,0.18743 0.43108,0.0375 0.93713,0.93714 0.37486,0.67473 0.84342,0.65599 1.21828,0.65599 0.33736,0 0.65599,-0.18743 0.65599,-0.18743 h 2.8114 l 0.18743,-0.37485 c 0,-0.52479 -0.24366,-0.89965 -0.37485,-1.03085 0.18742,-0.0375 0.67473,-0.1312 1.12456,-0.28114 z"
       id="path8-5"
       style="fill:#263740;fill-opacity:1;stroke-width:0.187427" />
    <path
       class="st3"
       d="m 402.75867,538.51334 c -0.11246,-0.11245 -0.0937,-0.18742 -0.0187,-0.22491 0.33736,0.33737 0.76845,0.59977 1.2745,0.78719 0.22491,0.2624 0.48731,0.46857 0.89965,0.46857 0.18742,0 0.35611,-0.0562 0.50605,-0.11246 0.52479,0.075 1.08707,0.11246 1.64935,0.11246 0.5248,0 1.03085,-0.0187 1.49942,-0.0937 0,0.0375 0,0.0562 0,0.0937 v 1.49941 l 0.43108,0.43109 c -1.25576,0.43107 -2.60523,0.43107 -3.86099,0 l 0.43108,-0.43109 v -0.89964 c -0.14994,0.0562 -0.41234,0.14994 -0.65599,0.14994 -0.37486,0 -0.93714,-0.075 -1.31199,-0.74971 -0.37485,-0.69348 -0.56228,-0.82468 -0.71222,-0.91839 -0.0375,-0.0375 -0.0937,-0.075 -0.1312,-0.11246 z"
       id="path10-3"
       style="clip-rule:evenodd;fill:#263740;fill-opacity:1;fill-rule:evenodd;stroke-width:0.187427" />
  </g>
</svg>
