<?xml version="1.0" encoding="UTF-8" standalone="no"?>
<svg
   width="32"
   version="1.1"
   height="32"
   viewBox="0 0 32 32"
   id="svg17"
   sodipodi:docname="folder-network.svg"
   inkscape:version="1.1.1 (3bf5ae0d25, 2021-09-20)"
   xmlns:inkscape="http://www.inkscape.org/namespaces/inkscape"
   xmlns:sodipodi="http://sodipodi.sourceforge.net/DTD/sodipodi-0.dtd"
   xmlns="http://www.w3.org/2000/svg"
   xmlns:svg="http://www.w3.org/2000/svg"
   xmlns:rdf="http://www.w3.org/1999/02/22-rdf-syntax-ns#"
   xmlns:cc="http://creativecommons.org/ns#"
   xmlns:dc="http://purl.org/dc/elements/1.1/">
  <sodipodi:namedview
     pagecolor="#ffffff"
     bordercolor="#666666"
     borderopacity="1"
     objecttolerance="10"
     gridtolerance="10"
     guidetolerance="10"
     inkscape:pageopacity="0"
     inkscape:pageshadow="2"
     inkscape:window-width="1920"
     inkscape:window-height="1013"
     id="namedview19"
     showgrid="false"
     inkscape:zoom="9.8125"
     inkscape:cx="-20.993631"
     inkscape:cy="5.6050955"
     inkscape:window-x="0"
     inkscape:window-y="0"
     inkscape:window-maximized="1"
     inkscape:current-layer="layer1"
     inkscape:pagecheckerboard="0" />
  <defs
     id="defs5455" />
  <metadata
     id="metadata5458">
    <rdf:RDF>
      <cc:Work
         rdf:about="">
        <dc:format>image/svg+xml</dc:format>
        <dc:type
           rdf:resource="http://purl.org/dc/dcmitype/StillImage" />
      </cc:Work>
    </rdf:RDF>
  </metadata>
  <g
     inkscape:label="Capa 1"
     inkscape:groupmode="layer"
     id="layer1"
     transform="translate(-384.57143,-515.798)">
    <path
       style="fill:#8484ac;fill-opacity:1;stroke-width:0.0908036"
       d="m 397.16109,521.90564 c -0.37417,8e-5 -0.81705,-0.31221 -0.98476,-0.69383 l -0.7521,-1.71498 c -0.16734,-0.38163 -0.61023,-0.69358 -0.98442,-0.69383 l -7.38054,-0.005 c -1.48487,-10e-4 -2.48409,1.00439 -2.48084,2.49213 v 0 0 l -0.007,20.9979 c -5e-4,2.00997 0.49921,2.50249 2.49486,2.50301 l 27.02774,0.007 c 2.45575,5e-4 2.47953,-0.0104 2.47732,-2.52763 l -0.0157,-17.86833 c -0.002,-1.50646 -1.00012,-2.50035 -2.51368,-2.50002 z"
       id="path16"
       sodipodi:nodetypes="sccsscccsssssss" />
    <g
       id="g24"
       transform="matrix(0.08490721,0,0,0.09695731,379.48076,506.7753)">
      <path
         style="fill:#efefef;fill-opacity:1"
         d="m 179.58,131.156 8.844,17.688 c 1.968,3.936 4.8248,7.156 9.2248,7.156 H 208 c -4.4,0 -9.608,-3.22 -11.58,-7.156 l -8.844,-17.688 c -1.968,-3.936 -7.17873,-7.15601 -11.57873,-7.15601 L 168,124 c 4.4,0 9.608,3.22 11.58,7.156 z"
         id="path18"
         sodipodi:nodetypes="cssccsscc" />
      <rect
         x="75.888275"
         y="176.05383"
         style="fill:#263740;fill-opacity:1;stroke-width:0.991651"
         width="345.64072"
         height="205.93738"
         id="rect22"
         ry="10.823075" />
    </g>
    <rect
       x="386.14438"
       y="524.04803"
       style="fill:#9494b7;fill-opacity:1;stroke-width:0.0910439"
       width="28.904837"
       height="19.499996"
       id="rect26"
       ry="0.83313739" />
    <rect
       x="386.8428"
       y="524.89453"
       style="fill:#ffffff;stroke-width:0.0907326"
       width="27.509966"
       height="17.840145"
       id="rect28"
       ry="0.5996477" />
    <g
       id="g36"
       transform="matrix(0.08490721,0,0,0.09695731,379.07863,506.22564)">
      <polygon
         style="fill:#aaccff"
         points="100,276 100,272 168,204 172,204 172,276 "
         id="polygon34"
         transform="translate(-8.8452971)" />
    </g>
    <polygon
       style="fill:#2a7fff"
       points="100,272 168,204 168,272 "
       id="polygon38"
       transform="matrix(0.08490721,0,0,0.09695731,378.37753,506.22564)" />
    <path
       style="opacity:0.7;fill:#8484ac;fill-opacity:1;stroke-width:0.0910349"
       d="m 391.77897,526.04353 -5.85925,6.43047 v 10.40952 c 0.0241,0.6667 0.53116,0.90426 0.91722,0.93838 l 27.33758,0.019 c 1.05115,5e-4 1.08137,-0.93071 1.08137,-0.93071 v -16.86664 z"
       id="path30-3"
       sodipodi:nodetypes="ccccsccc" />
    <path
       id="Share-7"
       class="st0"
       d="m 413.02737,531.673 c 0,1.03125 -0.84243,1.875 -1.87207,1.875 -1.02964,0 -1.87207,-0.84375 -1.87207,-1.875 0,-1.03125 0.84243,-1.875 1.87207,-1.875 1.02964,0 1.87207,0.84375 1.87207,1.875 z m -6.85178,3.4875 0.69267,-0.4125 -0.39314,-0.6375 -0.69267,0.4125 c -0.33697,-0.375 -0.82371,-0.6 -1.36661,-0.6 -1.02964,0 -1.87208,0.84375 -1.87208,1.875 0,1.03125 0.84244,1.875 1.87208,1.875 1.02964,0 1.87207,-0.84375 1.87207,-1.875 0,-0.225 -0.0374,-0.43125 -0.11232,-0.6375 z m 4.97971,6.63749 c 1.02964,0 1.87207,-0.84374 1.87207,-1.87499 0,-1.03125 -0.84243,-1.875 -1.87207,-1.875 -0.5429,0 -1.02964,0.225 -1.36662,0.6 l -0.69265,-0.43125 -0.39314,0.6375 0.69267,0.4125 c -0.0749,0.225 -0.11233,0.43125 -0.11233,0.65625 0,1.03125 0.84243,1.87499 1.87207,1.87499 z"
       style="fill:#f0f0f0;fill-opacity:1;stroke-width:0.187354" />
    <path
       id="Share-s-5"
       class="st1"
       d="m 409.39556,532.3105 v 0 c 0.13103,0.3375 0.33696,0.6375 0.61777,0.84375 0.31826,0.24375 0.73011,0.39375 1.14197,0.39375 v 0.75 c -0.58035,0 -1.14197,-0.1875 -1.59127,-0.54375 -0.14975,-0.1125 -0.29952,-0.2625 -0.43056,-0.4125 l -2.28394,1.3875 -0.37441,-0.61875 z m -0.69267,6.54375 0.39314,-0.6375 -2.92044,-1.78125 c 0.0749,-0.20625 0.11232,-0.4125 0.11232,-0.6375 0,-0.28125 -0.0749,-0.5625 -0.18721,-0.825 -0.0749,-0.16875 -0.1872,-0.31875 -0.31825,-0.45 l -0.65522,0.4125 c 0.26209,0.20625 0.41185,0.525 0.41185,0.88125 0,0.35625 -0.16848,0.675 -0.41185,0.88125 z m 1.74102,0.1875 -0.65523,-0.4125 c -0.31825,0.35625 -0.50545,0.80625 -0.50545,1.29375 0,1.03125 0.84243,1.87499 1.87207,1.87499 V 541.048 c -0.61779,0 -1.12325,-0.50625 -1.12325,-1.125 0,-0.35625 0.16849,-0.675 0.41186,-0.88125 z"
       style="fill:#263740;fill-opacity:1;stroke-width:0.187354" />
  </g>
</svg>
