<?xml version="1.0" encoding="UTF-8" standalone="no"?>
<svg
   height="32"
   viewBox="0 0 32 32"
   width="32"
   version="1.1"
   id="svg25"
   sodipodi:docname="folder-recent.svg"
   inkscape:version="1.1.1 (3bf5ae0d25, 2021-09-20)"
   xmlns:inkscape="http://www.inkscape.org/namespaces/inkscape"
   xmlns:sodipodi="http://sodipodi.sourceforge.net/DTD/sodipodi-0.dtd"
   xmlns="http://www.w3.org/2000/svg"
   xmlns:svg="http://www.w3.org/2000/svg"
   xmlns:rdf="http://www.w3.org/1999/02/22-rdf-syntax-ns#"
   xmlns:cc="http://creativecommons.org/ns#"
   xmlns:dc="http://purl.org/dc/elements/1.1/">
  <metadata
     id="metadata31">
    <rdf:RDF>
      <cc:Work
         rdf:about="">
        <dc:format>image/svg+xml</dc:format>
        <dc:type
           rdf:resource="http://purl.org/dc/dcmitype/StillImage" />
      </cc:Work>
    </rdf:RDF>
  </metadata>
  <defs
     id="defs29" />
  <sodipodi:namedview
     pagecolor="#ffffff"
     bordercolor="#666666"
     borderopacity="1"
     objecttolerance="10"
     gridtolerance="10"
     guidetolerance="10"
     inkscape:pageopacity="0"
     inkscape:pageshadow="2"
     inkscape:window-width="1920"
     inkscape:window-height="1013"
     id="namedview27"
     showgrid="false"
     inkscape:zoom="6.9384853"
     inkscape:cx="-21.474428"
     inkscape:cy="14.844739"
     inkscape:window-x="0"
     inkscape:window-y="0"
     inkscape:window-maximized="1"
     inkscape:current-layer="svg25"
     inkscape:pagecheckerboard="0" />
  <linearGradient
     id="a"
     gradientUnits="userSpaceOnUse"
     x2="0"
     y1="29"
     y2="8">
    <stop
       offset="0"
       stop-color="#3daee9"
       id="stop2" />
    <stop
       offset="1"
       stop-color="#6cc1ef"
       id="stop4" />
  </linearGradient>
  <path
     style="fill:#8484ac;fill-opacity:1;stroke-width:0.0908036"
     d="m 12.58926,6.1076407 c -0.37417,8e-5 -0.817053,-0.312205 -0.984756,-0.69383 l -0.752094,-1.71498 c -0.167349,-0.381625 -0.610242,-0.693575 -0.984422,-0.69383 l -7.3805396,-0.005 c -1.48487,-0.001 -2.48408803,1.004395 -2.48084803,2.492135 v 0 0 L 3.7321899e-7,26.490031 C -4.9862678e-4,28.500001 0.49921537,28.992526 2.4948664,28.993041 l 27.0277316,0.0069 c 2.455758,5e-4 2.479536,-0.01045 2.47732,-2.52763 L 31.984188,8.6039797 c -0.0015,-1.50646 -1.000112,-2.500344 -2.513683,-2.500019 z"
     id="path16"
     sodipodi:nodetypes="sccsscccsssssss" />
  <g
     id="g24"
     transform="matrix(0.08490721,0,0,0.09695731,-5.0910696,-9.0227027)">
    <path
       style="fill:#efefef;fill-opacity:1"
       d="m 179.58,131.156 8.844,17.688 c 1.968,3.936 4.8248,7.156 9.2248,7.156 H 208 c -4.4,0 -9.608,-3.22 -11.58,-7.156 l -8.844,-17.688 c -1.968,-3.936 -7.17873,-7.15601 -11.57873,-7.15601 L 168,124 c 4.4,0 9.608,3.22 11.58,7.156 z"
       id="path18"
       sodipodi:nodetypes="cssccsscc" />
    <rect
       x="75.888275"
       y="176.05383"
       style="fill:#263740;fill-opacity:1;stroke-width:0.991651"
       width="345.64072"
       height="205.93738"
       id="rect22"
       ry="10.823075" />
  </g>
  <rect
     x="1.5725548"
     y="8.2499237"
     style="fill:#9494b7;fill-opacity:1;stroke-width:0.0910439"
     width="28.904839"
     height="19.499996"
     id="rect26"
     ry="0.83313739" />
  <rect
     x="2.2709577"
     y="9.0964203"
     style="fill:#ffffff;stroke-width:0.0907326"
     width="27.509966"
     height="17.840145"
     id="rect28"
     ry="0.5996477" />
  <g
     id="g36"
     transform="matrix(0.08490721,0,0,0.09695731,-5.4931966,-9.5723567)">
    <polygon
       style="fill:#aaccff"
       points="172,276 100,276 100,272 168,204 172,204 "
       id="polygon34"
       transform="translate(-8.8452971)" />
  </g>
  <polygon
     style="fill:#2a7fff"
     points="100,272 168,204 168,272 "
     id="polygon38"
     transform="matrix(0.08490721,0,0,0.09695731,-6.1943066,-9.5723567)" />
  <path
     style="opacity:0.7;fill:#8484ac;fill-opacity:1;stroke-width:0.0910349"
     d="m 7.2071394,10.245529 -5.859241,6.430474 v 10.409518 c 0.02411,0.666705 0.53116,0.904265 0.917212,0.938385 l 27.3375876,0.01895 c 1.051148,5e-4 1.081365,-0.93071 1.081365,-0.93071 V 10.245504 Z"
     id="path30-3"
     sodipodi:nodetypes="ccccsccc" />
  <path
     id="Stopwatch-7"
     class="st0"
     d="m 22.759679,23.228822 c 2.02902,0 3.689127,-1.6627 3.689127,-3.69489 0,-2.032189 -1.660107,-3.694889 -3.689127,-3.694889 -2.029014,0 -3.689125,1.6627 -3.689125,3.694889 0,2.03219 1.660111,3.69489 3.689125,3.69489 z m 0.461145,-9.214129 v 0 c 1.268134,0.115465 2.49016,0.646605 3.458552,1.59342 2.167363,2.170745 2.167363,5.680889 0,7.828543 -2.167359,2.147655 -5.672028,2.17075 -7.839392,0.0231 -2.167358,-2.147654 -2.144299,-5.680888 0,-7.851638 0.968397,-0.969905 2.190418,-1.501045 3.458556,-1.59342 v 0 l 0.431835,-0.0147 z"
     sodipodi:nodetypes="ssssscccssccccc"
     style="clip-rule:evenodd;fill:#f0f0f0;fill-opacity:1;fill-rule:evenodd;stroke-width:0.23075" />
  <path
     id="Stopwatch-s-5"
     class="st1"
     d="m 23.220824,14.014693 v 0 0 0 0 0 0 l 1.014505,0.184745 v 0 z m -0.461145,11.061573 v 0.92372 c 3.06659,0 5.533689,-2.470955 5.533689,-5.542334 v -0.92372 H 27.37109 v 0.92372 c 0,2.54024 -2.075133,4.618614 -4.611411,4.618614 z m -0.968391,-3.902729 0.737822,-0.738975 c 0.299741,0.09237 0.645596,0 0.899225,-0.23093 0.23057,-0.230935 0.3228,-0.57733 0.23057,-0.90063 l 2.697675,-2.701889 -0.645596,-0.646605 -2.72073,2.678794 c -0.299747,-0.09238 -0.645601,0 -0.899224,0.23093 -0.23057,0.23093 -0.322801,0.577325 -0.23057,0.90063 l -0.737827,0.738975 z"
     sodipodi:nodetypes="cccccccccccccccccccccccccscc"
     style="fill:#263740;fill-opacity:1;stroke-width:0.23075" />
</svg>
