<?xml version="1.0" encoding="UTF-8" standalone="no"?>
<svg
   height="32"
   width="32"
   version="1.1"
   id="svg23"
   sodipodi:docname="folder-root.svg"
   inkscape:version="1.1.1 (3bf5ae0d25, 2021-09-20)"
   xmlns:inkscape="http://www.inkscape.org/namespaces/inkscape"
   xmlns:sodipodi="http://sodipodi.sourceforge.net/DTD/sodipodi-0.dtd"
   xmlns="http://www.w3.org/2000/svg"
   xmlns:svg="http://www.w3.org/2000/svg"
   xmlns:rdf="http://www.w3.org/1999/02/22-rdf-syntax-ns#"
   xmlns:cc="http://creativecommons.org/ns#"
   xmlns:dc="http://purl.org/dc/elements/1.1/">
  <metadata
     id="metadata29">
    <rdf:RDF>
      <cc:Work
         rdf:about="">
        <dc:format>image/svg+xml</dc:format>
        <dc:type
           rdf:resource="http://purl.org/dc/dcmitype/StillImage" />
      </cc:Work>
    </rdf:RDF>
  </metadata>
  <defs
     id="defs27" />
  <sodipodi:namedview
     pagecolor="#ffffff"
     bordercolor="#666666"
     borderopacity="1"
     objecttolerance="10"
     gridtolerance="10"
     guidetolerance="10"
     inkscape:pageopacity="0"
     inkscape:pageshadow="2"
     inkscape:window-width="1920"
     inkscape:window-height="1013"
     id="namedview25"
     showgrid="false"
     inkscape:zoom="9.8125"
     inkscape:cx="-11.10828"
     inkscape:cy="4.3821656"
     inkscape:window-x="0"
     inkscape:window-y="0"
     inkscape:window-maximized="1"
     inkscape:current-layer="svg23"
     inkscape:pagecheckerboard="0" />
  <linearGradient
     id="a"
     gradientUnits="userSpaceOnUse"
     x2="0"
     y1="29"
     y2="8">
    <stop
       offset="0"
       stop-color="#3daee9"
       id="stop2" />
    <stop
       offset="1"
       stop-color="#6cc1ef"
       id="stop4" />
  </linearGradient>
  <path
     style="fill:#8484ac;fill-opacity:1;stroke-width:0.0908036"
     d="m 12.589261,6.1076397 c -0.37417,8e-5 -0.817053,-0.312205 -0.984756,-0.69383 L 10.85241,3.6988307 c -0.167349,-0.381625 -0.610242,-0.693575 -0.9844223,-0.69383 l -7.3805394,-0.005 c -1.48487,-0.001 -2.48408793,1.004395 -2.48084793,2.492134 v 0 0 L 3.7321899e-7,26.490032 C -4.9862678e-4,28.500001 0.49921537,28.992526 2.4948663,28.993041 l 27.0277327,0.0069 c 2.455757,5e-4 2.479535,-0.01045 2.477319,-2.527629 L 31.984188,8.6040297 c -0.0015,-1.50646 -1.000112,-2.500345 -2.513682,-2.50002 z"
     id="path16"
     sodipodi:nodetypes="sccsscccsssssss" />
  <g
     id="g24"
     transform="matrix(0.08490722,0,0,0.09695731,-5.0910707,-9.0227023)">
    <path
       style="fill:#efefef;fill-opacity:1"
       d="m 179.58,131.156 8.844,17.688 c 1.968,3.936 4.8248,7.156 9.2248,7.156 H 208 c -4.4,0 -9.608,-3.22 -11.58,-7.156 l -8.844,-17.688 c -1.968,-3.936 -7.17873,-7.15601 -11.57873,-7.15601 L 168,124 c 4.4,0 9.608,3.22 11.58,7.156 z"
       id="path18"
       sodipodi:nodetypes="cssccsscc" />
    <rect
       x="75.888275"
       y="176.05383"
       style="fill:#263740;fill-opacity:1;stroke-width:0.991651"
       width="345.64072"
       height="205.93738"
       id="rect22"
       ry="10.823075" />
  </g>
  <rect
     x="1.5725509"
     y="8.2500057"
     style="fill:#9494b7;fill-opacity:1;stroke-width:0.0910439"
     width="28.904839"
     height="19.499996"
     id="rect26"
     ry="0.83313745" />
  <rect
     x="2.2709532"
     y="9.0965004"
     style="fill:#ffffff;stroke-width:0.0907326"
     width="27.509968"
     height="17.840145"
     id="rect28"
     ry="0.5996477" />
  <g
     id="g36"
     transform="matrix(0.08490722,0,0,0.09695731,-5.4931967,-9.5723573)">
    <polygon
       style="fill:#aaccff"
       points="100,276 100,272 168,204 172,204 172,276 "
       id="polygon34"
       transform="translate(-8.8452971)" />
  </g>
  <polygon
     style="fill:#2a7fff"
     points="100,272 168,204 168,272 "
     id="polygon38"
     transform="matrix(0.08490722,0,0,0.09695731,-6.1943067,-9.5723573)" />
  <path
     style="opacity:0.7;fill:#8484ac;fill-opacity:1;stroke-width:0.0910349"
     d="m 7.2071393,10.24553 -5.859241,6.430473 v 10.409519 c 0.02411,0.666705 0.53116,0.904265 0.917212,0.938385 l 27.3375887,0.01895 c 1.051148,5e-4 1.081365,-0.93071 1.081365,-0.93071 V 10.245505 Z"
     id="path30-3"
     sodipodi:nodetypes="ccccsccc" />
  <polygon
     id="X-5"
     class="st0"
     points="4,48.8 15.2,60 32,43.2 48.8,60 60,48.8 43.2,32 60,15.2 48.8,4 "
     transform="matrix(0.21385596,0,0,0.21419006,15.618846,13.143239)"
     style="fill:#f0f0f0;fill-opacity:1" />
  <path
     id="X-s-3"
     class="st1"
     d="m 18.014034,17.277108 2.395187,2.398929 -0.598799,0.59973 -2.416574,-2.398929 c -0.662949,-0.66399 -0.662949,-1.73494 0,-2.420345 l 1.475609,-1.456495 0.598794,0.59973 -1.454217,1.456495 c -0.34217,0.342705 -0.34217,0.8996 0,1.220885 z m 9.837375,-0.27845 -2.993988,2.998659 0.5988,0.599735 2.993982,-2.99866 z m -2.865673,7.646584 -2.395187,-2.398925 -3.122298,3.148594 0.5988,0.59973 2.523498,-2.527444 1.775007,1.77778 c 1.005123,1.006694 2.630424,1.006694 3.635549,0 l 0.449098,-0.4498 -0.598794,-0.59973 -0.449099,0.449795 c -0.662954,0.663989 -1.75362,0.663989 -2.416574,0 z"
     style="fill:#263740;fill-opacity:1;stroke-width:0.214023" />
</svg>
