<?xml version="1.0" encoding="UTF-8" standalone="no"?>
<svg
   width="32"
   version="1.1"
   height="32"
   viewBox="0 0 32 32"
   id="svg15"
   sodipodi:docname="folder-Manjaro.svg"
   inkscape:version="1.1.1 (3bf5ae0d25, 2021-09-20)"
   xmlns:inkscape="http://www.inkscape.org/namespaces/inkscape"
   xmlns:sodipodi="http://sodipodi.sourceforge.net/DTD/sodipodi-0.dtd"
   xmlns:xlink="http://www.w3.org/1999/xlink"
   xmlns="http://www.w3.org/2000/svg"
   xmlns:svg="http://www.w3.org/2000/svg"
   xmlns:rdf="http://www.w3.org/1999/02/22-rdf-syntax-ns#"
   xmlns:cc="http://creativecommons.org/ns#"
   xmlns:dc="http://purl.org/dc/elements/1.1/">
  <sodipodi:namedview
     pagecolor="#ffffff"
     bordercolor="#666666"
     borderopacity="1"
     objecttolerance="10"
     gridtolerance="10"
     guidetolerance="10"
     inkscape:pageopacity="0"
     inkscape:pageshadow="2"
     inkscape:window-width="1920"
     inkscape:window-height="1013"
     id="namedview17"
     showgrid="true"
     inkscape:zoom="9.8125"
     inkscape:cx="-25.783439"
     inkscape:cy="0.50955414"
     inkscape:window-x="0"
     inkscape:window-y="0"
     inkscape:window-maximized="1"
     inkscape:current-layer="layer1"
     inkscape:document-rotation="0"
     inkscape:pagecheckerboard="0">
    <inkscape:grid
       type="xygrid"
       id="grid838" />
  </sodipodi:namedview>
  <defs
     id="defs5455">
    <linearGradient
       inkscape:collect="always"
       xlink:href="#linearGradient885-3"
       id="linearGradient1298"
       gradientUnits="userSpaceOnUse"
       gradientTransform="matrix(0.49921998,0,0,0.49999991,193.69329,274.50668)"
       x1="414.07144"
       y1="522.79797"
       x2="439.57144"
       y2="522.79797" />
    <linearGradient
       inkscape:collect="always"
       id="linearGradient885-3">
      <stop
         style="stop-color:#263740;stop-opacity:1"
         offset="0"
         id="stop881-6" />
      <stop
         style="stop-color:#263740;stop-opacity:1"
         offset="0.65194398"
         id="stop923-7" />
      <stop
         style="stop-color:#f0f0f0;stop-opacity:1"
         offset="0.70599413"
         id="stop1053-5" />
      <stop
         style="stop-color:#f0f0f0;stop-opacity:1"
         offset="1"
         id="stop883-3" />
    </linearGradient>
  </defs>
  <metadata
     id="metadata5458">
    <rdf:RDF>
      <cc:Work
         rdf:about="">
        <dc:format>image/svg+xml</dc:format>
        <dc:type
           rdf:resource="http://purl.org/dc/dcmitype/StillImage" />
      </cc:Work>
    </rdf:RDF>
  </metadata>
  <g
     inkscape:label="Capa 1"
     inkscape:groupmode="layer"
     id="layer1"
     transform="translate(-384.57143,-515.798)">
    <path
       style="fill:#8484ac;fill-opacity:1;stroke-width:0.0908036"
       d="m 397.16109,521.90564 c -0.37417,8e-5 -0.81705,-0.31221 -0.98476,-0.69383 l -0.7521,-1.71498 c -0.16734,-0.38163 -0.61023,-0.69358 -0.98442,-0.69383 l -7.38054,-0.005 c -1.48487,-10e-4 -2.48409,1.00439 -2.48084,2.49213 v 0 0 l -0.007,20.9979 c -5e-4,2.00997 0.49921,2.50249 2.49486,2.50301 l 27.02774,0.007 c 2.45575,5e-4 2.47953,-0.0104 2.47732,-2.52763 l -0.0158,-17.86833 c -10e-4,-1.50646 -1.00012,-2.50035 -2.51368,-2.50002 z"
       id="path16"
       sodipodi:nodetypes="sccsscccsssssss" />
    <g
       id="g24"
       transform="matrix(0.08490721,0,0,0.09695731,379.58951,506.88294)">
      <path
         style="fill:#efefef;fill-opacity:1"
         d="m 179.58,130.04723 8.844,17.688 c 1.968,3.936 4.8248,7.156 9.2248,7.156 H 208 c -4.4,0 -9.608,-3.22 -11.58,-7.156 l -8.844,-17.688 c -1.968,-3.936 -7.17873,-7.15601 -11.57873,-7.15601 L 168,122.89123 c 4.4,0 9.608,3.22 11.58,7.156 z"
         id="path18"
         sodipodi:nodetypes="cssccsscc" />
      <rect
         x="75.888275"
         y="176.05383"
         style="fill:#263740;fill-opacity:1;stroke-width:0.991651"
         width="345.64072"
         height="205.93738"
         id="rect22"
         ry="10.823075" />
    </g>
    <rect
       x="386.25311"
       y="524.15582"
       style="fill:#9494b7;fill-opacity:1;stroke-width:0.0910439"
       width="28.904837"
       height="19.499996"
       id="rect26"
       ry="0.83313739" />
    <rect
       x="386.95151"
       y="525.00232"
       style="fill:#ffffff;stroke-width:0.0907326"
       width="27.509966"
       height="17.840145"
       id="rect28"
       ry="0.5996477" />
    <g
       id="g36"
       transform="matrix(0.08490721,0,0,0.09695731,379.18738,506.33328)">
      <polygon
         style="fill:#aaccff"
         points="100,272 168,204 172,204 172,276 100,276 "
         id="polygon34"
         transform="translate(-8.8452971)" />
    </g>
    <polygon
       style="fill:#2a7fff"
       points="168,204 168,272 100,272 "
       id="polygon38"
       transform="matrix(0.08490721,0,0,0.09695731,378.48628,506.33328)" />
    <path
       style="opacity:0.7;fill:#8484ac;fill-opacity:1;stroke-width:0.0910349"
       d="m 391.88772,526.15117 -5.85925,6.43047 v 10.40952 c 0.0242,0.6667 0.53116,0.90426 0.91722,0.93838 l 27.33758,0.0189 c 1.05115,5e-4 1.08137,-0.93071 1.08137,-0.93071 v -16.86664 z"
       id="path30-3"
       sodipodi:nodetypes="ccccsccc" />
    <path
       style="fill:url(#linearGradient1298);fill-opacity:1;stroke-width:0.749415"
       d="m 401.04813,529.90564 c -0.35568,0 -0.64211,0.2869 -0.64211,0.64309 v 10.71382 c 0,0.35618 0.30212,0.53843 0.64211,0.64308 h 3.10204 v -8.24999 h 4.49298 v -3.75 z m 8.34385,0 v 11.99999 h 3.10206 c 0.35563,0 0.64208,-0.2869 0.64208,-0.64308 v -10.71382 c 0,-0.35619 -0.28645,-0.64309 -0.64208,-0.64309 z m -8.23713,0.75 h 6.73947 v 2.25 h -3.74415 a 0.74890395,0.75007396 0 0 0 -0.74883,0.75 v 7.5 h -2.21149 c -0.0131,-0.008 -0.0257,-0.0104 -0.0355,-0.014 z m 8.98595,0 h 2.24649 v 10.5 h -2.24649 z m -5.2418,3.75 v 7.49999 h 3.74415 v -7.49999 z m 0.74883,0.75 h 2.24649 v 6 h -2.24649 z"
       id="path4-3-1" />
  </g>
</svg>
