<?xml version="1.0" encoding="UTF-8" standalone="no"?>
<svg
   width="32"
   version="1.1"
   height="32"
   viewBox="0 0 32 32"
   id="svg15"
   sodipodi:docname="folder-Pop_OS.svg"
   inkscape:version="1.1.1 (3bf5ae0d25, 2021-09-20)"
   xmlns:inkscape="http://www.inkscape.org/namespaces/inkscape"
   xmlns:sodipodi="http://sodipodi.sourceforge.net/DTD/sodipodi-0.dtd"
   xmlns="http://www.w3.org/2000/svg"
   xmlns:svg="http://www.w3.org/2000/svg"
   xmlns:rdf="http://www.w3.org/1999/02/22-rdf-syntax-ns#"
   xmlns:cc="http://creativecommons.org/ns#"
   xmlns:dc="http://purl.org/dc/elements/1.1/">
  <sodipodi:namedview
     pagecolor="#ffffff"
     bordercolor="#666666"
     borderopacity="1"
     objecttolerance="10"
     gridtolerance="10"
     guidetolerance="10"
     inkscape:pageopacity="0"
     inkscape:pageshadow="2"
     inkscape:window-width="1920"
     inkscape:window-height="1013"
     id="namedview17"
     showgrid="false"
     inkscape:zoom="9.8125"
     inkscape:cx="-16"
     inkscape:cy="8.6624204"
     inkscape:window-x="0"
     inkscape:window-y="0"
     inkscape:window-maximized="1"
     inkscape:current-layer="layer1"
     inkscape:document-rotation="0"
     inkscape:pagecheckerboard="0" />
  <defs
     id="defs5455" />
  <metadata
     id="metadata5458">
    <rdf:RDF>
      <cc:Work
         rdf:about="">
        <dc:format>image/svg+xml</dc:format>
        <dc:type
           rdf:resource="http://purl.org/dc/dcmitype/StillImage" />
      </cc:Work>
    </rdf:RDF>
  </metadata>
  <g
     inkscape:label="Capa 1"
     inkscape:groupmode="layer"
     id="layer1"
     transform="translate(-384.57143,-515.798)">
    <path
       style="fill:#8484ac;fill-opacity:1;stroke-width:0.0908036"
       d="m 397.16109,521.90564 c -0.37417,8e-5 -0.81705,-0.31221 -0.98476,-0.69383 l -0.7521,-1.71498 c -0.16734,-0.38163 -0.61023,-0.69358 -0.98442,-0.69383 l -7.38054,-0.005 c -1.48487,-10e-4 -2.48409,1.00439 -2.48084,2.49213 v 0 0 l -0.007,20.9979 c -5e-4,2.00997 0.49921,2.50249 2.49486,2.50301 l 27.02774,0.007 c 2.45575,5e-4 2.47953,-0.0104 2.47732,-2.52763 l -0.0158,-17.86833 c -10e-4,-1.50646 -1.00012,-2.50035 -2.51368,-2.50002 z"
       id="path16"
       sodipodi:nodetypes="sccsscccsssssss" />
    <g
       id="g24"
       transform="matrix(0.08490721,0,0,0.09695731,379.48076,506.7753)">
      <path
         style="fill:#efefef;fill-opacity:1"
         d="m 179.58,131.156 8.844,17.688 c 1.968,3.936 4.8248,7.156 9.2248,7.156 H 208 c -4.4,0 -9.608,-3.22 -11.58,-7.156 l -8.844,-17.688 c -1.968,-3.936 -7.17873,-7.15601 -11.57873,-7.15601 L 168,124 c 4.4,0 9.608,3.22 11.58,7.156 z"
         id="path18"
         sodipodi:nodetypes="cssccsscc" />
      <rect
         x="75.888275"
         y="176.05383"
         style="fill:#263740;fill-opacity:1;stroke-width:0.991651"
         width="345.64072"
         height="205.93738"
         id="rect22"
         ry="10.823075" />
    </g>
    <rect
       x="386.14432"
       y="524.04816"
       style="fill:#9494b7;fill-opacity:1;stroke-width:0.0910439"
       width="28.904837"
       height="19.499996"
       id="rect26"
       ry="0.83313739" />
    <rect
       x="386.84274"
       y="524.89465"
       style="fill:#ffffff;stroke-width:0.0907326"
       width="27.509966"
       height="17.840145"
       id="rect28"
       ry="0.5996477" />
    <g
       id="g36"
       transform="matrix(0.08490721,0,0,0.09695731,379.07863,506.22564)">
      <polygon
         style="fill:#aaccff"
         points="172,276 100,276 100,272 168,204 172,204 "
         id="polygon34"
         transform="translate(-8.8452971)" />
    </g>
    <polygon
       style="fill:#2a7fff"
       points="168,272 100,272 168,204 "
       id="polygon38"
       transform="matrix(0.08490721,0,0,0.09695731,378.37753,506.22564)" />
    <path
       style="opacity:0.7;fill:#8484ac;fill-opacity:1;stroke-width:0.0910349"
       d="m 391.77897,526.04353 -5.85925,6.43047 v 10.40952 c 0.0242,0.6667 0.53116,0.90426 0.91722,0.93838 l 27.33758,0.019 c 1.05115,5e-4 1.08137,-0.93071 1.08137,-0.93071 v -16.86664 z"
       id="path30-3"
       sodipodi:nodetypes="ccccsccc" />
    <path
       style="fill:#263740;fill-opacity:1;stroke-width:0.0141089"
       id="path2-3-3-3-3"
       d="m 411.46956,537.46395 c -0.0277,0.11277 -0.0837,0.21259 -0.18126,0.2754 -0.15348,0.0985 -0.34036,0.0699 -0.47286,-0.05 -0.12412,-0.11131 -0.16598,-0.29958 -0.12694,-0.46237 0.0402,-0.1699 0.16876,-0.31975 0.33336,-0.36687 0.3668,-0.10411 0.51888,0.30399 0.4477,0.60381 z m -0.22453,-1.15893 c -0.22731,-0.0928 -0.14927,-1.31302 0.0587,-2.79433 0.0587,-0.41393 0.15904,-0.60962 0.27202,-0.70955 0.16178,-0.14119 0.45608,-0.14701 0.65546,-0.11703 0.22877,0.0329 0.44778,0.14283 0.61373,0.30691 0.14646,0.14571 0.16317,0.294 0.11292,0.48678 -0.0822,0.30691 -0.22309,0.60091 -0.35845,0.88761 -0.0313,0.0698 -0.31244,0.61368 -0.35002,0.68074 -0.67645,1.2189 -0.81175,1.33733 -1.00418,1.25887 z" />
    <path
       style="fill:#f0f0f0;fill-opacity:1;stroke-width:0.0141089"
       id="path4-6"
       d="m 406.65637,535.7555 c 0.13386,0.5853 0.11991,1.22747 0.003,1.68984 -0.10734,0.43673 -0.39884,0.82776 -0.8619,0.95905 -0.40597,0.11565 -0.87868,0.0309 -1.16887,-0.25402 -0.47697,-0.46814 -0.7559,-1.5671 -0.6318,-2.3649 0.10046,-0.64067 0.43798,-1.46144 1.17862,-1.49722 0.0483,-0.002 0.0949,-10e-4 0.14217,0.002 0.75462,0.07 1.16605,0.72083 1.33625,1.46445 z m -1.364,1.33159 c 0.0411,0.008 0.0837,0.008 0.12544,-0.003 0.14089,-0.0409 0.2218,-0.19128 0.25942,-0.3368 0.0576,-0.22124 0.0492,-0.45958 -0.0266,-0.67654 -0.0383,-0.10991 -0.0934,-0.21695 -0.17855,-0.29688 -0.29978,-0.28113 -0.59957,0.0109 -0.65126,0.34396 -0.0402,0.2598 0.0188,0.56091 0.17709,0.77075 0.074,0.097 0.18005,0.18121 0.29302,0.2012 z" />
    <path
       style="fill:#f0f0f0;fill-opacity:1;stroke-width:0.0141089"
       id="path6-7"
       d="m 408.28962,536.99587 c -0.001,1.08026 0.10454,1.90664 -0.3599,2.00515 -0.37654,0.0785 -0.36396,-0.25976 -0.39333,-0.54379 -0.11151,-1.10031 -0.21332,-2.92849 -0.25663,-4.03475 0.0304,-0.47529 0.34178,-0.76641 0.66534,-0.83764 0.49932,-0.10993 1.03206,-0.0786 1.47423,0.20115 0.87451,0.55385 0.94426,1.56996 0.41425,2.3991 -0.29013,0.45244 -1.16739,0.7808 -1.54396,0.75213 z m 0.11152,-2.42199 c -0.0541,0.009 -0.14362,0.0328 -0.16877,0.0883 -0.0599,0.12701 -0.0564,0.93358 0.0492,1.27175 0.0178,0.0563 0.0534,0.10841 0.10877,0.1284 0.19806,0.0743 0.37661,-0.17416 0.4575,-0.32398 0.11297,-0.20835 0.14917,-0.45379 0.0781,-0.68224 -0.0671,-0.21259 -0.27474,-0.52095 -0.52439,-0.48226 z" />
    <path
       style="fill:#f0f0f0;fill-opacity:1;stroke-width:0.0141089"
       id="path8-5"
       d="m 403.28802,535.11041 c -0.32777,0.70945 -0.87173,1.27307 -1.62482,1.55147 0.2163,0.57802 0.43648,1.14895 0.65129,1.72543 0.12002,0.31109 0.23434,0.65222 0.12968,0.95906 -0.10879,0.314 -0.5326,0.40103 -0.84093,0.0672 -0.59285,-0.64515 -2.59697,-4.7326 -2.74479,-5.03951 -0.12563,-0.26402 -0.31372,-0.54665 -0.30834,-0.85203 0.01,-0.45961 0.70454,-0.92489 1.03759,-1.16311 0.46598,-0.33269 1.00427,-0.55965 1.58033,-0.56093 0.44917,0 0.83267,0.12572 1.17304,0.34815 0.52156,0.34269 0.88429,0.88911 1.01825,1.5071 0.11702,0.54384 0.0919,1.10059 -0.0713,1.45732 m -1.52714,-0.77647 c -0.11721,-0.43519 -0.38225,-0.83622 -0.71563,-1.11735 -0.0724,-0.0613 -0.15067,-0.11863 -0.24107,-0.14989 -0.62489,-0.20987 -0.35432,0.85912 -0.2525,1.12895 0.14084,0.37815 0.35432,0.85622 0.64012,1.14161 0.0626,0.0626 0.13672,0.11854 0.22173,0.13562 0.12973,0.028 0.24964,-0.0659 0.31532,-0.17407 0.0534,-0.0899 0.0752,-0.19698 0.0879,-0.30109 0.0226,-0.22116 0.002,-0.44682 -0.0566,-0.66378 z" />
    <path
       style="fill:#263740;fill-opacity:1;stroke-width:0.0141089"
       id="path10-3"
       d="m 410.76018,540.54339 c -0.002,0.6266 -0.37658,1.2531 -1.20092,1.2531 -0.82424,0 -1.20779,-0.6165 -1.20779,-1.24595 0,-0.78496 0.53416,-1.27021 1.22457,-1.27021 0.80059,0.008 1.19112,0.61512 1.18414,1.26306 z m -1.18414,-0.86769 c -0.51744,0 -0.80761,0.36825 -0.81035,0.87059 0,0.43673 0.23847,0.84633 0.80053,0.84633 0.56208,0 0.77688,-0.44382 0.77688,-0.85061 0.008,-0.42249 -0.21195,-0.85632 -0.76706,-0.86631 z m 1.53,1.79967 c 0,0.0928 0.002,-0.441 0,-0.52232 h 0.37937 l 0.0277,0.32686 c 0.12419,0.0728 0.31661,0.12703 0.47422,0.12703 0.29294,0 0.59837,-0.0757 0.59837,-0.36827 -0.01,-0.26547 -0.35008,-0.31968 -0.62483,-0.34828 -0.46724,-0.049 -0.84381,-0.16546 -0.84381,-0.70214 0,-0.47814 0.52857,-0.71638 0.92189,-0.71638 0.31661,-0.008 0.54116,0.0428 0.82706,0.2782 0,0.19276 -0.002,0.30691 -0.002,0.49953 h -0.36674 l -0.0226,-0.31676 c -0.14784,-0.0729 -0.29988,-0.0928 -0.41701,-0.0899 -0.25246,0.002 -0.52165,0.12411 -0.52165,0.34107 0,0.21261 0.17435,0.27114 0.48396,0.31687 0.50494,0.0685 0.99166,0.18548 0.99166,0.73641 -0.002,0.60223 -0.55511,0.76071 -1.0293,0.76071 -0.36122,10e-4 -0.58719,-0.0673 -0.87309,-0.32261 z"
       inkscape:connector-curvature="0" />
    <path
       style="fill:#f0f0f0;fill-opacity:1;stroke-width:0.0141089"
       id="path12-5"
       d="m 407.83958,541.59103 c 0,0.1099 -0.0865,0.19833 -0.19383,0.19833 h -2.24139 c -0.10741,0 -0.1938,-0.0884 -0.1938,-0.19833 v -0.018 c 0,-0.10994 0.0864,-0.19829 0.1938,-0.19829 h 2.24139 c 0.10731,0 0.19383,0.0883 0.19383,0.19829 z"
       inkscape:connector-curvature="0" />
  </g>
</svg>
