<?xml version="1.0" encoding="UTF-8" standalone="no"?>
<svg
   width="32"
   version="1.1"
   height="32"
   viewBox="0 0 32 32"
   id="svg15"
   sodipodi:docname="folder-build.svg"
   inkscape:version="1.1.1 (3bf5ae0d25, 2021-09-20)"
   xmlns:inkscape="http://www.inkscape.org/namespaces/inkscape"
   xmlns:sodipodi="http://sodipodi.sourceforge.net/DTD/sodipodi-0.dtd"
   xmlns:xlink="http://www.w3.org/1999/xlink"
   xmlns="http://www.w3.org/2000/svg"
   xmlns:svg="http://www.w3.org/2000/svg"
   xmlns:rdf="http://www.w3.org/1999/02/22-rdf-syntax-ns#"
   xmlns:cc="http://creativecommons.org/ns#"
   xmlns:dc="http://purl.org/dc/elements/1.1/">
  <sodipodi:namedview
     pagecolor="#ffffff"
     bordercolor="#666666"
     borderopacity="1"
     objecttolerance="10"
     gridtolerance="10"
     guidetolerance="10"
     inkscape:pageopacity="0"
     inkscape:pageshadow="2"
     inkscape:window-width="1920"
     inkscape:window-height="1013"
     id="namedview17"
     showgrid="true"
     inkscape:zoom="9.8125"
     inkscape:cx="-9.477707"
     inkscape:cy="18.038217"
     inkscape:window-x="0"
     inkscape:window-y="0"
     inkscape:window-maximized="1"
     inkscape:current-layer="layer1"
     inkscape:pagecheckerboard="0">
    <inkscape:grid
       type="xygrid"
       id="grid862" />
  </sodipodi:namedview>
  <defs
     id="defs5455">
    <linearGradient
       inkscape:collect="always"
       xlink:href="#linearGradient1154"
       id="linearGradient1156"
       x1="425.57144"
       y1="522.79797"
       x2="431.57144"
       y2="524.79797"
       gradientUnits="userSpaceOnUse"
       gradientTransform="matrix(0.52085458,0,0,0.52085458,184.35981,263.83385)" />
    <linearGradient
       inkscape:collect="always"
       id="linearGradient1154">
      <stop
         style="stop-color:#ffffff;stop-opacity:1"
         offset="0"
         id="stop1150" />
      <stop
         style="stop-color:#1a1a1a;stop-opacity:1"
         offset="0.06666645"
         id="stop1768" />
      <stop
         style="stop-color:#232629;stop-opacity:1"
         offset="1"
         id="stop1152" />
    </linearGradient>
  </defs>
  <metadata
     id="metadata5458">
    <rdf:RDF>
      <cc:Work
         rdf:about="">
        <dc:format>image/svg+xml</dc:format>
        <dc:type
           rdf:resource="http://purl.org/dc/dcmitype/StillImage" />
      </cc:Work>
    </rdf:RDF>
  </metadata>
  <g
     inkscape:label="Capa 1"
     inkscape:groupmode="layer"
     id="layer1"
     transform="translate(-384.57143,-515.798)">
    <path
       style="fill:#8484ac;fill-opacity:1;stroke-width:0.0908071"
       d="m 397.16109,521.9059 c -0.37416,2e-4 -0.81705,-0.3122 -0.98475,-0.6938 l -0.7521,-1.7153 c -0.16735,-0.3816 -0.61024,-0.6936 -0.98442,-0.6938 h -7.38054 c -1.48487,0 -2.48409,1.0045 -2.48085,2.4923 v 0 0 l -0.007,20.9995 c -5e-4,2.0102 0.49921,2.5028 2.49487,2.5032 h 27.02773 c 2.45575,4e-4 2.47954,-0.014 2.47732,-2.5278 l -0.0157,-17.8698 c -0.001,-1.5065 -1.00012,-2.5006 -2.51369,-2.5003 z"
       id="path16"
       sodipodi:nodetypes="sccsscccsssssss" />
    <g
       id="g24"
       transform="matrix(0.08490719,0,0,0.09696453,379.48077,506.7744)">
      <path
         style="fill:#efefef;fill-opacity:1"
         d="m 179.58,131.156 8.844,17.688 c 1.968,3.936 4.8248,7.156 9.2248,7.156 H 208 c -4.4,0 -9.608,-3.22 -11.58,-7.156 l -8.844,-17.688 c -1.968,-3.936 -7.17873,-7.15601 -11.57873,-7.15601 L 168,124 c 4.4,0 9.608,3.22 11.58,7.156 z"
         id="path18"
         sodipodi:nodetypes="cssccsscc" />
      <rect
         x="75.888275"
         y="176.05383"
         style="fill:#263740;fill-opacity:1;stroke-width:0.991651"
         width="345.64072"
         height="205.93738"
         id="rect22"
         ry="10.823075" />
    </g>
    <rect
       x="386.14438"
       y="524.04803"
       style="fill:#9494b7;fill-opacity:1;stroke-width:0.0910473"
       width="28.904839"
       height="19.501451"
       id="rect26"
       ry="0.83319944" />
    <rect
       x="386.84277"
       y="524.89484"
       style="fill:#ffffff;stroke-width:0.0907359"
       width="27.509966"
       height="17.841471"
       id="rect28"
       ry="0.5996924" />
    <g
       id="g36"
       transform="matrix(0.08490719,0,0,0.09696453,379.07864,506.2248)">
      <polygon
         style="fill:#aaccff"
         points="100,276 100,272 168,204 172,204 172,276 "
         id="polygon34"
         transform="translate(-8.8452971)" />
    </g>
    <polygon
       style="fill:#2a7fff"
       points="168,272 100,272 168,204 "
       id="polygon38"
       transform="matrix(0.08490719,0,0,0.09696453,378.37753,506.2248)" />
    <path
       style="opacity:0.7;fill:#8484ac;fill-opacity:1;stroke-width:0.0910382"
       d="m 391.77897,526.0441 -5.85924,6.4309 v 10.4103 c 0.0241,0.6667 0.53116,0.9043 0.91722,0.9384 l 27.33758,0.019 c 1.05115,0 1.08137,-0.9306 1.08137,-0.9306 v -16.868 z"
       id="path30-3"
       sodipodi:nodetypes="ccccsccc" />
    <path
       style="color:#232629;fill:url(#linearGradient1156);fill-opacity:1;stroke:none;stroke-width:0.520855"
       d="m 410.78463,529.866 -0.16175,0.55239 c -0.33126,-0.0276 -0.66499,0.009 -0.98271,0.10681 l -0.27569,-0.50457 -0.91454,0.49949 0.27568,0.50458 c -0.25469,0.21459 -0.46531,0.47531 -0.62156,0.76907 l -0.55036,-0.16073 -0.29298,0.99898 0.55239,0.16175 c -0.0276,0.33126 0.008,0.666 0.1058,0.98372 l -0.50458,0.27569 0.49949,0.91455 0.50458,-0.27671 c 0.21459,0.2547 0.47633,0.46633 0.77009,0.62259 l -0.16175,0.55035 1,0.29298 0.16175,-0.55238 c 0.33126,0.0276 0.66499,-0.009 0.98271,-0.10682 l 0.2767,0.50458 0.91353,-0.4995 -0.27568,-0.50457 c 0.25469,-0.2146 0.46531,-0.47532 0.62156,-0.76908 l 0.55036,0.16073 0.29298,-0.99897 -0.55239,-0.16176 c 0.0276,-0.33126 -0.008,-0.666 -0.1058,-0.98372 l 0.50458,-0.27569 -0.4995,-0.91454 -0.50457,0.2767 c -0.2146,-0.2547 -0.47633,-0.46633 -0.77009,-0.62258 l 0.16174,-0.55036 z m -0.51476,1.06714 c 0.10338,-0.007 0.20769,-0.006 0.3113,0.003 0.13815,0.0116 0.27595,0.0367 0.41098,0.0763 0.51982,0.15261 0.96018,0.50166 1.22686,0.97355 0.2771,0.48961 0.34451,1.07127 0.18617,1.6114 -0.15261,0.51981 -0.50166,0.96018 -0.97355,1.22685 -0.48961,0.2771 -1.07127,0.34451 -1.6114,0.18617 -0.51981,-0.15261 -0.96119,-0.50166 -1.22787,-0.97355 -0.2771,-0.48961 -0.34451,-1.07127 -0.18617,-1.6114 0.15262,-0.51981 0.50166,-0.96018 0.97355,-1.22685 0.27541,-0.15587 0.58002,-0.24532 0.89013,-0.26551 z m -6.94303,1.52187 -1.03662,0.10173 0.0559,0.57274 c -0.31772,0.0979 -0.61348,0.25552 -0.87182,0.4649 l -0.44558,-0.36521 -0.66124,0.80468 0.44456,0.36521 c -0.15625,0.29428 -0.25349,0.61584 -0.28891,0.9471 l -0.5707,0.056 0.10173,1.03663 0.57274,-0.0559 c 0.0979,0.31772 0.25552,0.61347 0.4649,0.87181 l -0.36521,0.44558 0.80468,0.66124 0.36521,-0.44456 c 0.29428,0.15626 0.61584,0.2535 0.9471,0.28892 l 0.0559,0.5707 1.03663,-0.10173 -0.056,-0.57274 c 0.31772,-0.0979 0.61348,-0.25552 0.87182,-0.4649 l 0.44558,0.36521 0.66124,-0.80468 -0.44456,-0.36521 c 0.15626,-0.29428 0.25349,-0.61584 0.28891,-0.9471 l 0.57071,-0.0559 -0.10174,-1.03663 -0.57273,0.056 c -0.0979,-0.31772 -0.25552,-0.61347 -0.4649,-0.87181 l 0.3652,-0.44558 -0.80467,-0.66124 -0.36522,0.44456 c -0.29428,-0.15626 -0.61583,-0.2535 -0.94709,-0.28892 z m -0.0142,1.08647 c 0.399,0.0384 0.78172,0.19205 1.0997,0.44558 0.44012,0.35105 0.71947,0.86478 0.77416,1.42522 0.0531,0.53961 -0.10653,1.07857 -0.44456,1.50255 -0.35106,0.44012 -0.86581,0.71947 -1.42625,0.77416 -0.5396,0.0531 -1.07754,-0.10652 -1.50152,-0.44456 -0.44012,-0.35105 -0.71947,-0.8658 -0.77416,-1.42624 -0.0531,-0.53961 0.10652,-1.07755 0.44456,-1.50153 0.35105,-0.44012 0.86479,-0.71947 1.42523,-0.77416 0.1349,-0.0133 0.26985,-0.0138 0.40284,-10e-4 z m 4.48831,2.07426 v 0.57579 c -0.32606,0.0667 -0.63592,0.1951 -0.91354,0.37844 l -0.40691,-0.40692 -0.73652,0.73652 0.40691,0.40692 c -0.18386,0.27761 -0.31327,0.58747 -0.38047,0.91353 h -0.57375 v 1.04171 h 0.57579 c 0.0667,0.32605 0.19509,0.63591 0.37843,0.91353 l -0.40691,0.40692 0.73652,0.73652 0.40691,-0.40692 c 0.27762,0.18386 0.58748,0.31328 0.91354,0.38047 v 0.57375 h 1.0417 v -0.57579 c 0.32606,-0.0667 0.63592,-0.19509 0.91353,-0.37843 l 0.40692,0.40692 0.73652,-0.73652 -0.40691,-0.40692 c 0.18386,-0.27762 0.31327,-0.58748 0.38046,-0.91353 h 0.57376 v -1.04171 h -0.57579 c -0.0667,-0.32606 -0.19509,-0.63592 -0.37843,-0.91353 l 0.40691,-0.40692 -0.73652,-0.73652 -0.40692,0.40692 c -0.27761,-0.18387 -0.58747,-0.31328 -0.91353,-0.38047 v -0.57376 z m 0.52085,1.04171 c 0.54221,0 1.0626,0.2114 1.45168,0.58902 0.40366,0.3922 0.63174,0.93136 0.63174,1.4944 0,0.54221 -0.2114,1.0626 -0.58902,1.45168 -0.3922,0.40366 -0.93136,0.63174 -1.4944,0.63174 -0.54221,0 -1.0626,-0.21139 -1.45168,-0.58901 -0.40366,-0.39221 -0.63174,-0.93136 -0.63174,-1.49441 0,-0.54221 0.2114,-1.0626 0.58902,-1.45168 0.3922,-0.40366 0.93136,-0.63174 1.4944,-0.63174 z"
       class="ColorScheme-Text"
       id="path12" />
  </g>
</svg>
