<?xml version="1.0" encoding="UTF-8" standalone="no"?>
<svg
   width="32"
   version="1.1"
   height="32"
   viewBox="0 0 32 32"
   id="svg17"
   sodipodi:docname="folder-documents.svg"
   inkscape:version="1.1.1 (3bf5ae0d25, 2021-09-20)"
   xmlns:inkscape="http://www.inkscape.org/namespaces/inkscape"
   xmlns:sodipodi="http://sodipodi.sourceforge.net/DTD/sodipodi-0.dtd"
   xmlns="http://www.w3.org/2000/svg"
   xmlns:svg="http://www.w3.org/2000/svg"
   xmlns:rdf="http://www.w3.org/1999/02/22-rdf-syntax-ns#"
   xmlns:cc="http://creativecommons.org/ns#"
   xmlns:dc="http://purl.org/dc/elements/1.1/">
  <sodipodi:namedview
     pagecolor="#ffffff"
     bordercolor="#666666"
     borderopacity="1"
     objecttolerance="10"
     gridtolerance="10"
     guidetolerance="10"
     inkscape:pageopacity="0"
     inkscape:pageshadow="2"
     inkscape:window-width="1920"
     inkscape:window-height="1013"
     id="namedview19"
     showgrid="true"
     inkscape:zoom="9.8125"
     inkscape:cx="-23.33758"
     inkscape:cy="-6.2165605"
     inkscape:window-x="0"
     inkscape:window-y="0"
     inkscape:window-maximized="1"
     inkscape:current-layer="layer1"
     inkscape:pagecheckerboard="0">
    <inkscape:grid
       type="xygrid"
       id="grid887" />
  </sodipodi:namedview>
  <defs
     id="defs5455" />
  <metadata
     id="metadata5458">
    <rdf:RDF>
      <cc:Work
         rdf:about="">
        <dc:format>image/svg+xml</dc:format>
        <dc:type
           rdf:resource="http://purl.org/dc/dcmitype/StillImage" />
      </cc:Work>
    </rdf:RDF>
  </metadata>
  <g
     inkscape:label="Capa 1"
     inkscape:groupmode="layer"
     id="layer1"
     transform="translate(-384.57143,-515.798)">
    <path
       style="fill:#8484ac;fill-opacity:1;stroke-width:0.090847"
       d="m 397.17694,521.91257 c -0.37465,8e-5 -0.81809,-0.31211 -0.986,-0.69362 l -0.75304,-1.71447 c -0.16756,-0.38151 -0.61101,-0.69336 -0.98566,-0.69362 l -7.38984,-0.005 c -1.48674,-0.001 -2.48722,1.00409 -2.48397,2.49138 v 0 0 l -0.007,20.99155 c -5e-4,2.00936 0.49984,2.50173 2.49801,2.50225 l 27.06177,0.007 c 2.45885,5e-4 2.48266,-0.0104 2.48044,-2.52687 l -0.0157,-17.86293 c -0.002,-1.506 -1.00138,-2.49959 -2.51685,-2.49926 z"
       id="path16"
       sodipodi:nodetypes="sccsscccsssssss" />
    <g
       id="g24"
       transform="matrix(0.08501416,0,0,0.09692801,379.48093,506.77893)">
      <path
         style="fill:#efefef;fill-opacity:1"
         d="m 179.58,131.156 8.844,17.688 c 1.968,3.936 4.8248,7.156 9.2248,7.156 H 208 c -4.4,0 -9.608,-3.22 -11.58,-7.156 l -8.844,-17.688 c -1.968,-3.936 -7.17873,-7.15601 -11.57873,-7.15601 L 168,124 c 4.4,0 9.608,3.22 11.58,7.156 z"
         id="path18"
         sodipodi:nodetypes="cssccsscc" />
      <rect
         x="75.888275"
         y="176.05383"
         style="fill:#263740;fill-opacity:1;stroke-width:0.991651"
         width="345.64072"
         height="205.93738"
         id="rect22"
         ry="10.823075" />
    </g>
    <rect
       x="386.15298"
       y="524.04608"
       style="fill:#9494b7;fill-opacity:1;stroke-width:0.0910874"
       width="28.941244"
       height="19.494102"
       id="rect26"
       ry="0.83288556" />
    <rect
       x="386.85226"
       y="524.89233"
       style="fill:#ffffff;stroke-width:0.090776"
       width="27.544617"
       height="17.834753"
       id="rect28"
       ry="0.59946644" />
    <g
       id="g36"
       transform="matrix(0.08501416,0,0,0.09692801,379.0783,506.22945)">
      <polygon
         style="fill:#aaccff"
         points="100,272 168,204 172,204 172,276 100,276 "
         id="polygon34"
         transform="translate(-8.8452971)" />
    </g>
    <polygon
       style="fill:#2a7fff"
       points="168,272 100,272 168,204 "
       id="polygon38"
       transform="matrix(0.08501416,0,0,0.09692801,378.37631,506.22945)" />
    <path
       style="opacity:0.7;fill:#8484ac;fill-opacity:1;stroke-width:0.0911064"
       d="m 391.79823,526.04134 -5.87022,6.42853 v 10.40637 c 0.0242,0.66651 0.53216,0.90399 0.91894,0.9381 l 27.38878,0.0189 c 1.05312,5e-4 1.08339,-0.93043 1.08339,-0.93043 v -16.86154 z"
       id="path30-3"
       sodipodi:nodetypes="ccccsccc" />
    <path
       id="Page_1_-7-6"
       class="st0"
       d="m 410.57056,532.044 v 1.49954 h -0.74977 v -2.24932 h -5.24841 v 9.74705 h 6.37307 c 1.03094,0 1.87443,-0.84349 1.87443,-1.87443 v -4.87353 z m -4.49864,1.12466 h 2.24932 v 0.74977 h -2.24932 z m 0,1.87443 h 2.24932 v 0.74977 h -2.24932 z m 4.49864,4.49864 h -4.49864 v -0.74978 h 4.49864 z m 0.74978,-1.87444 h -5.24842 v -0.74977 h 5.24842 z"
       style="fill:#f0f0f0;fill-opacity:1;stroke-width:0.187443" />
    <path
       id="Page-s-5-2"
       class="st1"
       d="m 409.82079,534.29331 h 2.99909 v 5.24842 c 0,1.23712 -1.01219,2.24932 -2.24932,2.24932 h -5.24841 v -0.74978 h 5.24841 c 0.82475,0 1.49955,-0.67479 1.49955,-1.49954 v -4.49864 h -2.24932 z m -6.74796,-2.99909 c 0,-0.82475 0.6748,-1.49954 1.49955,-1.49954 h 3.74886 v 0.74977 h -3.74886 c -0.41238,0 -0.74977,0.3374 -0.74977,0.74977 v 6.37307 h -0.74978 z"
       style="fill:#263740;fill-opacity:1;stroke-width:0.187443" />
  </g>
</svg>
