<?xml version="1.0" encoding="UTF-8" standalone="no"?>
<svg
   width="32"
   version="1.1"
   height="32"
   viewBox="0 0 32 32"
   id="svg2"
   inkscape:version="1.1.1 (3bf5ae0d25, 2021-09-20)"
   sodipodi:docname="folder-gdrive.svg"
   xmlns:inkscape="http://www.inkscape.org/namespaces/inkscape"
   xmlns:sodipodi="http://sodipodi.sourceforge.net/DTD/sodipodi-0.dtd"
   xmlns:xlink="http://www.w3.org/1999/xlink"
   xmlns="http://www.w3.org/2000/svg"
   xmlns:svg="http://www.w3.org/2000/svg"
   xmlns:rdf="http://www.w3.org/1999/02/22-rdf-syntax-ns#"
   xmlns:cc="http://creativecommons.org/ns#"
   xmlns:dc="http://purl.org/dc/elements/1.1/">
  <sodipodi:namedview
     pagecolor="#ffffff"
     bordercolor="#666666"
     borderopacity="1"
     objecttolerance="10"
     gridtolerance="10"
     guidetolerance="10"
     inkscape:pageopacity="0"
     inkscape:pageshadow="2"
     inkscape:window-width="1920"
     inkscape:window-height="1013"
     id="namedview46"
     showgrid="false"
     inkscape:zoom="10.429825"
     inkscape:cx="-17.929352"
     inkscape:cy="6.3280065"
     inkscape:window-x="0"
     inkscape:window-y="0"
     inkscape:window-maximized="1"
     inkscape:current-layer="layer1"
     inkscape:document-rotation="0"
     inkscape:pagecheckerboard="0" />
  <defs
     id="defs5455">
    <linearGradient
       inkscape:collect="always"
       xlink:href="#linearGradient1352-3"
       id="linearGradient1457"
       gradientUnits="userSpaceOnUse"
       gradientTransform="matrix(0.49999991,0,0,0.49999991,193.27131,274.46983)"
       x1="439.57144"
       y1="521.79797"
       x2="422.6011"
       y2="530.65643" />
    <linearGradient
       inkscape:collect="always"
       id="linearGradient1352-3">
      <stop
         style="stop-color:#263740;stop-opacity:1"
         offset="0"
         id="stop1348-6" />
      <stop
         style="stop-color:#263740;stop-opacity:1"
         offset="0.50688648"
         id="stop2509" />
      <stop
         style="stop-color:#f0f0f0;stop-opacity:1"
         offset="0.52982205"
         id="stop2958" />
      <stop
         style="stop-color:#f0f0f0;stop-opacity:1"
         offset="0.70260483"
         id="stop2700" />
      <stop
         style="stop-color:#f0f0f0;stop-opacity:1"
         offset="1"
         id="stop1350-7" />
    </linearGradient>
  </defs>
  <metadata
     id="metadata5458">
    <rdf:RDF>
      <cc:Work
         rdf:about="">
        <dc:format>image/svg+xml</dc:format>
        <dc:type
           rdf:resource="http://purl.org/dc/dcmitype/StillImage" />
      </cc:Work>
    </rdf:RDF>
  </metadata>
  <g
     inkscape:label="Capa 1"
     inkscape:groupmode="layer"
     id="layer1"
     transform="translate(-384.57143,-515.798)">
    <path
       style="fill:#8484ac;fill-opacity:1;stroke-width:0.0908745"
       d="m 397.18075,521.90564 c -0.37476,8e-5 -0.81833,-0.31221 -0.9863,-0.69383 l -0.75327,-1.71498 c -0.16761,-0.38163 -0.61119,-0.69358 -0.98596,-0.69383 l -7.39207,-0.005 c -1.48719,-10e-4 -2.48797,1.00439 -2.48472,2.49213 v 0 0 l -0.007,20.9979 c -5e-4,2.00997 0.49999,2.50249 2.49876,2.50301 l 27.06996,0.007 c 2.45959,5e-4 2.48341,-0.0104 2.48119,-2.52763 l -0.0158,-17.86833 c -0.002,-1.50646 -1.00168,-2.50035 -2.51761,-2.50002 z"
       id="path16"
       sodipodi:nodetypes="sccsscccsssssss" />
    <g
       id="g24"
       transform="matrix(0.08503986,0,0,0.09695731,379.4728,506.7753)">
      <path
         style="fill:#efefef;fill-opacity:1"
         d="m 179.58,131.156 8.844,17.688 c 1.968,3.936 4.8248,7.156 9.2248,7.156 H 208 c -4.4,0 -9.608,-3.22 -11.58,-7.156 l -8.844,-17.688 c -1.968,-3.936 -7.17873,-7.15601 -11.57873,-7.15601 L 168,124 c 4.4,0 9.608,3.22 11.58,7.156 z"
         id="path18"
         sodipodi:nodetypes="cssccsscc" />
      <rect
         x="75.888275"
         y="176.05383"
         style="fill:#263740;fill-opacity:1;stroke-width:0.991651"
         width="345.64072"
         height="205.93738"
         id="rect22"
         ry="10.823075" />
    </g>
    <rect
       x="386.14682"
       y="524.04785"
       style="fill:#9494b7;fill-opacity:1;stroke-width:0.091115"
       width="28.949995"
       height="19.499996"
       id="rect26"
       ry="0.83313739" />
    <rect
       x="386.84631"
       y="524.89435"
       style="fill:#ffffff;stroke-width:0.0908035"
       width="27.552944"
       height="17.840145"
       id="rect28"
       ry="0.5996477" />
    <g
       id="g36"
       transform="matrix(0.08503986,0,0,0.09695731,379.07004,506.22564)">
      <polygon
         style="fill:#aaccff"
         points="172,276 100,276 100,272 168,204 172,204 "
         id="polygon34"
         transform="translate(-8.8452971)" />
    </g>
    <polygon
       style="fill:#2a7fff"
       points="168,272 100,272 168,204 "
       id="polygon38"
       transform="matrix(0.08503986,0,0,0.09695731,378.36784,506.22564)" />
    <path
       style="opacity:0.7;fill:#8484ac;fill-opacity:1;stroke-width:0.091106"
       d="m 391.79022,526.04353 -5.8684,6.43047 v 10.40952 c 0.0242,0.6667 0.53199,0.90426 0.91865,0.93838 l 27.38029,0.019 c 1.05279,5e-4 1.08306,-0.93071 1.08306,-0.93071 v -16.86664 z"
       id="path30-3"
       sodipodi:nodetypes="ccccsccc" />
    <path
       inkscape:connector-curvature="0"
       style="fill:url(#linearGradient1457);fill-opacity:1;stroke:none;stroke-width:0.6"
       d="m 404.6558,529.798 4.18233,7.71386 h 4.18369 l -4.18369,-7.71386 z m -0.67029,0.68407 -4.16368,6.8833 1.94932,3.99754 4.05481,-7.27731 z m 0.57148,7.88671 -2.1155,3.42921 h 8.46341 l 2.11692,-3.42921 z"
       class="ColorScheme-Text"
       id="path6-7" />
  </g>
</svg>
